G04 #@! TF.GenerationSoftware,KiCad,Pcbnew,5.99.0+really5.1.10+dfsg1-1*
G04 #@! TF.CreationDate,2022-04-29T14:12:33+03:00*
G04 #@! TF.ProjectId,TACNPR,5441434e-5052-42e6-9b69-6361645f7063,rev?*
G04 #@! TF.SameCoordinates,Original*
G04 #@! TF.FileFunction,Legend,Bot*
G04 #@! TF.FilePolarity,Positive*
%FSLAX46Y46*%
G04 Gerber Fmt 4.6, Leading zero omitted, Abs format (unit mm)*
G04 Created by KiCad (PCBNEW 5.99.0+really5.1.10+dfsg1-1) date 2022-04-29 14:12:33*
%MOMM*%
%LPD*%
G01*
G04 APERTURE LIST*
%ADD10C,0.100000*%
%ADD11C,0.250000*%
%ADD12C,1.000000*%
%ADD13C,0.500000*%
%ADD14C,0.300000*%
%ADD15C,0.350000*%
%ADD16C,0.010000*%
%ADD17C,0.375000*%
%ADD18C,2.350000*%
%ADD19O,1.700000X1.700000*%
%ADD20R,1.700000X1.700000*%
%ADD21C,2.600000*%
%ADD22R,2.600000X2.600000*%
%ADD23C,7.000000*%
%ADD24C,3.900000*%
%ADD25O,0.890000X1.550000*%
%ADD26O,1.250000X0.950000*%
%ADD27C,2.250000*%
%ADD28C,2.050000*%
G04 APERTURE END LIST*
D10*
G36*
X152463500Y-52324000D02*
G01*
X151447500Y-52324000D01*
X151955500Y-51308000D01*
X152463500Y-52324000D01*
G37*
X152463500Y-52324000D02*
X151447500Y-52324000D01*
X151955500Y-51308000D01*
X152463500Y-52324000D01*
D11*
X119802619Y-59443523D02*
X120802619Y-59443523D01*
X120802619Y-59062571D01*
X120755000Y-58967333D01*
X120707380Y-58919714D01*
X120612142Y-58872095D01*
X120469285Y-58872095D01*
X120374047Y-58919714D01*
X120326428Y-58967333D01*
X120278809Y-59062571D01*
X120278809Y-59443523D01*
X120088333Y-58491142D02*
X120088333Y-58014952D01*
X119802619Y-58586380D02*
X120802619Y-58253047D01*
X119802619Y-57919714D01*
X119850238Y-56872095D02*
X119802619Y-56729238D01*
X119802619Y-56491142D01*
X119850238Y-56395904D01*
X119897857Y-56348285D01*
X119993095Y-56300666D01*
X120088333Y-56300666D01*
X120183571Y-56348285D01*
X120231190Y-56395904D01*
X120278809Y-56491142D01*
X120326428Y-56681619D01*
X120374047Y-56776857D01*
X120421666Y-56824476D01*
X120516904Y-56872095D01*
X120612142Y-56872095D01*
X120707380Y-56824476D01*
X120755000Y-56776857D01*
X120802619Y-56681619D01*
X120802619Y-56443523D01*
X120755000Y-56300666D01*
X120802619Y-56014952D02*
X120802619Y-55443523D01*
X119802619Y-55729238D02*
X120802619Y-55729238D01*
X120088333Y-55157809D02*
X120088333Y-54681619D01*
X119802619Y-55253047D02*
X120802619Y-54919714D01*
X119802619Y-54586380D01*
X120755000Y-53729238D02*
X120802619Y-53824476D01*
X120802619Y-53967333D01*
X120755000Y-54110190D01*
X120659761Y-54205428D01*
X120564523Y-54253047D01*
X120374047Y-54300666D01*
X120231190Y-54300666D01*
X120040714Y-54253047D01*
X119945476Y-54205428D01*
X119850238Y-54110190D01*
X119802619Y-53967333D01*
X119802619Y-53872095D01*
X119850238Y-53729238D01*
X119897857Y-53681619D01*
X120231190Y-53681619D01*
X120231190Y-53872095D01*
X120326428Y-53253047D02*
X120326428Y-52919714D01*
X119802619Y-52776857D02*
X119802619Y-53253047D01*
X120802619Y-53253047D01*
X120802619Y-52776857D01*
X118100238Y-58776857D02*
X118052619Y-58634000D01*
X118052619Y-58395904D01*
X118100238Y-58300666D01*
X118147857Y-58253047D01*
X118243095Y-58205428D01*
X118338333Y-58205428D01*
X118433571Y-58253047D01*
X118481190Y-58300666D01*
X118528809Y-58395904D01*
X118576428Y-58586380D01*
X118624047Y-58681619D01*
X118671666Y-58729238D01*
X118766904Y-58776857D01*
X118862142Y-58776857D01*
X118957380Y-58729238D01*
X119005000Y-58681619D01*
X119052619Y-58586380D01*
X119052619Y-58348285D01*
X119005000Y-58205428D01*
X119052619Y-57776857D02*
X118243095Y-57776857D01*
X118147857Y-57729238D01*
X118100238Y-57681619D01*
X118052619Y-57586380D01*
X118052619Y-57395904D01*
X118100238Y-57300666D01*
X118147857Y-57253047D01*
X118243095Y-57205428D01*
X119052619Y-57205428D01*
X118052619Y-56729238D02*
X119052619Y-56729238D01*
X119052619Y-56348285D01*
X119005000Y-56253047D01*
X118957380Y-56205428D01*
X118862142Y-56157809D01*
X118719285Y-56157809D01*
X118624047Y-56205428D01*
X118576428Y-56253047D01*
X118528809Y-56348285D01*
X118528809Y-56729238D01*
X118052619Y-55729238D02*
X119052619Y-55729238D01*
X119052619Y-55348285D01*
X119005000Y-55253047D01*
X118957380Y-55205428D01*
X118862142Y-55157809D01*
X118719285Y-55157809D01*
X118624047Y-55205428D01*
X118576428Y-55253047D01*
X118528809Y-55348285D01*
X118528809Y-55729238D01*
X118052619Y-54253047D02*
X118052619Y-54729238D01*
X119052619Y-54729238D01*
X118528809Y-53729238D02*
X118052619Y-53729238D01*
X119052619Y-54062571D02*
X118528809Y-53729238D01*
X119052619Y-53395904D01*
X183336642Y-84288380D02*
X182717595Y-84288380D01*
X183050928Y-84669333D01*
X182908071Y-84669333D01*
X182812833Y-84716952D01*
X182765214Y-84764571D01*
X182717595Y-84859809D01*
X182717595Y-85097904D01*
X182765214Y-85193142D01*
X182812833Y-85240761D01*
X182908071Y-85288380D01*
X183193785Y-85288380D01*
X183289023Y-85240761D01*
X183336642Y-85193142D01*
X182431880Y-84288380D02*
X182098547Y-85288380D01*
X181765214Y-84288380D01*
X181527119Y-84288380D02*
X180908071Y-84288380D01*
X181241404Y-84669333D01*
X181098547Y-84669333D01*
X181003309Y-84716952D01*
X180955690Y-84764571D01*
X180908071Y-84859809D01*
X180908071Y-85097904D01*
X180955690Y-85193142D01*
X181003309Y-85240761D01*
X181098547Y-85288380D01*
X181384261Y-85288380D01*
X181479500Y-85240761D01*
X181527119Y-85193142D01*
D12*
X89204800Y-114858800D02*
X187604400Y-114757200D01*
D13*
X137175285Y-58086523D02*
X136889571Y-58181761D01*
X136413380Y-58181761D01*
X136222904Y-58086523D01*
X136127666Y-57991285D01*
X136032428Y-57800809D01*
X136032428Y-57610333D01*
X136127666Y-57419857D01*
X136222904Y-57324619D01*
X136413380Y-57229380D01*
X136794333Y-57134142D01*
X136984809Y-57038904D01*
X137080047Y-56943666D01*
X137175285Y-56753190D01*
X137175285Y-56562714D01*
X137080047Y-56372238D01*
X136984809Y-56277000D01*
X136794333Y-56181761D01*
X136318142Y-56181761D01*
X136032428Y-56277000D01*
X134032428Y-57991285D02*
X134127666Y-58086523D01*
X134413380Y-58181761D01*
X134603857Y-58181761D01*
X134889571Y-58086523D01*
X135080047Y-57896047D01*
X135175285Y-57705571D01*
X135270523Y-57324619D01*
X135270523Y-57038904D01*
X135175285Y-56657952D01*
X135080047Y-56467476D01*
X134889571Y-56277000D01*
X134603857Y-56181761D01*
X134413380Y-56181761D01*
X134127666Y-56277000D01*
X134032428Y-56372238D01*
X132794333Y-56181761D02*
X132413380Y-56181761D01*
X132222904Y-56277000D01*
X132032428Y-56467476D01*
X131937190Y-56848428D01*
X131937190Y-57515095D01*
X132032428Y-57896047D01*
X132222904Y-58086523D01*
X132413380Y-58181761D01*
X132794333Y-58181761D01*
X132984809Y-58086523D01*
X133175285Y-57896047D01*
X133270523Y-57515095D01*
X133270523Y-56848428D01*
X133175285Y-56467476D01*
X132984809Y-56277000D01*
X132794333Y-56181761D01*
X131080047Y-58181761D02*
X131080047Y-56181761D01*
X130413380Y-57610333D01*
X129746714Y-56181761D01*
X129746714Y-58181761D01*
X128889571Y-58086523D02*
X128603857Y-58181761D01*
X128127666Y-58181761D01*
X127937190Y-58086523D01*
X127841952Y-57991285D01*
X127746714Y-57800809D01*
X127746714Y-57610333D01*
X127841952Y-57419857D01*
X127937190Y-57324619D01*
X128127666Y-57229380D01*
X128508619Y-57134142D01*
X128699095Y-57038904D01*
X128794333Y-56943666D01*
X128889571Y-56753190D01*
X128889571Y-56562714D01*
X128794333Y-56372238D01*
X128699095Y-56277000D01*
X128508619Y-56181761D01*
X128032428Y-56181761D01*
X127746714Y-56277000D01*
D14*
X138079833Y-82949761D02*
X138746500Y-81997380D01*
X139222690Y-82949761D02*
X139222690Y-80949761D01*
X138460785Y-80949761D01*
X138270309Y-81045000D01*
X138175071Y-81140238D01*
X138079833Y-81330714D01*
X138079833Y-81616428D01*
X138175071Y-81806904D01*
X138270309Y-81902142D01*
X138460785Y-81997380D01*
X139222690Y-81997380D01*
X136365547Y-82949761D02*
X136365547Y-81902142D01*
X136460785Y-81711666D01*
X136651261Y-81616428D01*
X137032214Y-81616428D01*
X137222690Y-81711666D01*
X136365547Y-82854523D02*
X136556023Y-82949761D01*
X137032214Y-82949761D01*
X137222690Y-82854523D01*
X137317928Y-82664047D01*
X137317928Y-82473571D01*
X137222690Y-82283095D01*
X137032214Y-82187857D01*
X136556023Y-82187857D01*
X136365547Y-82092619D01*
X134556023Y-82949761D02*
X134556023Y-80949761D01*
X134556023Y-82854523D02*
X134746500Y-82949761D01*
X135127452Y-82949761D01*
X135317928Y-82854523D01*
X135413166Y-82759285D01*
X135508404Y-82568809D01*
X135508404Y-81997380D01*
X135413166Y-81806904D01*
X135317928Y-81711666D01*
X135127452Y-81616428D01*
X134746500Y-81616428D01*
X134556023Y-81711666D01*
X133603642Y-82949761D02*
X133603642Y-81616428D01*
X133603642Y-80949761D02*
X133698880Y-81045000D01*
X133603642Y-81140238D01*
X133508404Y-81045000D01*
X133603642Y-80949761D01*
X133603642Y-81140238D01*
X132365547Y-82949761D02*
X132556023Y-82854523D01*
X132651261Y-82759285D01*
X132746500Y-82568809D01*
X132746500Y-81997380D01*
X132651261Y-81806904D01*
X132556023Y-81711666D01*
X132365547Y-81616428D01*
X132079833Y-81616428D01*
X131889357Y-81711666D01*
X131794119Y-81806904D01*
X131698880Y-81997380D01*
X131698880Y-82568809D01*
X131794119Y-82759285D01*
X131889357Y-82854523D01*
X132079833Y-82949761D01*
X132365547Y-82949761D01*
X128270309Y-81045000D02*
X128460785Y-80949761D01*
X128746500Y-80949761D01*
X129032214Y-81045000D01*
X129222690Y-81235476D01*
X129317928Y-81425952D01*
X129413166Y-81806904D01*
X129413166Y-82092619D01*
X129317928Y-82473571D01*
X129222690Y-82664047D01*
X129032214Y-82854523D01*
X128746500Y-82949761D01*
X128556023Y-82949761D01*
X128270309Y-82854523D01*
X128175071Y-82759285D01*
X128175071Y-82092619D01*
X128556023Y-82092619D01*
X127317928Y-82949761D02*
X127317928Y-80949761D01*
X126556023Y-80949761D01*
X126365547Y-81045000D01*
X126270309Y-81140238D01*
X126175071Y-81330714D01*
X126175071Y-81616428D01*
X126270309Y-81806904D01*
X126365547Y-81902142D01*
X126556023Y-81997380D01*
X127317928Y-81997380D01*
X125317928Y-82949761D02*
X125317928Y-80949761D01*
X123984595Y-80949761D02*
X123603642Y-80949761D01*
X123413166Y-81045000D01*
X123222690Y-81235476D01*
X123127452Y-81616428D01*
X123127452Y-82283095D01*
X123222690Y-82664047D01*
X123413166Y-82854523D01*
X123603642Y-82949761D01*
X123984595Y-82949761D01*
X124175071Y-82854523D01*
X124365547Y-82664047D01*
X124460785Y-82283095D01*
X124460785Y-81616428D01*
X124365547Y-81235476D01*
X124175071Y-81045000D01*
X123984595Y-80949761D01*
X122270309Y-82759285D02*
X122175071Y-82854523D01*
X122270309Y-82949761D01*
X122365547Y-82854523D01*
X122270309Y-82759285D01*
X122270309Y-82949761D01*
X122270309Y-81711666D02*
X122175071Y-81806904D01*
X122270309Y-81902142D01*
X122365547Y-81806904D01*
X122270309Y-81711666D01*
X122270309Y-81902142D01*
X143460785Y-84345000D02*
X143651261Y-84249761D01*
X143936976Y-84249761D01*
X144222690Y-84345000D01*
X144413166Y-84535476D01*
X144508404Y-84725952D01*
X144603642Y-85106904D01*
X144603642Y-85392619D01*
X144508404Y-85773571D01*
X144413166Y-85964047D01*
X144222690Y-86154523D01*
X143936976Y-86249761D01*
X143746500Y-86249761D01*
X143460785Y-86154523D01*
X143365547Y-86059285D01*
X143365547Y-85392619D01*
X143746500Y-85392619D01*
X142508404Y-86249761D02*
X142508404Y-84249761D01*
X141746500Y-84249761D01*
X141556023Y-84345000D01*
X141460785Y-84440238D01*
X141365547Y-84630714D01*
X141365547Y-84916428D01*
X141460785Y-85106904D01*
X141556023Y-85202142D01*
X141746500Y-85297380D01*
X142508404Y-85297380D01*
X140508404Y-86249761D02*
X140508404Y-84249761D01*
X139175071Y-84249761D02*
X138794119Y-84249761D01*
X138603642Y-84345000D01*
X138413166Y-84535476D01*
X138317928Y-84916428D01*
X138317928Y-85583095D01*
X138413166Y-85964047D01*
X138603642Y-86154523D01*
X138794119Y-86249761D01*
X139175071Y-86249761D01*
X139365547Y-86154523D01*
X139556023Y-85964047D01*
X139651261Y-85583095D01*
X139651261Y-84916428D01*
X139556023Y-84535476D01*
X139365547Y-84345000D01*
X139175071Y-84249761D01*
X136889357Y-87011666D02*
X136984595Y-86916428D01*
X137175071Y-86630714D01*
X137270309Y-86440238D01*
X137365547Y-86154523D01*
X137460785Y-85678333D01*
X137460785Y-85297380D01*
X137365547Y-84821190D01*
X137270309Y-84535476D01*
X137175071Y-84345000D01*
X136984595Y-84059285D01*
X136889357Y-83964047D01*
X134984595Y-86249761D02*
X135651261Y-85297380D01*
X136127452Y-86249761D02*
X136127452Y-84249761D01*
X135365547Y-84249761D01*
X135175071Y-84345000D01*
X135079833Y-84440238D01*
X134984595Y-84630714D01*
X134984595Y-84916428D01*
X135079833Y-85106904D01*
X135175071Y-85202142D01*
X135365547Y-85297380D01*
X136127452Y-85297380D01*
X134317928Y-87011666D02*
X134222690Y-86916428D01*
X134032214Y-86630714D01*
X133936976Y-86440238D01*
X133841738Y-86154523D01*
X133746500Y-85678333D01*
X133746500Y-85297380D01*
X133841738Y-84821190D01*
X133936976Y-84535476D01*
X134032214Y-84345000D01*
X134222690Y-84059285D01*
X134317928Y-83964047D01*
X131746500Y-86249761D02*
X132889357Y-86249761D01*
X132317928Y-86249761D02*
X132317928Y-84249761D01*
X132508404Y-84535476D01*
X132698880Y-84725952D01*
X132889357Y-84821190D01*
X130889357Y-86059285D02*
X130794119Y-86154523D01*
X130889357Y-86249761D01*
X130984595Y-86154523D01*
X130889357Y-86059285D01*
X130889357Y-86249761D01*
X130889357Y-85011666D02*
X130794119Y-85106904D01*
X130889357Y-85202142D01*
X130984595Y-85106904D01*
X130889357Y-85011666D01*
X130889357Y-85202142D01*
X128698880Y-84249761D02*
X127556023Y-84249761D01*
X128127452Y-86249761D02*
X128127452Y-84249761D01*
X127079833Y-84249761D02*
X125746500Y-86249761D01*
X125746500Y-84249761D02*
X127079833Y-86249761D01*
X125460785Y-86440238D02*
X123936976Y-86440238D01*
X123556023Y-86154523D02*
X123365547Y-86249761D01*
X122984595Y-86249761D01*
X122794119Y-86154523D01*
X122698880Y-85964047D01*
X122698880Y-85868809D01*
X122794119Y-85678333D01*
X122984595Y-85583095D01*
X123270309Y-85583095D01*
X123460785Y-85487857D01*
X123556023Y-85297380D01*
X123556023Y-85202142D01*
X123460785Y-85011666D01*
X123270309Y-84916428D01*
X122984595Y-84916428D01*
X122794119Y-85011666D01*
X122127452Y-84916428D02*
X121365547Y-84916428D01*
X121841738Y-84249761D02*
X121841738Y-85964047D01*
X121746500Y-86154523D01*
X121556023Y-86249761D01*
X121365547Y-86249761D01*
X119841738Y-86249761D02*
X119841738Y-85202142D01*
X119936976Y-85011666D01*
X120127452Y-84916428D01*
X120508404Y-84916428D01*
X120698880Y-85011666D01*
X119841738Y-86154523D02*
X120032214Y-86249761D01*
X120508404Y-86249761D01*
X120698880Y-86154523D01*
X120794119Y-85964047D01*
X120794119Y-85773571D01*
X120698880Y-85583095D01*
X120508404Y-85487857D01*
X120032214Y-85487857D01*
X119841738Y-85392619D01*
X119175071Y-84916428D02*
X118413166Y-84916428D01*
X118889357Y-84249761D02*
X118889357Y-85964047D01*
X118794119Y-86154523D01*
X118603642Y-86249761D01*
X118413166Y-86249761D01*
X116984595Y-86154523D02*
X117175071Y-86249761D01*
X117556023Y-86249761D01*
X117746500Y-86154523D01*
X117841738Y-85964047D01*
X117841738Y-85202142D01*
X117746500Y-85011666D01*
X117556023Y-84916428D01*
X117175071Y-84916428D01*
X116984595Y-85011666D01*
X116889357Y-85202142D01*
X116889357Y-85392619D01*
X117841738Y-85583095D01*
X143698880Y-87645000D02*
X143889357Y-87549761D01*
X144175071Y-87549761D01*
X144460785Y-87645000D01*
X144651261Y-87835476D01*
X144746500Y-88025952D01*
X144841738Y-88406904D01*
X144841738Y-88692619D01*
X144746500Y-89073571D01*
X144651261Y-89264047D01*
X144460785Y-89454523D01*
X144175071Y-89549761D01*
X143984595Y-89549761D01*
X143698880Y-89454523D01*
X143603642Y-89359285D01*
X143603642Y-88692619D01*
X143984595Y-88692619D01*
X142746500Y-89549761D02*
X142746500Y-87549761D01*
X141984595Y-87549761D01*
X141794119Y-87645000D01*
X141698880Y-87740238D01*
X141603642Y-87930714D01*
X141603642Y-88216428D01*
X141698880Y-88406904D01*
X141794119Y-88502142D01*
X141984595Y-88597380D01*
X142746500Y-88597380D01*
X140746500Y-89549761D02*
X140746500Y-87549761D01*
X139413166Y-87549761D02*
X139032214Y-87549761D01*
X138841738Y-87645000D01*
X138651261Y-87835476D01*
X138556023Y-88216428D01*
X138556023Y-88883095D01*
X138651261Y-89264047D01*
X138841738Y-89454523D01*
X139032214Y-89549761D01*
X139413166Y-89549761D01*
X139603642Y-89454523D01*
X139794119Y-89264047D01*
X139889357Y-88883095D01*
X139889357Y-88216428D01*
X139794119Y-87835476D01*
X139603642Y-87645000D01*
X139413166Y-87549761D01*
X137127452Y-90311666D02*
X137222690Y-90216428D01*
X137413166Y-89930714D01*
X137508404Y-89740238D01*
X137603642Y-89454523D01*
X137698880Y-88978333D01*
X137698880Y-88597380D01*
X137603642Y-88121190D01*
X137508404Y-87835476D01*
X137413166Y-87645000D01*
X137222690Y-87359285D01*
X137127452Y-87264047D01*
X135222690Y-89549761D02*
X135889357Y-88597380D01*
X136365547Y-89549761D02*
X136365547Y-87549761D01*
X135603642Y-87549761D01*
X135413166Y-87645000D01*
X135317928Y-87740238D01*
X135222690Y-87930714D01*
X135222690Y-88216428D01*
X135317928Y-88406904D01*
X135413166Y-88502142D01*
X135603642Y-88597380D01*
X136365547Y-88597380D01*
X134556023Y-90311666D02*
X134460785Y-90216428D01*
X134270309Y-89930714D01*
X134175071Y-89740238D01*
X134079833Y-89454523D01*
X133984595Y-88978333D01*
X133984595Y-88597380D01*
X134079833Y-88121190D01*
X134175071Y-87835476D01*
X134270309Y-87645000D01*
X134460785Y-87359285D01*
X134556023Y-87264047D01*
X133127452Y-87740238D02*
X133032214Y-87645000D01*
X132841738Y-87549761D01*
X132365547Y-87549761D01*
X132175071Y-87645000D01*
X132079833Y-87740238D01*
X131984595Y-87930714D01*
X131984595Y-88121190D01*
X132079833Y-88406904D01*
X133222690Y-89549761D01*
X131984595Y-89549761D01*
X131127452Y-89359285D02*
X131032214Y-89454523D01*
X131127452Y-89549761D01*
X131222690Y-89454523D01*
X131127452Y-89359285D01*
X131127452Y-89549761D01*
X131127452Y-88311666D02*
X131032214Y-88406904D01*
X131127452Y-88502142D01*
X131222690Y-88406904D01*
X131127452Y-88311666D01*
X131127452Y-88502142D01*
X127508404Y-89549761D02*
X128175071Y-88597380D01*
X128651261Y-89549761D02*
X128651261Y-87549761D01*
X127889357Y-87549761D01*
X127698880Y-87645000D01*
X127603642Y-87740238D01*
X127508404Y-87930714D01*
X127508404Y-88216428D01*
X127603642Y-88406904D01*
X127698880Y-88502142D01*
X127889357Y-88597380D01*
X128651261Y-88597380D01*
X126841738Y-87549761D02*
X125508404Y-89549761D01*
X125508404Y-87549761D02*
X126841738Y-89549761D01*
X125222690Y-89740238D02*
X123698880Y-89740238D01*
X123317928Y-89454523D02*
X123127452Y-89549761D01*
X122746500Y-89549761D01*
X122556023Y-89454523D01*
X122460785Y-89264047D01*
X122460785Y-89168809D01*
X122556023Y-88978333D01*
X122746500Y-88883095D01*
X123032214Y-88883095D01*
X123222690Y-88787857D01*
X123317928Y-88597380D01*
X123317928Y-88502142D01*
X123222690Y-88311666D01*
X123032214Y-88216428D01*
X122746500Y-88216428D01*
X122556023Y-88311666D01*
X121889357Y-88216428D02*
X121127452Y-88216428D01*
X121603642Y-87549761D02*
X121603642Y-89264047D01*
X121508404Y-89454523D01*
X121317928Y-89549761D01*
X121127452Y-89549761D01*
X119603642Y-89549761D02*
X119603642Y-88502142D01*
X119698880Y-88311666D01*
X119889357Y-88216428D01*
X120270309Y-88216428D01*
X120460785Y-88311666D01*
X119603642Y-89454523D02*
X119794119Y-89549761D01*
X120270309Y-89549761D01*
X120460785Y-89454523D01*
X120556023Y-89264047D01*
X120556023Y-89073571D01*
X120460785Y-88883095D01*
X120270309Y-88787857D01*
X119794119Y-88787857D01*
X119603642Y-88692619D01*
X118936976Y-88216428D02*
X118175071Y-88216428D01*
X118651261Y-87549761D02*
X118651261Y-89264047D01*
X118556023Y-89454523D01*
X118365547Y-89549761D01*
X118175071Y-89549761D01*
X116746500Y-89454523D02*
X116936976Y-89549761D01*
X117317928Y-89549761D01*
X117508404Y-89454523D01*
X117603642Y-89264047D01*
X117603642Y-88502142D01*
X117508404Y-88311666D01*
X117317928Y-88216428D01*
X116936976Y-88216428D01*
X116746500Y-88311666D01*
X116651261Y-88502142D01*
X116651261Y-88692619D01*
X117603642Y-88883095D01*
X143460785Y-90945000D02*
X143651261Y-90849761D01*
X143936976Y-90849761D01*
X144222690Y-90945000D01*
X144413166Y-91135476D01*
X144508404Y-91325952D01*
X144603642Y-91706904D01*
X144603642Y-91992619D01*
X144508404Y-92373571D01*
X144413166Y-92564047D01*
X144222690Y-92754523D01*
X143936976Y-92849761D01*
X143746500Y-92849761D01*
X143460785Y-92754523D01*
X143365547Y-92659285D01*
X143365547Y-91992619D01*
X143746500Y-91992619D01*
X142508404Y-92849761D02*
X142508404Y-90849761D01*
X141746500Y-90849761D01*
X141556023Y-90945000D01*
X141460785Y-91040238D01*
X141365547Y-91230714D01*
X141365547Y-91516428D01*
X141460785Y-91706904D01*
X141556023Y-91802142D01*
X141746500Y-91897380D01*
X142508404Y-91897380D01*
X140508404Y-92849761D02*
X140508404Y-90849761D01*
X139175071Y-90849761D02*
X138794119Y-90849761D01*
X138603642Y-90945000D01*
X138413166Y-91135476D01*
X138317928Y-91516428D01*
X138317928Y-92183095D01*
X138413166Y-92564047D01*
X138603642Y-92754523D01*
X138794119Y-92849761D01*
X139175071Y-92849761D01*
X139365547Y-92754523D01*
X139556023Y-92564047D01*
X139651261Y-92183095D01*
X139651261Y-91516428D01*
X139556023Y-91135476D01*
X139365547Y-90945000D01*
X139175071Y-90849761D01*
X136889357Y-93611666D02*
X136984595Y-93516428D01*
X137175071Y-93230714D01*
X137270309Y-93040238D01*
X137365547Y-92754523D01*
X137460785Y-92278333D01*
X137460785Y-91897380D01*
X137365547Y-91421190D01*
X137270309Y-91135476D01*
X137175071Y-90945000D01*
X136984595Y-90659285D01*
X136889357Y-90564047D01*
X134984595Y-92849761D02*
X135651261Y-91897380D01*
X136127452Y-92849761D02*
X136127452Y-90849761D01*
X135365547Y-90849761D01*
X135175071Y-90945000D01*
X135079833Y-91040238D01*
X134984595Y-91230714D01*
X134984595Y-91516428D01*
X135079833Y-91706904D01*
X135175071Y-91802142D01*
X135365547Y-91897380D01*
X136127452Y-91897380D01*
X134317928Y-93611666D02*
X134222690Y-93516428D01*
X134032214Y-93230714D01*
X133936976Y-93040238D01*
X133841738Y-92754523D01*
X133746500Y-92278333D01*
X133746500Y-91897380D01*
X133841738Y-91421190D01*
X133936976Y-91135476D01*
X134032214Y-90945000D01*
X134222690Y-90659285D01*
X134317928Y-90564047D01*
X132984595Y-90849761D02*
X131746500Y-90849761D01*
X132413166Y-91611666D01*
X132127452Y-91611666D01*
X131936976Y-91706904D01*
X131841738Y-91802142D01*
X131746500Y-91992619D01*
X131746500Y-92468809D01*
X131841738Y-92659285D01*
X131936976Y-92754523D01*
X132127452Y-92849761D01*
X132698880Y-92849761D01*
X132889357Y-92754523D01*
X132984595Y-92659285D01*
X130889357Y-92659285D02*
X130794119Y-92754523D01*
X130889357Y-92849761D01*
X130984595Y-92754523D01*
X130889357Y-92659285D01*
X130889357Y-92849761D01*
X130889357Y-91611666D02*
X130794119Y-91706904D01*
X130889357Y-91802142D01*
X130984595Y-91706904D01*
X130889357Y-91611666D01*
X130889357Y-91802142D01*
X128698880Y-90849761D02*
X127556023Y-90849761D01*
X128127452Y-92849761D02*
X128127452Y-90849761D01*
X127079833Y-90849761D02*
X125746500Y-92849761D01*
X125746500Y-90849761D02*
X127079833Y-92849761D01*
X125460785Y-93040238D02*
X123936976Y-93040238D01*
X123556023Y-92754523D02*
X123365547Y-92849761D01*
X122984595Y-92849761D01*
X122794119Y-92754523D01*
X122698880Y-92564047D01*
X122698880Y-92468809D01*
X122794119Y-92278333D01*
X122984595Y-92183095D01*
X123270309Y-92183095D01*
X123460785Y-92087857D01*
X123556023Y-91897380D01*
X123556023Y-91802142D01*
X123460785Y-91611666D01*
X123270309Y-91516428D01*
X122984595Y-91516428D01*
X122794119Y-91611666D01*
X122127452Y-91516428D02*
X121365547Y-91516428D01*
X121841738Y-90849761D02*
X121841738Y-92564047D01*
X121746500Y-92754523D01*
X121556023Y-92849761D01*
X121365547Y-92849761D01*
X119841738Y-92849761D02*
X119841738Y-91802142D01*
X119936976Y-91611666D01*
X120127452Y-91516428D01*
X120508404Y-91516428D01*
X120698880Y-91611666D01*
X119841738Y-92754523D02*
X120032214Y-92849761D01*
X120508404Y-92849761D01*
X120698880Y-92754523D01*
X120794119Y-92564047D01*
X120794119Y-92373571D01*
X120698880Y-92183095D01*
X120508404Y-92087857D01*
X120032214Y-92087857D01*
X119841738Y-91992619D01*
X119175071Y-91516428D02*
X118413166Y-91516428D01*
X118889357Y-90849761D02*
X118889357Y-92564047D01*
X118794119Y-92754523D01*
X118603642Y-92849761D01*
X118413166Y-92849761D01*
X116984595Y-92754523D02*
X117175071Y-92849761D01*
X117556023Y-92849761D01*
X117746500Y-92754523D01*
X117841738Y-92564047D01*
X117841738Y-91802142D01*
X117746500Y-91611666D01*
X117556023Y-91516428D01*
X117175071Y-91516428D01*
X116984595Y-91611666D01*
X116889357Y-91802142D01*
X116889357Y-91992619D01*
X117841738Y-92183095D01*
X178560533Y-97299171D02*
X178560533Y-97870600D01*
X178960533Y-97184885D02*
X177560533Y-97584885D01*
X178960533Y-97984885D01*
X178027200Y-98213457D02*
X178027200Y-98670600D01*
X177560533Y-98384885D02*
X178760533Y-98384885D01*
X178893866Y-98442028D01*
X178960533Y-98556314D01*
X178960533Y-98670600D01*
X178027200Y-98899171D02*
X178027200Y-99356314D01*
X177560533Y-99070600D02*
X178760533Y-99070600D01*
X178893866Y-99127742D01*
X178960533Y-99242028D01*
X178960533Y-99356314D01*
X178893866Y-100213457D02*
X178960533Y-100099171D01*
X178960533Y-99870600D01*
X178893866Y-99756314D01*
X178760533Y-99699171D01*
X178227200Y-99699171D01*
X178093866Y-99756314D01*
X178027200Y-99870600D01*
X178027200Y-100099171D01*
X178093866Y-100213457D01*
X178227200Y-100270600D01*
X178360533Y-100270600D01*
X178493866Y-99699171D01*
X178027200Y-100784885D02*
X178960533Y-100784885D01*
X178160533Y-100784885D02*
X178093866Y-100842028D01*
X178027200Y-100956314D01*
X178027200Y-101127742D01*
X178093866Y-101242028D01*
X178227200Y-101299171D01*
X178960533Y-101299171D01*
X178027200Y-101699171D02*
X178027200Y-102156314D01*
X177560533Y-101870600D02*
X178760533Y-101870600D01*
X178893866Y-101927742D01*
X178960533Y-102042028D01*
X178960533Y-102156314D01*
X178960533Y-102556314D02*
X178027200Y-102556314D01*
X177560533Y-102556314D02*
X177627200Y-102499171D01*
X177693866Y-102556314D01*
X177627200Y-102613457D01*
X177560533Y-102556314D01*
X177693866Y-102556314D01*
X178960533Y-103299171D02*
X178893866Y-103184885D01*
X178827200Y-103127742D01*
X178693866Y-103070600D01*
X178293866Y-103070600D01*
X178160533Y-103127742D01*
X178093866Y-103184885D01*
X178027200Y-103299171D01*
X178027200Y-103470600D01*
X178093866Y-103584885D01*
X178160533Y-103642028D01*
X178293866Y-103699171D01*
X178693866Y-103699171D01*
X178827200Y-103642028D01*
X178893866Y-103584885D01*
X178960533Y-103470600D01*
X178960533Y-103299171D01*
X178027200Y-104213457D02*
X178960533Y-104213457D01*
X178160533Y-104213457D02*
X178093866Y-104270600D01*
X178027200Y-104384885D01*
X178027200Y-104556314D01*
X178093866Y-104670600D01*
X178227200Y-104727742D01*
X178960533Y-104727742D01*
X178827200Y-105299171D02*
X178893866Y-105356314D01*
X178960533Y-105299171D01*
X178893866Y-105242028D01*
X178827200Y-105299171D01*
X178960533Y-105299171D01*
X178427200Y-105299171D02*
X177627200Y-105242028D01*
X177560533Y-105299171D01*
X177627200Y-105356314D01*
X178427200Y-105299171D01*
X177560533Y-105299171D01*
X178227200Y-106784885D02*
X178227200Y-107184885D01*
X178960533Y-107356314D02*
X178960533Y-106784885D01*
X177560533Y-106784885D01*
X177560533Y-107356314D01*
X178893866Y-107813457D02*
X178960533Y-107984885D01*
X178960533Y-108270600D01*
X178893866Y-108384885D01*
X178827200Y-108442028D01*
X178693866Y-108499171D01*
X178560533Y-108499171D01*
X178427200Y-108442028D01*
X178360533Y-108384885D01*
X178293866Y-108270600D01*
X178227200Y-108042028D01*
X178160533Y-107927742D01*
X178093866Y-107870600D01*
X177960533Y-107813457D01*
X177827200Y-107813457D01*
X177693866Y-107870600D01*
X177627200Y-107927742D01*
X177560533Y-108042028D01*
X177560533Y-108327742D01*
X177627200Y-108499171D01*
X178960533Y-109013457D02*
X177560533Y-109013457D01*
X177560533Y-109299171D01*
X177627200Y-109470600D01*
X177760533Y-109584885D01*
X177893866Y-109642028D01*
X178160533Y-109699171D01*
X178360533Y-109699171D01*
X178627200Y-109642028D01*
X178760533Y-109584885D01*
X178893866Y-109470600D01*
X178960533Y-109299171D01*
X178960533Y-109013457D01*
X181293866Y-97299171D02*
X181360533Y-97413457D01*
X181360533Y-97642028D01*
X181293866Y-97756314D01*
X181160533Y-97813457D01*
X181093866Y-97813457D01*
X180960533Y-97756314D01*
X180893866Y-97642028D01*
X180893866Y-97470600D01*
X180827200Y-97356314D01*
X180693866Y-97299171D01*
X180627200Y-97299171D01*
X180493866Y-97356314D01*
X180427200Y-97470600D01*
X180427200Y-97642028D01*
X180493866Y-97756314D01*
X181293866Y-98784885D02*
X181360533Y-98670600D01*
X181360533Y-98442028D01*
X181293866Y-98327742D01*
X181160533Y-98270600D01*
X180627200Y-98270600D01*
X180493866Y-98327742D01*
X180427200Y-98442028D01*
X180427200Y-98670600D01*
X180493866Y-98784885D01*
X180627200Y-98842028D01*
X180760533Y-98842028D01*
X180893866Y-98270600D01*
X180427200Y-99356314D02*
X181360533Y-99356314D01*
X180560533Y-99356314D02*
X180493866Y-99413457D01*
X180427200Y-99527742D01*
X180427200Y-99699171D01*
X180493866Y-99813457D01*
X180627200Y-99870600D01*
X181360533Y-99870600D01*
X181293866Y-100384885D02*
X181360533Y-100499171D01*
X181360533Y-100727742D01*
X181293866Y-100842028D01*
X181160533Y-100899171D01*
X181093866Y-100899171D01*
X180960533Y-100842028D01*
X180893866Y-100727742D01*
X180893866Y-100556314D01*
X180827200Y-100442028D01*
X180693866Y-100384885D01*
X180627200Y-100384885D01*
X180493866Y-100442028D01*
X180427200Y-100556314D01*
X180427200Y-100727742D01*
X180493866Y-100842028D01*
X181360533Y-101413457D02*
X180427200Y-101413457D01*
X179960533Y-101413457D02*
X180027200Y-101356314D01*
X180093866Y-101413457D01*
X180027200Y-101470600D01*
X179960533Y-101413457D01*
X180093866Y-101413457D01*
X180427200Y-101813457D02*
X180427200Y-102270600D01*
X179960533Y-101984885D02*
X181160533Y-101984885D01*
X181293866Y-102042028D01*
X181360533Y-102156314D01*
X181360533Y-102270600D01*
X181360533Y-102670600D02*
X180427200Y-102670600D01*
X179960533Y-102670600D02*
X180027200Y-102613457D01*
X180093866Y-102670600D01*
X180027200Y-102727742D01*
X179960533Y-102670600D01*
X180093866Y-102670600D01*
X180427200Y-103127742D02*
X181360533Y-103413457D01*
X180427200Y-103699171D01*
X181293866Y-104613457D02*
X181360533Y-104499171D01*
X181360533Y-104270600D01*
X181293866Y-104156314D01*
X181160533Y-104099171D01*
X180627200Y-104099171D01*
X180493866Y-104156314D01*
X180427200Y-104270600D01*
X180427200Y-104499171D01*
X180493866Y-104613457D01*
X180627200Y-104670600D01*
X180760533Y-104670600D01*
X180893866Y-104099171D01*
X181360533Y-106613457D02*
X179960533Y-106613457D01*
X181293866Y-106613457D02*
X181360533Y-106499171D01*
X181360533Y-106270600D01*
X181293866Y-106156314D01*
X181227200Y-106099171D01*
X181093866Y-106042028D01*
X180693866Y-106042028D01*
X180560533Y-106099171D01*
X180493866Y-106156314D01*
X180427200Y-106270600D01*
X180427200Y-106499171D01*
X180493866Y-106613457D01*
X181293866Y-107642028D02*
X181360533Y-107527742D01*
X181360533Y-107299171D01*
X181293866Y-107184885D01*
X181160533Y-107127742D01*
X180627200Y-107127742D01*
X180493866Y-107184885D01*
X180427200Y-107299171D01*
X180427200Y-107527742D01*
X180493866Y-107642028D01*
X180627200Y-107699171D01*
X180760533Y-107699171D01*
X180893866Y-107127742D01*
X180427200Y-108099171D02*
X181360533Y-108384885D01*
X180427200Y-108670600D01*
X181360533Y-109127742D02*
X180427200Y-109127742D01*
X179960533Y-109127742D02*
X180027200Y-109070600D01*
X180093866Y-109127742D01*
X180027200Y-109184885D01*
X179960533Y-109127742D01*
X180093866Y-109127742D01*
X181293866Y-110213457D02*
X181360533Y-110099171D01*
X181360533Y-109870600D01*
X181293866Y-109756314D01*
X181227200Y-109699171D01*
X181093866Y-109642028D01*
X180693866Y-109642028D01*
X180560533Y-109699171D01*
X180493866Y-109756314D01*
X180427200Y-109870600D01*
X180427200Y-110099171D01*
X180493866Y-110213457D01*
X181293866Y-111184885D02*
X181360533Y-111070600D01*
X181360533Y-110842028D01*
X181293866Y-110727742D01*
X181160533Y-110670600D01*
X180627200Y-110670600D01*
X180493866Y-110727742D01*
X180427200Y-110842028D01*
X180427200Y-111070600D01*
X180493866Y-111184885D01*
X180627200Y-111242028D01*
X180760533Y-111242028D01*
X180893866Y-110670600D01*
X181293866Y-111699171D02*
X181360533Y-111813457D01*
X181360533Y-112042028D01*
X181293866Y-112156314D01*
X181160533Y-112213457D01*
X181093866Y-112213457D01*
X180960533Y-112156314D01*
X180893866Y-112042028D01*
X180893866Y-111870600D01*
X180827200Y-111756314D01*
X180693866Y-111699171D01*
X180627200Y-111699171D01*
X180493866Y-111756314D01*
X180427200Y-111870600D01*
X180427200Y-112042028D01*
X180493866Y-112156314D01*
D11*
X96556666Y-84197261D02*
X96556666Y-83625833D01*
X95156666Y-83911547D02*
X96556666Y-83911547D01*
X95156666Y-82863928D02*
X95890000Y-82863928D01*
X96023333Y-82911547D01*
X96090000Y-83006785D01*
X96090000Y-83197261D01*
X96023333Y-83292500D01*
X95223333Y-82863928D02*
X95156666Y-82959166D01*
X95156666Y-83197261D01*
X95223333Y-83292500D01*
X95356666Y-83340119D01*
X95490000Y-83340119D01*
X95623333Y-83292500D01*
X95690000Y-83197261D01*
X95690000Y-82959166D01*
X95756666Y-82863928D01*
X96090000Y-82530595D02*
X96090000Y-82149642D01*
X96556666Y-82387738D02*
X95356666Y-82387738D01*
X95223333Y-82340119D01*
X95156666Y-82244880D01*
X95156666Y-82149642D01*
X96090000Y-81387738D02*
X95156666Y-81387738D01*
X96090000Y-81816309D02*
X95356666Y-81816309D01*
X95223333Y-81768690D01*
X95156666Y-81673452D01*
X95156666Y-81530595D01*
X95223333Y-81435357D01*
X95290000Y-81387738D01*
X96556666Y-79959166D02*
X96556666Y-79768690D01*
X96490000Y-79673452D01*
X96356666Y-79578214D01*
X96090000Y-79530595D01*
X95623333Y-79530595D01*
X95356666Y-79578214D01*
X95223333Y-79673452D01*
X95156666Y-79768690D01*
X95156666Y-79959166D01*
X95223333Y-80054404D01*
X95356666Y-80149642D01*
X95623333Y-80197261D01*
X96090000Y-80197261D01*
X96356666Y-80149642D01*
X96490000Y-80054404D01*
X96556666Y-79959166D01*
X95156666Y-79102023D02*
X96556666Y-79102023D01*
X95890000Y-79102023D02*
X95890000Y-78530595D01*
X95156666Y-78530595D02*
X96556666Y-78530595D01*
X96423333Y-78102023D02*
X96490000Y-78054404D01*
X96556666Y-77959166D01*
X96556666Y-77721071D01*
X96490000Y-77625833D01*
X96423333Y-77578214D01*
X96290000Y-77530595D01*
X96156666Y-77530595D01*
X95956666Y-77578214D01*
X95156666Y-78149642D01*
X95156666Y-77530595D01*
X95890000Y-77102023D02*
X95890000Y-76768690D01*
X95156666Y-76625833D02*
X95156666Y-77102023D01*
X96556666Y-77102023D01*
X96556666Y-76625833D01*
X95556666Y-76244880D02*
X95556666Y-75768690D01*
X95156666Y-76340119D02*
X96556666Y-76006785D01*
X95156666Y-75673452D01*
X96556666Y-75482976D02*
X96556666Y-74911547D01*
X95156666Y-75197261D02*
X96556666Y-75197261D01*
X95156666Y-73006785D02*
X95156666Y-73054404D01*
X95223333Y-73149642D01*
X95423333Y-73292500D01*
X95823333Y-73530595D01*
X96023333Y-73625833D01*
X96223333Y-73673452D01*
X96356666Y-73673452D01*
X96490000Y-73625833D01*
X96556666Y-73530595D01*
X96556666Y-73482976D01*
X96490000Y-73387738D01*
X96356666Y-73340119D01*
X96290000Y-73340119D01*
X96156666Y-73387738D01*
X96090000Y-73435357D01*
X95823333Y-73721071D01*
X95756666Y-73768690D01*
X95623333Y-73816309D01*
X95423333Y-73816309D01*
X95290000Y-73768690D01*
X95223333Y-73721071D01*
X95156666Y-73625833D01*
X95156666Y-73482976D01*
X95223333Y-73387738D01*
X95290000Y-73340119D01*
X95556666Y-73197261D01*
X95756666Y-73149642D01*
X95890000Y-73149642D01*
X95156666Y-71340119D02*
X95156666Y-71816309D01*
X96556666Y-71816309D01*
X95156666Y-70578214D02*
X95890000Y-70578214D01*
X96023333Y-70625833D01*
X96090000Y-70721071D01*
X96090000Y-70911547D01*
X96023333Y-71006785D01*
X95223333Y-70578214D02*
X95156666Y-70673452D01*
X95156666Y-70911547D01*
X95223333Y-71006785D01*
X95356666Y-71054404D01*
X95490000Y-71054404D01*
X95623333Y-71006785D01*
X95690000Y-70911547D01*
X95690000Y-70673452D01*
X95756666Y-70578214D01*
X95223333Y-70149642D02*
X95156666Y-70054404D01*
X95156666Y-69863928D01*
X95223333Y-69768690D01*
X95356666Y-69721071D01*
X95423333Y-69721071D01*
X95556666Y-69768690D01*
X95623333Y-69863928D01*
X95623333Y-70006785D01*
X95690000Y-70102023D01*
X95823333Y-70149642D01*
X95890000Y-70149642D01*
X96023333Y-70102023D01*
X96090000Y-70006785D01*
X96090000Y-69863928D01*
X96023333Y-69768690D01*
X95223333Y-69340119D02*
X95156666Y-69244880D01*
X95156666Y-69054404D01*
X95223333Y-68959166D01*
X95356666Y-68911547D01*
X95423333Y-68911547D01*
X95556666Y-68959166D01*
X95623333Y-69054404D01*
X95623333Y-69197261D01*
X95690000Y-69292500D01*
X95823333Y-69340119D01*
X95890000Y-69340119D01*
X96023333Y-69292500D01*
X96090000Y-69197261D01*
X96090000Y-69054404D01*
X96023333Y-68959166D01*
X95223333Y-68102023D02*
X95156666Y-68197261D01*
X95156666Y-68387738D01*
X95223333Y-68482976D01*
X95356666Y-68530595D01*
X95890000Y-68530595D01*
X96023333Y-68482976D01*
X96090000Y-68387738D01*
X96090000Y-68197261D01*
X96023333Y-68102023D01*
X95890000Y-68054404D01*
X95756666Y-68054404D01*
X95623333Y-68530595D01*
X96556666Y-66673452D02*
X96556666Y-66482976D01*
X96490000Y-66387738D01*
X96356666Y-66292500D01*
X96090000Y-66244880D01*
X95623333Y-66244880D01*
X95356666Y-66292500D01*
X95223333Y-66387738D01*
X95156666Y-66482976D01*
X95156666Y-66673452D01*
X95223333Y-66768690D01*
X95356666Y-66863928D01*
X95623333Y-66911547D01*
X96090000Y-66911547D01*
X96356666Y-66863928D01*
X96490000Y-66768690D01*
X96556666Y-66673452D01*
X95156666Y-65816309D02*
X96556666Y-65816309D01*
X95890000Y-65816309D02*
X95890000Y-65244880D01*
X95156666Y-65244880D02*
X96556666Y-65244880D01*
X96556666Y-64863928D02*
X96556666Y-64244880D01*
X96023333Y-64578214D01*
X96023333Y-64435357D01*
X95956666Y-64340119D01*
X95890000Y-64292500D01*
X95756666Y-64244880D01*
X95423333Y-64244880D01*
X95290000Y-64292500D01*
X95223333Y-64340119D01*
X95156666Y-64435357D01*
X95156666Y-64721071D01*
X95223333Y-64816309D01*
X95290000Y-64863928D01*
X95156666Y-63816309D02*
X96556666Y-63816309D01*
X95890000Y-63816309D02*
X95890000Y-63244880D01*
X95156666Y-63244880D02*
X96556666Y-63244880D01*
X96556666Y-62863928D02*
X96556666Y-62197261D01*
X95156666Y-62863928D01*
X95156666Y-62197261D01*
X95890000Y-61482976D02*
X95823333Y-61340119D01*
X95756666Y-61292500D01*
X95623333Y-61244880D01*
X95423333Y-61244880D01*
X95290000Y-61292500D01*
X95223333Y-61340119D01*
X95156666Y-61435357D01*
X95156666Y-61816309D01*
X96556666Y-61816309D01*
X96556666Y-61482976D01*
X96490000Y-61387738D01*
X96423333Y-61340119D01*
X96290000Y-61292500D01*
X96156666Y-61292500D01*
X96023333Y-61340119D01*
X95956666Y-61387738D01*
X95890000Y-61482976D01*
X95890000Y-61816309D01*
X94206666Y-84197261D02*
X94206666Y-83625833D01*
X92806666Y-83911547D02*
X94206666Y-83911547D01*
X93206666Y-83340119D02*
X93206666Y-82863928D01*
X92806666Y-83435357D02*
X94206666Y-83102023D01*
X92806666Y-82768690D01*
X92940000Y-81863928D02*
X92873333Y-81911547D01*
X92806666Y-82054404D01*
X92806666Y-82149642D01*
X92873333Y-82292500D01*
X93006666Y-82387738D01*
X93140000Y-82435357D01*
X93406666Y-82482976D01*
X93606666Y-82482976D01*
X93873333Y-82435357D01*
X94006666Y-82387738D01*
X94140000Y-82292500D01*
X94206666Y-82149642D01*
X94206666Y-82054404D01*
X94140000Y-81911547D01*
X94073333Y-81863928D01*
X93540000Y-81102023D02*
X93473333Y-80959166D01*
X93406666Y-80911547D01*
X93273333Y-80863928D01*
X93073333Y-80863928D01*
X92940000Y-80911547D01*
X92873333Y-80959166D01*
X92806666Y-81054404D01*
X92806666Y-81435357D01*
X94206666Y-81435357D01*
X94206666Y-81102023D01*
X94140000Y-81006785D01*
X94073333Y-80959166D01*
X93940000Y-80911547D01*
X93806666Y-80911547D01*
X93673333Y-80959166D01*
X93606666Y-81006785D01*
X93540000Y-81102023D01*
X93540000Y-81435357D01*
X94206666Y-80435357D02*
X93073333Y-80435357D01*
X92940000Y-80387738D01*
X92873333Y-80340119D01*
X92806666Y-80244880D01*
X92806666Y-80054404D01*
X92873333Y-79959166D01*
X92940000Y-79911547D01*
X93073333Y-79863928D01*
X94206666Y-79863928D01*
X92940000Y-78816309D02*
X92873333Y-78863928D01*
X92806666Y-79006785D01*
X92806666Y-79102023D01*
X92873333Y-79244880D01*
X93006666Y-79340119D01*
X93140000Y-79387738D01*
X93406666Y-79435357D01*
X93606666Y-79435357D01*
X93873333Y-79387738D01*
X94006666Y-79340119D01*
X94140000Y-79244880D01*
X94206666Y-79102023D01*
X94206666Y-79006785D01*
X94140000Y-78863928D01*
X94073333Y-78816309D01*
X92806666Y-78387738D02*
X94206666Y-78387738D01*
X92806666Y-77816309D02*
X93606666Y-78244880D01*
X94206666Y-77816309D02*
X93406666Y-78387738D01*
X92806666Y-76197261D02*
X94206666Y-76197261D01*
X92873333Y-76197261D02*
X92806666Y-76292500D01*
X92806666Y-76482976D01*
X92873333Y-76578214D01*
X92940000Y-76625833D01*
X93073333Y-76673452D01*
X93473333Y-76673452D01*
X93606666Y-76625833D01*
X93673333Y-76578214D01*
X93740000Y-76482976D01*
X93740000Y-76292500D01*
X93673333Y-76197261D01*
X92873333Y-75340119D02*
X92806666Y-75435357D01*
X92806666Y-75625833D01*
X92873333Y-75721071D01*
X93006666Y-75768690D01*
X93540000Y-75768690D01*
X93673333Y-75721071D01*
X93740000Y-75625833D01*
X93740000Y-75435357D01*
X93673333Y-75340119D01*
X93540000Y-75292500D01*
X93406666Y-75292500D01*
X93273333Y-75768690D01*
X92873333Y-74911547D02*
X92806666Y-74816309D01*
X92806666Y-74625833D01*
X92873333Y-74530595D01*
X93006666Y-74482976D01*
X93073333Y-74482976D01*
X93206666Y-74530595D01*
X93273333Y-74625833D01*
X93273333Y-74768690D01*
X93340000Y-74863928D01*
X93473333Y-74911547D01*
X93540000Y-74911547D01*
X93673333Y-74863928D01*
X93740000Y-74768690D01*
X93740000Y-74625833D01*
X93673333Y-74530595D01*
X92806666Y-74054404D02*
X93740000Y-74054404D01*
X94206666Y-74054404D02*
X94140000Y-74102023D01*
X94073333Y-74054404D01*
X94140000Y-74006785D01*
X94206666Y-74054404D01*
X94073333Y-74054404D01*
X93740000Y-73149642D02*
X92606666Y-73149642D01*
X92473333Y-73197261D01*
X92406666Y-73244880D01*
X92340000Y-73340119D01*
X92340000Y-73482976D01*
X92406666Y-73578214D01*
X92873333Y-73149642D02*
X92806666Y-73244880D01*
X92806666Y-73435357D01*
X92873333Y-73530595D01*
X92940000Y-73578214D01*
X93073333Y-73625833D01*
X93473333Y-73625833D01*
X93606666Y-73578214D01*
X93673333Y-73530595D01*
X93740000Y-73435357D01*
X93740000Y-73244880D01*
X93673333Y-73149642D01*
X93740000Y-72673452D02*
X92806666Y-72673452D01*
X93606666Y-72673452D02*
X93673333Y-72625833D01*
X93740000Y-72530595D01*
X93740000Y-72387738D01*
X93673333Y-72292500D01*
X93540000Y-72244880D01*
X92806666Y-72244880D01*
X92940000Y-71768690D02*
X92873333Y-71721071D01*
X92806666Y-71768690D01*
X92873333Y-71816309D01*
X92940000Y-71768690D01*
X92806666Y-71768690D01*
X93673333Y-71768690D02*
X93606666Y-71721071D01*
X93540000Y-71768690D01*
X93606666Y-71816309D01*
X93673333Y-71768690D01*
X93540000Y-71768690D01*
X94206666Y-70673452D02*
X94206666Y-70102023D01*
X92806666Y-70387738D02*
X94206666Y-70387738D01*
X92806666Y-69625833D02*
X92873333Y-69721071D01*
X92940000Y-69768690D01*
X93073333Y-69816309D01*
X93473333Y-69816309D01*
X93606666Y-69768690D01*
X93673333Y-69721071D01*
X93740000Y-69625833D01*
X93740000Y-69482976D01*
X93673333Y-69387738D01*
X93606666Y-69340119D01*
X93473333Y-69292500D01*
X93073333Y-69292500D01*
X92940000Y-69340119D01*
X92873333Y-69387738D01*
X92806666Y-69482976D01*
X92806666Y-69625833D01*
X92806666Y-68863928D02*
X93740000Y-68863928D01*
X93606666Y-68863928D02*
X93673333Y-68816309D01*
X93740000Y-68721071D01*
X93740000Y-68578214D01*
X93673333Y-68482976D01*
X93540000Y-68435357D01*
X92806666Y-68435357D01*
X93540000Y-68435357D02*
X93673333Y-68387738D01*
X93740000Y-68292500D01*
X93740000Y-68149642D01*
X93673333Y-68054404D01*
X93540000Y-68006785D01*
X92806666Y-68006785D01*
X92806666Y-67530595D02*
X93740000Y-67530595D01*
X93606666Y-67530595D02*
X93673333Y-67482976D01*
X93740000Y-67387738D01*
X93740000Y-67244880D01*
X93673333Y-67149642D01*
X93540000Y-67102023D01*
X92806666Y-67102023D01*
X93540000Y-67102023D02*
X93673333Y-67054404D01*
X93740000Y-66959166D01*
X93740000Y-66816309D01*
X93673333Y-66721071D01*
X93540000Y-66673452D01*
X92806666Y-66673452D01*
X92806666Y-66197261D02*
X93740000Y-66197261D01*
X94206666Y-66197261D02*
X94140000Y-66244880D01*
X94073333Y-66197261D01*
X94140000Y-66149642D01*
X94206666Y-66197261D01*
X94073333Y-66197261D01*
X94206666Y-64768690D02*
X94206666Y-64578214D01*
X94140000Y-64482976D01*
X94006666Y-64387738D01*
X93740000Y-64340119D01*
X93273333Y-64340119D01*
X93006666Y-64387738D01*
X92873333Y-64482976D01*
X92806666Y-64578214D01*
X92806666Y-64768690D01*
X92873333Y-64863928D01*
X93006666Y-64959166D01*
X93273333Y-65006785D01*
X93740000Y-65006785D01*
X94006666Y-64959166D01*
X94140000Y-64863928D01*
X94206666Y-64768690D01*
X92806666Y-63911547D02*
X94206666Y-63911547D01*
X93540000Y-63911547D02*
X93540000Y-63340119D01*
X92806666Y-63340119D02*
X94206666Y-63340119D01*
X92806666Y-62340119D02*
X92806666Y-62911547D01*
X92806666Y-62625833D02*
X94206666Y-62625833D01*
X94006666Y-62721071D01*
X93873333Y-62816309D01*
X93806666Y-62911547D01*
X94140000Y-61387738D02*
X94206666Y-61482976D01*
X94206666Y-61625833D01*
X94140000Y-61768690D01*
X94006666Y-61863928D01*
X93873333Y-61911547D01*
X93606666Y-61959166D01*
X93406666Y-61959166D01*
X93140000Y-61911547D01*
X93006666Y-61863928D01*
X92873333Y-61768690D01*
X92806666Y-61625833D01*
X92806666Y-61530595D01*
X92873333Y-61387738D01*
X92940000Y-61340119D01*
X93406666Y-61340119D01*
X93406666Y-61530595D01*
X94206666Y-60625833D02*
X93206666Y-60625833D01*
X93006666Y-60673452D01*
X92873333Y-60768690D01*
X92806666Y-60911547D01*
X92806666Y-61006785D01*
X94206666Y-60292500D02*
X92806666Y-59959166D01*
X94206666Y-59625833D01*
D10*
G36*
X120904000Y-51562000D02*
G01*
X119888000Y-51562000D01*
X120396000Y-50546000D01*
X120904000Y-51562000D01*
G37*
X120904000Y-51562000D02*
X119888000Y-51562000D01*
X120396000Y-50546000D01*
X120904000Y-51562000D01*
D11*
X150272452Y-53488880D02*
X150272452Y-52488880D01*
X150034357Y-52488880D01*
X149891500Y-52536500D01*
X149796261Y-52631738D01*
X149748642Y-52726976D01*
X149701023Y-52917452D01*
X149701023Y-53060309D01*
X149748642Y-53250785D01*
X149796261Y-53346023D01*
X149891500Y-53441261D01*
X150034357Y-53488880D01*
X150272452Y-53488880D01*
X148701023Y-53488880D02*
X149034357Y-53012690D01*
X149272452Y-53488880D02*
X149272452Y-52488880D01*
X148891500Y-52488880D01*
X148796261Y-52536500D01*
X148748642Y-52584119D01*
X148701023Y-52679357D01*
X148701023Y-52822214D01*
X148748642Y-52917452D01*
X148796261Y-52965071D01*
X148891500Y-53012690D01*
X149272452Y-53012690D01*
X148272452Y-53488880D02*
X148272452Y-52488880D01*
X147939119Y-52488880D02*
X147605785Y-53488880D01*
X147272452Y-52488880D01*
X146939119Y-52965071D02*
X146605785Y-52965071D01*
X146462928Y-53488880D02*
X146939119Y-53488880D01*
X146939119Y-52488880D01*
X146462928Y-52488880D01*
X145462928Y-53488880D02*
X145796261Y-53012690D01*
X146034357Y-53488880D02*
X146034357Y-52488880D01*
X145653404Y-52488880D01*
X145558166Y-52536500D01*
X145510547Y-52584119D01*
X145462928Y-52679357D01*
X145462928Y-52822214D01*
X145510547Y-52917452D01*
X145558166Y-52965071D01*
X145653404Y-53012690D01*
X146034357Y-53012690D01*
X150534357Y-55191261D02*
X150391500Y-55238880D01*
X150153404Y-55238880D01*
X150058166Y-55191261D01*
X150010547Y-55143642D01*
X149962928Y-55048404D01*
X149962928Y-54953166D01*
X150010547Y-54857928D01*
X150058166Y-54810309D01*
X150153404Y-54762690D01*
X150343880Y-54715071D01*
X150439119Y-54667452D01*
X150486738Y-54619833D01*
X150534357Y-54524595D01*
X150534357Y-54429357D01*
X150486738Y-54334119D01*
X150439119Y-54286500D01*
X150343880Y-54238880D01*
X150105785Y-54238880D01*
X149962928Y-54286500D01*
X149534357Y-54238880D02*
X149534357Y-55048404D01*
X149486738Y-55143642D01*
X149439119Y-55191261D01*
X149343880Y-55238880D01*
X149153404Y-55238880D01*
X149058166Y-55191261D01*
X149010547Y-55143642D01*
X148962928Y-55048404D01*
X148962928Y-54238880D01*
X148486738Y-55238880D02*
X148486738Y-54238880D01*
X148105785Y-54238880D01*
X148010547Y-54286500D01*
X147962928Y-54334119D01*
X147915309Y-54429357D01*
X147915309Y-54572214D01*
X147962928Y-54667452D01*
X148010547Y-54715071D01*
X148105785Y-54762690D01*
X148486738Y-54762690D01*
X147486738Y-55238880D02*
X147486738Y-54238880D01*
X147105785Y-54238880D01*
X147010547Y-54286500D01*
X146962928Y-54334119D01*
X146915309Y-54429357D01*
X146915309Y-54572214D01*
X146962928Y-54667452D01*
X147010547Y-54715071D01*
X147105785Y-54762690D01*
X147486738Y-54762690D01*
X146010547Y-55238880D02*
X146486738Y-55238880D01*
X146486738Y-54238880D01*
X145486738Y-54762690D02*
X145486738Y-55238880D01*
X145820071Y-54238880D02*
X145486738Y-54762690D01*
X145153404Y-54238880D01*
D10*
G36*
X100838000Y-41840000D02*
G01*
X100330000Y-41840000D01*
X100330000Y-37338000D01*
X100838000Y-37338000D01*
X100838000Y-41840000D01*
G37*
X100838000Y-41840000D02*
X100330000Y-41840000D01*
X100330000Y-37338000D01*
X100838000Y-37338000D01*
X100838000Y-41840000D01*
G36*
X170406810Y-135794500D02*
G01*
X169898810Y-135794500D01*
X169898810Y-131292500D01*
X170406810Y-131292500D01*
X170406810Y-135794500D01*
G37*
X170406810Y-135794500D02*
X169898810Y-135794500D01*
X169898810Y-131292500D01*
X170406810Y-131292500D01*
X170406810Y-135794500D01*
D11*
X168164219Y-134371804D02*
X169164219Y-134371804D01*
X168164219Y-133943233D02*
X168688028Y-133943233D01*
X168783266Y-133990852D01*
X168830885Y-134086090D01*
X168830885Y-134228947D01*
X168783266Y-134324185D01*
X168735647Y-134371804D01*
X168211838Y-133086090D02*
X168164219Y-133181328D01*
X168164219Y-133371804D01*
X168211838Y-133467042D01*
X168307076Y-133514661D01*
X168688028Y-133514661D01*
X168783266Y-133467042D01*
X168830885Y-133371804D01*
X168830885Y-133181328D01*
X168783266Y-133086090D01*
X168688028Y-133038471D01*
X168592790Y-133038471D01*
X168497552Y-133514661D01*
X168164219Y-132181328D02*
X168688028Y-132181328D01*
X168783266Y-132228947D01*
X168830885Y-132324185D01*
X168830885Y-132514661D01*
X168783266Y-132609900D01*
X168211838Y-132181328D02*
X168164219Y-132276566D01*
X168164219Y-132514661D01*
X168211838Y-132609900D01*
X168307076Y-132657519D01*
X168402314Y-132657519D01*
X168497552Y-132609900D01*
X168545171Y-132514661D01*
X168545171Y-132276566D01*
X168592790Y-132181328D01*
X168830885Y-131847995D02*
X168830885Y-131467042D01*
X169164219Y-131705138D02*
X168307076Y-131705138D01*
X168211838Y-131657519D01*
X168164219Y-131562280D01*
X168164219Y-131467042D01*
X168545171Y-131133709D02*
X168545171Y-130371804D01*
X166461838Y-134419423D02*
X166414219Y-134324185D01*
X166414219Y-134133709D01*
X166461838Y-134038471D01*
X166557076Y-133990852D01*
X166604695Y-133990852D01*
X166699933Y-134038471D01*
X166747552Y-134133709D01*
X166747552Y-134276566D01*
X166795171Y-134371804D01*
X166890409Y-134419423D01*
X166938028Y-134419423D01*
X167033266Y-134371804D01*
X167080885Y-134276566D01*
X167080885Y-134133709D01*
X167033266Y-134038471D01*
X166414219Y-133562280D02*
X167080885Y-133562280D01*
X167414219Y-133562280D02*
X167366600Y-133609900D01*
X167318980Y-133562280D01*
X167366600Y-133514661D01*
X167414219Y-133562280D01*
X167318980Y-133562280D01*
X167080885Y-133086090D02*
X166414219Y-133086090D01*
X166985647Y-133086090D02*
X167033266Y-133038471D01*
X167080885Y-132943233D01*
X167080885Y-132800376D01*
X167033266Y-132705138D01*
X166938028Y-132657519D01*
X166414219Y-132657519D01*
X166414219Y-132181328D02*
X167414219Y-132181328D01*
X166795171Y-132086090D02*
X166414219Y-131800376D01*
X167080885Y-131800376D02*
X166699933Y-132181328D01*
X103292619Y-135108404D02*
X104292619Y-135108404D01*
X103292619Y-134679833D02*
X103816428Y-134679833D01*
X103911666Y-134727452D01*
X103959285Y-134822690D01*
X103959285Y-134965547D01*
X103911666Y-135060785D01*
X103864047Y-135108404D01*
X103340238Y-133822690D02*
X103292619Y-133917928D01*
X103292619Y-134108404D01*
X103340238Y-134203642D01*
X103435476Y-134251261D01*
X103816428Y-134251261D01*
X103911666Y-134203642D01*
X103959285Y-134108404D01*
X103959285Y-133917928D01*
X103911666Y-133822690D01*
X103816428Y-133775071D01*
X103721190Y-133775071D01*
X103625952Y-134251261D01*
X103292619Y-132917928D02*
X103816428Y-132917928D01*
X103911666Y-132965547D01*
X103959285Y-133060785D01*
X103959285Y-133251261D01*
X103911666Y-133346500D01*
X103340238Y-132917928D02*
X103292619Y-133013166D01*
X103292619Y-133251261D01*
X103340238Y-133346500D01*
X103435476Y-133394119D01*
X103530714Y-133394119D01*
X103625952Y-133346500D01*
X103673571Y-133251261D01*
X103673571Y-133013166D01*
X103721190Y-132917928D01*
X103959285Y-132584595D02*
X103959285Y-132203642D01*
X104292619Y-132441738D02*
X103435476Y-132441738D01*
X103340238Y-132394119D01*
X103292619Y-132298880D01*
X103292619Y-132203642D01*
X103673571Y-131870309D02*
X103673571Y-131108404D01*
X101590238Y-135156023D02*
X101542619Y-135060785D01*
X101542619Y-134870309D01*
X101590238Y-134775071D01*
X101685476Y-134727452D01*
X101733095Y-134727452D01*
X101828333Y-134775071D01*
X101875952Y-134870309D01*
X101875952Y-135013166D01*
X101923571Y-135108404D01*
X102018809Y-135156023D01*
X102066428Y-135156023D01*
X102161666Y-135108404D01*
X102209285Y-135013166D01*
X102209285Y-134870309D01*
X102161666Y-134775071D01*
X101542619Y-134298880D02*
X102209285Y-134298880D01*
X102542619Y-134298880D02*
X102495000Y-134346500D01*
X102447380Y-134298880D01*
X102495000Y-134251261D01*
X102542619Y-134298880D01*
X102447380Y-134298880D01*
X102209285Y-133822690D02*
X101542619Y-133822690D01*
X102114047Y-133822690D02*
X102161666Y-133775071D01*
X102209285Y-133679833D01*
X102209285Y-133536976D01*
X102161666Y-133441738D01*
X102066428Y-133394119D01*
X101542619Y-133394119D01*
X101542619Y-132917928D02*
X102542619Y-132917928D01*
X101923571Y-132822690D02*
X101542619Y-132536976D01*
X102209285Y-132536976D02*
X101828333Y-132917928D01*
X166990570Y-37992595D02*
X165990570Y-37992595D01*
X166990570Y-38421166D02*
X166466761Y-38421166D01*
X166371523Y-38373547D01*
X166323904Y-38278309D01*
X166323904Y-38135452D01*
X166371523Y-38040214D01*
X166419142Y-37992595D01*
X166942951Y-39278309D02*
X166990570Y-39183071D01*
X166990570Y-38992595D01*
X166942951Y-38897357D01*
X166847713Y-38849738D01*
X166466761Y-38849738D01*
X166371523Y-38897357D01*
X166323904Y-38992595D01*
X166323904Y-39183071D01*
X166371523Y-39278309D01*
X166466761Y-39325928D01*
X166561999Y-39325928D01*
X166657237Y-38849738D01*
X166990570Y-40183071D02*
X166466761Y-40183071D01*
X166371523Y-40135452D01*
X166323904Y-40040214D01*
X166323904Y-39849738D01*
X166371523Y-39754500D01*
X166942951Y-40183071D02*
X166990570Y-40087833D01*
X166990570Y-39849738D01*
X166942951Y-39754500D01*
X166847713Y-39706880D01*
X166752475Y-39706880D01*
X166657237Y-39754500D01*
X166609618Y-39849738D01*
X166609618Y-40087833D01*
X166561999Y-40183071D01*
X166323904Y-40516404D02*
X166323904Y-40897357D01*
X165990570Y-40659261D02*
X166847713Y-40659261D01*
X166942951Y-40706880D01*
X166990570Y-40802119D01*
X166990570Y-40897357D01*
X166609618Y-41230690D02*
X166609618Y-41992595D01*
X168692951Y-37944976D02*
X168740570Y-38040214D01*
X168740570Y-38230690D01*
X168692951Y-38325928D01*
X168597713Y-38373547D01*
X168550094Y-38373547D01*
X168454856Y-38325928D01*
X168407237Y-38230690D01*
X168407237Y-38087833D01*
X168359618Y-37992595D01*
X168264380Y-37944976D01*
X168216761Y-37944976D01*
X168121523Y-37992595D01*
X168073904Y-38087833D01*
X168073904Y-38230690D01*
X168121523Y-38325928D01*
X168740570Y-38802119D02*
X168073904Y-38802119D01*
X167740570Y-38802119D02*
X167788190Y-38754500D01*
X167835809Y-38802119D01*
X167788190Y-38849738D01*
X167740570Y-38802119D01*
X167835809Y-38802119D01*
X168073904Y-39278309D02*
X168740570Y-39278309D01*
X168169142Y-39278309D02*
X168121523Y-39325928D01*
X168073904Y-39421166D01*
X168073904Y-39564023D01*
X168121523Y-39659261D01*
X168216761Y-39706880D01*
X168740570Y-39706880D01*
X168740570Y-40183071D02*
X167740570Y-40183071D01*
X168359618Y-40278309D02*
X168740570Y-40564023D01*
X168073904Y-40564023D02*
X168454856Y-40183071D01*
X102674190Y-37865595D02*
X101674190Y-37865595D01*
X102674190Y-38294166D02*
X102150381Y-38294166D01*
X102055143Y-38246547D01*
X102007524Y-38151309D01*
X102007524Y-38008452D01*
X102055143Y-37913214D01*
X102102762Y-37865595D01*
X102626571Y-39151309D02*
X102674190Y-39056071D01*
X102674190Y-38865595D01*
X102626571Y-38770357D01*
X102531333Y-38722738D01*
X102150381Y-38722738D01*
X102055143Y-38770357D01*
X102007524Y-38865595D01*
X102007524Y-39056071D01*
X102055143Y-39151309D01*
X102150381Y-39198928D01*
X102245619Y-39198928D01*
X102340857Y-38722738D01*
X102674190Y-40056071D02*
X102150381Y-40056071D01*
X102055143Y-40008452D01*
X102007524Y-39913214D01*
X102007524Y-39722738D01*
X102055143Y-39627500D01*
X102626571Y-40056071D02*
X102674190Y-39960833D01*
X102674190Y-39722738D01*
X102626571Y-39627500D01*
X102531333Y-39579880D01*
X102436095Y-39579880D01*
X102340857Y-39627500D01*
X102293238Y-39722738D01*
X102293238Y-39960833D01*
X102245619Y-40056071D01*
X102007524Y-40389404D02*
X102007524Y-40770357D01*
X101674190Y-40532261D02*
X102531333Y-40532261D01*
X102626571Y-40579880D01*
X102674190Y-40675119D01*
X102674190Y-40770357D01*
X102293238Y-41103690D02*
X102293238Y-41865595D01*
X104376571Y-37817976D02*
X104424190Y-37913214D01*
X104424190Y-38103690D01*
X104376571Y-38198928D01*
X104281333Y-38246547D01*
X104233714Y-38246547D01*
X104138476Y-38198928D01*
X104090857Y-38103690D01*
X104090857Y-37960833D01*
X104043238Y-37865595D01*
X103948000Y-37817976D01*
X103900381Y-37817976D01*
X103805143Y-37865595D01*
X103757524Y-37960833D01*
X103757524Y-38103690D01*
X103805143Y-38198928D01*
X104424190Y-38675119D02*
X103757524Y-38675119D01*
X103424190Y-38675119D02*
X103471810Y-38627500D01*
X103519429Y-38675119D01*
X103471810Y-38722738D01*
X103424190Y-38675119D01*
X103519429Y-38675119D01*
X103757524Y-39151309D02*
X104424190Y-39151309D01*
X103852762Y-39151309D02*
X103805143Y-39198928D01*
X103757524Y-39294166D01*
X103757524Y-39437023D01*
X103805143Y-39532261D01*
X103900381Y-39579880D01*
X104424190Y-39579880D01*
X104424190Y-40056071D02*
X103424190Y-40056071D01*
X104043238Y-40151309D02*
X104424190Y-40437023D01*
X103757524Y-40437023D02*
X104138476Y-40056071D01*
D10*
G36*
X170434000Y-41332000D02*
G01*
X169926000Y-41332000D01*
X169926000Y-36830000D01*
X170434000Y-36830000D01*
X170434000Y-41332000D01*
G37*
X170434000Y-41332000D02*
X169926000Y-41332000D01*
X169926000Y-36830000D01*
X170434000Y-36830000D01*
X170434000Y-41332000D01*
G36*
X100838000Y-135890000D02*
G01*
X100330000Y-135890000D01*
X100330000Y-131388000D01*
X100838000Y-131388000D01*
X100838000Y-135890000D01*
G37*
X100838000Y-135890000D02*
X100330000Y-135890000D01*
X100330000Y-131388000D01*
X100838000Y-131388000D01*
X100838000Y-135890000D01*
D15*
X97766238Y-95806666D02*
X97766238Y-95006666D01*
X95766238Y-95406666D02*
X97766238Y-95406666D01*
X96337666Y-94606666D02*
X96337666Y-93940000D01*
X95766238Y-94740000D02*
X97766238Y-94273333D01*
X95766238Y-93806666D01*
X95956714Y-92540000D02*
X95861476Y-92606666D01*
X95766238Y-92806666D01*
X95766238Y-92940000D01*
X95861476Y-93140000D01*
X96051952Y-93273333D01*
X96242428Y-93340000D01*
X96623380Y-93406666D01*
X96909095Y-93406666D01*
X97290047Y-93340000D01*
X97480523Y-93273333D01*
X97671000Y-93140000D01*
X97766238Y-92940000D01*
X97766238Y-92806666D01*
X97671000Y-92606666D01*
X97575761Y-92540000D01*
X95766238Y-91940000D02*
X97766238Y-91940000D01*
X95766238Y-91140000D01*
X97766238Y-91140000D01*
X95766238Y-90473333D02*
X97766238Y-90473333D01*
X97766238Y-89940000D01*
X97671000Y-89806666D01*
X97575761Y-89740000D01*
X97385285Y-89673333D01*
X97099571Y-89673333D01*
X96909095Y-89740000D01*
X96813857Y-89806666D01*
X96718619Y-89940000D01*
X96718619Y-90473333D01*
X95766238Y-88273333D02*
X96718619Y-88740000D01*
X95766238Y-89073333D02*
X97766238Y-89073333D01*
X97766238Y-88540000D01*
X97671000Y-88406666D01*
X97575761Y-88340000D01*
X97385285Y-88273333D01*
X97099571Y-88273333D01*
X96909095Y-88340000D01*
X96813857Y-88406666D01*
X96718619Y-88540000D01*
X96718619Y-89073333D01*
X92416238Y-96806666D02*
X93749571Y-96806666D01*
X93368619Y-96806666D02*
X93559095Y-96740000D01*
X93654333Y-96673333D01*
X93749571Y-96540000D01*
X93749571Y-96406666D01*
X92511476Y-95406666D02*
X92416238Y-95540000D01*
X92416238Y-95806666D01*
X92511476Y-95940000D01*
X92701952Y-96006666D01*
X93463857Y-96006666D01*
X93654333Y-95940000D01*
X93749571Y-95806666D01*
X93749571Y-95540000D01*
X93654333Y-95406666D01*
X93463857Y-95340000D01*
X93273380Y-95340000D01*
X93082904Y-96006666D01*
X93749571Y-94873333D02*
X92416238Y-94540000D01*
X93749571Y-94206666D01*
X92606714Y-93673333D02*
X92511476Y-93606666D01*
X92416238Y-93673333D01*
X92511476Y-93740000D01*
X92606714Y-93673333D01*
X92416238Y-93673333D01*
X92987666Y-93073333D02*
X92987666Y-92406666D01*
X92416238Y-93206666D02*
X94416238Y-92740000D01*
X92416238Y-92273333D01*
X94225761Y-90806666D02*
X94321000Y-90740000D01*
X94416238Y-90606666D01*
X94416238Y-90273333D01*
X94321000Y-90140000D01*
X94225761Y-90073333D01*
X94035285Y-90006666D01*
X93844809Y-90006666D01*
X93559095Y-90073333D01*
X92416238Y-90873333D01*
X92416238Y-90006666D01*
X94416238Y-89140000D02*
X94416238Y-89006666D01*
X94321000Y-88873333D01*
X94225761Y-88806666D01*
X94035285Y-88740000D01*
X93654333Y-88673333D01*
X93178142Y-88673333D01*
X92797190Y-88740000D01*
X92606714Y-88806666D01*
X92511476Y-88873333D01*
X92416238Y-89006666D01*
X92416238Y-89140000D01*
X92511476Y-89273333D01*
X92606714Y-89340000D01*
X92797190Y-89406666D01*
X93178142Y-89473333D01*
X93654333Y-89473333D01*
X94035285Y-89406666D01*
X94225761Y-89340000D01*
X94321000Y-89273333D01*
X94416238Y-89140000D01*
X94225761Y-88140000D02*
X94321000Y-88073333D01*
X94416238Y-87940000D01*
X94416238Y-87606666D01*
X94321000Y-87473333D01*
X94225761Y-87406666D01*
X94035285Y-87340000D01*
X93844809Y-87340000D01*
X93559095Y-87406666D01*
X92416238Y-88206666D01*
X92416238Y-87340000D01*
X94225761Y-86806666D02*
X94321000Y-86740000D01*
X94416238Y-86606666D01*
X94416238Y-86273333D01*
X94321000Y-86140000D01*
X94225761Y-86073333D01*
X94035285Y-86006666D01*
X93844809Y-86006666D01*
X93559095Y-86073333D01*
X92416238Y-86873333D01*
X92416238Y-86006666D01*
D11*
X182143857Y-55341571D02*
X182143857Y-54865380D01*
X180943857Y-54865380D01*
X182143857Y-55674904D02*
X181343857Y-55674904D01*
X180943857Y-55674904D02*
X181001000Y-55627285D01*
X181058142Y-55674904D01*
X181001000Y-55722523D01*
X180943857Y-55674904D01*
X181058142Y-55674904D01*
X182086714Y-56579666D02*
X182143857Y-56484428D01*
X182143857Y-56293952D01*
X182086714Y-56198714D01*
X182029571Y-56151095D01*
X181915285Y-56103476D01*
X181572428Y-56103476D01*
X181458142Y-56151095D01*
X181401000Y-56198714D01*
X181343857Y-56293952D01*
X181343857Y-56484428D01*
X181401000Y-56579666D01*
X182086714Y-57389190D02*
X182143857Y-57293952D01*
X182143857Y-57103476D01*
X182086714Y-57008238D01*
X181972428Y-56960619D01*
X181515285Y-56960619D01*
X181401000Y-57008238D01*
X181343857Y-57103476D01*
X181343857Y-57293952D01*
X181401000Y-57389190D01*
X181515285Y-57436809D01*
X181629571Y-57436809D01*
X181743857Y-56960619D01*
X181343857Y-57865380D02*
X182143857Y-57865380D01*
X181458142Y-57865380D02*
X181401000Y-57913000D01*
X181343857Y-58008238D01*
X181343857Y-58151095D01*
X181401000Y-58246333D01*
X181515285Y-58293952D01*
X182143857Y-58293952D01*
X182086714Y-58722523D02*
X182143857Y-58817761D01*
X182143857Y-59008238D01*
X182086714Y-59103476D01*
X181972428Y-59151095D01*
X181915285Y-59151095D01*
X181801000Y-59103476D01*
X181743857Y-59008238D01*
X181743857Y-58865380D01*
X181686714Y-58770142D01*
X181572428Y-58722523D01*
X181515285Y-58722523D01*
X181401000Y-58770142D01*
X181343857Y-58865380D01*
X181343857Y-59008238D01*
X181401000Y-59103476D01*
X182086714Y-59960619D02*
X182143857Y-59865380D01*
X182143857Y-59674904D01*
X182086714Y-59579666D01*
X181972428Y-59532047D01*
X181515285Y-59532047D01*
X181401000Y-59579666D01*
X181343857Y-59674904D01*
X181343857Y-59865380D01*
X181401000Y-59960619D01*
X181515285Y-60008238D01*
X181629571Y-60008238D01*
X181743857Y-59532047D01*
X182143857Y-60865380D02*
X180943857Y-60865380D01*
X182086714Y-60865380D02*
X182143857Y-60770142D01*
X182143857Y-60579666D01*
X182086714Y-60484428D01*
X182029571Y-60436809D01*
X181915285Y-60389190D01*
X181572428Y-60389190D01*
X181458142Y-60436809D01*
X181401000Y-60484428D01*
X181343857Y-60579666D01*
X181343857Y-60770142D01*
X181401000Y-60865380D01*
X181343857Y-62532047D02*
X182143857Y-62532047D01*
X181343857Y-62103476D02*
X181972428Y-62103476D01*
X182086714Y-62151095D01*
X182143857Y-62246333D01*
X182143857Y-62389190D01*
X182086714Y-62484428D01*
X182029571Y-62532047D01*
X181343857Y-63008238D02*
X182143857Y-63008238D01*
X181458142Y-63008238D02*
X181401000Y-63055857D01*
X181343857Y-63151095D01*
X181343857Y-63293952D01*
X181401000Y-63389190D01*
X181515285Y-63436809D01*
X182143857Y-63436809D01*
X182143857Y-64341571D02*
X180943857Y-64341571D01*
X182086714Y-64341571D02*
X182143857Y-64246333D01*
X182143857Y-64055857D01*
X182086714Y-63960619D01*
X182029571Y-63913000D01*
X181915285Y-63865380D01*
X181572428Y-63865380D01*
X181458142Y-63913000D01*
X181401000Y-63960619D01*
X181343857Y-64055857D01*
X181343857Y-64246333D01*
X181401000Y-64341571D01*
X182086714Y-65198714D02*
X182143857Y-65103476D01*
X182143857Y-64913000D01*
X182086714Y-64817761D01*
X181972428Y-64770142D01*
X181515285Y-64770142D01*
X181401000Y-64817761D01*
X181343857Y-64913000D01*
X181343857Y-65103476D01*
X181401000Y-65198714D01*
X181515285Y-65246333D01*
X181629571Y-65246333D01*
X181743857Y-64770142D01*
X182143857Y-65674904D02*
X181343857Y-65674904D01*
X181572428Y-65674904D02*
X181458142Y-65722523D01*
X181401000Y-65770142D01*
X181343857Y-65865380D01*
X181343857Y-65960619D01*
X181343857Y-66913000D02*
X181343857Y-67293952D01*
X180943857Y-67055857D02*
X181972428Y-67055857D01*
X182086714Y-67103476D01*
X182143857Y-67198714D01*
X182143857Y-67293952D01*
X182143857Y-67627285D02*
X180943857Y-67627285D01*
X182143857Y-68055857D02*
X181515285Y-68055857D01*
X181401000Y-68008238D01*
X181343857Y-67913000D01*
X181343857Y-67770142D01*
X181401000Y-67674904D01*
X181458142Y-67627285D01*
X182086714Y-68913000D02*
X182143857Y-68817761D01*
X182143857Y-68627285D01*
X182086714Y-68532047D01*
X181972428Y-68484428D01*
X181515285Y-68484428D01*
X181401000Y-68532047D01*
X181343857Y-68627285D01*
X181343857Y-68817761D01*
X181401000Y-68913000D01*
X181515285Y-68960619D01*
X181629571Y-68960619D01*
X181743857Y-68484428D01*
X180943857Y-70008238D02*
X180943857Y-70579666D01*
X182143857Y-70293952D02*
X180943857Y-70293952D01*
X181801000Y-70865380D02*
X181801000Y-71341571D01*
X182143857Y-70770142D02*
X180943857Y-71103476D01*
X182143857Y-71436809D01*
X182143857Y-71770142D02*
X180943857Y-71770142D01*
X180943857Y-72151095D01*
X181001000Y-72246333D01*
X181058142Y-72293952D01*
X181172428Y-72341571D01*
X181343857Y-72341571D01*
X181458142Y-72293952D01*
X181515285Y-72246333D01*
X181572428Y-72151095D01*
X181572428Y-71770142D01*
X182143857Y-73341571D02*
X181572428Y-73008238D01*
X182143857Y-72770142D02*
X180943857Y-72770142D01*
X180943857Y-73151095D01*
X181001000Y-73246333D01*
X181058142Y-73293952D01*
X181172428Y-73341571D01*
X181343857Y-73341571D01*
X181458142Y-73293952D01*
X181515285Y-73246333D01*
X181572428Y-73151095D01*
X181572428Y-72770142D01*
X180943857Y-74722523D02*
X180943857Y-74913000D01*
X181001000Y-75008238D01*
X181115285Y-75103476D01*
X181343857Y-75151095D01*
X181743857Y-75151095D01*
X181972428Y-75103476D01*
X182086714Y-75008238D01*
X182143857Y-74913000D01*
X182143857Y-74722523D01*
X182086714Y-74627285D01*
X181972428Y-74532047D01*
X181743857Y-74484428D01*
X181343857Y-74484428D01*
X181115285Y-74532047D01*
X181001000Y-74627285D01*
X180943857Y-74722523D01*
X182143857Y-75579666D02*
X180943857Y-75579666D01*
X181515285Y-75579666D02*
X181515285Y-76151095D01*
X182143857Y-76151095D02*
X180943857Y-76151095D01*
X182143857Y-77103476D02*
X182143857Y-76627285D01*
X180943857Y-76627285D01*
X184193857Y-56651095D02*
X182993857Y-56651095D01*
X184193857Y-57079666D02*
X183565285Y-57079666D01*
X183451000Y-57032047D01*
X183393857Y-56936809D01*
X183393857Y-56793952D01*
X183451000Y-56698714D01*
X183508142Y-56651095D01*
X183393857Y-57413000D02*
X183393857Y-57793952D01*
X182993857Y-57555857D02*
X184022428Y-57555857D01*
X184136714Y-57603476D01*
X184193857Y-57698714D01*
X184193857Y-57793952D01*
X183393857Y-57984428D02*
X183393857Y-58365380D01*
X182993857Y-58127285D02*
X184022428Y-58127285D01*
X184136714Y-58174904D01*
X184193857Y-58270142D01*
X184193857Y-58365380D01*
X183393857Y-58698714D02*
X184593857Y-58698714D01*
X183451000Y-58698714D02*
X183393857Y-58793952D01*
X183393857Y-58984428D01*
X183451000Y-59079666D01*
X183508142Y-59127285D01*
X183622428Y-59174904D01*
X183965285Y-59174904D01*
X184079571Y-59127285D01*
X184136714Y-59079666D01*
X184193857Y-58984428D01*
X184193857Y-58793952D01*
X184136714Y-58698714D01*
X184079571Y-59603476D02*
X184136714Y-59651095D01*
X184193857Y-59603476D01*
X184136714Y-59555857D01*
X184079571Y-59603476D01*
X184193857Y-59603476D01*
X183451000Y-59603476D02*
X183508142Y-59651095D01*
X183565285Y-59603476D01*
X183508142Y-59555857D01*
X183451000Y-59603476D01*
X183565285Y-59603476D01*
X182936714Y-60793952D02*
X184479571Y-59936809D01*
X182936714Y-61841571D02*
X184479571Y-60984428D01*
X183393857Y-62079666D02*
X184193857Y-62270142D01*
X183622428Y-62460619D01*
X184193857Y-62651095D01*
X183393857Y-62841571D01*
X183393857Y-63127285D02*
X184193857Y-63317761D01*
X183622428Y-63508238D01*
X184193857Y-63698714D01*
X183393857Y-63889190D01*
X183393857Y-64174904D02*
X184193857Y-64365380D01*
X183622428Y-64555857D01*
X184193857Y-64746333D01*
X183393857Y-64936809D01*
X184079571Y-65317761D02*
X184136714Y-65365380D01*
X184193857Y-65317761D01*
X184136714Y-65270142D01*
X184079571Y-65317761D01*
X184193857Y-65317761D01*
X183393857Y-65651095D02*
X183393857Y-66032047D01*
X182993857Y-65793952D02*
X184022428Y-65793952D01*
X184136714Y-65841571D01*
X184193857Y-65936809D01*
X184193857Y-66032047D01*
X184193857Y-66793952D02*
X183565285Y-66793952D01*
X183451000Y-66746333D01*
X183393857Y-66651095D01*
X183393857Y-66460619D01*
X183451000Y-66365380D01*
X184136714Y-66793952D02*
X184193857Y-66698714D01*
X184193857Y-66460619D01*
X184136714Y-66365380D01*
X184022428Y-66317761D01*
X183908142Y-66317761D01*
X183793857Y-66365380D01*
X183736714Y-66460619D01*
X183736714Y-66698714D01*
X183679571Y-66793952D01*
X183393857Y-67270142D02*
X184593857Y-67270142D01*
X183451000Y-67270142D02*
X183393857Y-67365380D01*
X183393857Y-67555857D01*
X183451000Y-67651095D01*
X183508142Y-67698714D01*
X183622428Y-67746333D01*
X183965285Y-67746333D01*
X184079571Y-67698714D01*
X184136714Y-67651095D01*
X184193857Y-67555857D01*
X184193857Y-67365380D01*
X184136714Y-67270142D01*
X184193857Y-68174904D02*
X183393857Y-68174904D01*
X183622428Y-68174904D02*
X183508142Y-68222523D01*
X183451000Y-68270142D01*
X183393857Y-68365380D01*
X183393857Y-68460619D01*
X184079571Y-68793952D02*
X184136714Y-68841571D01*
X184193857Y-68793952D01*
X184136714Y-68746333D01*
X184079571Y-68793952D01*
X184193857Y-68793952D01*
X184193857Y-69413000D02*
X184136714Y-69317761D01*
X184079571Y-69270142D01*
X183965285Y-69222523D01*
X183622428Y-69222523D01*
X183508142Y-69270142D01*
X183451000Y-69317761D01*
X183393857Y-69413000D01*
X183393857Y-69555857D01*
X183451000Y-69651095D01*
X183508142Y-69698714D01*
X183622428Y-69746333D01*
X183965285Y-69746333D01*
X184079571Y-69698714D01*
X184136714Y-69651095D01*
X184193857Y-69555857D01*
X184193857Y-69413000D01*
X184193857Y-70174904D02*
X183393857Y-70174904D01*
X183622428Y-70174904D02*
X183508142Y-70222523D01*
X183451000Y-70270142D01*
X183393857Y-70365380D01*
X183393857Y-70460619D01*
X183393857Y-71222523D02*
X184365285Y-71222523D01*
X184479571Y-71174904D01*
X184536714Y-71127285D01*
X184593857Y-71032047D01*
X184593857Y-70889190D01*
X184536714Y-70793952D01*
X184136714Y-71222523D02*
X184193857Y-71127285D01*
X184193857Y-70936809D01*
X184136714Y-70841571D01*
X184079571Y-70793952D01*
X183965285Y-70746333D01*
X183622428Y-70746333D01*
X183508142Y-70793952D01*
X183451000Y-70841571D01*
X183393857Y-70936809D01*
X183393857Y-71127285D01*
X183451000Y-71222523D01*
X182936714Y-72413000D02*
X184479571Y-71555857D01*
X182993857Y-72936809D02*
X182993857Y-73127285D01*
X183051000Y-73222523D01*
X183165285Y-73317761D01*
X183393857Y-73365380D01*
X183793857Y-73365380D01*
X184022428Y-73317761D01*
X184136714Y-73222523D01*
X184193857Y-73127285D01*
X184193857Y-72936809D01*
X184136714Y-72841571D01*
X184022428Y-72746333D01*
X183793857Y-72698714D01*
X183393857Y-72698714D01*
X183165285Y-72746333D01*
X183051000Y-72841571D01*
X182993857Y-72936809D01*
X184193857Y-73793952D02*
X182993857Y-73793952D01*
X183565285Y-73793952D02*
X183565285Y-74365380D01*
X184193857Y-74365380D02*
X182993857Y-74365380D01*
X184193857Y-75317761D02*
X184193857Y-74841571D01*
X182993857Y-74841571D01*
D16*
G36*
X127578643Y-53069329D02*
G01*
X127587613Y-53063092D01*
X127606912Y-53031120D01*
X127633555Y-52978820D01*
X127659756Y-52922402D01*
X127740045Y-52748449D01*
X127834832Y-52552292D01*
X127940702Y-52340466D01*
X128054235Y-52119506D01*
X128172016Y-51895947D01*
X128290626Y-51676325D01*
X128406649Y-51467175D01*
X128516667Y-51275032D01*
X128557040Y-51206400D01*
X128631554Y-51065293D01*
X128685843Y-50923805D01*
X128700045Y-50876200D01*
X128746166Y-50714828D01*
X128800982Y-50527827D01*
X128862493Y-50321701D01*
X128928697Y-50102955D01*
X128997590Y-49878093D01*
X129067172Y-49653617D01*
X129135441Y-49436033D01*
X129200395Y-49231845D01*
X129260031Y-49047556D01*
X129302039Y-48920400D01*
X129369560Y-48720338D01*
X129429724Y-48546973D01*
X129484873Y-48394556D01*
X129537350Y-48257335D01*
X129589494Y-48129559D01*
X129643648Y-48005480D01*
X129702154Y-47879344D01*
X129767354Y-47745403D01*
X129836417Y-47608066D01*
X129888069Y-47507977D01*
X129945965Y-47398298D01*
X130007749Y-47283254D01*
X130071065Y-47167066D01*
X130133557Y-47053958D01*
X130192870Y-46948152D01*
X130246648Y-46853870D01*
X130292535Y-46775337D01*
X130328175Y-46716773D01*
X130351213Y-46682402D01*
X130355998Y-46676733D01*
X130353512Y-46686427D01*
X130337595Y-46722549D01*
X130310057Y-46781283D01*
X130272712Y-46858816D01*
X130227372Y-46951334D01*
X130184893Y-47036914D01*
X130067111Y-47277708D01*
X129960910Y-47505763D01*
X129863869Y-47727328D01*
X129773565Y-47948652D01*
X129687576Y-48175985D01*
X129603482Y-48415576D01*
X129518859Y-48673675D01*
X129431286Y-48956530D01*
X129398159Y-49067008D01*
X129359027Y-49201345D01*
X129319144Y-49343469D01*
X129279477Y-49489453D01*
X129240994Y-49635370D01*
X129204665Y-49777292D01*
X129171457Y-49911293D01*
X129142339Y-50033445D01*
X129118279Y-50139822D01*
X129100246Y-50226496D01*
X129089207Y-50289540D01*
X129086132Y-50325028D01*
X129086838Y-50329515D01*
X129097861Y-50322642D01*
X129124502Y-50291518D01*
X129163703Y-50240145D01*
X129212410Y-50172523D01*
X129266225Y-50094633D01*
X129642605Y-49557968D01*
X130021174Y-49054795D01*
X130402223Y-48584791D01*
X130786044Y-48147637D01*
X131172926Y-47743009D01*
X131563164Y-47370586D01*
X131957046Y-47030048D01*
X132257800Y-46793281D01*
X132757064Y-46437718D01*
X133276151Y-46109078D01*
X133812572Y-45808804D01*
X134363842Y-45538336D01*
X134609346Y-45429624D01*
X134691442Y-45395102D01*
X134762011Y-45366669D01*
X134815495Y-45346466D01*
X134846334Y-45336637D01*
X134851542Y-45336298D01*
X134839465Y-45345883D01*
X134801539Y-45368468D01*
X134742078Y-45401660D01*
X134665398Y-45443061D01*
X134575814Y-45490278D01*
X134548930Y-45504255D01*
X134017491Y-45796192D01*
X133503829Y-46112150D01*
X133006999Y-46453008D01*
X132526056Y-46819647D01*
X132060056Y-47212945D01*
X131608054Y-47633784D01*
X131169105Y-48083042D01*
X130742264Y-48561601D01*
X130326588Y-49070339D01*
X129921132Y-49610138D01*
X129524950Y-50181876D01*
X129521006Y-50187796D01*
X129449787Y-50295098D01*
X129385048Y-50393312D01*
X129329080Y-50478910D01*
X129284174Y-50548364D01*
X129252619Y-50598144D01*
X129236706Y-50624721D01*
X129235234Y-50628063D01*
X129251552Y-50630597D01*
X129297997Y-50632967D01*
X129370828Y-50635102D01*
X129466305Y-50636929D01*
X129580689Y-50638379D01*
X129710239Y-50639380D01*
X129851216Y-50639862D01*
X129857534Y-50639870D01*
X130062751Y-50640654D01*
X130241616Y-50642771D01*
X130401632Y-50646657D01*
X130550302Y-50652746D01*
X130695127Y-50661472D01*
X130843612Y-50673270D01*
X131003259Y-50688574D01*
X131181570Y-50707819D01*
X131334933Y-50725436D01*
X131844029Y-50794497D01*
X132371365Y-50884200D01*
X132909695Y-50992881D01*
X133451776Y-51118877D01*
X133990363Y-51260524D01*
X134518212Y-51416159D01*
X134935392Y-51552177D01*
X135069214Y-51598592D01*
X135204140Y-51646795D01*
X135335866Y-51695125D01*
X135460092Y-51741922D01*
X135572514Y-51785524D01*
X135668831Y-51824272D01*
X135744740Y-51856503D01*
X135795938Y-51880558D01*
X135814792Y-51891658D01*
X135837276Y-51910267D01*
X135831611Y-51916296D01*
X135811695Y-51917061D01*
X135773903Y-51911822D01*
X135721758Y-51898025D01*
X135701629Y-51891331D01*
X135615995Y-51862809D01*
X135501964Y-51827647D01*
X135364080Y-51787082D01*
X135206883Y-51742352D01*
X135034915Y-51694694D01*
X134852718Y-51645347D01*
X134664834Y-51595547D01*
X134475804Y-51546532D01*
X134290170Y-51499540D01*
X134112474Y-51455809D01*
X134035800Y-51437401D01*
X133613044Y-51339449D01*
X133217447Y-51253523D01*
X132844746Y-51179012D01*
X132490681Y-51115307D01*
X132150989Y-51061796D01*
X131821408Y-51017869D01*
X131497677Y-50982915D01*
X131175533Y-50956325D01*
X130850714Y-50937486D01*
X130518959Y-50925789D01*
X130454400Y-50924315D01*
X130222047Y-50921816D01*
X129979761Y-50923528D01*
X129736672Y-50929181D01*
X129501914Y-50938506D01*
X129284620Y-50951233D01*
X129132691Y-50963388D01*
X129071553Y-50970363D01*
X129034249Y-50980232D01*
X129010783Y-50997450D01*
X128991158Y-51026475D01*
X128991150Y-51026489D01*
X128879448Y-51223363D01*
X128762758Y-51435447D01*
X128644261Y-51656574D01*
X128527136Y-51880576D01*
X128414563Y-52101286D01*
X128309722Y-52312538D01*
X128215792Y-52508163D01*
X128135953Y-52681995D01*
X128125746Y-52705000D01*
X128072027Y-52828669D01*
X128016494Y-52960064D01*
X127960726Y-53095120D01*
X127906301Y-53229776D01*
X127854798Y-53359966D01*
X127807795Y-53481628D01*
X127766871Y-53590698D01*
X127733604Y-53683113D01*
X127709573Y-53754809D01*
X127696356Y-53801722D01*
X127694267Y-53815772D01*
X127711039Y-53817179D01*
X127760710Y-53818536D01*
X127842313Y-53819840D01*
X127954880Y-53821087D01*
X128097443Y-53822276D01*
X128269036Y-53823403D01*
X128468691Y-53824464D01*
X128695440Y-53825458D01*
X128948315Y-53826381D01*
X129226350Y-53827231D01*
X129528576Y-53828003D01*
X129854027Y-53828696D01*
X130201734Y-53829306D01*
X130570731Y-53829831D01*
X130960049Y-53830267D01*
X131368722Y-53830611D01*
X131795781Y-53830861D01*
X132240260Y-53831014D01*
X132701190Y-53831066D01*
X132706533Y-53831067D01*
X133116269Y-53831030D01*
X133517162Y-53830921D01*
X133907894Y-53830743D01*
X134287146Y-53830500D01*
X134653602Y-53830193D01*
X135005943Y-53829827D01*
X135342852Y-53829403D01*
X135663011Y-53828924D01*
X135965103Y-53828394D01*
X136247810Y-53827816D01*
X136509814Y-53827192D01*
X136749797Y-53826526D01*
X136966442Y-53825819D01*
X137158431Y-53825076D01*
X137324446Y-53824298D01*
X137463170Y-53823490D01*
X137573285Y-53822653D01*
X137653473Y-53821791D01*
X137702417Y-53820906D01*
X137718800Y-53820012D01*
X137710079Y-53802456D01*
X137686207Y-53762208D01*
X137650622Y-53704884D01*
X137606761Y-53636101D01*
X137597028Y-53621045D01*
X137432547Y-53360997D01*
X137279589Y-53106683D01*
X137141797Y-52864341D01*
X137022813Y-52640209D01*
X137012542Y-52619937D01*
X136867162Y-52331674D01*
X136963537Y-52175873D01*
X137058294Y-52030095D01*
X137172243Y-51867269D01*
X137300449Y-51694116D01*
X137437977Y-51517355D01*
X137534692Y-51398056D01*
X137595126Y-51324254D01*
X137647225Y-51259615D01*
X137687469Y-51208589D01*
X137712338Y-51175626D01*
X137718800Y-51165285D01*
X137704258Y-51155566D01*
X137663157Y-51132794D01*
X137599289Y-51098947D01*
X137516441Y-51056004D01*
X137418405Y-51005943D01*
X137308969Y-50950744D01*
X137282767Y-50937620D01*
X136785933Y-50694797D01*
X136311725Y-50474743D01*
X135858420Y-50276685D01*
X135424296Y-50099854D01*
X135331200Y-50063726D01*
X135114339Y-49982627D01*
X134886434Y-49901584D01*
X134653202Y-49822391D01*
X134420359Y-49746844D01*
X134193623Y-49676737D01*
X133978711Y-49613867D01*
X133781338Y-49560027D01*
X133607223Y-49517014D01*
X133548405Y-49503894D01*
X133496450Y-49493082D01*
X133459561Y-49483212D01*
X133437740Y-49469750D01*
X133430992Y-49448166D01*
X133439318Y-49413926D01*
X133462724Y-49362500D01*
X133501210Y-49289356D01*
X133548621Y-49201443D01*
X133743802Y-48855121D01*
X133957265Y-48507546D01*
X134184091Y-48165903D01*
X134419357Y-47837376D01*
X134658143Y-47529148D01*
X134854683Y-47294800D01*
X135077799Y-47051073D01*
X135326295Y-46800969D01*
X135593829Y-46549977D01*
X135874063Y-46303586D01*
X136160654Y-46067284D01*
X136447262Y-45846561D01*
X136727548Y-45646907D01*
X136859573Y-45559133D01*
X136916816Y-45520904D01*
X136961363Y-45488994D01*
X136986845Y-45468075D01*
X136990448Y-45463157D01*
X136975606Y-45453179D01*
X136935769Y-45436182D01*
X136878290Y-45415178D01*
X136850967Y-45405988D01*
X136697298Y-45352475D01*
X136536848Y-45291118D01*
X136376973Y-45225106D01*
X136225030Y-45157630D01*
X136088375Y-45091879D01*
X135974364Y-45031042D01*
X135941046Y-45011425D01*
X135888715Y-44979601D01*
X136030531Y-44820317D01*
X136123442Y-44720926D01*
X136237493Y-44607059D01*
X136366666Y-44484477D01*
X136504945Y-44358943D01*
X136590646Y-44283856D01*
X136625716Y-44250357D01*
X136644844Y-44225637D01*
X136645871Y-44218094D01*
X136624371Y-44214755D01*
X136575804Y-44215947D01*
X136506566Y-44220976D01*
X136423051Y-44229148D01*
X136331655Y-44239768D01*
X136238771Y-44252142D01*
X136150796Y-44265576D01*
X136074123Y-44279375D01*
X136065682Y-44281085D01*
X135839450Y-44335152D01*
X135590964Y-44408242D01*
X135324634Y-44498498D01*
X135044866Y-44604060D01*
X134756071Y-44723070D01*
X134462656Y-44853667D01*
X134169030Y-44993995D01*
X133879601Y-45142192D01*
X133598778Y-45296402D01*
X133443133Y-45386942D01*
X133284871Y-45483964D01*
X133106435Y-45598406D01*
X132913765Y-45726122D01*
X132712800Y-45862965D01*
X132509478Y-46004789D01*
X132309739Y-46147448D01*
X132119523Y-46286796D01*
X131944767Y-46418687D01*
X131791411Y-46538974D01*
X131781385Y-46547051D01*
X131734866Y-46583841D01*
X131707994Y-46601218D01*
X131694319Y-46601354D01*
X131687387Y-46586419D01*
X131685641Y-46579253D01*
X131638667Y-46363827D01*
X131604733Y-46179545D01*
X131583819Y-46026300D01*
X131578240Y-45961300D01*
X131572155Y-45889288D01*
X131564587Y-45831865D01*
X131556636Y-45796102D01*
X131551277Y-45787733D01*
X131521905Y-45794598D01*
X131467581Y-45813599D01*
X131393944Y-45842341D01*
X131306635Y-45878433D01*
X131211292Y-45919481D01*
X131113557Y-45963093D01*
X131019069Y-46006876D01*
X130933468Y-46048436D01*
X130915687Y-46057400D01*
X130674840Y-46188476D01*
X130452989Y-46328353D01*
X130378200Y-46383172D01*
X130378200Y-46634400D01*
X130386666Y-46642867D01*
X130378200Y-46651333D01*
X130369733Y-46642867D01*
X130378200Y-46634400D01*
X130378200Y-46383172D01*
X130242407Y-46482706D01*
X130035369Y-46657207D01*
X129824150Y-46857529D01*
X129818877Y-46862790D01*
X129623455Y-47067328D01*
X129444596Y-47275232D01*
X129276602Y-47493928D01*
X129113774Y-47730846D01*
X128950413Y-47993416D01*
X128946356Y-48000234D01*
X128732411Y-48387776D01*
X128534164Y-48803524D01*
X128352210Y-49245374D01*
X128187144Y-49711219D01*
X128039562Y-50198954D01*
X127910057Y-50706472D01*
X127799226Y-51231668D01*
X127707663Y-51772436D01*
X127635964Y-52326671D01*
X127592179Y-52792660D01*
X127585593Y-52883411D01*
X127580792Y-52962768D01*
X127578089Y-53024338D01*
X127577797Y-53061728D01*
X127578643Y-53069329D01*
G37*
X127578643Y-53069329D02*
X127587613Y-53063092D01*
X127606912Y-53031120D01*
X127633555Y-52978820D01*
X127659756Y-52922402D01*
X127740045Y-52748449D01*
X127834832Y-52552292D01*
X127940702Y-52340466D01*
X128054235Y-52119506D01*
X128172016Y-51895947D01*
X128290626Y-51676325D01*
X128406649Y-51467175D01*
X128516667Y-51275032D01*
X128557040Y-51206400D01*
X128631554Y-51065293D01*
X128685843Y-50923805D01*
X128700045Y-50876200D01*
X128746166Y-50714828D01*
X128800982Y-50527827D01*
X128862493Y-50321701D01*
X128928697Y-50102955D01*
X128997590Y-49878093D01*
X129067172Y-49653617D01*
X129135441Y-49436033D01*
X129200395Y-49231845D01*
X129260031Y-49047556D01*
X129302039Y-48920400D01*
X129369560Y-48720338D01*
X129429724Y-48546973D01*
X129484873Y-48394556D01*
X129537350Y-48257335D01*
X129589494Y-48129559D01*
X129643648Y-48005480D01*
X129702154Y-47879344D01*
X129767354Y-47745403D01*
X129836417Y-47608066D01*
X129888069Y-47507977D01*
X129945965Y-47398298D01*
X130007749Y-47283254D01*
X130071065Y-47167066D01*
X130133557Y-47053958D01*
X130192870Y-46948152D01*
X130246648Y-46853870D01*
X130292535Y-46775337D01*
X130328175Y-46716773D01*
X130351213Y-46682402D01*
X130355998Y-46676733D01*
X130353512Y-46686427D01*
X130337595Y-46722549D01*
X130310057Y-46781283D01*
X130272712Y-46858816D01*
X130227372Y-46951334D01*
X130184893Y-47036914D01*
X130067111Y-47277708D01*
X129960910Y-47505763D01*
X129863869Y-47727328D01*
X129773565Y-47948652D01*
X129687576Y-48175985D01*
X129603482Y-48415576D01*
X129518859Y-48673675D01*
X129431286Y-48956530D01*
X129398159Y-49067008D01*
X129359027Y-49201345D01*
X129319144Y-49343469D01*
X129279477Y-49489453D01*
X129240994Y-49635370D01*
X129204665Y-49777292D01*
X129171457Y-49911293D01*
X129142339Y-50033445D01*
X129118279Y-50139822D01*
X129100246Y-50226496D01*
X129089207Y-50289540D01*
X129086132Y-50325028D01*
X129086838Y-50329515D01*
X129097861Y-50322642D01*
X129124502Y-50291518D01*
X129163703Y-50240145D01*
X129212410Y-50172523D01*
X129266225Y-50094633D01*
X129642605Y-49557968D01*
X130021174Y-49054795D01*
X130402223Y-48584791D01*
X130786044Y-48147637D01*
X131172926Y-47743009D01*
X131563164Y-47370586D01*
X131957046Y-47030048D01*
X132257800Y-46793281D01*
X132757064Y-46437718D01*
X133276151Y-46109078D01*
X133812572Y-45808804D01*
X134363842Y-45538336D01*
X134609346Y-45429624D01*
X134691442Y-45395102D01*
X134762011Y-45366669D01*
X134815495Y-45346466D01*
X134846334Y-45336637D01*
X134851542Y-45336298D01*
X134839465Y-45345883D01*
X134801539Y-45368468D01*
X134742078Y-45401660D01*
X134665398Y-45443061D01*
X134575814Y-45490278D01*
X134548930Y-45504255D01*
X134017491Y-45796192D01*
X133503829Y-46112150D01*
X133006999Y-46453008D01*
X132526056Y-46819647D01*
X132060056Y-47212945D01*
X131608054Y-47633784D01*
X131169105Y-48083042D01*
X130742264Y-48561601D01*
X130326588Y-49070339D01*
X129921132Y-49610138D01*
X129524950Y-50181876D01*
X129521006Y-50187796D01*
X129449787Y-50295098D01*
X129385048Y-50393312D01*
X129329080Y-50478910D01*
X129284174Y-50548364D01*
X129252619Y-50598144D01*
X129236706Y-50624721D01*
X129235234Y-50628063D01*
X129251552Y-50630597D01*
X129297997Y-50632967D01*
X129370828Y-50635102D01*
X129466305Y-50636929D01*
X129580689Y-50638379D01*
X129710239Y-50639380D01*
X129851216Y-50639862D01*
X129857534Y-50639870D01*
X130062751Y-50640654D01*
X130241616Y-50642771D01*
X130401632Y-50646657D01*
X130550302Y-50652746D01*
X130695127Y-50661472D01*
X130843612Y-50673270D01*
X131003259Y-50688574D01*
X131181570Y-50707819D01*
X131334933Y-50725436D01*
X131844029Y-50794497D01*
X132371365Y-50884200D01*
X132909695Y-50992881D01*
X133451776Y-51118877D01*
X133990363Y-51260524D01*
X134518212Y-51416159D01*
X134935392Y-51552177D01*
X135069214Y-51598592D01*
X135204140Y-51646795D01*
X135335866Y-51695125D01*
X135460092Y-51741922D01*
X135572514Y-51785524D01*
X135668831Y-51824272D01*
X135744740Y-51856503D01*
X135795938Y-51880558D01*
X135814792Y-51891658D01*
X135837276Y-51910267D01*
X135831611Y-51916296D01*
X135811695Y-51917061D01*
X135773903Y-51911822D01*
X135721758Y-51898025D01*
X135701629Y-51891331D01*
X135615995Y-51862809D01*
X135501964Y-51827647D01*
X135364080Y-51787082D01*
X135206883Y-51742352D01*
X135034915Y-51694694D01*
X134852718Y-51645347D01*
X134664834Y-51595547D01*
X134475804Y-51546532D01*
X134290170Y-51499540D01*
X134112474Y-51455809D01*
X134035800Y-51437401D01*
X133613044Y-51339449D01*
X133217447Y-51253523D01*
X132844746Y-51179012D01*
X132490681Y-51115307D01*
X132150989Y-51061796D01*
X131821408Y-51017869D01*
X131497677Y-50982915D01*
X131175533Y-50956325D01*
X130850714Y-50937486D01*
X130518959Y-50925789D01*
X130454400Y-50924315D01*
X130222047Y-50921816D01*
X129979761Y-50923528D01*
X129736672Y-50929181D01*
X129501914Y-50938506D01*
X129284620Y-50951233D01*
X129132691Y-50963388D01*
X129071553Y-50970363D01*
X129034249Y-50980232D01*
X129010783Y-50997450D01*
X128991158Y-51026475D01*
X128991150Y-51026489D01*
X128879448Y-51223363D01*
X128762758Y-51435447D01*
X128644261Y-51656574D01*
X128527136Y-51880576D01*
X128414563Y-52101286D01*
X128309722Y-52312538D01*
X128215792Y-52508163D01*
X128135953Y-52681995D01*
X128125746Y-52705000D01*
X128072027Y-52828669D01*
X128016494Y-52960064D01*
X127960726Y-53095120D01*
X127906301Y-53229776D01*
X127854798Y-53359966D01*
X127807795Y-53481628D01*
X127766871Y-53590698D01*
X127733604Y-53683113D01*
X127709573Y-53754809D01*
X127696356Y-53801722D01*
X127694267Y-53815772D01*
X127711039Y-53817179D01*
X127760710Y-53818536D01*
X127842313Y-53819840D01*
X127954880Y-53821087D01*
X128097443Y-53822276D01*
X128269036Y-53823403D01*
X128468691Y-53824464D01*
X128695440Y-53825458D01*
X128948315Y-53826381D01*
X129226350Y-53827231D01*
X129528576Y-53828003D01*
X129854027Y-53828696D01*
X130201734Y-53829306D01*
X130570731Y-53829831D01*
X130960049Y-53830267D01*
X131368722Y-53830611D01*
X131795781Y-53830861D01*
X132240260Y-53831014D01*
X132701190Y-53831066D01*
X132706533Y-53831067D01*
X133116269Y-53831030D01*
X133517162Y-53830921D01*
X133907894Y-53830743D01*
X134287146Y-53830500D01*
X134653602Y-53830193D01*
X135005943Y-53829827D01*
X135342852Y-53829403D01*
X135663011Y-53828924D01*
X135965103Y-53828394D01*
X136247810Y-53827816D01*
X136509814Y-53827192D01*
X136749797Y-53826526D01*
X136966442Y-53825819D01*
X137158431Y-53825076D01*
X137324446Y-53824298D01*
X137463170Y-53823490D01*
X137573285Y-53822653D01*
X137653473Y-53821791D01*
X137702417Y-53820906D01*
X137718800Y-53820012D01*
X137710079Y-53802456D01*
X137686207Y-53762208D01*
X137650622Y-53704884D01*
X137606761Y-53636101D01*
X137597028Y-53621045D01*
X137432547Y-53360997D01*
X137279589Y-53106683D01*
X137141797Y-52864341D01*
X137022813Y-52640209D01*
X137012542Y-52619937D01*
X136867162Y-52331674D01*
X136963537Y-52175873D01*
X137058294Y-52030095D01*
X137172243Y-51867269D01*
X137300449Y-51694116D01*
X137437977Y-51517355D01*
X137534692Y-51398056D01*
X137595126Y-51324254D01*
X137647225Y-51259615D01*
X137687469Y-51208589D01*
X137712338Y-51175626D01*
X137718800Y-51165285D01*
X137704258Y-51155566D01*
X137663157Y-51132794D01*
X137599289Y-51098947D01*
X137516441Y-51056004D01*
X137418405Y-51005943D01*
X137308969Y-50950744D01*
X137282767Y-50937620D01*
X136785933Y-50694797D01*
X136311725Y-50474743D01*
X135858420Y-50276685D01*
X135424296Y-50099854D01*
X135331200Y-50063726D01*
X135114339Y-49982627D01*
X134886434Y-49901584D01*
X134653202Y-49822391D01*
X134420359Y-49746844D01*
X134193623Y-49676737D01*
X133978711Y-49613867D01*
X133781338Y-49560027D01*
X133607223Y-49517014D01*
X133548405Y-49503894D01*
X133496450Y-49493082D01*
X133459561Y-49483212D01*
X133437740Y-49469750D01*
X133430992Y-49448166D01*
X133439318Y-49413926D01*
X133462724Y-49362500D01*
X133501210Y-49289356D01*
X133548621Y-49201443D01*
X133743802Y-48855121D01*
X133957265Y-48507546D01*
X134184091Y-48165903D01*
X134419357Y-47837376D01*
X134658143Y-47529148D01*
X134854683Y-47294800D01*
X135077799Y-47051073D01*
X135326295Y-46800969D01*
X135593829Y-46549977D01*
X135874063Y-46303586D01*
X136160654Y-46067284D01*
X136447262Y-45846561D01*
X136727548Y-45646907D01*
X136859573Y-45559133D01*
X136916816Y-45520904D01*
X136961363Y-45488994D01*
X136986845Y-45468075D01*
X136990448Y-45463157D01*
X136975606Y-45453179D01*
X136935769Y-45436182D01*
X136878290Y-45415178D01*
X136850967Y-45405988D01*
X136697298Y-45352475D01*
X136536848Y-45291118D01*
X136376973Y-45225106D01*
X136225030Y-45157630D01*
X136088375Y-45091879D01*
X135974364Y-45031042D01*
X135941046Y-45011425D01*
X135888715Y-44979601D01*
X136030531Y-44820317D01*
X136123442Y-44720926D01*
X136237493Y-44607059D01*
X136366666Y-44484477D01*
X136504945Y-44358943D01*
X136590646Y-44283856D01*
X136625716Y-44250357D01*
X136644844Y-44225637D01*
X136645871Y-44218094D01*
X136624371Y-44214755D01*
X136575804Y-44215947D01*
X136506566Y-44220976D01*
X136423051Y-44229148D01*
X136331655Y-44239768D01*
X136238771Y-44252142D01*
X136150796Y-44265576D01*
X136074123Y-44279375D01*
X136065682Y-44281085D01*
X135839450Y-44335152D01*
X135590964Y-44408242D01*
X135324634Y-44498498D01*
X135044866Y-44604060D01*
X134756071Y-44723070D01*
X134462656Y-44853667D01*
X134169030Y-44993995D01*
X133879601Y-45142192D01*
X133598778Y-45296402D01*
X133443133Y-45386942D01*
X133284871Y-45483964D01*
X133106435Y-45598406D01*
X132913765Y-45726122D01*
X132712800Y-45862965D01*
X132509478Y-46004789D01*
X132309739Y-46147448D01*
X132119523Y-46286796D01*
X131944767Y-46418687D01*
X131791411Y-46538974D01*
X131781385Y-46547051D01*
X131734866Y-46583841D01*
X131707994Y-46601218D01*
X131694319Y-46601354D01*
X131687387Y-46586419D01*
X131685641Y-46579253D01*
X131638667Y-46363827D01*
X131604733Y-46179545D01*
X131583819Y-46026300D01*
X131578240Y-45961300D01*
X131572155Y-45889288D01*
X131564587Y-45831865D01*
X131556636Y-45796102D01*
X131551277Y-45787733D01*
X131521905Y-45794598D01*
X131467581Y-45813599D01*
X131393944Y-45842341D01*
X131306635Y-45878433D01*
X131211292Y-45919481D01*
X131113557Y-45963093D01*
X131019069Y-46006876D01*
X130933468Y-46048436D01*
X130915687Y-46057400D01*
X130674840Y-46188476D01*
X130452989Y-46328353D01*
X130378200Y-46383172D01*
X130378200Y-46634400D01*
X130386666Y-46642867D01*
X130378200Y-46651333D01*
X130369733Y-46642867D01*
X130378200Y-46634400D01*
X130378200Y-46383172D01*
X130242407Y-46482706D01*
X130035369Y-46657207D01*
X129824150Y-46857529D01*
X129818877Y-46862790D01*
X129623455Y-47067328D01*
X129444596Y-47275232D01*
X129276602Y-47493928D01*
X129113774Y-47730846D01*
X128950413Y-47993416D01*
X128946356Y-48000234D01*
X128732411Y-48387776D01*
X128534164Y-48803524D01*
X128352210Y-49245374D01*
X128187144Y-49711219D01*
X128039562Y-50198954D01*
X127910057Y-50706472D01*
X127799226Y-51231668D01*
X127707663Y-51772436D01*
X127635964Y-52326671D01*
X127592179Y-52792660D01*
X127585593Y-52883411D01*
X127580792Y-52962768D01*
X127578089Y-53024338D01*
X127577797Y-53061728D01*
X127578643Y-53069329D01*
G36*
X174536566Y-119956478D02*
G01*
X174586938Y-119987476D01*
X174666741Y-120035234D01*
X174772580Y-120097794D01*
X174901059Y-120173197D01*
X175048784Y-120259485D01*
X175212358Y-120354701D01*
X175388387Y-120456885D01*
X175573475Y-120564081D01*
X175764227Y-120674329D01*
X175957247Y-120785671D01*
X176149141Y-120896150D01*
X176336511Y-121003807D01*
X176515965Y-121106684D01*
X176684105Y-121202823D01*
X176837537Y-121290265D01*
X176972865Y-121367053D01*
X177086694Y-121431228D01*
X177175629Y-121480833D01*
X177236274Y-121513909D01*
X177265233Y-121528497D01*
X177267044Y-121529031D01*
X177291617Y-121510921D01*
X177329207Y-121460580D01*
X177376122Y-121383995D01*
X177428674Y-121287152D01*
X177478613Y-121185767D01*
X177539169Y-121047815D01*
X177593579Y-120902742D01*
X177643051Y-120745550D01*
X177688795Y-120571243D01*
X177732020Y-120374822D01*
X177773934Y-120151289D01*
X177815747Y-119895648D01*
X177854684Y-119631206D01*
X177889228Y-119401452D01*
X177923426Y-119208517D01*
X177958977Y-119047564D01*
X177997582Y-118913755D01*
X178040939Y-118802250D01*
X178090748Y-118708214D01*
X178148709Y-118626806D01*
X178216520Y-118553190D01*
X178241712Y-118529451D01*
X178300358Y-118477997D01*
X178348215Y-118439934D01*
X178376358Y-118422277D01*
X178378665Y-118421806D01*
X178392816Y-118415628D01*
X178392975Y-118394190D01*
X178377261Y-118353133D01*
X178343791Y-118288101D01*
X178290681Y-118194737D01*
X178252488Y-118129852D01*
X178192785Y-118033101D01*
X178141663Y-117957912D01*
X178102799Y-117909339D01*
X178079872Y-117892435D01*
X178079705Y-117892445D01*
X178057856Y-117902928D01*
X178003139Y-117932531D01*
X177918536Y-117979538D01*
X177807029Y-118042229D01*
X177671601Y-118118886D01*
X177515233Y-118207791D01*
X177340907Y-118307226D01*
X177151606Y-118415472D01*
X176950311Y-118530811D01*
X176740005Y-118651524D01*
X176523671Y-118775894D01*
X176304289Y-118902201D01*
X176084842Y-119028727D01*
X175868312Y-119153755D01*
X175657681Y-119275565D01*
X175455932Y-119392439D01*
X175266047Y-119502660D01*
X175091006Y-119604508D01*
X174933794Y-119696265D01*
X174797391Y-119776213D01*
X174684780Y-119842634D01*
X174598943Y-119893809D01*
X174542862Y-119928020D01*
X174519519Y-119943548D01*
X174519021Y-119944198D01*
X174536566Y-119956478D01*
G37*
X174536566Y-119956478D02*
X174586938Y-119987476D01*
X174666741Y-120035234D01*
X174772580Y-120097794D01*
X174901059Y-120173197D01*
X175048784Y-120259485D01*
X175212358Y-120354701D01*
X175388387Y-120456885D01*
X175573475Y-120564081D01*
X175764227Y-120674329D01*
X175957247Y-120785671D01*
X176149141Y-120896150D01*
X176336511Y-121003807D01*
X176515965Y-121106684D01*
X176684105Y-121202823D01*
X176837537Y-121290265D01*
X176972865Y-121367053D01*
X177086694Y-121431228D01*
X177175629Y-121480833D01*
X177236274Y-121513909D01*
X177265233Y-121528497D01*
X177267044Y-121529031D01*
X177291617Y-121510921D01*
X177329207Y-121460580D01*
X177376122Y-121383995D01*
X177428674Y-121287152D01*
X177478613Y-121185767D01*
X177539169Y-121047815D01*
X177593579Y-120902742D01*
X177643051Y-120745550D01*
X177688795Y-120571243D01*
X177732020Y-120374822D01*
X177773934Y-120151289D01*
X177815747Y-119895648D01*
X177854684Y-119631206D01*
X177889228Y-119401452D01*
X177923426Y-119208517D01*
X177958977Y-119047564D01*
X177997582Y-118913755D01*
X178040939Y-118802250D01*
X178090748Y-118708214D01*
X178148709Y-118626806D01*
X178216520Y-118553190D01*
X178241712Y-118529451D01*
X178300358Y-118477997D01*
X178348215Y-118439934D01*
X178376358Y-118422277D01*
X178378665Y-118421806D01*
X178392816Y-118415628D01*
X178392975Y-118394190D01*
X178377261Y-118353133D01*
X178343791Y-118288101D01*
X178290681Y-118194737D01*
X178252488Y-118129852D01*
X178192785Y-118033101D01*
X178141663Y-117957912D01*
X178102799Y-117909339D01*
X178079872Y-117892435D01*
X178079705Y-117892445D01*
X178057856Y-117902928D01*
X178003139Y-117932531D01*
X177918536Y-117979538D01*
X177807029Y-118042229D01*
X177671601Y-118118886D01*
X177515233Y-118207791D01*
X177340907Y-118307226D01*
X177151606Y-118415472D01*
X176950311Y-118530811D01*
X176740005Y-118651524D01*
X176523671Y-118775894D01*
X176304289Y-118902201D01*
X176084842Y-119028727D01*
X175868312Y-119153755D01*
X175657681Y-119275565D01*
X175455932Y-119392439D01*
X175266047Y-119502660D01*
X175091006Y-119604508D01*
X174933794Y-119696265D01*
X174797391Y-119776213D01*
X174684780Y-119842634D01*
X174598943Y-119893809D01*
X174542862Y-119928020D01*
X174519519Y-119943548D01*
X174519021Y-119944198D01*
X174536566Y-119956478D01*
G36*
X178776308Y-122411746D02*
G01*
X178801990Y-122427069D01*
X178860869Y-122461511D01*
X178950002Y-122513369D01*
X179066449Y-122580940D01*
X179207267Y-122662521D01*
X179369514Y-122756409D01*
X179550249Y-122860899D01*
X179746530Y-122974290D01*
X179955416Y-123094878D01*
X180170417Y-123218913D01*
X180390049Y-123345587D01*
X180600895Y-123467208D01*
X180799899Y-123582012D01*
X180984007Y-123688238D01*
X181150165Y-123784123D01*
X181295317Y-123867902D01*
X181416409Y-123937814D01*
X181510388Y-123992096D01*
X181574197Y-124028985D01*
X181604119Y-124046331D01*
X181654671Y-124074607D01*
X181686314Y-124089982D01*
X181691820Y-124090824D01*
X181681482Y-124072088D01*
X181651807Y-124019986D01*
X181604368Y-123937240D01*
X181540733Y-123826575D01*
X181462474Y-123690714D01*
X181371159Y-123532381D01*
X181268360Y-123354298D01*
X181155647Y-123159190D01*
X181034589Y-122949780D01*
X180906757Y-122728791D01*
X180858102Y-122644713D01*
X180727967Y-122419770D01*
X180603897Y-122205124D01*
X180487477Y-122003532D01*
X180380293Y-121817748D01*
X180283931Y-121650528D01*
X180199978Y-121504627D01*
X180130020Y-121382801D01*
X180075643Y-121287804D01*
X180038434Y-121222392D01*
X180019978Y-121189320D01*
X180018230Y-121185862D01*
X180002405Y-121195939D01*
X179960092Y-121231007D01*
X179895190Y-121287485D01*
X179811596Y-121361793D01*
X179713209Y-121450352D01*
X179603925Y-121549580D01*
X179487644Y-121655898D01*
X179368262Y-121765725D01*
X179249677Y-121875482D01*
X179135788Y-121981588D01*
X179030492Y-122080462D01*
X178937687Y-122168526D01*
X178861270Y-122242199D01*
X178805140Y-122297900D01*
X178786735Y-122317003D01*
X178727272Y-122380308D01*
X178776308Y-122411746D01*
G37*
X178776308Y-122411746D02*
X178801990Y-122427069D01*
X178860869Y-122461511D01*
X178950002Y-122513369D01*
X179066449Y-122580940D01*
X179207267Y-122662521D01*
X179369514Y-122756409D01*
X179550249Y-122860899D01*
X179746530Y-122974290D01*
X179955416Y-123094878D01*
X180170417Y-123218913D01*
X180390049Y-123345587D01*
X180600895Y-123467208D01*
X180799899Y-123582012D01*
X180984007Y-123688238D01*
X181150165Y-123784123D01*
X181295317Y-123867902D01*
X181416409Y-123937814D01*
X181510388Y-123992096D01*
X181574197Y-124028985D01*
X181604119Y-124046331D01*
X181654671Y-124074607D01*
X181686314Y-124089982D01*
X181691820Y-124090824D01*
X181681482Y-124072088D01*
X181651807Y-124019986D01*
X181604368Y-123937240D01*
X181540733Y-123826575D01*
X181462474Y-123690714D01*
X181371159Y-123532381D01*
X181268360Y-123354298D01*
X181155647Y-123159190D01*
X181034589Y-122949780D01*
X180906757Y-122728791D01*
X180858102Y-122644713D01*
X180727967Y-122419770D01*
X180603897Y-122205124D01*
X180487477Y-122003532D01*
X180380293Y-121817748D01*
X180283931Y-121650528D01*
X180199978Y-121504627D01*
X180130020Y-121382801D01*
X180075643Y-121287804D01*
X180038434Y-121222392D01*
X180019978Y-121189320D01*
X180018230Y-121185862D01*
X180002405Y-121195939D01*
X179960092Y-121231007D01*
X179895190Y-121287485D01*
X179811596Y-121361793D01*
X179713209Y-121450352D01*
X179603925Y-121549580D01*
X179487644Y-121655898D01*
X179368262Y-121765725D01*
X179249677Y-121875482D01*
X179135788Y-121981588D01*
X179030492Y-122080462D01*
X178937687Y-122168526D01*
X178861270Y-122242199D01*
X178805140Y-122297900D01*
X178786735Y-122317003D01*
X178727272Y-122380308D01*
X178776308Y-122411746D01*
G36*
X178852436Y-117476349D02*
G01*
X178869372Y-117520144D01*
X178903001Y-117586893D01*
X178955734Y-117682737D01*
X178959925Y-117690199D01*
X179010401Y-117778471D01*
X179054623Y-117852963D01*
X179088131Y-117906360D01*
X179106464Y-117931346D01*
X179107362Y-117932045D01*
X179132814Y-117926009D01*
X179189655Y-117898323D01*
X179274789Y-117850788D01*
X179385117Y-117785211D01*
X179517544Y-117703397D01*
X179668971Y-117607148D01*
X179706107Y-117583194D01*
X179809157Y-117520783D01*
X179897832Y-117475337D01*
X179964114Y-117450846D01*
X179977207Y-117448333D01*
X180034843Y-117449448D01*
X180126265Y-117461943D01*
X180245608Y-117484260D01*
X180387009Y-117514840D01*
X180544603Y-117552128D01*
X180712526Y-117594565D01*
X180884914Y-117640594D01*
X181055901Y-117688657D01*
X181219624Y-117737197D01*
X181370218Y-117784657D01*
X181501820Y-117829478D01*
X181608563Y-117870103D01*
X181671894Y-117898423D01*
X181739357Y-117931783D01*
X181803911Y-117963282D01*
X181807445Y-117964987D01*
X181872650Y-118017098D01*
X181916556Y-118093154D01*
X181937597Y-118181692D01*
X181934207Y-118271248D01*
X181904823Y-118350358D01*
X181866136Y-118394864D01*
X181760036Y-118458956D01*
X181627805Y-118505922D01*
X181482927Y-118531690D01*
X181400794Y-118535341D01*
X181247505Y-118520639D01*
X181120566Y-118477490D01*
X181013818Y-118403572D01*
X180990057Y-118380521D01*
X180923409Y-118311925D01*
X180452316Y-118307214D01*
X179981222Y-118302503D01*
X179799506Y-118422546D01*
X179717256Y-118478877D01*
X179643265Y-118533128D01*
X179587848Y-118577559D01*
X179567456Y-118596656D01*
X179517123Y-118650724D01*
X179556558Y-118723950D01*
X179584815Y-118770233D01*
X179606754Y-118795557D01*
X179610699Y-118797176D01*
X179627423Y-118814484D01*
X179639876Y-118844097D01*
X179651100Y-118872714D01*
X179672424Y-118916534D01*
X179705929Y-118979318D01*
X179753696Y-119064828D01*
X179817807Y-119176826D01*
X179900344Y-119319073D01*
X179945465Y-119396373D01*
X179999511Y-119487302D01*
X180038004Y-119546939D01*
X180065444Y-119580561D01*
X180086334Y-119593444D01*
X180105175Y-119590865D01*
X180109552Y-119588715D01*
X180137114Y-119567797D01*
X180188816Y-119523040D01*
X180258875Y-119459657D01*
X180341507Y-119382862D01*
X180411556Y-119316444D01*
X180577814Y-119163390D01*
X180721919Y-119043656D01*
X180845321Y-118956173D01*
X180949468Y-118899874D01*
X181002354Y-118880884D01*
X181048650Y-118873040D01*
X181127621Y-118864938D01*
X181230246Y-118857291D01*
X181347503Y-118850812D01*
X181421648Y-118847763D01*
X181549827Y-118843508D01*
X181643538Y-118841636D01*
X181709983Y-118842699D01*
X181756361Y-118847246D01*
X181789874Y-118855827D01*
X181817721Y-118868994D01*
X181834724Y-118879335D01*
X181900262Y-118939056D01*
X181945932Y-119016011D01*
X181965850Y-119096980D01*
X181958644Y-119157658D01*
X181927466Y-119212599D01*
X181871630Y-119281467D01*
X181800874Y-119354605D01*
X181724937Y-119422352D01*
X181653559Y-119475050D01*
X181619068Y-119494453D01*
X181571841Y-119523519D01*
X181499906Y-119576383D01*
X181408885Y-119648216D01*
X181304400Y-119734188D01*
X181192075Y-119829468D01*
X181077530Y-119929227D01*
X180966390Y-120028634D01*
X180864275Y-120122859D01*
X180776808Y-120207073D01*
X180712598Y-120273191D01*
X180648457Y-120346599D01*
X180601163Y-120408353D01*
X180575635Y-120451666D01*
X180572829Y-120466045D01*
X180584152Y-120488079D01*
X180614544Y-120543038D01*
X180662180Y-120627752D01*
X180725235Y-120739048D01*
X180801885Y-120873756D01*
X180890305Y-121028703D01*
X180988670Y-121200719D01*
X181095156Y-121386632D01*
X181207937Y-121583270D01*
X181325189Y-121787463D01*
X181445087Y-121996039D01*
X181565807Y-122205825D01*
X181685523Y-122413652D01*
X181802411Y-122616347D01*
X181914646Y-122810740D01*
X182020404Y-122993658D01*
X182117860Y-123161930D01*
X182205188Y-123312385D01*
X182280565Y-123441851D01*
X182342165Y-123547157D01*
X182388164Y-123625132D01*
X182416737Y-123672604D01*
X182425704Y-123686363D01*
X182427476Y-123667831D01*
X182429199Y-123609533D01*
X182430864Y-123513409D01*
X182432463Y-123381399D01*
X182433987Y-123215446D01*
X182435429Y-123017489D01*
X182436780Y-122789470D01*
X182438032Y-122533329D01*
X182439176Y-122251008D01*
X182440204Y-121944447D01*
X182441108Y-121615587D01*
X182441879Y-121266369D01*
X182442509Y-120898735D01*
X182442990Y-120514624D01*
X182443314Y-120115977D01*
X182443472Y-119704737D01*
X182443487Y-119532180D01*
X182443487Y-115358186D01*
X181927354Y-115655868D01*
X181818065Y-115718886D01*
X181677340Y-115800006D01*
X181509886Y-115896516D01*
X181320412Y-116005703D01*
X181113623Y-116124855D01*
X180894228Y-116251260D01*
X180666933Y-116382205D01*
X180436446Y-116514979D01*
X180207473Y-116646869D01*
X180149563Y-116680224D01*
X179938632Y-116801847D01*
X179737935Y-116917828D01*
X179550459Y-117026425D01*
X179379192Y-117125894D01*
X179227123Y-117214492D01*
X179097238Y-117290478D01*
X178992525Y-117352107D01*
X178915973Y-117397637D01*
X178870569Y-117425325D01*
X178859009Y-117433072D01*
X178849785Y-117449372D01*
X178852436Y-117476349D01*
G37*
X178852436Y-117476349D02*
X178869372Y-117520144D01*
X178903001Y-117586893D01*
X178955734Y-117682737D01*
X178959925Y-117690199D01*
X179010401Y-117778471D01*
X179054623Y-117852963D01*
X179088131Y-117906360D01*
X179106464Y-117931346D01*
X179107362Y-117932045D01*
X179132814Y-117926009D01*
X179189655Y-117898323D01*
X179274789Y-117850788D01*
X179385117Y-117785211D01*
X179517544Y-117703397D01*
X179668971Y-117607148D01*
X179706107Y-117583194D01*
X179809157Y-117520783D01*
X179897832Y-117475337D01*
X179964114Y-117450846D01*
X179977207Y-117448333D01*
X180034843Y-117449448D01*
X180126265Y-117461943D01*
X180245608Y-117484260D01*
X180387009Y-117514840D01*
X180544603Y-117552128D01*
X180712526Y-117594565D01*
X180884914Y-117640594D01*
X181055901Y-117688657D01*
X181219624Y-117737197D01*
X181370218Y-117784657D01*
X181501820Y-117829478D01*
X181608563Y-117870103D01*
X181671894Y-117898423D01*
X181739357Y-117931783D01*
X181803911Y-117963282D01*
X181807445Y-117964987D01*
X181872650Y-118017098D01*
X181916556Y-118093154D01*
X181937597Y-118181692D01*
X181934207Y-118271248D01*
X181904823Y-118350358D01*
X181866136Y-118394864D01*
X181760036Y-118458956D01*
X181627805Y-118505922D01*
X181482927Y-118531690D01*
X181400794Y-118535341D01*
X181247505Y-118520639D01*
X181120566Y-118477490D01*
X181013818Y-118403572D01*
X180990057Y-118380521D01*
X180923409Y-118311925D01*
X180452316Y-118307214D01*
X179981222Y-118302503D01*
X179799506Y-118422546D01*
X179717256Y-118478877D01*
X179643265Y-118533128D01*
X179587848Y-118577559D01*
X179567456Y-118596656D01*
X179517123Y-118650724D01*
X179556558Y-118723950D01*
X179584815Y-118770233D01*
X179606754Y-118795557D01*
X179610699Y-118797176D01*
X179627423Y-118814484D01*
X179639876Y-118844097D01*
X179651100Y-118872714D01*
X179672424Y-118916534D01*
X179705929Y-118979318D01*
X179753696Y-119064828D01*
X179817807Y-119176826D01*
X179900344Y-119319073D01*
X179945465Y-119396373D01*
X179999511Y-119487302D01*
X180038004Y-119546939D01*
X180065444Y-119580561D01*
X180086334Y-119593444D01*
X180105175Y-119590865D01*
X180109552Y-119588715D01*
X180137114Y-119567797D01*
X180188816Y-119523040D01*
X180258875Y-119459657D01*
X180341507Y-119382862D01*
X180411556Y-119316444D01*
X180577814Y-119163390D01*
X180721919Y-119043656D01*
X180845321Y-118956173D01*
X180949468Y-118899874D01*
X181002354Y-118880884D01*
X181048650Y-118873040D01*
X181127621Y-118864938D01*
X181230246Y-118857291D01*
X181347503Y-118850812D01*
X181421648Y-118847763D01*
X181549827Y-118843508D01*
X181643538Y-118841636D01*
X181709983Y-118842699D01*
X181756361Y-118847246D01*
X181789874Y-118855827D01*
X181817721Y-118868994D01*
X181834724Y-118879335D01*
X181900262Y-118939056D01*
X181945932Y-119016011D01*
X181965850Y-119096980D01*
X181958644Y-119157658D01*
X181927466Y-119212599D01*
X181871630Y-119281467D01*
X181800874Y-119354605D01*
X181724937Y-119422352D01*
X181653559Y-119475050D01*
X181619068Y-119494453D01*
X181571841Y-119523519D01*
X181499906Y-119576383D01*
X181408885Y-119648216D01*
X181304400Y-119734188D01*
X181192075Y-119829468D01*
X181077530Y-119929227D01*
X180966390Y-120028634D01*
X180864275Y-120122859D01*
X180776808Y-120207073D01*
X180712598Y-120273191D01*
X180648457Y-120346599D01*
X180601163Y-120408353D01*
X180575635Y-120451666D01*
X180572829Y-120466045D01*
X180584152Y-120488079D01*
X180614544Y-120543038D01*
X180662180Y-120627752D01*
X180725235Y-120739048D01*
X180801885Y-120873756D01*
X180890305Y-121028703D01*
X180988670Y-121200719D01*
X181095156Y-121386632D01*
X181207937Y-121583270D01*
X181325189Y-121787463D01*
X181445087Y-121996039D01*
X181565807Y-122205825D01*
X181685523Y-122413652D01*
X181802411Y-122616347D01*
X181914646Y-122810740D01*
X182020404Y-122993658D01*
X182117860Y-123161930D01*
X182205188Y-123312385D01*
X182280565Y-123441851D01*
X182342165Y-123547157D01*
X182388164Y-123625132D01*
X182416737Y-123672604D01*
X182425704Y-123686363D01*
X182427476Y-123667831D01*
X182429199Y-123609533D01*
X182430864Y-123513409D01*
X182432463Y-123381399D01*
X182433987Y-123215446D01*
X182435429Y-123017489D01*
X182436780Y-122789470D01*
X182438032Y-122533329D01*
X182439176Y-122251008D01*
X182440204Y-121944447D01*
X182441108Y-121615587D01*
X182441879Y-121266369D01*
X182442509Y-120898735D01*
X182442990Y-120514624D01*
X182443314Y-120115977D01*
X182443472Y-119704737D01*
X182443487Y-119532180D01*
X182443487Y-115358186D01*
X181927354Y-115655868D01*
X181818065Y-115718886D01*
X181677340Y-115800006D01*
X181509886Y-115896516D01*
X181320412Y-116005703D01*
X181113623Y-116124855D01*
X180894228Y-116251260D01*
X180666933Y-116382205D01*
X180436446Y-116514979D01*
X180207473Y-116646869D01*
X180149563Y-116680224D01*
X179938632Y-116801847D01*
X179737935Y-116917828D01*
X179550459Y-117026425D01*
X179379192Y-117125894D01*
X179227123Y-117214492D01*
X179097238Y-117290478D01*
X178992525Y-117352107D01*
X178915973Y-117397637D01*
X178870569Y-117425325D01*
X178859009Y-117433072D01*
X178849785Y-117449372D01*
X178852436Y-117476349D01*
D17*
X147642742Y-41951161D02*
X147642742Y-39951161D01*
X147142742Y-41379733D01*
X146642742Y-39951161D01*
X146642742Y-41951161D01*
X145928457Y-41951161D02*
X145928457Y-39951161D01*
X145928457Y-40903542D02*
X145071314Y-40903542D01*
X145071314Y-41951161D02*
X145071314Y-39951161D01*
X144499885Y-39951161D02*
X144142742Y-41951161D01*
X143857028Y-40522590D01*
X143571314Y-41951161D01*
X143214171Y-39951161D01*
X142785600Y-39951161D02*
X141785600Y-39951161D01*
X142428457Y-41951161D01*
X141285600Y-40141638D02*
X141214171Y-40046400D01*
X141071314Y-39951161D01*
X140714171Y-39951161D01*
X140571314Y-40046400D01*
X140499885Y-40141638D01*
X140428457Y-40332114D01*
X140428457Y-40522590D01*
X140499885Y-40808304D01*
X141357028Y-41951161D01*
X140428457Y-41951161D01*
X139499885Y-39951161D02*
X139357028Y-39951161D01*
X139214171Y-40046400D01*
X139142742Y-40141638D01*
X139071314Y-40332114D01*
X138999885Y-40713066D01*
X138999885Y-41189257D01*
X139071314Y-41570209D01*
X139142742Y-41760685D01*
X139214171Y-41855923D01*
X139357028Y-41951161D01*
X139499885Y-41951161D01*
X139642742Y-41855923D01*
X139714171Y-41760685D01*
X139785600Y-41570209D01*
X139857028Y-41189257D01*
X139857028Y-40713066D01*
X139785600Y-40332114D01*
X139714171Y-40141638D01*
X139642742Y-40046400D01*
X139499885Y-39951161D01*
X138428457Y-41379733D02*
X137714171Y-41379733D01*
X138571314Y-41951161D02*
X138071314Y-39951161D01*
X137571314Y-41951161D01*
X135071314Y-41951161D02*
X135571314Y-40998780D01*
X135928457Y-41951161D02*
X135928457Y-39951161D01*
X135357028Y-39951161D01*
X135214171Y-40046400D01*
X135142742Y-40141638D01*
X135071314Y-40332114D01*
X135071314Y-40617828D01*
X135142742Y-40808304D01*
X135214171Y-40903542D01*
X135357028Y-40998780D01*
X135928457Y-40998780D01*
X133928457Y-40903542D02*
X134428457Y-40903542D01*
X134428457Y-41951161D02*
X134428457Y-39951161D01*
X133714171Y-39951161D01*
X131999885Y-41951161D02*
X131999885Y-39951161D01*
X131428457Y-39951161D01*
X131285600Y-40046400D01*
X131214171Y-40141638D01*
X131142742Y-40332114D01*
X131142742Y-40617828D01*
X131214171Y-40808304D01*
X131285600Y-40903542D01*
X131428457Y-40998780D01*
X131999885Y-40998780D01*
X130571314Y-41379733D02*
X129857028Y-41379733D01*
X130714171Y-41951161D02*
X130214171Y-39951161D01*
X129714171Y-41951161D01*
%LPC*%
D18*
X94996000Y-98552000D03*
X97536000Y-118872000D03*
X92456000Y-118872000D03*
X97536000Y-103552000D03*
X92456000Y-103552000D03*
X94996000Y-121412000D03*
X94996000Y-116332000D03*
X94996000Y-101012000D03*
X94996000Y-106092000D03*
D19*
X183515000Y-97726500D03*
D20*
X183515000Y-95186500D03*
D19*
X171602400Y-79375000D03*
X171602400Y-81915000D03*
X174142400Y-79375000D03*
X174142400Y-81915000D03*
X176682400Y-79375000D03*
X176682400Y-81915000D03*
X179222400Y-79375000D03*
X179222400Y-81915000D03*
X181762400Y-79375000D03*
D20*
X181762400Y-81915000D03*
D21*
X125599200Y-126898400D03*
D22*
X120599200Y-126898400D03*
D21*
X110664000Y-127050800D03*
D22*
X105664000Y-127050800D03*
D19*
X133756400Y-118973600D03*
X133756400Y-121513600D03*
X133756400Y-124053600D03*
D20*
X133756400Y-126593600D03*
D23*
X158610000Y-129415000D03*
D24*
X158610000Y-129415000D03*
D25*
X150083400Y-133888000D03*
X143083400Y-133888000D03*
D26*
X149083400Y-131188000D03*
X144083400Y-131188000D03*
D27*
X97536000Y-56642000D03*
X92456000Y-56642000D03*
X92456000Y-51562000D03*
X97536000Y-51562000D03*
D28*
X94996000Y-54102000D03*
D23*
X149864000Y-108540000D03*
D24*
X149864000Y-108540000D03*
D23*
X109864000Y-108540000D03*
D24*
X109864000Y-108540000D03*
D23*
X149864000Y-62540000D03*
D24*
X149864000Y-62540000D03*
D23*
X109864000Y-62540000D03*
D24*
X109864000Y-62540000D03*
D23*
X181864000Y-129540000D03*
D24*
X181864000Y-129540000D03*
D23*
X95864000Y-129540000D03*
D24*
X95864000Y-129540000D03*
D23*
X181864000Y-43540000D03*
D24*
X181864000Y-43540000D03*
D23*
X95864000Y-43540000D03*
D24*
X95864000Y-43540000D03*
M02*
