%FSLAX45Y45*%
G04 Gerber Fmt 4.5, Leading zero omitted, Abs format (unit mm)*
G04 Created by KiCad (PCBNEW 5.99.0+really5.1.10+dfsg1-1) date 2022-04-29 14:12:40*
%MOMM*%
%LPD*%
G01*
G04 APERTURE LIST*
%TA.AperFunction,Profile*%
%ADD10C,0.200000*%
%TD*%
%ADD11C,0.200000*%
%ADD12C,0.300000*%
G04 APERTURE END LIST*
D10*
X18161000Y-13589000D02*
X9525000Y-13589000D01*
X18796000Y-4318000D02*
X18796000Y-12954000D01*
X9525000Y-3683000D02*
X18161000Y-3683000D01*
X8890000Y-12954000D02*
X8890000Y-4318000D01*
X9525000Y-13589000D02*
G75*
G02*
X8890000Y-12954000I0J635000D01*
G01*
X18796000Y-12954000D02*
G75*
G02*
X18161000Y-13589000I-635000J0D01*
G01*
X18161000Y-3683000D02*
G75*
G02*
X18796000Y-4318000I0J-635000D01*
G01*
X8890000Y-4318000D02*
G75*
G02*
X9525000Y-3683000I635000J0D01*
G01*
D11*
X16610900Y-7187500D02*
X16630900Y-7207500D01*
X16630900Y-7187500D02*
X16610900Y-7207500D01*
X16610900Y-7397500D02*
X16630900Y-7417500D01*
X16630900Y-7397500D02*
X16610900Y-7417500D01*
X16820900Y-7187500D02*
X16840900Y-7207500D01*
X16840900Y-7187500D02*
X16820900Y-7207500D01*
X16820900Y-7397500D02*
X16840900Y-7417500D01*
X16840900Y-7397500D02*
X16820900Y-7417500D01*
X9037000Y-4338320D02*
G75*
G03*
X9037000Y-4338320I-20000J0D01*
G01*
X9037000Y-4673600D02*
G75*
G03*
X9037000Y-4673600I-20000J0D01*
G01*
X9037000Y-4927600D02*
G75*
G03*
X9037000Y-4927600I-20000J0D01*
G01*
X9037000Y-5181600D02*
G75*
G03*
X9037000Y-5181600I-20000J0D01*
G01*
X9037000Y-5435600D02*
G75*
G03*
X9037000Y-5435600I-20000J0D01*
G01*
X9037000Y-5689600D02*
G75*
G03*
X9037000Y-5689600I-20000J0D01*
G01*
X9037000Y-5943600D02*
G75*
G03*
X9037000Y-5943600I-20000J0D01*
G01*
X9037000Y-6197600D02*
G75*
G03*
X9037000Y-6197600I-20000J0D01*
G01*
X9037000Y-6451600D02*
G75*
G03*
X9037000Y-6451600I-20000J0D01*
G01*
X9037000Y-6705600D02*
G75*
G03*
X9037000Y-6705600I-20000J0D01*
G01*
X9037000Y-6959600D02*
G75*
G03*
X9037000Y-6959600I-20000J0D01*
G01*
X9037000Y-7213600D02*
G75*
G03*
X9037000Y-7213600I-20000J0D01*
G01*
X9037000Y-7467600D02*
G75*
G03*
X9037000Y-7467600I-20000J0D01*
G01*
X9037000Y-7721600D02*
G75*
G03*
X9037000Y-7721600I-20000J0D01*
G01*
X9037000Y-7975600D02*
G75*
G03*
X9037000Y-7975600I-20000J0D01*
G01*
X9037000Y-8229600D02*
G75*
G03*
X9037000Y-8229600I-20000J0D01*
G01*
X9037000Y-8483600D02*
G75*
G03*
X9037000Y-8483600I-20000J0D01*
G01*
X9037000Y-8737600D02*
G75*
G03*
X9037000Y-8737600I-20000J0D01*
G01*
X9037000Y-8991600D02*
G75*
G03*
X9037000Y-8991600I-20000J0D01*
G01*
X9037000Y-9245600D02*
G75*
G03*
X9037000Y-9245600I-20000J0D01*
G01*
X9037000Y-9499600D02*
G75*
G03*
X9037000Y-9499600I-20000J0D01*
G01*
X9037000Y-9753600D02*
G75*
G03*
X9037000Y-9753600I-20000J0D01*
G01*
X9037000Y-10001250D02*
G75*
G03*
X9037000Y-10001250I-20000J0D01*
G01*
X9037000Y-10261600D02*
G75*
G03*
X9037000Y-10261600I-20000J0D01*
G01*
X9037000Y-10515600D02*
G75*
G03*
X9037000Y-10515600I-20000J0D01*
G01*
X9037000Y-10769600D02*
G75*
G03*
X9037000Y-10769600I-20000J0D01*
G01*
X9037000Y-11023600D02*
G75*
G03*
X9037000Y-11023600I-20000J0D01*
G01*
X9037000Y-11277600D02*
G75*
G03*
X9037000Y-11277600I-20000J0D01*
G01*
X9037000Y-11531600D02*
G75*
G03*
X9037000Y-11531600I-20000J0D01*
G01*
X9037000Y-11785600D02*
G75*
G03*
X9037000Y-11785600I-20000J0D01*
G01*
X9037000Y-12039600D02*
G75*
G03*
X9037000Y-12039600I-20000J0D01*
G01*
X9037000Y-12293600D02*
G75*
G03*
X9037000Y-12293600I-20000J0D01*
G01*
X9037000Y-12547600D02*
G75*
G03*
X9037000Y-12547600I-20000J0D01*
G01*
X9037000Y-12776200D02*
G75*
G03*
X9037000Y-12776200I-20000J0D01*
G01*
X9042080Y-4511040D02*
G75*
G03*
X9042080Y-4511040I-20000J0D01*
G01*
X9057320Y-4170680D02*
G75*
G03*
X9057320Y-4170680I-20000J0D01*
G01*
X9123360Y-4033520D02*
G75*
G03*
X9123360Y-4033520I-20000J0D01*
G01*
X9164000Y-8610600D02*
G75*
G03*
X9164000Y-8610600I-20000J0D01*
G01*
X9164000Y-8864600D02*
G75*
G03*
X9164000Y-8864600I-20000J0D01*
G01*
X9164000Y-9123680D02*
G75*
G03*
X9164000Y-9123680I-20000J0D01*
G01*
X9169080Y-7599680D02*
G75*
G03*
X9169080Y-7599680I-20000J0D01*
G01*
X9169080Y-7853680D02*
G75*
G03*
X9169080Y-7853680I-20000J0D01*
G01*
X9169080Y-8107680D02*
G75*
G03*
X9169080Y-8107680I-20000J0D01*
G01*
X9174160Y-7345680D02*
G75*
G03*
X9174160Y-7345680I-20000J0D01*
G01*
X9199560Y-6065520D02*
G75*
G03*
X9199560Y-6065520I-20000J0D01*
G01*
X9219880Y-3926840D02*
G75*
G03*
X9219880Y-3926840I-20000J0D01*
G01*
X9291000Y-7721600D02*
G75*
G03*
X9291000Y-7721600I-20000J0D01*
G01*
X9351960Y-3845560D02*
G75*
G03*
X9351960Y-3845560I-20000J0D01*
G01*
X9392600Y-7848600D02*
G75*
G03*
X9392600Y-7848600I-20000J0D01*
G01*
X9418000Y-4775200D02*
G75*
G03*
X9418000Y-4775200I-20000J0D01*
G01*
X9443400Y-4908550D02*
G75*
G03*
X9443400Y-4908550I-20000J0D01*
G01*
X9443400Y-5899150D02*
G75*
G03*
X9443400Y-5899150I-20000J0D01*
G01*
X9509440Y-3810000D02*
G75*
G03*
X9509440Y-3810000I-20000J0D01*
G01*
X9595800Y-7848600D02*
G75*
G03*
X9595800Y-7848600I-20000J0D01*
G01*
X9651680Y-3810000D02*
G75*
G03*
X9651680Y-3810000I-20000J0D01*
G01*
X9691050Y-5899150D02*
G75*
G03*
X9691050Y-5899150I-20000J0D01*
G01*
X9748200Y-7213600D02*
G75*
G03*
X9748200Y-7213600I-20000J0D01*
G01*
X9783760Y-3810000D02*
G75*
G03*
X9783760Y-3810000I-20000J0D01*
G01*
X9811700Y-12344400D02*
G75*
G03*
X9811700Y-12344400I-20000J0D01*
G01*
X9849800Y-9664700D02*
G75*
G03*
X9849800Y-9664700I-20000J0D01*
G01*
X9880280Y-3937000D02*
G75*
G03*
X9880280Y-3937000I-20000J0D01*
G01*
X9886884Y-10996168D02*
G75*
G03*
X9886884Y-10996168I-20000J0D01*
G01*
X9894250Y-9029700D02*
G75*
G03*
X9894250Y-9029700I-20000J0D01*
G01*
X9915840Y-3810000D02*
G75*
G03*
X9915840Y-3810000I-20000J0D01*
G01*
X9926000Y-6527800D02*
G75*
G03*
X9926000Y-6527800I-20000J0D01*
G01*
X9951400Y-5899150D02*
G75*
G03*
X9951400Y-5899150I-20000J0D01*
G01*
X9956480Y-4704080D02*
G75*
G03*
X9956480Y-4704080I-20000J0D01*
G01*
X9976800Y-9245600D02*
G75*
G03*
X9976800Y-9245600I-20000J0D01*
G01*
X9976800Y-9499600D02*
G75*
G03*
X9976800Y-9499600I-20000J0D01*
G01*
X9994580Y-7148830D02*
G75*
G03*
X9994580Y-7148830I-20000J0D01*
G01*
X10002200Y-13411200D02*
G75*
G03*
X10002200Y-13411200I-20000J0D01*
G01*
X10008550Y-4965700D02*
G75*
G03*
X10008550Y-4965700I-20000J0D01*
G01*
X10021250Y-12217400D02*
G75*
G03*
X10021250Y-12217400I-20000J0D01*
G01*
X10030140Y-3987800D02*
G75*
G03*
X10030140Y-3987800I-20000J0D01*
G01*
X10030140Y-4089400D02*
G75*
G03*
X10030140Y-4089400I-20000J0D01*
G01*
X10032680Y-3881120D02*
G75*
G03*
X10032680Y-3881120I-20000J0D01*
G01*
X10032680Y-4196080D02*
G75*
G03*
X10032680Y-4196080I-20000J0D01*
G01*
X10032680Y-4300220D02*
G75*
G03*
X10032680Y-4300220I-20000J0D01*
G01*
X10033950Y-9004300D02*
G75*
G03*
X10033950Y-9004300I-20000J0D01*
G01*
X10047920Y-4404360D02*
G75*
G03*
X10047920Y-4404360I-20000J0D01*
G01*
X10047920Y-4572000D02*
G75*
G03*
X10047920Y-4572000I-20000J0D01*
G01*
X10053254Y-5776976D02*
G75*
G03*
X10053254Y-5776976I-20000J0D01*
G01*
X10070780Y-9664700D02*
G75*
G03*
X10070780Y-9664700I-20000J0D01*
G01*
X10073320Y-5969000D02*
G75*
G03*
X10073320Y-5969000I-20000J0D01*
G01*
X10078400Y-9347200D02*
G75*
G03*
X10078400Y-9347200I-20000J0D01*
G01*
X10088560Y-4729480D02*
G75*
G03*
X10088560Y-4729480I-20000J0D01*
G01*
X10091100Y-3787140D02*
G75*
G03*
X10091100Y-3787140I-20000J0D01*
G01*
X10120056Y-7146544D02*
G75*
G03*
X10120056Y-7146544I-20000J0D01*
G01*
X10141900Y-4434840D02*
G75*
G03*
X10141900Y-4434840I-20000J0D01*
G01*
X10141900Y-4908550D02*
G75*
G03*
X10141900Y-4908550I-20000J0D01*
G01*
X10154600Y-9169400D02*
G75*
G03*
X10154600Y-9169400I-20000J0D01*
G01*
X10180000Y-5867400D02*
G75*
G03*
X10180000Y-5867400I-20000J0D01*
G01*
X10190160Y-3782060D02*
G75*
G03*
X10190160Y-3782060I-20000J0D01*
G01*
X10192700Y-12357100D02*
G75*
G03*
X10192700Y-12357100I-20000J0D01*
G01*
X10205400Y-11303000D02*
G75*
G03*
X10205400Y-11303000I-20000J0D01*
G01*
X10230800Y-8877300D02*
G75*
G03*
X10230800Y-8877300I-20000J0D01*
G01*
X10230800Y-8991600D02*
G75*
G03*
X10230800Y-8991600I-20000J0D01*
G01*
X10246040Y-4434840D02*
G75*
G03*
X10246040Y-4434840I-20000J0D01*
G01*
X10246040Y-7146290D02*
G75*
G03*
X10246040Y-7146290I-20000J0D01*
G01*
X10247564Y-7937500D02*
G75*
G03*
X10247564Y-7937500I-20000J0D01*
G01*
X10256200Y-13411200D02*
G75*
G03*
X10256200Y-13411200I-20000J0D01*
G01*
X10262550Y-4902200D02*
G75*
G03*
X10262550Y-4902200I-20000J0D01*
G01*
X10266360Y-5969000D02*
G75*
G03*
X10266360Y-5969000I-20000J0D01*
G01*
X10268900Y-6286500D02*
G75*
G03*
X10268900Y-6286500I-20000J0D01*
G01*
X10268900Y-6781800D02*
G75*
G03*
X10268900Y-6781800I-20000J0D01*
G01*
X10289220Y-3779520D02*
G75*
G03*
X10289220Y-3779520I-20000J0D01*
G01*
X10300904Y-10052050D02*
G75*
G03*
X10300904Y-10052050I-20000J0D01*
G01*
X10350180Y-4434840D02*
G75*
G03*
X10350180Y-4434840I-20000J0D01*
G01*
X10357800Y-5867400D02*
G75*
G03*
X10357800Y-5867400I-20000J0D01*
G01*
X10383200Y-4921250D02*
G75*
G03*
X10383200Y-4921250I-20000J0D01*
G01*
X10385740Y-3782060D02*
G75*
G03*
X10385740Y-3782060I-20000J0D01*
G01*
X10392344Y-7154672D02*
G75*
G03*
X10392344Y-7154672I-20000J0D01*
G01*
X10393360Y-11303000D02*
G75*
G03*
X10393360Y-11303000I-20000J0D01*
G01*
X10418760Y-8356600D02*
G75*
G03*
X10418760Y-8356600I-20000J0D01*
G01*
X10439080Y-5969000D02*
G75*
G03*
X10439080Y-5969000I-20000J0D01*
G01*
X10456860Y-4417060D02*
G75*
G03*
X10456860Y-4417060I-20000J0D01*
G01*
X10467020Y-3810000D02*
G75*
G03*
X10467020Y-3810000I-20000J0D01*
G01*
X10491150Y-8191500D02*
G75*
G03*
X10491150Y-8191500I-20000J0D01*
G01*
X10494960Y-7237730D02*
G75*
G03*
X10494960Y-7237730I-20000J0D01*
G01*
X10497500Y-3891280D02*
G75*
G03*
X10497500Y-3891280I-20000J0D01*
G01*
X10500040Y-4003040D02*
G75*
G03*
X10500040Y-4003040I-20000J0D01*
G01*
X10500040Y-4104640D02*
G75*
G03*
X10500040Y-4104640I-20000J0D01*
G01*
X10502580Y-4211320D02*
G75*
G03*
X10502580Y-4211320I-20000J0D01*
G01*
X10502580Y-4315460D02*
G75*
G03*
X10502580Y-4315460I-20000J0D01*
G01*
X10510200Y-6248400D02*
G75*
G03*
X10510200Y-6248400I-20000J0D01*
G01*
X10520360Y-4495800D02*
G75*
G03*
X10520360Y-4495800I-20000J0D01*
G01*
X10535600Y-5867400D02*
G75*
G03*
X10535600Y-5867400I-20000J0D01*
G01*
X10535600Y-6106160D02*
G75*
G03*
X10535600Y-6106160I-20000J0D01*
G01*
X10541950Y-4978400D02*
G75*
G03*
X10541950Y-4978400I-20000J0D01*
G01*
X10586400Y-4772914D02*
G75*
G03*
X10586400Y-4772914I-20000J0D01*
G01*
X10596560Y-3784600D02*
G75*
G03*
X10596560Y-3784600I-20000J0D01*
G01*
X10596560Y-3911600D02*
G75*
G03*
X10596560Y-3911600I-20000J0D01*
G01*
X10601640Y-5974080D02*
G75*
G03*
X10601640Y-5974080I-20000J0D01*
G01*
X10616880Y-6563360D02*
G75*
G03*
X10616880Y-6563360I-20000J0D01*
G01*
X10637200Y-8064500D02*
G75*
G03*
X10637200Y-8064500I-20000J0D01*
G01*
X10643550Y-8521700D02*
G75*
G03*
X10643550Y-8521700I-20000J0D01*
G01*
X10656250Y-4978400D02*
G75*
G03*
X10656250Y-4978400I-20000J0D01*
G01*
X10662600Y-5181600D02*
G75*
G03*
X10662600Y-5181600I-20000J0D01*
G01*
X10680380Y-8218932D02*
G75*
G03*
X10680380Y-8218932I-20000J0D01*
G01*
X10708320Y-3784600D02*
G75*
G03*
X10708320Y-3784600I-20000J0D01*
G01*
X10713400Y-5867400D02*
G75*
G03*
X10713400Y-5867400I-20000J0D01*
G01*
X10713400Y-6659880D02*
G75*
G03*
X10713400Y-6659880I-20000J0D01*
G01*
X10738800Y-8775700D02*
G75*
G03*
X10738800Y-8775700I-20000J0D01*
G01*
X10748452Y-7262368D02*
G75*
G03*
X10748452Y-7262368I-20000J0D01*
G01*
X10775376Y-6996176D02*
G75*
G03*
X10775376Y-6996176I-20000J0D01*
G01*
X10775376Y-7174484D02*
G75*
G03*
X10775376Y-7174484I-20000J0D01*
G01*
X10776392Y-7081520D02*
G75*
G03*
X10776392Y-7081520I-20000J0D01*
G01*
X10783250Y-4972050D02*
G75*
G03*
X10783250Y-4972050I-20000J0D01*
G01*
X10796204Y-4597400D02*
G75*
G03*
X10796204Y-4597400I-20000J0D01*
G01*
X10827700Y-8318500D02*
G75*
G03*
X10827700Y-8318500I-20000J0D01*
G01*
X10834558Y-9395714D02*
G75*
G03*
X10834558Y-9395714I-20000J0D01*
G01*
X10835320Y-3784600D02*
G75*
G03*
X10835320Y-3784600I-20000J0D01*
G01*
X10835828Y-9190990D02*
G75*
G03*
X10835828Y-9190990I-20000J0D01*
G01*
X10835828Y-9290050D02*
G75*
G03*
X10835828Y-9290050I-20000J0D01*
G01*
X10838622Y-7272274D02*
G75*
G03*
X10838622Y-7272274I-20000J0D01*
G01*
X10853100Y-11404600D02*
G75*
G03*
X10853100Y-11404600I-20000J0D01*
G01*
X10865038Y-6993382D02*
G75*
G03*
X10865038Y-6993382I-20000J0D01*
G01*
X10877484Y-10414000D02*
G75*
G03*
X10877484Y-10414000I-20000J0D01*
G01*
X10878500Y-12547600D02*
G75*
G03*
X10878500Y-12547600I-20000J0D01*
G01*
X10878500Y-12852400D02*
G75*
G03*
X10878500Y-12852400I-20000J0D01*
G01*
X10891200Y-5791200D02*
G75*
G03*
X10891200Y-5791200I-20000J0D01*
G01*
X10909996Y-9139428D02*
G75*
G03*
X10909996Y-9139428I-20000J0D01*
G01*
X10919902Y-9430766D02*
G75*
G03*
X10919902Y-9430766I-20000J0D01*
G01*
X10933110Y-7270496D02*
G75*
G03*
X10933110Y-7270496I-20000J0D01*
G01*
X10953684Y-6994652D02*
G75*
G03*
X10953684Y-6994652I-20000J0D01*
G01*
X10983910Y-7461250D02*
G75*
G03*
X10983910Y-7461250I-20000J0D01*
G01*
X10985180Y-7569200D02*
G75*
G03*
X10985180Y-7569200I-20000J0D01*
G01*
X10985180Y-7669530D02*
G75*
G03*
X10985180Y-7669530I-20000J0D01*
G01*
X10985180Y-7778750D02*
G75*
G03*
X10985180Y-7778750I-20000J0D01*
G01*
X11002452Y-9139428D02*
G75*
G03*
X11002452Y-9139428I-20000J0D01*
G01*
X11014390Y-9431782D02*
G75*
G03*
X11014390Y-9431782I-20000J0D01*
G01*
X11018200Y-11544300D02*
G75*
G03*
X11018200Y-11544300I-20000J0D01*
G01*
X11026074Y-7104888D02*
G75*
G03*
X11026074Y-7104888I-20000J0D01*
G01*
X11026836Y-7204456D02*
G75*
G03*
X11026836Y-7204456I-20000J0D01*
G01*
X11030646Y-7020306D02*
G75*
G03*
X11030646Y-7020306I-20000J0D01*
G01*
X11052490Y-9574530D02*
G75*
G03*
X11052490Y-9574530I-20000J0D01*
G01*
X11053760Y-9682480D02*
G75*
G03*
X11053760Y-9682480I-20000J0D01*
G01*
X11053760Y-9782810D02*
G75*
G03*
X11053760Y-9782810I-20000J0D01*
G01*
X11053760Y-9892030D02*
G75*
G03*
X11053760Y-9892030I-20000J0D01*
G01*
X11086780Y-7461250D02*
G75*
G03*
X11086780Y-7461250I-20000J0D01*
G01*
X11088050Y-7567930D02*
G75*
G03*
X11088050Y-7567930I-20000J0D01*
G01*
X11093638Y-9138412D02*
G75*
G03*
X11093638Y-9138412I-20000J0D01*
G01*
X11094400Y-5791200D02*
G75*
G03*
X11094400Y-5791200I-20000J0D01*
G01*
X11094400Y-8319516D02*
G75*
G03*
X11094400Y-8319516I-20000J0D01*
G01*
X11102528Y-10416540D02*
G75*
G03*
X11102528Y-10416540I-20000J0D01*
G01*
X11107608Y-9431782D02*
G75*
G03*
X11107608Y-9431782I-20000J0D01*
G01*
X11155360Y-9574530D02*
G75*
G03*
X11155360Y-9574530I-20000J0D01*
G01*
X11156630Y-9681210D02*
G75*
G03*
X11156630Y-9681210I-20000J0D01*
G01*
X11179490Y-9172194D02*
G75*
G03*
X11179490Y-9172194I-20000J0D01*
G01*
X11181522Y-9362186D02*
G75*
G03*
X11181522Y-9362186I-20000J0D01*
G01*
X11182792Y-9271000D02*
G75*
G03*
X11182792Y-9271000I-20000J0D01*
G01*
X11272200Y-5829300D02*
G75*
G03*
X11272200Y-5829300I-20000J0D01*
G01*
X11272200Y-12852400D02*
G75*
G03*
X11272200Y-12852400I-20000J0D01*
G01*
X11272200Y-13411200D02*
G75*
G03*
X11272200Y-13411200I-20000J0D01*
G01*
X11279566Y-8252714D02*
G75*
G03*
X11279566Y-8252714I-20000J0D01*
G01*
X11284900Y-12534900D02*
G75*
G03*
X11284900Y-12534900I-20000J0D01*
G01*
X11297600Y-3956050D02*
G75*
G03*
X11297600Y-3956050I-20000J0D01*
G01*
X11307760Y-6649720D02*
G75*
G03*
X11307760Y-6649720I-20000J0D01*
G01*
X11310300Y-3778250D02*
G75*
G03*
X11310300Y-3778250I-20000J0D01*
G01*
X11323000Y-4394200D02*
G75*
G03*
X11323000Y-4394200I-20000J0D01*
G01*
X11323000Y-4521200D02*
G75*
G03*
X11323000Y-4521200I-20000J0D01*
G01*
X11328842Y-10373360D02*
G75*
G03*
X11328842Y-10373360I-20000J0D01*
G01*
X11361100Y-3873500D02*
G75*
G03*
X11361100Y-3873500I-20000J0D01*
G01*
X11361100Y-4051300D02*
G75*
G03*
X11361100Y-4051300I-20000J0D01*
G01*
X11405550Y-8839200D02*
G75*
G03*
X11405550Y-8839200I-20000J0D01*
G01*
X11418250Y-3778250D02*
G75*
G03*
X11418250Y-3778250I-20000J0D01*
G01*
X11418250Y-3956050D02*
G75*
G03*
X11418250Y-3956050I-20000J0D01*
G01*
X11436792Y-7569708D02*
G75*
G03*
X11436792Y-7569708I-20000J0D01*
G01*
X11450000Y-4521200D02*
G75*
G03*
X11450000Y-4521200I-20000J0D01*
G01*
X11500800Y-4953000D02*
G75*
G03*
X11500800Y-4953000I-20000J0D01*
G01*
X11500800Y-5054600D02*
G75*
G03*
X11500800Y-5054600I-20000J0D01*
G01*
X11531280Y-3789680D02*
G75*
G03*
X11531280Y-3789680I-20000J0D01*
G01*
X11531280Y-3891280D02*
G75*
G03*
X11531280Y-3891280I-20000J0D01*
G01*
X11531280Y-3992880D02*
G75*
G03*
X11531280Y-3992880I-20000J0D01*
G01*
X11532550Y-7372350D02*
G75*
G03*
X11532550Y-7372350I-20000J0D01*
G01*
X11536360Y-9585960D02*
G75*
G03*
X11536360Y-9585960I-20000J0D01*
G01*
X11577000Y-8204200D02*
G75*
G03*
X11577000Y-8204200I-20000J0D01*
G01*
X11622720Y-11978640D02*
G75*
G03*
X11622720Y-11978640I-20000J0D01*
G01*
X11627800Y-4521200D02*
G75*
G03*
X11627800Y-4521200I-20000J0D01*
G01*
X11653200Y-5829300D02*
G75*
G03*
X11653200Y-5829300I-20000J0D01*
G01*
X11658280Y-3789680D02*
G75*
G03*
X11658280Y-3789680I-20000J0D01*
G01*
X11658280Y-3891280D02*
G75*
G03*
X11658280Y-3891280I-20000J0D01*
G01*
X11658280Y-3992880D02*
G75*
G03*
X11658280Y-3992880I-20000J0D01*
G01*
X11678600Y-4089400D02*
G75*
G03*
X11678600Y-4089400I-20000J0D01*
G01*
X11678600Y-7493000D02*
G75*
G03*
X11678600Y-7493000I-20000J0D01*
G01*
X11704000Y-8166100D02*
G75*
G03*
X11704000Y-8166100I-20000J0D01*
G01*
X11729400Y-11404600D02*
G75*
G03*
X11729400Y-11404600I-20000J0D01*
G01*
X11767500Y-7308850D02*
G75*
G03*
X11767500Y-7308850I-20000J0D01*
G01*
X11780200Y-4953000D02*
G75*
G03*
X11780200Y-4953000I-20000J0D01*
G01*
X11780200Y-5054600D02*
G75*
G03*
X11780200Y-5054600I-20000J0D01*
G01*
X11813220Y-6097270D02*
G75*
G03*
X11813220Y-6097270I-20000J0D01*
G01*
X11813220Y-6203950D02*
G75*
G03*
X11813220Y-6203950I-20000J0D01*
G01*
X11813220Y-6305550D02*
G75*
G03*
X11813220Y-6305550I-20000J0D01*
G01*
X11864528Y-7387844D02*
G75*
G03*
X11864528Y-7387844I-20000J0D01*
G01*
X11865036Y-7233920D02*
G75*
G03*
X11865036Y-7233920I-20000J0D01*
G01*
X11865036Y-8157718D02*
G75*
G03*
X11865036Y-8157718I-20000J0D01*
G01*
X11866052Y-10257536D02*
G75*
G03*
X11866052Y-10257536I-20000J0D01*
G01*
X11867068Y-7645400D02*
G75*
G03*
X11867068Y-7645400I-20000J0D01*
G01*
X11868592Y-7514844D02*
G75*
G03*
X11868592Y-7514844I-20000J0D01*
G01*
X11868592Y-7771384D02*
G75*
G03*
X11868592Y-7771384I-20000J0D01*
G01*
X11868846Y-7901178D02*
G75*
G03*
X11868846Y-7901178I-20000J0D01*
G01*
X11871386Y-8028178D02*
G75*
G03*
X11871386Y-8028178I-20000J0D01*
G01*
X11930060Y-6097270D02*
G75*
G03*
X11930060Y-6097270I-20000J0D01*
G01*
X11930060Y-6203950D02*
G75*
G03*
X11930060Y-6203950I-20000J0D01*
G01*
X11930060Y-6305550D02*
G75*
G03*
X11930060Y-6305550I-20000J0D01*
G01*
X11948348Y-9433560D02*
G75*
G03*
X11948348Y-9433560I-20000J0D01*
G01*
X11954952Y-9569704D02*
G75*
G03*
X11954952Y-9569704I-20000J0D01*
G01*
X11955206Y-9701784D02*
G75*
G03*
X11955206Y-9701784I-20000J0D01*
G01*
X11956730Y-9968992D02*
G75*
G03*
X11956730Y-9968992I-20000J0D01*
G01*
X11958000Y-9840722D02*
G75*
G03*
X11958000Y-9840722I-20000J0D01*
G01*
X11958000Y-10102342D02*
G75*
G03*
X11958000Y-10102342I-20000J0D01*
G01*
X11958000Y-10230612D02*
G75*
G03*
X11958000Y-10230612I-20000J0D01*
G01*
X12050710Y-6097270D02*
G75*
G03*
X12050710Y-6097270I-20000J0D01*
G01*
X12050710Y-6203950D02*
G75*
G03*
X12050710Y-6203950I-20000J0D01*
G01*
X12050710Y-6305550D02*
G75*
G03*
X12050710Y-6305550I-20000J0D01*
G01*
X12085000Y-3810000D02*
G75*
G03*
X12085000Y-3810000I-20000J0D01*
G01*
X12087540Y-3959860D02*
G75*
G03*
X12087540Y-3959860I-20000J0D01*
G01*
X12172630Y-6094730D02*
G75*
G03*
X12172630Y-6094730I-20000J0D01*
G01*
X12172630Y-6201410D02*
G75*
G03*
X12172630Y-6201410I-20000J0D01*
G01*
X12172630Y-6303010D02*
G75*
G03*
X12172630Y-6303010I-20000J0D01*
G01*
X12212000Y-3810000D02*
G75*
G03*
X12212000Y-3810000I-20000J0D01*
G01*
X12278040Y-4251960D02*
G75*
G03*
X12278040Y-4251960I-20000J0D01*
G01*
X12278040Y-4328160D02*
G75*
G03*
X12278040Y-4328160I-20000J0D01*
G01*
X12316140Y-3968750D02*
G75*
G03*
X12316140Y-3968750I-20000J0D01*
G01*
X12339000Y-3810000D02*
G75*
G03*
X12339000Y-3810000I-20000J0D01*
G01*
X12345096Y-5779008D02*
G75*
G03*
X12345096Y-5779008I-20000J0D01*
G01*
X12351700Y-11094720D02*
G75*
G03*
X12351700Y-11094720I-20000J0D01*
G01*
X12351700Y-11219180D02*
G75*
G03*
X12351700Y-11219180I-20000J0D01*
G01*
X12351700Y-11336020D02*
G75*
G03*
X12351700Y-11336020I-20000J0D01*
G01*
X12364400Y-5181600D02*
G75*
G03*
X12364400Y-5181600I-20000J0D01*
G01*
X12371512Y-5390896D02*
G75*
G03*
X12371512Y-5390896I-20000J0D01*
G01*
X12377100Y-12522200D02*
G75*
G03*
X12377100Y-12522200I-20000J0D01*
G01*
X12377100Y-12865100D02*
G75*
G03*
X12377100Y-12865100I-20000J0D01*
G01*
X12389800Y-4622800D02*
G75*
G03*
X12389800Y-4622800I-20000J0D01*
G01*
X12430440Y-11036300D02*
G75*
G03*
X12430440Y-11036300I-20000J0D01*
G01*
X12430440Y-11402060D02*
G75*
G03*
X12430440Y-11402060I-20000J0D01*
G01*
X12466000Y-3810000D02*
G75*
G03*
X12466000Y-3810000I-20000J0D01*
G01*
X12499528Y-5776976D02*
G75*
G03*
X12499528Y-5776976I-20000J0D01*
G01*
X12516800Y-5390896D02*
G75*
G03*
X12516800Y-5390896I-20000J0D01*
G01*
X12516800Y-7239000D02*
G75*
G03*
X12516800Y-7239000I-20000J0D01*
G01*
X12516800Y-7518400D02*
G75*
G03*
X12516800Y-7518400I-20000J0D01*
G01*
X12516800Y-7747000D02*
G75*
G03*
X12516800Y-7747000I-20000J0D01*
G01*
X12526960Y-11036300D02*
G75*
G03*
X12526960Y-11036300I-20000J0D01*
G01*
X12526960Y-11402060D02*
G75*
G03*
X12526960Y-11402060I-20000J0D01*
G01*
X12567600Y-4800600D02*
G75*
G03*
X12567600Y-4800600I-20000J0D01*
G01*
X12567600Y-5867400D02*
G75*
G03*
X12567600Y-5867400I-20000J0D01*
G01*
X12567600Y-7010400D02*
G75*
G03*
X12567600Y-7010400I-20000J0D01*
G01*
X12580300Y-9563100D02*
G75*
G03*
X12580300Y-9563100I-20000J0D01*
G01*
X12580300Y-9829800D02*
G75*
G03*
X12580300Y-9829800I-20000J0D01*
G01*
X12580300Y-10096500D02*
G75*
G03*
X12580300Y-10096500I-20000J0D01*
G01*
X12580300Y-10325100D02*
G75*
G03*
X12580300Y-10325100I-20000J0D01*
G01*
X12593000Y-3810000D02*
G75*
G03*
X12593000Y-3810000I-20000J0D01*
G01*
X12593000Y-5232400D02*
G75*
G03*
X12593000Y-5232400I-20000J0D01*
G01*
X12593000Y-11887200D02*
G75*
G03*
X12593000Y-11887200I-20000J0D01*
G01*
X12608240Y-4251960D02*
G75*
G03*
X12608240Y-4251960I-20000J0D01*
G01*
X12608240Y-4328160D02*
G75*
G03*
X12608240Y-4328160I-20000J0D01*
G01*
X12631100Y-11036300D02*
G75*
G03*
X12631100Y-11036300I-20000J0D01*
G01*
X12631100Y-11402060D02*
G75*
G03*
X12631100Y-11402060I-20000J0D01*
G01*
X12650912Y-5775198D02*
G75*
G03*
X12650912Y-5775198I-20000J0D01*
G01*
X12664120Y-3997960D02*
G75*
G03*
X12664120Y-3997960I-20000J0D01*
G01*
X12665644Y-5392420D02*
G75*
G03*
X12665644Y-5392420I-20000J0D01*
G01*
X12703490Y-4251960D02*
G75*
G03*
X12703490Y-4251960I-20000J0D01*
G01*
X12703490Y-4328160D02*
G75*
G03*
X12703490Y-4328160I-20000J0D01*
G01*
X12720000Y-3810000D02*
G75*
G03*
X12720000Y-3810000I-20000J0D01*
G01*
X12725080Y-11094720D02*
G75*
G03*
X12725080Y-11094720I-20000J0D01*
G01*
X12725080Y-11219180D02*
G75*
G03*
X12725080Y-11219180I-20000J0D01*
G01*
X12725080Y-11336020D02*
G75*
G03*
X12725080Y-11336020I-20000J0D01*
G01*
X12765720Y-10952480D02*
G75*
G03*
X12765720Y-10952480I-20000J0D01*
G01*
X12770800Y-12522200D02*
G75*
G03*
X12770800Y-12522200I-20000J0D01*
G01*
X12783500Y-12852400D02*
G75*
G03*
X12783500Y-12852400I-20000J0D01*
G01*
X12815250Y-5232400D02*
G75*
G03*
X12815250Y-5232400I-20000J0D01*
G01*
X12816774Y-5393182D02*
G75*
G03*
X12816774Y-5393182I-20000J0D01*
G01*
X12819060Y-5770372D02*
G75*
G03*
X12819060Y-5770372I-20000J0D01*
G01*
X12821600Y-4800600D02*
G75*
G03*
X12821600Y-4800600I-20000J0D01*
G01*
X12821600Y-5867400D02*
G75*
G03*
X12821600Y-5867400I-20000J0D01*
G01*
X12847000Y-3810000D02*
G75*
G03*
X12847000Y-3810000I-20000J0D01*
G01*
X12948600Y-10185400D02*
G75*
G03*
X12948600Y-10185400I-20000J0D01*
G01*
X12965618Y-5394706D02*
G75*
G03*
X12965618Y-5394706I-20000J0D01*
G01*
X12974000Y-3810000D02*
G75*
G03*
X12974000Y-3810000I-20000J0D01*
G01*
X12974000Y-7340600D02*
G75*
G03*
X12974000Y-7340600I-20000J0D01*
G01*
X12993304Y-5766308D02*
G75*
G03*
X12993304Y-5766308I-20000J0D01*
G01*
X12994320Y-13009880D02*
G75*
G03*
X12994320Y-13009880I-20000J0D01*
G01*
X13024800Y-9194800D02*
G75*
G03*
X13024800Y-9194800I-20000J0D01*
G01*
X13024800Y-9359900D02*
G75*
G03*
X13024800Y-9359900I-20000J0D01*
G01*
X13050200Y-4800600D02*
G75*
G03*
X13050200Y-4800600I-20000J0D01*
G01*
X13050200Y-5232400D02*
G75*
G03*
X13050200Y-5232400I-20000J0D01*
G01*
X13050200Y-7061200D02*
G75*
G03*
X13050200Y-7061200I-20000J0D01*
G01*
X13050200Y-13411200D02*
G75*
G03*
X13050200Y-13411200I-20000J0D01*
G01*
X13075600Y-6934200D02*
G75*
G03*
X13075600Y-6934200I-20000J0D01*
G01*
X13075600Y-7721600D02*
G75*
G03*
X13075600Y-7721600I-20000J0D01*
G01*
X13075600Y-7975600D02*
G75*
G03*
X13075600Y-7975600I-20000J0D01*
G01*
X13075600Y-8229600D02*
G75*
G03*
X13075600Y-8229600I-20000J0D01*
G01*
X13075600Y-8483600D02*
G75*
G03*
X13075600Y-8483600I-20000J0D01*
G01*
X13080679Y-12862560D02*
G75*
G03*
X13080679Y-12862560I-20000J0D01*
G01*
X13092618Y-5432552D02*
G75*
G03*
X13092618Y-5432552I-20000J0D01*
G01*
X13101000Y-3810000D02*
G75*
G03*
X13101000Y-3810000I-20000J0D01*
G01*
X13101000Y-6559550D02*
G75*
G03*
X13101000Y-6559550I-20000J0D01*
G01*
X13101508Y-5704332D02*
G75*
G03*
X13101508Y-5704332I-20000J0D01*
G01*
X13126400Y-5892800D02*
G75*
G03*
X13126400Y-5892800I-20000J0D01*
G01*
X13131480Y-10739120D02*
G75*
G03*
X13131480Y-10739120I-20000J0D01*
G01*
X13135290Y-5580634D02*
G75*
G03*
X13135290Y-5580634I-20000J0D01*
G01*
X13177200Y-7010400D02*
G75*
G03*
X13177200Y-7010400I-20000J0D01*
G01*
X13177200Y-7137400D02*
G75*
G03*
X13177200Y-7137400I-20000J0D01*
G01*
X13192440Y-13350240D02*
G75*
G03*
X13192440Y-13350240I-20000J0D01*
G01*
X13202600Y-6559550D02*
G75*
G03*
X13202600Y-6559550I-20000J0D01*
G01*
X13210220Y-12397740D02*
G75*
G03*
X13210220Y-12397740I-20000J0D01*
G01*
X13228000Y-3810000D02*
G75*
G03*
X13228000Y-3810000I-20000J0D01*
G01*
X13272450Y-5232400D02*
G75*
G03*
X13272450Y-5232400I-20000J0D01*
G01*
X13278800Y-4800600D02*
G75*
G03*
X13278800Y-4800600I-20000J0D01*
G01*
X13304200Y-5994400D02*
G75*
G03*
X13304200Y-5994400I-20000J0D01*
G01*
X13304200Y-7009130D02*
G75*
G03*
X13304200Y-7009130I-20000J0D01*
G01*
X13304200Y-13411200D02*
G75*
G03*
X13304200Y-13411200I-20000J0D01*
G01*
X13305470Y-6560820D02*
G75*
G03*
X13305470Y-6560820I-20000J0D01*
G01*
X13334680Y-10200640D02*
G75*
G03*
X13334680Y-10200640I-20000J0D01*
G01*
X13355000Y-3810000D02*
G75*
G03*
X13355000Y-3810000I-20000J0D01*
G01*
X13400720Y-6560820D02*
G75*
G03*
X13400720Y-6560820I-20000J0D01*
G01*
X13405800Y-7086600D02*
G75*
G03*
X13405800Y-7086600I-20000J0D01*
G01*
X13482000Y-3810000D02*
G75*
G03*
X13482000Y-3810000I-20000J0D01*
G01*
X13482000Y-8763000D02*
G75*
G03*
X13482000Y-8763000I-20000J0D01*
G01*
X13482000Y-8966200D02*
G75*
G03*
X13482000Y-8966200I-20000J0D01*
G01*
X13501050Y-6559550D02*
G75*
G03*
X13501050Y-6559550I-20000J0D01*
G01*
X13503844Y-7964424D02*
G75*
G03*
X13503844Y-7964424I-20000J0D01*
G01*
X13507400Y-4800600D02*
G75*
G03*
X13507400Y-4800600I-20000J0D01*
G01*
X13507400Y-5232400D02*
G75*
G03*
X13507400Y-5232400I-20000J0D01*
G01*
X13507400Y-5816600D02*
G75*
G03*
X13507400Y-5816600I-20000J0D01*
G01*
X13507400Y-6019800D02*
G75*
G03*
X13507400Y-6019800I-20000J0D01*
G01*
X13509940Y-7728712D02*
G75*
G03*
X13509940Y-7728712I-20000J0D01*
G01*
X13520100Y-9612376D02*
G75*
G03*
X13520100Y-9612376I-20000J0D01*
G01*
X13526450Y-5910072D02*
G75*
G03*
X13526450Y-5910072I-20000J0D01*
G01*
X13539150Y-6724650D02*
G75*
G03*
X13539150Y-6724650I-20000J0D01*
G01*
X13558200Y-13411200D02*
G75*
G03*
X13558200Y-13411200I-20000J0D01*
G01*
X13568360Y-10358120D02*
G75*
G03*
X13568360Y-10358120I-20000J0D01*
G01*
X13573440Y-10053320D02*
G75*
G03*
X13573440Y-10053320I-20000J0D01*
G01*
X13583600Y-6629400D02*
G75*
G03*
X13583600Y-6629400I-20000J0D01*
G01*
X13609000Y-3810000D02*
G75*
G03*
X13609000Y-3810000I-20000J0D01*
G01*
X13621700Y-12098020D02*
G75*
G03*
X13621700Y-12098020I-20000J0D01*
G01*
X13628304Y-8136382D02*
G75*
G03*
X13628304Y-8136382I-20000J0D01*
G01*
X13634400Y-9613900D02*
G75*
G03*
X13634400Y-9613900I-20000J0D01*
G01*
X13664626Y-5752338D02*
G75*
G03*
X13664626Y-5752338I-20000J0D01*
G01*
X13675040Y-10957560D02*
G75*
G03*
X13675040Y-10957560I-20000J0D01*
G01*
X13677580Y-12679680D02*
G75*
G03*
X13677580Y-12679680I-20000J0D01*
G01*
X13690280Y-10566400D02*
G75*
G03*
X13690280Y-10566400I-20000J0D01*
G01*
X13710600Y-4800600D02*
G75*
G03*
X13710600Y-4800600I-20000J0D01*
G01*
X13736000Y-3810000D02*
G75*
G03*
X13736000Y-3810000I-20000J0D01*
G01*
X13742350Y-5232400D02*
G75*
G03*
X13742350Y-5232400I-20000J0D01*
G01*
X13761400Y-9611868D02*
G75*
G03*
X13761400Y-9611868I-20000J0D01*
G01*
X13771560Y-10200640D02*
G75*
G03*
X13771560Y-10200640I-20000J0D01*
G01*
X13804580Y-12542520D02*
G75*
G03*
X13804580Y-12542520I-20000J0D01*
G01*
X13856650Y-3810000D02*
G75*
G03*
X13856650Y-3810000I-20000J0D01*
G01*
X13901100Y-9613900D02*
G75*
G03*
X13901100Y-9613900I-20000J0D01*
G01*
X13903640Y-11120120D02*
G75*
G03*
X13903640Y-11120120I-20000J0D01*
G01*
X13913800Y-4800600D02*
G75*
G03*
X13913800Y-4800600I-20000J0D01*
G01*
X13913800Y-12153900D02*
G75*
G03*
X13913800Y-12153900I-20000J0D01*
G01*
X13926500Y-12306300D02*
G75*
G03*
X13926500Y-12306300I-20000J0D01*
G01*
X13939200Y-10200640D02*
G75*
G03*
X13939200Y-10200640I-20000J0D01*
G01*
X13951900Y-12547600D02*
G75*
G03*
X13951900Y-12547600I-20000J0D01*
G01*
X13964600Y-12052300D02*
G75*
G03*
X13964600Y-12052300I-20000J0D01*
G01*
X13970950Y-5232400D02*
G75*
G03*
X13970950Y-5232400I-20000J0D01*
G01*
X13977300Y-3810000D02*
G75*
G03*
X13977300Y-3810000I-20000J0D01*
G01*
X14035720Y-4099560D02*
G75*
G03*
X14035720Y-4099560I-20000J0D01*
G01*
X14036482Y-9612376D02*
G75*
G03*
X14036482Y-9612376I-20000J0D01*
G01*
X14040800Y-4521200D02*
G75*
G03*
X14040800Y-4521200I-20000J0D01*
G01*
X14066200Y-12814300D02*
G75*
G03*
X14066200Y-12814300I-20000J0D01*
G01*
X14068740Y-11541760D02*
G75*
G03*
X14068740Y-11541760I-20000J0D01*
G01*
X14085250Y-5295900D02*
G75*
G03*
X14085250Y-5295900I-20000J0D01*
G01*
X14086266Y-7890764D02*
G75*
G03*
X14086266Y-7890764I-20000J0D01*
G01*
X14097950Y-3810000D02*
G75*
G03*
X14097950Y-3810000I-20000J0D01*
G01*
X14129700Y-5816600D02*
G75*
G03*
X14129700Y-5816600I-20000J0D01*
G01*
X14129700Y-6019800D02*
G75*
G03*
X14129700Y-6019800I-20000J0D01*
G01*
X14136050Y-4800600D02*
G75*
G03*
X14136050Y-4800600I-20000J0D01*
G01*
X14136558Y-7232650D02*
G75*
G03*
X14136558Y-7232650I-20000J0D01*
G01*
X14144940Y-12057380D02*
G75*
G03*
X14144940Y-12057380I-20000J0D01*
G01*
X14158910Y-9609328D02*
G75*
G03*
X14158910Y-9609328I-20000J0D01*
G01*
X14174150Y-5391150D02*
G75*
G03*
X14174150Y-5391150I-20000J0D01*
G01*
X14180500Y-6667500D02*
G75*
G03*
X14180500Y-6667500I-20000J0D01*
G01*
X14193200Y-13385800D02*
G75*
G03*
X14193200Y-13385800I-20000J0D01*
G01*
X14193201Y-9817100D02*
G75*
G03*
X14193201Y-9817100I-20000J0D01*
G01*
X14195486Y-7890764D02*
G75*
G03*
X14195486Y-7890764I-20000J0D01*
G01*
X14205900Y-12128500D02*
G75*
G03*
X14205900Y-12128500I-20000J0D01*
G01*
X14218600Y-3810000D02*
G75*
G03*
X14218600Y-3810000I-20000J0D01*
G01*
X14218600Y-3937000D02*
G75*
G03*
X14218600Y-3937000I-20000J0D01*
G01*
X14218600Y-5816600D02*
G75*
G03*
X14218600Y-5816600I-20000J0D01*
G01*
X14218600Y-5918200D02*
G75*
G03*
X14218600Y-5918200I-20000J0D01*
G01*
X14218600Y-6019800D02*
G75*
G03*
X14218600Y-6019800I-20000J0D01*
G01*
X14218600Y-6540500D02*
G75*
G03*
X14218600Y-6540500I-20000J0D01*
G01*
X14244000Y-13131800D02*
G75*
G03*
X14244000Y-13131800I-20000J0D01*
G01*
X14277020Y-8370824D02*
G75*
G03*
X14277020Y-8370824I-20000J0D01*
G01*
X14277528Y-8454644D02*
G75*
G03*
X14277528Y-8454644I-20000J0D01*
G01*
X14282100Y-4889500D02*
G75*
G03*
X14282100Y-4889500I-20000J0D01*
G01*
X14289720Y-12814300D02*
G75*
G03*
X14289720Y-12814300I-20000J0D01*
G01*
X14295816Y-7890764D02*
G75*
G03*
X14295816Y-7890764I-20000J0D01*
G01*
X14297086Y-7993634D02*
G75*
G03*
X14297086Y-7993634I-20000J0D01*
G01*
X14307500Y-5816600D02*
G75*
G03*
X14307500Y-5816600I-20000J0D01*
G01*
X14307500Y-5918200D02*
G75*
G03*
X14307500Y-5918200I-20000J0D01*
G01*
X14307500Y-6019800D02*
G75*
G03*
X14307500Y-6019800I-20000J0D01*
G01*
X14307500Y-10706100D02*
G75*
G03*
X14307500Y-10706100I-20000J0D01*
G01*
X14322740Y-9613900D02*
G75*
G03*
X14322740Y-9613900I-20000J0D01*
G01*
X14332900Y-3810000D02*
G75*
G03*
X14332900Y-3810000I-20000J0D01*
G01*
X14332900Y-3937000D02*
G75*
G03*
X14332900Y-3937000I-20000J0D01*
G01*
X14345600Y-4211320D02*
G75*
G03*
X14345600Y-4211320I-20000J0D01*
G01*
X14345600Y-4307840D02*
G75*
G03*
X14345600Y-4307840I-20000J0D01*
G01*
X14345600Y-4399280D02*
G75*
G03*
X14345600Y-4399280I-20000J0D01*
G01*
X14371000Y-10312400D02*
G75*
G03*
X14371000Y-10312400I-20000J0D01*
G01*
X14403766Y-7889494D02*
G75*
G03*
X14403766Y-7889494I-20000J0D01*
G01*
X14403766Y-7992364D02*
G75*
G03*
X14403766Y-7992364I-20000J0D01*
G01*
X14428150Y-4889500D02*
G75*
G03*
X14428150Y-4889500I-20000J0D01*
G01*
X14447200Y-3810000D02*
G75*
G03*
X14447200Y-3810000I-20000J0D01*
G01*
X14447200Y-3937000D02*
G75*
G03*
X14447200Y-3937000I-20000J0D01*
G01*
X14459900Y-6413500D02*
G75*
G03*
X14459900Y-6413500I-20000J0D01*
G01*
X14472600Y-4330700D02*
G75*
G03*
X14472600Y-4330700I-20000J0D01*
G01*
X14510700Y-6070600D02*
G75*
G03*
X14510700Y-6070600I-20000J0D01*
G01*
X14510700Y-6769100D02*
G75*
G03*
X14510700Y-6769100I-20000J0D01*
G01*
X14523400Y-5816600D02*
G75*
G03*
X14523400Y-5816600I-20000J0D01*
G01*
X14523400Y-5943600D02*
G75*
G03*
X14523400Y-5943600I-20000J0D01*
G01*
X14548800Y-12484100D02*
G75*
G03*
X14548800Y-12484100I-20000J0D01*
G01*
X14561500Y-3810000D02*
G75*
G03*
X14561500Y-3810000I-20000J0D01*
G01*
X14561500Y-4025900D02*
G75*
G03*
X14561500Y-4025900I-20000J0D01*
G01*
X14586900Y-12979400D02*
G75*
G03*
X14586900Y-12979400I-20000J0D01*
G01*
X14586900Y-4864100D02*
G75*
G03*
X14586900Y-4864100I-20000J0D01*
G01*
X14595282Y-7712202D02*
G75*
G03*
X14595282Y-7712202I-20000J0D01*
G01*
X14595536Y-7998206D02*
G75*
G03*
X14595536Y-7998206I-20000J0D01*
G01*
X14637700Y-3968750D02*
G75*
G03*
X14637700Y-3968750I-20000J0D01*
G01*
X14637700Y-5816600D02*
G75*
G03*
X14637700Y-5816600I-20000J0D01*
G01*
X14650400Y-3790950D02*
G75*
G03*
X14650400Y-3790950I-20000J0D01*
G01*
X14669450Y-5695950D02*
G75*
G03*
X14669450Y-5695950I-20000J0D01*
G01*
X14675800Y-10058400D02*
G75*
G03*
X14675800Y-10058400I-20000J0D01*
G01*
X14688500Y-7999222D02*
G75*
G03*
X14688500Y-7999222I-20000J0D01*
G01*
X14689008Y-7710170D02*
G75*
G03*
X14689008Y-7710170I-20000J0D01*
G01*
X14694850Y-4870450D02*
G75*
G03*
X14694850Y-4870450I-20000J0D01*
G01*
X14701200Y-3886200D02*
G75*
G03*
X14701200Y-3886200I-20000J0D01*
G01*
X14701200Y-4064000D02*
G75*
G03*
X14701200Y-4064000I-20000J0D01*
G01*
X14713900Y-6680200D02*
G75*
G03*
X14713900Y-6680200I-20000J0D01*
G01*
X14751746Y-7365238D02*
G75*
G03*
X14751746Y-7365238I-20000J0D01*
G01*
X14752000Y-5816600D02*
G75*
G03*
X14752000Y-5816600I-20000J0D01*
G01*
X14752000Y-7112000D02*
G75*
G03*
X14752000Y-7112000I-20000J0D01*
G01*
X14758350Y-3790950D02*
G75*
G03*
X14758350Y-3790950I-20000J0D01*
G01*
X14758350Y-3968750D02*
G75*
G03*
X14758350Y-3968750I-20000J0D01*
G01*
X14777400Y-5003800D02*
G75*
G03*
X14777400Y-5003800I-20000J0D01*
G01*
X14778416Y-8000238D02*
G75*
G03*
X14778416Y-8000238I-20000J0D01*
G01*
X14784766Y-7712202D02*
G75*
G03*
X14784766Y-7712202I-20000J0D01*
G01*
X14790100Y-5695950D02*
G75*
G03*
X14790100Y-5695950I-20000J0D01*
G01*
X14802800Y-12954000D02*
G75*
G03*
X14802800Y-12954000I-20000J0D01*
G01*
X14828200Y-9499600D02*
G75*
G03*
X14828200Y-9499600I-20000J0D01*
G01*
X14853600Y-4902200D02*
G75*
G03*
X14853600Y-4902200I-20000J0D01*
G01*
X14879000Y-5003800D02*
G75*
G03*
X14879000Y-5003800I-20000J0D01*
G01*
X14879000Y-5803900D02*
G75*
G03*
X14879000Y-5803900I-20000J0D01*
G01*
X14909480Y-8387080D02*
G75*
G03*
X14909480Y-8387080I-20000J0D01*
G01*
X14942500Y-13017500D02*
G75*
G03*
X14942500Y-13017500I-20000J0D01*
G01*
X14948850Y-5695950D02*
G75*
G03*
X14948850Y-5695950I-20000J0D01*
G01*
X14952152Y-11344148D02*
G75*
G03*
X14952152Y-11344148I-20000J0D01*
G01*
X14955200Y-4838700D02*
G75*
G03*
X14955200Y-4838700I-20000J0D01*
G01*
X14986950Y-5080000D02*
G75*
G03*
X14986950Y-5080000I-20000J0D01*
G01*
X14993300Y-12763500D02*
G75*
G03*
X14993300Y-12763500I-20000J0D01*
G01*
X15000813Y-9783648D02*
G75*
G03*
X15000813Y-9783648I-20000J0D01*
G01*
X15000920Y-5613400D02*
G75*
G03*
X15000920Y-5613400I-20000J0D01*
G01*
X15012350Y-10191750D02*
G75*
G03*
X15012350Y-10191750I-20000J0D01*
G01*
X15018700Y-5797550D02*
G75*
G03*
X15018700Y-5797550I-20000J0D01*
G01*
X15044099Y-8592821D02*
G75*
G03*
X15044099Y-8592821I-20000J0D01*
G01*
X15063150Y-9207500D02*
G75*
G03*
X15063150Y-9207500I-20000J0D01*
G01*
X15066960Y-5689600D02*
G75*
G03*
X15066960Y-5689600I-20000J0D01*
G01*
X15102520Y-5572760D02*
G75*
G03*
X15102520Y-5572760I-20000J0D01*
G01*
X15107600Y-13106400D02*
G75*
G03*
X15107600Y-13106400I-20000J0D01*
G01*
X15107600Y-13208000D02*
G75*
G03*
X15107600Y-13208000I-20000J0D01*
G01*
X15150780Y-5506720D02*
G75*
G03*
X15150780Y-5506720I-20000J0D01*
G01*
X15158400Y-10045700D02*
G75*
G03*
X15158400Y-10045700I-20000J0D01*
G01*
X15171100Y-5689600D02*
G75*
G03*
X15171100Y-5689600I-20000J0D01*
G01*
X15171100Y-5803900D02*
G75*
G03*
X15171100Y-5803900I-20000J0D01*
G01*
X15196500Y-3797300D02*
G75*
G03*
X15196500Y-3797300I-20000J0D01*
G01*
X15196500Y-3898900D02*
G75*
G03*
X15196500Y-3898900I-20000J0D01*
G01*
X15196500Y-4000500D02*
G75*
G03*
X15196500Y-4000500I-20000J0D01*
G01*
X15196500Y-13385800D02*
G75*
G03*
X15196500Y-13385800I-20000J0D01*
G01*
X15209200Y-5568950D02*
G75*
G03*
X15209200Y-5568950I-20000J0D01*
G01*
X15228250Y-4387850D02*
G75*
G03*
X15228250Y-4387850I-20000J0D01*
G01*
X15228250Y-4476750D02*
G75*
G03*
X15228250Y-4476750I-20000J0D01*
G01*
X15272700Y-11861800D02*
G75*
G03*
X15272700Y-11861800I-20000J0D01*
G01*
X15279050Y-10401300D02*
G75*
G03*
X15279050Y-10401300I-20000J0D01*
G01*
X15285400Y-4069080D02*
G75*
G03*
X15285400Y-4069080I-20000J0D01*
G01*
X15310800Y-3952240D02*
G75*
G03*
X15310800Y-3952240I-20000J0D01*
G01*
X15310800Y-4476750D02*
G75*
G03*
X15310800Y-4476750I-20000J0D01*
G01*
X15315880Y-9169400D02*
G75*
G03*
X15315880Y-9169400I-20000J0D01*
G01*
X15317150Y-4387850D02*
G75*
G03*
X15317150Y-4387850I-20000J0D01*
G01*
X15323500Y-3797300D02*
G75*
G03*
X15323500Y-3797300I-20000J0D01*
G01*
X15331120Y-11572240D02*
G75*
G03*
X15331120Y-11572240I-20000J0D01*
G01*
X15336200Y-5867400D02*
G75*
G03*
X15336200Y-5867400I-20000J0D01*
G01*
X15336200Y-9029700D02*
G75*
G03*
X15336200Y-9029700I-20000J0D01*
G01*
X15336200Y-10535920D02*
G75*
G03*
X15336200Y-10535920I-20000J0D01*
G01*
X15342550Y-5664200D02*
G75*
G03*
X15342550Y-5664200I-20000J0D01*
G01*
X15399700Y-6007100D02*
G75*
G03*
X15399700Y-6007100I-20000J0D01*
G01*
X15409860Y-10199220D02*
G75*
G03*
X15409860Y-10199220I-20000J0D01*
G01*
X15412400Y-13208000D02*
G75*
G03*
X15412400Y-13208000I-20000J0D01*
G01*
X15425100Y-3968750D02*
G75*
G03*
X15425100Y-3968750I-20000J0D01*
G01*
X15437800Y-3790950D02*
G75*
G03*
X15437800Y-3790950I-20000J0D01*
G01*
X15461930Y-7428230D02*
G75*
G03*
X15461930Y-7428230I-20000J0D01*
G01*
X15486060Y-6126480D02*
G75*
G03*
X15486060Y-6126480I-20000J0D01*
G01*
X15488600Y-3886200D02*
G75*
G03*
X15488600Y-3886200I-20000J0D01*
G01*
X15488600Y-4064000D02*
G75*
G03*
X15488600Y-4064000I-20000J0D01*
G01*
X15492410Y-8035290D02*
G75*
G03*
X15492410Y-8035290I-20000J0D01*
G01*
X15494950Y-8246110D02*
G75*
G03*
X15494950Y-8246110I-20000J0D01*
G01*
X15501300Y-5793740D02*
G75*
G03*
X15501300Y-5793740I-20000J0D01*
G01*
X15502570Y-7818120D02*
G75*
G03*
X15502570Y-7818120I-20000J0D01*
G01*
X15520300Y-4851400D02*
G75*
G03*
X15520300Y-4851400I-20000J0D01*
G01*
X15531780Y-9169400D02*
G75*
G03*
X15531780Y-9169400I-20000J0D01*
G01*
X15539400Y-4254500D02*
G75*
G03*
X15539400Y-4254500I-20000J0D01*
G01*
X15539400Y-4368800D02*
G75*
G03*
X15539400Y-4368800I-20000J0D01*
G01*
X15539400Y-5664200D02*
G75*
G03*
X15539400Y-5664200I-20000J0D01*
G01*
X15545750Y-3790950D02*
G75*
G03*
X15545750Y-3790950I-20000J0D01*
G01*
X15545750Y-3968750D02*
G75*
G03*
X15545750Y-3968750I-20000J0D01*
G01*
X15547020Y-10045700D02*
G75*
G03*
X15547020Y-10045700I-20000J0D01*
G01*
X15549560Y-10807192D02*
G75*
G03*
X15549560Y-10807192I-20000J0D01*
G01*
X15583850Y-8858250D02*
G75*
G03*
X15583850Y-8858250I-20000J0D01*
G01*
X15590200Y-6451600D02*
G75*
G03*
X15590200Y-6451600I-20000J0D01*
G01*
X15590200Y-13411200D02*
G75*
G03*
X15590200Y-13411200I-20000J0D01*
G01*
X15600360Y-6812280D02*
G75*
G03*
X15600360Y-6812280I-20000J0D01*
G01*
X15610520Y-10157460D02*
G75*
G03*
X15610520Y-10157460I-20000J0D01*
G01*
X15620680Y-7152640D02*
G75*
G03*
X15620680Y-7152640I-20000J0D01*
G01*
X15653700Y-5585460D02*
G75*
G03*
X15653700Y-5585460I-20000J0D01*
G01*
X15656240Y-8766810D02*
G75*
G03*
X15656240Y-8766810I-20000J0D01*
G01*
X15685450Y-12452350D02*
G75*
G03*
X15685450Y-12452350I-20000J0D01*
G01*
X15686720Y-5166360D02*
G75*
G03*
X15686720Y-5166360I-20000J0D01*
G01*
X15686720Y-5669280D02*
G75*
G03*
X15686720Y-5669280I-20000J0D01*
G01*
X15686720Y-6266180D02*
G75*
G03*
X15686720Y-6266180I-20000J0D01*
G01*
X15704500Y-11087100D02*
G75*
G03*
X15704500Y-11087100I-20000J0D01*
G01*
X15717200Y-6807200D02*
G75*
G03*
X15717200Y-6807200I-20000J0D01*
G01*
X15745140Y-4993640D02*
G75*
G03*
X15745140Y-4993640I-20000J0D01*
G01*
X15745140Y-10022951D02*
G75*
G03*
X15745140Y-10022951I-20000J0D01*
G01*
X15752760Y-10737850D02*
G75*
G03*
X15752760Y-10737850I-20000J0D01*
G01*
X15825150Y-8648700D02*
G75*
G03*
X15825150Y-8648700I-20000J0D01*
G01*
X15844200Y-13411200D02*
G75*
G03*
X15844200Y-13411200I-20000J0D01*
G01*
X15854360Y-9763760D02*
G75*
G03*
X15854360Y-9763760I-20000J0D01*
G01*
X15859440Y-7528560D02*
G75*
G03*
X15859440Y-7528560I-20000J0D01*
G01*
X15892460Y-9445752D02*
G75*
G03*
X15892460Y-9445752I-20000J0D01*
G01*
X15896248Y-9568698D02*
G75*
G03*
X15896248Y-9568698I-20000J0D01*
G01*
X15897540Y-5080000D02*
G75*
G03*
X15897540Y-5080000I-20000J0D01*
G01*
X15905160Y-4975860D02*
G75*
G03*
X15905160Y-4975860I-20000J0D01*
G01*
X15920400Y-9296400D02*
G75*
G03*
X15920400Y-9296400I-20000J0D01*
G01*
X15958500Y-11480800D02*
G75*
G03*
X15958500Y-11480800I-20000J0D01*
G01*
X15959770Y-11082020D02*
G75*
G03*
X15959770Y-11082020I-20000J0D01*
G01*
X15969457Y-10022951D02*
G75*
G03*
X15969457Y-10022951I-20000J0D01*
G01*
X15971200Y-3784600D02*
G75*
G03*
X15971200Y-3784600I-20000J0D01*
G01*
X15976280Y-4770120D02*
G75*
G03*
X15976280Y-4770120I-20000J0D01*
G01*
X15983900Y-12122150D02*
G75*
G03*
X15983900Y-12122150I-20000J0D01*
G01*
X15985170Y-8708390D02*
G75*
G03*
X15985170Y-8708390I-20000J0D01*
G01*
X15986440Y-4660900D02*
G75*
G03*
X15986440Y-4660900I-20000J0D01*
G01*
X15988980Y-4991100D02*
G75*
G03*
X15988980Y-4991100I-20000J0D01*
G01*
X15996600Y-7658100D02*
G75*
G03*
X15996600Y-7658100I-20000J0D01*
G01*
X16011332Y-9368028D02*
G75*
G03*
X16011332Y-9368028I-20000J0D01*
G01*
X16022000Y-3886200D02*
G75*
G03*
X16022000Y-3886200I-20000J0D01*
G01*
X16034700Y-11182350D02*
G75*
G03*
X16034700Y-11182350I-20000J0D01*
G01*
X16047400Y-6121400D02*
G75*
G03*
X16047400Y-6121400I-20000J0D01*
G01*
X16060100Y-10210800D02*
G75*
G03*
X16060100Y-10210800I-20000J0D01*
G01*
X16072800Y-6781292D02*
G75*
G03*
X16072800Y-6781292I-20000J0D01*
G01*
X16075340Y-8591550D02*
G75*
G03*
X16075340Y-8591550I-20000J0D01*
G01*
X16085500Y-3784600D02*
G75*
G03*
X16085500Y-3784600I-20000J0D01*
G01*
X16085500Y-4000500D02*
G75*
G03*
X16085500Y-4000500I-20000J0D01*
G01*
X16085500Y-4114800D02*
G75*
G03*
X16085500Y-4114800I-20000J0D01*
G01*
X16085500Y-4229100D02*
G75*
G03*
X16085500Y-4229100I-20000J0D01*
G01*
X16085500Y-4343400D02*
G75*
G03*
X16085500Y-4343400I-20000J0D01*
G01*
X16085500Y-4457700D02*
G75*
G03*
X16085500Y-4457700I-20000J0D01*
G01*
X16088040Y-8763000D02*
G75*
G03*
X16088040Y-8763000I-20000J0D01*
G01*
X16098200Y-6629400D02*
G75*
G03*
X16098200Y-6629400I-20000J0D01*
G01*
X16098200Y-13411200D02*
G75*
G03*
X16098200Y-13411200I-20000J0D01*
G01*
X16103280Y-5458460D02*
G75*
G03*
X16103280Y-5458460I-20000J0D01*
G01*
X16108360Y-4648200D02*
G75*
G03*
X16108360Y-4648200I-20000J0D01*
G01*
X16129950Y-9245600D02*
G75*
G03*
X16129950Y-9245600I-20000J0D01*
G01*
X16136300Y-3886200D02*
G75*
G03*
X16136300Y-3886200I-20000J0D01*
G01*
X16142904Y-7615428D02*
G75*
G03*
X16142904Y-7615428I-20000J0D01*
G01*
X16158652Y-9618980D02*
G75*
G03*
X16158652Y-9618980I-20000J0D01*
G01*
X16161192Y-9725660D02*
G75*
G03*
X16161192Y-9725660I-20000J0D01*
G01*
X16161700Y-8883650D02*
G75*
G03*
X16161700Y-8883650I-20000J0D01*
G01*
X16169320Y-7914640D02*
G75*
G03*
X16169320Y-7914640I-20000J0D01*
G01*
X16170501Y-10122516D02*
G75*
G03*
X16170501Y-10122516I-20000J0D01*
G01*
X16192180Y-5351780D02*
G75*
G03*
X16192180Y-5351780I-20000J0D01*
G01*
X16194720Y-9103360D02*
G75*
G03*
X16194720Y-9103360I-20000J0D01*
G01*
X16194720Y-3784600D02*
G75*
G03*
X16194720Y-3784600I-20000J0D01*
G01*
X16194720Y-5241290D02*
G75*
G03*
X16194720Y-5241290I-20000J0D01*
G01*
X16212500Y-6667500D02*
G75*
G03*
X16212500Y-6667500I-20000J0D01*
G01*
X16244250Y-5466080D02*
G75*
G03*
X16244250Y-5466080I-20000J0D01*
G01*
X16270920Y-8981440D02*
G75*
G03*
X16270920Y-8981440I-20000J0D01*
G01*
X16272444Y-9617964D02*
G75*
G03*
X16272444Y-9617964I-20000J0D01*
G01*
X16274984Y-9724644D02*
G75*
G03*
X16274984Y-9724644I-20000J0D01*
G01*
X16277270Y-5746750D02*
G75*
G03*
X16277270Y-5746750I-20000J0D01*
G01*
X16281080Y-8178800D02*
G75*
G03*
X16281080Y-8178800I-20000J0D01*
G01*
X16321720Y-3985260D02*
G75*
G03*
X16321720Y-3985260I-20000J0D01*
G01*
X16321720Y-4086860D02*
G75*
G03*
X16321720Y-4086860I-20000J0D01*
G01*
X16324260Y-3878580D02*
G75*
G03*
X16324260Y-3878580I-20000J0D01*
G01*
X16324260Y-4193540D02*
G75*
G03*
X16324260Y-4193540I-20000J0D01*
G01*
X16324260Y-4297680D02*
G75*
G03*
X16324260Y-4297680I-20000J0D01*
G01*
X16336960Y-9260840D02*
G75*
G03*
X16336960Y-9260840I-20000J0D01*
G01*
X16339500Y-4401820D02*
G75*
G03*
X16339500Y-4401820I-20000J0D01*
G01*
X16352200Y-13233400D02*
G75*
G03*
X16352200Y-13233400I-20000J0D01*
G01*
X16352200Y-13411200D02*
G75*
G03*
X16352200Y-13411200I-20000J0D01*
G01*
X16377600Y-6197600D02*
G75*
G03*
X16377600Y-6197600I-20000J0D01*
G01*
X16380140Y-9723628D02*
G75*
G03*
X16380140Y-9723628I-20000J0D01*
G01*
X16382680Y-3784600D02*
G75*
G03*
X16382680Y-3784600I-20000J0D01*
G01*
X16433480Y-4432300D02*
G75*
G03*
X16433480Y-4432300I-20000J0D01*
G01*
X16436020Y-6070600D02*
G75*
G03*
X16436020Y-6070600I-20000J0D01*
G01*
X16439830Y-5834380D02*
G75*
G03*
X16439830Y-5834380I-20000J0D01*
G01*
X16455070Y-5731510D02*
G75*
G03*
X16455070Y-5731510I-20000J0D01*
G01*
X16479200Y-13309600D02*
G75*
G03*
X16479200Y-13309600I-20000J0D01*
G01*
X16481740Y-3779520D02*
G75*
G03*
X16481740Y-3779520I-20000J0D01*
G01*
X16491900Y-6591300D02*
G75*
G03*
X16491900Y-6591300I-20000J0D01*
G01*
X16502568Y-7604252D02*
G75*
G03*
X16502568Y-7604252I-20000J0D01*
G01*
X16509680Y-10049365D02*
G75*
G03*
X16509680Y-10049365I-20000J0D01*
G01*
X16530000Y-6197600D02*
G75*
G03*
X16530000Y-6197600I-20000J0D01*
G01*
X16537620Y-4432300D02*
G75*
G03*
X16537620Y-4432300I-20000J0D01*
G01*
X16542700Y-7099300D02*
G75*
G03*
X16542700Y-7099300I-20000J0D01*
G01*
X16550320Y-10474960D02*
G75*
G03*
X16550320Y-10474960I-20000J0D01*
G01*
X16555400Y-5638800D02*
G75*
G03*
X16555400Y-5638800I-20000J0D01*
G01*
X16555400Y-7010400D02*
G75*
G03*
X16555400Y-7010400I-20000J0D01*
G01*
X16575720Y-9956800D02*
G75*
G03*
X16575720Y-9956800I-20000J0D01*
G01*
X16578260Y-4902200D02*
G75*
G03*
X16578260Y-4902200I-20000J0D01*
G01*
X16580800Y-3776980D02*
G75*
G03*
X16580800Y-3776980I-20000J0D01*
G01*
X16606200Y-13233400D02*
G75*
G03*
X16606200Y-13233400I-20000J0D01*
G01*
X16606200Y-13411200D02*
G75*
G03*
X16606200Y-13411200I-20000J0D01*
G01*
X16608740Y-9250680D02*
G75*
G03*
X16608740Y-9250680I-20000J0D01*
G01*
X16631600Y-8684260D02*
G75*
G03*
X16631600Y-8684260I-20000J0D01*
G01*
X16641760Y-4432300D02*
G75*
G03*
X16641760Y-4432300I-20000J0D01*
G01*
X16677320Y-3779520D02*
G75*
G03*
X16677320Y-3779520I-20000J0D01*
G01*
X16695100Y-9144000D02*
G75*
G03*
X16695100Y-9144000I-20000J0D01*
G01*
X16696624Y-9663176D02*
G75*
G03*
X16696624Y-9663176I-20000J0D01*
G01*
X16701450Y-7226300D02*
G75*
G03*
X16701450Y-7226300I-20000J0D01*
G01*
X16701450Y-7372350D02*
G75*
G03*
X16701450Y-7372350I-20000J0D01*
G01*
X16702720Y-8915400D02*
G75*
G03*
X16702720Y-8915400I-20000J0D01*
G01*
X16733200Y-13309600D02*
G75*
G03*
X16733200Y-13309600I-20000J0D01*
G01*
X16748440Y-4414520D02*
G75*
G03*
X16748440Y-4414520I-20000J0D01*
G01*
X16758600Y-3807460D02*
G75*
G03*
X16758600Y-3807460I-20000J0D01*
G01*
X16789080Y-3888740D02*
G75*
G03*
X16789080Y-3888740I-20000J0D01*
G01*
X16790350Y-7226300D02*
G75*
G03*
X16790350Y-7226300I-20000J0D01*
G01*
X16790350Y-7372350D02*
G75*
G03*
X16790350Y-7372350I-20000J0D01*
G01*
X16791620Y-4000500D02*
G75*
G03*
X16791620Y-4000500I-20000J0D01*
G01*
X16791620Y-4102100D02*
G75*
G03*
X16791620Y-4102100I-20000J0D01*
G01*
X16794160Y-4208780D02*
G75*
G03*
X16794160Y-4208780I-20000J0D01*
G01*
X16794160Y-4312920D02*
G75*
G03*
X16794160Y-4312920I-20000J0D01*
G01*
X16834800Y-5689600D02*
G75*
G03*
X16834800Y-5689600I-20000J0D01*
G01*
X16834800Y-6172200D02*
G75*
G03*
X16834800Y-6172200I-20000J0D01*
G01*
X16858930Y-5120640D02*
G75*
G03*
X16858930Y-5120640I-20000J0D01*
G01*
X16860200Y-13233400D02*
G75*
G03*
X16860200Y-13233400I-20000J0D01*
G01*
X16860200Y-13411200D02*
G75*
G03*
X16860200Y-13411200I-20000J0D01*
G01*
X16861470Y-4917440D02*
G75*
G03*
X16861470Y-4917440I-20000J0D01*
G01*
X16885600Y-10490200D02*
G75*
G03*
X16885600Y-10490200I-20000J0D01*
G01*
X16895760Y-9108440D02*
G75*
G03*
X16895760Y-9108440I-20000J0D01*
G01*
X16900840Y-5740400D02*
G75*
G03*
X16900840Y-5740400I-20000J0D01*
G01*
X16905920Y-3815080D02*
G75*
G03*
X16905920Y-3815080I-20000J0D01*
G01*
X16911000Y-6096000D02*
G75*
G03*
X16911000Y-6096000I-20000J0D01*
G01*
X16921160Y-6957060D02*
G75*
G03*
X16921160Y-6957060I-20000J0D01*
G01*
X16936400Y-6273800D02*
G75*
G03*
X16936400Y-6273800I-20000J0D01*
G01*
X16942750Y-7099300D02*
G75*
G03*
X16942750Y-7099300I-20000J0D01*
G01*
X16944020Y-7498080D02*
G75*
G03*
X16944020Y-7498080I-20000J0D01*
G01*
X16961800Y-5461000D02*
G75*
G03*
X16961800Y-5461000I-20000J0D01*
G01*
X16984660Y-6844030D02*
G75*
G03*
X16984660Y-6844030I-20000J0D01*
G01*
X16987200Y-5257800D02*
G75*
G03*
X16987200Y-5257800I-20000J0D01*
G01*
X17012600Y-5867400D02*
G75*
G03*
X17012600Y-5867400I-20000J0D01*
G01*
X17018950Y-7613650D02*
G75*
G03*
X17018950Y-7613650I-20000J0D01*
G01*
X17027840Y-6404610D02*
G75*
G03*
X17027840Y-6404610I-20000J0D01*
G01*
X17032920Y-6285230D02*
G75*
G03*
X17032920Y-6285230I-20000J0D01*
G01*
X17038000Y-9353550D02*
G75*
G03*
X17038000Y-9353550I-20000J0D01*
G01*
X17053240Y-3815080D02*
G75*
G03*
X17053240Y-3815080I-20000J0D01*
G01*
X17073560Y-8757920D02*
G75*
G03*
X17073560Y-8757920I-20000J0D01*
G01*
X17114200Y-13233400D02*
G75*
G03*
X17114200Y-13233400I-20000J0D01*
G01*
X17114200Y-13411200D02*
G75*
G03*
X17114200Y-13411200I-20000J0D01*
G01*
X17124360Y-8981440D02*
G75*
G03*
X17124360Y-8981440I-20000J0D01*
G01*
X17139600Y-5080000D02*
G75*
G03*
X17139600Y-5080000I-20000J0D01*
G01*
X17158650Y-9232900D02*
G75*
G03*
X17158650Y-9232900I-20000J0D01*
G01*
X17185320Y-3815080D02*
G75*
G03*
X17185320Y-3815080I-20000J0D01*
G01*
X17198020Y-10622280D02*
G75*
G03*
X17198020Y-10622280I-20000J0D01*
G01*
X17203100Y-9671050D02*
G75*
G03*
X17203100Y-9671050I-20000J0D01*
G01*
X17215799Y-6515100D02*
G75*
G03*
X17215799Y-6515100I-20000J0D01*
G01*
X17234850Y-9118600D02*
G75*
G03*
X17234850Y-9118600I-20000J0D01*
G01*
X17241200Y-8820150D02*
G75*
G03*
X17241200Y-8820150I-20000J0D01*
G01*
X17241200Y-13335000D02*
G75*
G03*
X17241200Y-13335000I-20000J0D01*
G01*
X17304700Y-7620000D02*
G75*
G03*
X17304700Y-7620000I-20000J0D01*
G01*
X17307240Y-3815080D02*
G75*
G03*
X17307240Y-3815080I-20000J0D01*
G01*
X17317400Y-9230360D02*
G75*
G03*
X17317400Y-9230360I-20000J0D01*
G01*
X17323750Y-9626600D02*
G75*
G03*
X17323750Y-9626600I-20000J0D01*
G01*
X17360580Y-9999980D02*
G75*
G03*
X17360580Y-9999980I-20000J0D01*
G01*
X17368200Y-5880100D02*
G75*
G03*
X17368200Y-5880100I-20000J0D01*
G01*
X17368200Y-13233400D02*
G75*
G03*
X17368200Y-13233400I-20000J0D01*
G01*
X17368200Y-13411200D02*
G75*
G03*
X17368200Y-13411200I-20000J0D01*
G01*
X17374550Y-6451600D02*
G75*
G03*
X17374550Y-6451600I-20000J0D01*
G01*
X17393600Y-10502900D02*
G75*
G03*
X17393600Y-10502900I-20000J0D01*
G01*
X17411380Y-10109200D02*
G75*
G03*
X17411380Y-10109200I-20000J0D01*
G01*
X17439320Y-3815080D02*
G75*
G03*
X17439320Y-3815080I-20000J0D01*
G01*
X17452020Y-8986520D02*
G75*
G03*
X17452020Y-8986520I-20000J0D01*
G01*
X17495200Y-13335000D02*
G75*
G03*
X17495200Y-13335000I-20000J0D01*
G01*
X17520600Y-6705600D02*
G75*
G03*
X17520600Y-6705600I-20000J0D01*
G01*
X17546000Y-7251700D02*
G75*
G03*
X17546000Y-7251700I-20000J0D01*
G01*
X17546000Y-8636000D02*
G75*
G03*
X17546000Y-8636000I-20000J0D01*
G01*
X17546000Y-8813800D02*
G75*
G03*
X17546000Y-8813800I-20000J0D01*
G01*
X17566320Y-3815080D02*
G75*
G03*
X17566320Y-3815080I-20000J0D01*
G01*
X17581560Y-6873240D02*
G75*
G03*
X17581560Y-6873240I-20000J0D01*
G01*
X17590450Y-7067550D02*
G75*
G03*
X17590450Y-7067550I-20000J0D01*
G01*
X17601880Y-10543540D02*
G75*
G03*
X17601880Y-10543540I-20000J0D01*
G01*
X17622200Y-5283200D02*
G75*
G03*
X17622200Y-5283200I-20000J0D01*
G01*
X17622200Y-13233400D02*
G75*
G03*
X17622200Y-13233400I-20000J0D01*
G01*
X17622200Y-13411200D02*
G75*
G03*
X17622200Y-13411200I-20000J0D01*
G01*
X17633450Y-9219600D02*
G75*
G03*
X17633450Y-9219600I-20000J0D01*
G01*
X17693320Y-3815080D02*
G75*
G03*
X17693320Y-3815080I-20000J0D01*
G01*
X17749200Y-3937000D02*
G75*
G03*
X17749200Y-3937000I-20000J0D01*
G01*
X17761900Y-10674350D02*
G75*
G03*
X17761900Y-10674350I-20000J0D01*
G01*
X17774600Y-4089400D02*
G75*
G03*
X17774600Y-4089400I-20000J0D01*
G01*
X17780950Y-5359400D02*
G75*
G03*
X17780950Y-5359400I-20000J0D01*
G01*
X17800000Y-9004300D02*
G75*
G03*
X17800000Y-9004300I-20000J0D01*
G01*
X17820320Y-3815080D02*
G75*
G03*
X17820320Y-3815080I-20000J0D01*
G01*
X17825400Y-5232400D02*
G75*
G03*
X17825400Y-5232400I-20000J0D01*
G01*
X17838100Y-9982200D02*
G75*
G03*
X17838100Y-9982200I-20000J0D01*
G01*
X17876200Y-3962400D02*
G75*
G03*
X17876200Y-3962400I-20000J0D01*
G01*
X17939700Y-7721600D02*
G75*
G03*
X17939700Y-7721600I-20000J0D01*
G01*
X17939700Y-8966200D02*
G75*
G03*
X17939700Y-8966200I-20000J0D01*
G01*
X17952400Y-3815080D02*
G75*
G03*
X17952400Y-3815080I-20000J0D01*
G01*
X17952400Y-5994400D02*
G75*
G03*
X17952400Y-5994400I-20000J0D01*
G01*
X17952400Y-7264400D02*
G75*
G03*
X17952400Y-7264400I-20000J0D01*
G01*
X17970180Y-5374640D02*
G75*
G03*
X17970180Y-5374640I-20000J0D01*
G01*
X17971450Y-6381750D02*
G75*
G03*
X17971450Y-6381750I-20000J0D01*
G01*
X17975260Y-4983480D02*
G75*
G03*
X17975260Y-4983480I-20000J0D01*
G01*
X17990500Y-9918700D02*
G75*
G03*
X17990500Y-9918700I-20000J0D01*
G01*
X18083210Y-8644890D02*
G75*
G03*
X18083210Y-8644890I-20000J0D01*
G01*
X18084480Y-3815080D02*
G75*
G03*
X18084480Y-3815080I-20000J0D01*
G01*
X18136550Y-9434830D02*
G75*
G03*
X18136550Y-9434830I-20000J0D01*
G01*
X18155600Y-8943340D02*
G75*
G03*
X18155600Y-8943340I-20000J0D01*
G01*
X18226720Y-3815080D02*
G75*
G03*
X18226720Y-3815080I-20000J0D01*
G01*
X18282600Y-5924550D02*
G75*
G03*
X18282600Y-5924550I-20000J0D01*
G01*
X18358800Y-10007600D02*
G75*
G03*
X18358800Y-10007600I-20000J0D01*
G01*
X18358800Y-10261600D02*
G75*
G03*
X18358800Y-10261600I-20000J0D01*
G01*
X18358800Y-10515600D02*
G75*
G03*
X18358800Y-10515600I-20000J0D01*
G01*
X18371500Y-9359900D02*
G75*
G03*
X18371500Y-9359900I-20000J0D01*
G01*
X18384200Y-3850640D02*
G75*
G03*
X18384200Y-3850640I-20000J0D01*
G01*
X18384200Y-6419850D02*
G75*
G03*
X18384200Y-6419850I-20000J0D01*
G01*
X18394360Y-7162800D02*
G75*
G03*
X18394360Y-7162800I-20000J0D01*
G01*
X18431190Y-9117330D02*
G75*
G03*
X18431190Y-9117330I-20000J0D01*
G01*
X18485800Y-5975350D02*
G75*
G03*
X18485800Y-5975350I-20000J0D01*
G01*
X18485800Y-10388600D02*
G75*
G03*
X18485800Y-10388600I-20000J0D01*
G01*
X18511200Y-6070600D02*
G75*
G03*
X18511200Y-6070600I-20000J0D01*
G01*
X18516280Y-3931920D02*
G75*
G03*
X18516280Y-3931920I-20000J0D01*
G01*
X18523900Y-7086600D02*
G75*
G03*
X18523900Y-7086600I-20000J0D01*
G01*
X18593750Y-8462010D02*
G75*
G03*
X18593750Y-8462010I-20000J0D01*
G01*
X18612800Y-4038600D02*
G75*
G03*
X18612800Y-4038600I-20000J0D01*
G01*
X18612800Y-4673600D02*
G75*
G03*
X18612800Y-4673600I-20000J0D01*
G01*
X18612800Y-4927600D02*
G75*
G03*
X18612800Y-4927600I-20000J0D01*
G01*
X18612800Y-5181600D02*
G75*
G03*
X18612800Y-5181600I-20000J0D01*
G01*
X18612800Y-5435600D02*
G75*
G03*
X18612800Y-5435600I-20000J0D01*
G01*
X18612800Y-5689600D02*
G75*
G03*
X18612800Y-5689600I-20000J0D01*
G01*
X18612800Y-5943600D02*
G75*
G03*
X18612800Y-5943600I-20000J0D01*
G01*
X18612800Y-6197600D02*
G75*
G03*
X18612800Y-6197600I-20000J0D01*
G01*
X18612800Y-6451600D02*
G75*
G03*
X18612800Y-6451600I-20000J0D01*
G01*
X18612800Y-6705600D02*
G75*
G03*
X18612800Y-6705600I-20000J0D01*
G01*
X18612800Y-6959600D02*
G75*
G03*
X18612800Y-6959600I-20000J0D01*
G01*
X18612800Y-7213600D02*
G75*
G03*
X18612800Y-7213600I-20000J0D01*
G01*
X18612800Y-7467600D02*
G75*
G03*
X18612800Y-7467600I-20000J0D01*
G01*
X18612800Y-7654290D02*
G75*
G03*
X18612800Y-7654290I-20000J0D01*
G01*
X18612800Y-7975600D02*
G75*
G03*
X18612800Y-7975600I-20000J0D01*
G01*
X18612800Y-8737600D02*
G75*
G03*
X18612800Y-8737600I-20000J0D01*
G01*
X18612800Y-8991600D02*
G75*
G03*
X18612800Y-8991600I-20000J0D01*
G01*
X18612800Y-9245600D02*
G75*
G03*
X18612800Y-9245600I-20000J0D01*
G01*
X18612800Y-10515600D02*
G75*
G03*
X18612800Y-10515600I-20000J0D01*
G01*
X18612800Y-10769600D02*
G75*
G03*
X18612800Y-10769600I-20000J0D01*
G01*
X18612800Y-11023600D02*
G75*
G03*
X18612800Y-11023600I-20000J0D01*
G01*
X18612800Y-11275060D02*
G75*
G03*
X18612800Y-11275060I-20000J0D01*
G01*
X18612800Y-11531600D02*
G75*
G03*
X18612800Y-11531600I-20000J0D01*
G01*
X18612800Y-11785600D02*
G75*
G03*
X18612800Y-11785600I-20000J0D01*
G01*
X18612800Y-12039600D02*
G75*
G03*
X18612800Y-12039600I-20000J0D01*
G01*
X18612800Y-12293600D02*
G75*
G03*
X18612800Y-12293600I-20000J0D01*
G01*
X18612800Y-12547600D02*
G75*
G03*
X18612800Y-12547600I-20000J0D01*
G01*
X18663600Y-8305800D02*
G75*
G03*
X18663600Y-8305800I-20000J0D01*
G01*
X18678840Y-4175760D02*
G75*
G03*
X18678840Y-4175760I-20000J0D01*
G01*
X18694080Y-4516120D02*
G75*
G03*
X18694080Y-4516120I-20000J0D01*
G01*
X18699160Y-4343400D02*
G75*
G03*
X18699160Y-4343400I-20000J0D01*
G01*
X14308340Y-13363800D02*
X14308340Y-13413800D01*
X14283340Y-13388800D02*
X14333340Y-13388800D01*
X14293340Y-13356300D02*
X14293340Y-13421300D01*
X14323340Y-13356300D02*
X14323340Y-13421300D01*
X14293340Y-13421300D02*
G75*
G03*
X14323340Y-13421300I15000J0D01*
G01*
X14323340Y-13356300D02*
G75*
G03*
X14293340Y-13356300I-15000J0D01*
G01*
X15008340Y-13363800D02*
X15008340Y-13413800D01*
X14983340Y-13388800D02*
X15033340Y-13388800D01*
X14993340Y-13356300D02*
X14993340Y-13421300D01*
X15023340Y-13356300D02*
X15023340Y-13421300D01*
X14993340Y-13421300D02*
G75*
G03*
X15023340Y-13421300I15000J0D01*
G01*
X15023340Y-13356300D02*
G75*
G03*
X14993340Y-13356300I-15000J0D01*
G01*
X14427786Y-13138246D02*
X14427786Y-13099354D01*
X14388894Y-13099354D01*
X14388894Y-13138246D01*
X14427786Y-13138246D01*
X14393340Y-13136300D02*
X14423340Y-13136300D01*
X14393340Y-13101300D02*
X14423340Y-13101300D01*
X14423340Y-13136300D02*
G75*
G03*
X14423340Y-13101300I0J17500D01*
G01*
X14393340Y-13101300D02*
G75*
G03*
X14393340Y-13136300I0J-17500D01*
G01*
X14927786Y-13138246D02*
X14927786Y-13099354D01*
X14888894Y-13099354D01*
X14888894Y-13138246D01*
X14927786Y-13138246D01*
X14893340Y-13136300D02*
X14923340Y-13136300D01*
X14893340Y-13101300D02*
X14923340Y-13101300D01*
X14923340Y-13136300D02*
G75*
G03*
X14923340Y-13101300I0J17500D01*
G01*
X14893340Y-13101300D02*
G75*
G03*
X14893340Y-13136300I0J-17500D01*
G01*
X13375640Y-11947360D02*
X13425640Y-11897360D01*
X13375640Y-11847360D01*
X13325640Y-11897360D01*
X13375640Y-11947360D01*
X13375640Y-12201360D02*
X13425640Y-12151360D01*
X13375640Y-12101360D01*
X13325640Y-12151360D01*
X13375640Y-12201360D01*
X13375640Y-12455360D02*
X13425640Y-12405360D01*
X13375640Y-12355360D01*
X13325640Y-12405360D01*
X13375640Y-12455360D01*
X13375640Y-12709360D02*
X13425640Y-12659360D01*
X13375640Y-12609360D01*
X13325640Y-12659360D01*
X13375640Y-12709360D01*
X17160240Y-7987500D02*
X17210240Y-7937500D01*
X17160240Y-7887500D01*
X17110240Y-7937500D01*
X17160240Y-7987500D01*
X17160240Y-8241500D02*
X17210240Y-8191500D01*
X17160240Y-8141500D01*
X17110240Y-8191500D01*
X17160240Y-8241500D01*
X17414240Y-7987500D02*
X17464240Y-7937500D01*
X17414240Y-7887500D01*
X17364240Y-7937500D01*
X17414240Y-7987500D01*
X17414240Y-8241500D02*
X17464240Y-8191500D01*
X17414240Y-8141500D01*
X17364240Y-8191500D01*
X17414240Y-8241500D01*
X17668240Y-7987500D02*
X17718240Y-7937500D01*
X17668240Y-7887500D01*
X17618240Y-7937500D01*
X17668240Y-7987500D01*
X17668240Y-8241500D02*
X17718240Y-8191500D01*
X17668240Y-8141500D01*
X17618240Y-8191500D01*
X17668240Y-8241500D01*
X17922240Y-7987500D02*
X17972240Y-7937500D01*
X17922240Y-7887500D01*
X17872240Y-7937500D01*
X17922240Y-7987500D01*
X17922240Y-8241500D02*
X17972240Y-8191500D01*
X17922240Y-8141500D01*
X17872240Y-8191500D01*
X17922240Y-8241500D01*
X18176240Y-7987500D02*
X18226240Y-7937500D01*
X18176240Y-7887500D01*
X18126240Y-7937500D01*
X18176240Y-7987500D01*
X18176240Y-8241500D02*
X18226240Y-8191500D01*
X18176240Y-8141500D01*
X18126240Y-8191500D01*
X18176240Y-8241500D01*
X18351500Y-9568650D02*
X18401500Y-9518650D01*
X18351500Y-9468650D01*
X18301500Y-9518650D01*
X18351500Y-9568650D01*
X18351500Y-9822650D02*
X18401500Y-9772650D01*
X18351500Y-9722650D01*
X18301500Y-9772650D01*
X18351500Y-9822650D01*
X10501400Y-12640080D02*
X10631400Y-12770080D01*
X10631400Y-12640080D02*
X10501400Y-12770080D01*
X10631400Y-12705080D02*
G75*
G03*
X10631400Y-12705080I-65000J0D01*
G01*
X11001400Y-12640080D02*
X11131400Y-12770080D01*
X11131400Y-12640080D02*
X11001400Y-12770080D01*
X11131400Y-12705080D02*
G75*
G03*
X11131400Y-12705080I-65000J0D01*
G01*
X11994920Y-12624840D02*
X12124920Y-12754840D01*
X12124920Y-12624840D02*
X11994920Y-12754840D01*
X12124920Y-12689840D02*
G75*
G03*
X12124920Y-12689840I-65000J0D01*
G01*
X12494920Y-12624840D02*
X12624920Y-12754840D01*
X12624920Y-12624840D02*
X12494920Y-12754840D01*
X12624920Y-12689840D02*
G75*
G03*
X12624920Y-12689840I-65000J0D01*
G01*
X9178100Y-10287700D02*
X9313100Y-10422700D01*
X9313100Y-10287700D02*
X9178100Y-10422700D01*
X9245600Y-10287700D02*
X9245600Y-10422700D01*
X9178100Y-10355200D02*
X9313100Y-10355200D01*
X9178100Y-11819700D02*
X9313100Y-11954700D01*
X9313100Y-11819700D02*
X9178100Y-11954700D01*
X9245600Y-11819700D02*
X9245600Y-11954700D01*
X9178100Y-11887200D02*
X9313100Y-11887200D01*
X9432100Y-9787700D02*
X9567100Y-9922700D01*
X9567100Y-9787700D02*
X9432100Y-9922700D01*
X9499600Y-9787700D02*
X9499600Y-9922700D01*
X9432100Y-9855200D02*
X9567100Y-9855200D01*
X9432100Y-10033700D02*
X9567100Y-10168700D01*
X9567100Y-10033700D02*
X9432100Y-10168700D01*
X9499600Y-10033700D02*
X9499600Y-10168700D01*
X9432100Y-10101200D02*
X9567100Y-10101200D01*
X9432100Y-10541700D02*
X9567100Y-10676700D01*
X9567100Y-10541700D02*
X9432100Y-10676700D01*
X9499600Y-10541700D02*
X9499600Y-10676700D01*
X9432100Y-10609200D02*
X9567100Y-10609200D01*
X9432100Y-11565700D02*
X9567100Y-11700700D01*
X9567100Y-11565700D02*
X9432100Y-11700700D01*
X9499600Y-11565700D02*
X9499600Y-11700700D01*
X9432100Y-11633200D02*
X9567100Y-11633200D01*
X9432100Y-12073700D02*
X9567100Y-12208700D01*
X9567100Y-12073700D02*
X9432100Y-12208700D01*
X9499600Y-12073700D02*
X9499600Y-12208700D01*
X9432100Y-12141200D02*
X9567100Y-12141200D01*
X9686100Y-10287700D02*
X9821100Y-10422700D01*
X9821100Y-10287700D02*
X9686100Y-10422700D01*
X9753600Y-10287700D02*
X9753600Y-10422700D01*
X9686100Y-10355200D02*
X9821100Y-10355200D01*
X9686100Y-11819700D02*
X9821100Y-11954700D01*
X9821100Y-11819700D02*
X9686100Y-11954700D01*
X9753600Y-11819700D02*
X9753600Y-11954700D01*
X9686100Y-11887200D02*
X9821100Y-11887200D01*
X9424600Y-5335200D02*
X9574600Y-5485200D01*
X9574600Y-5335200D02*
X9424600Y-5485200D01*
X9552634Y-5463234D02*
X9552634Y-5357167D01*
X9446567Y-5357167D01*
X9446567Y-5463234D01*
X9552634Y-5463234D01*
X9160600Y-5071200D02*
X9330600Y-5241200D01*
X9330600Y-5071200D02*
X9160600Y-5241200D01*
X9245600Y-5241200D02*
X9330600Y-5156200D01*
X9245600Y-5071200D01*
X9160600Y-5156200D01*
X9245600Y-5241200D01*
X9160600Y-5579200D02*
X9330600Y-5749200D01*
X9330600Y-5579200D02*
X9160600Y-5749200D01*
X9245600Y-5749200D02*
X9330600Y-5664200D01*
X9245600Y-5579200D01*
X9160600Y-5664200D01*
X9245600Y-5749200D01*
X9668600Y-5071200D02*
X9838600Y-5241200D01*
X9838600Y-5071200D02*
X9668600Y-5241200D01*
X9753600Y-5241200D02*
X9838600Y-5156200D01*
X9753600Y-5071200D01*
X9668600Y-5156200D01*
X9753600Y-5241200D01*
X9668600Y-5579200D02*
X9838600Y-5749200D01*
X9838600Y-5579200D02*
X9668600Y-5749200D01*
X9753600Y-5749200D02*
X9838600Y-5664200D01*
X9753600Y-5579200D01*
X9668600Y-5664200D01*
X9753600Y-5749200D01*
X9586400Y-4179000D02*
X9586400Y-4529000D01*
X9411400Y-4354000D02*
X9761400Y-4354000D01*
X9761400Y-4354000D02*
G75*
G03*
X9761400Y-4354000I-175000J0D01*
G01*
X9586400Y-12779000D02*
X9586400Y-13129000D01*
X9411400Y-12954000D02*
X9761400Y-12954000D01*
X9761400Y-12954000D02*
G75*
G03*
X9761400Y-12954000I-175000J0D01*
G01*
X10986400Y-6079000D02*
X10986400Y-6429000D01*
X10811400Y-6254000D02*
X11161400Y-6254000D01*
X11161400Y-6254000D02*
G75*
G03*
X11161400Y-6254000I-175000J0D01*
G01*
X10986400Y-10679000D02*
X10986400Y-11029000D01*
X10811400Y-10854000D02*
X11161400Y-10854000D01*
X11161400Y-10854000D02*
G75*
G03*
X11161400Y-10854000I-175000J0D01*
G01*
X14986400Y-6079000D02*
X14986400Y-6429000D01*
X14811400Y-6254000D02*
X15161400Y-6254000D01*
X15161400Y-6254000D02*
G75*
G03*
X15161400Y-6254000I-175000J0D01*
G01*
X14986400Y-10679000D02*
X14986400Y-11029000D01*
X14811400Y-10854000D02*
X15161400Y-10854000D01*
X15161400Y-10854000D02*
G75*
G03*
X15161400Y-10854000I-175000J0D01*
G01*
X15861000Y-12766500D02*
X15861000Y-13116500D01*
X15686000Y-12941500D02*
X16036000Y-12941500D01*
X16036000Y-12941500D02*
G75*
G03*
X16036000Y-12941500I-175000J0D01*
G01*
X18186400Y-4179000D02*
X18186400Y-4529000D01*
X18011400Y-4354000D02*
X18361400Y-4354000D01*
X18361400Y-4354000D02*
G75*
G03*
X18361400Y-4354000I-175000J0D01*
G01*
X18186400Y-12779000D02*
X18186400Y-13129000D01*
X18011400Y-12954000D02*
X18361400Y-12954000D01*
X18361400Y-12954000D02*
G75*
G03*
X18361400Y-12954000I-175000J0D01*
G01*
D12*
X9166428Y-14064714D02*
X9166428Y-13764714D01*
X9237857Y-13764714D01*
X9280714Y-13779000D01*
X9309286Y-13807571D01*
X9323571Y-13836143D01*
X9337857Y-13893286D01*
X9337857Y-13936143D01*
X9323571Y-13993286D01*
X9309286Y-14021857D01*
X9280714Y-14050429D01*
X9237857Y-14064714D01*
X9166428Y-14064714D01*
X9466428Y-14064714D02*
X9466428Y-13864714D01*
X9466428Y-13921857D02*
X9480714Y-13893286D01*
X9495000Y-13879000D01*
X9523571Y-13864714D01*
X9552143Y-13864714D01*
X9652143Y-14064714D02*
X9652143Y-13864714D01*
X9652143Y-13764714D02*
X9637857Y-13779000D01*
X9652143Y-13793286D01*
X9666428Y-13779000D01*
X9652143Y-13764714D01*
X9652143Y-13793286D01*
X9837857Y-14064714D02*
X9809286Y-14050429D01*
X9795000Y-14021857D01*
X9795000Y-13764714D01*
X9995000Y-14064714D02*
X9966428Y-14050429D01*
X9952143Y-14021857D01*
X9952143Y-13764714D01*
X10337857Y-14064714D02*
X10337857Y-13764714D01*
X10437857Y-13979000D01*
X10537857Y-13764714D01*
X10537857Y-14064714D01*
X10809286Y-14064714D02*
X10809286Y-13907571D01*
X10795000Y-13879000D01*
X10766428Y-13864714D01*
X10709286Y-13864714D01*
X10680714Y-13879000D01*
X10809286Y-14050429D02*
X10780714Y-14064714D01*
X10709286Y-14064714D01*
X10680714Y-14050429D01*
X10666428Y-14021857D01*
X10666428Y-13993286D01*
X10680714Y-13964714D01*
X10709286Y-13950429D01*
X10780714Y-13950429D01*
X10809286Y-13936143D01*
X10952143Y-13864714D02*
X10952143Y-14164714D01*
X10952143Y-13879000D02*
X10980714Y-13864714D01*
X11037857Y-13864714D01*
X11066428Y-13879000D01*
X11080714Y-13893286D01*
X11095000Y-13921857D01*
X11095000Y-14007571D01*
X11080714Y-14036143D01*
X11066428Y-14050429D01*
X11037857Y-14064714D01*
X10980714Y-14064714D01*
X10952143Y-14050429D01*
X11223571Y-14036143D02*
X11237857Y-14050429D01*
X11223571Y-14064714D01*
X11209286Y-14050429D01*
X11223571Y-14036143D01*
X11223571Y-14064714D01*
X11223571Y-13879000D02*
X11237857Y-13893286D01*
X11223571Y-13907571D01*
X11209286Y-13893286D01*
X11223571Y-13879000D01*
X11223571Y-13907571D01*
X8860000Y-14549000D02*
X8880000Y-14569000D01*
X8880000Y-14549000D02*
X8860000Y-14569000D01*
X9223571Y-14394714D02*
X9252143Y-14394714D01*
X9280714Y-14409000D01*
X9295000Y-14423286D01*
X9309286Y-14451857D01*
X9323571Y-14509000D01*
X9323571Y-14580429D01*
X9309286Y-14637571D01*
X9295000Y-14666143D01*
X9280714Y-14680429D01*
X9252143Y-14694714D01*
X9223571Y-14694714D01*
X9195000Y-14680429D01*
X9180714Y-14666143D01*
X9166428Y-14637571D01*
X9152143Y-14580429D01*
X9152143Y-14509000D01*
X9166428Y-14451857D01*
X9180714Y-14423286D01*
X9195000Y-14409000D01*
X9223571Y-14394714D01*
X9452143Y-14666143D02*
X9466428Y-14680429D01*
X9452143Y-14694714D01*
X9437857Y-14680429D01*
X9452143Y-14666143D01*
X9452143Y-14694714D01*
X9580714Y-14423286D02*
X9595000Y-14409000D01*
X9623571Y-14394714D01*
X9695000Y-14394714D01*
X9723571Y-14409000D01*
X9737857Y-14423286D01*
X9752143Y-14451857D01*
X9752143Y-14480429D01*
X9737857Y-14523286D01*
X9566428Y-14694714D01*
X9752143Y-14694714D01*
X9937857Y-14394714D02*
X9966428Y-14394714D01*
X9995000Y-14409000D01*
X10009286Y-14423286D01*
X10023571Y-14451857D01*
X10037857Y-14509000D01*
X10037857Y-14580429D01*
X10023571Y-14637571D01*
X10009286Y-14666143D01*
X9995000Y-14680429D01*
X9966428Y-14694714D01*
X9937857Y-14694714D01*
X9909286Y-14680429D01*
X9895000Y-14666143D01*
X9880714Y-14637571D01*
X9866428Y-14580429D01*
X9866428Y-14509000D01*
X9880714Y-14451857D01*
X9895000Y-14423286D01*
X9909286Y-14409000D01*
X9937857Y-14394714D01*
X10223571Y-14394714D02*
X10252143Y-14394714D01*
X10280714Y-14409000D01*
X10295000Y-14423286D01*
X10309286Y-14451857D01*
X10323571Y-14509000D01*
X10323571Y-14580429D01*
X10309286Y-14637571D01*
X10295000Y-14666143D01*
X10280714Y-14680429D01*
X10252143Y-14694714D01*
X10223571Y-14694714D01*
X10195000Y-14680429D01*
X10180714Y-14666143D01*
X10166428Y-14637571D01*
X10152143Y-14580429D01*
X10152143Y-14509000D01*
X10166428Y-14451857D01*
X10180714Y-14423286D01*
X10195000Y-14409000D01*
X10223571Y-14394714D01*
X10452143Y-14694714D02*
X10452143Y-14494714D01*
X10452143Y-14523286D02*
X10466428Y-14509000D01*
X10495000Y-14494714D01*
X10537857Y-14494714D01*
X10566428Y-14509000D01*
X10580714Y-14537571D01*
X10580714Y-14694714D01*
X10580714Y-14537571D02*
X10595000Y-14509000D01*
X10623571Y-14494714D01*
X10666428Y-14494714D01*
X10695000Y-14509000D01*
X10709286Y-14537571D01*
X10709286Y-14694714D01*
X10852143Y-14694714D02*
X10852143Y-14494714D01*
X10852143Y-14523286D02*
X10866428Y-14509000D01*
X10895000Y-14494714D01*
X10937857Y-14494714D01*
X10966428Y-14509000D01*
X10980714Y-14537571D01*
X10980714Y-14694714D01*
X10980714Y-14537571D02*
X10995000Y-14509000D01*
X11023571Y-14494714D01*
X11066428Y-14494714D01*
X11095000Y-14509000D01*
X11109286Y-14537571D01*
X11109286Y-14694714D01*
X11695000Y-14380429D02*
X11437857Y-14766143D01*
X12080714Y-14394714D02*
X12109286Y-14394714D01*
X12137857Y-14409000D01*
X12152143Y-14423286D01*
X12166428Y-14451857D01*
X12180714Y-14509000D01*
X12180714Y-14580429D01*
X12166428Y-14637571D01*
X12152143Y-14666143D01*
X12137857Y-14680429D01*
X12109286Y-14694714D01*
X12080714Y-14694714D01*
X12052143Y-14680429D01*
X12037857Y-14666143D01*
X12023571Y-14637571D01*
X12009286Y-14580429D01*
X12009286Y-14509000D01*
X12023571Y-14451857D01*
X12037857Y-14423286D01*
X12052143Y-14409000D01*
X12080714Y-14394714D01*
X12309286Y-14666143D02*
X12323571Y-14680429D01*
X12309286Y-14694714D01*
X12295000Y-14680429D01*
X12309286Y-14666143D01*
X12309286Y-14694714D01*
X12509286Y-14394714D02*
X12537857Y-14394714D01*
X12566428Y-14409000D01*
X12580714Y-14423286D01*
X12595000Y-14451857D01*
X12609286Y-14509000D01*
X12609286Y-14580429D01*
X12595000Y-14637571D01*
X12580714Y-14666143D01*
X12566428Y-14680429D01*
X12537857Y-14694714D01*
X12509286Y-14694714D01*
X12480714Y-14680429D01*
X12466428Y-14666143D01*
X12452143Y-14637571D01*
X12437857Y-14580429D01*
X12437857Y-14509000D01*
X12452143Y-14451857D01*
X12466428Y-14423286D01*
X12480714Y-14409000D01*
X12509286Y-14394714D01*
X12795000Y-14394714D02*
X12823571Y-14394714D01*
X12852143Y-14409000D01*
X12866428Y-14423286D01*
X12880714Y-14451857D01*
X12895000Y-14509000D01*
X12895000Y-14580429D01*
X12880714Y-14637571D01*
X12866428Y-14666143D01*
X12852143Y-14680429D01*
X12823571Y-14694714D01*
X12795000Y-14694714D01*
X12766428Y-14680429D01*
X12752143Y-14666143D01*
X12737857Y-14637571D01*
X12723571Y-14580429D01*
X12723571Y-14509000D01*
X12737857Y-14451857D01*
X12752143Y-14423286D01*
X12766428Y-14409000D01*
X12795000Y-14394714D01*
X12995000Y-14394714D02*
X13195000Y-14394714D01*
X13066428Y-14694714D01*
X13323571Y-14694714D02*
X13380714Y-14694714D01*
X13409286Y-14680429D01*
X13423571Y-14666143D01*
X13452143Y-14623286D01*
X13466428Y-14566143D01*
X13466428Y-14451857D01*
X13452143Y-14423286D01*
X13437857Y-14409000D01*
X13409286Y-14394714D01*
X13352143Y-14394714D01*
X13323571Y-14409000D01*
X13309286Y-14423286D01*
X13295000Y-14451857D01*
X13295000Y-14523286D01*
X13309286Y-14551857D01*
X13323571Y-14566143D01*
X13352143Y-14580429D01*
X13409286Y-14580429D01*
X13437857Y-14566143D01*
X13452143Y-14551857D01*
X13466428Y-14523286D01*
X13580714Y-14394714D02*
X13580714Y-14451857D01*
X13695000Y-14394714D02*
X13695000Y-14451857D01*
X14137857Y-14809000D02*
X14123571Y-14794714D01*
X14095000Y-14751857D01*
X14080714Y-14723286D01*
X14066428Y-14680429D01*
X14052143Y-14609000D01*
X14052143Y-14551857D01*
X14066428Y-14480429D01*
X14080714Y-14437571D01*
X14095000Y-14409000D01*
X14123571Y-14366143D01*
X14137857Y-14351857D01*
X14380714Y-14494714D02*
X14380714Y-14694714D01*
X14309286Y-14380429D02*
X14237857Y-14594714D01*
X14423571Y-14594714D01*
X14766428Y-14694714D02*
X14766428Y-14394714D01*
X14895000Y-14694714D02*
X14895000Y-14537571D01*
X14880714Y-14509000D01*
X14852143Y-14494714D01*
X14809286Y-14494714D01*
X14780714Y-14509000D01*
X14766428Y-14523286D01*
X15080714Y-14694714D02*
X15052143Y-14680429D01*
X15037857Y-14666143D01*
X15023571Y-14637571D01*
X15023571Y-14551857D01*
X15037857Y-14523286D01*
X15052143Y-14509000D01*
X15080714Y-14494714D01*
X15123571Y-14494714D01*
X15152143Y-14509000D01*
X15166428Y-14523286D01*
X15180714Y-14551857D01*
X15180714Y-14637571D01*
X15166428Y-14666143D01*
X15152143Y-14680429D01*
X15123571Y-14694714D01*
X15080714Y-14694714D01*
X15352143Y-14694714D02*
X15323571Y-14680429D01*
X15309286Y-14651857D01*
X15309286Y-14394714D01*
X15580714Y-14680429D02*
X15552143Y-14694714D01*
X15495000Y-14694714D01*
X15466428Y-14680429D01*
X15452143Y-14651857D01*
X15452143Y-14537571D01*
X15466428Y-14509000D01*
X15495000Y-14494714D01*
X15552143Y-14494714D01*
X15580714Y-14509000D01*
X15595000Y-14537571D01*
X15595000Y-14566143D01*
X15452143Y-14594714D01*
X15709286Y-14680429D02*
X15737857Y-14694714D01*
X15795000Y-14694714D01*
X15823571Y-14680429D01*
X15837857Y-14651857D01*
X15837857Y-14637571D01*
X15823571Y-14609000D01*
X15795000Y-14594714D01*
X15752143Y-14594714D01*
X15723571Y-14580429D01*
X15709286Y-14551857D01*
X15709286Y-14537571D01*
X15723571Y-14509000D01*
X15752143Y-14494714D01*
X15795000Y-14494714D01*
X15823571Y-14509000D01*
X15937857Y-14809000D02*
X15952143Y-14794714D01*
X15980714Y-14751857D01*
X15995000Y-14723286D01*
X16009286Y-14680429D01*
X16023571Y-14609000D01*
X16023571Y-14551857D01*
X16009286Y-14480429D01*
X15995000Y-14437571D01*
X15980714Y-14409000D01*
X15952143Y-14366143D01*
X15937857Y-14351857D01*
X8880000Y-14955000D02*
G75*
G03*
X8880000Y-14955000I-20000J0D01*
G01*
X9223571Y-14790714D02*
X9252143Y-14790714D01*
X9280714Y-14805000D01*
X9295000Y-14819286D01*
X9309286Y-14847857D01*
X9323571Y-14905000D01*
X9323571Y-14976429D01*
X9309286Y-15033571D01*
X9295000Y-15062143D01*
X9280714Y-15076429D01*
X9252143Y-15090714D01*
X9223571Y-15090714D01*
X9195000Y-15076429D01*
X9180714Y-15062143D01*
X9166428Y-15033571D01*
X9152143Y-14976429D01*
X9152143Y-14905000D01*
X9166428Y-14847857D01*
X9180714Y-14819286D01*
X9195000Y-14805000D01*
X9223571Y-14790714D01*
X9452143Y-15062143D02*
X9466428Y-15076429D01*
X9452143Y-15090714D01*
X9437857Y-15076429D01*
X9452143Y-15062143D01*
X9452143Y-15090714D01*
X9723571Y-14890714D02*
X9723571Y-15090714D01*
X9652143Y-14776429D02*
X9580714Y-14990714D01*
X9766428Y-14990714D01*
X9937857Y-14790714D02*
X9966428Y-14790714D01*
X9995000Y-14805000D01*
X10009286Y-14819286D01*
X10023571Y-14847857D01*
X10037857Y-14905000D01*
X10037857Y-14976429D01*
X10023571Y-15033571D01*
X10009286Y-15062143D01*
X9995000Y-15076429D01*
X9966428Y-15090714D01*
X9937857Y-15090714D01*
X9909286Y-15076429D01*
X9895000Y-15062143D01*
X9880714Y-15033571D01*
X9866428Y-14976429D01*
X9866428Y-14905000D01*
X9880714Y-14847857D01*
X9895000Y-14819286D01*
X9909286Y-14805000D01*
X9937857Y-14790714D01*
X10223571Y-14790714D02*
X10252143Y-14790714D01*
X10280714Y-14805000D01*
X10295000Y-14819286D01*
X10309286Y-14847857D01*
X10323571Y-14905000D01*
X10323571Y-14976429D01*
X10309286Y-15033571D01*
X10295000Y-15062143D01*
X10280714Y-15076429D01*
X10252143Y-15090714D01*
X10223571Y-15090714D01*
X10195000Y-15076429D01*
X10180714Y-15062143D01*
X10166428Y-15033571D01*
X10152143Y-14976429D01*
X10152143Y-14905000D01*
X10166428Y-14847857D01*
X10180714Y-14819286D01*
X10195000Y-14805000D01*
X10223571Y-14790714D01*
X10452143Y-15090714D02*
X10452143Y-14890714D01*
X10452143Y-14919286D02*
X10466428Y-14905000D01*
X10495000Y-14890714D01*
X10537857Y-14890714D01*
X10566428Y-14905000D01*
X10580714Y-14933571D01*
X10580714Y-15090714D01*
X10580714Y-14933571D02*
X10595000Y-14905000D01*
X10623571Y-14890714D01*
X10666428Y-14890714D01*
X10695000Y-14905000D01*
X10709286Y-14933571D01*
X10709286Y-15090714D01*
X10852143Y-15090714D02*
X10852143Y-14890714D01*
X10852143Y-14919286D02*
X10866428Y-14905000D01*
X10895000Y-14890714D01*
X10937857Y-14890714D01*
X10966428Y-14905000D01*
X10980714Y-14933571D01*
X10980714Y-15090714D01*
X10980714Y-14933571D02*
X10995000Y-14905000D01*
X11023571Y-14890714D01*
X11066428Y-14890714D01*
X11095000Y-14905000D01*
X11109286Y-14933571D01*
X11109286Y-15090714D01*
X11695000Y-14776429D02*
X11437857Y-15162143D01*
X12080714Y-14790714D02*
X12109286Y-14790714D01*
X12137857Y-14805000D01*
X12152143Y-14819286D01*
X12166428Y-14847857D01*
X12180714Y-14905000D01*
X12180714Y-14976429D01*
X12166428Y-15033571D01*
X12152143Y-15062143D01*
X12137857Y-15076429D01*
X12109286Y-15090714D01*
X12080714Y-15090714D01*
X12052143Y-15076429D01*
X12037857Y-15062143D01*
X12023571Y-15033571D01*
X12009286Y-14976429D01*
X12009286Y-14905000D01*
X12023571Y-14847857D01*
X12037857Y-14819286D01*
X12052143Y-14805000D01*
X12080714Y-14790714D01*
X12309286Y-15062143D02*
X12323571Y-15076429D01*
X12309286Y-15090714D01*
X12295000Y-15076429D01*
X12309286Y-15062143D01*
X12309286Y-15090714D01*
X12509286Y-14790714D02*
X12537857Y-14790714D01*
X12566428Y-14805000D01*
X12580714Y-14819286D01*
X12595000Y-14847857D01*
X12609286Y-14905000D01*
X12609286Y-14976429D01*
X12595000Y-15033571D01*
X12580714Y-15062143D01*
X12566428Y-15076429D01*
X12537857Y-15090714D01*
X12509286Y-15090714D01*
X12480714Y-15076429D01*
X12466428Y-15062143D01*
X12452143Y-15033571D01*
X12437857Y-14976429D01*
X12437857Y-14905000D01*
X12452143Y-14847857D01*
X12466428Y-14819286D01*
X12480714Y-14805000D01*
X12509286Y-14790714D01*
X12895000Y-15090714D02*
X12723571Y-15090714D01*
X12809286Y-15090714D02*
X12809286Y-14790714D01*
X12780714Y-14833571D01*
X12752143Y-14862143D01*
X12723571Y-14876429D01*
X13166428Y-14790714D02*
X13023571Y-14790714D01*
X13009286Y-14933571D01*
X13023571Y-14919286D01*
X13052143Y-14905000D01*
X13123571Y-14905000D01*
X13152143Y-14919286D01*
X13166428Y-14933571D01*
X13180714Y-14962143D01*
X13180714Y-15033571D01*
X13166428Y-15062143D01*
X13152143Y-15076429D01*
X13123571Y-15090714D01*
X13052143Y-15090714D01*
X13023571Y-15076429D01*
X13009286Y-15062143D01*
X13280714Y-14790714D02*
X13480714Y-14790714D01*
X13352143Y-15090714D01*
X13580714Y-14790714D02*
X13580714Y-14847857D01*
X13695000Y-14790714D02*
X13695000Y-14847857D01*
X14137857Y-15205000D02*
X14123571Y-15190714D01*
X14095000Y-15147857D01*
X14080714Y-15119286D01*
X14066428Y-15076429D01*
X14052143Y-15005000D01*
X14052143Y-14947857D01*
X14066428Y-14876429D01*
X14080714Y-14833571D01*
X14095000Y-14805000D01*
X14123571Y-14762143D01*
X14137857Y-14747857D01*
X14295000Y-14919286D02*
X14266428Y-14905000D01*
X14252143Y-14890714D01*
X14237857Y-14862143D01*
X14237857Y-14847857D01*
X14252143Y-14819286D01*
X14266428Y-14805000D01*
X14295000Y-14790714D01*
X14352143Y-14790714D01*
X14380714Y-14805000D01*
X14395000Y-14819286D01*
X14409286Y-14847857D01*
X14409286Y-14862143D01*
X14395000Y-14890714D01*
X14380714Y-14905000D01*
X14352143Y-14919286D01*
X14295000Y-14919286D01*
X14266428Y-14933571D01*
X14252143Y-14947857D01*
X14237857Y-14976429D01*
X14237857Y-15033571D01*
X14252143Y-15062143D01*
X14266428Y-15076429D01*
X14295000Y-15090714D01*
X14352143Y-15090714D01*
X14380714Y-15076429D01*
X14395000Y-15062143D01*
X14409286Y-15033571D01*
X14409286Y-14976429D01*
X14395000Y-14947857D01*
X14380714Y-14933571D01*
X14352143Y-14919286D01*
X14595000Y-14790714D02*
X14623571Y-14790714D01*
X14652143Y-14805000D01*
X14666428Y-14819286D01*
X14680714Y-14847857D01*
X14695000Y-14905000D01*
X14695000Y-14976429D01*
X14680714Y-15033571D01*
X14666428Y-15062143D01*
X14652143Y-15076429D01*
X14623571Y-15090714D01*
X14595000Y-15090714D01*
X14566428Y-15076429D01*
X14552143Y-15062143D01*
X14537857Y-15033571D01*
X14523571Y-14976429D01*
X14523571Y-14905000D01*
X14537857Y-14847857D01*
X14552143Y-14819286D01*
X14566428Y-14805000D01*
X14595000Y-14790714D01*
X14952143Y-14790714D02*
X14895000Y-14790714D01*
X14866428Y-14805000D01*
X14852143Y-14819286D01*
X14823571Y-14862143D01*
X14809286Y-14919286D01*
X14809286Y-15033571D01*
X14823571Y-15062143D01*
X14837857Y-15076429D01*
X14866428Y-15090714D01*
X14923571Y-15090714D01*
X14952143Y-15076429D01*
X14966428Y-15062143D01*
X14980714Y-15033571D01*
X14980714Y-14962143D01*
X14966428Y-14933571D01*
X14952143Y-14919286D01*
X14923571Y-14905000D01*
X14866428Y-14905000D01*
X14837857Y-14919286D01*
X14823571Y-14933571D01*
X14809286Y-14962143D01*
X15337857Y-15090714D02*
X15337857Y-14790714D01*
X15466428Y-15090714D02*
X15466428Y-14933571D01*
X15452143Y-14905000D01*
X15423571Y-14890714D01*
X15380714Y-14890714D01*
X15352143Y-14905000D01*
X15337857Y-14919286D01*
X15652143Y-15090714D02*
X15623571Y-15076429D01*
X15609286Y-15062143D01*
X15595000Y-15033571D01*
X15595000Y-14947857D01*
X15609286Y-14919286D01*
X15623571Y-14905000D01*
X15652143Y-14890714D01*
X15695000Y-14890714D01*
X15723571Y-14905000D01*
X15737857Y-14919286D01*
X15752143Y-14947857D01*
X15752143Y-15033571D01*
X15737857Y-15062143D01*
X15723571Y-15076429D01*
X15695000Y-15090714D01*
X15652143Y-15090714D01*
X15923571Y-15090714D02*
X15895000Y-15076429D01*
X15880714Y-15047857D01*
X15880714Y-14790714D01*
X16152143Y-15076429D02*
X16123571Y-15090714D01*
X16066428Y-15090714D01*
X16037857Y-15076429D01*
X16023571Y-15047857D01*
X16023571Y-14933571D01*
X16037857Y-14905000D01*
X16066428Y-14890714D01*
X16123571Y-14890714D01*
X16152143Y-14905000D01*
X16166428Y-14933571D01*
X16166428Y-14962143D01*
X16023571Y-14990714D01*
X16280714Y-15076429D02*
X16309286Y-15090714D01*
X16366428Y-15090714D01*
X16395000Y-15076429D01*
X16409286Y-15047857D01*
X16409286Y-15033571D01*
X16395000Y-15005000D01*
X16366428Y-14990714D01*
X16323571Y-14990714D01*
X16295000Y-14976429D01*
X16280714Y-14947857D01*
X16280714Y-14933571D01*
X16295000Y-14905000D01*
X16323571Y-14890714D01*
X16366428Y-14890714D01*
X16395000Y-14905000D01*
X16509286Y-15205000D02*
X16523571Y-15190714D01*
X16552143Y-15147857D01*
X16566428Y-15119286D01*
X16580714Y-15076429D01*
X16595000Y-15005000D01*
X16595000Y-14947857D01*
X16580714Y-14876429D01*
X16566428Y-14833571D01*
X16552143Y-14805000D01*
X16523571Y-14762143D01*
X16509286Y-14747857D01*
X8855000Y-15326000D02*
X8855000Y-15376000D01*
X8830000Y-15351000D02*
X8880000Y-15351000D01*
X9223571Y-15186714D02*
X9252143Y-15186714D01*
X9280714Y-15201000D01*
X9295000Y-15215286D01*
X9309286Y-15243857D01*
X9323571Y-15301000D01*
X9323571Y-15372429D01*
X9309286Y-15429571D01*
X9295000Y-15458143D01*
X9280714Y-15472429D01*
X9252143Y-15486714D01*
X9223571Y-15486714D01*
X9195000Y-15472429D01*
X9180714Y-15458143D01*
X9166428Y-15429571D01*
X9152143Y-15372429D01*
X9152143Y-15301000D01*
X9166428Y-15243857D01*
X9180714Y-15215286D01*
X9195000Y-15201000D01*
X9223571Y-15186714D01*
X9452143Y-15458143D02*
X9466428Y-15472429D01*
X9452143Y-15486714D01*
X9437857Y-15472429D01*
X9452143Y-15458143D01*
X9452143Y-15486714D01*
X9737857Y-15186714D02*
X9595000Y-15186714D01*
X9580714Y-15329571D01*
X9595000Y-15315286D01*
X9623571Y-15301000D01*
X9695000Y-15301000D01*
X9723571Y-15315286D01*
X9737857Y-15329571D01*
X9752143Y-15358143D01*
X9752143Y-15429571D01*
X9737857Y-15458143D01*
X9723571Y-15472429D01*
X9695000Y-15486714D01*
X9623571Y-15486714D01*
X9595000Y-15472429D01*
X9580714Y-15458143D01*
X9937857Y-15186714D02*
X9966428Y-15186714D01*
X9995000Y-15201000D01*
X10009286Y-15215286D01*
X10023571Y-15243857D01*
X10037857Y-15301000D01*
X10037857Y-15372429D01*
X10023571Y-15429571D01*
X10009286Y-15458143D01*
X9995000Y-15472429D01*
X9966428Y-15486714D01*
X9937857Y-15486714D01*
X9909286Y-15472429D01*
X9895000Y-15458143D01*
X9880714Y-15429571D01*
X9866428Y-15372429D01*
X9866428Y-15301000D01*
X9880714Y-15243857D01*
X9895000Y-15215286D01*
X9909286Y-15201000D01*
X9937857Y-15186714D01*
X10223571Y-15186714D02*
X10252143Y-15186714D01*
X10280714Y-15201000D01*
X10295000Y-15215286D01*
X10309286Y-15243857D01*
X10323571Y-15301000D01*
X10323571Y-15372429D01*
X10309286Y-15429571D01*
X10295000Y-15458143D01*
X10280714Y-15472429D01*
X10252143Y-15486714D01*
X10223571Y-15486714D01*
X10195000Y-15472429D01*
X10180714Y-15458143D01*
X10166428Y-15429571D01*
X10152143Y-15372429D01*
X10152143Y-15301000D01*
X10166428Y-15243857D01*
X10180714Y-15215286D01*
X10195000Y-15201000D01*
X10223571Y-15186714D01*
X10452143Y-15486714D02*
X10452143Y-15286714D01*
X10452143Y-15315286D02*
X10466428Y-15301000D01*
X10495000Y-15286714D01*
X10537857Y-15286714D01*
X10566428Y-15301000D01*
X10580714Y-15329571D01*
X10580714Y-15486714D01*
X10580714Y-15329571D02*
X10595000Y-15301000D01*
X10623571Y-15286714D01*
X10666428Y-15286714D01*
X10695000Y-15301000D01*
X10709286Y-15329571D01*
X10709286Y-15486714D01*
X10852143Y-15486714D02*
X10852143Y-15286714D01*
X10852143Y-15315286D02*
X10866428Y-15301000D01*
X10895000Y-15286714D01*
X10937857Y-15286714D01*
X10966428Y-15301000D01*
X10980714Y-15329571D01*
X10980714Y-15486714D01*
X10980714Y-15329571D02*
X10995000Y-15301000D01*
X11023571Y-15286714D01*
X11066428Y-15286714D01*
X11095000Y-15301000D01*
X11109286Y-15329571D01*
X11109286Y-15486714D01*
X11695000Y-15172429D02*
X11437857Y-15558143D01*
X12080714Y-15186714D02*
X12109286Y-15186714D01*
X12137857Y-15201000D01*
X12152143Y-15215286D01*
X12166428Y-15243857D01*
X12180714Y-15301000D01*
X12180714Y-15372429D01*
X12166428Y-15429571D01*
X12152143Y-15458143D01*
X12137857Y-15472429D01*
X12109286Y-15486714D01*
X12080714Y-15486714D01*
X12052143Y-15472429D01*
X12037857Y-15458143D01*
X12023571Y-15429571D01*
X12009286Y-15372429D01*
X12009286Y-15301000D01*
X12023571Y-15243857D01*
X12037857Y-15215286D01*
X12052143Y-15201000D01*
X12080714Y-15186714D01*
X12309286Y-15458143D02*
X12323571Y-15472429D01*
X12309286Y-15486714D01*
X12295000Y-15472429D01*
X12309286Y-15458143D01*
X12309286Y-15486714D01*
X12509286Y-15186714D02*
X12537857Y-15186714D01*
X12566428Y-15201000D01*
X12580714Y-15215286D01*
X12595000Y-15243857D01*
X12609286Y-15301000D01*
X12609286Y-15372429D01*
X12595000Y-15429571D01*
X12580714Y-15458143D01*
X12566428Y-15472429D01*
X12537857Y-15486714D01*
X12509286Y-15486714D01*
X12480714Y-15472429D01*
X12466428Y-15458143D01*
X12452143Y-15429571D01*
X12437857Y-15372429D01*
X12437857Y-15301000D01*
X12452143Y-15243857D01*
X12466428Y-15215286D01*
X12480714Y-15201000D01*
X12509286Y-15186714D01*
X12895000Y-15486714D02*
X12723571Y-15486714D01*
X12809286Y-15486714D02*
X12809286Y-15186714D01*
X12780714Y-15229571D01*
X12752143Y-15258143D01*
X12723571Y-15272429D01*
X13037857Y-15486714D02*
X13095000Y-15486714D01*
X13123571Y-15472429D01*
X13137857Y-15458143D01*
X13166428Y-15415286D01*
X13180714Y-15358143D01*
X13180714Y-15243857D01*
X13166428Y-15215286D01*
X13152143Y-15201000D01*
X13123571Y-15186714D01*
X13066428Y-15186714D01*
X13037857Y-15201000D01*
X13023571Y-15215286D01*
X13009286Y-15243857D01*
X13009286Y-15315286D01*
X13023571Y-15343857D01*
X13037857Y-15358143D01*
X13066428Y-15372429D01*
X13123571Y-15372429D01*
X13152143Y-15358143D01*
X13166428Y-15343857D01*
X13180714Y-15315286D01*
X13280714Y-15186714D02*
X13480714Y-15186714D01*
X13352143Y-15486714D01*
X13580714Y-15186714D02*
X13580714Y-15243857D01*
X13695000Y-15186714D02*
X13695000Y-15243857D01*
X14137857Y-15601000D02*
X14123571Y-15586714D01*
X14095000Y-15543857D01*
X14080714Y-15515286D01*
X14066428Y-15472429D01*
X14052143Y-15401000D01*
X14052143Y-15343857D01*
X14066428Y-15272429D01*
X14080714Y-15229571D01*
X14095000Y-15201000D01*
X14123571Y-15158143D01*
X14137857Y-15143857D01*
X14309286Y-15186714D02*
X14337857Y-15186714D01*
X14366428Y-15201000D01*
X14380714Y-15215286D01*
X14395000Y-15243857D01*
X14409286Y-15301000D01*
X14409286Y-15372429D01*
X14395000Y-15429571D01*
X14380714Y-15458143D01*
X14366428Y-15472429D01*
X14337857Y-15486714D01*
X14309286Y-15486714D01*
X14280714Y-15472429D01*
X14266428Y-15458143D01*
X14252143Y-15429571D01*
X14237857Y-15372429D01*
X14237857Y-15301000D01*
X14252143Y-15243857D01*
X14266428Y-15215286D01*
X14280714Y-15201000D01*
X14309286Y-15186714D01*
X14766428Y-15486714D02*
X14766428Y-15186714D01*
X14895000Y-15486714D02*
X14895000Y-15329571D01*
X14880714Y-15301000D01*
X14852143Y-15286714D01*
X14809286Y-15286714D01*
X14780714Y-15301000D01*
X14766428Y-15315286D01*
X15080714Y-15486714D02*
X15052143Y-15472429D01*
X15037857Y-15458143D01*
X15023571Y-15429571D01*
X15023571Y-15343857D01*
X15037857Y-15315286D01*
X15052143Y-15301000D01*
X15080714Y-15286714D01*
X15123571Y-15286714D01*
X15152143Y-15301000D01*
X15166428Y-15315286D01*
X15180714Y-15343857D01*
X15180714Y-15429571D01*
X15166428Y-15458143D01*
X15152143Y-15472429D01*
X15123571Y-15486714D01*
X15080714Y-15486714D01*
X15352143Y-15486714D02*
X15323571Y-15472429D01*
X15309286Y-15443857D01*
X15309286Y-15186714D01*
X15580714Y-15472429D02*
X15552143Y-15486714D01*
X15495000Y-15486714D01*
X15466428Y-15472429D01*
X15452143Y-15443857D01*
X15452143Y-15329571D01*
X15466428Y-15301000D01*
X15495000Y-15286714D01*
X15552143Y-15286714D01*
X15580714Y-15301000D01*
X15595000Y-15329571D01*
X15595000Y-15358143D01*
X15452143Y-15386714D01*
X15709286Y-15472429D02*
X15737857Y-15486714D01*
X15795000Y-15486714D01*
X15823571Y-15472429D01*
X15837857Y-15443857D01*
X15837857Y-15429571D01*
X15823571Y-15401000D01*
X15795000Y-15386714D01*
X15752143Y-15386714D01*
X15723571Y-15372429D01*
X15709286Y-15343857D01*
X15709286Y-15329571D01*
X15723571Y-15301000D01*
X15752143Y-15286714D01*
X15795000Y-15286714D01*
X15823571Y-15301000D01*
X16195000Y-15372429D02*
X16423571Y-15372429D01*
X16309286Y-15486714D02*
X16309286Y-15258143D01*
X16780714Y-15215286D02*
X16795000Y-15201000D01*
X16823571Y-15186714D01*
X16895000Y-15186714D01*
X16923571Y-15201000D01*
X16937857Y-15215286D01*
X16952143Y-15243857D01*
X16952143Y-15272429D01*
X16937857Y-15315286D01*
X16766428Y-15486714D01*
X16952143Y-15486714D01*
X17295000Y-15472429D02*
X17323571Y-15486714D01*
X17380714Y-15486714D01*
X17409286Y-15472429D01*
X17423571Y-15443857D01*
X17423571Y-15429571D01*
X17409286Y-15401000D01*
X17380714Y-15386714D01*
X17337857Y-15386714D01*
X17309286Y-15372429D01*
X17295000Y-15343857D01*
X17295000Y-15329571D01*
X17309286Y-15301000D01*
X17337857Y-15286714D01*
X17380714Y-15286714D01*
X17409286Y-15301000D01*
X17595000Y-15486714D02*
X17566428Y-15472429D01*
X17552143Y-15443857D01*
X17552143Y-15186714D01*
X17752143Y-15486714D02*
X17723571Y-15472429D01*
X17709286Y-15458143D01*
X17695000Y-15429571D01*
X17695000Y-15343857D01*
X17709286Y-15315286D01*
X17723571Y-15301000D01*
X17752143Y-15286714D01*
X17795000Y-15286714D01*
X17823571Y-15301000D01*
X17837857Y-15315286D01*
X17852143Y-15343857D01*
X17852143Y-15429571D01*
X17837857Y-15458143D01*
X17823571Y-15472429D01*
X17795000Y-15486714D01*
X17752143Y-15486714D01*
X17937857Y-15286714D02*
X18052143Y-15286714D01*
X17980714Y-15186714D02*
X17980714Y-15443857D01*
X17995000Y-15472429D01*
X18023571Y-15486714D01*
X18052143Y-15486714D01*
X18137857Y-15472429D02*
X18166428Y-15486714D01*
X18223571Y-15486714D01*
X18252143Y-15472429D01*
X18266428Y-15443857D01*
X18266428Y-15429571D01*
X18252143Y-15401000D01*
X18223571Y-15386714D01*
X18180714Y-15386714D01*
X18152143Y-15372429D01*
X18137857Y-15343857D01*
X18137857Y-15329571D01*
X18152143Y-15301000D01*
X18180714Y-15286714D01*
X18223571Y-15286714D01*
X18252143Y-15301000D01*
X18366428Y-15601000D02*
X18380714Y-15586714D01*
X18409286Y-15543857D01*
X18423571Y-15515286D01*
X18437857Y-15472429D01*
X18452143Y-15401000D01*
X18452143Y-15343857D01*
X18437857Y-15272429D01*
X18423571Y-15229571D01*
X18409286Y-15201000D01*
X18380714Y-15158143D01*
X18366428Y-15143857D01*
X8871946Y-15766446D02*
X8871946Y-15727554D01*
X8833054Y-15727554D01*
X8833054Y-15766446D01*
X8871946Y-15766446D01*
X9223571Y-15582714D02*
X9252143Y-15582714D01*
X9280714Y-15597000D01*
X9295000Y-15611286D01*
X9309286Y-15639857D01*
X9323571Y-15697000D01*
X9323571Y-15768429D01*
X9309286Y-15825571D01*
X9295000Y-15854143D01*
X9280714Y-15868429D01*
X9252143Y-15882714D01*
X9223571Y-15882714D01*
X9195000Y-15868429D01*
X9180714Y-15854143D01*
X9166428Y-15825571D01*
X9152143Y-15768429D01*
X9152143Y-15697000D01*
X9166428Y-15639857D01*
X9180714Y-15611286D01*
X9195000Y-15597000D01*
X9223571Y-15582714D01*
X9452143Y-15854143D02*
X9466428Y-15868429D01*
X9452143Y-15882714D01*
X9437857Y-15868429D01*
X9452143Y-15854143D01*
X9452143Y-15882714D01*
X9737857Y-15582714D02*
X9595000Y-15582714D01*
X9580714Y-15725571D01*
X9595000Y-15711286D01*
X9623571Y-15697000D01*
X9695000Y-15697000D01*
X9723571Y-15711286D01*
X9737857Y-15725571D01*
X9752143Y-15754143D01*
X9752143Y-15825571D01*
X9737857Y-15854143D01*
X9723571Y-15868429D01*
X9695000Y-15882714D01*
X9623571Y-15882714D01*
X9595000Y-15868429D01*
X9580714Y-15854143D01*
X10023571Y-15582714D02*
X9880714Y-15582714D01*
X9866428Y-15725571D01*
X9880714Y-15711286D01*
X9909286Y-15697000D01*
X9980714Y-15697000D01*
X10009286Y-15711286D01*
X10023571Y-15725571D01*
X10037857Y-15754143D01*
X10037857Y-15825571D01*
X10023571Y-15854143D01*
X10009286Y-15868429D01*
X9980714Y-15882714D01*
X9909286Y-15882714D01*
X9880714Y-15868429D01*
X9866428Y-15854143D01*
X10223571Y-15582714D02*
X10252143Y-15582714D01*
X10280714Y-15597000D01*
X10295000Y-15611286D01*
X10309286Y-15639857D01*
X10323571Y-15697000D01*
X10323571Y-15768429D01*
X10309286Y-15825571D01*
X10295000Y-15854143D01*
X10280714Y-15868429D01*
X10252143Y-15882714D01*
X10223571Y-15882714D01*
X10195000Y-15868429D01*
X10180714Y-15854143D01*
X10166428Y-15825571D01*
X10152143Y-15768429D01*
X10152143Y-15697000D01*
X10166428Y-15639857D01*
X10180714Y-15611286D01*
X10195000Y-15597000D01*
X10223571Y-15582714D01*
X10452143Y-15882714D02*
X10452143Y-15682714D01*
X10452143Y-15711286D02*
X10466428Y-15697000D01*
X10495000Y-15682714D01*
X10537857Y-15682714D01*
X10566428Y-15697000D01*
X10580714Y-15725571D01*
X10580714Y-15882714D01*
X10580714Y-15725571D02*
X10595000Y-15697000D01*
X10623571Y-15682714D01*
X10666428Y-15682714D01*
X10695000Y-15697000D01*
X10709286Y-15725571D01*
X10709286Y-15882714D01*
X10852143Y-15882714D02*
X10852143Y-15682714D01*
X10852143Y-15711286D02*
X10866428Y-15697000D01*
X10895000Y-15682714D01*
X10937857Y-15682714D01*
X10966428Y-15697000D01*
X10980714Y-15725571D01*
X10980714Y-15882714D01*
X10980714Y-15725571D02*
X10995000Y-15697000D01*
X11023571Y-15682714D01*
X11066428Y-15682714D01*
X11095000Y-15697000D01*
X11109286Y-15725571D01*
X11109286Y-15882714D01*
X11695000Y-15568429D02*
X11437857Y-15954143D01*
X12080714Y-15582714D02*
X12109286Y-15582714D01*
X12137857Y-15597000D01*
X12152143Y-15611286D01*
X12166428Y-15639857D01*
X12180714Y-15697000D01*
X12180714Y-15768429D01*
X12166428Y-15825571D01*
X12152143Y-15854143D01*
X12137857Y-15868429D01*
X12109286Y-15882714D01*
X12080714Y-15882714D01*
X12052143Y-15868429D01*
X12037857Y-15854143D01*
X12023571Y-15825571D01*
X12009286Y-15768429D01*
X12009286Y-15697000D01*
X12023571Y-15639857D01*
X12037857Y-15611286D01*
X12052143Y-15597000D01*
X12080714Y-15582714D01*
X12309286Y-15854143D02*
X12323571Y-15868429D01*
X12309286Y-15882714D01*
X12295000Y-15868429D01*
X12309286Y-15854143D01*
X12309286Y-15882714D01*
X12509286Y-15582714D02*
X12537857Y-15582714D01*
X12566428Y-15597000D01*
X12580714Y-15611286D01*
X12595000Y-15639857D01*
X12609286Y-15697000D01*
X12609286Y-15768429D01*
X12595000Y-15825571D01*
X12580714Y-15854143D01*
X12566428Y-15868429D01*
X12537857Y-15882714D01*
X12509286Y-15882714D01*
X12480714Y-15868429D01*
X12466428Y-15854143D01*
X12452143Y-15825571D01*
X12437857Y-15768429D01*
X12437857Y-15697000D01*
X12452143Y-15639857D01*
X12466428Y-15611286D01*
X12480714Y-15597000D01*
X12509286Y-15582714D01*
X12723571Y-15611286D02*
X12737857Y-15597000D01*
X12766428Y-15582714D01*
X12837857Y-15582714D01*
X12866428Y-15597000D01*
X12880714Y-15611286D01*
X12895000Y-15639857D01*
X12895000Y-15668429D01*
X12880714Y-15711286D01*
X12709286Y-15882714D01*
X12895000Y-15882714D01*
X13180714Y-15882714D02*
X13009286Y-15882714D01*
X13095000Y-15882714D02*
X13095000Y-15582714D01*
X13066428Y-15625571D01*
X13037857Y-15654143D01*
X13009286Y-15668429D01*
X13280714Y-15582714D02*
X13480714Y-15582714D01*
X13352143Y-15882714D01*
X13580714Y-15582714D02*
X13580714Y-15639857D01*
X13695000Y-15582714D02*
X13695000Y-15639857D01*
X14137857Y-15997000D02*
X14123571Y-15982714D01*
X14095000Y-15939857D01*
X14080714Y-15911286D01*
X14066428Y-15868429D01*
X14052143Y-15797000D01*
X14052143Y-15739857D01*
X14066428Y-15668429D01*
X14080714Y-15625571D01*
X14095000Y-15597000D01*
X14123571Y-15554143D01*
X14137857Y-15539857D01*
X14309286Y-15582714D02*
X14337857Y-15582714D01*
X14366428Y-15597000D01*
X14380714Y-15611286D01*
X14395000Y-15639857D01*
X14409286Y-15697000D01*
X14409286Y-15768429D01*
X14395000Y-15825571D01*
X14380714Y-15854143D01*
X14366428Y-15868429D01*
X14337857Y-15882714D01*
X14309286Y-15882714D01*
X14280714Y-15868429D01*
X14266428Y-15854143D01*
X14252143Y-15825571D01*
X14237857Y-15768429D01*
X14237857Y-15697000D01*
X14252143Y-15639857D01*
X14266428Y-15611286D01*
X14280714Y-15597000D01*
X14309286Y-15582714D01*
X14766428Y-15882714D02*
X14766428Y-15582714D01*
X14895000Y-15882714D02*
X14895000Y-15725571D01*
X14880714Y-15697000D01*
X14852143Y-15682714D01*
X14809286Y-15682714D01*
X14780714Y-15697000D01*
X14766428Y-15711286D01*
X15080714Y-15882714D02*
X15052143Y-15868429D01*
X15037857Y-15854143D01*
X15023571Y-15825571D01*
X15023571Y-15739857D01*
X15037857Y-15711286D01*
X15052143Y-15697000D01*
X15080714Y-15682714D01*
X15123571Y-15682714D01*
X15152143Y-15697000D01*
X15166428Y-15711286D01*
X15180714Y-15739857D01*
X15180714Y-15825571D01*
X15166428Y-15854143D01*
X15152143Y-15868429D01*
X15123571Y-15882714D01*
X15080714Y-15882714D01*
X15352143Y-15882714D02*
X15323571Y-15868429D01*
X15309286Y-15839857D01*
X15309286Y-15582714D01*
X15580714Y-15868429D02*
X15552143Y-15882714D01*
X15495000Y-15882714D01*
X15466428Y-15868429D01*
X15452143Y-15839857D01*
X15452143Y-15725571D01*
X15466428Y-15697000D01*
X15495000Y-15682714D01*
X15552143Y-15682714D01*
X15580714Y-15697000D01*
X15595000Y-15725571D01*
X15595000Y-15754143D01*
X15452143Y-15782714D01*
X15709286Y-15868429D02*
X15737857Y-15882714D01*
X15795000Y-15882714D01*
X15823571Y-15868429D01*
X15837857Y-15839857D01*
X15837857Y-15825571D01*
X15823571Y-15797000D01*
X15795000Y-15782714D01*
X15752143Y-15782714D01*
X15723571Y-15768429D01*
X15709286Y-15739857D01*
X15709286Y-15725571D01*
X15723571Y-15697000D01*
X15752143Y-15682714D01*
X15795000Y-15682714D01*
X15823571Y-15697000D01*
X16195000Y-15768429D02*
X16423571Y-15768429D01*
X16309286Y-15882714D02*
X16309286Y-15654143D01*
X16780714Y-15611286D02*
X16795000Y-15597000D01*
X16823571Y-15582714D01*
X16895000Y-15582714D01*
X16923571Y-15597000D01*
X16937857Y-15611286D01*
X16952143Y-15639857D01*
X16952143Y-15668429D01*
X16937857Y-15711286D01*
X16766428Y-15882714D01*
X16952143Y-15882714D01*
X17295000Y-15868429D02*
X17323571Y-15882714D01*
X17380714Y-15882714D01*
X17409286Y-15868429D01*
X17423571Y-15839857D01*
X17423571Y-15825571D01*
X17409286Y-15797000D01*
X17380714Y-15782714D01*
X17337857Y-15782714D01*
X17309286Y-15768429D01*
X17295000Y-15739857D01*
X17295000Y-15725571D01*
X17309286Y-15697000D01*
X17337857Y-15682714D01*
X17380714Y-15682714D01*
X17409286Y-15697000D01*
X17595000Y-15882714D02*
X17566428Y-15868429D01*
X17552143Y-15839857D01*
X17552143Y-15582714D01*
X17752143Y-15882714D02*
X17723571Y-15868429D01*
X17709286Y-15854143D01*
X17695000Y-15825571D01*
X17695000Y-15739857D01*
X17709286Y-15711286D01*
X17723571Y-15697000D01*
X17752143Y-15682714D01*
X17795000Y-15682714D01*
X17823571Y-15697000D01*
X17837857Y-15711286D01*
X17852143Y-15739857D01*
X17852143Y-15825571D01*
X17837857Y-15854143D01*
X17823571Y-15868429D01*
X17795000Y-15882714D01*
X17752143Y-15882714D01*
X17937857Y-15682714D02*
X18052143Y-15682714D01*
X17980714Y-15582714D02*
X17980714Y-15839857D01*
X17995000Y-15868429D01*
X18023571Y-15882714D01*
X18052143Y-15882714D01*
X18137857Y-15868429D02*
X18166428Y-15882714D01*
X18223571Y-15882714D01*
X18252143Y-15868429D01*
X18266428Y-15839857D01*
X18266428Y-15825571D01*
X18252143Y-15797000D01*
X18223571Y-15782714D01*
X18180714Y-15782714D01*
X18152143Y-15768429D01*
X18137857Y-15739857D01*
X18137857Y-15725571D01*
X18152143Y-15697000D01*
X18180714Y-15682714D01*
X18223571Y-15682714D01*
X18252143Y-15697000D01*
X18366428Y-15997000D02*
X18380714Y-15982714D01*
X18409286Y-15939857D01*
X18423571Y-15911286D01*
X18437857Y-15868429D01*
X18452143Y-15797000D01*
X18452143Y-15739857D01*
X18437857Y-15668429D01*
X18423571Y-15625571D01*
X18409286Y-15597000D01*
X18380714Y-15554143D01*
X18366428Y-15539857D01*
X8830000Y-16193000D02*
X8880000Y-16143000D01*
X8830000Y-16093000D01*
X8780000Y-16143000D01*
X8830000Y-16193000D01*
X9323571Y-16278714D02*
X9152143Y-16278714D01*
X9237857Y-16278714D02*
X9237857Y-15978714D01*
X9209286Y-16021571D01*
X9180714Y-16050143D01*
X9152143Y-16064429D01*
X9452143Y-16250143D02*
X9466428Y-16264429D01*
X9452143Y-16278714D01*
X9437857Y-16264429D01*
X9452143Y-16250143D01*
X9452143Y-16278714D01*
X9652143Y-15978714D02*
X9680714Y-15978714D01*
X9709286Y-15993000D01*
X9723571Y-16007286D01*
X9737857Y-16035857D01*
X9752143Y-16093000D01*
X9752143Y-16164429D01*
X9737857Y-16221571D01*
X9723571Y-16250143D01*
X9709286Y-16264429D01*
X9680714Y-16278714D01*
X9652143Y-16278714D01*
X9623571Y-16264429D01*
X9609286Y-16250143D01*
X9595000Y-16221571D01*
X9580714Y-16164429D01*
X9580714Y-16093000D01*
X9595000Y-16035857D01*
X9609286Y-16007286D01*
X9623571Y-15993000D01*
X9652143Y-15978714D01*
X9937857Y-15978714D02*
X9966428Y-15978714D01*
X9995000Y-15993000D01*
X10009286Y-16007286D01*
X10023571Y-16035857D01*
X10037857Y-16093000D01*
X10037857Y-16164429D01*
X10023571Y-16221571D01*
X10009286Y-16250143D01*
X9995000Y-16264429D01*
X9966428Y-16278714D01*
X9937857Y-16278714D01*
X9909286Y-16264429D01*
X9895000Y-16250143D01*
X9880714Y-16221571D01*
X9866428Y-16164429D01*
X9866428Y-16093000D01*
X9880714Y-16035857D01*
X9895000Y-16007286D01*
X9909286Y-15993000D01*
X9937857Y-15978714D01*
X10223571Y-15978714D02*
X10252143Y-15978714D01*
X10280714Y-15993000D01*
X10295000Y-16007286D01*
X10309286Y-16035857D01*
X10323571Y-16093000D01*
X10323571Y-16164429D01*
X10309286Y-16221571D01*
X10295000Y-16250143D01*
X10280714Y-16264429D01*
X10252143Y-16278714D01*
X10223571Y-16278714D01*
X10195000Y-16264429D01*
X10180714Y-16250143D01*
X10166428Y-16221571D01*
X10152143Y-16164429D01*
X10152143Y-16093000D01*
X10166428Y-16035857D01*
X10180714Y-16007286D01*
X10195000Y-15993000D01*
X10223571Y-15978714D01*
X10452143Y-16278714D02*
X10452143Y-16078714D01*
X10452143Y-16107286D02*
X10466428Y-16093000D01*
X10495000Y-16078714D01*
X10537857Y-16078714D01*
X10566428Y-16093000D01*
X10580714Y-16121571D01*
X10580714Y-16278714D01*
X10580714Y-16121571D02*
X10595000Y-16093000D01*
X10623571Y-16078714D01*
X10666428Y-16078714D01*
X10695000Y-16093000D01*
X10709286Y-16121571D01*
X10709286Y-16278714D01*
X10852143Y-16278714D02*
X10852143Y-16078714D01*
X10852143Y-16107286D02*
X10866428Y-16093000D01*
X10895000Y-16078714D01*
X10937857Y-16078714D01*
X10966428Y-16093000D01*
X10980714Y-16121571D01*
X10980714Y-16278714D01*
X10980714Y-16121571D02*
X10995000Y-16093000D01*
X11023571Y-16078714D01*
X11066428Y-16078714D01*
X11095000Y-16093000D01*
X11109286Y-16121571D01*
X11109286Y-16278714D01*
X11695000Y-15964429D02*
X11437857Y-16350143D01*
X12080714Y-15978714D02*
X12109286Y-15978714D01*
X12137857Y-15993000D01*
X12152143Y-16007286D01*
X12166428Y-16035857D01*
X12180714Y-16093000D01*
X12180714Y-16164429D01*
X12166428Y-16221571D01*
X12152143Y-16250143D01*
X12137857Y-16264429D01*
X12109286Y-16278714D01*
X12080714Y-16278714D01*
X12052143Y-16264429D01*
X12037857Y-16250143D01*
X12023571Y-16221571D01*
X12009286Y-16164429D01*
X12009286Y-16093000D01*
X12023571Y-16035857D01*
X12037857Y-16007286D01*
X12052143Y-15993000D01*
X12080714Y-15978714D01*
X12309286Y-16250143D02*
X12323571Y-16264429D01*
X12309286Y-16278714D01*
X12295000Y-16264429D01*
X12309286Y-16250143D01*
X12309286Y-16278714D01*
X12509286Y-15978714D02*
X12537857Y-15978714D01*
X12566428Y-15993000D01*
X12580714Y-16007286D01*
X12595000Y-16035857D01*
X12609286Y-16093000D01*
X12609286Y-16164429D01*
X12595000Y-16221571D01*
X12580714Y-16250143D01*
X12566428Y-16264429D01*
X12537857Y-16278714D01*
X12509286Y-16278714D01*
X12480714Y-16264429D01*
X12466428Y-16250143D01*
X12452143Y-16221571D01*
X12437857Y-16164429D01*
X12437857Y-16093000D01*
X12452143Y-16035857D01*
X12466428Y-16007286D01*
X12480714Y-15993000D01*
X12509286Y-15978714D01*
X12709286Y-15978714D02*
X12895000Y-15978714D01*
X12795000Y-16093000D01*
X12837857Y-16093000D01*
X12866428Y-16107286D01*
X12880714Y-16121571D01*
X12895000Y-16150143D01*
X12895000Y-16221571D01*
X12880714Y-16250143D01*
X12866428Y-16264429D01*
X12837857Y-16278714D01*
X12752143Y-16278714D01*
X12723571Y-16264429D01*
X12709286Y-16250143D01*
X13037857Y-16278714D02*
X13095000Y-16278714D01*
X13123571Y-16264429D01*
X13137857Y-16250143D01*
X13166428Y-16207286D01*
X13180714Y-16150143D01*
X13180714Y-16035857D01*
X13166428Y-16007286D01*
X13152143Y-15993000D01*
X13123571Y-15978714D01*
X13066428Y-15978714D01*
X13037857Y-15993000D01*
X13023571Y-16007286D01*
X13009286Y-16035857D01*
X13009286Y-16107286D01*
X13023571Y-16135857D01*
X13037857Y-16150143D01*
X13066428Y-16164429D01*
X13123571Y-16164429D01*
X13152143Y-16150143D01*
X13166428Y-16135857D01*
X13180714Y-16107286D01*
X13437857Y-16078714D02*
X13437857Y-16278714D01*
X13366428Y-15964429D02*
X13295000Y-16178714D01*
X13480714Y-16178714D01*
X13580714Y-15978714D02*
X13580714Y-16035857D01*
X13695000Y-15978714D02*
X13695000Y-16035857D01*
X14137857Y-16393000D02*
X14123571Y-16378714D01*
X14095000Y-16335857D01*
X14080714Y-16307286D01*
X14066428Y-16264429D01*
X14052143Y-16193000D01*
X14052143Y-16135857D01*
X14066428Y-16064429D01*
X14080714Y-16021571D01*
X14095000Y-15993000D01*
X14123571Y-15950143D01*
X14137857Y-15935857D01*
X14409286Y-16278714D02*
X14237857Y-16278714D01*
X14323571Y-16278714D02*
X14323571Y-15978714D01*
X14295000Y-16021571D01*
X14266428Y-16050143D01*
X14237857Y-16064429D01*
X14666428Y-15978714D02*
X14609286Y-15978714D01*
X14580714Y-15993000D01*
X14566428Y-16007286D01*
X14537857Y-16050143D01*
X14523571Y-16107286D01*
X14523571Y-16221571D01*
X14537857Y-16250143D01*
X14552143Y-16264429D01*
X14580714Y-16278714D01*
X14637857Y-16278714D01*
X14666428Y-16264429D01*
X14680714Y-16250143D01*
X14695000Y-16221571D01*
X14695000Y-16150143D01*
X14680714Y-16121571D01*
X14666428Y-16107286D01*
X14637857Y-16093000D01*
X14580714Y-16093000D01*
X14552143Y-16107286D01*
X14537857Y-16121571D01*
X14523571Y-16150143D01*
X15052143Y-16278714D02*
X15052143Y-15978714D01*
X15180714Y-16278714D02*
X15180714Y-16121571D01*
X15166428Y-16093000D01*
X15137857Y-16078714D01*
X15095000Y-16078714D01*
X15066428Y-16093000D01*
X15052143Y-16107286D01*
X15366428Y-16278714D02*
X15337857Y-16264429D01*
X15323571Y-16250143D01*
X15309286Y-16221571D01*
X15309286Y-16135857D01*
X15323571Y-16107286D01*
X15337857Y-16093000D01*
X15366428Y-16078714D01*
X15409286Y-16078714D01*
X15437857Y-16093000D01*
X15452143Y-16107286D01*
X15466428Y-16135857D01*
X15466428Y-16221571D01*
X15452143Y-16250143D01*
X15437857Y-16264429D01*
X15409286Y-16278714D01*
X15366428Y-16278714D01*
X15637857Y-16278714D02*
X15609286Y-16264429D01*
X15595000Y-16235857D01*
X15595000Y-15978714D01*
X15866428Y-16264429D02*
X15837857Y-16278714D01*
X15780714Y-16278714D01*
X15752143Y-16264429D01*
X15737857Y-16235857D01*
X15737857Y-16121571D01*
X15752143Y-16093000D01*
X15780714Y-16078714D01*
X15837857Y-16078714D01*
X15866428Y-16093000D01*
X15880714Y-16121571D01*
X15880714Y-16150143D01*
X15737857Y-16178714D01*
X15995000Y-16264429D02*
X16023571Y-16278714D01*
X16080714Y-16278714D01*
X16109286Y-16264429D01*
X16123571Y-16235857D01*
X16123571Y-16221571D01*
X16109286Y-16193000D01*
X16080714Y-16178714D01*
X16037857Y-16178714D01*
X16009286Y-16164429D01*
X15995000Y-16135857D01*
X15995000Y-16121571D01*
X16009286Y-16093000D01*
X16037857Y-16078714D01*
X16080714Y-16078714D01*
X16109286Y-16093000D01*
X16223571Y-16393000D02*
X16237857Y-16378714D01*
X16266428Y-16335857D01*
X16280714Y-16307286D01*
X16295000Y-16264429D01*
X16309286Y-16193000D01*
X16309286Y-16135857D01*
X16295000Y-16064429D01*
X16280714Y-16021571D01*
X16266428Y-15993000D01*
X16237857Y-15950143D01*
X16223571Y-15935857D01*
X8750000Y-16474000D02*
X8880000Y-16604000D01*
X8880000Y-16474000D02*
X8750000Y-16604000D01*
X8880000Y-16539000D02*
G75*
G03*
X8880000Y-16539000I-65000J0D01*
G01*
X9323571Y-16674714D02*
X9152143Y-16674714D01*
X9237857Y-16674714D02*
X9237857Y-16374714D01*
X9209286Y-16417571D01*
X9180714Y-16446143D01*
X9152143Y-16460429D01*
X9452143Y-16646143D02*
X9466428Y-16660429D01*
X9452143Y-16674714D01*
X9437857Y-16660429D01*
X9452143Y-16646143D01*
X9452143Y-16674714D01*
X9566428Y-16374714D02*
X9752143Y-16374714D01*
X9652143Y-16489000D01*
X9695000Y-16489000D01*
X9723571Y-16503286D01*
X9737857Y-16517571D01*
X9752143Y-16546143D01*
X9752143Y-16617571D01*
X9737857Y-16646143D01*
X9723571Y-16660429D01*
X9695000Y-16674714D01*
X9609286Y-16674714D01*
X9580714Y-16660429D01*
X9566428Y-16646143D01*
X9937857Y-16374714D02*
X9966428Y-16374714D01*
X9995000Y-16389000D01*
X10009286Y-16403286D01*
X10023571Y-16431857D01*
X10037857Y-16489000D01*
X10037857Y-16560429D01*
X10023571Y-16617571D01*
X10009286Y-16646143D01*
X9995000Y-16660429D01*
X9966428Y-16674714D01*
X9937857Y-16674714D01*
X9909286Y-16660429D01*
X9895000Y-16646143D01*
X9880714Y-16617571D01*
X9866428Y-16560429D01*
X9866428Y-16489000D01*
X9880714Y-16431857D01*
X9895000Y-16403286D01*
X9909286Y-16389000D01*
X9937857Y-16374714D01*
X10223571Y-16374714D02*
X10252143Y-16374714D01*
X10280714Y-16389000D01*
X10295000Y-16403286D01*
X10309286Y-16431857D01*
X10323571Y-16489000D01*
X10323571Y-16560429D01*
X10309286Y-16617571D01*
X10295000Y-16646143D01*
X10280714Y-16660429D01*
X10252143Y-16674714D01*
X10223571Y-16674714D01*
X10195000Y-16660429D01*
X10180714Y-16646143D01*
X10166428Y-16617571D01*
X10152143Y-16560429D01*
X10152143Y-16489000D01*
X10166428Y-16431857D01*
X10180714Y-16403286D01*
X10195000Y-16389000D01*
X10223571Y-16374714D01*
X10452143Y-16674714D02*
X10452143Y-16474714D01*
X10452143Y-16503286D02*
X10466428Y-16489000D01*
X10495000Y-16474714D01*
X10537857Y-16474714D01*
X10566428Y-16489000D01*
X10580714Y-16517571D01*
X10580714Y-16674714D01*
X10580714Y-16517571D02*
X10595000Y-16489000D01*
X10623571Y-16474714D01*
X10666428Y-16474714D01*
X10695000Y-16489000D01*
X10709286Y-16517571D01*
X10709286Y-16674714D01*
X10852143Y-16674714D02*
X10852143Y-16474714D01*
X10852143Y-16503286D02*
X10866428Y-16489000D01*
X10895000Y-16474714D01*
X10937857Y-16474714D01*
X10966428Y-16489000D01*
X10980714Y-16517571D01*
X10980714Y-16674714D01*
X10980714Y-16517571D02*
X10995000Y-16489000D01*
X11023571Y-16474714D01*
X11066428Y-16474714D01*
X11095000Y-16489000D01*
X11109286Y-16517571D01*
X11109286Y-16674714D01*
X11695000Y-16360429D02*
X11437857Y-16746143D01*
X12080714Y-16374714D02*
X12109286Y-16374714D01*
X12137857Y-16389000D01*
X12152143Y-16403286D01*
X12166428Y-16431857D01*
X12180714Y-16489000D01*
X12180714Y-16560429D01*
X12166428Y-16617571D01*
X12152143Y-16646143D01*
X12137857Y-16660429D01*
X12109286Y-16674714D01*
X12080714Y-16674714D01*
X12052143Y-16660429D01*
X12037857Y-16646143D01*
X12023571Y-16617571D01*
X12009286Y-16560429D01*
X12009286Y-16489000D01*
X12023571Y-16431857D01*
X12037857Y-16403286D01*
X12052143Y-16389000D01*
X12080714Y-16374714D01*
X12309286Y-16646143D02*
X12323571Y-16660429D01*
X12309286Y-16674714D01*
X12295000Y-16660429D01*
X12309286Y-16646143D01*
X12309286Y-16674714D01*
X12509286Y-16374714D02*
X12537857Y-16374714D01*
X12566428Y-16389000D01*
X12580714Y-16403286D01*
X12595000Y-16431857D01*
X12609286Y-16489000D01*
X12609286Y-16560429D01*
X12595000Y-16617571D01*
X12580714Y-16646143D01*
X12566428Y-16660429D01*
X12537857Y-16674714D01*
X12509286Y-16674714D01*
X12480714Y-16660429D01*
X12466428Y-16646143D01*
X12452143Y-16617571D01*
X12437857Y-16560429D01*
X12437857Y-16489000D01*
X12452143Y-16431857D01*
X12466428Y-16403286D01*
X12480714Y-16389000D01*
X12509286Y-16374714D01*
X12880714Y-16374714D02*
X12737857Y-16374714D01*
X12723571Y-16517571D01*
X12737857Y-16503286D01*
X12766428Y-16489000D01*
X12837857Y-16489000D01*
X12866428Y-16503286D01*
X12880714Y-16517571D01*
X12895000Y-16546143D01*
X12895000Y-16617571D01*
X12880714Y-16646143D01*
X12866428Y-16660429D01*
X12837857Y-16674714D01*
X12766428Y-16674714D01*
X12737857Y-16660429D01*
X12723571Y-16646143D01*
X13180714Y-16674714D02*
X13009286Y-16674714D01*
X13095000Y-16674714D02*
X13095000Y-16374714D01*
X13066428Y-16417571D01*
X13037857Y-16446143D01*
X13009286Y-16460429D01*
X13295000Y-16403286D02*
X13309286Y-16389000D01*
X13337857Y-16374714D01*
X13409286Y-16374714D01*
X13437857Y-16389000D01*
X13452143Y-16403286D01*
X13466428Y-16431857D01*
X13466428Y-16460429D01*
X13452143Y-16503286D01*
X13280714Y-16674714D01*
X13466428Y-16674714D01*
X13580714Y-16374714D02*
X13580714Y-16431857D01*
X13695000Y-16374714D02*
X13695000Y-16431857D01*
X14137857Y-16789000D02*
X14123571Y-16774714D01*
X14095000Y-16731857D01*
X14080714Y-16703286D01*
X14066428Y-16660429D01*
X14052143Y-16589000D01*
X14052143Y-16531857D01*
X14066428Y-16460429D01*
X14080714Y-16417571D01*
X14095000Y-16389000D01*
X14123571Y-16346143D01*
X14137857Y-16331857D01*
X14380714Y-16474714D02*
X14380714Y-16674714D01*
X14309286Y-16360429D02*
X14237857Y-16574714D01*
X14423571Y-16574714D01*
X14766428Y-16674714D02*
X14766428Y-16374714D01*
X14895000Y-16674714D02*
X14895000Y-16517571D01*
X14880714Y-16489000D01*
X14852143Y-16474714D01*
X14809286Y-16474714D01*
X14780714Y-16489000D01*
X14766428Y-16503286D01*
X15080714Y-16674714D02*
X15052143Y-16660429D01*
X15037857Y-16646143D01*
X15023571Y-16617571D01*
X15023571Y-16531857D01*
X15037857Y-16503286D01*
X15052143Y-16489000D01*
X15080714Y-16474714D01*
X15123571Y-16474714D01*
X15152143Y-16489000D01*
X15166428Y-16503286D01*
X15180714Y-16531857D01*
X15180714Y-16617571D01*
X15166428Y-16646143D01*
X15152143Y-16660429D01*
X15123571Y-16674714D01*
X15080714Y-16674714D01*
X15352143Y-16674714D02*
X15323571Y-16660429D01*
X15309286Y-16631857D01*
X15309286Y-16374714D01*
X15580714Y-16660429D02*
X15552143Y-16674714D01*
X15495000Y-16674714D01*
X15466428Y-16660429D01*
X15452143Y-16631857D01*
X15452143Y-16517571D01*
X15466428Y-16489000D01*
X15495000Y-16474714D01*
X15552143Y-16474714D01*
X15580714Y-16489000D01*
X15595000Y-16517571D01*
X15595000Y-16546143D01*
X15452143Y-16574714D01*
X15709286Y-16660429D02*
X15737857Y-16674714D01*
X15795000Y-16674714D01*
X15823571Y-16660429D01*
X15837857Y-16631857D01*
X15837857Y-16617571D01*
X15823571Y-16589000D01*
X15795000Y-16574714D01*
X15752143Y-16574714D01*
X15723571Y-16560429D01*
X15709286Y-16531857D01*
X15709286Y-16517571D01*
X15723571Y-16489000D01*
X15752143Y-16474714D01*
X15795000Y-16474714D01*
X15823571Y-16489000D01*
X15937857Y-16789000D02*
X15952143Y-16774714D01*
X15980714Y-16731857D01*
X15995000Y-16703286D01*
X16009286Y-16660429D01*
X16023571Y-16589000D01*
X16023571Y-16531857D01*
X16009286Y-16460429D01*
X15995000Y-16417571D01*
X15980714Y-16389000D01*
X15952143Y-16346143D01*
X15937857Y-16331857D01*
X8745000Y-16867500D02*
X8880000Y-17002500D01*
X8880000Y-16867500D02*
X8745000Y-17002500D01*
X8812500Y-16867500D02*
X8812500Y-17002500D01*
X8745000Y-16935000D02*
X8880000Y-16935000D01*
X9323571Y-17070714D02*
X9152143Y-17070714D01*
X9237857Y-17070714D02*
X9237857Y-16770714D01*
X9209286Y-16813572D01*
X9180714Y-16842143D01*
X9152143Y-16856429D01*
X9452143Y-17042143D02*
X9466428Y-17056429D01*
X9452143Y-17070714D01*
X9437857Y-17056429D01*
X9452143Y-17042143D01*
X9452143Y-17070714D01*
X9566428Y-16770714D02*
X9752143Y-16770714D01*
X9652143Y-16885000D01*
X9695000Y-16885000D01*
X9723571Y-16899286D01*
X9737857Y-16913572D01*
X9752143Y-16942143D01*
X9752143Y-17013572D01*
X9737857Y-17042143D01*
X9723571Y-17056429D01*
X9695000Y-17070714D01*
X9609286Y-17070714D01*
X9580714Y-17056429D01*
X9566428Y-17042143D01*
X10023571Y-16770714D02*
X9880714Y-16770714D01*
X9866428Y-16913572D01*
X9880714Y-16899286D01*
X9909286Y-16885000D01*
X9980714Y-16885000D01*
X10009286Y-16899286D01*
X10023571Y-16913572D01*
X10037857Y-16942143D01*
X10037857Y-17013572D01*
X10023571Y-17042143D01*
X10009286Y-17056429D01*
X9980714Y-17070714D01*
X9909286Y-17070714D01*
X9880714Y-17056429D01*
X9866428Y-17042143D01*
X10223571Y-16770714D02*
X10252143Y-16770714D01*
X10280714Y-16785000D01*
X10295000Y-16799286D01*
X10309286Y-16827857D01*
X10323571Y-16885000D01*
X10323571Y-16956429D01*
X10309286Y-17013572D01*
X10295000Y-17042143D01*
X10280714Y-17056429D01*
X10252143Y-17070714D01*
X10223571Y-17070714D01*
X10195000Y-17056429D01*
X10180714Y-17042143D01*
X10166428Y-17013572D01*
X10152143Y-16956429D01*
X10152143Y-16885000D01*
X10166428Y-16827857D01*
X10180714Y-16799286D01*
X10195000Y-16785000D01*
X10223571Y-16770714D01*
X10452143Y-17070714D02*
X10452143Y-16870714D01*
X10452143Y-16899286D02*
X10466428Y-16885000D01*
X10495000Y-16870714D01*
X10537857Y-16870714D01*
X10566428Y-16885000D01*
X10580714Y-16913572D01*
X10580714Y-17070714D01*
X10580714Y-16913572D02*
X10595000Y-16885000D01*
X10623571Y-16870714D01*
X10666428Y-16870714D01*
X10695000Y-16885000D01*
X10709286Y-16913572D01*
X10709286Y-17070714D01*
X10852143Y-17070714D02*
X10852143Y-16870714D01*
X10852143Y-16899286D02*
X10866428Y-16885000D01*
X10895000Y-16870714D01*
X10937857Y-16870714D01*
X10966428Y-16885000D01*
X10980714Y-16913572D01*
X10980714Y-17070714D01*
X10980714Y-16913572D02*
X10995000Y-16885000D01*
X11023571Y-16870714D01*
X11066428Y-16870714D01*
X11095000Y-16885000D01*
X11109286Y-16913572D01*
X11109286Y-17070714D01*
X11695000Y-16756429D02*
X11437857Y-17142143D01*
X12080714Y-16770714D02*
X12109286Y-16770714D01*
X12137857Y-16785000D01*
X12152143Y-16799286D01*
X12166428Y-16827857D01*
X12180714Y-16885000D01*
X12180714Y-16956429D01*
X12166428Y-17013572D01*
X12152143Y-17042143D01*
X12137857Y-17056429D01*
X12109286Y-17070714D01*
X12080714Y-17070714D01*
X12052143Y-17056429D01*
X12037857Y-17042143D01*
X12023571Y-17013572D01*
X12009286Y-16956429D01*
X12009286Y-16885000D01*
X12023571Y-16827857D01*
X12037857Y-16799286D01*
X12052143Y-16785000D01*
X12080714Y-16770714D01*
X12309286Y-17042143D02*
X12323571Y-17056429D01*
X12309286Y-17070714D01*
X12295000Y-17056429D01*
X12309286Y-17042143D01*
X12309286Y-17070714D01*
X12509286Y-16770714D02*
X12537857Y-16770714D01*
X12566428Y-16785000D01*
X12580714Y-16799286D01*
X12595000Y-16827857D01*
X12609286Y-16885000D01*
X12609286Y-16956429D01*
X12595000Y-17013572D01*
X12580714Y-17042143D01*
X12566428Y-17056429D01*
X12537857Y-17070714D01*
X12509286Y-17070714D01*
X12480714Y-17056429D01*
X12466428Y-17042143D01*
X12452143Y-17013572D01*
X12437857Y-16956429D01*
X12437857Y-16885000D01*
X12452143Y-16827857D01*
X12466428Y-16799286D01*
X12480714Y-16785000D01*
X12509286Y-16770714D01*
X12880714Y-16770714D02*
X12737857Y-16770714D01*
X12723571Y-16913572D01*
X12737857Y-16899286D01*
X12766428Y-16885000D01*
X12837857Y-16885000D01*
X12866428Y-16899286D01*
X12880714Y-16913572D01*
X12895000Y-16942143D01*
X12895000Y-17013572D01*
X12880714Y-17042143D01*
X12866428Y-17056429D01*
X12837857Y-17070714D01*
X12766428Y-17070714D01*
X12737857Y-17056429D01*
X12723571Y-17042143D01*
X12995000Y-16770714D02*
X13180714Y-16770714D01*
X13080714Y-16885000D01*
X13123571Y-16885000D01*
X13152143Y-16899286D01*
X13166428Y-16913572D01*
X13180714Y-16942143D01*
X13180714Y-17013572D01*
X13166428Y-17042143D01*
X13152143Y-17056429D01*
X13123571Y-17070714D01*
X13037857Y-17070714D01*
X13009286Y-17056429D01*
X12995000Y-17042143D01*
X13466428Y-17070714D02*
X13295000Y-17070714D01*
X13380714Y-17070714D02*
X13380714Y-16770714D01*
X13352143Y-16813572D01*
X13323571Y-16842143D01*
X13295000Y-16856429D01*
X13580714Y-16770714D02*
X13580714Y-16827857D01*
X13695000Y-16770714D02*
X13695000Y-16827857D01*
X14137857Y-17185000D02*
X14123571Y-17170714D01*
X14095000Y-17127857D01*
X14080714Y-17099286D01*
X14066428Y-17056429D01*
X14052143Y-16985000D01*
X14052143Y-16927857D01*
X14066428Y-16856429D01*
X14080714Y-16813572D01*
X14095000Y-16785000D01*
X14123571Y-16742143D01*
X14137857Y-16727857D01*
X14266428Y-17070714D02*
X14323571Y-17070714D01*
X14352143Y-17056429D01*
X14366428Y-17042143D01*
X14395000Y-16999286D01*
X14409286Y-16942143D01*
X14409286Y-16827857D01*
X14395000Y-16799286D01*
X14380714Y-16785000D01*
X14352143Y-16770714D01*
X14295000Y-16770714D01*
X14266428Y-16785000D01*
X14252143Y-16799286D01*
X14237857Y-16827857D01*
X14237857Y-16899286D01*
X14252143Y-16927857D01*
X14266428Y-16942143D01*
X14295000Y-16956429D01*
X14352143Y-16956429D01*
X14380714Y-16942143D01*
X14395000Y-16927857D01*
X14409286Y-16899286D01*
X14766428Y-17070714D02*
X14766428Y-16770714D01*
X14895000Y-17070714D02*
X14895000Y-16913572D01*
X14880714Y-16885000D01*
X14852143Y-16870714D01*
X14809286Y-16870714D01*
X14780714Y-16885000D01*
X14766428Y-16899286D01*
X15080714Y-17070714D02*
X15052143Y-17056429D01*
X15037857Y-17042143D01*
X15023571Y-17013572D01*
X15023571Y-16927857D01*
X15037857Y-16899286D01*
X15052143Y-16885000D01*
X15080714Y-16870714D01*
X15123571Y-16870714D01*
X15152143Y-16885000D01*
X15166428Y-16899286D01*
X15180714Y-16927857D01*
X15180714Y-17013572D01*
X15166428Y-17042143D01*
X15152143Y-17056429D01*
X15123571Y-17070714D01*
X15080714Y-17070714D01*
X15352143Y-17070714D02*
X15323571Y-17056429D01*
X15309286Y-17027857D01*
X15309286Y-16770714D01*
X15580714Y-17056429D02*
X15552143Y-17070714D01*
X15495000Y-17070714D01*
X15466428Y-17056429D01*
X15452143Y-17027857D01*
X15452143Y-16913572D01*
X15466428Y-16885000D01*
X15495000Y-16870714D01*
X15552143Y-16870714D01*
X15580714Y-16885000D01*
X15595000Y-16913572D01*
X15595000Y-16942143D01*
X15452143Y-16970714D01*
X15709286Y-17056429D02*
X15737857Y-17070714D01*
X15795000Y-17070714D01*
X15823571Y-17056429D01*
X15837857Y-17027857D01*
X15837857Y-17013572D01*
X15823571Y-16985000D01*
X15795000Y-16970714D01*
X15752143Y-16970714D01*
X15723571Y-16956429D01*
X15709286Y-16927857D01*
X15709286Y-16913572D01*
X15723571Y-16885000D01*
X15752143Y-16870714D01*
X15795000Y-16870714D01*
X15823571Y-16885000D01*
X15937857Y-17185000D02*
X15952143Y-17170714D01*
X15980714Y-17127857D01*
X15995000Y-17099286D01*
X16009286Y-17056429D01*
X16023571Y-16985000D01*
X16023571Y-16927857D01*
X16009286Y-16856429D01*
X15995000Y-16813572D01*
X15980714Y-16785000D01*
X15952143Y-16742143D01*
X15937857Y-16727857D01*
X8730000Y-17256000D02*
X8880000Y-17406000D01*
X8880000Y-17256000D02*
X8730000Y-17406000D01*
X8858033Y-17384034D02*
X8858033Y-17277967D01*
X8751966Y-17277967D01*
X8751966Y-17384034D01*
X8858033Y-17384034D01*
X9323571Y-17466714D02*
X9152143Y-17466714D01*
X9237857Y-17466714D02*
X9237857Y-17166714D01*
X9209286Y-17209572D01*
X9180714Y-17238143D01*
X9152143Y-17252429D01*
X9452143Y-17438143D02*
X9466428Y-17452429D01*
X9452143Y-17466714D01*
X9437857Y-17452429D01*
X9452143Y-17438143D01*
X9452143Y-17466714D01*
X9737857Y-17166714D02*
X9595000Y-17166714D01*
X9580714Y-17309572D01*
X9595000Y-17295286D01*
X9623571Y-17281000D01*
X9695000Y-17281000D01*
X9723571Y-17295286D01*
X9737857Y-17309572D01*
X9752143Y-17338143D01*
X9752143Y-17409572D01*
X9737857Y-17438143D01*
X9723571Y-17452429D01*
X9695000Y-17466714D01*
X9623571Y-17466714D01*
X9595000Y-17452429D01*
X9580714Y-17438143D01*
X9937857Y-17166714D02*
X9966428Y-17166714D01*
X9995000Y-17181000D01*
X10009286Y-17195286D01*
X10023571Y-17223857D01*
X10037857Y-17281000D01*
X10037857Y-17352429D01*
X10023571Y-17409572D01*
X10009286Y-17438143D01*
X9995000Y-17452429D01*
X9966428Y-17466714D01*
X9937857Y-17466714D01*
X9909286Y-17452429D01*
X9895000Y-17438143D01*
X9880714Y-17409572D01*
X9866428Y-17352429D01*
X9866428Y-17281000D01*
X9880714Y-17223857D01*
X9895000Y-17195286D01*
X9909286Y-17181000D01*
X9937857Y-17166714D01*
X10223571Y-17166714D02*
X10252143Y-17166714D01*
X10280714Y-17181000D01*
X10295000Y-17195286D01*
X10309286Y-17223857D01*
X10323571Y-17281000D01*
X10323571Y-17352429D01*
X10309286Y-17409572D01*
X10295000Y-17438143D01*
X10280714Y-17452429D01*
X10252143Y-17466714D01*
X10223571Y-17466714D01*
X10195000Y-17452429D01*
X10180714Y-17438143D01*
X10166428Y-17409572D01*
X10152143Y-17352429D01*
X10152143Y-17281000D01*
X10166428Y-17223857D01*
X10180714Y-17195286D01*
X10195000Y-17181000D01*
X10223571Y-17166714D01*
X10452143Y-17466714D02*
X10452143Y-17266714D01*
X10452143Y-17295286D02*
X10466428Y-17281000D01*
X10495000Y-17266714D01*
X10537857Y-17266714D01*
X10566428Y-17281000D01*
X10580714Y-17309572D01*
X10580714Y-17466714D01*
X10580714Y-17309572D02*
X10595000Y-17281000D01*
X10623571Y-17266714D01*
X10666428Y-17266714D01*
X10695000Y-17281000D01*
X10709286Y-17309572D01*
X10709286Y-17466714D01*
X10852143Y-17466714D02*
X10852143Y-17266714D01*
X10852143Y-17295286D02*
X10866428Y-17281000D01*
X10895000Y-17266714D01*
X10937857Y-17266714D01*
X10966428Y-17281000D01*
X10980714Y-17309572D01*
X10980714Y-17466714D01*
X10980714Y-17309572D02*
X10995000Y-17281000D01*
X11023571Y-17266714D01*
X11066428Y-17266714D01*
X11095000Y-17281000D01*
X11109286Y-17309572D01*
X11109286Y-17466714D01*
X11695000Y-17152429D02*
X11437857Y-17538143D01*
X12080714Y-17166714D02*
X12109286Y-17166714D01*
X12137857Y-17181000D01*
X12152143Y-17195286D01*
X12166428Y-17223857D01*
X12180714Y-17281000D01*
X12180714Y-17352429D01*
X12166428Y-17409572D01*
X12152143Y-17438143D01*
X12137857Y-17452429D01*
X12109286Y-17466714D01*
X12080714Y-17466714D01*
X12052143Y-17452429D01*
X12037857Y-17438143D01*
X12023571Y-17409572D01*
X12009286Y-17352429D01*
X12009286Y-17281000D01*
X12023571Y-17223857D01*
X12037857Y-17195286D01*
X12052143Y-17181000D01*
X12080714Y-17166714D01*
X12309286Y-17438143D02*
X12323571Y-17452429D01*
X12309286Y-17466714D01*
X12295000Y-17452429D01*
X12309286Y-17438143D01*
X12309286Y-17466714D01*
X12509286Y-17166714D02*
X12537857Y-17166714D01*
X12566428Y-17181000D01*
X12580714Y-17195286D01*
X12595000Y-17223857D01*
X12609286Y-17281000D01*
X12609286Y-17352429D01*
X12595000Y-17409572D01*
X12580714Y-17438143D01*
X12566428Y-17452429D01*
X12537857Y-17466714D01*
X12509286Y-17466714D01*
X12480714Y-17452429D01*
X12466428Y-17438143D01*
X12452143Y-17409572D01*
X12437857Y-17352429D01*
X12437857Y-17281000D01*
X12452143Y-17223857D01*
X12466428Y-17195286D01*
X12480714Y-17181000D01*
X12509286Y-17166714D01*
X12880714Y-17166714D02*
X12737857Y-17166714D01*
X12723571Y-17309572D01*
X12737857Y-17295286D01*
X12766428Y-17281000D01*
X12837857Y-17281000D01*
X12866428Y-17295286D01*
X12880714Y-17309572D01*
X12895000Y-17338143D01*
X12895000Y-17409572D01*
X12880714Y-17438143D01*
X12866428Y-17452429D01*
X12837857Y-17466714D01*
X12766428Y-17466714D01*
X12737857Y-17452429D01*
X12723571Y-17438143D01*
X13037857Y-17466714D02*
X13095000Y-17466714D01*
X13123571Y-17452429D01*
X13137857Y-17438143D01*
X13166428Y-17395286D01*
X13180714Y-17338143D01*
X13180714Y-17223857D01*
X13166428Y-17195286D01*
X13152143Y-17181000D01*
X13123571Y-17166714D01*
X13066428Y-17166714D01*
X13037857Y-17181000D01*
X13023571Y-17195286D01*
X13009286Y-17223857D01*
X13009286Y-17295286D01*
X13023571Y-17323857D01*
X13037857Y-17338143D01*
X13066428Y-17352429D01*
X13123571Y-17352429D01*
X13152143Y-17338143D01*
X13166428Y-17323857D01*
X13180714Y-17295286D01*
X13466428Y-17466714D02*
X13295000Y-17466714D01*
X13380714Y-17466714D02*
X13380714Y-17166714D01*
X13352143Y-17209572D01*
X13323571Y-17238143D01*
X13295000Y-17252429D01*
X13580714Y-17166714D02*
X13580714Y-17223857D01*
X13695000Y-17166714D02*
X13695000Y-17223857D01*
X14137857Y-17581000D02*
X14123571Y-17566714D01*
X14095000Y-17523857D01*
X14080714Y-17495286D01*
X14066428Y-17452429D01*
X14052143Y-17381000D01*
X14052143Y-17323857D01*
X14066428Y-17252429D01*
X14080714Y-17209572D01*
X14095000Y-17181000D01*
X14123571Y-17138143D01*
X14137857Y-17123857D01*
X14409286Y-17466714D02*
X14237857Y-17466714D01*
X14323571Y-17466714D02*
X14323571Y-17166714D01*
X14295000Y-17209572D01*
X14266428Y-17238143D01*
X14237857Y-17252429D01*
X14766428Y-17466714D02*
X14766428Y-17166714D01*
X14895000Y-17466714D02*
X14895000Y-17309572D01*
X14880714Y-17281000D01*
X14852143Y-17266714D01*
X14809286Y-17266714D01*
X14780714Y-17281000D01*
X14766428Y-17295286D01*
X15080714Y-17466714D02*
X15052143Y-17452429D01*
X15037857Y-17438143D01*
X15023571Y-17409572D01*
X15023571Y-17323857D01*
X15037857Y-17295286D01*
X15052143Y-17281000D01*
X15080714Y-17266714D01*
X15123571Y-17266714D01*
X15152143Y-17281000D01*
X15166428Y-17295286D01*
X15180714Y-17323857D01*
X15180714Y-17409572D01*
X15166428Y-17438143D01*
X15152143Y-17452429D01*
X15123571Y-17466714D01*
X15080714Y-17466714D01*
X15352143Y-17466714D02*
X15323571Y-17452429D01*
X15309286Y-17423857D01*
X15309286Y-17166714D01*
X15580714Y-17452429D02*
X15552143Y-17466714D01*
X15495000Y-17466714D01*
X15466428Y-17452429D01*
X15452143Y-17423857D01*
X15452143Y-17309572D01*
X15466428Y-17281000D01*
X15495000Y-17266714D01*
X15552143Y-17266714D01*
X15580714Y-17281000D01*
X15595000Y-17309572D01*
X15595000Y-17338143D01*
X15452143Y-17366714D01*
X15695000Y-17581000D02*
X15709286Y-17566714D01*
X15737857Y-17523857D01*
X15752143Y-17495286D01*
X15766428Y-17452429D01*
X15780714Y-17381000D01*
X15780714Y-17323857D01*
X15766428Y-17252429D01*
X15752143Y-17209572D01*
X15737857Y-17181000D01*
X15709286Y-17138143D01*
X15695000Y-17123857D01*
X8710000Y-17642000D02*
X8880000Y-17812000D01*
X8880000Y-17642000D02*
X8710000Y-17812000D01*
X8795000Y-17812000D02*
X8880000Y-17727000D01*
X8795000Y-17642000D01*
X8710000Y-17727000D01*
X8795000Y-17812000D01*
X9323571Y-17862714D02*
X9152143Y-17862714D01*
X9237857Y-17862714D02*
X9237857Y-17562714D01*
X9209286Y-17605572D01*
X9180714Y-17634143D01*
X9152143Y-17648429D01*
X9452143Y-17834143D02*
X9466428Y-17848429D01*
X9452143Y-17862714D01*
X9437857Y-17848429D01*
X9452143Y-17834143D01*
X9452143Y-17862714D01*
X9566428Y-17562714D02*
X9766428Y-17562714D01*
X9637857Y-17862714D01*
X9937857Y-17562714D02*
X9966428Y-17562714D01*
X9995000Y-17577000D01*
X10009286Y-17591286D01*
X10023571Y-17619857D01*
X10037857Y-17677000D01*
X10037857Y-17748429D01*
X10023571Y-17805572D01*
X10009286Y-17834143D01*
X9995000Y-17848429D01*
X9966428Y-17862714D01*
X9937857Y-17862714D01*
X9909286Y-17848429D01*
X9895000Y-17834143D01*
X9880714Y-17805572D01*
X9866428Y-17748429D01*
X9866428Y-17677000D01*
X9880714Y-17619857D01*
X9895000Y-17591286D01*
X9909286Y-17577000D01*
X9937857Y-17562714D01*
X10223571Y-17562714D02*
X10252143Y-17562714D01*
X10280714Y-17577000D01*
X10295000Y-17591286D01*
X10309286Y-17619857D01*
X10323571Y-17677000D01*
X10323571Y-17748429D01*
X10309286Y-17805572D01*
X10295000Y-17834143D01*
X10280714Y-17848429D01*
X10252143Y-17862714D01*
X10223571Y-17862714D01*
X10195000Y-17848429D01*
X10180714Y-17834143D01*
X10166428Y-17805572D01*
X10152143Y-17748429D01*
X10152143Y-17677000D01*
X10166428Y-17619857D01*
X10180714Y-17591286D01*
X10195000Y-17577000D01*
X10223571Y-17562714D01*
X10452143Y-17862714D02*
X10452143Y-17662714D01*
X10452143Y-17691286D02*
X10466428Y-17677000D01*
X10495000Y-17662714D01*
X10537857Y-17662714D01*
X10566428Y-17677000D01*
X10580714Y-17705572D01*
X10580714Y-17862714D01*
X10580714Y-17705572D02*
X10595000Y-17677000D01*
X10623571Y-17662714D01*
X10666428Y-17662714D01*
X10695000Y-17677000D01*
X10709286Y-17705572D01*
X10709286Y-17862714D01*
X10852143Y-17862714D02*
X10852143Y-17662714D01*
X10852143Y-17691286D02*
X10866428Y-17677000D01*
X10895000Y-17662714D01*
X10937857Y-17662714D01*
X10966428Y-17677000D01*
X10980714Y-17705572D01*
X10980714Y-17862714D01*
X10980714Y-17705572D02*
X10995000Y-17677000D01*
X11023571Y-17662714D01*
X11066428Y-17662714D01*
X11095000Y-17677000D01*
X11109286Y-17705572D01*
X11109286Y-17862714D01*
X11695000Y-17548429D02*
X11437857Y-17934143D01*
X12080714Y-17562714D02*
X12109286Y-17562714D01*
X12137857Y-17577000D01*
X12152143Y-17591286D01*
X12166428Y-17619857D01*
X12180714Y-17677000D01*
X12180714Y-17748429D01*
X12166428Y-17805572D01*
X12152143Y-17834143D01*
X12137857Y-17848429D01*
X12109286Y-17862714D01*
X12080714Y-17862714D01*
X12052143Y-17848429D01*
X12037857Y-17834143D01*
X12023571Y-17805572D01*
X12009286Y-17748429D01*
X12009286Y-17677000D01*
X12023571Y-17619857D01*
X12037857Y-17591286D01*
X12052143Y-17577000D01*
X12080714Y-17562714D01*
X12309286Y-17834143D02*
X12323571Y-17848429D01*
X12309286Y-17862714D01*
X12295000Y-17848429D01*
X12309286Y-17834143D01*
X12309286Y-17862714D01*
X12509286Y-17562714D02*
X12537857Y-17562714D01*
X12566428Y-17577000D01*
X12580714Y-17591286D01*
X12595000Y-17619857D01*
X12609286Y-17677000D01*
X12609286Y-17748429D01*
X12595000Y-17805572D01*
X12580714Y-17834143D01*
X12566428Y-17848429D01*
X12537857Y-17862714D01*
X12509286Y-17862714D01*
X12480714Y-17848429D01*
X12466428Y-17834143D01*
X12452143Y-17805572D01*
X12437857Y-17748429D01*
X12437857Y-17677000D01*
X12452143Y-17619857D01*
X12466428Y-17591286D01*
X12480714Y-17577000D01*
X12509286Y-17562714D01*
X12866428Y-17562714D02*
X12809286Y-17562714D01*
X12780714Y-17577000D01*
X12766428Y-17591286D01*
X12737857Y-17634143D01*
X12723571Y-17691286D01*
X12723571Y-17805572D01*
X12737857Y-17834143D01*
X12752143Y-17848429D01*
X12780714Y-17862714D01*
X12837857Y-17862714D01*
X12866428Y-17848429D01*
X12880714Y-17834143D01*
X12895000Y-17805572D01*
X12895000Y-17734143D01*
X12880714Y-17705572D01*
X12866428Y-17691286D01*
X12837857Y-17677000D01*
X12780714Y-17677000D01*
X12752143Y-17691286D01*
X12737857Y-17705572D01*
X12723571Y-17734143D01*
X13152143Y-17562714D02*
X13095000Y-17562714D01*
X13066428Y-17577000D01*
X13052143Y-17591286D01*
X13023571Y-17634143D01*
X13009286Y-17691286D01*
X13009286Y-17805572D01*
X13023571Y-17834143D01*
X13037857Y-17848429D01*
X13066428Y-17862714D01*
X13123571Y-17862714D01*
X13152143Y-17848429D01*
X13166428Y-17834143D01*
X13180714Y-17805572D01*
X13180714Y-17734143D01*
X13166428Y-17705572D01*
X13152143Y-17691286D01*
X13123571Y-17677000D01*
X13066428Y-17677000D01*
X13037857Y-17691286D01*
X13023571Y-17705572D01*
X13009286Y-17734143D01*
X13323571Y-17862714D02*
X13380714Y-17862714D01*
X13409286Y-17848429D01*
X13423571Y-17834143D01*
X13452143Y-17791286D01*
X13466428Y-17734143D01*
X13466428Y-17619857D01*
X13452143Y-17591286D01*
X13437857Y-17577000D01*
X13409286Y-17562714D01*
X13352143Y-17562714D01*
X13323571Y-17577000D01*
X13309286Y-17591286D01*
X13295000Y-17619857D01*
X13295000Y-17691286D01*
X13309286Y-17719857D01*
X13323571Y-17734143D01*
X13352143Y-17748429D01*
X13409286Y-17748429D01*
X13437857Y-17734143D01*
X13452143Y-17719857D01*
X13466428Y-17691286D01*
X13580714Y-17562714D02*
X13580714Y-17619857D01*
X13695000Y-17562714D02*
X13695000Y-17619857D01*
X14137857Y-17977000D02*
X14123571Y-17962714D01*
X14095000Y-17919857D01*
X14080714Y-17891286D01*
X14066428Y-17848429D01*
X14052143Y-17777000D01*
X14052143Y-17719857D01*
X14066428Y-17648429D01*
X14080714Y-17605572D01*
X14095000Y-17577000D01*
X14123571Y-17534143D01*
X14137857Y-17519857D01*
X14380714Y-17662714D02*
X14380714Y-17862714D01*
X14309286Y-17548429D02*
X14237857Y-17762714D01*
X14423571Y-17762714D01*
X14766428Y-17862714D02*
X14766428Y-17562714D01*
X14895000Y-17862714D02*
X14895000Y-17705572D01*
X14880714Y-17677000D01*
X14852143Y-17662714D01*
X14809286Y-17662714D01*
X14780714Y-17677000D01*
X14766428Y-17691286D01*
X15080714Y-17862714D02*
X15052143Y-17848429D01*
X15037857Y-17834143D01*
X15023571Y-17805572D01*
X15023571Y-17719857D01*
X15037857Y-17691286D01*
X15052143Y-17677000D01*
X15080714Y-17662714D01*
X15123571Y-17662714D01*
X15152143Y-17677000D01*
X15166428Y-17691286D01*
X15180714Y-17719857D01*
X15180714Y-17805572D01*
X15166428Y-17834143D01*
X15152143Y-17848429D01*
X15123571Y-17862714D01*
X15080714Y-17862714D01*
X15352143Y-17862714D02*
X15323571Y-17848429D01*
X15309286Y-17819857D01*
X15309286Y-17562714D01*
X15580714Y-17848429D02*
X15552143Y-17862714D01*
X15495000Y-17862714D01*
X15466428Y-17848429D01*
X15452143Y-17819857D01*
X15452143Y-17705572D01*
X15466428Y-17677000D01*
X15495000Y-17662714D01*
X15552143Y-17662714D01*
X15580714Y-17677000D01*
X15595000Y-17705572D01*
X15595000Y-17734143D01*
X15452143Y-17762714D01*
X15709286Y-17848429D02*
X15737857Y-17862714D01*
X15795000Y-17862714D01*
X15823571Y-17848429D01*
X15837857Y-17819857D01*
X15837857Y-17805572D01*
X15823571Y-17777000D01*
X15795000Y-17762714D01*
X15752143Y-17762714D01*
X15723571Y-17748429D01*
X15709286Y-17719857D01*
X15709286Y-17705572D01*
X15723571Y-17677000D01*
X15752143Y-17662714D01*
X15795000Y-17662714D01*
X15823571Y-17677000D01*
X15937857Y-17977000D02*
X15952143Y-17962714D01*
X15980714Y-17919857D01*
X15995000Y-17891286D01*
X16009286Y-17848429D01*
X16023571Y-17777000D01*
X16023571Y-17719857D01*
X16009286Y-17648429D01*
X15995000Y-17605572D01*
X15980714Y-17577000D01*
X15952143Y-17534143D01*
X15937857Y-17519857D01*
X8705000Y-17948000D02*
X8705000Y-18298000D01*
X8530000Y-18123000D02*
X8880000Y-18123000D01*
X8880000Y-18123000D02*
G75*
G03*
X8880000Y-18123000I-175000J0D01*
G01*
X9137857Y-17958714D02*
X9323571Y-17958714D01*
X9223571Y-18073000D01*
X9266428Y-18073000D01*
X9295000Y-18087286D01*
X9309286Y-18101572D01*
X9323571Y-18130143D01*
X9323571Y-18201572D01*
X9309286Y-18230143D01*
X9295000Y-18244429D01*
X9266428Y-18258714D01*
X9180714Y-18258714D01*
X9152143Y-18244429D01*
X9137857Y-18230143D01*
X9452143Y-18230143D02*
X9466428Y-18244429D01*
X9452143Y-18258714D01*
X9437857Y-18244429D01*
X9452143Y-18230143D01*
X9452143Y-18258714D01*
X9737857Y-17958714D02*
X9595000Y-17958714D01*
X9580714Y-18101572D01*
X9595000Y-18087286D01*
X9623571Y-18073000D01*
X9695000Y-18073000D01*
X9723571Y-18087286D01*
X9737857Y-18101572D01*
X9752143Y-18130143D01*
X9752143Y-18201572D01*
X9737857Y-18230143D01*
X9723571Y-18244429D01*
X9695000Y-18258714D01*
X9623571Y-18258714D01*
X9595000Y-18244429D01*
X9580714Y-18230143D01*
X9937857Y-17958714D02*
X9966428Y-17958714D01*
X9995000Y-17973000D01*
X10009286Y-17987286D01*
X10023571Y-18015857D01*
X10037857Y-18073000D01*
X10037857Y-18144429D01*
X10023571Y-18201572D01*
X10009286Y-18230143D01*
X9995000Y-18244429D01*
X9966428Y-18258714D01*
X9937857Y-18258714D01*
X9909286Y-18244429D01*
X9895000Y-18230143D01*
X9880714Y-18201572D01*
X9866428Y-18144429D01*
X9866428Y-18073000D01*
X9880714Y-18015857D01*
X9895000Y-17987286D01*
X9909286Y-17973000D01*
X9937857Y-17958714D01*
X10223571Y-17958714D02*
X10252143Y-17958714D01*
X10280714Y-17973000D01*
X10295000Y-17987286D01*
X10309286Y-18015857D01*
X10323571Y-18073000D01*
X10323571Y-18144429D01*
X10309286Y-18201572D01*
X10295000Y-18230143D01*
X10280714Y-18244429D01*
X10252143Y-18258714D01*
X10223571Y-18258714D01*
X10195000Y-18244429D01*
X10180714Y-18230143D01*
X10166428Y-18201572D01*
X10152143Y-18144429D01*
X10152143Y-18073000D01*
X10166428Y-18015857D01*
X10180714Y-17987286D01*
X10195000Y-17973000D01*
X10223571Y-17958714D01*
X10452143Y-18258714D02*
X10452143Y-18058714D01*
X10452143Y-18087286D02*
X10466428Y-18073000D01*
X10495000Y-18058714D01*
X10537857Y-18058714D01*
X10566428Y-18073000D01*
X10580714Y-18101572D01*
X10580714Y-18258714D01*
X10580714Y-18101572D02*
X10595000Y-18073000D01*
X10623571Y-18058714D01*
X10666428Y-18058714D01*
X10695000Y-18073000D01*
X10709286Y-18101572D01*
X10709286Y-18258714D01*
X10852143Y-18258714D02*
X10852143Y-18058714D01*
X10852143Y-18087286D02*
X10866428Y-18073000D01*
X10895000Y-18058714D01*
X10937857Y-18058714D01*
X10966428Y-18073000D01*
X10980714Y-18101572D01*
X10980714Y-18258714D01*
X10980714Y-18101572D02*
X10995000Y-18073000D01*
X11023571Y-18058714D01*
X11066428Y-18058714D01*
X11095000Y-18073000D01*
X11109286Y-18101572D01*
X11109286Y-18258714D01*
X11695000Y-17944429D02*
X11437857Y-18330143D01*
X12080714Y-17958714D02*
X12109286Y-17958714D01*
X12137857Y-17973000D01*
X12152143Y-17987286D01*
X12166428Y-18015857D01*
X12180714Y-18073000D01*
X12180714Y-18144429D01*
X12166428Y-18201572D01*
X12152143Y-18230143D01*
X12137857Y-18244429D01*
X12109286Y-18258714D01*
X12080714Y-18258714D01*
X12052143Y-18244429D01*
X12037857Y-18230143D01*
X12023571Y-18201572D01*
X12009286Y-18144429D01*
X12009286Y-18073000D01*
X12023571Y-18015857D01*
X12037857Y-17987286D01*
X12052143Y-17973000D01*
X12080714Y-17958714D01*
X12309286Y-18230143D02*
X12323571Y-18244429D01*
X12309286Y-18258714D01*
X12295000Y-18244429D01*
X12309286Y-18230143D01*
X12309286Y-18258714D01*
X12609286Y-18258714D02*
X12437857Y-18258714D01*
X12523571Y-18258714D02*
X12523571Y-17958714D01*
X12495000Y-18001572D01*
X12466428Y-18030143D01*
X12437857Y-18044429D01*
X12709286Y-17958714D02*
X12895000Y-17958714D01*
X12795000Y-18073000D01*
X12837857Y-18073000D01*
X12866428Y-18087286D01*
X12880714Y-18101572D01*
X12895000Y-18130143D01*
X12895000Y-18201572D01*
X12880714Y-18230143D01*
X12866428Y-18244429D01*
X12837857Y-18258714D01*
X12752143Y-18258714D01*
X12723571Y-18244429D01*
X12709286Y-18230143D01*
X12995000Y-17958714D02*
X13195000Y-17958714D01*
X13066428Y-18258714D01*
X13352143Y-18087286D02*
X13323571Y-18073000D01*
X13309286Y-18058714D01*
X13295000Y-18030143D01*
X13295000Y-18015857D01*
X13309286Y-17987286D01*
X13323571Y-17973000D01*
X13352143Y-17958714D01*
X13409286Y-17958714D01*
X13437857Y-17973000D01*
X13452143Y-17987286D01*
X13466428Y-18015857D01*
X13466428Y-18030143D01*
X13452143Y-18058714D01*
X13437857Y-18073000D01*
X13409286Y-18087286D01*
X13352143Y-18087286D01*
X13323571Y-18101572D01*
X13309286Y-18115857D01*
X13295000Y-18144429D01*
X13295000Y-18201572D01*
X13309286Y-18230143D01*
X13323571Y-18244429D01*
X13352143Y-18258714D01*
X13409286Y-18258714D01*
X13437857Y-18244429D01*
X13452143Y-18230143D01*
X13466428Y-18201572D01*
X13466428Y-18144429D01*
X13452143Y-18115857D01*
X13437857Y-18101572D01*
X13409286Y-18087286D01*
X13580714Y-17958714D02*
X13580714Y-18015857D01*
X13695000Y-17958714D02*
X13695000Y-18015857D01*
X14137857Y-18373000D02*
X14123571Y-18358714D01*
X14095000Y-18315857D01*
X14080714Y-18287286D01*
X14066428Y-18244429D01*
X14052143Y-18173000D01*
X14052143Y-18115857D01*
X14066428Y-18044429D01*
X14080714Y-18001572D01*
X14095000Y-17973000D01*
X14123571Y-17930143D01*
X14137857Y-17915857D01*
X14266428Y-18258714D02*
X14323571Y-18258714D01*
X14352143Y-18244429D01*
X14366428Y-18230143D01*
X14395000Y-18187286D01*
X14409286Y-18130143D01*
X14409286Y-18015857D01*
X14395000Y-17987286D01*
X14380714Y-17973000D01*
X14352143Y-17958714D01*
X14295000Y-17958714D01*
X14266428Y-17973000D01*
X14252143Y-17987286D01*
X14237857Y-18015857D01*
X14237857Y-18087286D01*
X14252143Y-18115857D01*
X14266428Y-18130143D01*
X14295000Y-18144429D01*
X14352143Y-18144429D01*
X14380714Y-18130143D01*
X14395000Y-18115857D01*
X14409286Y-18087286D01*
X14766428Y-18258714D02*
X14766428Y-17958714D01*
X14895000Y-18258714D02*
X14895000Y-18101572D01*
X14880714Y-18073000D01*
X14852143Y-18058714D01*
X14809286Y-18058714D01*
X14780714Y-18073000D01*
X14766428Y-18087286D01*
X15080714Y-18258714D02*
X15052143Y-18244429D01*
X15037857Y-18230143D01*
X15023571Y-18201572D01*
X15023571Y-18115857D01*
X15037857Y-18087286D01*
X15052143Y-18073000D01*
X15080714Y-18058714D01*
X15123571Y-18058714D01*
X15152143Y-18073000D01*
X15166428Y-18087286D01*
X15180714Y-18115857D01*
X15180714Y-18201572D01*
X15166428Y-18230143D01*
X15152143Y-18244429D01*
X15123571Y-18258714D01*
X15080714Y-18258714D01*
X15352143Y-18258714D02*
X15323571Y-18244429D01*
X15309286Y-18215857D01*
X15309286Y-17958714D01*
X15580714Y-18244429D02*
X15552143Y-18258714D01*
X15495000Y-18258714D01*
X15466428Y-18244429D01*
X15452143Y-18215857D01*
X15452143Y-18101572D01*
X15466428Y-18073000D01*
X15495000Y-18058714D01*
X15552143Y-18058714D01*
X15580714Y-18073000D01*
X15595000Y-18101572D01*
X15595000Y-18130143D01*
X15452143Y-18158714D01*
X15709286Y-18244429D02*
X15737857Y-18258714D01*
X15795000Y-18258714D01*
X15823571Y-18244429D01*
X15837857Y-18215857D01*
X15837857Y-18201572D01*
X15823571Y-18173000D01*
X15795000Y-18158714D01*
X15752143Y-18158714D01*
X15723571Y-18144429D01*
X15709286Y-18115857D01*
X15709286Y-18101572D01*
X15723571Y-18073000D01*
X15752143Y-18058714D01*
X15795000Y-18058714D01*
X15823571Y-18073000D01*
X15937857Y-18373000D02*
X15952143Y-18358714D01*
X15980714Y-18315857D01*
X15995000Y-18287286D01*
X16009286Y-18244429D01*
X16023571Y-18173000D01*
X16023571Y-18115857D01*
X16009286Y-18044429D01*
X15995000Y-18001572D01*
X15980714Y-17973000D01*
X15952143Y-17930143D01*
X15937857Y-17915857D01*
M02*
