M48
; DRILL file {KiCad 8.0.5-8.0.5-0~ubuntu24.04.1} date 2024-10-06T19:53:41+0300
; FORMAT={-:-/ absolute / metric / decimal}
; #@! TF.CreationDate,2024-10-06T19:53:41+03:00
; #@! TF.GenerationSoftware,Kicad,Pcbnew,8.0.5-8.0.5-0~ubuntu24.04.1
; #@! TF.FileFunction,Plated,1,4,PTH
FMAT,2
METRIC
; #@! TA.AperFunction,Plated,PTH,ComponentDrill
T1C0.200
; #@! TA.AperFunction,Plated,PTH,ViaDrill
T2C0.400
; #@! TA.AperFunction,Plated,PTH,ComponentDrill
T3C0.500
; #@! TA.AperFunction,Plated,PTH,ComponentDrill
T4C0.550
; #@! TA.AperFunction,Plated,PTH,ComponentDrill
T5C0.900
; #@! TA.AperFunction,Plated,PTH,ComponentDrill
T6C1.000
; #@! TA.AperFunction,Plated,PTH,ComponentDrill
T7C1.040
; #@! TA.AperFunction,Plated,PTH,ComponentDrill
T8C1.100
; #@! TA.AperFunction,Plated,PTH,ComponentDrill
T9C1.300
; #@! TA.AperFunction,Plated,PTH,ComponentDrill
T10C1.350
; #@! TA.AperFunction,Plated,PTH,ComponentDrill
T11C1.500
; #@! TA.AperFunction,Plated,PTH,ComponentDrill
T12C1.650
; #@! TA.AperFunction,Plated,PTH,ComponentDrill
T13C1.700
; #@! TA.AperFunction,Plated,PTH,ComponentDrill
T14C3.500
%
G90
G05
T1
X166.209Y-71.975
X166.209Y-74.075
X168.309Y-71.975
X168.309Y-74.075
T2
X90.17Y-43.383
X90.17Y-46.736
X90.17Y-56.896
X90.17Y-61.976
X90.17Y-64.516
X90.17Y-67.056
X90.17Y-69.596
X90.17Y-72.136
X90.17Y-74.676
X90.17Y-90.678
X90.17Y-92.456
X90.17Y-94.996
X90.17Y-97.536
X90.17Y-100.012
X90.17Y-102.616
X90.17Y-105.156
X90.17Y-107.696
X90.17Y-110.236
X90.17Y-112.776
X90.17Y-115.316
X90.17Y-117.856
X90.17Y-120.396
X90.17Y-122.936
X90.17Y-125.476
X90.17Y-127.762
X90.221Y-45.11
X90.221Y-79.299
X90.373Y-41.707
X90.424Y-83.566
X90.449Y-129.87
X91.034Y-40.335
X91.161Y-131.801
X91.542Y-68.326
X91.542Y-73.457
X91.796Y-60.655
X91.999Y-39.268
X92.405Y-54.102
X92.431Y-133.452
X93.32Y-38.456
X93.98Y-47.752
X94.234Y-49.085
X94.234Y-58.991
X94.513Y-134.264
X94.894Y-38.1
X96.317Y-38.1
X96.469Y-134.442
X96.71Y-58.991
X97.282Y-72.136
X97.638Y-38.1
X97.917Y-124.714
X98.349Y-134.417
X98.552Y-84.836
X98.603Y-39.37
X98.669Y-111.232
X98.806Y-96.393
X98.958Y-38.1
X99.06Y-65.278
X99.314Y-58.991
X99.314Y-86.868
X99.365Y-47.041
X99.441Y-89.281
X99.441Y-91.313
X99.441Y-92.329
X99.441Y-93.345
X99.441Y-94.361
X99.441Y-95.504
X99.466Y-116.205
X99.568Y-99.441
X99.695Y-85.852
X99.746Y-71.488
X99.822Y-134.112
X99.885Y-49.657
X99.949Y-96.393
X100.101Y-39.878
X100.101Y-40.894
X100.127Y-38.811
X100.127Y-41.961
X100.127Y-43.002
X100.203Y-88.011
X100.279Y-44.044
X100.279Y-45.72
X100.333Y-57.77
X100.457Y-91.313
X100.533Y-59.69
X100.686Y-47.295
X100.711Y-37.871
X101.001Y-71.465
X101.092Y-96.393
X101.219Y-44.348
X101.219Y-49.085
X101.346Y-124.587
X101.371Y-116.205
X101.473Y-91.313
X101.6Y-58.674
X101.702Y-37.821
X102.235Y-79.375
X102.235Y-96.393
X102.26Y-44.348
X102.26Y-71.463
X102.425Y-49.022
X102.464Y-59.69
X102.489Y-62.865
X102.489Y-67.818
X102.489Y-91.313
X102.692Y-37.795
X102.809Y-100.52
X102.819Y-134.366
X103.276Y-135.382
X103.302Y-44.348
X103.378Y-58.674
X103.429Y-133.045
X103.632Y-49.212
X103.657Y-37.821
X103.723Y-71.547
X104.14Y-80.645
X104.191Y-59.69
X104.369Y-44.171
X104.394Y-107.95
X104.47Y-38.1
X104.75Y-72.377
X104.775Y-38.913
X104.8Y-40.03
X104.8Y-41.046
X104.826Y-42.113
X104.826Y-43.155
X104.902Y-62.484
X105.004Y-44.958
X105.156Y-58.674
X105.156Y-61.062
X105.219Y-49.784
X105.283Y-111.633
X105.507Y-80.751
X105.689Y-48.692
X105.715Y-46.431
X105.766Y-37.846
X105.766Y-39.116
X105.791Y-105.41
X105.816Y-59.741
X105.969Y-65.634
X106.07Y-135.331
X106.362Y-49.784
X106.426Y-51.816
X106.604Y-82.189
X106.883Y-37.846
X106.934Y-58.674
X106.934Y-66.599
X107.061Y-88.138
X107.239Y-133.731
X107.285Y-72.624
X107.554Y-69.962
X107.554Y-71.745
X107.564Y-70.815
X107.632Y-49.721
X107.762Y-45.974
X108.077Y-83.185
X108.146Y-93.957
X108.153Y-37.846
X108.158Y-91.91
X108.158Y-92.9
X108.186Y-72.723
X108.45Y-69.934
X108.575Y-104.14
X108.712Y-57.912
X108.9Y-91.394
X108.999Y-94.308
X109.093Y-84.582
X109.131Y-72.705
X109.337Y-69.947
X109.423Y-133.731
X109.639Y-74.612
X109.652Y-75.692
X109.652Y-76.695
X109.652Y-77.787
X109.825Y-91.394
X109.944Y-94.318
X110.061Y-71.049
X110.068Y-72.045
X110.106Y-70.203
X110.325Y-95.745
X110.338Y-96.825
X110.338Y-97.828
X110.338Y-98.92
X110.49Y-87.757
X110.668Y-74.612
X110.68Y-75.679
X110.736Y-91.384
X110.744Y-57.912
X110.744Y-83.195
X110.876Y-94.318
X110.998Y-104.013
X111.354Y-95.745
X111.366Y-96.812
X111.595Y-91.722
X111.615Y-93.622
X111.628Y-92.71
X112.522Y-58.293
X112.596Y-82.527
X112.776Y-39.56
X112.878Y-66.497
X112.903Y-37.782
X113.03Y-43.942
X113.03Y-45.212
X113.081Y-125.425
X113.088Y-103.734
X113.233Y-128.676
X113.411Y-38.735
X113.411Y-40.513
X113.855Y-88.392
X113.983Y-37.782
X113.983Y-39.56
X114.168Y-75.697
X114.198Y-132.791
X114.198Y-135.331
X114.3Y-45.212
X114.325Y-114.3
X114.325Y-117.907
X114.427Y-121.285
X114.808Y-49.53
X114.808Y-50.546
X115.113Y-37.897
X115.113Y-38.913
X115.113Y-39.929
X115.125Y-73.724
X115.164Y-95.86
X115.418Y-114.3
X115.418Y-117.907
X115.418Y-134.112
X115.57Y-82.042
X116.078Y-45.212
X116.383Y-37.897
X116.383Y-38.913
X116.383Y-39.929
X116.408Y-57.912
X116.432Y-66.076
X116.51Y-114.3
X116.51Y-117.907
X116.586Y-40.894
X116.586Y-74.93
X116.829Y-128.524
X116.84Y-81.661
X116.932Y-112.201
X116.956Y-125.349
X117.246Y-134.112
X117.475Y-73.088
X117.602Y-49.53
X117.602Y-50.546
X117.602Y-114.3
X117.602Y-117.907
X117.653Y-45.885
X117.805Y-102.616
X117.932Y-57.826
X117.932Y-60.973
X117.932Y-62.039
X117.932Y-63.055
X118.339Y-110.896
X118.364Y-41.758
X118.445Y-73.878
X118.45Y-72.339
X118.45Y-81.577
X118.471Y-76.454
X118.486Y-75.148
X118.486Y-77.714
X118.488Y-79.012
X118.514Y-80.282
X118.618Y-42.672
X118.618Y-114.3
X118.618Y-117.907
X118.618Y-133.401
X118.669Y-135.128
X118.872Y-49.987
X118.974Y-45.885
X119.101Y-60.973
X119.101Y-62.039
X119.101Y-63.055
X119.101Y-64.11
X119.182Y-66.326
X119.182Y-68.826
X119.283Y-94.336
X119.35Y-95.697
X119.352Y-97.018
X119.367Y-99.69
X119.38Y-41.91
X119.38Y-98.407
X119.38Y-101.023
X119.38Y-102.464
X119.532Y-42.977
X119.583Y-114.859
X119.583Y-117.297
X119.685Y-132.436
X119.71Y-58.039
X119.786Y-116.027
X119.888Y-49.987
X120.294Y-64.11
X120.307Y-60.973
X120.307Y-62.039
X120.307Y-63.055
X120.345Y-45.974
X120.65Y-38.1
X120.904Y-49.987
X120.929Y-108.814
X120.929Y-109.982
X120.929Y-111.227
X121.056Y-132.74
X121.158Y-57.429
X121.209Y-39.548
X121.336Y-55.905
X121.412Y-127.305
X121.526Y-60.947
X121.526Y-62.014
X121.526Y-63.03
X121.539Y-64.135
X121.682Y-58.576
X121.768Y-135.28
X121.818Y-111.76
X121.869Y-108.153
X121.92Y-38.1
X122.123Y-50.546
X122.182Y-56.826
X122.377Y-39.116
X122.58Y-40.005
X122.58Y-43.282
X122.733Y-58.318
X122.911Y-108.153
X122.911Y-111.811
X122.961Y-57.429
X123.038Y-44.399
X123.063Y-133.045
X123.088Y-51.41
X123.182Y-55.826
X123.19Y-38.1
X123.19Y-52.781
X123.19Y-54.254
X123.19Y-134.772
X123.749Y-45.11
X123.8Y-130.048
X123.85Y-123.495
X123.876Y-108.153
X123.876Y-111.811
X124.182Y-66.326
X124.257Y-106.426
X124.384Y-44.425
X124.409Y-113.182
X124.46Y-38.1
X124.46Y-38.913
X124.612Y-134.087
X124.714Y-120.955
X124.968Y-72.39
X124.968Y-75.184
X124.968Y-77.47
X125.07Y-45.161
X125.476Y-70.104
X125.603Y-95.631
X125.603Y-98.298
X125.603Y-100.965
X125.603Y-103.251
X125.73Y-38.1
X125.73Y-44.45
X126.086Y-130.454
X126.289Y-39.218
X126.289Y-43.332
X126.441Y-45.161
X127.0Y-38.1
X127.127Y-44.475
X127.864Y-45.161
X128.27Y-38.1
X128.27Y-38.913
X128.676Y-52.375
X128.676Y-130.454
X129.032Y-73.406
X129.134Y-45.517
X129.286Y-101.854
X129.54Y-38.1
X129.896Y-39.065
X129.896Y-117.704
X130.048Y-45.517
X130.048Y-91.948
X130.048Y-93.599
X130.073Y-77.546
X130.073Y-80.086
X130.073Y-82.626
X130.073Y-85.166
X130.556Y-69.342
X130.668Y-128.626
X130.719Y-125.12
X130.81Y-38.1
X130.81Y-65.596
X130.861Y-54.508
X131.064Y-58.928
X131.115Y-107.391
X131.572Y-70.104
X131.826Y-45.517
X131.826Y-60.198
X131.826Y-65.596
X131.826Y-71.374
X132.08Y-38.1
X132.588Y-48.006
X132.74Y-52.324
X132.842Y-70.091
X132.842Y-71.374
X132.855Y-65.608
X133.096Y-45.517
X133.147Y-102.006
X133.35Y-38.1
X133.35Y-60.198
X133.655Y-70.764
X133.807Y-65.608
X134.123Y-125.171
X134.174Y-128.626
X134.239Y-117.475
X134.62Y-38.1
X134.62Y-52.324
X134.785Y-114.808
X134.81Y-65.596
X134.838Y-79.644
X134.874Y-48.006
X134.874Y-58.166
X134.874Y-60.198
X134.899Y-77.287
X134.976Y-88.544
X135.001Y-96.124
X135.064Y-59.101
X135.191Y-67.246
X135.636Y-66.294
X135.89Y-38.1
X135.941Y-107.95
X136.083Y-81.364
X136.093Y-96.114
X136.144Y-134.061
X136.246Y-111.76
X136.347Y-52.324
X136.347Y-54.051
X136.446Y-57.523
X136.855Y-109.22
X136.906Y-48.006
X137.16Y-38.1
X137.16Y-122.555
X137.211Y-123.52
X137.414Y-96.119
X137.668Y-130.048
X137.871Y-52.324
X138.278Y-100.482
X138.278Y-102.87
X138.278Y-112.878
X138.303Y-126.746
X138.367Y-38.1
X138.379Y-89.713
X138.532Y-96.114
X138.938Y-48.006
X138.938Y-121.539
X139.065Y-123.063
X139.192Y-66.802
X139.319Y-125.476
X139.446Y-120.523
X139.51Y-52.324
X139.573Y-38.1
X139.7Y-96.114
X139.903Y-88.392
X140.157Y-40.996
X140.208Y-45.212
X140.487Y-115.418
X140.653Y-52.959
X140.663Y-78.908
X140.665Y-103.429
X140.779Y-38.1
X140.868Y-96.114
X141.046Y-59.207
X141.097Y-58.166
X141.097Y-60.198
X141.16Y-48.006
X141.166Y-72.326
X141.249Y-120.574
X141.478Y-88.392
X141.541Y-53.911
X141.732Y-98.806
X141.732Y-133.858
X141.755Y-78.908
X141.859Y-121.285
X141.986Y-38.1
X141.986Y-39.37
X141.986Y-58.166
X141.986Y-59.182
X141.986Y-60.198
X141.986Y-65.405
X142.037Y-96.114
X142.138Y-128.372
X142.24Y-131.318
X142.57Y-83.708
X142.575Y-84.546
X142.621Y-48.895
X142.758Y-78.908
X142.771Y-79.936
X142.875Y-58.166
X142.875Y-59.182
X142.875Y-60.198
X143.129Y-38.1
X143.129Y-39.37
X143.205Y-128.016
X143.256Y-42.113
X143.256Y-43.078
X143.256Y-43.993
X143.408Y-102.21
X143.51Y-118.466
X143.838Y-78.895
X143.838Y-79.924
X144.082Y-48.895
X144.272Y-38.1
X144.272Y-39.37
X144.323Y-89.052
X144.399Y-43.053
X144.399Y-64.135
X144.577Y-102.87
X144.831Y-107.645
X144.907Y-60.706
X144.907Y-67.691
X145.034Y-58.166
X145.034Y-59.436
X145.288Y-124.841
X145.39Y-117.754
X145.415Y-38.1
X145.415Y-40.259
X145.644Y-104.394
X145.669Y-129.794
X145.669Y-48.641
X145.669Y-77.089
X145.755Y-79.982
X146.177Y-39.688
X146.177Y-58.166
X146.304Y-37.91
X146.494Y-56.959
X146.685Y-79.992
X146.69Y-77.102
X146.749Y-48.704
X146.812Y-38.862
X146.812Y-40.64
X146.939Y-66.802
X147.317Y-73.652
X147.32Y-58.166
X147.32Y-71.12
X147.383Y-37.91
X147.383Y-39.688
X147.574Y-50.038
X147.574Y-104.038
X147.584Y-80.002
X147.648Y-77.122
X147.701Y-56.959
X147.828Y-129.54
X148.336Y-49.022
X148.59Y-50.038
X148.59Y-58.039
X148.895Y-83.871
X149.225Y-130.175
X149.288Y-56.959
X149.322Y-113.441
X149.352Y-48.387
X149.582Y-98.476
X149.669Y-50.8
X149.733Y-127.635
X149.809Y-56.134
X149.932Y-68.326
X149.932Y-70.826
X149.987Y-57.975
X150.089Y-94.005
X150.47Y-56.896
X150.825Y-55.728
X150.876Y-131.064
X150.876Y-132.08
X151.511Y-56.896
X151.511Y-58.039
X151.765Y-37.973
X151.765Y-38.989
X151.765Y-40.005
X151.765Y-133.858
X151.892Y-55.689
X152.082Y-43.878
X152.082Y-44.767
X152.146Y-118.77
X152.146Y-122.631
X152.192Y-103.106
X152.222Y-104.346
X152.654Y-40.691
X152.908Y-39.522
X152.908Y-44.767
X152.908Y-87.249
X152.971Y-43.878
X153.035Y-37.973
X153.162Y-58.674
X153.162Y-88.646
X153.225Y-56.642
X153.365Y-98.323
X153.365Y-105.207
X153.512Y-115.726
X153.645Y-91.948
X153.67Y-134.112
X153.797Y-60.071
X153.822Y-96.799
X154.051Y-39.688
X154.178Y-37.91
X154.28Y-106.731
X154.305Y-98.323
X154.419Y-74.282
X154.432Y-86.614
X154.432Y-90.297
X154.661Y-61.265
X154.686Y-38.862
X154.686Y-40.64
X154.724Y-80.353
X154.749Y-82.461
X154.813Y-57.937
X154.826Y-78.181
X154.932Y-76.226
X155.003Y-48.514
X155.194Y-42.545
X155.194Y-43.688
X155.194Y-56.642
X155.257Y-37.91
X155.257Y-39.688
X155.702Y-64.516
X155.804Y-68.123
X156.007Y-71.526
X156.108Y-80.162
X156.112Y-103.256
X156.337Y-55.855
X156.362Y-107.747
X156.413Y-56.693
X156.667Y-51.664
X156.667Y-62.662
X156.82Y-49.784
X156.845Y-110.871
X156.972Y-68.072
X156.991Y-124.289
X157.282Y-99.176
X157.48Y-87.376
X157.742Y-120.236
X158.182Y-118.126
X158.242Y-114.808
X158.369Y-95.377
X158.394Y-75.286
X158.496Y-109.601
X158.598Y-85.141
X158.686Y-87.694
X158.775Y-50.8
X158.852Y-49.759
X158.852Y-62.23
X158.877Y-93.726
X159.004Y-92.202
X159.106Y-107.594
X159.131Y-48.793
X159.258Y-44.602
X159.482Y-116.336
X159.512Y-37.846
X159.512Y-109.093
X159.512Y-134.112
X159.607Y-81.451
X159.69Y-49.911
X159.922Y-113.396
X160.02Y-38.862
X160.147Y-82.804
X160.182Y-103.976
X160.232Y-99.106
X160.274Y-100.482
X160.274Y-102.997
X160.528Y-67.813
X160.655Y-37.846
X160.655Y-40.005
X160.655Y-41.148
X160.655Y-42.291
X160.655Y-43.434
X160.782Y-66.294
X160.833Y-54.585
X160.882Y-48.976
X161.163Y-38.862
X161.229Y-76.154
X161.493Y-79.146
X161.493Y-84.43
X161.512Y-83.346
X161.722Y-53.518
X161.732Y-77.651
X161.747Y-37.846
X161.747Y-52.413
X161.925Y-66.675
X161.925Y-88.976
X162.001Y-54.661
X162.179Y-57.658
X162.292Y-102.146
X162.814Y-130.353
X162.941Y-118.872
X163.017Y-39.853
X163.017Y-40.869
X163.043Y-38.786
X163.043Y-41.935
X163.043Y-42.977
X163.068Y-109.982
X163.195Y-44.018
X163.576Y-61.976
X163.576Y-91.186
X163.627Y-37.846
X163.627Y-84.074
X163.672Y-87.436
X163.682Y-81.901
X163.703Y-85.725
X163.703Y-108.712
X163.83Y-80.772
X163.83Y-93.472
X164.012Y-78.676
X164.135Y-44.323
X164.16Y-60.706
X164.182Y-104.576
X164.198Y-58.344
X164.282Y-106.876
X164.351Y-57.315
X164.482Y-115.676
X164.592Y-61.722
X164.617Y-37.795
X164.719Y-65.913
X164.744Y-49.479
X164.782Y-92.576
X164.826Y-76.043
X164.846Y-101.092
X164.897Y-99.047
X164.982Y-91.376
X165.049Y-129.388
X165.151Y-80.366
X165.176Y-44.323
X165.227Y-70.993
X165.252Y-96.52
X165.303Y-103.53
X165.303Y-125.781
X165.354Y-56.388
X165.354Y-70.104
X165.354Y-87.325
X165.405Y-127.66
X165.481Y-88.392
X165.522Y-78.686
X165.608Y-37.77
X165.862Y-76.606
X165.882Y-92.376
X166.065Y-100.686
X166.218Y-44.323
X166.573Y-37.795
X166.573Y-96.723
X166.675Y-83.414
X166.675Y-84.48
X166.782Y-113.776
X166.814Y-72.263
X166.814Y-73.724
X166.827Y-78.74
X167.182Y-111.176
X167.282Y-88.976
X167.284Y-44.145
X167.386Y-38.075
X167.386Y-104.394
X167.538Y-131.318
X167.691Y-38.887
X167.703Y-72.263
X167.703Y-73.724
X167.716Y-40.005
X167.716Y-41.021
X167.742Y-42.088
X167.742Y-43.129
X167.792Y-83.414
X167.843Y-84.48
X168.005Y-76.441
X168.011Y-79.08
X168.148Y-56.896
X168.148Y-61.722
X168.182Y-90.476
X168.3Y-96.317
X168.3Y-128.321
X168.504Y-77.419
X168.808Y-57.404
X168.859Y-38.151
X168.91Y-60.96
X168.91Y-61.976
X168.91Y-82.398
X168.91Y-83.464
X168.91Y-84.48
X169.012Y-69.571
X169.113Y-49.835
X169.182Y-94.076
X169.227Y-70.993
X169.24Y-74.981
X169.418Y-54.61
X169.52Y-52.578
X169.621Y-126.848
X169.647Y-68.44
X169.672Y-112.141
X169.782Y-94.576
X169.799Y-101.854
X169.926Y-58.674
X170.078Y-64.046
X170.129Y-62.852
X170.18Y-76.2
X170.332Y-38.151
X170.434Y-99.06
X170.637Y-86.208
X170.972Y-115.106
X170.993Y-53.543
X171.044Y-87.02
X171.142Y-76.963
X171.145Y-113.792
X171.145Y-129.184
X171.348Y-80.62
X171.577Y-100.33
X171.577Y-106.426
X171.582Y-44.876
X171.653Y-38.151
X171.672Y-117.096
X171.704Y-108.204
X171.958Y-65.151
X172.212Y-112.141
X172.212Y-113.792
X172.466Y-53.998
X172.618Y-76.86
X172.692Y-116.936
X172.847Y-98.171
X172.847Y-101.092
X172.872Y-38.151
X173.228Y-63.881
X173.282Y-119.676
X173.482Y-58.801
X173.582Y-112.776
X173.609Y-65.659
X173.685Y-70.675
X173.736Y-117.348
X173.782Y-106.976
X173.787Y-67.107
X173.982Y-110.776
X174.142Y-94.183
X174.193Y-38.151
X174.244Y-89.916
X174.346Y-99.162
X174.447Y-81.077
X174.498Y-82.296
X174.782Y-111.176
X174.955Y-44.501
X175.108Y-50.19
X175.108Y-73.101
X175.382Y-110.576
X175.461Y-46.89
X175.463Y-38.151
X175.514Y-52.832
X175.565Y-76.251
X176.212Y-118.626
X176.276Y-134.112
X176.282Y-115.776
X176.428Y-44.501
X176.53Y-104.394
X176.722Y-117.676
X176.733Y-38.151
X176.982Y-111.176
X177.038Y-50.089
X177.038Y-53.848
X177.038Y-131.978
X177.292Y-39.37
X177.546Y-40.894
X177.546Y-82.296
X177.546Y-93.472
X177.546Y-95.504
X177.546Y-96.774
X177.546Y-122.428
X177.673Y-87.226
X177.732Y-85.776
X178.003Y-38.151
X178.054Y-55.118
X178.054Y-105.156
X178.308Y-99.06
X178.562Y-39.624
X178.562Y-89.154
X178.765Y-67.208
X178.882Y-121.576
X179.324Y-38.151
X179.324Y-59.944
X179.451Y-94.742
X179.452Y-114.916
X179.514Y-63.817
X179.578Y-100.33
X179.8Y-93.44
X179.857Y-74.041
X179.883Y-73.203
X180.086Y-83.82
X180.086Y-87.503
X180.188Y-66.7
X180.34Y-90.932
X180.391Y-82.652
X180.492Y-77.826
X180.594Y-108.331
X180.619Y-71.628
X180.645Y-38.151
X180.782Y-117.376
X180.882Y-109.876
X180.899Y-58.217
X181.182Y-88.376
X181.508Y-81.534
X181.813Y-55.88
X182.067Y-38.151
X182.082Y-121.576
X182.321Y-102.159
X182.562Y-111.726
X183.134Y-96.52
X183.642Y-38.506
X183.642Y-120.396
X184.15Y-94.234
X184.658Y-100.584
X184.682Y-124.776
X184.76Y-59.538
X184.922Y-103.686
X184.963Y-39.319
X185.42Y-125.73
X185.522Y-75.184
X185.522Y-77.673
X185.623Y-88.951
X185.928Y-40.386
X185.928Y-46.736
X185.928Y-49.276
X185.928Y-51.816
X185.928Y-54.356
X185.928Y-108.966
X185.928Y-114.046
X185.928Y-117.856
X185.928Y-123.176
X185.962Y-104.326
X185.979Y-80.924
X186.172Y-100.126
X186.385Y-56.896
X186.385Y-59.436
X186.588Y-41.758
X186.741Y-45.161
X186.792Y-43.434
T5
X163.703Y-120.904
X164.973Y-118.364
X166.243Y-120.904
X167.513Y-118.364
X168.783Y-120.904
X170.053Y-118.364
X171.323Y-120.904
X172.593Y-118.364
T6
X104.515Y-134.356
X120.265Y-134.366
X183.591Y-83.871
X183.591Y-86.411
X183.591Y-88.951
X183.591Y-91.491
T7
X161.523Y-132.154
X164.063Y-132.154
X172.233Y-132.154
X174.773Y-132.154
T9
X109.971Y-127.051
X114.971Y-127.051
X127.406Y-127.051
X132.406Y-127.051
T10
X92.456Y-104.822
X92.456Y-120.142
X94.996Y-99.822
X94.996Y-102.282
X94.996Y-107.362
X94.996Y-117.602
X94.996Y-122.682
X97.536Y-104.822
X97.536Y-120.142
T11
X94.996Y-54.102
T12
X160.403Y-124.204
X175.893Y-124.204
T13
X92.456Y-51.562
X92.456Y-56.642
X97.536Y-51.562
X97.536Y-56.642
T14
X95.864Y-43.54
X95.864Y-129.54
X109.864Y-62.54
X109.864Y-108.54
X149.864Y-62.54
X149.864Y-108.54
X181.864Y-43.54
X181.864Y-129.54
T3
X143.083Y-133.563G85X143.083Y-134.213
G05
X150.083Y-133.563G85X150.083Y-134.213
G05
T4
X143.933Y-131.188G85X144.233Y-131.188
G05
X148.933Y-131.188G85X149.233Y-131.188
G05
T8
X110.17Y-116.106G85X106.72Y-116.106
G05
X118.07Y-116.106G85X114.62Y-116.106
G05
M30
