G04 #@! TF.GenerationSoftware,KiCad,Pcbnew,8.0.5-8.0.5-0~ubuntu24.04.1*
G04 #@! TF.CreationDate,2024-10-06T19:53:36+03:00*
G04 #@! TF.ProjectId,TACNPR,5441434e-5052-42e6-9b69-6361645f7063,rev?*
G04 #@! TF.SameCoordinates,Original*
G04 #@! TF.FileFunction,Soldermask,Bot*
G04 #@! TF.FilePolarity,Negative*
%FSLAX46Y46*%
G04 Gerber Fmt 4.6, Leading zero omitted, Abs format (unit mm)*
G04 Created by KiCad (PCBNEW 8.0.5-8.0.5-0~ubuntu24.04.1) date 2024-10-06 19:53:36*
%MOMM*%
%LPD*%
G01*
G04 APERTURE LIST*
%ADD10C,3.900000*%
%ADD11C,7.000000*%
%ADD12C,2.050000*%
%ADD13C,2.250000*%
%ADD14R,1.700000X1.700000*%
%ADD15O,1.700000X1.700000*%
%ADD16R,2.600000X2.600000*%
%ADD17C,2.600000*%
%ADD18C,2.350000*%
%ADD19O,0.890000X1.550000*%
%ADD20O,1.250000X0.950000*%
%ADD21C,3.250000*%
%ADD22C,1.200000*%
%ADD23C,1.300000*%
%ADD24C,2.000000*%
%ADD25O,5.550000X2.100000*%
G04 APERTURE END LIST*
D10*
X95864000Y-43540000D03*
D11*
X95864000Y-43540000D03*
D10*
X95864000Y-129540000D03*
D11*
X95864000Y-129540000D03*
D10*
X109864000Y-108540000D03*
D11*
X109864000Y-108540000D03*
D10*
X149864000Y-62540000D03*
D11*
X149864000Y-62540000D03*
D10*
X181864000Y-129540000D03*
D11*
X181864000Y-129540000D03*
D10*
X109864000Y-62540000D03*
D11*
X109864000Y-62540000D03*
D10*
X149864000Y-108540000D03*
D11*
X149864000Y-108540000D03*
D12*
X94996000Y-54102000D03*
D13*
X92456000Y-56642000D03*
X97536000Y-56642000D03*
X92456000Y-51562000D03*
X97536000Y-51562000D03*
D14*
X183591200Y-91490800D03*
D15*
X183591200Y-88950800D03*
X183591200Y-86410800D03*
X183591200Y-83870800D03*
D16*
X109971200Y-127050800D03*
D17*
X114971200Y-127050800D03*
D16*
X127406400Y-127050800D03*
D17*
X132406400Y-127050800D03*
D10*
X181864000Y-43540000D03*
D11*
X181864000Y-43540000D03*
D18*
X94996000Y-122682000D03*
X92456000Y-120142000D03*
X97536000Y-120142000D03*
X94996000Y-117602000D03*
X94996000Y-107362000D03*
X92456000Y-104822000D03*
X97536000Y-104822000D03*
X94996000Y-102282000D03*
X94996000Y-99822000D03*
D19*
X143083400Y-133888000D03*
D20*
X144083400Y-131188000D03*
X149083400Y-131188000D03*
D19*
X150083400Y-133888000D03*
D21*
X173863000Y-127254000D03*
X162433000Y-127254000D03*
D22*
X163703000Y-120904000D03*
X164973000Y-118364000D03*
X166243000Y-120904000D03*
X167513000Y-118364000D03*
X168783000Y-120904000D03*
X170053000Y-118364000D03*
X171323000Y-120904000D03*
X172593000Y-118364000D03*
D23*
X161523000Y-132154000D03*
X164063000Y-132154000D03*
X172233000Y-132154000D03*
X174773000Y-132154000D03*
D24*
X160403000Y-124204000D03*
X175893000Y-124204000D03*
D25*
X116345000Y-116106200D03*
X108445000Y-116106200D03*
D24*
X120265000Y-134366200D03*
X104515000Y-134356200D03*
M02*
