G04 #@! TF.GenerationSoftware,KiCad,Pcbnew,6.0.2+dfsg-1*
G04 #@! TF.CreationDate,2023-04-26T18:19:56+03:00*
G04 #@! TF.ProjectId,TACNPR,5441434e-5052-42e6-9b69-6361645f7063,rev?*
G04 #@! TF.SameCoordinates,Original*
G04 #@! TF.FileFunction,Soldermask,Top*
G04 #@! TF.FilePolarity,Negative*
%FSLAX46Y46*%
G04 Gerber Fmt 4.6, Leading zero omitted, Abs format (unit mm)*
G04 Created by KiCad (PCBNEW 6.0.2+dfsg-1) date 2023-04-26 18:19:56*
%MOMM*%
%LPD*%
G01*
G04 APERTURE LIST*
G04 Aperture macros list*
%AMRoundRect*
0 Rectangle with rounded corners*
0 $1 Rounding radius*
0 $2 $3 $4 $5 $6 $7 $8 $9 X,Y pos of 4 corners*
0 Add a 4 corners polygon primitive as box body*
4,1,4,$2,$3,$4,$5,$6,$7,$8,$9,$2,$3,0*
0 Add four circle primitives for the rounded corners*
1,1,$1+$1,$2,$3*
1,1,$1+$1,$4,$5*
1,1,$1+$1,$6,$7*
1,1,$1+$1,$8,$9*
0 Add four rect primitives between the rounded corners*
20,1,$1+$1,$2,$3,$4,$5,0*
20,1,$1+$1,$4,$5,$6,$7,0*
20,1,$1+$1,$6,$7,$8,$9,0*
20,1,$1+$1,$8,$9,$2,$3,0*%
%AMFreePoly0*
4,1,5,0.900000,-2.000000,-0.900000,-2.000000,-0.900000,2.000000,0.900000,2.000000,0.900000,-2.000000,0.900000,-2.000000,$1*%
G04 Aperture macros list end*
%ADD10C,0.100000*%
%ADD11RoundRect,0.225000X-0.225000X-0.250000X0.225000X-0.250000X0.225000X0.250000X-0.225000X0.250000X0*%
%ADD12RoundRect,0.200000X0.275000X-0.200000X0.275000X0.200000X-0.275000X0.200000X-0.275000X-0.200000X0*%
%ADD13RoundRect,0.150000X0.825000X0.150000X-0.825000X0.150000X-0.825000X-0.150000X0.825000X-0.150000X0*%
%ADD14RoundRect,0.225000X0.250000X-0.225000X0.250000X0.225000X-0.250000X0.225000X-0.250000X-0.225000X0*%
%ADD15C,1.500000*%
%ADD16R,2.950000X3.500000*%
%ADD17RoundRect,0.249999X-0.325001X-0.650001X0.325001X-0.650001X0.325001X0.650001X-0.325001X0.650001X0*%
%ADD18RoundRect,0.249999X0.650001X-0.325001X0.650001X0.325001X-0.650001X0.325001X-0.650001X-0.325001X0*%
%ADD19RoundRect,0.218750X-0.256250X0.218750X-0.256250X-0.218750X0.256250X-0.218750X0.256250X0.218750X0*%
%ADD20RoundRect,0.250000X-0.475000X0.250000X-0.475000X-0.250000X0.475000X-0.250000X0.475000X0.250000X0*%
%ADD21R,2.500000X1.800000*%
%ADD22RoundRect,0.237500X0.250000X0.237500X-0.250000X0.237500X-0.250000X-0.237500X0.250000X-0.237500X0*%
%ADD23RoundRect,0.200000X-0.275000X0.200000X-0.275000X-0.200000X0.275000X-0.200000X0.275000X0.200000X0*%
%ADD24RoundRect,0.150000X-0.825000X-0.150000X0.825000X-0.150000X0.825000X0.150000X-0.825000X0.150000X0*%
%ADD25RoundRect,0.249999X0.325001X0.650001X-0.325001X0.650001X-0.325001X-0.650001X0.325001X-0.650001X0*%
%ADD26C,3.900000*%
%ADD27C,7.000000*%
%ADD28RoundRect,0.250000X0.250000X0.475000X-0.250000X0.475000X-0.250000X-0.475000X0.250000X-0.475000X0*%
%ADD29RoundRect,0.218750X0.218750X0.256250X-0.218750X0.256250X-0.218750X-0.256250X0.218750X-0.256250X0*%
%ADD30R,3.500000X2.950000*%
%ADD31RoundRect,0.150000X-0.150000X0.825000X-0.150000X-0.825000X0.150000X-0.825000X0.150000X0.825000X0*%
%ADD32RoundRect,0.200000X0.200000X0.275000X-0.200000X0.275000X-0.200000X-0.275000X0.200000X-0.275000X0*%
%ADD33RoundRect,0.200000X-0.200000X-0.275000X0.200000X-0.275000X0.200000X0.275000X-0.200000X0.275000X0*%
%ADD34RoundRect,0.237500X-0.250000X-0.237500X0.250000X-0.237500X0.250000X0.237500X-0.250000X0.237500X0*%
%ADD35RoundRect,0.249999X0.450001X-0.262501X0.450001X0.262501X-0.450001X0.262501X-0.450001X-0.262501X0*%
%ADD36R,0.650000X1.060000*%
%ADD37RoundRect,0.250000X-1.950000X-1.000000X1.950000X-1.000000X1.950000X1.000000X-1.950000X1.000000X0*%
%ADD38RoundRect,0.225000X0.225000X0.250000X-0.225000X0.250000X-0.225000X-0.250000X0.225000X-0.250000X0*%
%ADD39RoundRect,0.250000X-0.250000X-0.475000X0.250000X-0.475000X0.250000X0.475000X-0.250000X0.475000X0*%
%ADD40RoundRect,0.249999X-0.650001X0.325001X-0.650001X-0.325001X0.650001X-0.325001X0.650001X0.325001X0*%
%ADD41R,1.800000X2.500000*%
%ADD42RoundRect,0.249999X0.262501X0.450001X-0.262501X0.450001X-0.262501X-0.450001X0.262501X-0.450001X0*%
%ADD43RoundRect,0.249999X-0.450001X0.262501X-0.450001X-0.262501X0.450001X-0.262501X0.450001X0.262501X0*%
%ADD44RoundRect,0.218750X0.256250X-0.218750X0.256250X0.218750X-0.256250X0.218750X-0.256250X-0.218750X0*%
%ADD45RoundRect,0.225000X-0.250000X0.225000X-0.250000X-0.225000X0.250000X-0.225000X0.250000X0.225000X0*%
%ADD46C,2.050000*%
%ADD47C,2.250000*%
%ADD48RoundRect,0.250000X0.475000X-0.250000X0.475000X0.250000X-0.475000X0.250000X-0.475000X-0.250000X0*%
%ADD49R,0.900000X0.800000*%
%ADD50RoundRect,0.062500X-0.062500X0.362500X-0.062500X-0.362500X0.062500X-0.362500X0.062500X0.362500X0*%
%ADD51RoundRect,0.062500X-0.362500X0.062500X-0.362500X-0.062500X0.362500X-0.062500X0.362500X0.062500X0*%
%ADD52R,2.600000X2.600000*%
%ADD53FreePoly0,0.000000*%
%ADD54RoundRect,1.375000X-1.375000X-2.375000X1.375000X-2.375000X1.375000X2.375000X-1.375000X2.375000X0*%
%ADD55R,1.400000X1.150000*%
%ADD56R,1.060000X0.650000*%
%ADD57RoundRect,0.150000X0.150000X-0.825000X0.150000X0.825000X-0.150000X0.825000X-0.150000X-0.825000X0*%
%ADD58R,1.700000X1.700000*%
%ADD59O,1.700000X1.700000*%
%ADD60RoundRect,0.249999X-0.262501X-0.450001X0.262501X-0.450001X0.262501X0.450001X-0.262501X0.450001X0*%
%ADD61RoundRect,0.218750X0.381250X-0.218750X0.381250X0.218750X-0.381250X0.218750X-0.381250X-0.218750X0*%
%ADD62RoundRect,0.340200X-0.559800X0.759800X-0.559800X-0.759800X0.559800X-0.759800X0.559800X0.759800X0*%
%ADD63R,0.450000X0.600000*%
%ADD64RoundRect,0.218750X-0.218750X-0.256250X0.218750X-0.256250X0.218750X0.256250X-0.218750X0.256250X0*%
%ADD65R,0.800000X0.900000*%
%ADD66C,2.600000*%
%ADD67R,2.510000X1.000000*%
%ADD68R,0.400000X1.500000*%
%ADD69RoundRect,0.218750X-0.218750X-0.381250X0.218750X-0.381250X0.218750X0.381250X-0.218750X0.381250X0*%
%ADD70RoundRect,0.237500X0.300000X0.237500X-0.300000X0.237500X-0.300000X-0.237500X0.300000X-0.237500X0*%
%ADD71R,1.150000X1.400000*%
%ADD72R,0.650000X1.750000*%
%ADD73R,0.650000X1.000000*%
%ADD74R,3.300000X2.500000*%
%ADD75RoundRect,0.340200X-0.759800X-0.559800X0.759800X-0.559800X0.759800X0.559800X-0.759800X0.559800X0*%
%ADD76RoundRect,0.340200X0.559800X-0.759800X0.559800X0.759800X-0.559800X0.759800X-0.559800X-0.759800X0*%
%ADD77R,1.050000X1.000000*%
%ADD78R,2.200000X1.050000*%
%ADD79C,2.350000*%
%ADD80R,0.400000X1.350000*%
%ADD81O,1.250000X0.950000*%
%ADD82O,0.890000X1.550000*%
%ADD83R,1.500000X1.550000*%
%ADD84R,1.200000X1.550000*%
%ADD85R,2.500000X2.300000*%
%ADD86RoundRect,0.243750X-0.456250X0.243750X-0.456250X-0.243750X0.456250X-0.243750X0.456250X0.243750X0*%
%ADD87RoundRect,0.250000X-0.650000X0.325000X-0.650000X-0.325000X0.650000X-0.325000X0.650000X0.325000X0*%
%ADD88RoundRect,0.250000X-0.325000X-0.650000X0.325000X-0.650000X0.325000X0.650000X-0.325000X0.650000X0*%
%ADD89C,2.000000*%
%ADD90C,3.250000*%
%ADD91C,1.200000*%
%ADD92C,1.300000*%
%ADD93R,1.800000X1.000000*%
%ADD94RoundRect,0.062500X0.375000X0.062500X-0.375000X0.062500X-0.375000X-0.062500X0.375000X-0.062500X0*%
%ADD95RoundRect,0.062500X0.062500X0.375000X-0.062500X0.375000X-0.062500X-0.375000X0.062500X-0.375000X0*%
%ADD96R,3.450000X3.450000*%
%ADD97RoundRect,0.075000X-0.662500X-0.075000X0.662500X-0.075000X0.662500X0.075000X-0.662500X0.075000X0*%
%ADD98RoundRect,0.075000X-0.075000X-0.662500X0.075000X-0.662500X0.075000X0.662500X-0.075000X0.662500X0*%
%ADD99R,1.200000X1.400000*%
%ADD100RoundRect,0.250000X0.262500X0.450000X-0.262500X0.450000X-0.262500X-0.450000X0.262500X-0.450000X0*%
G04 APERTURE END LIST*
D10*
X126806974Y-53040586D02*
X126796814Y-58300926D01*
X126796814Y-58300926D02*
X122184160Y-58309510D01*
X122184160Y-58309510D02*
X122184160Y-53054250D01*
X122184160Y-53054250D02*
X126806974Y-53040586D01*
G36*
X126796814Y-58300926D02*
G01*
X122184160Y-58309510D01*
X122184160Y-53054250D01*
X126806974Y-53040586D01*
X126796814Y-58300926D01*
G37*
X126796814Y-58300926D02*
X122184160Y-58309510D01*
X122184160Y-53054250D01*
X126806974Y-53040586D01*
X126796814Y-58300926D01*
D11*
X155562000Y-95758000D03*
X157112000Y-95758000D03*
D12*
X172182000Y-89501000D03*
X172182000Y-87851000D03*
D13*
X161275800Y-94132400D03*
X161275800Y-92862400D03*
X161275800Y-91592400D03*
X161275800Y-90322400D03*
X156325800Y-90322400D03*
X156325800Y-91592400D03*
X156325800Y-92862400D03*
X156325800Y-94132400D03*
D14*
X162052000Y-82042000D03*
X162052000Y-80492000D03*
D15*
X166582000Y-90576000D03*
D16*
X95369800Y-84886800D03*
X100819800Y-84886800D03*
D17*
X95348000Y-94996000D03*
X98298000Y-94996000D03*
D18*
X99745800Y-75681100D03*
X99745800Y-72731100D03*
D14*
X104521000Y-75260500D03*
X104521000Y-73710500D03*
D19*
X108066840Y-80228340D03*
X108066840Y-81803340D03*
D20*
X110744000Y-80167440D03*
X110744000Y-82067440D03*
D17*
X143038300Y-73682860D03*
X145988300Y-73682860D03*
D21*
X113107220Y-71368920D03*
X109107220Y-71368920D03*
D22*
X105184580Y-79375000D03*
X103359580Y-79375000D03*
D23*
X116840000Y-79058000D03*
X116840000Y-80708000D03*
X112593120Y-79738720D03*
X112593120Y-81388720D03*
D24*
X107608600Y-74409300D03*
X107608600Y-75679300D03*
X107608600Y-76949300D03*
X107608600Y-78219300D03*
X112558600Y-78219300D03*
X112558600Y-76949300D03*
X112558600Y-75679300D03*
X112558600Y-74409300D03*
D16*
X116520380Y-68834000D03*
X121970380Y-68834000D03*
D25*
X122732060Y-78999080D03*
X119782060Y-78999080D03*
X122729520Y-76464160D03*
X119779520Y-76464160D03*
X122706660Y-81551780D03*
X119756660Y-81551780D03*
X122714280Y-73914000D03*
X119764280Y-73914000D03*
D26*
X95864000Y-43540000D03*
D27*
X95864000Y-43540000D03*
X95864000Y-129540000D03*
D26*
X95864000Y-129540000D03*
D27*
X109864000Y-108540000D03*
D26*
X109864000Y-108540000D03*
D20*
X140223240Y-84541320D03*
X140223240Y-86441320D03*
D28*
X137983000Y-79644240D03*
X136083000Y-79644240D03*
D12*
X141157960Y-74860920D03*
X141157960Y-73210920D03*
D29*
X137825580Y-77282040D03*
X136250580Y-77282040D03*
D23*
X139684760Y-73216000D03*
X139684760Y-74866000D03*
D30*
X146964400Y-86581400D03*
X146964400Y-92031400D03*
D11*
X143227760Y-69016880D03*
X144777760Y-69016880D03*
D31*
X143832580Y-77004140D03*
X142562580Y-77004140D03*
X141292580Y-77004140D03*
X140022580Y-77004140D03*
X140022580Y-81954140D03*
X141292580Y-81954140D03*
X142562580Y-81954140D03*
X143832580Y-81954140D03*
D17*
X143066240Y-71231760D03*
X146016240Y-71231760D03*
D32*
X138508240Y-82839560D03*
X136858240Y-82839560D03*
D33*
X136840460Y-84488020D03*
X138490460Y-84488020D03*
D26*
X149864000Y-62540000D03*
D27*
X149864000Y-62540000D03*
X181864000Y-129540000D03*
D26*
X181864000Y-129540000D03*
D18*
X102247700Y-75681100D03*
X102247700Y-72731100D03*
D34*
X103329100Y-77609700D03*
X105154100Y-77609700D03*
D35*
X120650000Y-118006500D03*
X120650000Y-116181500D03*
D33*
X141516600Y-104495600D03*
X143166600Y-104495600D03*
D36*
X130114000Y-105646400D03*
X131064000Y-105646400D03*
X132014000Y-105646400D03*
X132014000Y-103446400D03*
X131064000Y-103446400D03*
X130114000Y-103446400D03*
D37*
X94098000Y-65278000D03*
X102498000Y-65278000D03*
D27*
X109864000Y-62540000D03*
D26*
X109864000Y-62540000D03*
D27*
X149864000Y-108540000D03*
D26*
X149864000Y-108540000D03*
D23*
X130048000Y-98362000D03*
X130048000Y-100012000D03*
X113111280Y-100927400D03*
X113111280Y-102577400D03*
D12*
X114757200Y-102831400D03*
X114757200Y-101181400D03*
D38*
X104409500Y-91973400D03*
X102859500Y-91973400D03*
D19*
X108574840Y-101320500D03*
X108574840Y-102895500D03*
D38*
X108636100Y-89608660D03*
X107086100Y-89608660D03*
D25*
X123552480Y-94335600D03*
X120602480Y-94335600D03*
D39*
X115864600Y-97891600D03*
X117764600Y-97891600D03*
D20*
X110490000Y-101031000D03*
X110490000Y-102931000D03*
D25*
X123587300Y-99689920D03*
X120637300Y-99689920D03*
X123585500Y-102306120D03*
X120635500Y-102306120D03*
X104776800Y-96647000D03*
X101826800Y-96647000D03*
X104764100Y-94234000D03*
X101814100Y-94234000D03*
X123570260Y-97017840D03*
X120620260Y-97017840D03*
D21*
X113937800Y-92925900D03*
X109937800Y-92925900D03*
D34*
X103636440Y-98806000D03*
X105461440Y-98806000D03*
D23*
X117805200Y-99860600D03*
X117805200Y-101510600D03*
D16*
X117094000Y-88900000D03*
X122544000Y-88900000D03*
D24*
X108307100Y-95542100D03*
X108307100Y-96812100D03*
X108307100Y-98082100D03*
X108307100Y-99352100D03*
X113257100Y-99352100D03*
X113257100Y-98082100D03*
X113257100Y-96812100D03*
X113257100Y-95542100D03*
D22*
X105448740Y-100545900D03*
X103623740Y-100545900D03*
D38*
X160147600Y-86143800D03*
X158597600Y-86143800D03*
D12*
X142082520Y-86768440D03*
X142082520Y-85118440D03*
D35*
X127533400Y-88669500D03*
X127533400Y-86844500D03*
D40*
X134874000Y-91994460D03*
X134874000Y-94944460D03*
X137287000Y-91997000D03*
X137287000Y-94947000D03*
X142113000Y-91997000D03*
X142113000Y-94947000D03*
D39*
X115001000Y-77216000D03*
X116901000Y-77216000D03*
D38*
X149365000Y-75590400D03*
X147815000Y-75590400D03*
D11*
X125907500Y-108394500D03*
X127457500Y-108394500D03*
D18*
X124307600Y-43029400D03*
X124307600Y-40079400D03*
D41*
X146705320Y-82759300D03*
X146705320Y-78759300D03*
D40*
X139700000Y-92002080D03*
X139700000Y-94952080D03*
D12*
X114071400Y-81424280D03*
X114071400Y-79774280D03*
D17*
X95426000Y-92456000D03*
X98376000Y-92456000D03*
D42*
X126525660Y-84165440D03*
X124700660Y-84165440D03*
X127252100Y-91363800D03*
X125427100Y-91363800D03*
D43*
X132715000Y-86463500D03*
X132715000Y-88288500D03*
D19*
X130048000Y-95034000D03*
X130048000Y-96609000D03*
D44*
X125730000Y-117627500D03*
X125730000Y-116052500D03*
D45*
X162026600Y-67843100D03*
X162026600Y-69393100D03*
D46*
X94996000Y-54102000D03*
D47*
X92456000Y-56642000D03*
X92456000Y-51562000D03*
X97536000Y-51562000D03*
X97536000Y-56642000D03*
D48*
X159542480Y-75245000D03*
X159542480Y-73345000D03*
D23*
X123698000Y-116015000D03*
X123698000Y-117665000D03*
D39*
X150688000Y-42164000D03*
X152588000Y-42164000D03*
D16*
X129217000Y-62738000D03*
X123767000Y-62738000D03*
D20*
X148107000Y-100876000D03*
X148107000Y-102776000D03*
D40*
X151739600Y-95349800D03*
X151739600Y-98299800D03*
D39*
X158409600Y-79857600D03*
X160309600Y-79857600D03*
D17*
X157835600Y-77622400D03*
X160785600Y-77622400D03*
D49*
X149437600Y-97266800D03*
X149437600Y-95366800D03*
X147437600Y-96316800D03*
D50*
X168259000Y-71100000D03*
X167759000Y-71100000D03*
X167259000Y-71100000D03*
X166759000Y-71100000D03*
X166259000Y-71100000D03*
D51*
X165334000Y-72025000D03*
X165334000Y-72525000D03*
X165334000Y-73025000D03*
X165334000Y-73525000D03*
X165334000Y-74025000D03*
D50*
X166259000Y-74950000D03*
X166759000Y-74950000D03*
X167259000Y-74950000D03*
X167759000Y-74950000D03*
X168259000Y-74950000D03*
D51*
X169184000Y-74025000D03*
X169184000Y-73525000D03*
X169184000Y-73025000D03*
X169184000Y-72525000D03*
X169184000Y-72025000D03*
D52*
X167259000Y-73025000D03*
D14*
X161290000Y-75014120D03*
X161290000Y-73464120D03*
D53*
X110744000Y-39141400D03*
X113538000Y-39141400D03*
X118872000Y-39141400D03*
X146812000Y-39141400D03*
X149606000Y-39141400D03*
X154686000Y-39141400D03*
X157480000Y-39141400D03*
D54*
X102489000Y-41046400D03*
X165354000Y-41046400D03*
D14*
X141224000Y-119240600D03*
X141224000Y-117690600D03*
X139573000Y-119240600D03*
X139573000Y-117690600D03*
D20*
X141732000Y-100396000D03*
X141732000Y-102296000D03*
D12*
X141427200Y-107759000D03*
X141427200Y-106109000D03*
D40*
X150582000Y-100121000D03*
X150582000Y-103071000D03*
D55*
X156294000Y-118707000D03*
X154094000Y-118707000D03*
X154094000Y-120307000D03*
X156294000Y-120307000D03*
D56*
X148293000Y-128712000D03*
X148293000Y-127762000D03*
X148293000Y-126812000D03*
X146093000Y-126812000D03*
X146093000Y-127762000D03*
X146093000Y-128712000D03*
D17*
X153719000Y-122682000D03*
X156669000Y-122682000D03*
D57*
X143078200Y-120610400D03*
X144348200Y-120610400D03*
X145618200Y-120610400D03*
X146888200Y-120610400D03*
X148158200Y-120610400D03*
X149428200Y-120610400D03*
X150698200Y-120610400D03*
X151968200Y-120610400D03*
X151968200Y-115660400D03*
X150698200Y-115660400D03*
X149428200Y-115660400D03*
X148158200Y-115660400D03*
X146888200Y-115660400D03*
X145618200Y-115660400D03*
X144348200Y-115660400D03*
X143078200Y-115660400D03*
D43*
X151511000Y-125452500D03*
X151511000Y-127277500D03*
D58*
X183591200Y-91490800D03*
D59*
X183591200Y-88950800D03*
X183591200Y-86410800D03*
X183591200Y-83870800D03*
D14*
X135686800Y-117259400D03*
X135686800Y-115709400D03*
D29*
X140919200Y-128371600D03*
X139344200Y-128371600D03*
D33*
X139281400Y-130048000D03*
X140931400Y-130048000D03*
D15*
X142595600Y-112979200D03*
D48*
X146761200Y-124825800D03*
X146761200Y-122925800D03*
D15*
X147066000Y-113030000D03*
X144526000Y-111252000D03*
D60*
X140438500Y-123063000D03*
X142263500Y-123063000D03*
X140946500Y-125476000D03*
X142771500Y-125476000D03*
D17*
X155243000Y-116332000D03*
X158193000Y-116332000D03*
D43*
X149098000Y-123039500D03*
X149098000Y-124864500D03*
D15*
X163132000Y-76401000D03*
D61*
X137287000Y-73071500D03*
X137287000Y-70946500D03*
D38*
X127201000Y-68834000D03*
X125651000Y-68834000D03*
D37*
X131791600Y-43078400D03*
X140191600Y-43078400D03*
D62*
X102616000Y-52031500D03*
X102616000Y-55156500D03*
D15*
X120357000Y-84076000D03*
D11*
X95745000Y-90297000D03*
X97295000Y-90297000D03*
D45*
X105740200Y-69227400D03*
X105740200Y-70777400D03*
D32*
X157416000Y-88646000D03*
X155766000Y-88646000D03*
D63*
X110744000Y-46008000D03*
X110744000Y-43908000D03*
D29*
X112801500Y-42418000D03*
X111226500Y-42418000D03*
D43*
X151917400Y-91391100D03*
X151917400Y-93216100D03*
D15*
X115887500Y-62611000D03*
D64*
X177127200Y-74625200D03*
X178702200Y-74625200D03*
D44*
X163525200Y-90144700D03*
X163525200Y-88569700D03*
D12*
X161899600Y-87337400D03*
X161899600Y-85687400D03*
D65*
X143830000Y-101025200D03*
X145730000Y-101025200D03*
X144780000Y-99025200D03*
D29*
X178714600Y-71787050D03*
X177139600Y-71787050D03*
D33*
X177102100Y-70212250D03*
X178752100Y-70212250D03*
D45*
X163776660Y-70621860D03*
X163776660Y-72171860D03*
D49*
X184845200Y-61198800D03*
X184845200Y-59298800D03*
X182845200Y-60248800D03*
D65*
X180682000Y-52876000D03*
X182582000Y-52876000D03*
X181632000Y-50876000D03*
D33*
X153353000Y-47244000D03*
X155003000Y-47244000D03*
D32*
X183806600Y-62941200D03*
X182156600Y-62941200D03*
D11*
X160870600Y-47675800D03*
X162420600Y-47675800D03*
D38*
X118567200Y-119786400D03*
X117017200Y-119786400D03*
D52*
X105664000Y-127050800D03*
D66*
X110664000Y-127050800D03*
D52*
X120599200Y-126898400D03*
D66*
X125599200Y-126898400D03*
D67*
X138561000Y-109575600D03*
X135251000Y-107035600D03*
X138561000Y-104495600D03*
X135251000Y-101955600D03*
X138561000Y-99415600D03*
D19*
X162458400Y-49275900D03*
X162458400Y-50850900D03*
D14*
X170180000Y-61633400D03*
X170180000Y-60083400D03*
D57*
X171894500Y-61898300D03*
X173164500Y-61898300D03*
X174434500Y-61898300D03*
X175704500Y-61898300D03*
X176974500Y-61898300D03*
X178244500Y-61898300D03*
X179514500Y-61898300D03*
X179514500Y-56948300D03*
X178244500Y-56948300D03*
X176974500Y-56948300D03*
X175704500Y-56948300D03*
X174434500Y-56948300D03*
X173164500Y-56948300D03*
X171894500Y-56948300D03*
D27*
X181864000Y-43540000D03*
D26*
X181864000Y-43540000D03*
D62*
X145796000Y-50520200D03*
X145796000Y-53645200D03*
D11*
X149910500Y-53530500D03*
X151460500Y-53530500D03*
X156514500Y-53530500D03*
X158064500Y-53530500D03*
D23*
X100330000Y-54547000D03*
X100330000Y-56197000D03*
D68*
X160875500Y-50870500D03*
X159575500Y-50870500D03*
X159575500Y-53530500D03*
X160875500Y-53530500D03*
D63*
X148082000Y-51528000D03*
X148082000Y-53628000D03*
D49*
X151876000Y-47432000D03*
X151876000Y-45532000D03*
X149876000Y-46482000D03*
D17*
X141476200Y-62433200D03*
X144426200Y-62433200D03*
D25*
X139397000Y-59182000D03*
X136447000Y-59182000D03*
D69*
X136859500Y-62230000D03*
X138984500Y-62230000D03*
D33*
X153353000Y-45466000D03*
X155003000Y-45466000D03*
D23*
X174244000Y-52769000D03*
X174244000Y-54419000D03*
D49*
X156917900Y-86090800D03*
X156917900Y-84190800D03*
X154917900Y-85140800D03*
D39*
X151691300Y-80264000D03*
X153591300Y-80264000D03*
X152732700Y-68199000D03*
X154632700Y-68199000D03*
D17*
X151777700Y-71247000D03*
X154727700Y-71247000D03*
D65*
X153299200Y-74311000D03*
X151399200Y-74311000D03*
X152349200Y-76311000D03*
D39*
X151643000Y-82296000D03*
X153543000Y-82296000D03*
X151701500Y-78206600D03*
X153601500Y-78206600D03*
D44*
X158191200Y-67945100D03*
X158191200Y-66370100D03*
D32*
X156603200Y-66395600D03*
X154953200Y-66395600D03*
D42*
X161745300Y-71628000D03*
X159920300Y-71628000D03*
D70*
X161898500Y-62230000D03*
X160173500Y-62230000D03*
D45*
X166738300Y-62153500D03*
X166738300Y-63703500D03*
D14*
X166738300Y-66891200D03*
X166738300Y-65341200D03*
D19*
X168363900Y-65333780D03*
X168363900Y-66908780D03*
D64*
X166722960Y-68483480D03*
X168297960Y-68483480D03*
D42*
X159060520Y-69723000D03*
X157235520Y-69723000D03*
D29*
X165189000Y-68846700D03*
X163614000Y-68846700D03*
D14*
X162052000Y-60211000D03*
X162052000Y-58661000D03*
D35*
X137718800Y-117447700D03*
X137718800Y-115622700D03*
D23*
X181610000Y-55309000D03*
X181610000Y-56959000D03*
D71*
X172174000Y-73118800D03*
X172174000Y-75318800D03*
X173774000Y-75318800D03*
X173774000Y-73118800D03*
D23*
X165061900Y-52641500D03*
X165061900Y-54291500D03*
D12*
X168313100Y-54266600D03*
X168313100Y-52616600D03*
D65*
X153037500Y-55530500D03*
X154937500Y-55530500D03*
X153987500Y-53530500D03*
D72*
X167824000Y-58459000D03*
D73*
X166624000Y-58084000D03*
X165424000Y-58084000D03*
X165424000Y-60534000D03*
X166624000Y-60534000D03*
X167824000Y-60534000D03*
D23*
X166674800Y-52616600D03*
X166674800Y-54266600D03*
D38*
X160147600Y-84365800D03*
X158597600Y-84365800D03*
D35*
X92202000Y-48867700D03*
X92202000Y-47042700D03*
D42*
X184300500Y-48895000D03*
X182475500Y-48895000D03*
D60*
X143764000Y-66040000D03*
X145589000Y-66040000D03*
D43*
X100012500Y-123547500D03*
X100012500Y-125372500D03*
D42*
X116894500Y-110851000D03*
X115069500Y-110851000D03*
X184694500Y-123176000D03*
X182869500Y-123176000D03*
D35*
X157480000Y-73556500D03*
X157480000Y-71731500D03*
D62*
X105156000Y-51993000D03*
X105156000Y-55118000D03*
D64*
X154228600Y-51714400D03*
X155803600Y-51714400D03*
D20*
X178182000Y-49026000D03*
X178182000Y-50926000D03*
D69*
X174219500Y-50876000D03*
X176344500Y-50876000D03*
D74*
X102362000Y-104296000D03*
X102362000Y-111096000D03*
X132842000Y-74774000D03*
X132842000Y-67974000D03*
D42*
X157264500Y-109346000D03*
X155439500Y-109346000D03*
X115974500Y-59436000D03*
X114149500Y-59436000D03*
D15*
X120632000Y-106101000D03*
X139192000Y-88646000D03*
X154432000Y-111620300D03*
X156972000Y-112776000D03*
D62*
X107696000Y-51993000D03*
X107696000Y-55118000D03*
D48*
X121158000Y-42860000D03*
X121158000Y-40960000D03*
D29*
X115849500Y-42418000D03*
X114274500Y-42418000D03*
D64*
X114274500Y-43942000D03*
X115849500Y-43942000D03*
D33*
X176365400Y-65024000D03*
X178015400Y-65024000D03*
D35*
X172466000Y-53998500D03*
X172466000Y-52173500D03*
D75*
X107696000Y-47752000D03*
X110821000Y-47752000D03*
D18*
X128117600Y-43029400D03*
X128117600Y-40079400D03*
D62*
X113347500Y-49999500D03*
X113347500Y-53124500D03*
D76*
X110871000Y-53124500D03*
X110871000Y-49999500D03*
D45*
X169938700Y-65328500D03*
X169938700Y-66878500D03*
D64*
X163565840Y-67157600D03*
X165140840Y-67157600D03*
D38*
X163525800Y-65565020D03*
X161975800Y-65565020D03*
D64*
X161950400Y-63906400D03*
X163525400Y-63906400D03*
D38*
X166598600Y-50914300D03*
X165048600Y-50914300D03*
D23*
X163474400Y-52642000D03*
X163474400Y-54292000D03*
D77*
X158217600Y-59688200D03*
D78*
X156692600Y-58213200D03*
X156692600Y-61163200D03*
D79*
X92456000Y-118872000D03*
X94996000Y-116332000D03*
X97536000Y-118872000D03*
X94996000Y-121412000D03*
X94996000Y-101012000D03*
X92456000Y-103552000D03*
X97536000Y-103552000D03*
X94996000Y-98552000D03*
X94996000Y-106092000D03*
D80*
X145283400Y-131188000D03*
X145933400Y-131188000D03*
X146583400Y-131188000D03*
X147233400Y-131188000D03*
X147883400Y-131188000D03*
D81*
X149083400Y-131188000D03*
D82*
X150083400Y-133888000D03*
D83*
X147583400Y-133888000D03*
X145583400Y-133888000D03*
D84*
X143683400Y-133888000D03*
D82*
X143083400Y-133888000D03*
D81*
X144083400Y-131188000D03*
D84*
X149483400Y-133888000D03*
D62*
X116078000Y-50038000D03*
X116078000Y-53163000D03*
D85*
X120713500Y-112395000D03*
X125013500Y-112395000D03*
D43*
X127355600Y-72544300D03*
X127355600Y-74369300D03*
D29*
X182956300Y-94234000D03*
X181381300Y-94234000D03*
D64*
X181838500Y-100584000D03*
X183413500Y-100584000D03*
D45*
X174052000Y-108141000D03*
X174052000Y-109691000D03*
X156082000Y-100621000D03*
X156082000Y-102171000D03*
X175582000Y-107801000D03*
X175582000Y-109351000D03*
D86*
X171020500Y-110314500D03*
X171020500Y-112189500D03*
D87*
X158082000Y-100726000D03*
X158082000Y-103676000D03*
D88*
X164945800Y-94945200D03*
X167895800Y-94945200D03*
D45*
X174882000Y-112801000D03*
X174882000Y-114351000D03*
D14*
X164682000Y-112751000D03*
X164682000Y-111201000D03*
D38*
X169939000Y-113792000D03*
X168389000Y-113792000D03*
D19*
X184482000Y-96288500D03*
X184482000Y-97863500D03*
D44*
X176276000Y-95783500D03*
X176276000Y-94208500D03*
X175006000Y-92761000D03*
X175006000Y-91186000D03*
D19*
X170434000Y-91414500D03*
X170434000Y-92989500D03*
X171958000Y-91160500D03*
X171958000Y-92735500D03*
X173482000Y-91160500D03*
X173482000Y-92735500D03*
X163626800Y-102082500D03*
X163626800Y-103657500D03*
D44*
X165455600Y-108686700D03*
X165455600Y-107111700D03*
D64*
X162234500Y-97486000D03*
X163809500Y-97486000D03*
X161994500Y-100576000D03*
X163569500Y-100576000D03*
D29*
X179569500Y-110176000D03*
X177994500Y-110176000D03*
D19*
X168656000Y-107162500D03*
X168656000Y-108737500D03*
X163068000Y-111226500D03*
X163068000Y-112801500D03*
X160662000Y-96398500D03*
X160662000Y-97973500D03*
X176482000Y-112788500D03*
X176482000Y-114363500D03*
X170180000Y-106908500D03*
X170180000Y-108483500D03*
X183642000Y-117856000D03*
X183642000Y-119431000D03*
X182118000Y-108940500D03*
X182118000Y-110515500D03*
D89*
X180797200Y-104952800D03*
X178562000Y-107442000D03*
D64*
X178003000Y-92202000D03*
X179578000Y-92202000D03*
D90*
X162433000Y-127254000D03*
X173863000Y-127254000D03*
D91*
X163703000Y-120904000D03*
X164973000Y-118364000D03*
X166243000Y-120904000D03*
X167513000Y-118364000D03*
X168783000Y-120904000D03*
X170053000Y-118364000D03*
X171323000Y-120904000D03*
X172593000Y-118364000D03*
D92*
X161523000Y-132154000D03*
X164063000Y-132154000D03*
X172233000Y-132154000D03*
X174773000Y-132154000D03*
D89*
X160403000Y-124204000D03*
X175893000Y-124204000D03*
D45*
X168882000Y-91401000D03*
X168882000Y-92951000D03*
D93*
X174244000Y-86086000D03*
X174244000Y-83586000D03*
D14*
X176276000Y-86701000D03*
X176276000Y-85151000D03*
D11*
X176263000Y-83566000D03*
X177813000Y-83566000D03*
D38*
X185991800Y-79552800D03*
X184441800Y-79552800D03*
D12*
X175768000Y-81534000D03*
X175768000Y-79884000D03*
X173939200Y-78904600D03*
X173939200Y-77254600D03*
X182829200Y-81139800D03*
X182829200Y-79489800D03*
D32*
X178765200Y-76301600D03*
X177115200Y-76301600D03*
D17*
X177391800Y-79552800D03*
X180341800Y-79552800D03*
D20*
X152908000Y-84140000D03*
X152908000Y-86040000D03*
D11*
X178803000Y-81534000D03*
X180353000Y-81534000D03*
D94*
X170197500Y-85196000D03*
X170197500Y-84696000D03*
X170197500Y-84196000D03*
X170197500Y-83696000D03*
X170197500Y-83196000D03*
X170197500Y-82696000D03*
X170197500Y-82196000D03*
X170197500Y-81696000D03*
D95*
X169510000Y-81008500D03*
X169010000Y-81008500D03*
X168510000Y-81008500D03*
X168010000Y-81008500D03*
X167510000Y-81008500D03*
X167010000Y-81008500D03*
X166510000Y-81008500D03*
X166010000Y-81008500D03*
D94*
X165322500Y-81696000D03*
X165322500Y-82196000D03*
X165322500Y-82696000D03*
X165322500Y-83196000D03*
X165322500Y-83696000D03*
X165322500Y-84196000D03*
X165322500Y-84696000D03*
X165322500Y-85196000D03*
D95*
X166010000Y-85883500D03*
X166510000Y-85883500D03*
X167010000Y-85883500D03*
X167510000Y-85883500D03*
X168010000Y-85883500D03*
X168510000Y-85883500D03*
X169010000Y-85883500D03*
X169510000Y-85883500D03*
D96*
X167760000Y-83446000D03*
D14*
X180289200Y-113297000D03*
X180289200Y-111747000D03*
D97*
X167795500Y-97580000D03*
X167795500Y-98080000D03*
X167795500Y-98580000D03*
X167795500Y-99080000D03*
X167795500Y-99580000D03*
X167795500Y-100080000D03*
X167795500Y-100580000D03*
X167795500Y-101080000D03*
X167795500Y-101580000D03*
X167795500Y-102080000D03*
X167795500Y-102580000D03*
X167795500Y-103080000D03*
D98*
X169208000Y-104492500D03*
X169708000Y-104492500D03*
X170208000Y-104492500D03*
X170708000Y-104492500D03*
X171208000Y-104492500D03*
X171708000Y-104492500D03*
X172208000Y-104492500D03*
X172708000Y-104492500D03*
X173208000Y-104492500D03*
X173708000Y-104492500D03*
X174208000Y-104492500D03*
X174708000Y-104492500D03*
D97*
X176120500Y-103080000D03*
X176120500Y-102580000D03*
X176120500Y-102080000D03*
X176120500Y-101580000D03*
X176120500Y-101080000D03*
X176120500Y-100580000D03*
X176120500Y-100080000D03*
X176120500Y-99580000D03*
X176120500Y-99080000D03*
X176120500Y-98580000D03*
X176120500Y-98080000D03*
X176120500Y-97580000D03*
D98*
X174708000Y-96167500D03*
X174208000Y-96167500D03*
X173708000Y-96167500D03*
X173208000Y-96167500D03*
X172708000Y-96167500D03*
X172208000Y-96167500D03*
X171708000Y-96167500D03*
X171208000Y-96167500D03*
X170708000Y-96167500D03*
X170208000Y-96167500D03*
X169708000Y-96167500D03*
X169208000Y-96167500D03*
D99*
X181864000Y-98720000D03*
X181864000Y-96520000D03*
X180164000Y-96520000D03*
X180164000Y-98720000D03*
D15*
X170078400Y-89357200D03*
D23*
X167081200Y-107125000D03*
X167081200Y-108775000D03*
D89*
X161682000Y-107876000D03*
D23*
X159082000Y-97451000D03*
X159082000Y-99101000D03*
D15*
X132232400Y-97282000D03*
D11*
X183457000Y-102216000D03*
X185007000Y-102216000D03*
D23*
X178112000Y-112701000D03*
X178112000Y-114351000D03*
X161391600Y-111189000D03*
X161391600Y-112839000D03*
D100*
X154544500Y-100176000D03*
X152719500Y-100176000D03*
D69*
X160657000Y-105376000D03*
X162782000Y-105376000D03*
D89*
X179282000Y-118576000D03*
D100*
X157464500Y-105566000D03*
X155639500Y-105566000D03*
D38*
X163747000Y-99046000D03*
X162197000Y-99046000D03*
D67*
X181834600Y-66395600D03*
X185144600Y-68935600D03*
X181834600Y-71475600D03*
X185144600Y-74015600D03*
X181834600Y-76555600D03*
M02*
