%FSLAX45Y45*%
G04 Gerber Fmt 4.5, Leading zero omitted, Abs format (unit mm)*
G04 Created by KiCad (PCBNEW 6.0.2+dfsg-1) date 2023-04-26 18:20:12*
%MOMM*%
%LPD*%
G01*
G04 APERTURE LIST*
%TA.AperFunction,Profile*%
%ADD10C,0.200000*%
%TD*%
%ADD11C,0.200000*%
%ADD12C,0.030000*%
%ADD13C,0.040000*%
%ADD14C,0.050000*%
%ADD15C,0.055000*%
%ADD16C,0.090000*%
%ADD17C,0.100000*%
%ADD18C,0.104000*%
%ADD19C,0.130000*%
%ADD20C,0.135000*%
%ADD21C,0.150000*%
%ADD22C,0.165000*%
%ADD23C,0.170000*%
%ADD24C,0.350000*%
G04 APERTURE END LIST*
D10*
X9525000Y-3683000D02*
X18161000Y-3683000D01*
X18161000Y-13589000D02*
X9525000Y-13589000D01*
X18796000Y-4318000D02*
X18796000Y-12954000D01*
X8890000Y-12954000D02*
G75*
G03*
X9525000Y-13589000I635000J0D01*
G01*
X18796000Y-4318000D02*
G75*
G03*
X18161000Y-3683000I-635000J0D01*
G01*
X8890000Y-12954000D02*
X8890000Y-4318000D01*
X18161000Y-13589000D02*
G75*
G03*
X18796000Y-12954000I0J635000D01*
G01*
X9525000Y-3683000D02*
G75*
G03*
X8890000Y-4318000I0J-635000D01*
G01*
D11*
D12*
X16605900Y-7182500D02*
X16635900Y-7212500D01*
X16635900Y-7182500D02*
X16605900Y-7212500D01*
X16605900Y-7392500D02*
X16635900Y-7422500D01*
X16635900Y-7392500D02*
X16605900Y-7422500D01*
X16815900Y-7182500D02*
X16845900Y-7212500D01*
X16845900Y-7182500D02*
X16815900Y-7212500D01*
X16815900Y-7392500D02*
X16845900Y-7422500D01*
X16845900Y-7392500D02*
X16815900Y-7422500D01*
D13*
X9037000Y-4338320D02*
G75*
G03*
X9037000Y-4338320I-20000J0D01*
G01*
X9037000Y-4673600D02*
G75*
G03*
X9037000Y-4673600I-20000J0D01*
G01*
X9037000Y-5689600D02*
G75*
G03*
X9037000Y-5689600I-20000J0D01*
G01*
X9037000Y-6197600D02*
G75*
G03*
X9037000Y-6197600I-20000J0D01*
G01*
X9037000Y-6451600D02*
G75*
G03*
X9037000Y-6451600I-20000J0D01*
G01*
X9037000Y-6705600D02*
G75*
G03*
X9037000Y-6705600I-20000J0D01*
G01*
X9037000Y-6959600D02*
G75*
G03*
X9037000Y-6959600I-20000J0D01*
G01*
X9037000Y-7213600D02*
G75*
G03*
X9037000Y-7213600I-20000J0D01*
G01*
X9037000Y-7467600D02*
G75*
G03*
X9037000Y-7467600I-20000J0D01*
G01*
X9037000Y-9067800D02*
G75*
G03*
X9037000Y-9067800I-20000J0D01*
G01*
X9037000Y-9245600D02*
G75*
G03*
X9037000Y-9245600I-20000J0D01*
G01*
X9037000Y-9499600D02*
G75*
G03*
X9037000Y-9499600I-20000J0D01*
G01*
X9037000Y-9753600D02*
G75*
G03*
X9037000Y-9753600I-20000J0D01*
G01*
X9037000Y-10001250D02*
G75*
G03*
X9037000Y-10001250I-20000J0D01*
G01*
X9037000Y-10261600D02*
G75*
G03*
X9037000Y-10261600I-20000J0D01*
G01*
X9037000Y-10515600D02*
G75*
G03*
X9037000Y-10515600I-20000J0D01*
G01*
X9037000Y-10769600D02*
G75*
G03*
X9037000Y-10769600I-20000J0D01*
G01*
X9037000Y-11023600D02*
G75*
G03*
X9037000Y-11023600I-20000J0D01*
G01*
X9037000Y-11277600D02*
G75*
G03*
X9037000Y-11277600I-20000J0D01*
G01*
X9037000Y-11531600D02*
G75*
G03*
X9037000Y-11531600I-20000J0D01*
G01*
X9037000Y-11785600D02*
G75*
G03*
X9037000Y-11785600I-20000J0D01*
G01*
X9037000Y-12039600D02*
G75*
G03*
X9037000Y-12039600I-20000J0D01*
G01*
X9037000Y-12293600D02*
G75*
G03*
X9037000Y-12293600I-20000J0D01*
G01*
X9037000Y-12547600D02*
G75*
G03*
X9037000Y-12547600I-20000J0D01*
G01*
X9037000Y-12776200D02*
G75*
G03*
X9037000Y-12776200I-20000J0D01*
G01*
X9042080Y-4511040D02*
G75*
G03*
X9042080Y-4511040I-20000J0D01*
G01*
X9042080Y-7929880D02*
G75*
G03*
X9042080Y-7929880I-20000J0D01*
G01*
X9057320Y-4170680D02*
G75*
G03*
X9057320Y-4170680I-20000J0D01*
G01*
X9062400Y-8356600D02*
G75*
G03*
X9062400Y-8356600I-20000J0D01*
G01*
X9123360Y-4033520D02*
G75*
G03*
X9123360Y-4033520I-20000J0D01*
G01*
X9174160Y-6832600D02*
G75*
G03*
X9174160Y-6832600I-20000J0D01*
G01*
X9174160Y-7345680D02*
G75*
G03*
X9174160Y-7345680I-20000J0D01*
G01*
X9199560Y-6065520D02*
G75*
G03*
X9199560Y-6065520I-20000J0D01*
G01*
X9219880Y-3926840D02*
G75*
G03*
X9219880Y-3926840I-20000J0D01*
G01*
X9260520Y-5410200D02*
G75*
G03*
X9260520Y-5410200I-20000J0D01*
G01*
X9351960Y-3845560D02*
G75*
G03*
X9351960Y-3845560I-20000J0D01*
G01*
X9418000Y-4775200D02*
G75*
G03*
X9418000Y-4775200I-20000J0D01*
G01*
X9443400Y-4908550D02*
G75*
G03*
X9443400Y-4908550I-20000J0D01*
G01*
X9443400Y-5899150D02*
G75*
G03*
X9443400Y-5899150I-20000J0D01*
G01*
X9448480Y-7696200D02*
G75*
G03*
X9448480Y-7696200I-20000J0D01*
G01*
X9509440Y-3810000D02*
G75*
G03*
X9509440Y-3810000I-20000J0D01*
G01*
X9595800Y-7848600D02*
G75*
G03*
X9595800Y-7848600I-20000J0D01*
G01*
X9651680Y-3810000D02*
G75*
G03*
X9651680Y-3810000I-20000J0D01*
G01*
X9691050Y-5899150D02*
G75*
G03*
X9691050Y-5899150I-20000J0D01*
G01*
X9748200Y-7213600D02*
G75*
G03*
X9748200Y-7213600I-20000J0D01*
G01*
X9783760Y-3810000D02*
G75*
G03*
X9783760Y-3810000I-20000J0D01*
G01*
X9811700Y-12344400D02*
G75*
G03*
X9811700Y-12344400I-20000J0D01*
G01*
X9849800Y-9664700D02*
G75*
G03*
X9849800Y-9664700I-20000J0D01*
G01*
X9880280Y-3937000D02*
G75*
G03*
X9880280Y-3937000I-20000J0D01*
G01*
X9886884Y-10996168D02*
G75*
G03*
X9886884Y-10996168I-20000J0D01*
G01*
X9894250Y-9029700D02*
G75*
G03*
X9894250Y-9029700I-20000J0D01*
G01*
X9915840Y-3810000D02*
G75*
G03*
X9915840Y-3810000I-20000J0D01*
G01*
X9926000Y-6527800D02*
G75*
G03*
X9926000Y-6527800I-20000J0D01*
G01*
X9951400Y-5899150D02*
G75*
G03*
X9951400Y-5899150I-20000J0D01*
G01*
X9956480Y-4704080D02*
G75*
G03*
X9956480Y-4704080I-20000J0D01*
G01*
X9976800Y-9245600D02*
G75*
G03*
X9976800Y-9245600I-20000J0D01*
G01*
X9976800Y-9499600D02*
G75*
G03*
X9976800Y-9499600I-20000J0D01*
G01*
X9994580Y-7148830D02*
G75*
G03*
X9994580Y-7148830I-20000J0D01*
G01*
X10002200Y-13411200D02*
G75*
G03*
X10002200Y-13411200I-20000J0D01*
G01*
X10008550Y-4965700D02*
G75*
G03*
X10008550Y-4965700I-20000J0D01*
G01*
X10021250Y-12217400D02*
G75*
G03*
X10021250Y-12217400I-20000J0D01*
G01*
X10022520Y-8920480D02*
G75*
G03*
X10022520Y-8920480I-20000J0D01*
G01*
X10027600Y-11633200D02*
G75*
G03*
X10027600Y-11633200I-20000J0D01*
G01*
X10030140Y-3987800D02*
G75*
G03*
X10030140Y-3987800I-20000J0D01*
G01*
X10030140Y-4089400D02*
G75*
G03*
X10030140Y-4089400I-20000J0D01*
G01*
X10032680Y-3881120D02*
G75*
G03*
X10032680Y-3881120I-20000J0D01*
G01*
X10032680Y-4196080D02*
G75*
G03*
X10032680Y-4196080I-20000J0D01*
G01*
X10032680Y-4300220D02*
G75*
G03*
X10032680Y-4300220I-20000J0D01*
G01*
X10047920Y-4404360D02*
G75*
G03*
X10047920Y-4404360I-20000J0D01*
G01*
X10047920Y-4572000D02*
G75*
G03*
X10047920Y-4572000I-20000J0D01*
G01*
X10053254Y-5776976D02*
G75*
G03*
X10053254Y-5776976I-20000J0D01*
G01*
X10065700Y-11303000D02*
G75*
G03*
X10065700Y-11303000I-20000J0D01*
G01*
X10070780Y-9664700D02*
G75*
G03*
X10070780Y-9664700I-20000J0D01*
G01*
X10073320Y-5969000D02*
G75*
G03*
X10073320Y-5969000I-20000J0D01*
G01*
X10078400Y-9494520D02*
G75*
G03*
X10078400Y-9494520I-20000J0D01*
G01*
X10088560Y-4729480D02*
G75*
G03*
X10088560Y-4729480I-20000J0D01*
G01*
X10091100Y-3787140D02*
G75*
G03*
X10091100Y-3787140I-20000J0D01*
G01*
X10120056Y-7146544D02*
G75*
G03*
X10120056Y-7146544I-20000J0D01*
G01*
X10141900Y-4434840D02*
G75*
G03*
X10141900Y-4434840I-20000J0D01*
G01*
X10141900Y-4908550D02*
G75*
G03*
X10141900Y-4908550I-20000J0D01*
G01*
X10180000Y-5867400D02*
G75*
G03*
X10180000Y-5867400I-20000J0D01*
G01*
X10190160Y-3782060D02*
G75*
G03*
X10190160Y-3782060I-20000J0D01*
G01*
X10192700Y-12357100D02*
G75*
G03*
X10192700Y-12357100I-20000J0D01*
G01*
X10195240Y-9199880D02*
G75*
G03*
X10195240Y-9199880I-20000J0D01*
G01*
X10205400Y-11303000D02*
G75*
G03*
X10205400Y-11303000I-20000J0D01*
G01*
X10230800Y-8877300D02*
G75*
G03*
X10230800Y-8877300I-20000J0D01*
G01*
X10230800Y-8991600D02*
G75*
G03*
X10230800Y-8991600I-20000J0D01*
G01*
X10246040Y-4434840D02*
G75*
G03*
X10246040Y-4434840I-20000J0D01*
G01*
X10246040Y-7146290D02*
G75*
G03*
X10246040Y-7146290I-20000J0D01*
G01*
X10247564Y-7937500D02*
G75*
G03*
X10247564Y-7937500I-20000J0D01*
G01*
X10256200Y-13411200D02*
G75*
G03*
X10256200Y-13411200I-20000J0D01*
G01*
X10262550Y-4902200D02*
G75*
G03*
X10262550Y-4902200I-20000J0D01*
G01*
X10266360Y-5969000D02*
G75*
G03*
X10266360Y-5969000I-20000J0D01*
G01*
X10268900Y-6286500D02*
G75*
G03*
X10268900Y-6286500I-20000J0D01*
G01*
X10268900Y-6781800D02*
G75*
G03*
X10268900Y-6781800I-20000J0D01*
G01*
X10289220Y-3779520D02*
G75*
G03*
X10289220Y-3779520I-20000J0D01*
G01*
X10300904Y-10052050D02*
G75*
G03*
X10300904Y-10052050I-20000J0D01*
G01*
X10350180Y-4434840D02*
G75*
G03*
X10350180Y-4434840I-20000J0D01*
G01*
X10357800Y-5867400D02*
G75*
G03*
X10357800Y-5867400I-20000J0D01*
G01*
X10383200Y-4921250D02*
G75*
G03*
X10383200Y-4921250I-20000J0D01*
G01*
X10385740Y-3782060D02*
G75*
G03*
X10385740Y-3782060I-20000J0D01*
G01*
X10392344Y-7154672D02*
G75*
G03*
X10392344Y-7154672I-20000J0D01*
G01*
X10393360Y-11303000D02*
G75*
G03*
X10393360Y-11303000I-20000J0D01*
G01*
X10418760Y-8356600D02*
G75*
G03*
X10418760Y-8356600I-20000J0D01*
G01*
X10439080Y-5969000D02*
G75*
G03*
X10439080Y-5969000I-20000J0D01*
G01*
X10456860Y-4417060D02*
G75*
G03*
X10456860Y-4417060I-20000J0D01*
G01*
X10467020Y-3810000D02*
G75*
G03*
X10467020Y-3810000I-20000J0D01*
G01*
X10491150Y-8191500D02*
G75*
G03*
X10491150Y-8191500I-20000J0D01*
G01*
X10494960Y-7237730D02*
G75*
G03*
X10494960Y-7237730I-20000J0D01*
G01*
X10497500Y-3891280D02*
G75*
G03*
X10497500Y-3891280I-20000J0D01*
G01*
X10500040Y-4003040D02*
G75*
G03*
X10500040Y-4003040I-20000J0D01*
G01*
X10500040Y-4104640D02*
G75*
G03*
X10500040Y-4104640I-20000J0D01*
G01*
X10502580Y-4211320D02*
G75*
G03*
X10502580Y-4211320I-20000J0D01*
G01*
X10502580Y-4315460D02*
G75*
G03*
X10502580Y-4315460I-20000J0D01*
G01*
X10510200Y-6248400D02*
G75*
G03*
X10510200Y-6248400I-20000J0D01*
G01*
X10520360Y-4495800D02*
G75*
G03*
X10520360Y-4495800I-20000J0D01*
G01*
X10535600Y-5867400D02*
G75*
G03*
X10535600Y-5867400I-20000J0D01*
G01*
X10535600Y-6106160D02*
G75*
G03*
X10535600Y-6106160I-20000J0D01*
G01*
X10541950Y-4978400D02*
G75*
G03*
X10541950Y-4978400I-20000J0D01*
G01*
X10570700Y-8075100D02*
G75*
G03*
X10570700Y-8075100I-20000J0D01*
G01*
X10586400Y-4772914D02*
G75*
G03*
X10586400Y-4772914I-20000J0D01*
G01*
X10596560Y-3784600D02*
G75*
G03*
X10596560Y-3784600I-20000J0D01*
G01*
X10596560Y-3911600D02*
G75*
G03*
X10596560Y-3911600I-20000J0D01*
G01*
X10601640Y-5974080D02*
G75*
G03*
X10601640Y-5974080I-20000J0D01*
G01*
X10616880Y-6563360D02*
G75*
G03*
X10616880Y-6563360I-20000J0D01*
G01*
X10643550Y-8521700D02*
G75*
G03*
X10643550Y-8521700I-20000J0D01*
G01*
X10656250Y-4978400D02*
G75*
G03*
X10656250Y-4978400I-20000J0D01*
G01*
X10662600Y-5181600D02*
G75*
G03*
X10662600Y-5181600I-20000J0D01*
G01*
X10680380Y-8218932D02*
G75*
G03*
X10680380Y-8218932I-20000J0D01*
G01*
X10708320Y-3784600D02*
G75*
G03*
X10708320Y-3784600I-20000J0D01*
G01*
X10713400Y-5867400D02*
G75*
G03*
X10713400Y-5867400I-20000J0D01*
G01*
X10713400Y-6659880D02*
G75*
G03*
X10713400Y-6659880I-20000J0D01*
G01*
X10738800Y-8775700D02*
G75*
G03*
X10738800Y-8775700I-20000J0D01*
G01*
X10748452Y-7262368D02*
G75*
G03*
X10748452Y-7262368I-20000J0D01*
G01*
X10775376Y-6996176D02*
G75*
G03*
X10775376Y-6996176I-20000J0D01*
G01*
X10775376Y-7174484D02*
G75*
G03*
X10775376Y-7174484I-20000J0D01*
G01*
X10776392Y-7081520D02*
G75*
G03*
X10776392Y-7081520I-20000J0D01*
G01*
X10783250Y-4972050D02*
G75*
G03*
X10783250Y-4972050I-20000J0D01*
G01*
X10796204Y-4597400D02*
G75*
G03*
X10796204Y-4597400I-20000J0D01*
G01*
X10827700Y-8318500D02*
G75*
G03*
X10827700Y-8318500I-20000J0D01*
G01*
X10834558Y-9395714D02*
G75*
G03*
X10834558Y-9395714I-20000J0D01*
G01*
X10835320Y-3784600D02*
G75*
G03*
X10835320Y-3784600I-20000J0D01*
G01*
X10835828Y-9190990D02*
G75*
G03*
X10835828Y-9190990I-20000J0D01*
G01*
X10835828Y-9290050D02*
G75*
G03*
X10835828Y-9290050I-20000J0D01*
G01*
X10838622Y-7272274D02*
G75*
G03*
X10838622Y-7272274I-20000J0D01*
G01*
X10865038Y-6993382D02*
G75*
G03*
X10865038Y-6993382I-20000J0D01*
G01*
X10877484Y-10414000D02*
G75*
G03*
X10877484Y-10414000I-20000J0D01*
G01*
X10878500Y-12547600D02*
G75*
G03*
X10878500Y-12547600I-20000J0D01*
G01*
X10878500Y-12852400D02*
G75*
G03*
X10878500Y-12852400I-20000J0D01*
G01*
X10891200Y-5791200D02*
G75*
G03*
X10891200Y-5791200I-20000J0D01*
G01*
X10909996Y-9139428D02*
G75*
G03*
X10909996Y-9139428I-20000J0D01*
G01*
X10919902Y-9430766D02*
G75*
G03*
X10919902Y-9430766I-20000J0D01*
G01*
X10933110Y-7270496D02*
G75*
G03*
X10933110Y-7270496I-20000J0D01*
G01*
X10953684Y-6994652D02*
G75*
G03*
X10953684Y-6994652I-20000J0D01*
G01*
X10983910Y-7461250D02*
G75*
G03*
X10983910Y-7461250I-20000J0D01*
G01*
X10985180Y-7569200D02*
G75*
G03*
X10985180Y-7569200I-20000J0D01*
G01*
X10985180Y-7669530D02*
G75*
G03*
X10985180Y-7669530I-20000J0D01*
G01*
X10985180Y-7778750D02*
G75*
G03*
X10985180Y-7778750I-20000J0D01*
G01*
X11002452Y-9139428D02*
G75*
G03*
X11002452Y-9139428I-20000J0D01*
G01*
X11014390Y-9431782D02*
G75*
G03*
X11014390Y-9431782I-20000J0D01*
G01*
X11026074Y-7104888D02*
G75*
G03*
X11026074Y-7104888I-20000J0D01*
G01*
X11026836Y-7204456D02*
G75*
G03*
X11026836Y-7204456I-20000J0D01*
G01*
X11030646Y-7020306D02*
G75*
G03*
X11030646Y-7020306I-20000J0D01*
G01*
X11052490Y-9574530D02*
G75*
G03*
X11052490Y-9574530I-20000J0D01*
G01*
X11053760Y-9682480D02*
G75*
G03*
X11053760Y-9682480I-20000J0D01*
G01*
X11053760Y-9782810D02*
G75*
G03*
X11053760Y-9782810I-20000J0D01*
G01*
X11053760Y-9892030D02*
G75*
G03*
X11053760Y-9892030I-20000J0D01*
G01*
X11086780Y-7461250D02*
G75*
G03*
X11086780Y-7461250I-20000J0D01*
G01*
X11088050Y-7567930D02*
G75*
G03*
X11088050Y-7567930I-20000J0D01*
G01*
X11093638Y-9138412D02*
G75*
G03*
X11093638Y-9138412I-20000J0D01*
G01*
X11094400Y-5791200D02*
G75*
G03*
X11094400Y-5791200I-20000J0D01*
G01*
X11094400Y-8319516D02*
G75*
G03*
X11094400Y-8319516I-20000J0D01*
G01*
X11107608Y-9431782D02*
G75*
G03*
X11107608Y-9431782I-20000J0D01*
G01*
X11119800Y-10401300D02*
G75*
G03*
X11119800Y-10401300I-20000J0D01*
G01*
X11155360Y-9574530D02*
G75*
G03*
X11155360Y-9574530I-20000J0D01*
G01*
X11156630Y-9681210D02*
G75*
G03*
X11156630Y-9681210I-20000J0D01*
G01*
X11179490Y-9172194D02*
G75*
G03*
X11179490Y-9172194I-20000J0D01*
G01*
X11181522Y-9362186D02*
G75*
G03*
X11181522Y-9362186I-20000J0D01*
G01*
X11182792Y-9271000D02*
G75*
G03*
X11182792Y-9271000I-20000J0D01*
G01*
X11221400Y-11328400D02*
G75*
G03*
X11221400Y-11328400I-20000J0D01*
G01*
X11272200Y-5829300D02*
G75*
G03*
X11272200Y-5829300I-20000J0D01*
G01*
X11272200Y-12852400D02*
G75*
G03*
X11272200Y-12852400I-20000J0D01*
G01*
X11272200Y-13411200D02*
G75*
G03*
X11272200Y-13411200I-20000J0D01*
G01*
X11279566Y-8252714D02*
G75*
G03*
X11279566Y-8252714I-20000J0D01*
G01*
X11284900Y-12534900D02*
G75*
G03*
X11284900Y-12534900I-20000J0D01*
G01*
X11297600Y-3956050D02*
G75*
G03*
X11297600Y-3956050I-20000J0D01*
G01*
X11307760Y-6649720D02*
G75*
G03*
X11307760Y-6649720I-20000J0D01*
G01*
X11310300Y-3778250D02*
G75*
G03*
X11310300Y-3778250I-20000J0D01*
G01*
X11323000Y-4394200D02*
G75*
G03*
X11323000Y-4394200I-20000J0D01*
G01*
X11323000Y-4521200D02*
G75*
G03*
X11323000Y-4521200I-20000J0D01*
G01*
X11328842Y-10373360D02*
G75*
G03*
X11328842Y-10373360I-20000J0D01*
G01*
X11361100Y-3873500D02*
G75*
G03*
X11361100Y-3873500I-20000J0D01*
G01*
X11361100Y-4051300D02*
G75*
G03*
X11361100Y-4051300I-20000J0D01*
G01*
X11405550Y-8839200D02*
G75*
G03*
X11405550Y-8839200I-20000J0D01*
G01*
X11418250Y-3778250D02*
G75*
G03*
X11418250Y-3778250I-20000J0D01*
G01*
X11418250Y-3956050D02*
G75*
G03*
X11418250Y-3956050I-20000J0D01*
G01*
X11436792Y-7569708D02*
G75*
G03*
X11436792Y-7569708I-20000J0D01*
G01*
X11450000Y-4521200D02*
G75*
G03*
X11450000Y-4521200I-20000J0D01*
G01*
X11500800Y-4953000D02*
G75*
G03*
X11500800Y-4953000I-20000J0D01*
G01*
X11500800Y-5054600D02*
G75*
G03*
X11500800Y-5054600I-20000J0D01*
G01*
X11531280Y-3789680D02*
G75*
G03*
X11531280Y-3789680I-20000J0D01*
G01*
X11531280Y-3891280D02*
G75*
G03*
X11531280Y-3891280I-20000J0D01*
G01*
X11531280Y-3992880D02*
G75*
G03*
X11531280Y-3992880I-20000J0D01*
G01*
X11532550Y-7372350D02*
G75*
G03*
X11532550Y-7372350I-20000J0D01*
G01*
X11536360Y-9585960D02*
G75*
G03*
X11536360Y-9585960I-20000J0D01*
G01*
X11577000Y-8204200D02*
G75*
G03*
X11577000Y-8204200I-20000J0D01*
G01*
X11622720Y-11978640D02*
G75*
G03*
X11622720Y-11978640I-20000J0D01*
G01*
X11627800Y-4521200D02*
G75*
G03*
X11627800Y-4521200I-20000J0D01*
G01*
X11653200Y-5829300D02*
G75*
G03*
X11653200Y-5829300I-20000J0D01*
G01*
X11658280Y-3789680D02*
G75*
G03*
X11658280Y-3789680I-20000J0D01*
G01*
X11658280Y-3891280D02*
G75*
G03*
X11658280Y-3891280I-20000J0D01*
G01*
X11658280Y-3992880D02*
G75*
G03*
X11658280Y-3992880I-20000J0D01*
G01*
X11678600Y-4089400D02*
G75*
G03*
X11678600Y-4089400I-20000J0D01*
G01*
X11678600Y-7493000D02*
G75*
G03*
X11678600Y-7493000I-20000J0D01*
G01*
X11704000Y-8166100D02*
G75*
G03*
X11704000Y-8166100I-20000J0D01*
G01*
X11713200Y-11220100D02*
G75*
G03*
X11713200Y-11220100I-20000J0D01*
G01*
X11724320Y-11658600D02*
G75*
G03*
X11724320Y-11658600I-20000J0D01*
G01*
X11724320Y-11846560D02*
G75*
G03*
X11724320Y-11846560I-20000J0D01*
G01*
X11767500Y-7308850D02*
G75*
G03*
X11767500Y-7308850I-20000J0D01*
G01*
X11780200Y-4953000D02*
G75*
G03*
X11780200Y-4953000I-20000J0D01*
G01*
X11780200Y-5054600D02*
G75*
G03*
X11780200Y-5054600I-20000J0D01*
G01*
X11800520Y-10261600D02*
G75*
G03*
X11800520Y-10261600I-20000J0D01*
G01*
X11813220Y-6097270D02*
G75*
G03*
X11813220Y-6097270I-20000J0D01*
G01*
X11813220Y-6203950D02*
G75*
G03*
X11813220Y-6203950I-20000J0D01*
G01*
X11813220Y-6305550D02*
G75*
G03*
X11813220Y-6305550I-20000J0D01*
G01*
X11864528Y-7387844D02*
G75*
G03*
X11864528Y-7387844I-20000J0D01*
G01*
X11865036Y-7233920D02*
G75*
G03*
X11865036Y-7233920I-20000J0D01*
G01*
X11865036Y-8157718D02*
G75*
G03*
X11865036Y-8157718I-20000J0D01*
G01*
X11867068Y-7645400D02*
G75*
G03*
X11867068Y-7645400I-20000J0D01*
G01*
X11868592Y-7514844D02*
G75*
G03*
X11868592Y-7514844I-20000J0D01*
G01*
X11868592Y-7771384D02*
G75*
G03*
X11868592Y-7771384I-20000J0D01*
G01*
X11868846Y-7901178D02*
G75*
G03*
X11868846Y-7901178I-20000J0D01*
G01*
X11871386Y-8028178D02*
G75*
G03*
X11871386Y-8028178I-20000J0D01*
G01*
X11930060Y-6097270D02*
G75*
G03*
X11930060Y-6097270I-20000J0D01*
G01*
X11930060Y-6203950D02*
G75*
G03*
X11930060Y-6203950I-20000J0D01*
G01*
X11930060Y-6305550D02*
G75*
G03*
X11930060Y-6305550I-20000J0D01*
G01*
X11948348Y-9433560D02*
G75*
G03*
X11948348Y-9433560I-20000J0D01*
G01*
X11954952Y-9569704D02*
G75*
G03*
X11954952Y-9569704I-20000J0D01*
G01*
X11955206Y-9701784D02*
G75*
G03*
X11955206Y-9701784I-20000J0D01*
G01*
X11956730Y-9968992D02*
G75*
G03*
X11956730Y-9968992I-20000J0D01*
G01*
X11958000Y-9840722D02*
G75*
G03*
X11958000Y-9840722I-20000J0D01*
G01*
X11958000Y-10102342D02*
G75*
G03*
X11958000Y-10102342I-20000J0D01*
G01*
X11958000Y-10246360D02*
G75*
G03*
X11958000Y-10246360I-20000J0D01*
G01*
X12050710Y-6097270D02*
G75*
G03*
X12050710Y-6097270I-20000J0D01*
G01*
X12050710Y-6203950D02*
G75*
G03*
X12050710Y-6203950I-20000J0D01*
G01*
X12050710Y-6305550D02*
G75*
G03*
X12050710Y-6305550I-20000J0D01*
G01*
X12085000Y-3810000D02*
G75*
G03*
X12085000Y-3810000I-20000J0D01*
G01*
X12087540Y-3959860D02*
G75*
G03*
X12087540Y-3959860I-20000J0D01*
G01*
X12172630Y-6094730D02*
G75*
G03*
X12172630Y-6094730I-20000J0D01*
G01*
X12172630Y-6201410D02*
G75*
G03*
X12172630Y-6201410I-20000J0D01*
G01*
X12172630Y-6303010D02*
G75*
G03*
X12172630Y-6303010I-20000J0D01*
G01*
X12212000Y-3810000D02*
G75*
G03*
X12212000Y-3810000I-20000J0D01*
G01*
X12278040Y-4251960D02*
G75*
G03*
X12278040Y-4251960I-20000J0D01*
G01*
X12278040Y-4328160D02*
G75*
G03*
X12278040Y-4328160I-20000J0D01*
G01*
X12316140Y-3968750D02*
G75*
G03*
X12316140Y-3968750I-20000J0D01*
G01*
X12339000Y-3810000D02*
G75*
G03*
X12339000Y-3810000I-20000J0D01*
G01*
X12345096Y-5779008D02*
G75*
G03*
X12345096Y-5779008I-20000J0D01*
G01*
X12351700Y-11094720D02*
G75*
G03*
X12351700Y-11094720I-20000J0D01*
G01*
X12351700Y-11219180D02*
G75*
G03*
X12351700Y-11219180I-20000J0D01*
G01*
X12351700Y-11336020D02*
G75*
G03*
X12351700Y-11336020I-20000J0D01*
G01*
X12364400Y-5181600D02*
G75*
G03*
X12364400Y-5181600I-20000J0D01*
G01*
X12371512Y-5390896D02*
G75*
G03*
X12371512Y-5390896I-20000J0D01*
G01*
X12377100Y-12522200D02*
G75*
G03*
X12377100Y-12522200I-20000J0D01*
G01*
X12377100Y-12865100D02*
G75*
G03*
X12377100Y-12865100I-20000J0D01*
G01*
X12389800Y-4622800D02*
G75*
G03*
X12389800Y-4622800I-20000J0D01*
G01*
X12430440Y-11036300D02*
G75*
G03*
X12430440Y-11036300I-20000J0D01*
G01*
X12430440Y-11402060D02*
G75*
G03*
X12430440Y-11402060I-20000J0D01*
G01*
X12466000Y-3810000D02*
G75*
G03*
X12466000Y-3810000I-20000J0D01*
G01*
X12499528Y-5776976D02*
G75*
G03*
X12499528Y-5776976I-20000J0D01*
G01*
X12516800Y-5390896D02*
G75*
G03*
X12516800Y-5390896I-20000J0D01*
G01*
X12516800Y-7239000D02*
G75*
G03*
X12516800Y-7239000I-20000J0D01*
G01*
X12516800Y-7518400D02*
G75*
G03*
X12516800Y-7518400I-20000J0D01*
G01*
X12516800Y-7747000D02*
G75*
G03*
X12516800Y-7747000I-20000J0D01*
G01*
X12526960Y-11036300D02*
G75*
G03*
X12526960Y-11036300I-20000J0D01*
G01*
X12526960Y-11402060D02*
G75*
G03*
X12526960Y-11402060I-20000J0D01*
G01*
X12567600Y-4800600D02*
G75*
G03*
X12567600Y-4800600I-20000J0D01*
G01*
X12567600Y-5867400D02*
G75*
G03*
X12567600Y-5867400I-20000J0D01*
G01*
X12567600Y-7010400D02*
G75*
G03*
X12567600Y-7010400I-20000J0D01*
G01*
X12580300Y-9563100D02*
G75*
G03*
X12580300Y-9563100I-20000J0D01*
G01*
X12580300Y-9829800D02*
G75*
G03*
X12580300Y-9829800I-20000J0D01*
G01*
X12580300Y-10096500D02*
G75*
G03*
X12580300Y-10096500I-20000J0D01*
G01*
X12580300Y-10325100D02*
G75*
G03*
X12580300Y-10325100I-20000J0D01*
G01*
X12593000Y-3810000D02*
G75*
G03*
X12593000Y-3810000I-20000J0D01*
G01*
X12593000Y-5232400D02*
G75*
G03*
X12593000Y-5232400I-20000J0D01*
G01*
X12608240Y-4251960D02*
G75*
G03*
X12608240Y-4251960I-20000J0D01*
G01*
X12608240Y-4328160D02*
G75*
G03*
X12608240Y-4328160I-20000J0D01*
G01*
X12631100Y-11036300D02*
G75*
G03*
X12631100Y-11036300I-20000J0D01*
G01*
X12631100Y-11402060D02*
G75*
G03*
X12631100Y-11402060I-20000J0D01*
G01*
X12650912Y-5775198D02*
G75*
G03*
X12650912Y-5775198I-20000J0D01*
G01*
X12664120Y-3997960D02*
G75*
G03*
X12664120Y-3997960I-20000J0D01*
G01*
X12665644Y-5392420D02*
G75*
G03*
X12665644Y-5392420I-20000J0D01*
G01*
X12703490Y-4251960D02*
G75*
G03*
X12703490Y-4251960I-20000J0D01*
G01*
X12703490Y-4328160D02*
G75*
G03*
X12703490Y-4328160I-20000J0D01*
G01*
X12720000Y-3810000D02*
G75*
G03*
X12720000Y-3810000I-20000J0D01*
G01*
X12725080Y-11094720D02*
G75*
G03*
X12725080Y-11094720I-20000J0D01*
G01*
X12725080Y-11219180D02*
G75*
G03*
X12725080Y-11219180I-20000J0D01*
G01*
X12725080Y-11336020D02*
G75*
G03*
X12725080Y-11336020I-20000J0D01*
G01*
X12735240Y-11760200D02*
G75*
G03*
X12735240Y-11760200I-20000J0D01*
G01*
X12765720Y-10952480D02*
G75*
G03*
X12765720Y-10952480I-20000J0D01*
G01*
X12770700Y-10720100D02*
G75*
G03*
X12770700Y-10720100I-20000J0D01*
G01*
X12770800Y-12522200D02*
G75*
G03*
X12770800Y-12522200I-20000J0D01*
G01*
X12783500Y-12852400D02*
G75*
G03*
X12783500Y-12852400I-20000J0D01*
G01*
X12796200Y-5435600D02*
G75*
G03*
X12796200Y-5435600I-20000J0D01*
G01*
X12796200Y-5580634D02*
G75*
G03*
X12796200Y-5580634I-20000J0D01*
G01*
X12796200Y-5753100D02*
G75*
G03*
X12796200Y-5753100I-20000J0D01*
G01*
X12815250Y-5232400D02*
G75*
G03*
X12815250Y-5232400I-20000J0D01*
G01*
X12821600Y-4800600D02*
G75*
G03*
X12821600Y-4800600I-20000J0D01*
G01*
X12821600Y-5867400D02*
G75*
G03*
X12821600Y-5867400I-20000J0D01*
G01*
X12847000Y-3810000D02*
G75*
G03*
X12847000Y-3810000I-20000J0D01*
G01*
X12923200Y-5499100D02*
G75*
G03*
X12923200Y-5499100I-20000J0D01*
G01*
X12923200Y-5689600D02*
G75*
G03*
X12923200Y-5689600I-20000J0D01*
G01*
X12948600Y-10185400D02*
G75*
G03*
X12948600Y-10185400I-20000J0D01*
G01*
X12974000Y-3810000D02*
G75*
G03*
X12974000Y-3810000I-20000J0D01*
G01*
X12974000Y-7340600D02*
G75*
G03*
X12974000Y-7340600I-20000J0D01*
G01*
X12994320Y-13009880D02*
G75*
G03*
X12994320Y-13009880I-20000J0D01*
G01*
X13024800Y-9194800D02*
G75*
G03*
X13024800Y-9194800I-20000J0D01*
G01*
X13024800Y-9359900D02*
G75*
G03*
X13024800Y-9359900I-20000J0D01*
G01*
X13034960Y-12527280D02*
G75*
G03*
X13034960Y-12527280I-20000J0D01*
G01*
X13050200Y-4800600D02*
G75*
G03*
X13050200Y-4800600I-20000J0D01*
G01*
X13050200Y-5232400D02*
G75*
G03*
X13050200Y-5232400I-20000J0D01*
G01*
X13050200Y-7061200D02*
G75*
G03*
X13050200Y-7061200I-20000J0D01*
G01*
X13050200Y-13411200D02*
G75*
G03*
X13050200Y-13411200I-20000J0D01*
G01*
X13075600Y-6934200D02*
G75*
G03*
X13075600Y-6934200I-20000J0D01*
G01*
X13075600Y-7721600D02*
G75*
G03*
X13075600Y-7721600I-20000J0D01*
G01*
X13075600Y-7975600D02*
G75*
G03*
X13075600Y-7975600I-20000J0D01*
G01*
X13075600Y-8229600D02*
G75*
G03*
X13075600Y-8229600I-20000J0D01*
G01*
X13075600Y-8483600D02*
G75*
G03*
X13075600Y-8483600I-20000J0D01*
G01*
X13101000Y-3810000D02*
G75*
G03*
X13101000Y-3810000I-20000J0D01*
G01*
X13101000Y-6559550D02*
G75*
G03*
X13101000Y-6559550I-20000J0D01*
G01*
X13126400Y-5892800D02*
G75*
G03*
X13126400Y-5892800I-20000J0D01*
G01*
X13131480Y-10739120D02*
G75*
G03*
X13131480Y-10739120I-20000J0D01*
G01*
X13177200Y-5432552D02*
G75*
G03*
X13177200Y-5432552I-20000J0D01*
G01*
X13177200Y-7010400D02*
G75*
G03*
X13177200Y-7010400I-20000J0D01*
G01*
X13177200Y-7137400D02*
G75*
G03*
X13177200Y-7137400I-20000J0D01*
G01*
X13202600Y-6019800D02*
G75*
G03*
X13202600Y-6019800I-20000J0D01*
G01*
X13202600Y-6559550D02*
G75*
G03*
X13202600Y-6559550I-20000J0D01*
G01*
X13228000Y-3810000D02*
G75*
G03*
X13228000Y-3810000I-20000J0D01*
G01*
X13272450Y-5232400D02*
G75*
G03*
X13272450Y-5232400I-20000J0D01*
G01*
X13278800Y-4800600D02*
G75*
G03*
X13278800Y-4800600I-20000J0D01*
G01*
X13304200Y-7009130D02*
G75*
G03*
X13304200Y-7009130I-20000J0D01*
G01*
X13305470Y-6560820D02*
G75*
G03*
X13305470Y-6560820I-20000J0D01*
G01*
X13334680Y-10200640D02*
G75*
G03*
X13334680Y-10200640I-20000J0D01*
G01*
X13355000Y-3810000D02*
G75*
G03*
X13355000Y-3810000I-20000J0D01*
G01*
X13355000Y-6019800D02*
G75*
G03*
X13355000Y-6019800I-20000J0D01*
G01*
X13400720Y-6560820D02*
G75*
G03*
X13400720Y-6560820I-20000J0D01*
G01*
X13400720Y-11562080D02*
G75*
G03*
X13400720Y-11562080I-20000J0D01*
G01*
X13405800Y-7086600D02*
G75*
G03*
X13405800Y-7086600I-20000J0D01*
G01*
X13482000Y-3810000D02*
G75*
G03*
X13482000Y-3810000I-20000J0D01*
G01*
X13482000Y-8763000D02*
G75*
G03*
X13482000Y-8763000I-20000J0D01*
G01*
X13482000Y-8966200D02*
G75*
G03*
X13482000Y-8966200I-20000J0D01*
G01*
X13501050Y-6559550D02*
G75*
G03*
X13501050Y-6559550I-20000J0D01*
G01*
X13503844Y-7964424D02*
G75*
G03*
X13503844Y-7964424I-20000J0D01*
G01*
X13507400Y-4800600D02*
G75*
G03*
X13507400Y-4800600I-20000J0D01*
G01*
X13507400Y-5232400D02*
G75*
G03*
X13507400Y-5232400I-20000J0D01*
G01*
X13507400Y-5816600D02*
G75*
G03*
X13507400Y-5816600I-20000J0D01*
G01*
X13507400Y-6019800D02*
G75*
G03*
X13507400Y-6019800I-20000J0D01*
G01*
X13509940Y-7728712D02*
G75*
G03*
X13509940Y-7728712I-20000J0D01*
G01*
X13520100Y-9612376D02*
G75*
G03*
X13520100Y-9612376I-20000J0D01*
G01*
X13526450Y-5910072D02*
G75*
G03*
X13526450Y-5910072I-20000J0D01*
G01*
X13539150Y-6724650D02*
G75*
G03*
X13539150Y-6724650I-20000J0D01*
G01*
X13558200Y-13411200D02*
G75*
G03*
X13558200Y-13411200I-20000J0D01*
G01*
X13568360Y-10358120D02*
G75*
G03*
X13568360Y-10358120I-20000J0D01*
G01*
X13573440Y-10053320D02*
G75*
G03*
X13573440Y-10053320I-20000J0D01*
G01*
X13583600Y-6629400D02*
G75*
G03*
X13583600Y-6629400I-20000J0D01*
G01*
X13588680Y-11846560D02*
G75*
G03*
X13588680Y-11846560I-20000J0D01*
G01*
X13609000Y-3810000D02*
G75*
G03*
X13609000Y-3810000I-20000J0D01*
G01*
X13628304Y-8136382D02*
G75*
G03*
X13628304Y-8136382I-20000J0D01*
G01*
X13634400Y-9613900D02*
G75*
G03*
X13634400Y-9613900I-20000J0D01*
G01*
X13664626Y-5752338D02*
G75*
G03*
X13664626Y-5752338I-20000J0D01*
G01*
X13675040Y-10957560D02*
G75*
G03*
X13675040Y-10957560I-20000J0D01*
G01*
X13677580Y-12679680D02*
G75*
G03*
X13677580Y-12679680I-20000J0D01*
G01*
X13685200Y-5432552D02*
G75*
G03*
X13685200Y-5432552I-20000J0D01*
G01*
X13690280Y-10566400D02*
G75*
G03*
X13690280Y-10566400I-20000J0D01*
G01*
X13710600Y-4800600D02*
G75*
G03*
X13710600Y-4800600I-20000J0D01*
G01*
X13736000Y-3810000D02*
G75*
G03*
X13736000Y-3810000I-20000J0D01*
G01*
X13742350Y-5232400D02*
G75*
G03*
X13742350Y-5232400I-20000J0D01*
G01*
X13761400Y-9611868D02*
G75*
G03*
X13761400Y-9611868I-20000J0D01*
G01*
X13771560Y-10200640D02*
G75*
G03*
X13771560Y-10200640I-20000J0D01*
G01*
X13804580Y-12542520D02*
G75*
G03*
X13804580Y-12542520I-20000J0D01*
G01*
X13856650Y-3810000D02*
G75*
G03*
X13856650Y-3810000I-20000J0D01*
G01*
X13901100Y-9613900D02*
G75*
G03*
X13901100Y-9613900I-20000J0D01*
G01*
X13903640Y-11120120D02*
G75*
G03*
X13903640Y-11120120I-20000J0D01*
G01*
X13913800Y-4800600D02*
G75*
G03*
X13913800Y-4800600I-20000J0D01*
G01*
X13913800Y-12153900D02*
G75*
G03*
X13913800Y-12153900I-20000J0D01*
G01*
X13926500Y-12306300D02*
G75*
G03*
X13926500Y-12306300I-20000J0D01*
G01*
X13939200Y-6680200D02*
G75*
G03*
X13939200Y-6680200I-20000J0D01*
G01*
X13939200Y-10200640D02*
G75*
G03*
X13939200Y-10200640I-20000J0D01*
G01*
X13951900Y-12547600D02*
G75*
G03*
X13951900Y-12547600I-20000J0D01*
G01*
X13964600Y-12052300D02*
G75*
G03*
X13964600Y-12052300I-20000J0D01*
G01*
X13970950Y-5232400D02*
G75*
G03*
X13970950Y-5232400I-20000J0D01*
G01*
X13977300Y-3810000D02*
G75*
G03*
X13977300Y-3810000I-20000J0D01*
G01*
X14035720Y-4099560D02*
G75*
G03*
X14035720Y-4099560I-20000J0D01*
G01*
X14036482Y-9612376D02*
G75*
G03*
X14036482Y-9612376I-20000J0D01*
G01*
X14040800Y-4521200D02*
G75*
G03*
X14040800Y-4521200I-20000J0D01*
G01*
X14068740Y-11541760D02*
G75*
G03*
X14068740Y-11541760I-20000J0D01*
G01*
X14085250Y-5295900D02*
G75*
G03*
X14085250Y-5295900I-20000J0D01*
G01*
X14086266Y-7890764D02*
G75*
G03*
X14086266Y-7890764I-20000J0D01*
G01*
X14097950Y-3810000D02*
G75*
G03*
X14097950Y-3810000I-20000J0D01*
G01*
X14129700Y-5816600D02*
G75*
G03*
X14129700Y-5816600I-20000J0D01*
G01*
X14129700Y-6019800D02*
G75*
G03*
X14129700Y-6019800I-20000J0D01*
G01*
X14136050Y-4800600D02*
G75*
G03*
X14136050Y-4800600I-20000J0D01*
G01*
X14136558Y-7232650D02*
G75*
G03*
X14136558Y-7232650I-20000J0D01*
G01*
X14142400Y-9677400D02*
G75*
G03*
X14142400Y-9677400I-20000J0D01*
G01*
X14144940Y-12057380D02*
G75*
G03*
X14144940Y-12057380I-20000J0D01*
G01*
X14174150Y-5391150D02*
G75*
G03*
X14174150Y-5391150I-20000J0D01*
G01*
X14193200Y-9880600D02*
G75*
G03*
X14193200Y-9880600I-20000J0D01*
G01*
X14193200Y-13385800D02*
G75*
G03*
X14193200Y-13385800I-20000J0D01*
G01*
X14195486Y-7890764D02*
G75*
G03*
X14195486Y-7890764I-20000J0D01*
G01*
X14205900Y-12128500D02*
G75*
G03*
X14205900Y-12128500I-20000J0D01*
G01*
X14218600Y-3810000D02*
G75*
G03*
X14218600Y-3810000I-20000J0D01*
G01*
X14218600Y-3937000D02*
G75*
G03*
X14218600Y-3937000I-20000J0D01*
G01*
X14218600Y-5816600D02*
G75*
G03*
X14218600Y-5816600I-20000J0D01*
G01*
X14218600Y-5918200D02*
G75*
G03*
X14218600Y-5918200I-20000J0D01*
G01*
X14218600Y-6019800D02*
G75*
G03*
X14218600Y-6019800I-20000J0D01*
G01*
X14218600Y-6540500D02*
G75*
G03*
X14218600Y-6540500I-20000J0D01*
G01*
X14218600Y-9626600D02*
G75*
G03*
X14218600Y-9626600I-20000J0D01*
G01*
X14233840Y-12837160D02*
G75*
G03*
X14233840Y-12837160I-20000J0D01*
G01*
X14244000Y-13131800D02*
G75*
G03*
X14244000Y-13131800I-20000J0D01*
G01*
X14277020Y-8370824D02*
G75*
G03*
X14277020Y-8370824I-20000J0D01*
G01*
X14277528Y-8454644D02*
G75*
G03*
X14277528Y-8454644I-20000J0D01*
G01*
X14282100Y-4889500D02*
G75*
G03*
X14282100Y-4889500I-20000J0D01*
G01*
X14295816Y-7890764D02*
G75*
G03*
X14295816Y-7890764I-20000J0D01*
G01*
X14297086Y-7993634D02*
G75*
G03*
X14297086Y-7993634I-20000J0D01*
G01*
X14307500Y-5816600D02*
G75*
G03*
X14307500Y-5816600I-20000J0D01*
G01*
X14307500Y-5918200D02*
G75*
G03*
X14307500Y-5918200I-20000J0D01*
G01*
X14307500Y-6019800D02*
G75*
G03*
X14307500Y-6019800I-20000J0D01*
G01*
X14307500Y-10706100D02*
G75*
G03*
X14307500Y-10706100I-20000J0D01*
G01*
X14332900Y-3810000D02*
G75*
G03*
X14332900Y-3810000I-20000J0D01*
G01*
X14332900Y-3937000D02*
G75*
G03*
X14332900Y-3937000I-20000J0D01*
G01*
X14340520Y-12801600D02*
G75*
G03*
X14340520Y-12801600I-20000J0D01*
G01*
X14345600Y-4211320D02*
G75*
G03*
X14345600Y-4211320I-20000J0D01*
G01*
X14345600Y-4307840D02*
G75*
G03*
X14345600Y-4307840I-20000J0D01*
G01*
X14345600Y-4399280D02*
G75*
G03*
X14345600Y-4399280I-20000J0D01*
G01*
X14345600Y-10236200D02*
G75*
G03*
X14345600Y-10236200I-20000J0D01*
G01*
X14403766Y-7889494D02*
G75*
G03*
X14403766Y-7889494I-20000J0D01*
G01*
X14403766Y-7992364D02*
G75*
G03*
X14403766Y-7992364I-20000J0D01*
G01*
X14428150Y-4889500D02*
G75*
G03*
X14428150Y-4889500I-20000J0D01*
G01*
X14447200Y-3810000D02*
G75*
G03*
X14447200Y-3810000I-20000J0D01*
G01*
X14447200Y-3937000D02*
G75*
G03*
X14447200Y-3937000I-20000J0D01*
G01*
X14459900Y-4305300D02*
G75*
G03*
X14459900Y-4305300I-20000J0D01*
G01*
X14459900Y-6413500D02*
G75*
G03*
X14459900Y-6413500I-20000J0D01*
G01*
X14477680Y-10287000D02*
G75*
G03*
X14477680Y-10287000I-20000J0D01*
G01*
X14488200Y-11817600D02*
G75*
G03*
X14488200Y-11817600I-20000J0D01*
G01*
X14503080Y-10764520D02*
G75*
G03*
X14503080Y-10764520I-20000J0D01*
G01*
X14510700Y-6070600D02*
G75*
G03*
X14510700Y-6070600I-20000J0D01*
G01*
X14510700Y-6769100D02*
G75*
G03*
X14510700Y-6769100I-20000J0D01*
G01*
X14518320Y-10518140D02*
G75*
G03*
X14518320Y-10518140I-20000J0D01*
G01*
X14523400Y-5816600D02*
G75*
G03*
X14523400Y-5816600I-20000J0D01*
G01*
X14523400Y-5943600D02*
G75*
G03*
X14523400Y-5943600I-20000J0D01*
G01*
X14548800Y-12484100D02*
G75*
G03*
X14548800Y-12484100I-20000J0D01*
G01*
X14561500Y-3810000D02*
G75*
G03*
X14561500Y-3810000I-20000J0D01*
G01*
X14561500Y-4025900D02*
G75*
G03*
X14561500Y-4025900I-20000J0D01*
G01*
X14586900Y-12979400D02*
G75*
G03*
X14586900Y-12979400I-20000J0D01*
G01*
X14586900Y-4864100D02*
G75*
G03*
X14586900Y-4864100I-20000J0D01*
G01*
X14586900Y-7708900D02*
G75*
G03*
X14586900Y-7708900I-20000J0D01*
G01*
X14595536Y-7998206D02*
G75*
G03*
X14595536Y-7998206I-20000J0D01*
G01*
X14637700Y-3968750D02*
G75*
G03*
X14637700Y-3968750I-20000J0D01*
G01*
X14637700Y-5816600D02*
G75*
G03*
X14637700Y-5816600I-20000J0D01*
G01*
X14650400Y-3790950D02*
G75*
G03*
X14650400Y-3790950I-20000J0D01*
G01*
X14669450Y-5695950D02*
G75*
G03*
X14669450Y-5695950I-20000J0D01*
G01*
X14688500Y-7999222D02*
G75*
G03*
X14688500Y-7999222I-20000J0D01*
G01*
X14689008Y-7710170D02*
G75*
G03*
X14689008Y-7710170I-20000J0D01*
G01*
X14694850Y-4870450D02*
G75*
G03*
X14694850Y-4870450I-20000J0D01*
G01*
X14701200Y-3886200D02*
G75*
G03*
X14701200Y-3886200I-20000J0D01*
G01*
X14701200Y-4064000D02*
G75*
G03*
X14701200Y-4064000I-20000J0D01*
G01*
X14713900Y-6680200D02*
G75*
G03*
X14713900Y-6680200I-20000J0D01*
G01*
X14751746Y-7365238D02*
G75*
G03*
X14751746Y-7365238I-20000J0D01*
G01*
X14752000Y-5816600D02*
G75*
G03*
X14752000Y-5816600I-20000J0D01*
G01*
X14752000Y-7112000D02*
G75*
G03*
X14752000Y-7112000I-20000J0D01*
G01*
X14758350Y-3790950D02*
G75*
G03*
X14758350Y-3790950I-20000J0D01*
G01*
X14758350Y-3968750D02*
G75*
G03*
X14758350Y-3968750I-20000J0D01*
G01*
X14777400Y-5003800D02*
G75*
G03*
X14777400Y-5003800I-20000J0D01*
G01*
X14777400Y-10403840D02*
G75*
G03*
X14777400Y-10403840I-20000J0D01*
G01*
X14778416Y-8000238D02*
G75*
G03*
X14778416Y-8000238I-20000J0D01*
G01*
X14784766Y-7712202D02*
G75*
G03*
X14784766Y-7712202I-20000J0D01*
G01*
X14790100Y-5695950D02*
G75*
G03*
X14790100Y-5695950I-20000J0D01*
G01*
X14802800Y-12954000D02*
G75*
G03*
X14802800Y-12954000I-20000J0D01*
G01*
X14853600Y-4902200D02*
G75*
G03*
X14853600Y-4902200I-20000J0D01*
G01*
X14879000Y-5003800D02*
G75*
G03*
X14879000Y-5003800I-20000J0D01*
G01*
X14879000Y-5803900D02*
G75*
G03*
X14879000Y-5803900I-20000J0D01*
G01*
X14909480Y-8387080D02*
G75*
G03*
X14909480Y-8387080I-20000J0D01*
G01*
X14942500Y-13017500D02*
G75*
G03*
X14942500Y-13017500I-20000J0D01*
G01*
X14948850Y-5695950D02*
G75*
G03*
X14948850Y-5695950I-20000J0D01*
G01*
X14952152Y-11344148D02*
G75*
G03*
X14952152Y-11344148I-20000J0D01*
G01*
X14955200Y-4838700D02*
G75*
G03*
X14955200Y-4838700I-20000J0D01*
G01*
X14978200Y-9847600D02*
G75*
G03*
X14978200Y-9847600I-20000J0D01*
G01*
X14986950Y-5080000D02*
G75*
G03*
X14986950Y-5080000I-20000J0D01*
G01*
X14993300Y-12763500D02*
G75*
G03*
X14993300Y-12763500I-20000J0D01*
G01*
X15000920Y-5613400D02*
G75*
G03*
X15000920Y-5613400I-20000J0D01*
G01*
X15018700Y-5797550D02*
G75*
G03*
X15018700Y-5797550I-20000J0D01*
G01*
X15028860Y-9400540D02*
G75*
G03*
X15028860Y-9400540I-20000J0D01*
G01*
X15066960Y-5689600D02*
G75*
G03*
X15066960Y-5689600I-20000J0D01*
G01*
X15102520Y-5572760D02*
G75*
G03*
X15102520Y-5572760I-20000J0D01*
G01*
X15107600Y-13106400D02*
G75*
G03*
X15107600Y-13106400I-20000J0D01*
G01*
X15107600Y-13208000D02*
G75*
G03*
X15107600Y-13208000I-20000J0D01*
G01*
X15171100Y-5689600D02*
G75*
G03*
X15171100Y-5689600I-20000J0D01*
G01*
X15171100Y-5803900D02*
G75*
G03*
X15171100Y-5803900I-20000J0D01*
G01*
X15196500Y-3797300D02*
G75*
G03*
X15196500Y-3797300I-20000J0D01*
G01*
X15196500Y-3898900D02*
G75*
G03*
X15196500Y-3898900I-20000J0D01*
G01*
X15196500Y-4000500D02*
G75*
G03*
X15196500Y-4000500I-20000J0D01*
G01*
X15196500Y-13385800D02*
G75*
G03*
X15196500Y-13385800I-20000J0D01*
G01*
X15209200Y-5568950D02*
G75*
G03*
X15209200Y-5568950I-20000J0D01*
G01*
X15228250Y-4387850D02*
G75*
G03*
X15228250Y-4387850I-20000J0D01*
G01*
X15228250Y-4476750D02*
G75*
G03*
X15228250Y-4476750I-20000J0D01*
G01*
X15239200Y-10310600D02*
G75*
G03*
X15239200Y-10310600I-20000J0D01*
G01*
X15242200Y-10434600D02*
G75*
G03*
X15242200Y-10434600I-20000J0D01*
G01*
X15272700Y-11861800D02*
G75*
G03*
X15272700Y-11861800I-20000J0D01*
G01*
X15285400Y-4069080D02*
G75*
G03*
X15285400Y-4069080I-20000J0D01*
G01*
X15310800Y-3952240D02*
G75*
G03*
X15310800Y-3952240I-20000J0D01*
G01*
X15310800Y-4476750D02*
G75*
G03*
X15310800Y-4476750I-20000J0D01*
G01*
X15310800Y-8724900D02*
G75*
G03*
X15310800Y-8724900I-20000J0D01*
G01*
X15317150Y-4387850D02*
G75*
G03*
X15317150Y-4387850I-20000J0D01*
G01*
X15323500Y-3797300D02*
G75*
G03*
X15323500Y-3797300I-20000J0D01*
G01*
X15336200Y-5867400D02*
G75*
G03*
X15336200Y-5867400I-20000J0D01*
G01*
X15336200Y-8864600D02*
G75*
G03*
X15336200Y-8864600I-20000J0D01*
G01*
X15342550Y-5664200D02*
G75*
G03*
X15342550Y-5664200I-20000J0D01*
G01*
X15356520Y-9832340D02*
G75*
G03*
X15356520Y-9832340I-20000J0D01*
G01*
X15356520Y-10520680D02*
G75*
G03*
X15356520Y-10520680I-20000J0D01*
G01*
X15371200Y-11572600D02*
G75*
G03*
X15371200Y-11572600I-20000J0D01*
G01*
X15387000Y-13411200D02*
G75*
G03*
X15387000Y-13411200I-20000J0D01*
G01*
X15399700Y-6007100D02*
G75*
G03*
X15399700Y-6007100I-20000J0D01*
G01*
X15402240Y-9679940D02*
G75*
G03*
X15402240Y-9679940I-20000J0D01*
G01*
X15425100Y-3968750D02*
G75*
G03*
X15425100Y-3968750I-20000J0D01*
G01*
X15437800Y-3790950D02*
G75*
G03*
X15437800Y-3790950I-20000J0D01*
G01*
X15447960Y-10673080D02*
G75*
G03*
X15447960Y-10673080I-20000J0D01*
G01*
X15450500Y-9832340D02*
G75*
G03*
X15450500Y-9832340I-20000J0D01*
G01*
X15461930Y-7428230D02*
G75*
G03*
X15461930Y-7428230I-20000J0D01*
G01*
X15463200Y-8661400D02*
G75*
G03*
X15463200Y-8661400I-20000J0D01*
G01*
X15463200Y-9029700D02*
G75*
G03*
X15463200Y-9029700I-20000J0D01*
G01*
X15486060Y-6126480D02*
G75*
G03*
X15486060Y-6126480I-20000J0D01*
G01*
X15488600Y-3886200D02*
G75*
G03*
X15488600Y-3886200I-20000J0D01*
G01*
X15488600Y-4064000D02*
G75*
G03*
X15488600Y-4064000I-20000J0D01*
G01*
X15492410Y-8035290D02*
G75*
G03*
X15492410Y-8035290I-20000J0D01*
G01*
X15494950Y-8246110D02*
G75*
G03*
X15494950Y-8246110I-20000J0D01*
G01*
X15501300Y-5793740D02*
G75*
G03*
X15501300Y-5793740I-20000J0D01*
G01*
X15502570Y-7818120D02*
G75*
G03*
X15502570Y-7818120I-20000J0D01*
G01*
X15513200Y-7622600D02*
G75*
G03*
X15513200Y-7622600I-20000J0D01*
G01*
X15520300Y-4851400D02*
G75*
G03*
X15520300Y-4851400I-20000J0D01*
G01*
X15539400Y-4254500D02*
G75*
G03*
X15539400Y-4254500I-20000J0D01*
G01*
X15539400Y-4368800D02*
G75*
G03*
X15539400Y-4368800I-20000J0D01*
G01*
X15539400Y-5664200D02*
G75*
G03*
X15539400Y-5664200I-20000J0D01*
G01*
X15545750Y-3790950D02*
G75*
G03*
X15545750Y-3790950I-20000J0D01*
G01*
X15545750Y-3968750D02*
G75*
G03*
X15545750Y-3968750I-20000J0D01*
G01*
X15590200Y-6451600D02*
G75*
G03*
X15590200Y-6451600I-20000J0D01*
G01*
X15600360Y-6812280D02*
G75*
G03*
X15600360Y-6812280I-20000J0D01*
G01*
X15620680Y-7152640D02*
G75*
G03*
X15620680Y-7152640I-20000J0D01*
G01*
X15630840Y-8016240D02*
G75*
G03*
X15630840Y-8016240I-20000J0D01*
G01*
X15631200Y-10325600D02*
G75*
G03*
X15631200Y-10325600I-20000J0D01*
G01*
X15653700Y-5585460D02*
G75*
G03*
X15653700Y-5585460I-20000J0D01*
G01*
X15656240Y-10774680D02*
G75*
G03*
X15656240Y-10774680I-20000J0D01*
G01*
X15686720Y-5166360D02*
G75*
G03*
X15686720Y-5166360I-20000J0D01*
G01*
X15686720Y-5669280D02*
G75*
G03*
X15686720Y-5669280I-20000J0D01*
G01*
X15686720Y-6266180D02*
G75*
G03*
X15686720Y-6266180I-20000J0D01*
G01*
X15704500Y-11087100D02*
G75*
G03*
X15704500Y-11087100I-20000J0D01*
G01*
X15717200Y-6807200D02*
G75*
G03*
X15717200Y-6807200I-20000J0D01*
G01*
X15742600Y-12452350D02*
G75*
G03*
X15742600Y-12452350I-20000J0D01*
G01*
X15745140Y-4993640D02*
G75*
G03*
X15745140Y-4993640I-20000J0D01*
G01*
X15748200Y-9917600D02*
G75*
G03*
X15748200Y-9917600I-20000J0D01*
G01*
X15768000Y-8737600D02*
G75*
G03*
X15768000Y-8737600I-20000J0D01*
G01*
X15794200Y-12023600D02*
G75*
G03*
X15794200Y-12023600I-20000J0D01*
G01*
X15838200Y-11812600D02*
G75*
G03*
X15838200Y-11812600I-20000J0D01*
G01*
X15844200Y-11480800D02*
G75*
G03*
X15844200Y-11480800I-20000J0D01*
G01*
X15856900Y-9537700D02*
G75*
G03*
X15856900Y-9537700I-20000J0D01*
G01*
X15859440Y-7528560D02*
G75*
G03*
X15859440Y-7528560I-20000J0D01*
G01*
X15869600Y-10960100D02*
G75*
G03*
X15869600Y-10960100I-20000J0D01*
G01*
X15879760Y-8514080D02*
G75*
G03*
X15879760Y-8514080I-20000J0D01*
G01*
X15888650Y-8769350D02*
G75*
G03*
X15888650Y-8769350I-20000J0D01*
G01*
X15897540Y-5080000D02*
G75*
G03*
X15897540Y-5080000I-20000J0D01*
G01*
X15905160Y-4975860D02*
G75*
G03*
X15905160Y-4975860I-20000J0D01*
G01*
X15905160Y-6223000D02*
G75*
G03*
X15905160Y-6223000I-20000J0D01*
G01*
X15907700Y-9372600D02*
G75*
G03*
X15907700Y-9372600I-20000J0D01*
G01*
X15920400Y-9220200D02*
G75*
G03*
X15920400Y-9220200I-20000J0D01*
G01*
X15930560Y-10759440D02*
G75*
G03*
X15930560Y-10759440I-20000J0D01*
G01*
X15968200Y-11633600D02*
G75*
G03*
X15968200Y-11633600I-20000J0D01*
G01*
X15971200Y-3784600D02*
G75*
G03*
X15971200Y-3784600I-20000J0D01*
G01*
X15971200Y-10909300D02*
G75*
G03*
X15971200Y-10909300I-20000J0D01*
G01*
X15971200Y-13411200D02*
G75*
G03*
X15971200Y-13411200I-20000J0D01*
G01*
X15976280Y-4770120D02*
G75*
G03*
X15976280Y-4770120I-20000J0D01*
G01*
X15980700Y-8145100D02*
G75*
G03*
X15980700Y-8145100I-20000J0D01*
G01*
X15986440Y-4660900D02*
G75*
G03*
X15986440Y-4660900I-20000J0D01*
G01*
X15988980Y-4991100D02*
G75*
G03*
X15988980Y-4991100I-20000J0D01*
G01*
X16012200Y-11339600D02*
G75*
G03*
X16012200Y-11339600I-20000J0D01*
G01*
X16022000Y-3886200D02*
G75*
G03*
X16022000Y-3886200I-20000J0D01*
G01*
X16034700Y-8280400D02*
G75*
G03*
X16034700Y-8280400I-20000J0D01*
G01*
X16038200Y-10397600D02*
G75*
G03*
X16038200Y-10397600I-20000J0D01*
G01*
X16043200Y-9910600D02*
G75*
G03*
X16043200Y-9910600I-20000J0D01*
G01*
X16047400Y-10048240D02*
G75*
G03*
X16047400Y-10048240I-20000J0D01*
G01*
X16047400Y-10299700D02*
G75*
G03*
X16047400Y-10299700I-20000J0D01*
G01*
X16072800Y-6781292D02*
G75*
G03*
X16072800Y-6781292I-20000J0D01*
G01*
X16085500Y-3784600D02*
G75*
G03*
X16085500Y-3784600I-20000J0D01*
G01*
X16085500Y-4000500D02*
G75*
G03*
X16085500Y-4000500I-20000J0D01*
G01*
X16085500Y-4114800D02*
G75*
G03*
X16085500Y-4114800I-20000J0D01*
G01*
X16085500Y-4229100D02*
G75*
G03*
X16085500Y-4229100I-20000J0D01*
G01*
X16085500Y-4343400D02*
G75*
G03*
X16085500Y-4343400I-20000J0D01*
G01*
X16085500Y-4457700D02*
G75*
G03*
X16085500Y-4457700I-20000J0D01*
G01*
X16098200Y-6629400D02*
G75*
G03*
X16098200Y-6629400I-20000J0D01*
G01*
X16103280Y-5458460D02*
G75*
G03*
X16103280Y-5458460I-20000J0D01*
G01*
X16108200Y-4897600D02*
G75*
G03*
X16108200Y-4897600I-20000J0D01*
G01*
X16108360Y-4648200D02*
G75*
G03*
X16108360Y-4648200I-20000J0D01*
G01*
X16136300Y-3886200D02*
G75*
G03*
X16136300Y-3886200I-20000J0D01*
G01*
X16142904Y-7615428D02*
G75*
G03*
X16142904Y-7615428I-20000J0D01*
G01*
X16169320Y-7914640D02*
G75*
G03*
X16169320Y-7914640I-20000J0D01*
G01*
X16169320Y-8442960D02*
G75*
G03*
X16169320Y-8442960I-20000J0D01*
G01*
X16171200Y-8334600D02*
G75*
G03*
X16171200Y-8334600I-20000J0D01*
G01*
X16192180Y-5351780D02*
G75*
G03*
X16192180Y-5351780I-20000J0D01*
G01*
X16193200Y-7765100D02*
G75*
G03*
X16193200Y-7765100I-20000J0D01*
G01*
X16194720Y-3784600D02*
G75*
G03*
X16194720Y-3784600I-20000J0D01*
G01*
X16194720Y-5241290D02*
G75*
G03*
X16194720Y-5241290I-20000J0D01*
G01*
X16212500Y-6667500D02*
G75*
G03*
X16212500Y-6667500I-20000J0D01*
G01*
X16212500Y-8897620D02*
G75*
G03*
X16212500Y-8897620I-20000J0D01*
G01*
X16237900Y-5765800D02*
G75*
G03*
X16237900Y-5765800I-20000J0D01*
G01*
X16244250Y-5466080D02*
G75*
G03*
X16244250Y-5466080I-20000J0D01*
G01*
X16249200Y-10214600D02*
G75*
G03*
X16249200Y-10214600I-20000J0D01*
G01*
X16301400Y-13035280D02*
G75*
G03*
X16301400Y-13035280I-20000J0D01*
G01*
X16314100Y-11887200D02*
G75*
G03*
X16314100Y-11887200I-20000J0D01*
G01*
X16321720Y-3985260D02*
G75*
G03*
X16321720Y-3985260I-20000J0D01*
G01*
X16321720Y-4086860D02*
G75*
G03*
X16321720Y-4086860I-20000J0D01*
G01*
X16324260Y-3878580D02*
G75*
G03*
X16324260Y-3878580I-20000J0D01*
G01*
X16324260Y-4193540D02*
G75*
G03*
X16324260Y-4193540I-20000J0D01*
G01*
X16324260Y-4297680D02*
G75*
G03*
X16324260Y-4297680I-20000J0D01*
G01*
X16326799Y-10998200D02*
G75*
G03*
X16326799Y-10998200I-20000J0D01*
G01*
X16339500Y-4401820D02*
G75*
G03*
X16339500Y-4401820I-20000J0D01*
G01*
X16377600Y-6197600D02*
G75*
G03*
X16377600Y-6197600I-20000J0D01*
G01*
X16377600Y-9118600D02*
G75*
G03*
X16377600Y-9118600I-20000J0D01*
G01*
X16382680Y-3784600D02*
G75*
G03*
X16382680Y-3784600I-20000J0D01*
G01*
X16382680Y-8407400D02*
G75*
G03*
X16382680Y-8407400I-20000J0D01*
G01*
X16387200Y-8743600D02*
G75*
G03*
X16387200Y-8743600I-20000J0D01*
G01*
X16388200Y-8190100D02*
G75*
G03*
X16388200Y-8190100I-20000J0D01*
G01*
X16390300Y-8572500D02*
G75*
G03*
X16390300Y-8572500I-20000J0D01*
G01*
X16390300Y-10871200D02*
G75*
G03*
X16390300Y-10871200I-20000J0D01*
G01*
X16403000Y-8077200D02*
G75*
G03*
X16403000Y-8077200I-20000J0D01*
G01*
X16403000Y-9347200D02*
G75*
G03*
X16403000Y-9347200I-20000J0D01*
G01*
X16421200Y-7867600D02*
G75*
G03*
X16421200Y-7867600I-20000J0D01*
G01*
X16433480Y-4432300D02*
G75*
G03*
X16433480Y-4432300I-20000J0D01*
G01*
X16436020Y-6070600D02*
G75*
G03*
X16436020Y-6070600I-20000J0D01*
G01*
X16438200Y-10457600D02*
G75*
G03*
X16438200Y-10457600I-20000J0D01*
G01*
X16439830Y-5834380D02*
G75*
G03*
X16439830Y-5834380I-20000J0D01*
G01*
X16448200Y-10687600D02*
G75*
G03*
X16448200Y-10687600I-20000J0D01*
G01*
X16455070Y-5731510D02*
G75*
G03*
X16455070Y-5731510I-20000J0D01*
G01*
X16468200Y-11567600D02*
G75*
G03*
X16468200Y-11567600I-20000J0D01*
G01*
X16479200Y-6172200D02*
G75*
G03*
X16479200Y-6172200I-20000J0D01*
G01*
X16481740Y-3779520D02*
G75*
G03*
X16481740Y-3779520I-20000J0D01*
G01*
X16491900Y-6591300D02*
G75*
G03*
X16491900Y-6591300I-20000J0D01*
G01*
X16498200Y-9257600D02*
G75*
G03*
X16498200Y-9257600I-20000J0D01*
G01*
X16502568Y-7604252D02*
G75*
G03*
X16502568Y-7604252I-20000J0D01*
G01*
X16504600Y-10109200D02*
G75*
G03*
X16504600Y-10109200I-20000J0D01*
G01*
X16509680Y-9904700D02*
G75*
G03*
X16509680Y-9904700I-20000J0D01*
G01*
X16518200Y-9137600D02*
G75*
G03*
X16518200Y-9137600I-20000J0D01*
G01*
X16524920Y-12938760D02*
G75*
G03*
X16524920Y-12938760I-20000J0D01*
G01*
X16530000Y-4927600D02*
G75*
G03*
X16530000Y-4927600I-20000J0D01*
G01*
X16535080Y-8036560D02*
G75*
G03*
X16535080Y-8036560I-20000J0D01*
G01*
X16537620Y-4432300D02*
G75*
G03*
X16537620Y-4432300I-20000J0D01*
G01*
X16542700Y-7099300D02*
G75*
G03*
X16542700Y-7099300I-20000J0D01*
G01*
X16545240Y-9652000D02*
G75*
G03*
X16545240Y-9652000I-20000J0D01*
G01*
X16550320Y-10353040D02*
G75*
G03*
X16550320Y-10353040I-20000J0D01*
G01*
X16550320Y-12578080D02*
G75*
G03*
X16550320Y-12578080I-20000J0D01*
G01*
X16555400Y-5638800D02*
G75*
G03*
X16555400Y-5638800I-20000J0D01*
G01*
X16555400Y-7010400D02*
G75*
G03*
X16555400Y-7010400I-20000J0D01*
G01*
X16555400Y-8732520D02*
G75*
G03*
X16555400Y-8732520I-20000J0D01*
G01*
X16560480Y-12766040D02*
G75*
G03*
X16560480Y-12766040I-20000J0D01*
G01*
X16568100Y-8839200D02*
G75*
G03*
X16568100Y-8839200I-20000J0D01*
G01*
X16572200Y-7868600D02*
G75*
G03*
X16572200Y-7868600I-20000J0D01*
G01*
X16580800Y-3776980D02*
G75*
G03*
X16580800Y-3776980I-20000J0D01*
G01*
X16606200Y-7660640D02*
G75*
G03*
X16606200Y-7660640I-20000J0D01*
G01*
X16608200Y-9237600D02*
G75*
G03*
X16608200Y-9237600I-20000J0D01*
G01*
X16626520Y-10068560D02*
G75*
G03*
X16626520Y-10068560I-20000J0D01*
G01*
X16641760Y-4432300D02*
G75*
G03*
X16641760Y-4432300I-20000J0D01*
G01*
X16677320Y-3779520D02*
G75*
G03*
X16677320Y-3779520I-20000J0D01*
G01*
X16677320Y-9672320D02*
G75*
G03*
X16677320Y-9672320I-20000J0D01*
G01*
X16694592Y-8432800D02*
G75*
G03*
X16694592Y-8432800I-20000J0D01*
G01*
X16697640Y-8270240D02*
G75*
G03*
X16697640Y-8270240I-20000J0D01*
G01*
X16698200Y-11377600D02*
G75*
G03*
X16698200Y-11377600I-20000J0D01*
G01*
X16701450Y-7226300D02*
G75*
G03*
X16701450Y-7226300I-20000J0D01*
G01*
X16701450Y-7372350D02*
G75*
G03*
X16701450Y-7372350I-20000J0D01*
G01*
X16702720Y-7874000D02*
G75*
G03*
X16702720Y-7874000I-20000J0D01*
G01*
X16738200Y-11117600D02*
G75*
G03*
X16738200Y-11117600I-20000J0D01*
G01*
X16748200Y-8897600D02*
G75*
G03*
X16748200Y-8897600I-20000J0D01*
G01*
X16748440Y-4414520D02*
G75*
G03*
X16748440Y-4414520I-20000J0D01*
G01*
X16758600Y-3807460D02*
G75*
G03*
X16758600Y-3807460I-20000J0D01*
G01*
X16758600Y-10439400D02*
G75*
G03*
X16758600Y-10439400I-20000J0D01*
G01*
X16773840Y-13131800D02*
G75*
G03*
X16773840Y-13131800I-20000J0D01*
G01*
X16784000Y-8356600D02*
G75*
G03*
X16784000Y-8356600I-20000J0D01*
G01*
X16789080Y-3888740D02*
G75*
G03*
X16789080Y-3888740I-20000J0D01*
G01*
X16790350Y-7226300D02*
G75*
G03*
X16790350Y-7226300I-20000J0D01*
G01*
X16790350Y-7372350D02*
G75*
G03*
X16790350Y-7372350I-20000J0D01*
G01*
X16791620Y-4000500D02*
G75*
G03*
X16791620Y-4000500I-20000J0D01*
G01*
X16791620Y-4102100D02*
G75*
G03*
X16791620Y-4102100I-20000J0D01*
G01*
X16794160Y-4208780D02*
G75*
G03*
X16794160Y-4208780I-20000J0D01*
G01*
X16794160Y-4312920D02*
G75*
G03*
X16794160Y-4312920I-20000J0D01*
G01*
X16820519Y-7644150D02*
G75*
G03*
X16820519Y-7644150I-20000J0D01*
G01*
X16821142Y-7907978D02*
G75*
G03*
X16821142Y-7907978I-20000J0D01*
G01*
X16834800Y-5689600D02*
G75*
G03*
X16834800Y-5689600I-20000J0D01*
G01*
X16834800Y-6172200D02*
G75*
G03*
X16834800Y-6172200I-20000J0D01*
G01*
X16838200Y-9047600D02*
G75*
G03*
X16838200Y-9047600I-20000J0D01*
G01*
X16850040Y-9631680D02*
G75*
G03*
X16850040Y-9631680I-20000J0D01*
G01*
X16850040Y-12832080D02*
G75*
G03*
X16850040Y-12832080I-20000J0D01*
G01*
X16858930Y-5120640D02*
G75*
G03*
X16858930Y-5120640I-20000J0D01*
G01*
X16861470Y-4917440D02*
G75*
G03*
X16861470Y-4917440I-20000J0D01*
G01*
X16870360Y-7741920D02*
G75*
G03*
X16870360Y-7741920I-20000J0D01*
G01*
X16875440Y-8244840D02*
G75*
G03*
X16875440Y-8244840I-20000J0D01*
G01*
X16885600Y-8458200D02*
G75*
G03*
X16885600Y-8458200I-20000J0D01*
G01*
X16900840Y-5740400D02*
G75*
G03*
X16900840Y-5740400I-20000J0D01*
G01*
X16905920Y-3815080D02*
G75*
G03*
X16905920Y-3815080I-20000J0D01*
G01*
X16911000Y-6096000D02*
G75*
G03*
X16911000Y-6096000I-20000J0D01*
G01*
X16911000Y-6197600D02*
G75*
G03*
X16911000Y-6197600I-20000J0D01*
G01*
X16911000Y-8352028D02*
G75*
G03*
X16911000Y-8352028I-20000J0D01*
G01*
X16921160Y-6957060D02*
G75*
G03*
X16921160Y-6957060I-20000J0D01*
G01*
X16938200Y-9407600D02*
G75*
G03*
X16938200Y-9407600I-20000J0D01*
G01*
X16942750Y-7099300D02*
G75*
G03*
X16942750Y-7099300I-20000J0D01*
G01*
X16944020Y-7498080D02*
G75*
G03*
X16944020Y-7498080I-20000J0D01*
G01*
X16961800Y-5461000D02*
G75*
G03*
X16961800Y-5461000I-20000J0D01*
G01*
X16982120Y-12684760D02*
G75*
G03*
X16982120Y-12684760I-20000J0D01*
G01*
X16984660Y-6844030D02*
G75*
G03*
X16984660Y-6844030I-20000J0D01*
G01*
X16987200Y-5257800D02*
G75*
G03*
X16987200Y-5257800I-20000J0D01*
G01*
X16987200Y-11214100D02*
G75*
G03*
X16987200Y-11214100I-20000J0D01*
G01*
X16998200Y-9457600D02*
G75*
G03*
X16998200Y-9457600I-20000J0D01*
G01*
X16999900Y-10185400D02*
G75*
G03*
X16999900Y-10185400I-20000J0D01*
G01*
X17012600Y-5867400D02*
G75*
G03*
X17012600Y-5867400I-20000J0D01*
G01*
X17027840Y-6404610D02*
G75*
G03*
X17027840Y-6404610I-20000J0D01*
G01*
X17032920Y-6285230D02*
G75*
G03*
X17032920Y-6285230I-20000J0D01*
G01*
X17037999Y-7620000D02*
G75*
G03*
X17037999Y-7620000I-20000J0D01*
G01*
X17053240Y-3815080D02*
G75*
G03*
X17053240Y-3815080I-20000J0D01*
G01*
X17063400Y-9906000D02*
G75*
G03*
X17063400Y-9906000I-20000J0D01*
G01*
X17083720Y-8620760D02*
G75*
G03*
X17083720Y-8620760I-20000J0D01*
G01*
X17117200Y-11510600D02*
G75*
G03*
X17117200Y-11510600I-20000J0D01*
G01*
X17124360Y-8702040D02*
G75*
G03*
X17124360Y-8702040I-20000J0D01*
G01*
X17134240Y-7696267D02*
G75*
G03*
X17134240Y-7696267I-20000J0D01*
G01*
X17134520Y-11379200D02*
G75*
G03*
X17134520Y-11379200I-20000J0D01*
G01*
X17134520Y-12918440D02*
G75*
G03*
X17134520Y-12918440I-20000J0D01*
G01*
X17139600Y-5080000D02*
G75*
G03*
X17139600Y-5080000I-20000J0D01*
G01*
X17154840Y-8061960D02*
G75*
G03*
X17154840Y-8061960I-20000J0D01*
G01*
X17177700Y-10033000D02*
G75*
G03*
X17177700Y-10033000I-20000J0D01*
G01*
X17177700Y-10642600D02*
G75*
G03*
X17177700Y-10642600I-20000J0D01*
G01*
X17178200Y-4487600D02*
G75*
G03*
X17178200Y-4487600I-20000J0D01*
G01*
X17185320Y-3815080D02*
G75*
G03*
X17185320Y-3815080I-20000J0D01*
G01*
X17187200Y-11709600D02*
G75*
G03*
X17187200Y-11709600I-20000J0D01*
G01*
X17190400Y-10820400D02*
G75*
G03*
X17190400Y-10820400I-20000J0D01*
G01*
X17215799Y-6515100D02*
G75*
G03*
X17215799Y-6515100I-20000J0D01*
G01*
X17241200Y-11214100D02*
G75*
G03*
X17241200Y-11214100I-20000J0D01*
G01*
X17241200Y-11379200D02*
G75*
G03*
X17241200Y-11379200I-20000J0D01*
G01*
X17281840Y-7686040D02*
G75*
G03*
X17281840Y-7686040I-20000J0D01*
G01*
X17289200Y-11693600D02*
G75*
G03*
X17289200Y-11693600I-20000J0D01*
G01*
X17304700Y-9817100D02*
G75*
G03*
X17304700Y-9817100I-20000J0D01*
G01*
X17304700Y-10109200D02*
G75*
G03*
X17304700Y-10109200I-20000J0D01*
G01*
X17307240Y-3815080D02*
G75*
G03*
X17307240Y-3815080I-20000J0D01*
G01*
X17338200Y-4487600D02*
G75*
G03*
X17338200Y-4487600I-20000J0D01*
G01*
X17348200Y-11967600D02*
G75*
G03*
X17348200Y-11967600I-20000J0D01*
G01*
X17368200Y-5880100D02*
G75*
G03*
X17368200Y-5880100I-20000J0D01*
G01*
X17374550Y-6451600D02*
G75*
G03*
X17374550Y-6451600I-20000J0D01*
G01*
X17378200Y-11277600D02*
G75*
G03*
X17378200Y-11277600I-20000J0D01*
G01*
X17388520Y-7067550D02*
G75*
G03*
X17388520Y-7067550I-20000J0D01*
G01*
X17393600Y-11734800D02*
G75*
G03*
X17393600Y-11734800I-20000J0D01*
G01*
X17398200Y-10697600D02*
G75*
G03*
X17398200Y-10697600I-20000J0D01*
G01*
X17398680Y-6710680D02*
G75*
G03*
X17398680Y-6710680I-20000J0D01*
G01*
X17418200Y-11077600D02*
G75*
G03*
X17418200Y-11077600I-20000J0D01*
G01*
X17434240Y-9418320D02*
G75*
G03*
X17434240Y-9418320I-20000J0D01*
G01*
X17439320Y-3815080D02*
G75*
G03*
X17439320Y-3815080I-20000J0D01*
G01*
X17444400Y-8991600D02*
G75*
G03*
X17444400Y-8991600I-20000J0D01*
G01*
X17449480Y-6537960D02*
G75*
G03*
X17449480Y-6537960I-20000J0D01*
G01*
X17454560Y-9916160D02*
G75*
G03*
X17454560Y-9916160I-20000J0D01*
G01*
X17464720Y-8107680D02*
G75*
G03*
X17464720Y-8107680I-20000J0D01*
G01*
X17469800Y-8229600D02*
G75*
G03*
X17469800Y-8229600I-20000J0D01*
G01*
X17498200Y-11117600D02*
G75*
G03*
X17498200Y-11117600I-20000J0D01*
G01*
X17518200Y-4487600D02*
G75*
G03*
X17518200Y-4487600I-20000J0D01*
G01*
X17530760Y-7310120D02*
G75*
G03*
X17530760Y-7310120I-20000J0D01*
G01*
X17558200Y-11057600D02*
G75*
G03*
X17558200Y-11057600I-20000J0D01*
G01*
X17566320Y-3815080D02*
G75*
G03*
X17566320Y-3815080I-20000J0D01*
G01*
X17571400Y-5283200D02*
G75*
G03*
X17571400Y-5283200I-20000J0D01*
G01*
X17576480Y-7625080D02*
G75*
G03*
X17576480Y-7625080I-20000J0D01*
G01*
X17641200Y-11862600D02*
G75*
G03*
X17641200Y-11862600I-20000J0D01*
G01*
X17647600Y-13411200D02*
G75*
G03*
X17647600Y-13411200I-20000J0D01*
G01*
X17648200Y-11577600D02*
G75*
G03*
X17648200Y-11577600I-20000J0D01*
G01*
X17673000Y-10439400D02*
G75*
G03*
X17673000Y-10439400I-20000J0D01*
G01*
X17688200Y-4487600D02*
G75*
G03*
X17688200Y-4487600I-20000J0D01*
G01*
X17688200Y-4907600D02*
G75*
G03*
X17688200Y-4907600I-20000J0D01*
G01*
X17692200Y-11767600D02*
G75*
G03*
X17692200Y-11767600I-20000J0D01*
G01*
X17693320Y-3815080D02*
G75*
G03*
X17693320Y-3815080I-20000J0D01*
G01*
X17718200Y-11117600D02*
G75*
G03*
X17718200Y-11117600I-20000J0D01*
G01*
X17723800Y-5384800D02*
G75*
G03*
X17723800Y-5384800I-20000J0D01*
G01*
X17723800Y-13197840D02*
G75*
G03*
X17723800Y-13197840I-20000J0D01*
G01*
X17728880Y-7320280D02*
G75*
G03*
X17728880Y-7320280I-20000J0D01*
G01*
X17749200Y-3937000D02*
G75*
G03*
X17749200Y-3937000I-20000J0D01*
G01*
X17774600Y-4089400D02*
G75*
G03*
X17774600Y-4089400I-20000J0D01*
G01*
X17774600Y-8229600D02*
G75*
G03*
X17774600Y-8229600I-20000J0D01*
G01*
X17774600Y-9347200D02*
G75*
G03*
X17774600Y-9347200I-20000J0D01*
G01*
X17774600Y-9550400D02*
G75*
G03*
X17774600Y-9550400I-20000J0D01*
G01*
X17774600Y-9677400D02*
G75*
G03*
X17774600Y-9677400I-20000J0D01*
G01*
X17774600Y-12242800D02*
G75*
G03*
X17774600Y-12242800I-20000J0D01*
G01*
X17787300Y-8722600D02*
G75*
G03*
X17787300Y-8722600I-20000J0D01*
G01*
X17793200Y-8577600D02*
G75*
G03*
X17793200Y-8577600I-20000J0D01*
G01*
X17820320Y-3815080D02*
G75*
G03*
X17820320Y-3815080I-20000J0D01*
G01*
X17825400Y-5232400D02*
G75*
G03*
X17825400Y-5232400I-20000J0D01*
G01*
X17825400Y-5511800D02*
G75*
G03*
X17825400Y-5511800I-20000J0D01*
G01*
X17825401Y-10515600D02*
G75*
G03*
X17825401Y-10515600I-20000J0D01*
G01*
X17850800Y-9906000D02*
G75*
G03*
X17850800Y-9906000I-20000J0D01*
G01*
X17876200Y-3962400D02*
G75*
G03*
X17876200Y-3962400I-20000J0D01*
G01*
X17876200Y-8915400D02*
G75*
G03*
X17876200Y-8915400I-20000J0D01*
G01*
X17891440Y-7315200D02*
G75*
G03*
X17891440Y-7315200I-20000J0D01*
G01*
X17908200Y-12157600D02*
G75*
G03*
X17908200Y-12157600I-20000J0D01*
G01*
X17952400Y-3815080D02*
G75*
G03*
X17952400Y-3815080I-20000J0D01*
G01*
X17952400Y-5994400D02*
G75*
G03*
X17952400Y-5994400I-20000J0D01*
G01*
X17965100Y-9474200D02*
G75*
G03*
X17965100Y-9474200I-20000J0D01*
G01*
X17965200Y-11491600D02*
G75*
G03*
X17965200Y-11491600I-20000J0D01*
G01*
X17971450Y-6381750D02*
G75*
G03*
X17971450Y-6381750I-20000J0D01*
G01*
X17977800Y-10033000D02*
G75*
G03*
X17977800Y-10033000I-20000J0D01*
G01*
X17982880Y-6548120D02*
G75*
G03*
X17982880Y-6548120I-20000J0D01*
G01*
X18000025Y-9344025D02*
G75*
G03*
X18000025Y-9344025I-20000J0D01*
G01*
X18028600Y-8382000D02*
G75*
G03*
X18028600Y-8382000I-20000J0D01*
G01*
X18028600Y-8750300D02*
G75*
G03*
X18028600Y-8750300I-20000J0D01*
G01*
X18033680Y-6964680D02*
G75*
G03*
X18033680Y-6964680I-20000J0D01*
G01*
X18054000Y-9093200D02*
G75*
G03*
X18054000Y-9093200I-20000J0D01*
G01*
X18059080Y-8265160D02*
G75*
G03*
X18059080Y-8265160I-20000J0D01*
G01*
X18069240Y-7782560D02*
G75*
G03*
X18069240Y-7782560I-20000J0D01*
G01*
X18079400Y-10833100D02*
G75*
G03*
X18079400Y-10833100I-20000J0D01*
G01*
X18084480Y-3815080D02*
G75*
G03*
X18084480Y-3815080I-20000J0D01*
G01*
X18098200Y-11737600D02*
G75*
G03*
X18098200Y-11737600I-20000J0D01*
G01*
X18108200Y-10987600D02*
G75*
G03*
X18108200Y-10987600I-20000J0D01*
G01*
X18138200Y-8837600D02*
G75*
G03*
X18138200Y-8837600I-20000J0D01*
G01*
X18140360Y-6294120D02*
G75*
G03*
X18140360Y-6294120I-20000J0D01*
G01*
X18170840Y-8153400D02*
G75*
G03*
X18170840Y-8153400I-20000J0D01*
G01*
X18226720Y-3815080D02*
G75*
G03*
X18226720Y-3815080I-20000J0D01*
G01*
X18228200Y-12157600D02*
G75*
G03*
X18228200Y-12157600I-20000J0D01*
G01*
X18252120Y-10215880D02*
G75*
G03*
X18252120Y-10215880I-20000J0D01*
G01*
X18276200Y-11172600D02*
G75*
G03*
X18276200Y-11172600I-20000J0D01*
G01*
X18282600Y-5924550D02*
G75*
G03*
X18282600Y-5924550I-20000J0D01*
G01*
X18333400Y-9652000D02*
G75*
G03*
X18333400Y-9652000I-20000J0D01*
G01*
X18358800Y-7747000D02*
G75*
G03*
X18358800Y-7747000I-20000J0D01*
G01*
X18384200Y-3850640D02*
G75*
G03*
X18384200Y-3850640I-20000J0D01*
G01*
X18384200Y-12039600D02*
G75*
G03*
X18384200Y-12039600I-20000J0D01*
G01*
X18435000Y-5588000D02*
G75*
G03*
X18435000Y-5588000I-20000J0D01*
G01*
X18435000Y-9423400D02*
G75*
G03*
X18435000Y-9423400I-20000J0D01*
G01*
X18485800Y-10058400D02*
G75*
G03*
X18485800Y-10058400I-20000J0D01*
G01*
X18488200Y-12477600D02*
G75*
G03*
X18488200Y-12477600I-20000J0D01*
G01*
X18512200Y-10368600D02*
G75*
G03*
X18512200Y-10368600I-20000J0D01*
G01*
X18516280Y-3931920D02*
G75*
G03*
X18516280Y-3931920I-20000J0D01*
G01*
X18562000Y-12573000D02*
G75*
G03*
X18562000Y-12573000I-20000J0D01*
G01*
X18582320Y-8895080D02*
G75*
G03*
X18582320Y-8895080I-20000J0D01*
G01*
X18607720Y-6436360D02*
G75*
G03*
X18607720Y-6436360I-20000J0D01*
G01*
X18612800Y-4038600D02*
G75*
G03*
X18612800Y-4038600I-20000J0D01*
G01*
X18612800Y-4673600D02*
G75*
G03*
X18612800Y-4673600I-20000J0D01*
G01*
X18612800Y-4927600D02*
G75*
G03*
X18612800Y-4927600I-20000J0D01*
G01*
X18612800Y-5181600D02*
G75*
G03*
X18612800Y-5181600I-20000J0D01*
G01*
X18612800Y-5435600D02*
G75*
G03*
X18612800Y-5435600I-20000J0D01*
G01*
X18612800Y-5689600D02*
G75*
G03*
X18612800Y-5689600I-20000J0D01*
G01*
X18612800Y-5943600D02*
G75*
G03*
X18612800Y-5943600I-20000J0D01*
G01*
X18612800Y-6197600D02*
G75*
G03*
X18612800Y-6197600I-20000J0D01*
G01*
X18612800Y-10896600D02*
G75*
G03*
X18612800Y-10896600I-20000J0D01*
G01*
X18612800Y-11404600D02*
G75*
G03*
X18612800Y-11404600I-20000J0D01*
G01*
X18612800Y-11785600D02*
G75*
G03*
X18612800Y-11785600I-20000J0D01*
G01*
X18612800Y-12317600D02*
G75*
G03*
X18612800Y-12317600I-20000J0D01*
G01*
X18616200Y-10432600D02*
G75*
G03*
X18616200Y-10432600I-20000J0D01*
G01*
X18617880Y-8092440D02*
G75*
G03*
X18617880Y-8092440I-20000J0D01*
G01*
X18637200Y-10012600D02*
G75*
G03*
X18637200Y-10012600I-20000J0D01*
G01*
X18678840Y-4175760D02*
G75*
G03*
X18678840Y-4175760I-20000J0D01*
G01*
X18694080Y-4516120D02*
G75*
G03*
X18694080Y-4516120I-20000J0D01*
G01*
X18699160Y-4343400D02*
G75*
G03*
X18699160Y-4343400I-20000J0D01*
G01*
D14*
X14308340Y-13363800D02*
X14308340Y-13413800D01*
X14283340Y-13388800D02*
X14333340Y-13388800D01*
D11*
X14293340Y-13356300D02*
X14293340Y-13421300D01*
X14323340Y-13356300D02*
X14323340Y-13421300D01*
X14293340Y-13421300D02*
G75*
G03*
X14323340Y-13421300I15000J0D01*
G01*
X14323340Y-13356300D02*
G75*
G03*
X14293340Y-13356300I-15000J0D01*
G01*
D14*
X15008340Y-13363800D02*
X15008340Y-13413800D01*
X14983340Y-13388800D02*
X15033340Y-13388800D01*
D11*
X14993340Y-13356300D02*
X14993340Y-13421300D01*
X15023340Y-13356300D02*
X15023340Y-13421300D01*
X14993340Y-13421300D02*
G75*
G03*
X15023340Y-13421300I15000J0D01*
G01*
X15023340Y-13356300D02*
G75*
G03*
X14993340Y-13356300I-15000J0D01*
G01*
D15*
X14427786Y-13138246D02*
X14427786Y-13099354D01*
X14388894Y-13099354D01*
X14388894Y-13138246D01*
X14427786Y-13138246D01*
D11*
X14393340Y-13136300D02*
X14423340Y-13136300D01*
X14393340Y-13101300D02*
X14423340Y-13101300D01*
X14423340Y-13136300D02*
G75*
G03*
X14423340Y-13101300I0J17500D01*
G01*
X14393340Y-13101300D02*
G75*
G03*
X14393340Y-13136300I0J-17500D01*
G01*
D15*
X14927786Y-13138246D02*
X14927786Y-13099354D01*
X14888894Y-13099354D01*
X14888894Y-13138246D01*
X14927786Y-13138246D01*
D11*
X14893340Y-13136300D02*
X14923340Y-13136300D01*
X14893340Y-13101300D02*
X14923340Y-13101300D01*
X14923340Y-13136300D02*
G75*
G03*
X14923340Y-13101300I0J17500D01*
G01*
X14893340Y-13101300D02*
G75*
G03*
X14893340Y-13136300I0J-17500D01*
G01*
D16*
X16370300Y-12135400D02*
X16415300Y-12090400D01*
X16370300Y-12045400D01*
X16325300Y-12090400D01*
X16370300Y-12135400D01*
X16497300Y-11881400D02*
X16542300Y-11836400D01*
X16497300Y-11791400D01*
X16452300Y-11836400D01*
X16497300Y-11881400D01*
X16624300Y-12135400D02*
X16669300Y-12090400D01*
X16624300Y-12045400D01*
X16579300Y-12090400D01*
X16624300Y-12135400D01*
X16751300Y-11881400D02*
X16796300Y-11836400D01*
X16751300Y-11791400D01*
X16706300Y-11836400D01*
X16751300Y-11881400D01*
X16878300Y-12135400D02*
X16923300Y-12090400D01*
X16878300Y-12045400D01*
X16833300Y-12090400D01*
X16878300Y-12135400D01*
X17005300Y-11881400D02*
X17050300Y-11836400D01*
X17005300Y-11791400D01*
X16960300Y-11836400D01*
X17005300Y-11881400D01*
X17132300Y-12135400D02*
X17177300Y-12090400D01*
X17132300Y-12045400D01*
X17087300Y-12090400D01*
X17132300Y-12135400D01*
X17259300Y-11881400D02*
X17304300Y-11836400D01*
X17259300Y-11791400D01*
X17214300Y-11836400D01*
X17259300Y-11881400D01*
D17*
X18309120Y-8337080D02*
X18409120Y-8437080D01*
X18409120Y-8337080D02*
X18309120Y-8437080D01*
X18409120Y-8387080D02*
G75*
G03*
X18409120Y-8387080I-50000J0D01*
G01*
X18309120Y-8591080D02*
X18409120Y-8691080D01*
X18409120Y-8591080D02*
X18309120Y-8691080D01*
X18409120Y-8641080D02*
G75*
G03*
X18409120Y-8641080I-50000J0D01*
G01*
X18309120Y-8845080D02*
X18409120Y-8945080D01*
X18409120Y-8845080D02*
X18309120Y-8945080D01*
X18409120Y-8895080D02*
G75*
G03*
X18409120Y-8895080I-50000J0D01*
G01*
X18309120Y-9099080D02*
X18409120Y-9199080D01*
X18409120Y-9099080D02*
X18309120Y-9199080D01*
X18409120Y-9149080D02*
G75*
G03*
X18409120Y-9149080I-50000J0D01*
G01*
D18*
X16100300Y-13163400D02*
X16204300Y-13267400D01*
X16204300Y-13163400D02*
X16100300Y-13267400D01*
X16152300Y-13163400D02*
X16152300Y-13267400D01*
X16100300Y-13215400D02*
X16204300Y-13215400D01*
X16354300Y-13163400D02*
X16458300Y-13267400D01*
X16458300Y-13163400D02*
X16354300Y-13267400D01*
X16406300Y-13163400D02*
X16406300Y-13267400D01*
X16354300Y-13215400D02*
X16458300Y-13215400D01*
X17171300Y-13163400D02*
X17275300Y-13267400D01*
X17275300Y-13163400D02*
X17171300Y-13267400D01*
X17223300Y-13163400D02*
X17223300Y-13267400D01*
X17171300Y-13215400D02*
X17275300Y-13215400D01*
X17425300Y-13163400D02*
X17529300Y-13267400D01*
X17529300Y-13163400D02*
X17425300Y-13267400D01*
X17477300Y-13163400D02*
X17477300Y-13267400D01*
X17425300Y-13215400D02*
X17529300Y-13215400D01*
D19*
X10501400Y-12640080D02*
X10631400Y-12770080D01*
X10631400Y-12640080D02*
X10501400Y-12770080D01*
X10612362Y-12751042D02*
X10612362Y-12659118D01*
X10520438Y-12659118D01*
X10520438Y-12751042D01*
X10612362Y-12751042D01*
X11001400Y-12640080D02*
X11131400Y-12770080D01*
X11131400Y-12640080D02*
X11001400Y-12770080D01*
X11112362Y-12751042D02*
X11112362Y-12659118D01*
X11020438Y-12659118D01*
X11020438Y-12751042D01*
X11112362Y-12751042D01*
X11994920Y-12624840D02*
X12124920Y-12754840D01*
X12124920Y-12624840D02*
X11994920Y-12754840D01*
X12105882Y-12735802D02*
X12105882Y-12643878D01*
X12013958Y-12643878D01*
X12013958Y-12735802D01*
X12105882Y-12735802D01*
X12494920Y-12624840D02*
X12624920Y-12754840D01*
X12624920Y-12624840D02*
X12494920Y-12754840D01*
X12605882Y-12735802D02*
X12605882Y-12643878D01*
X12513958Y-12643878D01*
X12513958Y-12735802D01*
X12605882Y-12735802D01*
D20*
X9178100Y-10287700D02*
X9313100Y-10422700D01*
X9313100Y-10287700D02*
X9178100Y-10422700D01*
X9245600Y-10422700D02*
X9313100Y-10355200D01*
X9245600Y-10287700D01*
X9178100Y-10355200D01*
X9245600Y-10422700D01*
X9178100Y-11819700D02*
X9313100Y-11954700D01*
X9313100Y-11819700D02*
X9178100Y-11954700D01*
X9245600Y-11954700D02*
X9313100Y-11887200D01*
X9245600Y-11819700D01*
X9178100Y-11887200D01*
X9245600Y-11954700D01*
X9432100Y-9787700D02*
X9567100Y-9922700D01*
X9567100Y-9787700D02*
X9432100Y-9922700D01*
X9499600Y-9922700D02*
X9567100Y-9855200D01*
X9499600Y-9787700D01*
X9432100Y-9855200D01*
X9499600Y-9922700D01*
X9432100Y-10033700D02*
X9567100Y-10168700D01*
X9567100Y-10033700D02*
X9432100Y-10168700D01*
X9499600Y-10168700D02*
X9567100Y-10101200D01*
X9499600Y-10033700D01*
X9432100Y-10101200D01*
X9499600Y-10168700D01*
X9432100Y-10541700D02*
X9567100Y-10676700D01*
X9567100Y-10541700D02*
X9432100Y-10676700D01*
X9499600Y-10676700D02*
X9567100Y-10609200D01*
X9499600Y-10541700D01*
X9432100Y-10609200D01*
X9499600Y-10676700D01*
X9432100Y-11565700D02*
X9567100Y-11700700D01*
X9567100Y-11565700D02*
X9432100Y-11700700D01*
X9499600Y-11700700D02*
X9567100Y-11633200D01*
X9499600Y-11565700D01*
X9432100Y-11633200D01*
X9499600Y-11700700D01*
X9432100Y-12073700D02*
X9567100Y-12208700D01*
X9567100Y-12073700D02*
X9432100Y-12208700D01*
X9499600Y-12208700D02*
X9567100Y-12141200D01*
X9499600Y-12073700D01*
X9432100Y-12141200D01*
X9499600Y-12208700D01*
X9686100Y-10287700D02*
X9821100Y-10422700D01*
X9821100Y-10287700D02*
X9686100Y-10422700D01*
X9753600Y-10422700D02*
X9821100Y-10355200D01*
X9753600Y-10287700D01*
X9686100Y-10355200D01*
X9753600Y-10422700D01*
X9686100Y-11819700D02*
X9821100Y-11954700D01*
X9821100Y-11819700D02*
X9686100Y-11954700D01*
X9753600Y-11954700D02*
X9821100Y-11887200D01*
X9753600Y-11819700D01*
X9686100Y-11887200D01*
X9753600Y-11954700D01*
D21*
X9499600Y-5335200D02*
X9499600Y-5485200D01*
X9424600Y-5410200D02*
X9574600Y-5410200D01*
X9574600Y-5410200D02*
G75*
G03*
X9574600Y-5410200I-75000J0D01*
G01*
D22*
X16098637Y-12478737D02*
X16098637Y-12362063D01*
X15981963Y-12362063D01*
X15981963Y-12478737D01*
X16098637Y-12478737D01*
X16122800Y-12420400D02*
G75*
G03*
X16122800Y-12420400I-82500J0D01*
G01*
X17647637Y-12478737D02*
X17647637Y-12362063D01*
X17530963Y-12362063D01*
X17530963Y-12478737D01*
X17647637Y-12478737D01*
X17671800Y-12420400D02*
G75*
G03*
X17671800Y-12420400I-82500J0D01*
G01*
D23*
X9245600Y-5241200D02*
X9330600Y-5156200D01*
X9245600Y-5071200D01*
X9160600Y-5156200D01*
X9245600Y-5241200D01*
X9330600Y-5156200D02*
G75*
G03*
X9330600Y-5156200I-85000J0D01*
G01*
X9245600Y-5749200D02*
X9330600Y-5664200D01*
X9245600Y-5579200D01*
X9160600Y-5664200D01*
X9245600Y-5749200D01*
X9330600Y-5664200D02*
G75*
G03*
X9330600Y-5664200I-85000J0D01*
G01*
X9753600Y-5241200D02*
X9838600Y-5156200D01*
X9753600Y-5071200D01*
X9668600Y-5156200D01*
X9753600Y-5241200D01*
X9838600Y-5156200D02*
G75*
G03*
X9838600Y-5156200I-85000J0D01*
G01*
X9753600Y-5749200D02*
X9838600Y-5664200D01*
X9753600Y-5579200D01*
X9668600Y-5664200D01*
X9753600Y-5749200D01*
X9838600Y-5664200D02*
G75*
G03*
X9838600Y-5664200I-85000J0D01*
G01*
D24*
X9586400Y-4179000D02*
X9586400Y-4529000D01*
X9411400Y-4354000D02*
X9761400Y-4354000D01*
X9710145Y-4477745D02*
X9710145Y-4230255D01*
X9462655Y-4230255D01*
X9462655Y-4477745D01*
X9710145Y-4477745D01*
X9586400Y-12779000D02*
X9586400Y-13129000D01*
X9411400Y-12954000D02*
X9761400Y-12954000D01*
X9710145Y-13077745D02*
X9710145Y-12830255D01*
X9462655Y-12830255D01*
X9462655Y-13077745D01*
X9710145Y-13077745D01*
X10986400Y-6079000D02*
X10986400Y-6429000D01*
X10811400Y-6254000D02*
X11161400Y-6254000D01*
X11110145Y-6377745D02*
X11110145Y-6130255D01*
X10862655Y-6130255D01*
X10862655Y-6377745D01*
X11110145Y-6377745D01*
X10986400Y-10679000D02*
X10986400Y-11029000D01*
X10811400Y-10854000D02*
X11161400Y-10854000D01*
X11110145Y-10977745D02*
X11110145Y-10730255D01*
X10862655Y-10730255D01*
X10862655Y-10977745D01*
X11110145Y-10977745D01*
X14986400Y-6079000D02*
X14986400Y-6429000D01*
X14811400Y-6254000D02*
X15161400Y-6254000D01*
X15110145Y-6377745D02*
X15110145Y-6130255D01*
X14862655Y-6130255D01*
X14862655Y-6377745D01*
X15110145Y-6377745D01*
X14986400Y-10679000D02*
X14986400Y-11029000D01*
X14811400Y-10854000D02*
X15161400Y-10854000D01*
X15110145Y-10977745D02*
X15110145Y-10730255D01*
X14862655Y-10730255D01*
X14862655Y-10977745D01*
X15110145Y-10977745D01*
X18186400Y-4179000D02*
X18186400Y-4529000D01*
X18011400Y-4354000D02*
X18361400Y-4354000D01*
X18310145Y-4477745D02*
X18310145Y-4230255D01*
X18062655Y-4230255D01*
X18062655Y-4477745D01*
X18310145Y-4477745D01*
X18186400Y-12779000D02*
X18186400Y-13129000D01*
X18011400Y-12954000D02*
X18361400Y-12954000D01*
X18310145Y-13077745D02*
X18310145Y-12830255D01*
X18062655Y-12830255D01*
X18062655Y-13077745D01*
X18310145Y-13077745D01*
D11*
X9137619Y-13909476D02*
X9137619Y-13709476D01*
X9185238Y-13709476D01*
X9213810Y-13719000D01*
X9232857Y-13738048D01*
X9242381Y-13757095D01*
X9251905Y-13795190D01*
X9251905Y-13823762D01*
X9242381Y-13861857D01*
X9232857Y-13880905D01*
X9213810Y-13899952D01*
X9185238Y-13909476D01*
X9137619Y-13909476D01*
X9337619Y-13909476D02*
X9337619Y-13776143D01*
X9337619Y-13814238D02*
X9347143Y-13795190D01*
X9356667Y-13785667D01*
X9375714Y-13776143D01*
X9394762Y-13776143D01*
X9461429Y-13909476D02*
X9461429Y-13776143D01*
X9461429Y-13709476D02*
X9451905Y-13719000D01*
X9461429Y-13728524D01*
X9470952Y-13719000D01*
X9461429Y-13709476D01*
X9461429Y-13728524D01*
X9585238Y-13909476D02*
X9566190Y-13899952D01*
X9556667Y-13880905D01*
X9556667Y-13709476D01*
X9690000Y-13909476D02*
X9670952Y-13899952D01*
X9661429Y-13880905D01*
X9661429Y-13709476D01*
X9918571Y-13909476D02*
X9918571Y-13709476D01*
X9985238Y-13852333D01*
X10051905Y-13709476D01*
X10051905Y-13909476D01*
X10232857Y-13909476D02*
X10232857Y-13804714D01*
X10223333Y-13785667D01*
X10204286Y-13776143D01*
X10166190Y-13776143D01*
X10147143Y-13785667D01*
X10232857Y-13899952D02*
X10213810Y-13909476D01*
X10166190Y-13909476D01*
X10147143Y-13899952D01*
X10137619Y-13880905D01*
X10137619Y-13861857D01*
X10147143Y-13842809D01*
X10166190Y-13833286D01*
X10213810Y-13833286D01*
X10232857Y-13823762D01*
X10328095Y-13776143D02*
X10328095Y-13976143D01*
X10328095Y-13785667D02*
X10347143Y-13776143D01*
X10385238Y-13776143D01*
X10404286Y-13785667D01*
X10413810Y-13795190D01*
X10423333Y-13814238D01*
X10423333Y-13871381D01*
X10413810Y-13890428D01*
X10404286Y-13899952D01*
X10385238Y-13909476D01*
X10347143Y-13909476D01*
X10328095Y-13899952D01*
X10509048Y-13890428D02*
X10518571Y-13899952D01*
X10509048Y-13909476D01*
X10499524Y-13899952D01*
X10509048Y-13890428D01*
X10509048Y-13909476D01*
X10509048Y-13785667D02*
X10518571Y-13795190D01*
X10509048Y-13804714D01*
X10499524Y-13795190D01*
X10509048Y-13785667D01*
X10509048Y-13804714D01*
D12*
X8850000Y-14224000D02*
X8880000Y-14254000D01*
X8880000Y-14224000D02*
X8850000Y-14254000D01*
D11*
X9175714Y-14129476D02*
X9194762Y-14129476D01*
X9213810Y-14139000D01*
X9223333Y-14148524D01*
X9232857Y-14167571D01*
X9242381Y-14205667D01*
X9242381Y-14253286D01*
X9232857Y-14291381D01*
X9223333Y-14310428D01*
X9213810Y-14319952D01*
X9194762Y-14329476D01*
X9175714Y-14329476D01*
X9156667Y-14319952D01*
X9147143Y-14310428D01*
X9137619Y-14291381D01*
X9128095Y-14253286D01*
X9128095Y-14205667D01*
X9137619Y-14167571D01*
X9147143Y-14148524D01*
X9156667Y-14139000D01*
X9175714Y-14129476D01*
X9328095Y-14310428D02*
X9337619Y-14319952D01*
X9328095Y-14329476D01*
X9318571Y-14319952D01*
X9328095Y-14310428D01*
X9328095Y-14329476D01*
X9404286Y-14129476D02*
X9528095Y-14129476D01*
X9461429Y-14205667D01*
X9490000Y-14205667D01*
X9509048Y-14215190D01*
X9518571Y-14224714D01*
X9528095Y-14243762D01*
X9528095Y-14291381D01*
X9518571Y-14310428D01*
X9509048Y-14319952D01*
X9490000Y-14329476D01*
X9432857Y-14329476D01*
X9413810Y-14319952D01*
X9404286Y-14310428D01*
X9651905Y-14129476D02*
X9670952Y-14129476D01*
X9690000Y-14139000D01*
X9699524Y-14148524D01*
X9709048Y-14167571D01*
X9718571Y-14205667D01*
X9718571Y-14253286D01*
X9709048Y-14291381D01*
X9699524Y-14310428D01*
X9690000Y-14319952D01*
X9670952Y-14329476D01*
X9651905Y-14329476D01*
X9632857Y-14319952D01*
X9623333Y-14310428D01*
X9613810Y-14291381D01*
X9604286Y-14253286D01*
X9604286Y-14205667D01*
X9613810Y-14167571D01*
X9623333Y-14148524D01*
X9632857Y-14139000D01*
X9651905Y-14129476D01*
X9842381Y-14129476D02*
X9861429Y-14129476D01*
X9880476Y-14139000D01*
X9890000Y-14148524D01*
X9899524Y-14167571D01*
X9909048Y-14205667D01*
X9909048Y-14253286D01*
X9899524Y-14291381D01*
X9890000Y-14310428D01*
X9880476Y-14319952D01*
X9861429Y-14329476D01*
X9842381Y-14329476D01*
X9823333Y-14319952D01*
X9813810Y-14310428D01*
X9804286Y-14291381D01*
X9794762Y-14253286D01*
X9794762Y-14205667D01*
X9804286Y-14167571D01*
X9813810Y-14148524D01*
X9823333Y-14139000D01*
X9842381Y-14129476D01*
X9994762Y-14329476D02*
X9994762Y-14196143D01*
X9994762Y-14215190D02*
X10004286Y-14205667D01*
X10023333Y-14196143D01*
X10051905Y-14196143D01*
X10070952Y-14205667D01*
X10080476Y-14224714D01*
X10080476Y-14329476D01*
X10080476Y-14224714D02*
X10090000Y-14205667D01*
X10109048Y-14196143D01*
X10137619Y-14196143D01*
X10156667Y-14205667D01*
X10166190Y-14224714D01*
X10166190Y-14329476D01*
X10261429Y-14329476D02*
X10261429Y-14196143D01*
X10261429Y-14215190D02*
X10270952Y-14205667D01*
X10290000Y-14196143D01*
X10318571Y-14196143D01*
X10337619Y-14205667D01*
X10347143Y-14224714D01*
X10347143Y-14329476D01*
X10347143Y-14224714D02*
X10356667Y-14205667D01*
X10375714Y-14196143D01*
X10404286Y-14196143D01*
X10423333Y-14205667D01*
X10432857Y-14224714D01*
X10432857Y-14329476D01*
X10823333Y-14119952D02*
X10651905Y-14377095D01*
X11080476Y-14129476D02*
X11099524Y-14129476D01*
X11118571Y-14139000D01*
X11128095Y-14148524D01*
X11137619Y-14167571D01*
X11147143Y-14205667D01*
X11147143Y-14253286D01*
X11137619Y-14291381D01*
X11128095Y-14310428D01*
X11118571Y-14319952D01*
X11099524Y-14329476D01*
X11080476Y-14329476D01*
X11061429Y-14319952D01*
X11051905Y-14310428D01*
X11042381Y-14291381D01*
X11032857Y-14253286D01*
X11032857Y-14205667D01*
X11042381Y-14167571D01*
X11051905Y-14148524D01*
X11061429Y-14139000D01*
X11080476Y-14129476D01*
X11232857Y-14310428D02*
X11242381Y-14319952D01*
X11232857Y-14329476D01*
X11223333Y-14319952D01*
X11232857Y-14310428D01*
X11232857Y-14329476D01*
X11366190Y-14129476D02*
X11385238Y-14129476D01*
X11404286Y-14139000D01*
X11413809Y-14148524D01*
X11423333Y-14167571D01*
X11432857Y-14205667D01*
X11432857Y-14253286D01*
X11423333Y-14291381D01*
X11413809Y-14310428D01*
X11404286Y-14319952D01*
X11385238Y-14329476D01*
X11366190Y-14329476D01*
X11347143Y-14319952D01*
X11337619Y-14310428D01*
X11328095Y-14291381D01*
X11318571Y-14253286D01*
X11318571Y-14205667D01*
X11328095Y-14167571D01*
X11337619Y-14148524D01*
X11347143Y-14139000D01*
X11366190Y-14129476D01*
X11623333Y-14329476D02*
X11509048Y-14329476D01*
X11566190Y-14329476D02*
X11566190Y-14129476D01*
X11547143Y-14158048D01*
X11528095Y-14177095D01*
X11509048Y-14186619D01*
X11813809Y-14329476D02*
X11699524Y-14329476D01*
X11756667Y-14329476D02*
X11756667Y-14129476D01*
X11737619Y-14158048D01*
X11718571Y-14177095D01*
X11699524Y-14186619D01*
X11928095Y-14215190D02*
X11909048Y-14205667D01*
X11899524Y-14196143D01*
X11890000Y-14177095D01*
X11890000Y-14167571D01*
X11899524Y-14148524D01*
X11909048Y-14139000D01*
X11928095Y-14129476D01*
X11966190Y-14129476D01*
X11985238Y-14139000D01*
X11994762Y-14148524D01*
X12004286Y-14167571D01*
X12004286Y-14177095D01*
X11994762Y-14196143D01*
X11985238Y-14205667D01*
X11966190Y-14215190D01*
X11928095Y-14215190D01*
X11909048Y-14224714D01*
X11899524Y-14234238D01*
X11890000Y-14253286D01*
X11890000Y-14291381D01*
X11899524Y-14310428D01*
X11909048Y-14319952D01*
X11928095Y-14329476D01*
X11966190Y-14329476D01*
X11985238Y-14319952D01*
X11994762Y-14310428D01*
X12004286Y-14291381D01*
X12004286Y-14253286D01*
X11994762Y-14234238D01*
X11985238Y-14224714D01*
X11966190Y-14215190D01*
X12080476Y-14129476D02*
X12080476Y-14167571D01*
X12156667Y-14129476D02*
X12156667Y-14167571D01*
X12451905Y-14405667D02*
X12442381Y-14396143D01*
X12423333Y-14367571D01*
X12413809Y-14348524D01*
X12404286Y-14319952D01*
X12394762Y-14272333D01*
X12394762Y-14234238D01*
X12404286Y-14186619D01*
X12413809Y-14158048D01*
X12423333Y-14139000D01*
X12442381Y-14110428D01*
X12451905Y-14100905D01*
X12613809Y-14196143D02*
X12613809Y-14329476D01*
X12566190Y-14119952D02*
X12518571Y-14262809D01*
X12642381Y-14262809D01*
X12870952Y-14329476D02*
X12870952Y-14129476D01*
X12956667Y-14329476D02*
X12956667Y-14224714D01*
X12947143Y-14205667D01*
X12928095Y-14196143D01*
X12899524Y-14196143D01*
X12880476Y-14205667D01*
X12870952Y-14215190D01*
X13080476Y-14329476D02*
X13061428Y-14319952D01*
X13051905Y-14310428D01*
X13042381Y-14291381D01*
X13042381Y-14234238D01*
X13051905Y-14215190D01*
X13061428Y-14205667D01*
X13080476Y-14196143D01*
X13109048Y-14196143D01*
X13128095Y-14205667D01*
X13137619Y-14215190D01*
X13147143Y-14234238D01*
X13147143Y-14291381D01*
X13137619Y-14310428D01*
X13128095Y-14319952D01*
X13109048Y-14329476D01*
X13080476Y-14329476D01*
X13261428Y-14329476D02*
X13242381Y-14319952D01*
X13232857Y-14300905D01*
X13232857Y-14129476D01*
X13413809Y-14319952D02*
X13394762Y-14329476D01*
X13356667Y-14329476D01*
X13337619Y-14319952D01*
X13328095Y-14300905D01*
X13328095Y-14224714D01*
X13337619Y-14205667D01*
X13356667Y-14196143D01*
X13394762Y-14196143D01*
X13413809Y-14205667D01*
X13423333Y-14224714D01*
X13423333Y-14243762D01*
X13328095Y-14262809D01*
X13499524Y-14319952D02*
X13518571Y-14329476D01*
X13556667Y-14329476D01*
X13575714Y-14319952D01*
X13585238Y-14300905D01*
X13585238Y-14291381D01*
X13575714Y-14272333D01*
X13556667Y-14262809D01*
X13528095Y-14262809D01*
X13509048Y-14253286D01*
X13499524Y-14234238D01*
X13499524Y-14224714D01*
X13509048Y-14205667D01*
X13528095Y-14196143D01*
X13556667Y-14196143D01*
X13575714Y-14205667D01*
X13651905Y-14405667D02*
X13661428Y-14396143D01*
X13680476Y-14367571D01*
X13690000Y-14348524D01*
X13699524Y-14319952D01*
X13709048Y-14272333D01*
X13709048Y-14234238D01*
X13699524Y-14186619D01*
X13690000Y-14158048D01*
X13680476Y-14139000D01*
X13661428Y-14110428D01*
X13651905Y-14100905D01*
D13*
X8880000Y-14503000D02*
G75*
G03*
X8880000Y-14503000I-20000J0D01*
G01*
D11*
X9175714Y-14393476D02*
X9194762Y-14393476D01*
X9213810Y-14403000D01*
X9223333Y-14412524D01*
X9232857Y-14431571D01*
X9242381Y-14469667D01*
X9242381Y-14517286D01*
X9232857Y-14555381D01*
X9223333Y-14574428D01*
X9213810Y-14583952D01*
X9194762Y-14593476D01*
X9175714Y-14593476D01*
X9156667Y-14583952D01*
X9147143Y-14574428D01*
X9137619Y-14555381D01*
X9128095Y-14517286D01*
X9128095Y-14469667D01*
X9137619Y-14431571D01*
X9147143Y-14412524D01*
X9156667Y-14403000D01*
X9175714Y-14393476D01*
X9328095Y-14574428D02*
X9337619Y-14583952D01*
X9328095Y-14593476D01*
X9318571Y-14583952D01*
X9328095Y-14574428D01*
X9328095Y-14593476D01*
X9509048Y-14460143D02*
X9509048Y-14593476D01*
X9461429Y-14383952D02*
X9413810Y-14526809D01*
X9537619Y-14526809D01*
X9651905Y-14393476D02*
X9670952Y-14393476D01*
X9690000Y-14403000D01*
X9699524Y-14412524D01*
X9709048Y-14431571D01*
X9718571Y-14469667D01*
X9718571Y-14517286D01*
X9709048Y-14555381D01*
X9699524Y-14574428D01*
X9690000Y-14583952D01*
X9670952Y-14593476D01*
X9651905Y-14593476D01*
X9632857Y-14583952D01*
X9623333Y-14574428D01*
X9613810Y-14555381D01*
X9604286Y-14517286D01*
X9604286Y-14469667D01*
X9613810Y-14431571D01*
X9623333Y-14412524D01*
X9632857Y-14403000D01*
X9651905Y-14393476D01*
X9842381Y-14393476D02*
X9861429Y-14393476D01*
X9880476Y-14403000D01*
X9890000Y-14412524D01*
X9899524Y-14431571D01*
X9909048Y-14469667D01*
X9909048Y-14517286D01*
X9899524Y-14555381D01*
X9890000Y-14574428D01*
X9880476Y-14583952D01*
X9861429Y-14593476D01*
X9842381Y-14593476D01*
X9823333Y-14583952D01*
X9813810Y-14574428D01*
X9804286Y-14555381D01*
X9794762Y-14517286D01*
X9794762Y-14469667D01*
X9804286Y-14431571D01*
X9813810Y-14412524D01*
X9823333Y-14403000D01*
X9842381Y-14393476D01*
X9994762Y-14593476D02*
X9994762Y-14460143D01*
X9994762Y-14479190D02*
X10004286Y-14469667D01*
X10023333Y-14460143D01*
X10051905Y-14460143D01*
X10070952Y-14469667D01*
X10080476Y-14488714D01*
X10080476Y-14593476D01*
X10080476Y-14488714D02*
X10090000Y-14469667D01*
X10109048Y-14460143D01*
X10137619Y-14460143D01*
X10156667Y-14469667D01*
X10166190Y-14488714D01*
X10166190Y-14593476D01*
X10261429Y-14593476D02*
X10261429Y-14460143D01*
X10261429Y-14479190D02*
X10270952Y-14469667D01*
X10290000Y-14460143D01*
X10318571Y-14460143D01*
X10337619Y-14469667D01*
X10347143Y-14488714D01*
X10347143Y-14593476D01*
X10347143Y-14488714D02*
X10356667Y-14469667D01*
X10375714Y-14460143D01*
X10404286Y-14460143D01*
X10423333Y-14469667D01*
X10432857Y-14488714D01*
X10432857Y-14593476D01*
X10823333Y-14383952D02*
X10651905Y-14641095D01*
X11080476Y-14393476D02*
X11099524Y-14393476D01*
X11118571Y-14403000D01*
X11128095Y-14412524D01*
X11137619Y-14431571D01*
X11147143Y-14469667D01*
X11147143Y-14517286D01*
X11137619Y-14555381D01*
X11128095Y-14574428D01*
X11118571Y-14583952D01*
X11099524Y-14593476D01*
X11080476Y-14593476D01*
X11061429Y-14583952D01*
X11051905Y-14574428D01*
X11042381Y-14555381D01*
X11032857Y-14517286D01*
X11032857Y-14469667D01*
X11042381Y-14431571D01*
X11051905Y-14412524D01*
X11061429Y-14403000D01*
X11080476Y-14393476D01*
X11232857Y-14574428D02*
X11242381Y-14583952D01*
X11232857Y-14593476D01*
X11223333Y-14583952D01*
X11232857Y-14574428D01*
X11232857Y-14593476D01*
X11366190Y-14393476D02*
X11385238Y-14393476D01*
X11404286Y-14403000D01*
X11413809Y-14412524D01*
X11423333Y-14431571D01*
X11432857Y-14469667D01*
X11432857Y-14517286D01*
X11423333Y-14555381D01*
X11413809Y-14574428D01*
X11404286Y-14583952D01*
X11385238Y-14593476D01*
X11366190Y-14593476D01*
X11347143Y-14583952D01*
X11337619Y-14574428D01*
X11328095Y-14555381D01*
X11318571Y-14517286D01*
X11318571Y-14469667D01*
X11328095Y-14431571D01*
X11337619Y-14412524D01*
X11347143Y-14403000D01*
X11366190Y-14393476D01*
X11623333Y-14593476D02*
X11509048Y-14593476D01*
X11566190Y-14593476D02*
X11566190Y-14393476D01*
X11547143Y-14422048D01*
X11528095Y-14441095D01*
X11509048Y-14450619D01*
X11804286Y-14393476D02*
X11709048Y-14393476D01*
X11699524Y-14488714D01*
X11709048Y-14479190D01*
X11728095Y-14469667D01*
X11775714Y-14469667D01*
X11794762Y-14479190D01*
X11804286Y-14488714D01*
X11813809Y-14507762D01*
X11813809Y-14555381D01*
X11804286Y-14574428D01*
X11794762Y-14583952D01*
X11775714Y-14593476D01*
X11728095Y-14593476D01*
X11709048Y-14583952D01*
X11699524Y-14574428D01*
X11880476Y-14393476D02*
X12013809Y-14393476D01*
X11928095Y-14593476D01*
X12080476Y-14393476D02*
X12080476Y-14431571D01*
X12156667Y-14393476D02*
X12156667Y-14431571D01*
X12451905Y-14669667D02*
X12442381Y-14660143D01*
X12423333Y-14631571D01*
X12413809Y-14612524D01*
X12404286Y-14583952D01*
X12394762Y-14536333D01*
X12394762Y-14498238D01*
X12404286Y-14450619D01*
X12413809Y-14422048D01*
X12423333Y-14403000D01*
X12442381Y-14374428D01*
X12451905Y-14364905D01*
X12556667Y-14479190D02*
X12537619Y-14469667D01*
X12528095Y-14460143D01*
X12518571Y-14441095D01*
X12518571Y-14431571D01*
X12528095Y-14412524D01*
X12537619Y-14403000D01*
X12556667Y-14393476D01*
X12594762Y-14393476D01*
X12613809Y-14403000D01*
X12623333Y-14412524D01*
X12632857Y-14431571D01*
X12632857Y-14441095D01*
X12623333Y-14460143D01*
X12613809Y-14469667D01*
X12594762Y-14479190D01*
X12556667Y-14479190D01*
X12537619Y-14488714D01*
X12528095Y-14498238D01*
X12518571Y-14517286D01*
X12518571Y-14555381D01*
X12528095Y-14574428D01*
X12537619Y-14583952D01*
X12556667Y-14593476D01*
X12594762Y-14593476D01*
X12613809Y-14583952D01*
X12623333Y-14574428D01*
X12632857Y-14555381D01*
X12632857Y-14517286D01*
X12623333Y-14498238D01*
X12613809Y-14488714D01*
X12594762Y-14479190D01*
X12813809Y-14393476D02*
X12718571Y-14393476D01*
X12709048Y-14488714D01*
X12718571Y-14479190D01*
X12737619Y-14469667D01*
X12785238Y-14469667D01*
X12804286Y-14479190D01*
X12813809Y-14488714D01*
X12823333Y-14507762D01*
X12823333Y-14555381D01*
X12813809Y-14574428D01*
X12804286Y-14583952D01*
X12785238Y-14593476D01*
X12737619Y-14593476D01*
X12718571Y-14583952D01*
X12709048Y-14574428D01*
X12994762Y-14393476D02*
X12956667Y-14393476D01*
X12937619Y-14403000D01*
X12928095Y-14412524D01*
X12909048Y-14441095D01*
X12899524Y-14479190D01*
X12899524Y-14555381D01*
X12909048Y-14574428D01*
X12918571Y-14583952D01*
X12937619Y-14593476D01*
X12975714Y-14593476D01*
X12994762Y-14583952D01*
X13004286Y-14574428D01*
X13013809Y-14555381D01*
X13013809Y-14507762D01*
X13004286Y-14488714D01*
X12994762Y-14479190D01*
X12975714Y-14469667D01*
X12937619Y-14469667D01*
X12918571Y-14479190D01*
X12909048Y-14488714D01*
X12899524Y-14507762D01*
X13251905Y-14593476D02*
X13251905Y-14393476D01*
X13337619Y-14593476D02*
X13337619Y-14488714D01*
X13328095Y-14469667D01*
X13309048Y-14460143D01*
X13280476Y-14460143D01*
X13261428Y-14469667D01*
X13251905Y-14479190D01*
X13461428Y-14593476D02*
X13442381Y-14583952D01*
X13432857Y-14574428D01*
X13423333Y-14555381D01*
X13423333Y-14498238D01*
X13432857Y-14479190D01*
X13442381Y-14469667D01*
X13461428Y-14460143D01*
X13490000Y-14460143D01*
X13509048Y-14469667D01*
X13518571Y-14479190D01*
X13528095Y-14498238D01*
X13528095Y-14555381D01*
X13518571Y-14574428D01*
X13509048Y-14583952D01*
X13490000Y-14593476D01*
X13461428Y-14593476D01*
X13642381Y-14593476D02*
X13623333Y-14583952D01*
X13613809Y-14564905D01*
X13613809Y-14393476D01*
X13794762Y-14583952D02*
X13775714Y-14593476D01*
X13737619Y-14593476D01*
X13718571Y-14583952D01*
X13709048Y-14564905D01*
X13709048Y-14488714D01*
X13718571Y-14469667D01*
X13737619Y-14460143D01*
X13775714Y-14460143D01*
X13794762Y-14469667D01*
X13804286Y-14488714D01*
X13804286Y-14507762D01*
X13709048Y-14526809D01*
X13880476Y-14583952D02*
X13899524Y-14593476D01*
X13937619Y-14593476D01*
X13956667Y-14583952D01*
X13966190Y-14564905D01*
X13966190Y-14555381D01*
X13956667Y-14536333D01*
X13937619Y-14526809D01*
X13909048Y-14526809D01*
X13890000Y-14517286D01*
X13880476Y-14498238D01*
X13880476Y-14488714D01*
X13890000Y-14469667D01*
X13909048Y-14460143D01*
X13937619Y-14460143D01*
X13956667Y-14469667D01*
X14032857Y-14669667D02*
X14042381Y-14660143D01*
X14061428Y-14631571D01*
X14070952Y-14612524D01*
X14080476Y-14583952D01*
X14090000Y-14536333D01*
X14090000Y-14498238D01*
X14080476Y-14450619D01*
X14070952Y-14422048D01*
X14061428Y-14403000D01*
X14042381Y-14374428D01*
X14032857Y-14364905D01*
D14*
X8855000Y-14742000D02*
X8855000Y-14792000D01*
X8830000Y-14767000D02*
X8880000Y-14767000D01*
D11*
X9175714Y-14657476D02*
X9194762Y-14657476D01*
X9213810Y-14667000D01*
X9223333Y-14676524D01*
X9232857Y-14695571D01*
X9242381Y-14733667D01*
X9242381Y-14781286D01*
X9232857Y-14819381D01*
X9223333Y-14838428D01*
X9213810Y-14847952D01*
X9194762Y-14857476D01*
X9175714Y-14857476D01*
X9156667Y-14847952D01*
X9147143Y-14838428D01*
X9137619Y-14819381D01*
X9128095Y-14781286D01*
X9128095Y-14733667D01*
X9137619Y-14695571D01*
X9147143Y-14676524D01*
X9156667Y-14667000D01*
X9175714Y-14657476D01*
X9328095Y-14838428D02*
X9337619Y-14847952D01*
X9328095Y-14857476D01*
X9318571Y-14847952D01*
X9328095Y-14838428D01*
X9328095Y-14857476D01*
X9518571Y-14657476D02*
X9423333Y-14657476D01*
X9413810Y-14752714D01*
X9423333Y-14743190D01*
X9442381Y-14733667D01*
X9490000Y-14733667D01*
X9509048Y-14743190D01*
X9518571Y-14752714D01*
X9528095Y-14771762D01*
X9528095Y-14819381D01*
X9518571Y-14838428D01*
X9509048Y-14847952D01*
X9490000Y-14857476D01*
X9442381Y-14857476D01*
X9423333Y-14847952D01*
X9413810Y-14838428D01*
X9651905Y-14657476D02*
X9670952Y-14657476D01*
X9690000Y-14667000D01*
X9699524Y-14676524D01*
X9709048Y-14695571D01*
X9718571Y-14733667D01*
X9718571Y-14781286D01*
X9709048Y-14819381D01*
X9699524Y-14838428D01*
X9690000Y-14847952D01*
X9670952Y-14857476D01*
X9651905Y-14857476D01*
X9632857Y-14847952D01*
X9623333Y-14838428D01*
X9613810Y-14819381D01*
X9604286Y-14781286D01*
X9604286Y-14733667D01*
X9613810Y-14695571D01*
X9623333Y-14676524D01*
X9632857Y-14667000D01*
X9651905Y-14657476D01*
X9842381Y-14657476D02*
X9861429Y-14657476D01*
X9880476Y-14667000D01*
X9890000Y-14676524D01*
X9899524Y-14695571D01*
X9909048Y-14733667D01*
X9909048Y-14781286D01*
X9899524Y-14819381D01*
X9890000Y-14838428D01*
X9880476Y-14847952D01*
X9861429Y-14857476D01*
X9842381Y-14857476D01*
X9823333Y-14847952D01*
X9813810Y-14838428D01*
X9804286Y-14819381D01*
X9794762Y-14781286D01*
X9794762Y-14733667D01*
X9804286Y-14695571D01*
X9813810Y-14676524D01*
X9823333Y-14667000D01*
X9842381Y-14657476D01*
X9994762Y-14857476D02*
X9994762Y-14724143D01*
X9994762Y-14743190D02*
X10004286Y-14733667D01*
X10023333Y-14724143D01*
X10051905Y-14724143D01*
X10070952Y-14733667D01*
X10080476Y-14752714D01*
X10080476Y-14857476D01*
X10080476Y-14752714D02*
X10090000Y-14733667D01*
X10109048Y-14724143D01*
X10137619Y-14724143D01*
X10156667Y-14733667D01*
X10166190Y-14752714D01*
X10166190Y-14857476D01*
X10261429Y-14857476D02*
X10261429Y-14724143D01*
X10261429Y-14743190D02*
X10270952Y-14733667D01*
X10290000Y-14724143D01*
X10318571Y-14724143D01*
X10337619Y-14733667D01*
X10347143Y-14752714D01*
X10347143Y-14857476D01*
X10347143Y-14752714D02*
X10356667Y-14733667D01*
X10375714Y-14724143D01*
X10404286Y-14724143D01*
X10423333Y-14733667D01*
X10432857Y-14752714D01*
X10432857Y-14857476D01*
X10823333Y-14647952D02*
X10651905Y-14905095D01*
X11080476Y-14657476D02*
X11099524Y-14657476D01*
X11118571Y-14667000D01*
X11128095Y-14676524D01*
X11137619Y-14695571D01*
X11147143Y-14733667D01*
X11147143Y-14781286D01*
X11137619Y-14819381D01*
X11128095Y-14838428D01*
X11118571Y-14847952D01*
X11099524Y-14857476D01*
X11080476Y-14857476D01*
X11061429Y-14847952D01*
X11051905Y-14838428D01*
X11042381Y-14819381D01*
X11032857Y-14781286D01*
X11032857Y-14733667D01*
X11042381Y-14695571D01*
X11051905Y-14676524D01*
X11061429Y-14667000D01*
X11080476Y-14657476D01*
X11232857Y-14838428D02*
X11242381Y-14847952D01*
X11232857Y-14857476D01*
X11223333Y-14847952D01*
X11232857Y-14838428D01*
X11232857Y-14857476D01*
X11366190Y-14657476D02*
X11385238Y-14657476D01*
X11404286Y-14667000D01*
X11413809Y-14676524D01*
X11423333Y-14695571D01*
X11432857Y-14733667D01*
X11432857Y-14781286D01*
X11423333Y-14819381D01*
X11413809Y-14838428D01*
X11404286Y-14847952D01*
X11385238Y-14857476D01*
X11366190Y-14857476D01*
X11347143Y-14847952D01*
X11337619Y-14838428D01*
X11328095Y-14819381D01*
X11318571Y-14781286D01*
X11318571Y-14733667D01*
X11328095Y-14695571D01*
X11337619Y-14676524D01*
X11347143Y-14667000D01*
X11366190Y-14657476D01*
X11623333Y-14857476D02*
X11509048Y-14857476D01*
X11566190Y-14857476D02*
X11566190Y-14657476D01*
X11547143Y-14686048D01*
X11528095Y-14705095D01*
X11509048Y-14714619D01*
X11718571Y-14857476D02*
X11756667Y-14857476D01*
X11775714Y-14847952D01*
X11785238Y-14838428D01*
X11804286Y-14809857D01*
X11813809Y-14771762D01*
X11813809Y-14695571D01*
X11804286Y-14676524D01*
X11794762Y-14667000D01*
X11775714Y-14657476D01*
X11737619Y-14657476D01*
X11718571Y-14667000D01*
X11709048Y-14676524D01*
X11699524Y-14695571D01*
X11699524Y-14743190D01*
X11709048Y-14762238D01*
X11718571Y-14771762D01*
X11737619Y-14781286D01*
X11775714Y-14781286D01*
X11794762Y-14771762D01*
X11804286Y-14762238D01*
X11813809Y-14743190D01*
X11880476Y-14657476D02*
X12013809Y-14657476D01*
X11928095Y-14857476D01*
X12080476Y-14657476D02*
X12080476Y-14695571D01*
X12156667Y-14657476D02*
X12156667Y-14695571D01*
X12451905Y-14933667D02*
X12442381Y-14924143D01*
X12423333Y-14895571D01*
X12413809Y-14876524D01*
X12404286Y-14847952D01*
X12394762Y-14800333D01*
X12394762Y-14762238D01*
X12404286Y-14714619D01*
X12413809Y-14686048D01*
X12423333Y-14667000D01*
X12442381Y-14638428D01*
X12451905Y-14628905D01*
X12566190Y-14657476D02*
X12585238Y-14657476D01*
X12604286Y-14667000D01*
X12613809Y-14676524D01*
X12623333Y-14695571D01*
X12632857Y-14733667D01*
X12632857Y-14781286D01*
X12623333Y-14819381D01*
X12613809Y-14838428D01*
X12604286Y-14847952D01*
X12585238Y-14857476D01*
X12566190Y-14857476D01*
X12547143Y-14847952D01*
X12537619Y-14838428D01*
X12528095Y-14819381D01*
X12518571Y-14781286D01*
X12518571Y-14733667D01*
X12528095Y-14695571D01*
X12537619Y-14676524D01*
X12547143Y-14667000D01*
X12566190Y-14657476D01*
X12870952Y-14857476D02*
X12870952Y-14657476D01*
X12956667Y-14857476D02*
X12956667Y-14752714D01*
X12947143Y-14733667D01*
X12928095Y-14724143D01*
X12899524Y-14724143D01*
X12880476Y-14733667D01*
X12870952Y-14743190D01*
X13080476Y-14857476D02*
X13061428Y-14847952D01*
X13051905Y-14838428D01*
X13042381Y-14819381D01*
X13042381Y-14762238D01*
X13051905Y-14743190D01*
X13061428Y-14733667D01*
X13080476Y-14724143D01*
X13109048Y-14724143D01*
X13128095Y-14733667D01*
X13137619Y-14743190D01*
X13147143Y-14762238D01*
X13147143Y-14819381D01*
X13137619Y-14838428D01*
X13128095Y-14847952D01*
X13109048Y-14857476D01*
X13080476Y-14857476D01*
X13261428Y-14857476D02*
X13242381Y-14847952D01*
X13232857Y-14828905D01*
X13232857Y-14657476D01*
X13413809Y-14847952D02*
X13394762Y-14857476D01*
X13356667Y-14857476D01*
X13337619Y-14847952D01*
X13328095Y-14828905D01*
X13328095Y-14752714D01*
X13337619Y-14733667D01*
X13356667Y-14724143D01*
X13394762Y-14724143D01*
X13413809Y-14733667D01*
X13423333Y-14752714D01*
X13423333Y-14771762D01*
X13328095Y-14790809D01*
X13499524Y-14847952D02*
X13518571Y-14857476D01*
X13556667Y-14857476D01*
X13575714Y-14847952D01*
X13585238Y-14828905D01*
X13585238Y-14819381D01*
X13575714Y-14800333D01*
X13556667Y-14790809D01*
X13528095Y-14790809D01*
X13509048Y-14781286D01*
X13499524Y-14762238D01*
X13499524Y-14752714D01*
X13509048Y-14733667D01*
X13528095Y-14724143D01*
X13556667Y-14724143D01*
X13575714Y-14733667D01*
X13823333Y-14781286D02*
X13975714Y-14781286D01*
X13899524Y-14857476D02*
X13899524Y-14705095D01*
X14213809Y-14676524D02*
X14223333Y-14667000D01*
X14242381Y-14657476D01*
X14290000Y-14657476D01*
X14309048Y-14667000D01*
X14318571Y-14676524D01*
X14328095Y-14695571D01*
X14328095Y-14714619D01*
X14318571Y-14743190D01*
X14204286Y-14857476D01*
X14328095Y-14857476D01*
X14556667Y-14847952D02*
X14575714Y-14857476D01*
X14613809Y-14857476D01*
X14632857Y-14847952D01*
X14642381Y-14828905D01*
X14642381Y-14819381D01*
X14632857Y-14800333D01*
X14613809Y-14790809D01*
X14585238Y-14790809D01*
X14566190Y-14781286D01*
X14556667Y-14762238D01*
X14556667Y-14752714D01*
X14566190Y-14733667D01*
X14585238Y-14724143D01*
X14613809Y-14724143D01*
X14632857Y-14733667D01*
X14756667Y-14857476D02*
X14737619Y-14847952D01*
X14728095Y-14828905D01*
X14728095Y-14657476D01*
X14861428Y-14857476D02*
X14842381Y-14847952D01*
X14832857Y-14838428D01*
X14823333Y-14819381D01*
X14823333Y-14762238D01*
X14832857Y-14743190D01*
X14842381Y-14733667D01*
X14861428Y-14724143D01*
X14890000Y-14724143D01*
X14909048Y-14733667D01*
X14918571Y-14743190D01*
X14928095Y-14762238D01*
X14928095Y-14819381D01*
X14918571Y-14838428D01*
X14909048Y-14847952D01*
X14890000Y-14857476D01*
X14861428Y-14857476D01*
X14985238Y-14724143D02*
X15061428Y-14724143D01*
X15013809Y-14657476D02*
X15013809Y-14828905D01*
X15023333Y-14847952D01*
X15042381Y-14857476D01*
X15061428Y-14857476D01*
X15118571Y-14847952D02*
X15137619Y-14857476D01*
X15175714Y-14857476D01*
X15194762Y-14847952D01*
X15204286Y-14828905D01*
X15204286Y-14819381D01*
X15194762Y-14800333D01*
X15175714Y-14790809D01*
X15147143Y-14790809D01*
X15128095Y-14781286D01*
X15118571Y-14762238D01*
X15118571Y-14752714D01*
X15128095Y-14733667D01*
X15147143Y-14724143D01*
X15175714Y-14724143D01*
X15194762Y-14733667D01*
X15270952Y-14933667D02*
X15280476Y-14924143D01*
X15299524Y-14895571D01*
X15309048Y-14876524D01*
X15318571Y-14847952D01*
X15328095Y-14800333D01*
X15328095Y-14762238D01*
X15318571Y-14714619D01*
X15309048Y-14686048D01*
X15299524Y-14667000D01*
X15280476Y-14638428D01*
X15270952Y-14628905D01*
D15*
X8871946Y-15050446D02*
X8871946Y-15011554D01*
X8833054Y-15011554D01*
X8833054Y-15050446D01*
X8871946Y-15050446D01*
D11*
X9175714Y-14921476D02*
X9194762Y-14921476D01*
X9213810Y-14931000D01*
X9223333Y-14940524D01*
X9232857Y-14959571D01*
X9242381Y-14997667D01*
X9242381Y-15045286D01*
X9232857Y-15083381D01*
X9223333Y-15102428D01*
X9213810Y-15111952D01*
X9194762Y-15121476D01*
X9175714Y-15121476D01*
X9156667Y-15111952D01*
X9147143Y-15102428D01*
X9137619Y-15083381D01*
X9128095Y-15045286D01*
X9128095Y-14997667D01*
X9137619Y-14959571D01*
X9147143Y-14940524D01*
X9156667Y-14931000D01*
X9175714Y-14921476D01*
X9328095Y-15102428D02*
X9337619Y-15111952D01*
X9328095Y-15121476D01*
X9318571Y-15111952D01*
X9328095Y-15102428D01*
X9328095Y-15121476D01*
X9518571Y-14921476D02*
X9423333Y-14921476D01*
X9413810Y-15016714D01*
X9423333Y-15007190D01*
X9442381Y-14997667D01*
X9490000Y-14997667D01*
X9509048Y-15007190D01*
X9518571Y-15016714D01*
X9528095Y-15035762D01*
X9528095Y-15083381D01*
X9518571Y-15102428D01*
X9509048Y-15111952D01*
X9490000Y-15121476D01*
X9442381Y-15121476D01*
X9423333Y-15111952D01*
X9413810Y-15102428D01*
X9709048Y-14921476D02*
X9613810Y-14921476D01*
X9604286Y-15016714D01*
X9613810Y-15007190D01*
X9632857Y-14997667D01*
X9680476Y-14997667D01*
X9699524Y-15007190D01*
X9709048Y-15016714D01*
X9718571Y-15035762D01*
X9718571Y-15083381D01*
X9709048Y-15102428D01*
X9699524Y-15111952D01*
X9680476Y-15121476D01*
X9632857Y-15121476D01*
X9613810Y-15111952D01*
X9604286Y-15102428D01*
X9842381Y-14921476D02*
X9861429Y-14921476D01*
X9880476Y-14931000D01*
X9890000Y-14940524D01*
X9899524Y-14959571D01*
X9909048Y-14997667D01*
X9909048Y-15045286D01*
X9899524Y-15083381D01*
X9890000Y-15102428D01*
X9880476Y-15111952D01*
X9861429Y-15121476D01*
X9842381Y-15121476D01*
X9823333Y-15111952D01*
X9813810Y-15102428D01*
X9804286Y-15083381D01*
X9794762Y-15045286D01*
X9794762Y-14997667D01*
X9804286Y-14959571D01*
X9813810Y-14940524D01*
X9823333Y-14931000D01*
X9842381Y-14921476D01*
X9994762Y-15121476D02*
X9994762Y-14988143D01*
X9994762Y-15007190D02*
X10004286Y-14997667D01*
X10023333Y-14988143D01*
X10051905Y-14988143D01*
X10070952Y-14997667D01*
X10080476Y-15016714D01*
X10080476Y-15121476D01*
X10080476Y-15016714D02*
X10090000Y-14997667D01*
X10109048Y-14988143D01*
X10137619Y-14988143D01*
X10156667Y-14997667D01*
X10166190Y-15016714D01*
X10166190Y-15121476D01*
X10261429Y-15121476D02*
X10261429Y-14988143D01*
X10261429Y-15007190D02*
X10270952Y-14997667D01*
X10290000Y-14988143D01*
X10318571Y-14988143D01*
X10337619Y-14997667D01*
X10347143Y-15016714D01*
X10347143Y-15121476D01*
X10347143Y-15016714D02*
X10356667Y-14997667D01*
X10375714Y-14988143D01*
X10404286Y-14988143D01*
X10423333Y-14997667D01*
X10432857Y-15016714D01*
X10432857Y-15121476D01*
X10823333Y-14911952D02*
X10651905Y-15169095D01*
X11080476Y-14921476D02*
X11099524Y-14921476D01*
X11118571Y-14931000D01*
X11128095Y-14940524D01*
X11137619Y-14959571D01*
X11147143Y-14997667D01*
X11147143Y-15045286D01*
X11137619Y-15083381D01*
X11128095Y-15102428D01*
X11118571Y-15111952D01*
X11099524Y-15121476D01*
X11080476Y-15121476D01*
X11061429Y-15111952D01*
X11051905Y-15102428D01*
X11042381Y-15083381D01*
X11032857Y-15045286D01*
X11032857Y-14997667D01*
X11042381Y-14959571D01*
X11051905Y-14940524D01*
X11061429Y-14931000D01*
X11080476Y-14921476D01*
X11232857Y-15102428D02*
X11242381Y-15111952D01*
X11232857Y-15121476D01*
X11223333Y-15111952D01*
X11232857Y-15102428D01*
X11232857Y-15121476D01*
X11366190Y-14921476D02*
X11385238Y-14921476D01*
X11404286Y-14931000D01*
X11413809Y-14940524D01*
X11423333Y-14959571D01*
X11432857Y-14997667D01*
X11432857Y-15045286D01*
X11423333Y-15083381D01*
X11413809Y-15102428D01*
X11404286Y-15111952D01*
X11385238Y-15121476D01*
X11366190Y-15121476D01*
X11347143Y-15111952D01*
X11337619Y-15102428D01*
X11328095Y-15083381D01*
X11318571Y-15045286D01*
X11318571Y-14997667D01*
X11328095Y-14959571D01*
X11337619Y-14940524D01*
X11347143Y-14931000D01*
X11366190Y-14921476D01*
X11509048Y-14940524D02*
X11518571Y-14931000D01*
X11537619Y-14921476D01*
X11585238Y-14921476D01*
X11604286Y-14931000D01*
X11613809Y-14940524D01*
X11623333Y-14959571D01*
X11623333Y-14978619D01*
X11613809Y-15007190D01*
X11499524Y-15121476D01*
X11623333Y-15121476D01*
X11813809Y-15121476D02*
X11699524Y-15121476D01*
X11756667Y-15121476D02*
X11756667Y-14921476D01*
X11737619Y-14950048D01*
X11718571Y-14969095D01*
X11699524Y-14978619D01*
X11880476Y-14921476D02*
X12013809Y-14921476D01*
X11928095Y-15121476D01*
X12080476Y-14921476D02*
X12080476Y-14959571D01*
X12156667Y-14921476D02*
X12156667Y-14959571D01*
X12451905Y-15197667D02*
X12442381Y-15188143D01*
X12423333Y-15159571D01*
X12413809Y-15140524D01*
X12404286Y-15111952D01*
X12394762Y-15064333D01*
X12394762Y-15026238D01*
X12404286Y-14978619D01*
X12413809Y-14950048D01*
X12423333Y-14931000D01*
X12442381Y-14902428D01*
X12451905Y-14892905D01*
X12566190Y-14921476D02*
X12585238Y-14921476D01*
X12604286Y-14931000D01*
X12613809Y-14940524D01*
X12623333Y-14959571D01*
X12632857Y-14997667D01*
X12632857Y-15045286D01*
X12623333Y-15083381D01*
X12613809Y-15102428D01*
X12604286Y-15111952D01*
X12585238Y-15121476D01*
X12566190Y-15121476D01*
X12547143Y-15111952D01*
X12537619Y-15102428D01*
X12528095Y-15083381D01*
X12518571Y-15045286D01*
X12518571Y-14997667D01*
X12528095Y-14959571D01*
X12537619Y-14940524D01*
X12547143Y-14931000D01*
X12566190Y-14921476D01*
X12870952Y-15121476D02*
X12870952Y-14921476D01*
X12956667Y-15121476D02*
X12956667Y-15016714D01*
X12947143Y-14997667D01*
X12928095Y-14988143D01*
X12899524Y-14988143D01*
X12880476Y-14997667D01*
X12870952Y-15007190D01*
X13080476Y-15121476D02*
X13061428Y-15111952D01*
X13051905Y-15102428D01*
X13042381Y-15083381D01*
X13042381Y-15026238D01*
X13051905Y-15007190D01*
X13061428Y-14997667D01*
X13080476Y-14988143D01*
X13109048Y-14988143D01*
X13128095Y-14997667D01*
X13137619Y-15007190D01*
X13147143Y-15026238D01*
X13147143Y-15083381D01*
X13137619Y-15102428D01*
X13128095Y-15111952D01*
X13109048Y-15121476D01*
X13080476Y-15121476D01*
X13261428Y-15121476D02*
X13242381Y-15111952D01*
X13232857Y-15092905D01*
X13232857Y-14921476D01*
X13413809Y-15111952D02*
X13394762Y-15121476D01*
X13356667Y-15121476D01*
X13337619Y-15111952D01*
X13328095Y-15092905D01*
X13328095Y-15016714D01*
X13337619Y-14997667D01*
X13356667Y-14988143D01*
X13394762Y-14988143D01*
X13413809Y-14997667D01*
X13423333Y-15016714D01*
X13423333Y-15035762D01*
X13328095Y-15054809D01*
X13499524Y-15111952D02*
X13518571Y-15121476D01*
X13556667Y-15121476D01*
X13575714Y-15111952D01*
X13585238Y-15092905D01*
X13585238Y-15083381D01*
X13575714Y-15064333D01*
X13556667Y-15054809D01*
X13528095Y-15054809D01*
X13509048Y-15045286D01*
X13499524Y-15026238D01*
X13499524Y-15016714D01*
X13509048Y-14997667D01*
X13528095Y-14988143D01*
X13556667Y-14988143D01*
X13575714Y-14997667D01*
X13823333Y-15045286D02*
X13975714Y-15045286D01*
X13899524Y-15121476D02*
X13899524Y-14969095D01*
X14213809Y-14940524D02*
X14223333Y-14931000D01*
X14242381Y-14921476D01*
X14290000Y-14921476D01*
X14309048Y-14931000D01*
X14318571Y-14940524D01*
X14328095Y-14959571D01*
X14328095Y-14978619D01*
X14318571Y-15007190D01*
X14204286Y-15121476D01*
X14328095Y-15121476D01*
X14556667Y-15111952D02*
X14575714Y-15121476D01*
X14613809Y-15121476D01*
X14632857Y-15111952D01*
X14642381Y-15092905D01*
X14642381Y-15083381D01*
X14632857Y-15064333D01*
X14613809Y-15054809D01*
X14585238Y-15054809D01*
X14566190Y-15045286D01*
X14556667Y-15026238D01*
X14556667Y-15016714D01*
X14566190Y-14997667D01*
X14585238Y-14988143D01*
X14613809Y-14988143D01*
X14632857Y-14997667D01*
X14756667Y-15121476D02*
X14737619Y-15111952D01*
X14728095Y-15092905D01*
X14728095Y-14921476D01*
X14861428Y-15121476D02*
X14842381Y-15111952D01*
X14832857Y-15102428D01*
X14823333Y-15083381D01*
X14823333Y-15026238D01*
X14832857Y-15007190D01*
X14842381Y-14997667D01*
X14861428Y-14988143D01*
X14890000Y-14988143D01*
X14909048Y-14997667D01*
X14918571Y-15007190D01*
X14928095Y-15026238D01*
X14928095Y-15083381D01*
X14918571Y-15102428D01*
X14909048Y-15111952D01*
X14890000Y-15121476D01*
X14861428Y-15121476D01*
X14985238Y-14988143D02*
X15061428Y-14988143D01*
X15013809Y-14921476D02*
X15013809Y-15092905D01*
X15023333Y-15111952D01*
X15042381Y-15121476D01*
X15061428Y-15121476D01*
X15118571Y-15111952D02*
X15137619Y-15121476D01*
X15175714Y-15121476D01*
X15194762Y-15111952D01*
X15204286Y-15092905D01*
X15204286Y-15083381D01*
X15194762Y-15064333D01*
X15175714Y-15054809D01*
X15147143Y-15054809D01*
X15128095Y-15045286D01*
X15118571Y-15026238D01*
X15118571Y-15016714D01*
X15128095Y-14997667D01*
X15147143Y-14988143D01*
X15175714Y-14988143D01*
X15194762Y-14997667D01*
X15270952Y-15197667D02*
X15280476Y-15188143D01*
X15299524Y-15159571D01*
X15309048Y-15140524D01*
X15318571Y-15111952D01*
X15328095Y-15064333D01*
X15328095Y-15026238D01*
X15318571Y-14978619D01*
X15309048Y-14950048D01*
X15299524Y-14931000D01*
X15280476Y-14902428D01*
X15270952Y-14892905D01*
D16*
X8835000Y-15340000D02*
X8880000Y-15295000D01*
X8835000Y-15250000D01*
X8790000Y-15295000D01*
X8835000Y-15340000D01*
D11*
X9175714Y-15185476D02*
X9194762Y-15185476D01*
X9213810Y-15195000D01*
X9223333Y-15204524D01*
X9232857Y-15223571D01*
X9242381Y-15261667D01*
X9242381Y-15309286D01*
X9232857Y-15347381D01*
X9223333Y-15366428D01*
X9213810Y-15375952D01*
X9194762Y-15385476D01*
X9175714Y-15385476D01*
X9156667Y-15375952D01*
X9147143Y-15366428D01*
X9137619Y-15347381D01*
X9128095Y-15309286D01*
X9128095Y-15261667D01*
X9137619Y-15223571D01*
X9147143Y-15204524D01*
X9156667Y-15195000D01*
X9175714Y-15185476D01*
X9328095Y-15366428D02*
X9337619Y-15375952D01*
X9328095Y-15385476D01*
X9318571Y-15375952D01*
X9328095Y-15366428D01*
X9328095Y-15385476D01*
X9432857Y-15385476D02*
X9470952Y-15385476D01*
X9490000Y-15375952D01*
X9499524Y-15366428D01*
X9518571Y-15337857D01*
X9528095Y-15299762D01*
X9528095Y-15223571D01*
X9518571Y-15204524D01*
X9509048Y-15195000D01*
X9490000Y-15185476D01*
X9451905Y-15185476D01*
X9432857Y-15195000D01*
X9423333Y-15204524D01*
X9413810Y-15223571D01*
X9413810Y-15271190D01*
X9423333Y-15290238D01*
X9432857Y-15299762D01*
X9451905Y-15309286D01*
X9490000Y-15309286D01*
X9509048Y-15299762D01*
X9518571Y-15290238D01*
X9528095Y-15271190D01*
X9651905Y-15185476D02*
X9670952Y-15185476D01*
X9690000Y-15195000D01*
X9699524Y-15204524D01*
X9709048Y-15223571D01*
X9718571Y-15261667D01*
X9718571Y-15309286D01*
X9709048Y-15347381D01*
X9699524Y-15366428D01*
X9690000Y-15375952D01*
X9670952Y-15385476D01*
X9651905Y-15385476D01*
X9632857Y-15375952D01*
X9623333Y-15366428D01*
X9613810Y-15347381D01*
X9604286Y-15309286D01*
X9604286Y-15261667D01*
X9613810Y-15223571D01*
X9623333Y-15204524D01*
X9632857Y-15195000D01*
X9651905Y-15185476D01*
X9842381Y-15185476D02*
X9861429Y-15185476D01*
X9880476Y-15195000D01*
X9890000Y-15204524D01*
X9899524Y-15223571D01*
X9909048Y-15261667D01*
X9909048Y-15309286D01*
X9899524Y-15347381D01*
X9890000Y-15366428D01*
X9880476Y-15375952D01*
X9861429Y-15385476D01*
X9842381Y-15385476D01*
X9823333Y-15375952D01*
X9813810Y-15366428D01*
X9804286Y-15347381D01*
X9794762Y-15309286D01*
X9794762Y-15261667D01*
X9804286Y-15223571D01*
X9813810Y-15204524D01*
X9823333Y-15195000D01*
X9842381Y-15185476D01*
X9994762Y-15385476D02*
X9994762Y-15252143D01*
X9994762Y-15271190D02*
X10004286Y-15261667D01*
X10023333Y-15252143D01*
X10051905Y-15252143D01*
X10070952Y-15261667D01*
X10080476Y-15280714D01*
X10080476Y-15385476D01*
X10080476Y-15280714D02*
X10090000Y-15261667D01*
X10109048Y-15252143D01*
X10137619Y-15252143D01*
X10156667Y-15261667D01*
X10166190Y-15280714D01*
X10166190Y-15385476D01*
X10261429Y-15385476D02*
X10261429Y-15252143D01*
X10261429Y-15271190D02*
X10270952Y-15261667D01*
X10290000Y-15252143D01*
X10318571Y-15252143D01*
X10337619Y-15261667D01*
X10347143Y-15280714D01*
X10347143Y-15385476D01*
X10347143Y-15280714D02*
X10356667Y-15261667D01*
X10375714Y-15252143D01*
X10404286Y-15252143D01*
X10423333Y-15261667D01*
X10432857Y-15280714D01*
X10432857Y-15385476D01*
X10823333Y-15175952D02*
X10651905Y-15433095D01*
X11080476Y-15185476D02*
X11099524Y-15185476D01*
X11118571Y-15195000D01*
X11128095Y-15204524D01*
X11137619Y-15223571D01*
X11147143Y-15261667D01*
X11147143Y-15309286D01*
X11137619Y-15347381D01*
X11128095Y-15366428D01*
X11118571Y-15375952D01*
X11099524Y-15385476D01*
X11080476Y-15385476D01*
X11061429Y-15375952D01*
X11051905Y-15366428D01*
X11042381Y-15347381D01*
X11032857Y-15309286D01*
X11032857Y-15261667D01*
X11042381Y-15223571D01*
X11051905Y-15204524D01*
X11061429Y-15195000D01*
X11080476Y-15185476D01*
X11232857Y-15366428D02*
X11242381Y-15375952D01*
X11232857Y-15385476D01*
X11223333Y-15375952D01*
X11232857Y-15366428D01*
X11232857Y-15385476D01*
X11366190Y-15185476D02*
X11385238Y-15185476D01*
X11404286Y-15195000D01*
X11413809Y-15204524D01*
X11423333Y-15223571D01*
X11432857Y-15261667D01*
X11432857Y-15309286D01*
X11423333Y-15347381D01*
X11413809Y-15366428D01*
X11404286Y-15375952D01*
X11385238Y-15385476D01*
X11366190Y-15385476D01*
X11347143Y-15375952D01*
X11337619Y-15366428D01*
X11328095Y-15347381D01*
X11318571Y-15309286D01*
X11318571Y-15261667D01*
X11328095Y-15223571D01*
X11337619Y-15204524D01*
X11347143Y-15195000D01*
X11366190Y-15185476D01*
X11499524Y-15185476D02*
X11623333Y-15185476D01*
X11556667Y-15261667D01*
X11585238Y-15261667D01*
X11604286Y-15271190D01*
X11613809Y-15280714D01*
X11623333Y-15299762D01*
X11623333Y-15347381D01*
X11613809Y-15366428D01*
X11604286Y-15375952D01*
X11585238Y-15385476D01*
X11528095Y-15385476D01*
X11509048Y-15375952D01*
X11499524Y-15366428D01*
X11804286Y-15185476D02*
X11709048Y-15185476D01*
X11699524Y-15280714D01*
X11709048Y-15271190D01*
X11728095Y-15261667D01*
X11775714Y-15261667D01*
X11794762Y-15271190D01*
X11804286Y-15280714D01*
X11813809Y-15299762D01*
X11813809Y-15347381D01*
X11804286Y-15366428D01*
X11794762Y-15375952D01*
X11775714Y-15385476D01*
X11728095Y-15385476D01*
X11709048Y-15375952D01*
X11699524Y-15366428D01*
X11985238Y-15252143D02*
X11985238Y-15385476D01*
X11937619Y-15175952D02*
X11890000Y-15318809D01*
X12013809Y-15318809D01*
X12080476Y-15185476D02*
X12080476Y-15223571D01*
X12156667Y-15185476D02*
X12156667Y-15223571D01*
X12451905Y-15461667D02*
X12442381Y-15452143D01*
X12423333Y-15423571D01*
X12413809Y-15404524D01*
X12404286Y-15375952D01*
X12394762Y-15328333D01*
X12394762Y-15290238D01*
X12404286Y-15242619D01*
X12413809Y-15214048D01*
X12423333Y-15195000D01*
X12442381Y-15166428D01*
X12451905Y-15156905D01*
X12556667Y-15271190D02*
X12537619Y-15261667D01*
X12528095Y-15252143D01*
X12518571Y-15233095D01*
X12518571Y-15223571D01*
X12528095Y-15204524D01*
X12537619Y-15195000D01*
X12556667Y-15185476D01*
X12594762Y-15185476D01*
X12613809Y-15195000D01*
X12623333Y-15204524D01*
X12632857Y-15223571D01*
X12632857Y-15233095D01*
X12623333Y-15252143D01*
X12613809Y-15261667D01*
X12594762Y-15271190D01*
X12556667Y-15271190D01*
X12537619Y-15280714D01*
X12528095Y-15290238D01*
X12518571Y-15309286D01*
X12518571Y-15347381D01*
X12528095Y-15366428D01*
X12537619Y-15375952D01*
X12556667Y-15385476D01*
X12594762Y-15385476D01*
X12613809Y-15375952D01*
X12623333Y-15366428D01*
X12632857Y-15347381D01*
X12632857Y-15309286D01*
X12623333Y-15290238D01*
X12613809Y-15280714D01*
X12594762Y-15271190D01*
X12870952Y-15385476D02*
X12870952Y-15185476D01*
X12956667Y-15385476D02*
X12956667Y-15280714D01*
X12947143Y-15261667D01*
X12928095Y-15252143D01*
X12899524Y-15252143D01*
X12880476Y-15261667D01*
X12870952Y-15271190D01*
X13080476Y-15385476D02*
X13061428Y-15375952D01*
X13051905Y-15366428D01*
X13042381Y-15347381D01*
X13042381Y-15290238D01*
X13051905Y-15271190D01*
X13061428Y-15261667D01*
X13080476Y-15252143D01*
X13109048Y-15252143D01*
X13128095Y-15261667D01*
X13137619Y-15271190D01*
X13147143Y-15290238D01*
X13147143Y-15347381D01*
X13137619Y-15366428D01*
X13128095Y-15375952D01*
X13109048Y-15385476D01*
X13080476Y-15385476D01*
X13261428Y-15385476D02*
X13242381Y-15375952D01*
X13232857Y-15356905D01*
X13232857Y-15185476D01*
X13413809Y-15375952D02*
X13394762Y-15385476D01*
X13356667Y-15385476D01*
X13337619Y-15375952D01*
X13328095Y-15356905D01*
X13328095Y-15280714D01*
X13337619Y-15261667D01*
X13356667Y-15252143D01*
X13394762Y-15252143D01*
X13413809Y-15261667D01*
X13423333Y-15280714D01*
X13423333Y-15299762D01*
X13328095Y-15318809D01*
X13499524Y-15375952D02*
X13518571Y-15385476D01*
X13556667Y-15385476D01*
X13575714Y-15375952D01*
X13585238Y-15356905D01*
X13585238Y-15347381D01*
X13575714Y-15328333D01*
X13556667Y-15318809D01*
X13528095Y-15318809D01*
X13509048Y-15309286D01*
X13499524Y-15290238D01*
X13499524Y-15280714D01*
X13509048Y-15261667D01*
X13528095Y-15252143D01*
X13556667Y-15252143D01*
X13575714Y-15261667D01*
X13651905Y-15461667D02*
X13661428Y-15452143D01*
X13680476Y-15423571D01*
X13690000Y-15404524D01*
X13699524Y-15375952D01*
X13709048Y-15328333D01*
X13709048Y-15290238D01*
X13699524Y-15242619D01*
X13690000Y-15214048D01*
X13680476Y-15195000D01*
X13661428Y-15166428D01*
X13651905Y-15156905D01*
D17*
X8780000Y-15509000D02*
X8880000Y-15609000D01*
X8880000Y-15509000D02*
X8780000Y-15609000D01*
X8880000Y-15559000D02*
G75*
G03*
X8880000Y-15559000I-50000J0D01*
G01*
D11*
X9242381Y-15649476D02*
X9128095Y-15649476D01*
X9185238Y-15649476D02*
X9185238Y-15449476D01*
X9166190Y-15478048D01*
X9147143Y-15497095D01*
X9128095Y-15506619D01*
X9328095Y-15630428D02*
X9337619Y-15639952D01*
X9328095Y-15649476D01*
X9318571Y-15639952D01*
X9328095Y-15630428D01*
X9328095Y-15649476D01*
X9461429Y-15449476D02*
X9480476Y-15449476D01*
X9499524Y-15459000D01*
X9509048Y-15468524D01*
X9518571Y-15487571D01*
X9528095Y-15525667D01*
X9528095Y-15573286D01*
X9518571Y-15611381D01*
X9509048Y-15630428D01*
X9499524Y-15639952D01*
X9480476Y-15649476D01*
X9461429Y-15649476D01*
X9442381Y-15639952D01*
X9432857Y-15630428D01*
X9423333Y-15611381D01*
X9413810Y-15573286D01*
X9413810Y-15525667D01*
X9423333Y-15487571D01*
X9432857Y-15468524D01*
X9442381Y-15459000D01*
X9461429Y-15449476D01*
X9651905Y-15449476D02*
X9670952Y-15449476D01*
X9690000Y-15459000D01*
X9699524Y-15468524D01*
X9709048Y-15487571D01*
X9718571Y-15525667D01*
X9718571Y-15573286D01*
X9709048Y-15611381D01*
X9699524Y-15630428D01*
X9690000Y-15639952D01*
X9670952Y-15649476D01*
X9651905Y-15649476D01*
X9632857Y-15639952D01*
X9623333Y-15630428D01*
X9613810Y-15611381D01*
X9604286Y-15573286D01*
X9604286Y-15525667D01*
X9613810Y-15487571D01*
X9623333Y-15468524D01*
X9632857Y-15459000D01*
X9651905Y-15449476D01*
X9842381Y-15449476D02*
X9861429Y-15449476D01*
X9880476Y-15459000D01*
X9890000Y-15468524D01*
X9899524Y-15487571D01*
X9909048Y-15525667D01*
X9909048Y-15573286D01*
X9899524Y-15611381D01*
X9890000Y-15630428D01*
X9880476Y-15639952D01*
X9861429Y-15649476D01*
X9842381Y-15649476D01*
X9823333Y-15639952D01*
X9813810Y-15630428D01*
X9804286Y-15611381D01*
X9794762Y-15573286D01*
X9794762Y-15525667D01*
X9804286Y-15487571D01*
X9813810Y-15468524D01*
X9823333Y-15459000D01*
X9842381Y-15449476D01*
X9994762Y-15649476D02*
X9994762Y-15516143D01*
X9994762Y-15535190D02*
X10004286Y-15525667D01*
X10023333Y-15516143D01*
X10051905Y-15516143D01*
X10070952Y-15525667D01*
X10080476Y-15544714D01*
X10080476Y-15649476D01*
X10080476Y-15544714D02*
X10090000Y-15525667D01*
X10109048Y-15516143D01*
X10137619Y-15516143D01*
X10156667Y-15525667D01*
X10166190Y-15544714D01*
X10166190Y-15649476D01*
X10261429Y-15649476D02*
X10261429Y-15516143D01*
X10261429Y-15535190D02*
X10270952Y-15525667D01*
X10290000Y-15516143D01*
X10318571Y-15516143D01*
X10337619Y-15525667D01*
X10347143Y-15544714D01*
X10347143Y-15649476D01*
X10347143Y-15544714D02*
X10356667Y-15525667D01*
X10375714Y-15516143D01*
X10404286Y-15516143D01*
X10423333Y-15525667D01*
X10432857Y-15544714D01*
X10432857Y-15649476D01*
X10823333Y-15439952D02*
X10651905Y-15697095D01*
X11080476Y-15449476D02*
X11099524Y-15449476D01*
X11118571Y-15459000D01*
X11128095Y-15468524D01*
X11137619Y-15487571D01*
X11147143Y-15525667D01*
X11147143Y-15573286D01*
X11137619Y-15611381D01*
X11128095Y-15630428D01*
X11118571Y-15639952D01*
X11099524Y-15649476D01*
X11080476Y-15649476D01*
X11061429Y-15639952D01*
X11051905Y-15630428D01*
X11042381Y-15611381D01*
X11032857Y-15573286D01*
X11032857Y-15525667D01*
X11042381Y-15487571D01*
X11051905Y-15468524D01*
X11061429Y-15459000D01*
X11080476Y-15449476D01*
X11232857Y-15630428D02*
X11242381Y-15639952D01*
X11232857Y-15649476D01*
X11223333Y-15639952D01*
X11232857Y-15630428D01*
X11232857Y-15649476D01*
X11366190Y-15449476D02*
X11385238Y-15449476D01*
X11404286Y-15459000D01*
X11413809Y-15468524D01*
X11423333Y-15487571D01*
X11432857Y-15525667D01*
X11432857Y-15573286D01*
X11423333Y-15611381D01*
X11413809Y-15630428D01*
X11404286Y-15639952D01*
X11385238Y-15649476D01*
X11366190Y-15649476D01*
X11347143Y-15639952D01*
X11337619Y-15630428D01*
X11328095Y-15611381D01*
X11318571Y-15573286D01*
X11318571Y-15525667D01*
X11328095Y-15487571D01*
X11337619Y-15468524D01*
X11347143Y-15459000D01*
X11366190Y-15449476D01*
X11499524Y-15449476D02*
X11623333Y-15449476D01*
X11556667Y-15525667D01*
X11585238Y-15525667D01*
X11604286Y-15535190D01*
X11613809Y-15544714D01*
X11623333Y-15563762D01*
X11623333Y-15611381D01*
X11613809Y-15630428D01*
X11604286Y-15639952D01*
X11585238Y-15649476D01*
X11528095Y-15649476D01*
X11509048Y-15639952D01*
X11499524Y-15630428D01*
X11718571Y-15649476D02*
X11756667Y-15649476D01*
X11775714Y-15639952D01*
X11785238Y-15630428D01*
X11804286Y-15601857D01*
X11813809Y-15563762D01*
X11813809Y-15487571D01*
X11804286Y-15468524D01*
X11794762Y-15459000D01*
X11775714Y-15449476D01*
X11737619Y-15449476D01*
X11718571Y-15459000D01*
X11709048Y-15468524D01*
X11699524Y-15487571D01*
X11699524Y-15535190D01*
X11709048Y-15554238D01*
X11718571Y-15563762D01*
X11737619Y-15573286D01*
X11775714Y-15573286D01*
X11794762Y-15563762D01*
X11804286Y-15554238D01*
X11813809Y-15535190D01*
X11985238Y-15516143D02*
X11985238Y-15649476D01*
X11937619Y-15439952D02*
X11890000Y-15582809D01*
X12013809Y-15582809D01*
X12080476Y-15449476D02*
X12080476Y-15487571D01*
X12156667Y-15449476D02*
X12156667Y-15487571D01*
X12451905Y-15725667D02*
X12442381Y-15716143D01*
X12423333Y-15687571D01*
X12413809Y-15668524D01*
X12404286Y-15639952D01*
X12394762Y-15592333D01*
X12394762Y-15554238D01*
X12404286Y-15506619D01*
X12413809Y-15478048D01*
X12423333Y-15459000D01*
X12442381Y-15430428D01*
X12451905Y-15420905D01*
X12613809Y-15516143D02*
X12613809Y-15649476D01*
X12566190Y-15439952D02*
X12518571Y-15582809D01*
X12642381Y-15582809D01*
X12870952Y-15649476D02*
X12870952Y-15449476D01*
X12956667Y-15649476D02*
X12956667Y-15544714D01*
X12947143Y-15525667D01*
X12928095Y-15516143D01*
X12899524Y-15516143D01*
X12880476Y-15525667D01*
X12870952Y-15535190D01*
X13080476Y-15649476D02*
X13061428Y-15639952D01*
X13051905Y-15630428D01*
X13042381Y-15611381D01*
X13042381Y-15554238D01*
X13051905Y-15535190D01*
X13061428Y-15525667D01*
X13080476Y-15516143D01*
X13109048Y-15516143D01*
X13128095Y-15525667D01*
X13137619Y-15535190D01*
X13147143Y-15554238D01*
X13147143Y-15611381D01*
X13137619Y-15630428D01*
X13128095Y-15639952D01*
X13109048Y-15649476D01*
X13080476Y-15649476D01*
X13261428Y-15649476D02*
X13242381Y-15639952D01*
X13232857Y-15620905D01*
X13232857Y-15449476D01*
X13413809Y-15639952D02*
X13394762Y-15649476D01*
X13356667Y-15649476D01*
X13337619Y-15639952D01*
X13328095Y-15620905D01*
X13328095Y-15544714D01*
X13337619Y-15525667D01*
X13356667Y-15516143D01*
X13394762Y-15516143D01*
X13413809Y-15525667D01*
X13423333Y-15544714D01*
X13423333Y-15563762D01*
X13328095Y-15582809D01*
X13499524Y-15639952D02*
X13518571Y-15649476D01*
X13556667Y-15649476D01*
X13575714Y-15639952D01*
X13585238Y-15620905D01*
X13585238Y-15611381D01*
X13575714Y-15592333D01*
X13556667Y-15582809D01*
X13528095Y-15582809D01*
X13509048Y-15573286D01*
X13499524Y-15554238D01*
X13499524Y-15544714D01*
X13509048Y-15525667D01*
X13528095Y-15516143D01*
X13556667Y-15516143D01*
X13575714Y-15525667D01*
X13651905Y-15725667D02*
X13661428Y-15716143D01*
X13680476Y-15687571D01*
X13690000Y-15668524D01*
X13699524Y-15639952D01*
X13709048Y-15592333D01*
X13709048Y-15554238D01*
X13699524Y-15506619D01*
X13690000Y-15478048D01*
X13680476Y-15459000D01*
X13661428Y-15430428D01*
X13651905Y-15420905D01*
D18*
X8776000Y-15771000D02*
X8880000Y-15875000D01*
X8880000Y-15771000D02*
X8776000Y-15875000D01*
X8828000Y-15771000D02*
X8828000Y-15875000D01*
X8776000Y-15823000D02*
X8880000Y-15823000D01*
D11*
X9242381Y-15913476D02*
X9128095Y-15913476D01*
X9185238Y-15913476D02*
X9185238Y-15713476D01*
X9166190Y-15742048D01*
X9147143Y-15761095D01*
X9128095Y-15770619D01*
X9328095Y-15894428D02*
X9337619Y-15903952D01*
X9328095Y-15913476D01*
X9318571Y-15903952D01*
X9328095Y-15894428D01*
X9328095Y-15913476D01*
X9461429Y-15713476D02*
X9480476Y-15713476D01*
X9499524Y-15723000D01*
X9509048Y-15732524D01*
X9518571Y-15751571D01*
X9528095Y-15789667D01*
X9528095Y-15837286D01*
X9518571Y-15875381D01*
X9509048Y-15894428D01*
X9499524Y-15903952D01*
X9480476Y-15913476D01*
X9461429Y-15913476D01*
X9442381Y-15903952D01*
X9432857Y-15894428D01*
X9423333Y-15875381D01*
X9413810Y-15837286D01*
X9413810Y-15789667D01*
X9423333Y-15751571D01*
X9432857Y-15732524D01*
X9442381Y-15723000D01*
X9461429Y-15713476D01*
X9699524Y-15780143D02*
X9699524Y-15913476D01*
X9651905Y-15703952D02*
X9604286Y-15846809D01*
X9728095Y-15846809D01*
X9842381Y-15713476D02*
X9861429Y-15713476D01*
X9880476Y-15723000D01*
X9890000Y-15732524D01*
X9899524Y-15751571D01*
X9909048Y-15789667D01*
X9909048Y-15837286D01*
X9899524Y-15875381D01*
X9890000Y-15894428D01*
X9880476Y-15903952D01*
X9861429Y-15913476D01*
X9842381Y-15913476D01*
X9823333Y-15903952D01*
X9813810Y-15894428D01*
X9804286Y-15875381D01*
X9794762Y-15837286D01*
X9794762Y-15789667D01*
X9804286Y-15751571D01*
X9813810Y-15732524D01*
X9823333Y-15723000D01*
X9842381Y-15713476D01*
X9994762Y-15913476D02*
X9994762Y-15780143D01*
X9994762Y-15799190D02*
X10004286Y-15789667D01*
X10023333Y-15780143D01*
X10051905Y-15780143D01*
X10070952Y-15789667D01*
X10080476Y-15808714D01*
X10080476Y-15913476D01*
X10080476Y-15808714D02*
X10090000Y-15789667D01*
X10109048Y-15780143D01*
X10137619Y-15780143D01*
X10156667Y-15789667D01*
X10166190Y-15808714D01*
X10166190Y-15913476D01*
X10261429Y-15913476D02*
X10261429Y-15780143D01*
X10261429Y-15799190D02*
X10270952Y-15789667D01*
X10290000Y-15780143D01*
X10318571Y-15780143D01*
X10337619Y-15789667D01*
X10347143Y-15808714D01*
X10347143Y-15913476D01*
X10347143Y-15808714D02*
X10356667Y-15789667D01*
X10375714Y-15780143D01*
X10404286Y-15780143D01*
X10423333Y-15789667D01*
X10432857Y-15808714D01*
X10432857Y-15913476D01*
X10823333Y-15703952D02*
X10651905Y-15961095D01*
X11080476Y-15713476D02*
X11099524Y-15713476D01*
X11118571Y-15723000D01*
X11128095Y-15732524D01*
X11137619Y-15751571D01*
X11147143Y-15789667D01*
X11147143Y-15837286D01*
X11137619Y-15875381D01*
X11128095Y-15894428D01*
X11118571Y-15903952D01*
X11099524Y-15913476D01*
X11080476Y-15913476D01*
X11061429Y-15903952D01*
X11051905Y-15894428D01*
X11042381Y-15875381D01*
X11032857Y-15837286D01*
X11032857Y-15789667D01*
X11042381Y-15751571D01*
X11051905Y-15732524D01*
X11061429Y-15723000D01*
X11080476Y-15713476D01*
X11232857Y-15894428D02*
X11242381Y-15903952D01*
X11232857Y-15913476D01*
X11223333Y-15903952D01*
X11232857Y-15894428D01*
X11232857Y-15913476D01*
X11366190Y-15713476D02*
X11385238Y-15713476D01*
X11404286Y-15723000D01*
X11413809Y-15732524D01*
X11423333Y-15751571D01*
X11432857Y-15789667D01*
X11432857Y-15837286D01*
X11423333Y-15875381D01*
X11413809Y-15894428D01*
X11404286Y-15903952D01*
X11385238Y-15913476D01*
X11366190Y-15913476D01*
X11347143Y-15903952D01*
X11337619Y-15894428D01*
X11328095Y-15875381D01*
X11318571Y-15837286D01*
X11318571Y-15789667D01*
X11328095Y-15751571D01*
X11337619Y-15732524D01*
X11347143Y-15723000D01*
X11366190Y-15713476D01*
X11604286Y-15780143D02*
X11604286Y-15913476D01*
X11556667Y-15703952D02*
X11509048Y-15846809D01*
X11632857Y-15846809D01*
X11747143Y-15713476D02*
X11766190Y-15713476D01*
X11785238Y-15723000D01*
X11794762Y-15732524D01*
X11804286Y-15751571D01*
X11813809Y-15789667D01*
X11813809Y-15837286D01*
X11804286Y-15875381D01*
X11794762Y-15894428D01*
X11785238Y-15903952D01*
X11766190Y-15913476D01*
X11747143Y-15913476D01*
X11728095Y-15903952D01*
X11718571Y-15894428D01*
X11709048Y-15875381D01*
X11699524Y-15837286D01*
X11699524Y-15789667D01*
X11709048Y-15751571D01*
X11718571Y-15732524D01*
X11728095Y-15723000D01*
X11747143Y-15713476D01*
X11909048Y-15913476D02*
X11947143Y-15913476D01*
X11966190Y-15903952D01*
X11975714Y-15894428D01*
X11994762Y-15865857D01*
X12004286Y-15827762D01*
X12004286Y-15751571D01*
X11994762Y-15732524D01*
X11985238Y-15723000D01*
X11966190Y-15713476D01*
X11928095Y-15713476D01*
X11909048Y-15723000D01*
X11899524Y-15732524D01*
X11890000Y-15751571D01*
X11890000Y-15799190D01*
X11899524Y-15818238D01*
X11909048Y-15827762D01*
X11928095Y-15837286D01*
X11966190Y-15837286D01*
X11985238Y-15827762D01*
X11994762Y-15818238D01*
X12004286Y-15799190D01*
X12080476Y-15713476D02*
X12080476Y-15751571D01*
X12156667Y-15713476D02*
X12156667Y-15751571D01*
X12451905Y-15989667D02*
X12442381Y-15980143D01*
X12423333Y-15951571D01*
X12413809Y-15932524D01*
X12404286Y-15903952D01*
X12394762Y-15856333D01*
X12394762Y-15818238D01*
X12404286Y-15770619D01*
X12413809Y-15742048D01*
X12423333Y-15723000D01*
X12442381Y-15694428D01*
X12451905Y-15684905D01*
X12613809Y-15780143D02*
X12613809Y-15913476D01*
X12566190Y-15703952D02*
X12518571Y-15846809D01*
X12642381Y-15846809D01*
X12870952Y-15913476D02*
X12870952Y-15713476D01*
X12956667Y-15913476D02*
X12956667Y-15808714D01*
X12947143Y-15789667D01*
X12928095Y-15780143D01*
X12899524Y-15780143D01*
X12880476Y-15789667D01*
X12870952Y-15799190D01*
X13080476Y-15913476D02*
X13061428Y-15903952D01*
X13051905Y-15894428D01*
X13042381Y-15875381D01*
X13042381Y-15818238D01*
X13051905Y-15799190D01*
X13061428Y-15789667D01*
X13080476Y-15780143D01*
X13109048Y-15780143D01*
X13128095Y-15789667D01*
X13137619Y-15799190D01*
X13147143Y-15818238D01*
X13147143Y-15875381D01*
X13137619Y-15894428D01*
X13128095Y-15903952D01*
X13109048Y-15913476D01*
X13080476Y-15913476D01*
X13261428Y-15913476D02*
X13242381Y-15903952D01*
X13232857Y-15884905D01*
X13232857Y-15713476D01*
X13413809Y-15903952D02*
X13394762Y-15913476D01*
X13356667Y-15913476D01*
X13337619Y-15903952D01*
X13328095Y-15884905D01*
X13328095Y-15808714D01*
X13337619Y-15789667D01*
X13356667Y-15780143D01*
X13394762Y-15780143D01*
X13413809Y-15789667D01*
X13423333Y-15808714D01*
X13423333Y-15827762D01*
X13328095Y-15846809D01*
X13499524Y-15903952D02*
X13518571Y-15913476D01*
X13556667Y-15913476D01*
X13575714Y-15903952D01*
X13585238Y-15884905D01*
X13585238Y-15875381D01*
X13575714Y-15856333D01*
X13556667Y-15846809D01*
X13528095Y-15846809D01*
X13509048Y-15837286D01*
X13499524Y-15818238D01*
X13499524Y-15808714D01*
X13509048Y-15789667D01*
X13528095Y-15780143D01*
X13556667Y-15780143D01*
X13575714Y-15789667D01*
X13651905Y-15989667D02*
X13661428Y-15980143D01*
X13680476Y-15951571D01*
X13690000Y-15932524D01*
X13699524Y-15903952D01*
X13709048Y-15856333D01*
X13709048Y-15818238D01*
X13699524Y-15770619D01*
X13690000Y-15742048D01*
X13680476Y-15723000D01*
X13661428Y-15694428D01*
X13651905Y-15684905D01*
D19*
X8750000Y-16022000D02*
X8880000Y-16152000D01*
X8880000Y-16022000D02*
X8750000Y-16152000D01*
X8860962Y-16132962D02*
X8860962Y-16041038D01*
X8769038Y-16041038D01*
X8769038Y-16132962D01*
X8860962Y-16132962D01*
D11*
X9242381Y-16177476D02*
X9128095Y-16177476D01*
X9185238Y-16177476D02*
X9185238Y-15977476D01*
X9166190Y-16006048D01*
X9147143Y-16025095D01*
X9128095Y-16034619D01*
X9328095Y-16158428D02*
X9337619Y-16167952D01*
X9328095Y-16177476D01*
X9318571Y-16167952D01*
X9328095Y-16158428D01*
X9328095Y-16177476D01*
X9404286Y-15977476D02*
X9528095Y-15977476D01*
X9461429Y-16053667D01*
X9490000Y-16053667D01*
X9509048Y-16063190D01*
X9518571Y-16072714D01*
X9528095Y-16091762D01*
X9528095Y-16139381D01*
X9518571Y-16158428D01*
X9509048Y-16167952D01*
X9490000Y-16177476D01*
X9432857Y-16177476D01*
X9413810Y-16167952D01*
X9404286Y-16158428D01*
X9651905Y-15977476D02*
X9670952Y-15977476D01*
X9690000Y-15987000D01*
X9699524Y-15996524D01*
X9709048Y-16015571D01*
X9718571Y-16053667D01*
X9718571Y-16101286D01*
X9709048Y-16139381D01*
X9699524Y-16158428D01*
X9690000Y-16167952D01*
X9670952Y-16177476D01*
X9651905Y-16177476D01*
X9632857Y-16167952D01*
X9623333Y-16158428D01*
X9613810Y-16139381D01*
X9604286Y-16101286D01*
X9604286Y-16053667D01*
X9613810Y-16015571D01*
X9623333Y-15996524D01*
X9632857Y-15987000D01*
X9651905Y-15977476D01*
X9842381Y-15977476D02*
X9861429Y-15977476D01*
X9880476Y-15987000D01*
X9890000Y-15996524D01*
X9899524Y-16015571D01*
X9909048Y-16053667D01*
X9909048Y-16101286D01*
X9899524Y-16139381D01*
X9890000Y-16158428D01*
X9880476Y-16167952D01*
X9861429Y-16177476D01*
X9842381Y-16177476D01*
X9823333Y-16167952D01*
X9813810Y-16158428D01*
X9804286Y-16139381D01*
X9794762Y-16101286D01*
X9794762Y-16053667D01*
X9804286Y-16015571D01*
X9813810Y-15996524D01*
X9823333Y-15987000D01*
X9842381Y-15977476D01*
X9994762Y-16177476D02*
X9994762Y-16044143D01*
X9994762Y-16063190D02*
X10004286Y-16053667D01*
X10023333Y-16044143D01*
X10051905Y-16044143D01*
X10070952Y-16053667D01*
X10080476Y-16072714D01*
X10080476Y-16177476D01*
X10080476Y-16072714D02*
X10090000Y-16053667D01*
X10109048Y-16044143D01*
X10137619Y-16044143D01*
X10156667Y-16053667D01*
X10166190Y-16072714D01*
X10166190Y-16177476D01*
X10261429Y-16177476D02*
X10261429Y-16044143D01*
X10261429Y-16063190D02*
X10270952Y-16053667D01*
X10290000Y-16044143D01*
X10318571Y-16044143D01*
X10337619Y-16053667D01*
X10347143Y-16072714D01*
X10347143Y-16177476D01*
X10347143Y-16072714D02*
X10356667Y-16053667D01*
X10375714Y-16044143D01*
X10404286Y-16044143D01*
X10423333Y-16053667D01*
X10432857Y-16072714D01*
X10432857Y-16177476D01*
X10823333Y-15967952D02*
X10651905Y-16225095D01*
X11080476Y-15977476D02*
X11099524Y-15977476D01*
X11118571Y-15987000D01*
X11128095Y-15996524D01*
X11137619Y-16015571D01*
X11147143Y-16053667D01*
X11147143Y-16101286D01*
X11137619Y-16139381D01*
X11128095Y-16158428D01*
X11118571Y-16167952D01*
X11099524Y-16177476D01*
X11080476Y-16177476D01*
X11061429Y-16167952D01*
X11051905Y-16158428D01*
X11042381Y-16139381D01*
X11032857Y-16101286D01*
X11032857Y-16053667D01*
X11042381Y-16015571D01*
X11051905Y-15996524D01*
X11061429Y-15987000D01*
X11080476Y-15977476D01*
X11232857Y-16158428D02*
X11242381Y-16167952D01*
X11232857Y-16177476D01*
X11223333Y-16167952D01*
X11232857Y-16158428D01*
X11232857Y-16177476D01*
X11366190Y-15977476D02*
X11385238Y-15977476D01*
X11404286Y-15987000D01*
X11413809Y-15996524D01*
X11423333Y-16015571D01*
X11432857Y-16053667D01*
X11432857Y-16101286D01*
X11423333Y-16139381D01*
X11413809Y-16158428D01*
X11404286Y-16167952D01*
X11385238Y-16177476D01*
X11366190Y-16177476D01*
X11347143Y-16167952D01*
X11337619Y-16158428D01*
X11328095Y-16139381D01*
X11318571Y-16101286D01*
X11318571Y-16053667D01*
X11328095Y-16015571D01*
X11337619Y-15996524D01*
X11347143Y-15987000D01*
X11366190Y-15977476D01*
X11613809Y-15977476D02*
X11518571Y-15977476D01*
X11509048Y-16072714D01*
X11518571Y-16063190D01*
X11537619Y-16053667D01*
X11585238Y-16053667D01*
X11604286Y-16063190D01*
X11613809Y-16072714D01*
X11623333Y-16091762D01*
X11623333Y-16139381D01*
X11613809Y-16158428D01*
X11604286Y-16167952D01*
X11585238Y-16177476D01*
X11537619Y-16177476D01*
X11518571Y-16167952D01*
X11509048Y-16158428D01*
X11813809Y-16177476D02*
X11699524Y-16177476D01*
X11756667Y-16177476D02*
X11756667Y-15977476D01*
X11737619Y-16006048D01*
X11718571Y-16025095D01*
X11699524Y-16034619D01*
X11890000Y-15996524D02*
X11899524Y-15987000D01*
X11918571Y-15977476D01*
X11966190Y-15977476D01*
X11985238Y-15987000D01*
X11994762Y-15996524D01*
X12004286Y-16015571D01*
X12004286Y-16034619D01*
X11994762Y-16063190D01*
X11880476Y-16177476D01*
X12004286Y-16177476D01*
X12080476Y-15977476D02*
X12080476Y-16015571D01*
X12156667Y-15977476D02*
X12156667Y-16015571D01*
X12451905Y-16253667D02*
X12442381Y-16244143D01*
X12423333Y-16215571D01*
X12413809Y-16196524D01*
X12404286Y-16167952D01*
X12394762Y-16120333D01*
X12394762Y-16082238D01*
X12404286Y-16034619D01*
X12413809Y-16006048D01*
X12423333Y-15987000D01*
X12442381Y-15958428D01*
X12451905Y-15948905D01*
X12613809Y-16044143D02*
X12613809Y-16177476D01*
X12566190Y-15967952D02*
X12518571Y-16110809D01*
X12642381Y-16110809D01*
X12870952Y-16177476D02*
X12870952Y-15977476D01*
X12956667Y-16177476D02*
X12956667Y-16072714D01*
X12947143Y-16053667D01*
X12928095Y-16044143D01*
X12899524Y-16044143D01*
X12880476Y-16053667D01*
X12870952Y-16063190D01*
X13080476Y-16177476D02*
X13061428Y-16167952D01*
X13051905Y-16158428D01*
X13042381Y-16139381D01*
X13042381Y-16082238D01*
X13051905Y-16063190D01*
X13061428Y-16053667D01*
X13080476Y-16044143D01*
X13109048Y-16044143D01*
X13128095Y-16053667D01*
X13137619Y-16063190D01*
X13147143Y-16082238D01*
X13147143Y-16139381D01*
X13137619Y-16158428D01*
X13128095Y-16167952D01*
X13109048Y-16177476D01*
X13080476Y-16177476D01*
X13261428Y-16177476D02*
X13242381Y-16167952D01*
X13232857Y-16148905D01*
X13232857Y-15977476D01*
X13413809Y-16167952D02*
X13394762Y-16177476D01*
X13356667Y-16177476D01*
X13337619Y-16167952D01*
X13328095Y-16148905D01*
X13328095Y-16072714D01*
X13337619Y-16053667D01*
X13356667Y-16044143D01*
X13394762Y-16044143D01*
X13413809Y-16053667D01*
X13423333Y-16072714D01*
X13423333Y-16091762D01*
X13328095Y-16110809D01*
X13499524Y-16167952D02*
X13518571Y-16177476D01*
X13556667Y-16177476D01*
X13575714Y-16167952D01*
X13585238Y-16148905D01*
X13585238Y-16139381D01*
X13575714Y-16120333D01*
X13556667Y-16110809D01*
X13528095Y-16110809D01*
X13509048Y-16101286D01*
X13499524Y-16082238D01*
X13499524Y-16072714D01*
X13509048Y-16053667D01*
X13528095Y-16044143D01*
X13556667Y-16044143D01*
X13575714Y-16053667D01*
X13651905Y-16253667D02*
X13661428Y-16244143D01*
X13680476Y-16215571D01*
X13690000Y-16196524D01*
X13699524Y-16167952D01*
X13709048Y-16120333D01*
X13709048Y-16082238D01*
X13699524Y-16034619D01*
X13690000Y-16006048D01*
X13680476Y-15987000D01*
X13661428Y-15958428D01*
X13651905Y-15948905D01*
D20*
X8745000Y-16283500D02*
X8880000Y-16418500D01*
X8880000Y-16283500D02*
X8745000Y-16418500D01*
X8812500Y-16418500D02*
X8880000Y-16351000D01*
X8812500Y-16283500D01*
X8745000Y-16351000D01*
X8812500Y-16418500D01*
D11*
X9242381Y-16441476D02*
X9128095Y-16441476D01*
X9185238Y-16441476D02*
X9185238Y-16241476D01*
X9166190Y-16270048D01*
X9147143Y-16289095D01*
X9128095Y-16298619D01*
X9328095Y-16422428D02*
X9337619Y-16431952D01*
X9328095Y-16441476D01*
X9318571Y-16431952D01*
X9328095Y-16422428D01*
X9328095Y-16441476D01*
X9404286Y-16241476D02*
X9528095Y-16241476D01*
X9461429Y-16317667D01*
X9490000Y-16317667D01*
X9509048Y-16327190D01*
X9518571Y-16336714D01*
X9528095Y-16355762D01*
X9528095Y-16403381D01*
X9518571Y-16422428D01*
X9509048Y-16431952D01*
X9490000Y-16441476D01*
X9432857Y-16441476D01*
X9413810Y-16431952D01*
X9404286Y-16422428D01*
X9709048Y-16241476D02*
X9613810Y-16241476D01*
X9604286Y-16336714D01*
X9613810Y-16327190D01*
X9632857Y-16317667D01*
X9680476Y-16317667D01*
X9699524Y-16327190D01*
X9709048Y-16336714D01*
X9718571Y-16355762D01*
X9718571Y-16403381D01*
X9709048Y-16422428D01*
X9699524Y-16431952D01*
X9680476Y-16441476D01*
X9632857Y-16441476D01*
X9613810Y-16431952D01*
X9604286Y-16422428D01*
X9842381Y-16241476D02*
X9861429Y-16241476D01*
X9880476Y-16251000D01*
X9890000Y-16260524D01*
X9899524Y-16279571D01*
X9909048Y-16317667D01*
X9909048Y-16365286D01*
X9899524Y-16403381D01*
X9890000Y-16422428D01*
X9880476Y-16431952D01*
X9861429Y-16441476D01*
X9842381Y-16441476D01*
X9823333Y-16431952D01*
X9813810Y-16422428D01*
X9804286Y-16403381D01*
X9794762Y-16365286D01*
X9794762Y-16317667D01*
X9804286Y-16279571D01*
X9813810Y-16260524D01*
X9823333Y-16251000D01*
X9842381Y-16241476D01*
X9994762Y-16441476D02*
X9994762Y-16308143D01*
X9994762Y-16327190D02*
X10004286Y-16317667D01*
X10023333Y-16308143D01*
X10051905Y-16308143D01*
X10070952Y-16317667D01*
X10080476Y-16336714D01*
X10080476Y-16441476D01*
X10080476Y-16336714D02*
X10090000Y-16317667D01*
X10109048Y-16308143D01*
X10137619Y-16308143D01*
X10156667Y-16317667D01*
X10166190Y-16336714D01*
X10166190Y-16441476D01*
X10261429Y-16441476D02*
X10261429Y-16308143D01*
X10261429Y-16327190D02*
X10270952Y-16317667D01*
X10290000Y-16308143D01*
X10318571Y-16308143D01*
X10337619Y-16317667D01*
X10347143Y-16336714D01*
X10347143Y-16441476D01*
X10347143Y-16336714D02*
X10356667Y-16317667D01*
X10375714Y-16308143D01*
X10404286Y-16308143D01*
X10423333Y-16317667D01*
X10432857Y-16336714D01*
X10432857Y-16441476D01*
X10823333Y-16231952D02*
X10651905Y-16489095D01*
X11080476Y-16241476D02*
X11099524Y-16241476D01*
X11118571Y-16251000D01*
X11128095Y-16260524D01*
X11137619Y-16279571D01*
X11147143Y-16317667D01*
X11147143Y-16365286D01*
X11137619Y-16403381D01*
X11128095Y-16422428D01*
X11118571Y-16431952D01*
X11099524Y-16441476D01*
X11080476Y-16441476D01*
X11061429Y-16431952D01*
X11051905Y-16422428D01*
X11042381Y-16403381D01*
X11032857Y-16365286D01*
X11032857Y-16317667D01*
X11042381Y-16279571D01*
X11051905Y-16260524D01*
X11061429Y-16251000D01*
X11080476Y-16241476D01*
X11232857Y-16422428D02*
X11242381Y-16431952D01*
X11232857Y-16441476D01*
X11223333Y-16431952D01*
X11232857Y-16422428D01*
X11232857Y-16441476D01*
X11366190Y-16241476D02*
X11385238Y-16241476D01*
X11404286Y-16251000D01*
X11413809Y-16260524D01*
X11423333Y-16279571D01*
X11432857Y-16317667D01*
X11432857Y-16365286D01*
X11423333Y-16403381D01*
X11413809Y-16422428D01*
X11404286Y-16431952D01*
X11385238Y-16441476D01*
X11366190Y-16441476D01*
X11347143Y-16431952D01*
X11337619Y-16422428D01*
X11328095Y-16403381D01*
X11318571Y-16365286D01*
X11318571Y-16317667D01*
X11328095Y-16279571D01*
X11337619Y-16260524D01*
X11347143Y-16251000D01*
X11366190Y-16241476D01*
X11613809Y-16241476D02*
X11518571Y-16241476D01*
X11509048Y-16336714D01*
X11518571Y-16327190D01*
X11537619Y-16317667D01*
X11585238Y-16317667D01*
X11604286Y-16327190D01*
X11613809Y-16336714D01*
X11623333Y-16355762D01*
X11623333Y-16403381D01*
X11613809Y-16422428D01*
X11604286Y-16431952D01*
X11585238Y-16441476D01*
X11537619Y-16441476D01*
X11518571Y-16431952D01*
X11509048Y-16422428D01*
X11690000Y-16241476D02*
X11813809Y-16241476D01*
X11747143Y-16317667D01*
X11775714Y-16317667D01*
X11794762Y-16327190D01*
X11804286Y-16336714D01*
X11813809Y-16355762D01*
X11813809Y-16403381D01*
X11804286Y-16422428D01*
X11794762Y-16431952D01*
X11775714Y-16441476D01*
X11718571Y-16441476D01*
X11699524Y-16431952D01*
X11690000Y-16422428D01*
X12004286Y-16441476D02*
X11890000Y-16441476D01*
X11947143Y-16441476D02*
X11947143Y-16241476D01*
X11928095Y-16270048D01*
X11909048Y-16289095D01*
X11890000Y-16298619D01*
X12080476Y-16241476D02*
X12080476Y-16279571D01*
X12156667Y-16241476D02*
X12156667Y-16279571D01*
X12451905Y-16517667D02*
X12442381Y-16508143D01*
X12423333Y-16479571D01*
X12413809Y-16460524D01*
X12404286Y-16431952D01*
X12394762Y-16384333D01*
X12394762Y-16346238D01*
X12404286Y-16298619D01*
X12413809Y-16270048D01*
X12423333Y-16251000D01*
X12442381Y-16222428D01*
X12451905Y-16212905D01*
X12537619Y-16441476D02*
X12575714Y-16441476D01*
X12594762Y-16431952D01*
X12604286Y-16422428D01*
X12623333Y-16393857D01*
X12632857Y-16355762D01*
X12632857Y-16279571D01*
X12623333Y-16260524D01*
X12613809Y-16251000D01*
X12594762Y-16241476D01*
X12556667Y-16241476D01*
X12537619Y-16251000D01*
X12528095Y-16260524D01*
X12518571Y-16279571D01*
X12518571Y-16327190D01*
X12528095Y-16346238D01*
X12537619Y-16355762D01*
X12556667Y-16365286D01*
X12594762Y-16365286D01*
X12613809Y-16355762D01*
X12623333Y-16346238D01*
X12632857Y-16327190D01*
X12870952Y-16441476D02*
X12870952Y-16241476D01*
X12956667Y-16441476D02*
X12956667Y-16336714D01*
X12947143Y-16317667D01*
X12928095Y-16308143D01*
X12899524Y-16308143D01*
X12880476Y-16317667D01*
X12870952Y-16327190D01*
X13080476Y-16441476D02*
X13061428Y-16431952D01*
X13051905Y-16422428D01*
X13042381Y-16403381D01*
X13042381Y-16346238D01*
X13051905Y-16327190D01*
X13061428Y-16317667D01*
X13080476Y-16308143D01*
X13109048Y-16308143D01*
X13128095Y-16317667D01*
X13137619Y-16327190D01*
X13147143Y-16346238D01*
X13147143Y-16403381D01*
X13137619Y-16422428D01*
X13128095Y-16431952D01*
X13109048Y-16441476D01*
X13080476Y-16441476D01*
X13261428Y-16441476D02*
X13242381Y-16431952D01*
X13232857Y-16412905D01*
X13232857Y-16241476D01*
X13413809Y-16431952D02*
X13394762Y-16441476D01*
X13356667Y-16441476D01*
X13337619Y-16431952D01*
X13328095Y-16412905D01*
X13328095Y-16336714D01*
X13337619Y-16317667D01*
X13356667Y-16308143D01*
X13394762Y-16308143D01*
X13413809Y-16317667D01*
X13423333Y-16336714D01*
X13423333Y-16355762D01*
X13328095Y-16374809D01*
X13499524Y-16431952D02*
X13518571Y-16441476D01*
X13556667Y-16441476D01*
X13575714Y-16431952D01*
X13585238Y-16412905D01*
X13585238Y-16403381D01*
X13575714Y-16384333D01*
X13556667Y-16374809D01*
X13528095Y-16374809D01*
X13509048Y-16365286D01*
X13499524Y-16346238D01*
X13499524Y-16336714D01*
X13509048Y-16317667D01*
X13528095Y-16308143D01*
X13556667Y-16308143D01*
X13575714Y-16317667D01*
X13651905Y-16517667D02*
X13661428Y-16508143D01*
X13680476Y-16479571D01*
X13690000Y-16460524D01*
X13699524Y-16431952D01*
X13709048Y-16384333D01*
X13709048Y-16346238D01*
X13699524Y-16298619D01*
X13690000Y-16270048D01*
X13680476Y-16251000D01*
X13661428Y-16222428D01*
X13651905Y-16212905D01*
D21*
X8805000Y-16540000D02*
X8805000Y-16690000D01*
X8730000Y-16615000D02*
X8880000Y-16615000D01*
X8880000Y-16615000D02*
G75*
G03*
X8880000Y-16615000I-75000J0D01*
G01*
D11*
X9242381Y-16705476D02*
X9128095Y-16705476D01*
X9185238Y-16705476D02*
X9185238Y-16505476D01*
X9166190Y-16534048D01*
X9147143Y-16553095D01*
X9128095Y-16562619D01*
X9328095Y-16686428D02*
X9337619Y-16695952D01*
X9328095Y-16705476D01*
X9318571Y-16695952D01*
X9328095Y-16686428D01*
X9328095Y-16705476D01*
X9518571Y-16505476D02*
X9423333Y-16505476D01*
X9413810Y-16600714D01*
X9423333Y-16591190D01*
X9442381Y-16581667D01*
X9490000Y-16581667D01*
X9509048Y-16591190D01*
X9518571Y-16600714D01*
X9528095Y-16619762D01*
X9528095Y-16667381D01*
X9518571Y-16686428D01*
X9509048Y-16695952D01*
X9490000Y-16705476D01*
X9442381Y-16705476D01*
X9423333Y-16695952D01*
X9413810Y-16686428D01*
X9651905Y-16505476D02*
X9670952Y-16505476D01*
X9690000Y-16515000D01*
X9699524Y-16524524D01*
X9709048Y-16543571D01*
X9718571Y-16581667D01*
X9718571Y-16629286D01*
X9709048Y-16667381D01*
X9699524Y-16686428D01*
X9690000Y-16695952D01*
X9670952Y-16705476D01*
X9651905Y-16705476D01*
X9632857Y-16695952D01*
X9623333Y-16686428D01*
X9613810Y-16667381D01*
X9604286Y-16629286D01*
X9604286Y-16581667D01*
X9613810Y-16543571D01*
X9623333Y-16524524D01*
X9632857Y-16515000D01*
X9651905Y-16505476D01*
X9842381Y-16505476D02*
X9861429Y-16505476D01*
X9880476Y-16515000D01*
X9890000Y-16524524D01*
X9899524Y-16543571D01*
X9909048Y-16581667D01*
X9909048Y-16629286D01*
X9899524Y-16667381D01*
X9890000Y-16686428D01*
X9880476Y-16695952D01*
X9861429Y-16705476D01*
X9842381Y-16705476D01*
X9823333Y-16695952D01*
X9813810Y-16686428D01*
X9804286Y-16667381D01*
X9794762Y-16629286D01*
X9794762Y-16581667D01*
X9804286Y-16543571D01*
X9813810Y-16524524D01*
X9823333Y-16515000D01*
X9842381Y-16505476D01*
X9994762Y-16705476D02*
X9994762Y-16572143D01*
X9994762Y-16591190D02*
X10004286Y-16581667D01*
X10023333Y-16572143D01*
X10051905Y-16572143D01*
X10070952Y-16581667D01*
X10080476Y-16600714D01*
X10080476Y-16705476D01*
X10080476Y-16600714D02*
X10090000Y-16581667D01*
X10109048Y-16572143D01*
X10137619Y-16572143D01*
X10156667Y-16581667D01*
X10166190Y-16600714D01*
X10166190Y-16705476D01*
X10261429Y-16705476D02*
X10261429Y-16572143D01*
X10261429Y-16591190D02*
X10270952Y-16581667D01*
X10290000Y-16572143D01*
X10318571Y-16572143D01*
X10337619Y-16581667D01*
X10347143Y-16600714D01*
X10347143Y-16705476D01*
X10347143Y-16600714D02*
X10356667Y-16581667D01*
X10375714Y-16572143D01*
X10404286Y-16572143D01*
X10423333Y-16581667D01*
X10432857Y-16600714D01*
X10432857Y-16705476D01*
X10823333Y-16495952D02*
X10651905Y-16753095D01*
X11080476Y-16505476D02*
X11099524Y-16505476D01*
X11118571Y-16515000D01*
X11128095Y-16524524D01*
X11137619Y-16543571D01*
X11147143Y-16581667D01*
X11147143Y-16629286D01*
X11137619Y-16667381D01*
X11128095Y-16686428D01*
X11118571Y-16695952D01*
X11099524Y-16705476D01*
X11080476Y-16705476D01*
X11061429Y-16695952D01*
X11051905Y-16686428D01*
X11042381Y-16667381D01*
X11032857Y-16629286D01*
X11032857Y-16581667D01*
X11042381Y-16543571D01*
X11051905Y-16524524D01*
X11061429Y-16515000D01*
X11080476Y-16505476D01*
X11232857Y-16686428D02*
X11242381Y-16695952D01*
X11232857Y-16705476D01*
X11223333Y-16695952D01*
X11232857Y-16686428D01*
X11232857Y-16705476D01*
X11366190Y-16505476D02*
X11385238Y-16505476D01*
X11404286Y-16515000D01*
X11413809Y-16524524D01*
X11423333Y-16543571D01*
X11432857Y-16581667D01*
X11432857Y-16629286D01*
X11423333Y-16667381D01*
X11413809Y-16686428D01*
X11404286Y-16695952D01*
X11385238Y-16705476D01*
X11366190Y-16705476D01*
X11347143Y-16695952D01*
X11337619Y-16686428D01*
X11328095Y-16667381D01*
X11318571Y-16629286D01*
X11318571Y-16581667D01*
X11328095Y-16543571D01*
X11337619Y-16524524D01*
X11347143Y-16515000D01*
X11366190Y-16505476D01*
X11613809Y-16505476D02*
X11518571Y-16505476D01*
X11509048Y-16600714D01*
X11518571Y-16591190D01*
X11537619Y-16581667D01*
X11585238Y-16581667D01*
X11604286Y-16591190D01*
X11613809Y-16600714D01*
X11623333Y-16619762D01*
X11623333Y-16667381D01*
X11613809Y-16686428D01*
X11604286Y-16695952D01*
X11585238Y-16705476D01*
X11537619Y-16705476D01*
X11518571Y-16695952D01*
X11509048Y-16686428D01*
X11718571Y-16705476D02*
X11756667Y-16705476D01*
X11775714Y-16695952D01*
X11785238Y-16686428D01*
X11804286Y-16657857D01*
X11813809Y-16619762D01*
X11813809Y-16543571D01*
X11804286Y-16524524D01*
X11794762Y-16515000D01*
X11775714Y-16505476D01*
X11737619Y-16505476D01*
X11718571Y-16515000D01*
X11709048Y-16524524D01*
X11699524Y-16543571D01*
X11699524Y-16591190D01*
X11709048Y-16610238D01*
X11718571Y-16619762D01*
X11737619Y-16629286D01*
X11775714Y-16629286D01*
X11794762Y-16619762D01*
X11804286Y-16610238D01*
X11813809Y-16591190D01*
X12004286Y-16705476D02*
X11890000Y-16705476D01*
X11947143Y-16705476D02*
X11947143Y-16505476D01*
X11928095Y-16534048D01*
X11909048Y-16553095D01*
X11890000Y-16562619D01*
X12080476Y-16505476D02*
X12080476Y-16543571D01*
X12156667Y-16505476D02*
X12156667Y-16543571D01*
X12451905Y-16781667D02*
X12442381Y-16772143D01*
X12423333Y-16743571D01*
X12413809Y-16724524D01*
X12404286Y-16695952D01*
X12394762Y-16648333D01*
X12394762Y-16610238D01*
X12404286Y-16562619D01*
X12413809Y-16534048D01*
X12423333Y-16515000D01*
X12442381Y-16486428D01*
X12451905Y-16476905D01*
X12632857Y-16705476D02*
X12518571Y-16705476D01*
X12575714Y-16705476D02*
X12575714Y-16505476D01*
X12556667Y-16534048D01*
X12537619Y-16553095D01*
X12518571Y-16562619D01*
X12870952Y-16705476D02*
X12870952Y-16505476D01*
X12956667Y-16705476D02*
X12956667Y-16600714D01*
X12947143Y-16581667D01*
X12928095Y-16572143D01*
X12899524Y-16572143D01*
X12880476Y-16581667D01*
X12870952Y-16591190D01*
X13080476Y-16705476D02*
X13061428Y-16695952D01*
X13051905Y-16686428D01*
X13042381Y-16667381D01*
X13042381Y-16610238D01*
X13051905Y-16591190D01*
X13061428Y-16581667D01*
X13080476Y-16572143D01*
X13109048Y-16572143D01*
X13128095Y-16581667D01*
X13137619Y-16591190D01*
X13147143Y-16610238D01*
X13147143Y-16667381D01*
X13137619Y-16686428D01*
X13128095Y-16695952D01*
X13109048Y-16705476D01*
X13080476Y-16705476D01*
X13261428Y-16705476D02*
X13242381Y-16695952D01*
X13232857Y-16676905D01*
X13232857Y-16505476D01*
X13413809Y-16695952D02*
X13394762Y-16705476D01*
X13356667Y-16705476D01*
X13337619Y-16695952D01*
X13328095Y-16676905D01*
X13328095Y-16600714D01*
X13337619Y-16581667D01*
X13356667Y-16572143D01*
X13394762Y-16572143D01*
X13413809Y-16581667D01*
X13423333Y-16600714D01*
X13423333Y-16619762D01*
X13328095Y-16638809D01*
X13490000Y-16781667D02*
X13499524Y-16772143D01*
X13518571Y-16743571D01*
X13528095Y-16724524D01*
X13537619Y-16695952D01*
X13547143Y-16648333D01*
X13547143Y-16610238D01*
X13537619Y-16562619D01*
X13528095Y-16534048D01*
X13518571Y-16515000D01*
X13499524Y-16486428D01*
X13490000Y-16476905D01*
D22*
X8855837Y-16943337D02*
X8855837Y-16826663D01*
X8739163Y-16826663D01*
X8739163Y-16943337D01*
X8855837Y-16943337D01*
X8880000Y-16885000D02*
G75*
G03*
X8880000Y-16885000I-82500J0D01*
G01*
D11*
X9242381Y-16975476D02*
X9128095Y-16975476D01*
X9185238Y-16975476D02*
X9185238Y-16775476D01*
X9166190Y-16804048D01*
X9147143Y-16823095D01*
X9128095Y-16832619D01*
X9328095Y-16956429D02*
X9337619Y-16965952D01*
X9328095Y-16975476D01*
X9318571Y-16965952D01*
X9328095Y-16956429D01*
X9328095Y-16975476D01*
X9509048Y-16775476D02*
X9470952Y-16775476D01*
X9451905Y-16785000D01*
X9442381Y-16794524D01*
X9423333Y-16823095D01*
X9413810Y-16861190D01*
X9413810Y-16937381D01*
X9423333Y-16956429D01*
X9432857Y-16965952D01*
X9451905Y-16975476D01*
X9490000Y-16975476D01*
X9509048Y-16965952D01*
X9518571Y-16956429D01*
X9528095Y-16937381D01*
X9528095Y-16889762D01*
X9518571Y-16870714D01*
X9509048Y-16861190D01*
X9490000Y-16851667D01*
X9451905Y-16851667D01*
X9432857Y-16861190D01*
X9423333Y-16870714D01*
X9413810Y-16889762D01*
X9709048Y-16775476D02*
X9613810Y-16775476D01*
X9604286Y-16870714D01*
X9613810Y-16861190D01*
X9632857Y-16851667D01*
X9680476Y-16851667D01*
X9699524Y-16861190D01*
X9709048Y-16870714D01*
X9718571Y-16889762D01*
X9718571Y-16937381D01*
X9709048Y-16956429D01*
X9699524Y-16965952D01*
X9680476Y-16975476D01*
X9632857Y-16975476D01*
X9613810Y-16965952D01*
X9604286Y-16956429D01*
X9842381Y-16775476D02*
X9861429Y-16775476D01*
X9880476Y-16785000D01*
X9890000Y-16794524D01*
X9899524Y-16813571D01*
X9909048Y-16851667D01*
X9909048Y-16899286D01*
X9899524Y-16937381D01*
X9890000Y-16956429D01*
X9880476Y-16965952D01*
X9861429Y-16975476D01*
X9842381Y-16975476D01*
X9823333Y-16965952D01*
X9813810Y-16956429D01*
X9804286Y-16937381D01*
X9794762Y-16899286D01*
X9794762Y-16851667D01*
X9804286Y-16813571D01*
X9813810Y-16794524D01*
X9823333Y-16785000D01*
X9842381Y-16775476D01*
X9994762Y-16975476D02*
X9994762Y-16842143D01*
X9994762Y-16861190D02*
X10004286Y-16851667D01*
X10023333Y-16842143D01*
X10051905Y-16842143D01*
X10070952Y-16851667D01*
X10080476Y-16870714D01*
X10080476Y-16975476D01*
X10080476Y-16870714D02*
X10090000Y-16851667D01*
X10109048Y-16842143D01*
X10137619Y-16842143D01*
X10156667Y-16851667D01*
X10166190Y-16870714D01*
X10166190Y-16975476D01*
X10261429Y-16975476D02*
X10261429Y-16842143D01*
X10261429Y-16861190D02*
X10270952Y-16851667D01*
X10290000Y-16842143D01*
X10318571Y-16842143D01*
X10337619Y-16851667D01*
X10347143Y-16870714D01*
X10347143Y-16975476D01*
X10347143Y-16870714D02*
X10356667Y-16851667D01*
X10375714Y-16842143D01*
X10404286Y-16842143D01*
X10423333Y-16851667D01*
X10432857Y-16870714D01*
X10432857Y-16975476D01*
X10823333Y-16765952D02*
X10651905Y-17023095D01*
X11080476Y-16775476D02*
X11099524Y-16775476D01*
X11118571Y-16785000D01*
X11128095Y-16794524D01*
X11137619Y-16813571D01*
X11147143Y-16851667D01*
X11147143Y-16899286D01*
X11137619Y-16937381D01*
X11128095Y-16956429D01*
X11118571Y-16965952D01*
X11099524Y-16975476D01*
X11080476Y-16975476D01*
X11061429Y-16965952D01*
X11051905Y-16956429D01*
X11042381Y-16937381D01*
X11032857Y-16899286D01*
X11032857Y-16851667D01*
X11042381Y-16813571D01*
X11051905Y-16794524D01*
X11061429Y-16785000D01*
X11080476Y-16775476D01*
X11232857Y-16956429D02*
X11242381Y-16965952D01*
X11232857Y-16975476D01*
X11223333Y-16965952D01*
X11232857Y-16956429D01*
X11232857Y-16975476D01*
X11366190Y-16775476D02*
X11385238Y-16775476D01*
X11404286Y-16785000D01*
X11413809Y-16794524D01*
X11423333Y-16813571D01*
X11432857Y-16851667D01*
X11432857Y-16899286D01*
X11423333Y-16937381D01*
X11413809Y-16956429D01*
X11404286Y-16965952D01*
X11385238Y-16975476D01*
X11366190Y-16975476D01*
X11347143Y-16965952D01*
X11337619Y-16956429D01*
X11328095Y-16937381D01*
X11318571Y-16899286D01*
X11318571Y-16851667D01*
X11328095Y-16813571D01*
X11337619Y-16794524D01*
X11347143Y-16785000D01*
X11366190Y-16775476D01*
X11604286Y-16775476D02*
X11566190Y-16775476D01*
X11547143Y-16785000D01*
X11537619Y-16794524D01*
X11518571Y-16823095D01*
X11509048Y-16861190D01*
X11509048Y-16937381D01*
X11518571Y-16956429D01*
X11528095Y-16965952D01*
X11547143Y-16975476D01*
X11585238Y-16975476D01*
X11604286Y-16965952D01*
X11613809Y-16956429D01*
X11623333Y-16937381D01*
X11623333Y-16889762D01*
X11613809Y-16870714D01*
X11604286Y-16861190D01*
X11585238Y-16851667D01*
X11547143Y-16851667D01*
X11528095Y-16861190D01*
X11518571Y-16870714D01*
X11509048Y-16889762D01*
X11804286Y-16775476D02*
X11709048Y-16775476D01*
X11699524Y-16870714D01*
X11709048Y-16861190D01*
X11728095Y-16851667D01*
X11775714Y-16851667D01*
X11794762Y-16861190D01*
X11804286Y-16870714D01*
X11813809Y-16889762D01*
X11813809Y-16937381D01*
X11804286Y-16956429D01*
X11794762Y-16965952D01*
X11775714Y-16975476D01*
X11728095Y-16975476D01*
X11709048Y-16965952D01*
X11699524Y-16956429D01*
X11937619Y-16775476D02*
X11956667Y-16775476D01*
X11975714Y-16785000D01*
X11985238Y-16794524D01*
X11994762Y-16813571D01*
X12004286Y-16851667D01*
X12004286Y-16899286D01*
X11994762Y-16937381D01*
X11985238Y-16956429D01*
X11975714Y-16965952D01*
X11956667Y-16975476D01*
X11937619Y-16975476D01*
X11918571Y-16965952D01*
X11909048Y-16956429D01*
X11899524Y-16937381D01*
X11890000Y-16899286D01*
X11890000Y-16851667D01*
X11899524Y-16813571D01*
X11909048Y-16794524D01*
X11918571Y-16785000D01*
X11937619Y-16775476D01*
X12080476Y-16775476D02*
X12080476Y-16813571D01*
X12156667Y-16775476D02*
X12156667Y-16813571D01*
X12451905Y-17051667D02*
X12442381Y-17042143D01*
X12423333Y-17013571D01*
X12413809Y-16994524D01*
X12404286Y-16965952D01*
X12394762Y-16918333D01*
X12394762Y-16880238D01*
X12404286Y-16832619D01*
X12413809Y-16804048D01*
X12423333Y-16785000D01*
X12442381Y-16756428D01*
X12451905Y-16746905D01*
X12518571Y-16794524D02*
X12528095Y-16785000D01*
X12547143Y-16775476D01*
X12594762Y-16775476D01*
X12613809Y-16785000D01*
X12623333Y-16794524D01*
X12632857Y-16813571D01*
X12632857Y-16832619D01*
X12623333Y-16861190D01*
X12509048Y-16975476D01*
X12632857Y-16975476D01*
X12870952Y-16975476D02*
X12870952Y-16775476D01*
X12956667Y-16975476D02*
X12956667Y-16870714D01*
X12947143Y-16851667D01*
X12928095Y-16842143D01*
X12899524Y-16842143D01*
X12880476Y-16851667D01*
X12870952Y-16861190D01*
X13080476Y-16975476D02*
X13061428Y-16965952D01*
X13051905Y-16956429D01*
X13042381Y-16937381D01*
X13042381Y-16880238D01*
X13051905Y-16861190D01*
X13061428Y-16851667D01*
X13080476Y-16842143D01*
X13109048Y-16842143D01*
X13128095Y-16851667D01*
X13137619Y-16861190D01*
X13147143Y-16880238D01*
X13147143Y-16937381D01*
X13137619Y-16956429D01*
X13128095Y-16965952D01*
X13109048Y-16975476D01*
X13080476Y-16975476D01*
X13261428Y-16975476D02*
X13242381Y-16965952D01*
X13232857Y-16946905D01*
X13232857Y-16775476D01*
X13413809Y-16965952D02*
X13394762Y-16975476D01*
X13356667Y-16975476D01*
X13337619Y-16965952D01*
X13328095Y-16946905D01*
X13328095Y-16870714D01*
X13337619Y-16851667D01*
X13356667Y-16842143D01*
X13394762Y-16842143D01*
X13413809Y-16851667D01*
X13423333Y-16870714D01*
X13423333Y-16889762D01*
X13328095Y-16908810D01*
X13499524Y-16965952D02*
X13518571Y-16975476D01*
X13556667Y-16975476D01*
X13575714Y-16965952D01*
X13585238Y-16946905D01*
X13585238Y-16937381D01*
X13575714Y-16918333D01*
X13556667Y-16908810D01*
X13528095Y-16908810D01*
X13509048Y-16899286D01*
X13499524Y-16880238D01*
X13499524Y-16870714D01*
X13509048Y-16851667D01*
X13528095Y-16842143D01*
X13556667Y-16842143D01*
X13575714Y-16851667D01*
X13651905Y-17051667D02*
X13661428Y-17042143D01*
X13680476Y-17013571D01*
X13690000Y-16994524D01*
X13699524Y-16965952D01*
X13709048Y-16918333D01*
X13709048Y-16880238D01*
X13699524Y-16832619D01*
X13690000Y-16804048D01*
X13680476Y-16785000D01*
X13661428Y-16756428D01*
X13651905Y-16746905D01*
D23*
X8795000Y-17255000D02*
X8880000Y-17170000D01*
X8795000Y-17085000D01*
X8710000Y-17170000D01*
X8795000Y-17255000D01*
X8880000Y-17170000D02*
G75*
G03*
X8880000Y-17170000I-85000J0D01*
G01*
D11*
X9242381Y-17260476D02*
X9128095Y-17260476D01*
X9185238Y-17260476D02*
X9185238Y-17060476D01*
X9166190Y-17089048D01*
X9147143Y-17108095D01*
X9128095Y-17117619D01*
X9328095Y-17241429D02*
X9337619Y-17250952D01*
X9328095Y-17260476D01*
X9318571Y-17250952D01*
X9328095Y-17241429D01*
X9328095Y-17260476D01*
X9404286Y-17060476D02*
X9537619Y-17060476D01*
X9451905Y-17260476D01*
X9651905Y-17060476D02*
X9670952Y-17060476D01*
X9690000Y-17070000D01*
X9699524Y-17079524D01*
X9709048Y-17098571D01*
X9718571Y-17136667D01*
X9718571Y-17184286D01*
X9709048Y-17222381D01*
X9699524Y-17241429D01*
X9690000Y-17250952D01*
X9670952Y-17260476D01*
X9651905Y-17260476D01*
X9632857Y-17250952D01*
X9623333Y-17241429D01*
X9613810Y-17222381D01*
X9604286Y-17184286D01*
X9604286Y-17136667D01*
X9613810Y-17098571D01*
X9623333Y-17079524D01*
X9632857Y-17070000D01*
X9651905Y-17060476D01*
X9842381Y-17060476D02*
X9861429Y-17060476D01*
X9880476Y-17070000D01*
X9890000Y-17079524D01*
X9899524Y-17098571D01*
X9909048Y-17136667D01*
X9909048Y-17184286D01*
X9899524Y-17222381D01*
X9890000Y-17241429D01*
X9880476Y-17250952D01*
X9861429Y-17260476D01*
X9842381Y-17260476D01*
X9823333Y-17250952D01*
X9813810Y-17241429D01*
X9804286Y-17222381D01*
X9794762Y-17184286D01*
X9794762Y-17136667D01*
X9804286Y-17098571D01*
X9813810Y-17079524D01*
X9823333Y-17070000D01*
X9842381Y-17060476D01*
X9994762Y-17260476D02*
X9994762Y-17127143D01*
X9994762Y-17146190D02*
X10004286Y-17136667D01*
X10023333Y-17127143D01*
X10051905Y-17127143D01*
X10070952Y-17136667D01*
X10080476Y-17155714D01*
X10080476Y-17260476D01*
X10080476Y-17155714D02*
X10090000Y-17136667D01*
X10109048Y-17127143D01*
X10137619Y-17127143D01*
X10156667Y-17136667D01*
X10166190Y-17155714D01*
X10166190Y-17260476D01*
X10261429Y-17260476D02*
X10261429Y-17127143D01*
X10261429Y-17146190D02*
X10270952Y-17136667D01*
X10290000Y-17127143D01*
X10318571Y-17127143D01*
X10337619Y-17136667D01*
X10347143Y-17155714D01*
X10347143Y-17260476D01*
X10347143Y-17155714D02*
X10356667Y-17136667D01*
X10375714Y-17127143D01*
X10404286Y-17127143D01*
X10423333Y-17136667D01*
X10432857Y-17155714D01*
X10432857Y-17260476D01*
X10823333Y-17050952D02*
X10651905Y-17308095D01*
X11080476Y-17060476D02*
X11099524Y-17060476D01*
X11118571Y-17070000D01*
X11128095Y-17079524D01*
X11137619Y-17098571D01*
X11147143Y-17136667D01*
X11147143Y-17184286D01*
X11137619Y-17222381D01*
X11128095Y-17241429D01*
X11118571Y-17250952D01*
X11099524Y-17260476D01*
X11080476Y-17260476D01*
X11061429Y-17250952D01*
X11051905Y-17241429D01*
X11042381Y-17222381D01*
X11032857Y-17184286D01*
X11032857Y-17136667D01*
X11042381Y-17098571D01*
X11051905Y-17079524D01*
X11061429Y-17070000D01*
X11080476Y-17060476D01*
X11232857Y-17241429D02*
X11242381Y-17250952D01*
X11232857Y-17260476D01*
X11223333Y-17250952D01*
X11232857Y-17241429D01*
X11232857Y-17260476D01*
X11366190Y-17060476D02*
X11385238Y-17060476D01*
X11404286Y-17070000D01*
X11413809Y-17079524D01*
X11423333Y-17098571D01*
X11432857Y-17136667D01*
X11432857Y-17184286D01*
X11423333Y-17222381D01*
X11413809Y-17241429D01*
X11404286Y-17250952D01*
X11385238Y-17260476D01*
X11366190Y-17260476D01*
X11347143Y-17250952D01*
X11337619Y-17241429D01*
X11328095Y-17222381D01*
X11318571Y-17184286D01*
X11318571Y-17136667D01*
X11328095Y-17098571D01*
X11337619Y-17079524D01*
X11347143Y-17070000D01*
X11366190Y-17060476D01*
X11604286Y-17060476D02*
X11566190Y-17060476D01*
X11547143Y-17070000D01*
X11537619Y-17079524D01*
X11518571Y-17108095D01*
X11509048Y-17146190D01*
X11509048Y-17222381D01*
X11518571Y-17241429D01*
X11528095Y-17250952D01*
X11547143Y-17260476D01*
X11585238Y-17260476D01*
X11604286Y-17250952D01*
X11613809Y-17241429D01*
X11623333Y-17222381D01*
X11623333Y-17174762D01*
X11613809Y-17155714D01*
X11604286Y-17146190D01*
X11585238Y-17136667D01*
X11547143Y-17136667D01*
X11528095Y-17146190D01*
X11518571Y-17155714D01*
X11509048Y-17174762D01*
X11794762Y-17060476D02*
X11756667Y-17060476D01*
X11737619Y-17070000D01*
X11728095Y-17079524D01*
X11709048Y-17108095D01*
X11699524Y-17146190D01*
X11699524Y-17222381D01*
X11709048Y-17241429D01*
X11718571Y-17250952D01*
X11737619Y-17260476D01*
X11775714Y-17260476D01*
X11794762Y-17250952D01*
X11804286Y-17241429D01*
X11813809Y-17222381D01*
X11813809Y-17174762D01*
X11804286Y-17155714D01*
X11794762Y-17146190D01*
X11775714Y-17136667D01*
X11737619Y-17136667D01*
X11718571Y-17146190D01*
X11709048Y-17155714D01*
X11699524Y-17174762D01*
X11909048Y-17260476D02*
X11947143Y-17260476D01*
X11966190Y-17250952D01*
X11975714Y-17241429D01*
X11994762Y-17212857D01*
X12004286Y-17174762D01*
X12004286Y-17098571D01*
X11994762Y-17079524D01*
X11985238Y-17070000D01*
X11966190Y-17060476D01*
X11928095Y-17060476D01*
X11909048Y-17070000D01*
X11899524Y-17079524D01*
X11890000Y-17098571D01*
X11890000Y-17146190D01*
X11899524Y-17165238D01*
X11909048Y-17174762D01*
X11928095Y-17184286D01*
X11966190Y-17184286D01*
X11985238Y-17174762D01*
X11994762Y-17165238D01*
X12004286Y-17146190D01*
X12080476Y-17060476D02*
X12080476Y-17098571D01*
X12156667Y-17060476D02*
X12156667Y-17098571D01*
X12451905Y-17336667D02*
X12442381Y-17327143D01*
X12423333Y-17298571D01*
X12413809Y-17279524D01*
X12404286Y-17250952D01*
X12394762Y-17203333D01*
X12394762Y-17165238D01*
X12404286Y-17117619D01*
X12413809Y-17089048D01*
X12423333Y-17070000D01*
X12442381Y-17041429D01*
X12451905Y-17031905D01*
X12613809Y-17127143D02*
X12613809Y-17260476D01*
X12566190Y-17050952D02*
X12518571Y-17193810D01*
X12642381Y-17193810D01*
X12870952Y-17260476D02*
X12870952Y-17060476D01*
X12956667Y-17260476D02*
X12956667Y-17155714D01*
X12947143Y-17136667D01*
X12928095Y-17127143D01*
X12899524Y-17127143D01*
X12880476Y-17136667D01*
X12870952Y-17146190D01*
X13080476Y-17260476D02*
X13061428Y-17250952D01*
X13051905Y-17241429D01*
X13042381Y-17222381D01*
X13042381Y-17165238D01*
X13051905Y-17146190D01*
X13061428Y-17136667D01*
X13080476Y-17127143D01*
X13109048Y-17127143D01*
X13128095Y-17136667D01*
X13137619Y-17146190D01*
X13147143Y-17165238D01*
X13147143Y-17222381D01*
X13137619Y-17241429D01*
X13128095Y-17250952D01*
X13109048Y-17260476D01*
X13080476Y-17260476D01*
X13261428Y-17260476D02*
X13242381Y-17250952D01*
X13232857Y-17231905D01*
X13232857Y-17060476D01*
X13413809Y-17250952D02*
X13394762Y-17260476D01*
X13356667Y-17260476D01*
X13337619Y-17250952D01*
X13328095Y-17231905D01*
X13328095Y-17155714D01*
X13337619Y-17136667D01*
X13356667Y-17127143D01*
X13394762Y-17127143D01*
X13413809Y-17136667D01*
X13423333Y-17155714D01*
X13423333Y-17174762D01*
X13328095Y-17193810D01*
X13499524Y-17250952D02*
X13518571Y-17260476D01*
X13556667Y-17260476D01*
X13575714Y-17250952D01*
X13585238Y-17231905D01*
X13585238Y-17222381D01*
X13575714Y-17203333D01*
X13556667Y-17193810D01*
X13528095Y-17193810D01*
X13509048Y-17184286D01*
X13499524Y-17165238D01*
X13499524Y-17155714D01*
X13509048Y-17136667D01*
X13528095Y-17127143D01*
X13556667Y-17127143D01*
X13575714Y-17136667D01*
X13651905Y-17336667D02*
X13661428Y-17327143D01*
X13680476Y-17298571D01*
X13690000Y-17279524D01*
X13699524Y-17250952D01*
X13709048Y-17203333D01*
X13709048Y-17165238D01*
X13699524Y-17117619D01*
X13690000Y-17089048D01*
X13680476Y-17070000D01*
X13661428Y-17041429D01*
X13651905Y-17031905D01*
X8780000Y-17360000D02*
X8780000Y-17560000D01*
X8680000Y-17460000D02*
X8880000Y-17460000D01*
X8850711Y-17530711D02*
X8850711Y-17389289D01*
X8709289Y-17389289D01*
X8709289Y-17530711D01*
X8850711Y-17530711D01*
X9118571Y-17350476D02*
X9242381Y-17350476D01*
X9175714Y-17426667D01*
X9204286Y-17426667D01*
X9223333Y-17436190D01*
X9232857Y-17445714D01*
X9242381Y-17464762D01*
X9242381Y-17512381D01*
X9232857Y-17531429D01*
X9223333Y-17540952D01*
X9204286Y-17550476D01*
X9147143Y-17550476D01*
X9128095Y-17540952D01*
X9118571Y-17531429D01*
X9328095Y-17531429D02*
X9337619Y-17540952D01*
X9328095Y-17550476D01*
X9318571Y-17540952D01*
X9328095Y-17531429D01*
X9328095Y-17550476D01*
X9518571Y-17350476D02*
X9423333Y-17350476D01*
X9413810Y-17445714D01*
X9423333Y-17436190D01*
X9442381Y-17426667D01*
X9490000Y-17426667D01*
X9509048Y-17436190D01*
X9518571Y-17445714D01*
X9528095Y-17464762D01*
X9528095Y-17512381D01*
X9518571Y-17531429D01*
X9509048Y-17540952D01*
X9490000Y-17550476D01*
X9442381Y-17550476D01*
X9423333Y-17540952D01*
X9413810Y-17531429D01*
X9651905Y-17350476D02*
X9670952Y-17350476D01*
X9690000Y-17360000D01*
X9699524Y-17369524D01*
X9709048Y-17388571D01*
X9718571Y-17426667D01*
X9718571Y-17474286D01*
X9709048Y-17512381D01*
X9699524Y-17531429D01*
X9690000Y-17540952D01*
X9670952Y-17550476D01*
X9651905Y-17550476D01*
X9632857Y-17540952D01*
X9623333Y-17531429D01*
X9613810Y-17512381D01*
X9604286Y-17474286D01*
X9604286Y-17426667D01*
X9613810Y-17388571D01*
X9623333Y-17369524D01*
X9632857Y-17360000D01*
X9651905Y-17350476D01*
X9842381Y-17350476D02*
X9861429Y-17350476D01*
X9880476Y-17360000D01*
X9890000Y-17369524D01*
X9899524Y-17388571D01*
X9909048Y-17426667D01*
X9909048Y-17474286D01*
X9899524Y-17512381D01*
X9890000Y-17531429D01*
X9880476Y-17540952D01*
X9861429Y-17550476D01*
X9842381Y-17550476D01*
X9823333Y-17540952D01*
X9813810Y-17531429D01*
X9804286Y-17512381D01*
X9794762Y-17474286D01*
X9794762Y-17426667D01*
X9804286Y-17388571D01*
X9813810Y-17369524D01*
X9823333Y-17360000D01*
X9842381Y-17350476D01*
X9994762Y-17550476D02*
X9994762Y-17417143D01*
X9994762Y-17436190D02*
X10004286Y-17426667D01*
X10023333Y-17417143D01*
X10051905Y-17417143D01*
X10070952Y-17426667D01*
X10080476Y-17445714D01*
X10080476Y-17550476D01*
X10080476Y-17445714D02*
X10090000Y-17426667D01*
X10109048Y-17417143D01*
X10137619Y-17417143D01*
X10156667Y-17426667D01*
X10166190Y-17445714D01*
X10166190Y-17550476D01*
X10261429Y-17550476D02*
X10261429Y-17417143D01*
X10261429Y-17436190D02*
X10270952Y-17426667D01*
X10290000Y-17417143D01*
X10318571Y-17417143D01*
X10337619Y-17426667D01*
X10347143Y-17445714D01*
X10347143Y-17550476D01*
X10347143Y-17445714D02*
X10356667Y-17426667D01*
X10375714Y-17417143D01*
X10404286Y-17417143D01*
X10423333Y-17426667D01*
X10432857Y-17445714D01*
X10432857Y-17550476D01*
X10823333Y-17340952D02*
X10651905Y-17598095D01*
X11080476Y-17350476D02*
X11099524Y-17350476D01*
X11118571Y-17360000D01*
X11128095Y-17369524D01*
X11137619Y-17388571D01*
X11147143Y-17426667D01*
X11147143Y-17474286D01*
X11137619Y-17512381D01*
X11128095Y-17531429D01*
X11118571Y-17540952D01*
X11099524Y-17550476D01*
X11080476Y-17550476D01*
X11061429Y-17540952D01*
X11051905Y-17531429D01*
X11042381Y-17512381D01*
X11032857Y-17474286D01*
X11032857Y-17426667D01*
X11042381Y-17388571D01*
X11051905Y-17369524D01*
X11061429Y-17360000D01*
X11080476Y-17350476D01*
X11232857Y-17531429D02*
X11242381Y-17540952D01*
X11232857Y-17550476D01*
X11223333Y-17540952D01*
X11232857Y-17531429D01*
X11232857Y-17550476D01*
X11432857Y-17550476D02*
X11318571Y-17550476D01*
X11375714Y-17550476D02*
X11375714Y-17350476D01*
X11356667Y-17379048D01*
X11337619Y-17398095D01*
X11318571Y-17407619D01*
X11499524Y-17350476D02*
X11623333Y-17350476D01*
X11556667Y-17426667D01*
X11585238Y-17426667D01*
X11604286Y-17436190D01*
X11613809Y-17445714D01*
X11623333Y-17464762D01*
X11623333Y-17512381D01*
X11613809Y-17531429D01*
X11604286Y-17540952D01*
X11585238Y-17550476D01*
X11528095Y-17550476D01*
X11509048Y-17540952D01*
X11499524Y-17531429D01*
X11690000Y-17350476D02*
X11823333Y-17350476D01*
X11737619Y-17550476D01*
X11928095Y-17436190D02*
X11909048Y-17426667D01*
X11899524Y-17417143D01*
X11890000Y-17398095D01*
X11890000Y-17388571D01*
X11899524Y-17369524D01*
X11909048Y-17360000D01*
X11928095Y-17350476D01*
X11966190Y-17350476D01*
X11985238Y-17360000D01*
X11994762Y-17369524D01*
X12004286Y-17388571D01*
X12004286Y-17398095D01*
X11994762Y-17417143D01*
X11985238Y-17426667D01*
X11966190Y-17436190D01*
X11928095Y-17436190D01*
X11909048Y-17445714D01*
X11899524Y-17455238D01*
X11890000Y-17474286D01*
X11890000Y-17512381D01*
X11899524Y-17531429D01*
X11909048Y-17540952D01*
X11928095Y-17550476D01*
X11966190Y-17550476D01*
X11985238Y-17540952D01*
X11994762Y-17531429D01*
X12004286Y-17512381D01*
X12004286Y-17474286D01*
X11994762Y-17455238D01*
X11985238Y-17445714D01*
X11966190Y-17436190D01*
X12080476Y-17350476D02*
X12080476Y-17388571D01*
X12156667Y-17350476D02*
X12156667Y-17388571D01*
X12451905Y-17626667D02*
X12442381Y-17617143D01*
X12423333Y-17588571D01*
X12413809Y-17569524D01*
X12404286Y-17540952D01*
X12394762Y-17493333D01*
X12394762Y-17455238D01*
X12404286Y-17407619D01*
X12413809Y-17379048D01*
X12423333Y-17360000D01*
X12442381Y-17331429D01*
X12451905Y-17321905D01*
X12556667Y-17436190D02*
X12537619Y-17426667D01*
X12528095Y-17417143D01*
X12518571Y-17398095D01*
X12518571Y-17388571D01*
X12528095Y-17369524D01*
X12537619Y-17360000D01*
X12556667Y-17350476D01*
X12594762Y-17350476D01*
X12613809Y-17360000D01*
X12623333Y-17369524D01*
X12632857Y-17388571D01*
X12632857Y-17398095D01*
X12623333Y-17417143D01*
X12613809Y-17426667D01*
X12594762Y-17436190D01*
X12556667Y-17436190D01*
X12537619Y-17445714D01*
X12528095Y-17455238D01*
X12518571Y-17474286D01*
X12518571Y-17512381D01*
X12528095Y-17531429D01*
X12537619Y-17540952D01*
X12556667Y-17550476D01*
X12594762Y-17550476D01*
X12613809Y-17540952D01*
X12623333Y-17531429D01*
X12632857Y-17512381D01*
X12632857Y-17474286D01*
X12623333Y-17455238D01*
X12613809Y-17445714D01*
X12594762Y-17436190D01*
X12870952Y-17550476D02*
X12870952Y-17350476D01*
X12956667Y-17550476D02*
X12956667Y-17445714D01*
X12947143Y-17426667D01*
X12928095Y-17417143D01*
X12899524Y-17417143D01*
X12880476Y-17426667D01*
X12870952Y-17436190D01*
X13080476Y-17550476D02*
X13061428Y-17540952D01*
X13051905Y-17531429D01*
X13042381Y-17512381D01*
X13042381Y-17455238D01*
X13051905Y-17436190D01*
X13061428Y-17426667D01*
X13080476Y-17417143D01*
X13109048Y-17417143D01*
X13128095Y-17426667D01*
X13137619Y-17436190D01*
X13147143Y-17455238D01*
X13147143Y-17512381D01*
X13137619Y-17531429D01*
X13128095Y-17540952D01*
X13109048Y-17550476D01*
X13080476Y-17550476D01*
X13261428Y-17550476D02*
X13242381Y-17540952D01*
X13232857Y-17521905D01*
X13232857Y-17350476D01*
X13413809Y-17540952D02*
X13394762Y-17550476D01*
X13356667Y-17550476D01*
X13337619Y-17540952D01*
X13328095Y-17521905D01*
X13328095Y-17445714D01*
X13337619Y-17426667D01*
X13356667Y-17417143D01*
X13394762Y-17417143D01*
X13413809Y-17426667D01*
X13423333Y-17445714D01*
X13423333Y-17464762D01*
X13328095Y-17483810D01*
X13499524Y-17540952D02*
X13518571Y-17550476D01*
X13556667Y-17550476D01*
X13575714Y-17540952D01*
X13585238Y-17521905D01*
X13585238Y-17512381D01*
X13575714Y-17493333D01*
X13556667Y-17483810D01*
X13528095Y-17483810D01*
X13509048Y-17474286D01*
X13499524Y-17455238D01*
X13499524Y-17445714D01*
X13509048Y-17426667D01*
X13528095Y-17417143D01*
X13556667Y-17417143D01*
X13575714Y-17426667D01*
X13651905Y-17626667D02*
X13661428Y-17617143D01*
X13680476Y-17588571D01*
X13690000Y-17569524D01*
X13699524Y-17540952D01*
X13709048Y-17493333D01*
X13709048Y-17455238D01*
X13699524Y-17407619D01*
X13690000Y-17379048D01*
X13680476Y-17360000D01*
X13661428Y-17331429D01*
X13651905Y-17321905D01*
M02*
