G04 This is an RS-274x file exported by *
G04 gerbv version 2.7.0 *
G04 More information is available about gerbv at *
G04 http://gerbv.geda-project.org/ *
G04 --End of header info--*
%MOIN*%
%FSLAX36Y36*%
%IPPOS*%
G04 --Define apertures--*
%ADD10R,0.0709X0.0394*%
%ADD11R,0.0984X0.0906*%
%ADD12R,0.0866X0.0413*%
%ADD13R,0.0413X0.0394*%
%ADD14R,0.1299X0.0984*%
%ADD15R,0.0177X0.0236*%
%ADD16R,0.1161X0.1378*%
%ADD17R,0.0315X0.0354*%
%ADD18R,0.0256X0.0689*%
%ADD19R,0.0256X0.0394*%
%ADD20R,0.0453X0.0551*%
%ADD21R,0.0551X0.0453*%
%ADD22R,0.0988X0.0394*%
%ADD23R,0.0354X0.0315*%
%ADD24R,0.0157X0.0591*%
%ADD25O,0.0492X0.0374*%
%ADD26R,0.0472X0.0610*%
%ADD27O,0.0350X0.0610*%
%ADD28R,0.0591X0.0610*%
%ADD29R,0.0157X0.0531*%
%ADD30R,0.0417X0.0256*%
%ADD31R,0.0709X0.0984*%
%ADD32R,0.0984X0.0709*%
%ADD33R,0.0256X0.0417*%
%ADD34R,0.1378X0.1161*%
G04 --Start main section--*
G54D10*
G01X6652000Y-3886787D03*
G01X6652000Y-3985213D03*
G36*
G01X6116776Y-2046089D02*
G01X6116776Y-2025911D01*
G75*
G02X6125388Y-2017299I0008612J0000000D01*
G01X6142612Y-2017299D01*
G75*
G02X6151224Y-2025911I0000000J-008612D01*
G01X6151224Y-2046089D01*
G75*
G02X6142612Y-2054701I-008612J0000000D01*
G01X6125388Y-2054701D01*
G75*
G02X6116776Y-2046089I0000000J0008612D01*
G37*
G36*
G01X6054768Y-2046089D02*
G01X6054768Y-2025911D01*
G75*
G02X6063380Y-2017299I0008612J0000000D01*
G01X6080604Y-2017299D01*
G75*
G02X6089217Y-2025911I0000000J-008612D01*
G01X6089217Y-2046089D01*
G75*
G02X6080604Y-2054701I-008612J0000000D01*
G01X6063380Y-2054701D01*
G75*
G02X6054768Y-2046089I0000000J0008612D01*
G37*
G54D11*
G01X4921791Y-4425000D03*
G01X4752500Y-4425000D03*
G36*
G01X6425173Y-2121732D02*
G01X6446827Y-2121732D01*
G75*
G02X6454701Y-2129606I0000000J-007874D01*
G01X6454701Y-2145354D01*
G75*
G02X6446827Y-2153228I-007874J0000000D01*
G01X6425173Y-2153228D01*
G75*
G02X6417299Y-2145354I0000000J0007874D01*
G01X6417299Y-2129606D01*
G75*
G02X6425173Y-2121732I0007874J0000000D01*
G37*
G36*
G01X6425173Y-2056772D02*
G01X6446827Y-2056772D01*
G75*
G02X6454701Y-2064646I0000000J-007874D01*
G01X6454701Y-2080394D01*
G75*
G02X6446827Y-2088268I-007874J0000000D01*
G01X6425173Y-2088268D01*
G75*
G02X6417299Y-2080394I0000000J0007874D01*
G01X6417299Y-2064646D01*
G75*
G02X6425173Y-2056772I0007874J0000000D01*
G37*
G54D12*
G01X6169000Y-2408000D03*
G54D13*
G01X6229039Y-2349929D03*
G54D12*
G01X6169000Y-2291858D03*
G36*
G01X6515693Y-1994657D02*
G01X6515693Y-2014343D01*
G75*
G02X6506835Y-2023201I-008858J0000000D01*
G01X6489118Y-2023201D01*
G75*
G02X6480260Y-2014343I0000000J0008858D01*
G01X6480260Y-1994657D01*
G75*
G02X6489118Y-1985799I0008858J0000000D01*
G01X6506835Y-1985799D01*
G75*
G02X6515693Y-1994657I0000000J-008858D01*
G37*
G36*
G01X6576717Y-1994657D02*
G01X6576717Y-2014343D01*
G75*
G02X6567858Y-2023201I-008858J0000000D01*
G01X6550142Y-2023201D01*
G75*
G02X6541283Y-2014343I0000000J0008858D01*
G01X6541283Y-1994657D01*
G75*
G02X6550142Y-1985799I0008858J0000000D01*
G01X6567858Y-1985799D01*
G75*
G02X6576717Y-1994657I0000000J-008858D01*
G37*
G36*
G01X6327205Y-2440650D02*
G01X6327205Y-2459350D01*
G75*
G02X6317854Y-2468701I-009350J0000000D01*
G01X6294232Y-2468701D01*
G75*
G02X6284882Y-2459350I0000000J0009350D01*
G01X6284882Y-2440650D01*
G75*
G02X6294232Y-2431299I0009350J0000000D01*
G01X6317854Y-2431299D01*
G75*
G02X6327205Y-2440650I0000000J-009350D01*
G37*
G36*
G01X6395118Y-2440650D02*
G01X6395118Y-2459350D01*
G75*
G02X6385768Y-2468701I-009350J0000000D01*
G01X6362146Y-2468701D01*
G75*
G02X6352795Y-2459350I0000000J0009350D01*
G01X6352795Y-2440650D01*
G75*
G02X6362146Y-2431299I0009350J0000000D01*
G01X6385768Y-2431299D01*
G75*
G02X6395118Y-2440650I0000000J-009350D01*
G37*
G36*
G01X4017961Y-2128209D02*
G01X4062039Y-2128209D01*
G75*
G02X4075433Y-2141602I0000000J-013394D01*
G01X4075433Y-2201429D01*
G75*
G02X4062039Y-2214823I-013394J0000000D01*
G01X4017961Y-2214823D01*
G75*
G02X4004567Y-2201429I0000000J0013394D01*
G01X4004567Y-2141602D01*
G75*
G02X4017961Y-2128209I0013394J0000000D01*
G37*
G36*
G01X4017961Y-2005177D02*
G01X4062039Y-2005177D01*
G75*
G02X4075433Y-2018571I0000000J-013394D01*
G01X4075433Y-2078398D01*
G75*
G02X4062039Y-2091791I-013394J0000000D01*
G01X4017961Y-2091791D01*
G75*
G02X4004567Y-2078398I0000000J0013394D01*
G01X4004567Y-2018571D01*
G75*
G02X4017961Y-2005177I0013394J0000000D01*
G37*
G36*
G01X4387039Y-2011791D02*
G01X4342961Y-2011791D01*
G75*
G02X4329567Y-1998398I0000000J0013394D01*
G01X4329567Y-1938571D01*
G75*
G02X4342961Y-1925177I0013394J0000000D01*
G01X4387039Y-1925177D01*
G75*
G02X4400433Y-1938571I0000000J-013394D01*
G01X4400433Y-1998398D01*
G75*
G02X4387039Y-2011791I-013394J0000000D01*
G37*
G36*
G01X4387039Y-2134823D02*
G01X4342961Y-2134823D01*
G75*
G02X4329567Y-2121429I0000000J0013394D01*
G01X4329567Y-2061602D01*
G75*
G02X4342961Y-2048209I0013394J0000000D01*
G01X4387039Y-2048209D01*
G75*
G02X4400433Y-2061602I0000000J-013394D01*
G01X4400433Y-2121429D01*
G75*
G02X4387039Y-2134823I-013394J0000000D01*
G37*
G36*
G01X6944606Y-2005010D02*
G01X6944606Y-1974990D01*
G75*
G02X6953219Y-1966378I0008612J0000000D01*
G01X6970443Y-1966378D01*
G75*
G02X6979055Y-1974990I0000000J-008612D01*
G01X6979055Y-2005010D01*
G75*
G02X6970443Y-2013622I-008612J0000000D01*
G01X6953219Y-2013622D01*
G75*
G02X6944606Y-2005010I0000000J0008612D01*
G37*
G36*
G01X6860945Y-2005010D02*
G01X6860945Y-1974990D01*
G75*
G02X6869557Y-1966378I0008612J0000000D01*
G01X6886781Y-1966378D01*
G75*
G02X6895394Y-1974990I0000000J-008612D01*
G01X6895394Y-2005010D01*
G75*
G02X6886781Y-2013622I-008612J0000000D01*
G01X6869557Y-2013622D01*
G75*
G02X6860945Y-2005010I0000000J0008612D01*
G37*
G36*
G01X7268701Y-2089685D02*
G01X7231299Y-2089685D01*
G75*
G02X7221457Y-2079843I0000000J0009843D01*
G01X7221457Y-2060157D01*
G75*
G02X7231299Y-2050315I0009843J0000000D01*
G01X7268701Y-2050315D01*
G75*
G02X7278543Y-2060157I0000000J-009843D01*
G01X7278543Y-2079843D01*
G75*
G02X7268701Y-2089685I-009843J0000000D01*
G37*
G36*
G01X7268701Y-2164488D02*
G01X7231299Y-2164488D01*
G75*
G02X7221457Y-2154646I0000000J0009843D01*
G01X7221457Y-2134961D01*
G75*
G02X7231299Y-2125118I0009843J0000000D01*
G01X7268701Y-2125118D01*
G75*
G02X7278543Y-2134961I0000000J-009843D01*
G01X7278543Y-2154646D01*
G75*
G02X7268701Y-2164488I-009843J0000000D01*
G37*
G36*
G01X4543780Y-1740089D02*
G01X4543780Y-1719911D01*
G75*
G02X4552392Y-1711299I0008612J0000000D01*
G01X4569616Y-1711299D01*
G75*
G02X4578228Y-1719911I0000000J-008612D01*
G01X4578228Y-1740089D01*
G75*
G02X4569616Y-1748701I-008612J0000000D01*
G01X4552392Y-1748701D01*
G75*
G02X4543780Y-1740089I0000000J0008612D01*
G37*
G36*
G01X4481772Y-1740089D02*
G01X4481772Y-1719911D01*
G75*
G02X4490384Y-1711299I0008612J0000000D01*
G01X4507608Y-1711299D01*
G75*
G02X4516220Y-1719911I0000000J-008612D01*
G01X4516220Y-1740089D01*
G75*
G02X4507608Y-1748701I-008612J0000000D01*
G01X4490384Y-1748701D01*
G75*
G02X4481772Y-1740089I0000000J0008612D01*
G37*
G36*
G01X4516220Y-1659911D02*
G01X4516220Y-1680089D01*
G75*
G02X4507608Y-1688701I-008612J0000000D01*
G01X4490384Y-1688701D01*
G75*
G02X4481772Y-1680089I0000000J0008612D01*
G01X4481772Y-1659911D01*
G75*
G02X4490384Y-1651299I0008612J0000000D01*
G01X4507608Y-1651299D01*
G75*
G02X4516220Y-1659911I0000000J-008612D01*
G37*
G36*
G01X4578228Y-1659911D02*
G01X4578228Y-1680089D01*
G75*
G02X4569616Y-1688701I-008612J0000000D01*
G01X4552392Y-1688701D01*
G75*
G02X4543780Y-1680089I0000000J0008612D01*
G01X4543780Y-1659911D01*
G75*
G02X4552392Y-1651299I0008612J0000000D01*
G01X4569616Y-1651299D01*
G75*
G02X4578228Y-1659911I0000000J-008612D01*
G37*
G36*
G01X5381420Y-3032511D02*
G01X5381420Y-3052689D01*
G75*
G02X5372808Y-3061301I-008612J0000000D01*
G01X5355584Y-3061301D01*
G75*
G02X5346972Y-3052689I0000000J0008612D01*
G01X5346972Y-3032511D01*
G75*
G02X5355584Y-3023899I0008612J0000000D01*
G01X5372808Y-3023899D01*
G75*
G02X5381420Y-3032511I0000000J-008612D01*
G37*
G36*
G01X5443428Y-3032511D02*
G01X5443428Y-3052689D01*
G75*
G02X5434816Y-3061301I-008612J0000000D01*
G01X5417592Y-3061301D01*
G75*
G02X5408980Y-3052689I0000000J0008612D01*
G01X5408980Y-3032511D01*
G75*
G02X5417592Y-3023899I0008612J0000000D01*
G01X5434816Y-3023899D01*
G75*
G02X5443428Y-3032511I0000000J-008612D01*
G37*
G36*
G01X4264511Y-4033780D02*
G01X4284689Y-4033780D01*
G75*
G02X4293301Y-4042392I0000000J-008612D01*
G01X4293301Y-4059616D01*
G75*
G02X4284689Y-4068228I-008612J0000000D01*
G01X4264511Y-4068228D01*
G75*
G02X4255899Y-4059616I0000000J0008612D01*
G01X4255899Y-4042392D01*
G75*
G02X4264511Y-4033780I0008612J0000000D01*
G37*
G36*
G01X4264511Y-3971772D02*
G01X4284689Y-3971772D01*
G75*
G02X4293301Y-3980384I0000000J-008612D01*
G01X4293301Y-3997608D01*
G75*
G02X4284689Y-4006220I-008612J0000000D01*
G01X4264511Y-4006220D01*
G75*
G02X4255899Y-3997608I0000000J0008612D01*
G01X4255899Y-3980384D01*
G75*
G02X4264511Y-3971772I0008612J0000000D01*
G37*
G36*
G01X4244511Y-3203380D02*
G01X4264689Y-3203380D01*
G75*
G02X4273301Y-3211992I0000000J-008612D01*
G01X4273301Y-3229216D01*
G75*
G02X4264689Y-3237828I-008612J0000000D01*
G01X4244511Y-3237828D01*
G75*
G02X4235899Y-3229216I0000000J0008612D01*
G01X4235899Y-3211992D01*
G75*
G02X4244511Y-3203380I0008612J0000000D01*
G37*
G36*
G01X4244511Y-3141372D02*
G01X4264689Y-3141372D01*
G75*
G02X4273301Y-3149984I0000000J-008612D01*
G01X4273301Y-3167208D01*
G75*
G02X4264689Y-3175820I-008612J0000000D01*
G01X4244511Y-3175820D01*
G75*
G02X4235899Y-3167208I0000000J0008612D01*
G01X4235899Y-3149984D01*
G75*
G02X4244511Y-3141372I0008612J0000000D01*
G37*
G54D14*
G01X5230000Y-2676142D03*
G01X5230000Y-2943858D03*
G01X4030000Y-4373858D03*
G01X4030000Y-4106142D03*
G36*
G01X6107752Y-4289783D02*
G01X6107752Y-4325217D01*
G75*
G02X6097909Y-4335059I-009842J0000000D01*
G01X6077240Y-4335059D01*
G75*
G02X6067398Y-4325217I0000000J0009842D01*
G01X6067398Y-4289783D01*
G75*
G02X6077240Y-4279941I0009842J0000000D01*
G01X6097909Y-4279941D01*
G75*
G02X6107752Y-4289783I0000000J-009842D01*
G37*
G36*
G01X6179602Y-4289783D02*
G01X6179602Y-4325217D01*
G75*
G02X6169760Y-4335059I-009842J0000000D01*
G01X6149091Y-4335059D01*
G75*
G02X6139248Y-4325217I0000000J0009842D01*
G01X6139248Y-4289783D01*
G75*
G02X6149091Y-4279941I0009842J0000000D01*
G01X6169760Y-4279941D01*
G75*
G02X6179602Y-4289783I0000000J-009842D01*
G37*
G36*
G01X4440461Y-2048209D02*
G01X4484539Y-2048209D01*
G75*
G02X4497933Y-2061602I0000000J-013394D01*
G01X4497933Y-2121429D01*
G75*
G02X4484539Y-2134823I-013394J0000000D01*
G01X4440461Y-2134823D01*
G75*
G02X4427067Y-2121429I0000000J0013394D01*
G01X4427067Y-2061602D01*
G75*
G02X4440461Y-2048209I0013394J0000000D01*
G37*
G36*
G01X4440461Y-1925177D02*
G01X4484539Y-1925177D01*
G75*
G02X4497933Y-1938571I0000000J-013394D01*
G01X4497933Y-1998398D01*
G75*
G02X4484539Y-2011791I-013394J0000000D01*
G01X4440461Y-2011791D01*
G75*
G02X4427067Y-1998398I0000000J0013394D01*
G01X4427067Y-1938571D01*
G75*
G02X4440461Y-1925177I0013394J0000000D01*
G37*
G36*
G01X4547961Y-2049724D02*
G01X4592039Y-2049724D01*
G75*
G02X4605433Y-2063118I0000000J-013394D01*
G01X4605433Y-2122945D01*
G75*
G02X4592039Y-2136339I-013394J0000000D01*
G01X4547961Y-2136339D01*
G75*
G02X4534567Y-2122945I0000000J0013394D01*
G01X4534567Y-2063118D01*
G75*
G02X4547961Y-2049724I0013394J0000000D01*
G37*
G36*
G01X4547961Y-1926693D02*
G01X4592039Y-1926693D01*
G75*
G02X4605433Y-1940087I0000000J-013394D01*
G01X4605433Y-1999913D01*
G75*
G02X4592039Y-2013307I-013394J0000000D01*
G01X4547961Y-2013307D01*
G75*
G02X4534567Y-1999913I0000000J0013394D01*
G01X4534567Y-1940087D01*
G75*
G02X4547961Y-1926693I0013394J0000000D01*
G37*
G36*
G01X4117961Y-2126693D02*
G01X4162039Y-2126693D01*
G75*
G02X4175433Y-2140087I0000000J-013394D01*
G01X4175433Y-2199913D01*
G75*
G02X4162039Y-2213307I-013394J0000000D01*
G01X4117961Y-2213307D01*
G75*
G02X4104567Y-2199913I0000000J0013394D01*
G01X4104567Y-2140087D01*
G75*
G02X4117961Y-2126693I0013394J0000000D01*
G37*
G36*
G01X4117961Y-2003661D02*
G01X4162039Y-2003661D01*
G75*
G02X4175433Y-2017055I0000000J-013394D01*
G01X4175433Y-2076882D01*
G75*
G02X4162039Y-2090276I-013394J0000000D01*
G01X4117961Y-2090276D01*
G75*
G02X4104567Y-2076882I0000000J0013394D01*
G01X4104567Y-2017055D01*
G75*
G02X4117961Y-2003661I0013394J0000000D01*
G37*
G36*
G01X4319724Y-1902039D02*
G01X4319724Y-1857961D01*
G75*
G02X4333118Y-1844567I0013394J0000000D01*
G01X4392945Y-1844567D01*
G75*
G02X4406339Y-1857961I0000000J-013394D01*
G01X4406339Y-1902039D01*
G75*
G02X4392945Y-1915433I-013394J0000000D01*
G01X4333118Y-1915433D01*
G75*
G02X4319724Y-1902039I0000000J0013394D01*
G37*
G36*
G01X4196693Y-1902039D02*
G01X4196693Y-1857961D01*
G75*
G02X4210087Y-1844567I0013394J0000000D01*
G01X4269913Y-1844567D01*
G75*
G02X4283307Y-1857961I0000000J-013394D01*
G01X4283307Y-1902039D01*
G75*
G02X4269913Y-1915433I-013394J0000000D01*
G01X4210087Y-1915433D01*
G75*
G02X4196693Y-1902039I0000000J0013394D01*
G37*
G36*
G01X4217961Y-2126693D02*
G01X4262039Y-2126693D01*
G75*
G02X4275433Y-2140087I0000000J-013394D01*
G01X4275433Y-2199913D01*
G75*
G02X4262039Y-2213307I-013394J0000000D01*
G01X4217961Y-2213307D01*
G75*
G02X4204567Y-2199913I0000000J0013394D01*
G01X4204567Y-2140087D01*
G75*
G02X4217961Y-2126693I0013394J0000000D01*
G37*
G36*
G01X4217961Y-2003661D02*
G01X4262039Y-2003661D01*
G75*
G02X4275433Y-2017055I0000000J-013394D01*
G01X4275433Y-2076882D01*
G75*
G02X4262039Y-2090276I-013394J0000000D01*
G01X4217961Y-2090276D01*
G75*
G02X4204567Y-2076882I0000000J0013394D01*
G01X4204567Y-2017055D01*
G75*
G02X4217961Y-2003661I0013394J0000000D01*
G37*
G36*
G01X5717961Y-2068709D02*
G01X5762039Y-2068709D01*
G75*
G02X5775433Y-2082102I0000000J-013394D01*
G01X5775433Y-2141929D01*
G75*
G02X5762039Y-2155323I-013394J0000000D01*
G01X5717961Y-2155323D01*
G75*
G02X5704567Y-2141929I0000000J0013394D01*
G01X5704567Y-2082102D01*
G75*
G02X5717961Y-2068709I0013394J0000000D01*
G37*
G36*
G01X5717961Y-1945677D02*
G01X5762039Y-1945677D01*
G75*
G02X5775433Y-1959071I0000000J-013394D01*
G01X5775433Y-2018898D01*
G75*
G02X5762039Y-2032291I-013394J0000000D01*
G01X5717961Y-2032291D01*
G75*
G02X5704567Y-2018898I0000000J0013394D01*
G01X5704567Y-1959071D01*
G75*
G02X5717961Y-1945677I0013394J0000000D01*
G37*
G36*
G01X6458720Y-2700411D02*
G01X6458720Y-2720589D01*
G75*
G02X6450108Y-2729201I-008612J0000000D01*
G01X6432884Y-2729201D01*
G75*
G02X6424272Y-2720589I0000000J0008612D01*
G01X6424272Y-2700411D01*
G75*
G02X6432884Y-2691799I0008612J0000000D01*
G01X6450108Y-2691799D01*
G75*
G02X6458720Y-2700411I0000000J-008612D01*
G37*
G36*
G01X6520728Y-2700411D02*
G01X6520728Y-2720589D01*
G75*
G02X6512116Y-2729201I-008612J0000000D01*
G01X6494892Y-2729201D01*
G75*
G02X6486280Y-2720589I0000000J0008612D01*
G01X6486280Y-2700411D01*
G75*
G02X6494892Y-2691799I0008612J0000000D01*
G01X6512116Y-2691799D01*
G75*
G02X6520728Y-2700411I0000000J-008612D01*
G37*
G36*
G01X6385911Y-1984780D02*
G01X6406089Y-1984780D01*
G75*
G02X6414701Y-1993392I0000000J-008612D01*
G01X6414701Y-2010616D01*
G75*
G02X6406089Y-2019228I-008612J0000000D01*
G01X6385911Y-2019228D01*
G75*
G02X6377299Y-2010616I0000000J0008612D01*
G01X6377299Y-1993392D01*
G75*
G02X6385911Y-1984780I0008612J0000000D01*
G37*
G36*
G01X6385911Y-1922772D02*
G01X6406089Y-1922772D01*
G75*
G02X6414701Y-1931384I0000000J-008612D01*
G01X6414701Y-1948608D01*
G75*
G02X6406089Y-1957220I-008612J0000000D01*
G01X6385911Y-1957220D01*
G75*
G02X6377299Y-1948608I0000000J0008612D01*
G01X6377299Y-1931384D01*
G75*
G02X6385911Y-1922772I0008612J0000000D01*
G37*
G36*
G01X4396220Y-1659911D02*
G01X4396220Y-1680089D01*
G75*
G02X4387608Y-1688701I-008612J0000000D01*
G01X4370384Y-1688701D01*
G75*
G02X4361772Y-1680089I0000000J0008612D01*
G01X4361772Y-1659911D01*
G75*
G02X4370384Y-1651299I0008612J0000000D01*
G01X4387608Y-1651299D01*
G75*
G02X4396220Y-1659911I0000000J-008612D01*
G37*
G36*
G01X4458228Y-1659911D02*
G01X4458228Y-1680089D01*
G75*
G02X4449616Y-1688701I-008612J0000000D01*
G01X4432392Y-1688701D01*
G75*
G02X4423780Y-1680089I0000000J0008612D01*
G01X4423780Y-1659911D01*
G75*
G02X4432392Y-1651299I0008612J0000000D01*
G01X4449616Y-1651299D01*
G75*
G02X4458228Y-1659911I0000000J-008612D01*
G37*
G36*
G01X6773406Y-2280445D02*
G01X6761594Y-2280445D01*
G75*
G02X6755689Y-2274539I0000000J0005906D01*
G01X6755689Y-2209579D01*
G75*
G02X6761594Y-2203673I0005906J0000000D01*
G01X6773406Y-2203673D01*
G75*
G02X6779311Y-2209579I0000000J-005906D01*
G01X6779311Y-2274539D01*
G75*
G02X6773406Y-2280445I-005906J0000000D01*
G37*
G36*
G01X6823406Y-2280445D02*
G01X6811594Y-2280445D01*
G75*
G02X6805689Y-2274539I0000000J0005906D01*
G01X6805689Y-2209579D01*
G75*
G02X6811594Y-2203673I0005906J0000000D01*
G01X6823406Y-2203673D01*
G75*
G02X6829311Y-2209579I0000000J-005906D01*
G01X6829311Y-2274539D01*
G75*
G02X6823406Y-2280445I-005906J0000000D01*
G37*
G36*
G01X6873406Y-2280445D02*
G01X6861594Y-2280445D01*
G75*
G02X6855689Y-2274539I0000000J0005906D01*
G01X6855689Y-2209579D01*
G75*
G02X6861594Y-2203673I0005906J0000000D01*
G01X6873406Y-2203673D01*
G75*
G02X6879311Y-2209579I0000000J-005906D01*
G01X6879311Y-2274539D01*
G75*
G02X6873406Y-2280445I-005906J0000000D01*
G37*
G36*
G01X6923406Y-2280445D02*
G01X6911594Y-2280445D01*
G75*
G02X6905689Y-2274539I0000000J0005906D01*
G01X6905689Y-2209579D01*
G75*
G02X6911594Y-2203673I0005906J0000000D01*
G01X6923406Y-2203673D01*
G75*
G02X6929311Y-2209579I0000000J-005906D01*
G01X6929311Y-2274539D01*
G75*
G02X6923406Y-2280445I-005906J0000000D01*
G37*
G36*
G01X6973406Y-2280445D02*
G01X6961594Y-2280445D01*
G75*
G02X6955689Y-2274539I0000000J0005906D01*
G01X6955689Y-2209579D01*
G75*
G02X6961594Y-2203673I0005906J0000000D01*
G01X6973406Y-2203673D01*
G75*
G02X6979311Y-2209579I0000000J-005906D01*
G01X6979311Y-2274539D01*
G75*
G02X6973406Y-2280445I-005906J0000000D01*
G37*
G36*
G01X7023406Y-2280445D02*
G01X7011594Y-2280445D01*
G75*
G02X7005689Y-2274539I0000000J0005906D01*
G01X7005689Y-2209579D01*
G75*
G02X7011594Y-2203673I0005906J0000000D01*
G01X7023406Y-2203673D01*
G75*
G02X7029311Y-2209579I0000000J-005906D01*
G01X7029311Y-2274539D01*
G75*
G02X7023406Y-2280445I-005906J0000000D01*
G37*
G36*
G01X7073406Y-2280445D02*
G01X7061594Y-2280445D01*
G75*
G02X7055689Y-2274539I0000000J0005906D01*
G01X7055689Y-2209579D01*
G75*
G02X7061594Y-2203673I0005906J0000000D01*
G01X7073406Y-2203673D01*
G75*
G02X7079311Y-2209579I0000000J-005906D01*
G01X7079311Y-2274539D01*
G75*
G02X7073406Y-2280445I-005906J0000000D01*
G37*
G36*
G01X7073406Y-2475327D02*
G01X7061594Y-2475327D01*
G75*
G02X7055689Y-2469421I0000000J0005906D01*
G01X7055689Y-2404461D01*
G75*
G02X7061594Y-2398555I0005906J0000000D01*
G01X7073406Y-2398555D01*
G75*
G02X7079311Y-2404461I0000000J-005906D01*
G01X7079311Y-2469421D01*
G75*
G02X7073406Y-2475327I-005906J0000000D01*
G37*
G36*
G01X7023406Y-2475327D02*
G01X7011594Y-2475327D01*
G75*
G02X7005689Y-2469421I0000000J0005906D01*
G01X7005689Y-2404461D01*
G75*
G02X7011594Y-2398555I0005906J0000000D01*
G01X7023406Y-2398555D01*
G75*
G02X7029311Y-2404461I0000000J-005906D01*
G01X7029311Y-2469421D01*
G75*
G02X7023406Y-2475327I-005906J0000000D01*
G37*
G36*
G01X6973406Y-2475327D02*
G01X6961594Y-2475327D01*
G75*
G02X6955689Y-2469421I0000000J0005906D01*
G01X6955689Y-2404461D01*
G75*
G02X6961594Y-2398555I0005906J0000000D01*
G01X6973406Y-2398555D01*
G75*
G02X6979311Y-2404461I0000000J-005906D01*
G01X6979311Y-2469421D01*
G75*
G02X6973406Y-2475327I-005906J0000000D01*
G37*
G36*
G01X6923406Y-2475327D02*
G01X6911594Y-2475327D01*
G75*
G02X6905689Y-2469421I0000000J0005906D01*
G01X6905689Y-2404461D01*
G75*
G02X6911594Y-2398555I0005906J0000000D01*
G01X6923406Y-2398555D01*
G75*
G02X6929311Y-2404461I0000000J-005906D01*
G01X6929311Y-2469421D01*
G75*
G02X6923406Y-2475327I-005906J0000000D01*
G37*
G36*
G01X6873406Y-2475327D02*
G01X6861594Y-2475327D01*
G75*
G02X6855689Y-2469421I0000000J0005906D01*
G01X6855689Y-2404461D01*
G75*
G02X6861594Y-2398555I0005906J0000000D01*
G01X6873406Y-2398555D01*
G75*
G02X6879311Y-2404461I0000000J-005906D01*
G01X6879311Y-2469421D01*
G75*
G02X6873406Y-2475327I-005906J0000000D01*
G37*
G36*
G01X6823406Y-2475327D02*
G01X6811594Y-2475327D01*
G75*
G02X6805689Y-2469421I0000000J0005906D01*
G01X6805689Y-2404461D01*
G75*
G02X6811594Y-2398555I0005906J0000000D01*
G01X6823406Y-2398555D01*
G75*
G02X6829311Y-2404461I0000000J-005906D01*
G01X6829311Y-2469421D01*
G75*
G02X6823406Y-2475327I-005906J0000000D01*
G37*
G36*
G01X6773406Y-2475327D02*
G01X6761594Y-2475327D01*
G75*
G02X6755689Y-2469421I0000000J0005906D01*
G01X6755689Y-2404461D01*
G75*
G02X6761594Y-2398555I0005906J0000000D01*
G01X6773406Y-2398555D01*
G75*
G02X6779311Y-2404461I0000000J-005906D01*
G01X6779311Y-2469421D01*
G75*
G02X6773406Y-2475327I-005906J0000000D01*
G37*
G54D15*
G01X5830000Y-2111339D03*
G01X5830000Y-2028661D03*
G01X4360000Y-1728661D03*
G01X4360000Y-1811339D03*
G36*
G01X6022717Y-5149252D02*
G01X5987283Y-5149252D01*
G75*
G02X5977441Y-5139409I0000000J0009842D01*
G01X5977441Y-5118740D01*
G75*
G02X5987283Y-5108898I0009842J0000000D01*
G01X6022717Y-5108898D01*
G75*
G02X6032559Y-5118740I0000000J-009842D01*
G01X6032559Y-5139409D01*
G75*
G02X6022717Y-5149252I-009842J0000000D01*
G37*
G36*
G01X6022717Y-5221102D02*
G01X5987283Y-5221102D01*
G75*
G02X5977441Y-5211260I0000000J0009842D01*
G01X5977441Y-5190591D01*
G75*
G02X5987283Y-5180748I0009842J0000000D01*
G01X6022717Y-5180748D01*
G75*
G02X6032559Y-5190591I0000000J-009842D01*
G01X6032559Y-5211260D01*
G75*
G02X6022717Y-5221102I-009842J0000000D01*
G37*
G36*
G01X7200177Y-4849783D02*
G01X7200177Y-4885217D01*
G75*
G02X7190335Y-4895059I-009842J0000000D01*
G01X7169665Y-4895059D01*
G75*
G02X7159823Y-4885217I0000000J0009842D01*
G01X7159823Y-4849783D01*
G75*
G02X7169665Y-4839941I0009842J0000000D01*
G01X7190335Y-4839941D01*
G75*
G02X7200177Y-4849783I0000000J-009842D01*
G37*
G36*
G01X7272028Y-4849783D02*
G01X7272028Y-4885217D01*
G75*
G02X7262185Y-4895059I-009842J0000000D01*
G01X7241516Y-4895059D01*
G75*
G02X7231673Y-4885217I0000000J0009842D01*
G01X7231673Y-4849783D01*
G75*
G02X7241516Y-4839941I0009842J0000000D01*
G01X7262185Y-4839941D01*
G75*
G02X7272028Y-4849783I0000000J-009842D01*
G37*
G36*
G01X4379823Y-4507717D02*
G01X4379823Y-4472283D01*
G75*
G02X4389665Y-4462441I0009842J0000000D01*
G01X4410335Y-4462441D01*
G75*
G02X4420177Y-4472283I0000000J-009842D01*
G01X4420177Y-4507717D01*
G75*
G02X4410335Y-4517559I-009842J0000000D01*
G01X4389665Y-4517559D01*
G75*
G02X4379823Y-4507717I0000000J0009842D01*
G37*
G36*
G01X4307972Y-4507717D02*
G01X4307972Y-4472283D01*
G75*
G02X4317815Y-4462441I0009842J0000000D01*
G01X4338484Y-4462441D01*
G75*
G02X4348327Y-4472283I0000000J-009842D01*
G01X4348327Y-4507717D01*
G75*
G02X4338484Y-4517559I-009842J0000000D01*
G01X4317815Y-4517559D01*
G75*
G02X4307972Y-4507717I0000000J0009842D01*
G37*
G36*
G01X3919783Y-4915748D02*
G01X3955217Y-4915748D01*
G75*
G02X3965059Y-4925591I0000000J-009842D01*
G01X3965059Y-4946260D01*
G75*
G02X3955217Y-4956102I-009842J0000000D01*
G01X3919783Y-4956102D01*
G75*
G02X3909941Y-4946260I0000000J0009842D01*
G01X3909941Y-4925591D01*
G75*
G02X3919783Y-4915748I0009842J0000000D01*
G37*
G36*
G01X3919783Y-4843898D02*
G01X3955217Y-4843898D01*
G75*
G02X3965059Y-4853740I0000000J-009842D01*
G01X3965059Y-4874409D01*
G75*
G02X3955217Y-4884252I-009842J0000000D01*
G01X3919783Y-4884252D01*
G75*
G02X3909941Y-4874409I0000000J0009842D01*
G01X3909941Y-4853740D01*
G75*
G02X3919783Y-4843898I0009842J0000000D01*
G37*
G36*
G01X5711673Y-2617717D02*
G01X5711673Y-2582283D01*
G75*
G02X5721516Y-2572441I0009842J0000000D01*
G01X5742185Y-2572441D01*
G75*
G02X5752028Y-2582283I0000000J-009842D01*
G01X5752028Y-2617717D01*
G75*
G02X5742185Y-2627559I-009842J0000000D01*
G01X5721516Y-2627559D01*
G75*
G02X5711673Y-2617717I0000000J0009842D01*
G37*
G36*
G01X5639823Y-2617717D02*
G01X5639823Y-2582283D01*
G75*
G02X5649665Y-2572441I0009842J0000000D01*
G01X5670335Y-2572441D01*
G75*
G02X5680177Y-2582283I0000000J-009842D01*
G01X5680177Y-2617717D01*
G75*
G02X5670335Y-2627559I-009842J0000000D01*
G01X5649665Y-2627559D01*
G75*
G02X5639823Y-2617717I0000000J0009842D01*
G37*
G36*
G01X7204252Y-1907283D02*
G01X7204252Y-1942717D01*
G75*
G02X7194409Y-1952559I-009842J0000000D01*
G01X7173740Y-1952559D01*
G75*
G02X7163898Y-1942717I0000000J0009842D01*
G01X7163898Y-1907283D01*
G75*
G02X7173740Y-1897441I0009842J0000000D01*
G01X7194409Y-1897441D01*
G75*
G02X7204252Y-1907283I0000000J-009842D01*
G37*
G36*
G01X7276102Y-1907283D02*
G01X7276102Y-1942717D01*
G75*
G02X7266260Y-1952559I-009842J0000000D01*
G01X7245591Y-1952559D01*
G75*
G02X7235748Y-1942717I0000000J0009842D01*
G01X7235748Y-1907283D01*
G75*
G02X7245591Y-1897441I0009842J0000000D01*
G01X7266260Y-1897441D01*
G75*
G02X7276102Y-1907283I0000000J-009842D01*
G37*
G36*
G01X4514252Y-2322283D02*
G01X4514252Y-2357717D01*
G75*
G02X4504409Y-2367559I-009842J0000000D01*
G01X4483740Y-2367559D01*
G75*
G02X4473898Y-2357717I0000000J0009842D01*
G01X4473898Y-2322283D01*
G75*
G02X4483740Y-2312441I0009842J0000000D01*
G01X4504409Y-2312441D01*
G75*
G02X4514252Y-2322283I0000000J-009842D01*
G37*
G36*
G01X4586102Y-2322283D02*
G01X4586102Y-2357717D01*
G75*
G02X4576260Y-2367559I-009842J0000000D01*
G01X4555591Y-2367559D01*
G75*
G02X4545748Y-2357717I0000000J0009842D01*
G01X4545748Y-2322283D01*
G75*
G02X4555591Y-2312441I0009842J0000000D01*
G01X4576260Y-2312441D01*
G75*
G02X4586102Y-2322283I0000000J-009842D01*
G37*
G36*
G01X3647717Y-1864252D02*
G01X3612283Y-1864252D01*
G75*
G02X3602441Y-1854409I0000000J0009842D01*
G01X3602441Y-1833740D01*
G75*
G02X3612283Y-1823898I0009842J0000000D01*
G01X3647717Y-1823898D01*
G75*
G02X3657559Y-1833740I0000000J-009842D01*
G01X3657559Y-1854409D01*
G75*
G02X3647717Y-1864252I-009842J0000000D01*
G37*
G36*
G01X3647717Y-1936102D02*
G01X3612283Y-1936102D01*
G75*
G02X3602441Y-1926260I0000000J0009842D01*
G01X3602441Y-1905591D01*
G75*
G02X3612283Y-1895748I0009842J0000000D01*
G01X3647717Y-1895748D01*
G75*
G02X3657559Y-1905591I0000000J-009842D01*
G01X3657559Y-1926260D01*
G75*
G02X3647717Y-1936102I-009842J0000000D01*
G37*
G36*
G01X5569843Y-4651205D02*
G01X5550157Y-4651205D01*
G75*
G02X5541299Y-4642346I0000000J0008858D01*
G01X5541299Y-4624630D01*
G75*
G02X5550157Y-4615772I0008858J0000000D01*
G01X5569843Y-4615772D01*
G75*
G02X5578701Y-4624630I0000000J-008858D01*
G01X5578701Y-4642346D01*
G75*
G02X5569843Y-4651205I-008858J0000000D01*
G37*
G36*
G01X5569843Y-4712228D02*
G01X5550157Y-4712228D01*
G75*
G02X5541299Y-4703370I0000000J0008858D01*
G01X5541299Y-4685654D01*
G75*
G02X5550157Y-4676795I0008858J0000000D01*
G01X5569843Y-4676795D01*
G75*
G02X5578701Y-4685654I0000000J-008858D01*
G01X5578701Y-4703370D01*
G75*
G02X5569843Y-4712228I-008858J0000000D01*
G37*
G36*
G01X5504843Y-4651205D02*
G01X5485157Y-4651205D01*
G75*
G02X5476299Y-4642346I0000000J0008858D01*
G01X5476299Y-4624630D01*
G75*
G02X5485157Y-4615772I0008858J0000000D01*
G01X5504843Y-4615772D01*
G75*
G02X5513701Y-4624630I0000000J-008858D01*
G01X5513701Y-4642346D01*
G75*
G02X5504843Y-4651205I-008858J0000000D01*
G37*
G36*
G01X5504843Y-4712228D02*
G01X5485157Y-4712228D01*
G75*
G02X5476299Y-4703370I0000000J0008858D01*
G01X5476299Y-4685654D01*
G75*
G02X5485157Y-4676795I0008858J0000000D01*
G01X5504843Y-4676795D01*
G75*
G02X5513701Y-4685654I0000000J-008858D01*
G01X5513701Y-4703370D01*
G75*
G02X5504843Y-4712228I-008858J0000000D01*
G37*
G36*
G01X7289843Y-3218205D02*
G01X7270157Y-3218205D01*
G75*
G02X7261299Y-3209346I0000000J0008858D01*
G01X7261299Y-3191630D01*
G75*
G02X7270157Y-3182772I0008858J0000000D01*
G01X7289843Y-3182772D01*
G75*
G02X7298701Y-3191630I0000000J-008858D01*
G01X7298701Y-3209346D01*
G75*
G02X7289843Y-3218205I-008858J0000000D01*
G37*
G36*
G01X7289843Y-3279228D02*
G01X7270157Y-3279228D01*
G75*
G02X7261299Y-3270370I0000000J0008858D01*
G01X7261299Y-3252654D01*
G75*
G02X7270157Y-3243795I0008858J0000000D01*
G01X7289843Y-3243795D01*
G75*
G02X7298701Y-3252654I0000000J-008858D01*
G01X7298701Y-3270370D01*
G75*
G02X7289843Y-3279228I-008858J0000000D01*
G37*
G36*
G01X6376795Y-1886843D02*
G01X6376795Y-1867157D01*
G75*
G02X6385654Y-1858299I0008858J0000000D01*
G01X6403370Y-1858299D01*
G75*
G02X6412228Y-1867157I0000000J-008858D01*
G01X6412228Y-1886843D01*
G75*
G02X6403370Y-1895701I-008858J0000000D01*
G01X6385654Y-1895701D01*
G75*
G02X6376795Y-1886843I0000000J0008858D01*
G37*
G36*
G01X6315772Y-1886843D02*
G01X6315772Y-1867157D01*
G75*
G02X6324630Y-1858299I0008858J0000000D01*
G01X6342346Y-1858299D01*
G75*
G02X6351205Y-1867157I0000000J-008858D01*
G01X6351205Y-1886843D01*
G75*
G02X6342346Y-1895701I-008858J0000000D01*
G01X6324630Y-1895701D01*
G75*
G02X6315772Y-1886843I0000000J0008858D01*
G37*
G36*
G01X6116843Y-3677205D02*
G01X6097157Y-3677205D01*
G75*
G02X6088299Y-3668346I0000000J0008858D01*
G01X6088299Y-3650630D01*
G75*
G02X6097157Y-3641772I0008858J0000000D01*
G01X6116843Y-3641772D01*
G75*
G02X6125701Y-3650630I0000000J-008858D01*
G01X6125701Y-3668346D01*
G75*
G02X6116843Y-3677205I-008858J0000000D01*
G37*
G36*
G01X6116843Y-3738228D02*
G01X6097157Y-3738228D01*
G75*
G02X6088299Y-3729370I0000000J0008858D01*
G01X6088299Y-3711654D01*
G75*
G02X6097157Y-3702795I0008858J0000000D01*
G01X6116843Y-3702795D01*
G75*
G02X6125701Y-3711654I0000000J-008858D01*
G01X6125701Y-3729370D01*
G75*
G02X6116843Y-3738228I-008858J0000000D01*
G37*
G36*
G01X6206843Y-3677205D02*
G01X6187157Y-3677205D01*
G75*
G02X6178299Y-3668346I0000000J0008858D01*
G01X6178299Y-3650630D01*
G75*
G02X6187157Y-3641772I0008858J0000000D01*
G01X6206843Y-3641772D01*
G75*
G02X6215701Y-3650630I0000000J-008858D01*
G01X6215701Y-3668346D01*
G75*
G02X6206843Y-3677205I-008858J0000000D01*
G37*
G36*
G01X6206843Y-3738228D02*
G01X6187157Y-3738228D01*
G75*
G02X6178299Y-3729370I0000000J0008858D01*
G01X6178299Y-3711654D01*
G75*
G02X6187157Y-3702795I0008858J0000000D01*
G01X6206843Y-3702795D01*
G75*
G02X6215701Y-3711654I0000000J-008858D01*
G01X6215701Y-3729370D01*
G75*
G02X6206843Y-3738228I-008858J0000000D01*
G37*
G36*
G01X6903843Y-3693205D02*
G01X6884157Y-3693205D01*
G75*
G02X6875299Y-3684346I0000000J0008858D01*
G01X6875299Y-3666630D01*
G75*
G02X6884157Y-3657772I0008858J0000000D01*
G01X6903843Y-3657772D01*
G75*
G02X6912701Y-3666630I0000000J-008858D01*
G01X6912701Y-3684346D01*
G75*
G02X6903843Y-3693205I-008858J0000000D01*
G37*
G36*
G01X6903843Y-3754228D02*
G01X6884157Y-3754228D01*
G75*
G02X6875299Y-3745370I0000000J0008858D01*
G01X6875299Y-3727654D01*
G75*
G02X6884157Y-3718795I0008858J0000000D01*
G01X6903843Y-3718795D01*
G75*
G02X6912701Y-3727654I0000000J-008858D01*
G01X6912701Y-3745370D01*
G75*
G02X6903843Y-3754228I-008858J0000000D01*
G37*
G36*
G01X6031843Y-3677205D02*
G01X6012157Y-3677205D01*
G75*
G02X6003299Y-3668346I0000000J0008858D01*
G01X6003299Y-3650630D01*
G75*
G02X6012157Y-3641772I0008858J0000000D01*
G01X6031843Y-3641772D01*
G75*
G02X6040701Y-3650630I0000000J-008858D01*
G01X6040701Y-3668346D01*
G75*
G02X6031843Y-3677205I-008858J0000000D01*
G37*
G36*
G01X6031843Y-3738228D02*
G01X6012157Y-3738228D01*
G75*
G02X6003299Y-3729370I0000000J0008858D01*
G01X6003299Y-3711654D01*
G75*
G02X6012157Y-3702795I0008858J0000000D01*
G01X6031843Y-3702795D01*
G75*
G02X6040701Y-3711654I0000000J-008858D01*
G01X6040701Y-3729370D01*
G75*
G02X6031843Y-3738228I-008858J0000000D01*
G37*
G36*
G01X5195843Y-5157205D02*
G01X5176157Y-5157205D01*
G75*
G02X5167299Y-5148346I0000000J0008858D01*
G01X5167299Y-5130630D01*
G75*
G02X5176157Y-5121772I0008858J0000000D01*
G01X5195843Y-5121772D01*
G75*
G02X5204701Y-5130630I0000000J-008858D01*
G01X5204701Y-5148346D01*
G75*
G02X5195843Y-5157205I-008858J0000000D01*
G37*
G36*
G01X5195843Y-5218228D02*
G01X5176157Y-5218228D01*
G75*
G02X5167299Y-5209370I0000000J0008858D01*
G01X5167299Y-5191654D01*
G75*
G02X5176157Y-5182795I0008858J0000000D01*
G01X5195843Y-5182795D01*
G75*
G02X5204701Y-5191654I0000000J-008858D01*
G01X5204701Y-5209370D01*
G75*
G02X5195843Y-5218228I-008858J0000000D01*
G37*
G36*
G01X5682195Y-2727043D02*
G01X5682195Y-2707357D01*
G75*
G02X5691054Y-2698499I0008858J0000000D01*
G01X5708770Y-2698499D01*
G75*
G02X5717628Y-2707357I0000000J-008858D01*
G01X5717628Y-2727043D01*
G75*
G02X5708770Y-2735901I-008858J0000000D01*
G01X5691054Y-2735901D01*
G75*
G02X5682195Y-2727043I0000000J0008858D01*
G37*
G36*
G01X5621172Y-2727043D02*
G01X5621172Y-2707357D01*
G75*
G02X5630030Y-2698499I0008858J0000000D01*
G01X5647746Y-2698499D01*
G75*
G02X5656605Y-2707357I0000000J-008858D01*
G01X5656605Y-2727043D01*
G75*
G02X5647746Y-2735901I-008858J0000000D01*
G01X5630030Y-2735901D01*
G75*
G02X5621172Y-2727043I0000000J0008858D01*
G37*
G36*
G01X5837205Y-2966157D02*
G01X5837205Y-2985843D01*
G75*
G02X5828346Y-2994701I-008858J0000000D01*
G01X5810630Y-2994701D01*
G75*
G02X5801772Y-2985843I0000000J0008858D01*
G01X5801772Y-2966157D01*
G75*
G02X5810630Y-2957299I0008858J0000000D01*
G01X5828346Y-2957299D01*
G75*
G02X5837205Y-2966157I0000000J-008858D01*
G37*
G36*
G01X5898228Y-2966157D02*
G01X5898228Y-2985843D01*
G75*
G02X5889370Y-2994701I-008858J0000000D01*
G01X5871654Y-2994701D01*
G75*
G02X5862795Y-2985843I0000000J0008858D01*
G01X5862795Y-2966157D01*
G75*
G02X5871654Y-2957299I0008858J0000000D01*
G01X5889370Y-2957299D01*
G75*
G02X5898228Y-2966157I0000000J-008858D01*
G37*
G36*
G01X4067303Y-3611157D02*
G01X4067303Y-3630843D01*
G75*
G02X4058445Y-3639701I-008858J0000000D01*
G01X4040728Y-3639701D01*
G75*
G02X4031870Y-3630843I0000000J0008858D01*
G01X4031870Y-3611157D01*
G75*
G02X4040728Y-3602299I0008858J0000000D01*
G01X4058445Y-3602299D01*
G75*
G02X4067303Y-3611157I0000000J-008858D01*
G37*
G36*
G01X4128327Y-3611157D02*
G01X4128327Y-3630843D01*
G75*
G02X4119469Y-3639701I-008858J0000000D01*
G01X4101752Y-3639701D01*
G75*
G02X4092894Y-3630843I0000000J0008858D01*
G01X4092894Y-3611157D01*
G75*
G02X4101752Y-3602299I0008858J0000000D01*
G01X4119469Y-3602299D01*
G75*
G02X4128327Y-3611157I0000000J-008858D01*
G37*
G36*
G01X4233705Y-3518057D02*
G01X4233705Y-3537743D01*
G75*
G02X4224846Y-3546601I-008858J0000000D01*
G01X4207130Y-3546601D01*
G75*
G02X4198272Y-3537743I0000000J0008858D01*
G01X4198272Y-3518057D01*
G75*
G02X4207130Y-3509199I0008858J0000000D01*
G01X4224846Y-3509199D01*
G75*
G02X4233705Y-3518057I0000000J-008858D01*
G37*
G36*
G01X4294728Y-3518057D02*
G01X4294728Y-3537743D01*
G75*
G02X4285870Y-3546601I-008858J0000000D01*
G01X4268154Y-3546601D01*
G75*
G02X4259295Y-3537743I0000000J0008858D01*
G01X4259295Y-3518057D01*
G75*
G02X4268154Y-3509199I0008858J0000000D01*
G01X4285870Y-3509199D01*
G75*
G02X4294728Y-3518057I0000000J-008858D01*
G37*
G36*
G01X4124843Y-2919705D02*
G01X4105157Y-2919705D01*
G75*
G02X4096299Y-2910846I0000000J0008858D01*
G01X4096299Y-2893130D01*
G75*
G02X4105157Y-2884272I0008858J0000000D01*
G01X4124843Y-2884272D01*
G75*
G02X4133701Y-2893130I0000000J-008858D01*
G01X4133701Y-2910846D01*
G75*
G02X4124843Y-2919705I-008858J0000000D01*
G37*
G36*
G01X4124843Y-2980728D02*
G01X4105157Y-2980728D01*
G75*
G02X4096299Y-2971870I0000000J0008858D01*
G01X4096299Y-2954154D01*
G75*
G02X4105157Y-2945295I0008858J0000000D01*
G01X4124843Y-2945295D01*
G75*
G02X4133701Y-2954154I0000000J-008858D01*
G01X4133701Y-2971870D01*
G75*
G02X4124843Y-2980728I-008858J0000000D01*
G37*
G36*
G01X4153157Y-2768795D02*
G01X4172843Y-2768795D01*
G75*
G02X4181701Y-2777654I0000000J-008858D01*
G01X4181701Y-2795370D01*
G75*
G02X4172843Y-2804228I-008858J0000000D01*
G01X4153157Y-2804228D01*
G75*
G02X4144299Y-2795370I0000000J0008858D01*
G01X4144299Y-2777654D01*
G75*
G02X4153157Y-2768795I0008858J0000000D01*
G37*
G36*
G01X4153157Y-2707772D02*
G01X4172843Y-2707772D01*
G75*
G02X4181701Y-2716630I0000000J-008858D01*
G01X4181701Y-2734346D01*
G75*
G02X4172843Y-2743205I-008858J0000000D01*
G01X4153157Y-2743205D01*
G75*
G02X4144299Y-2734346I0000000J0008858D01*
G01X4144299Y-2716630D01*
G75*
G02X4153157Y-2707772I0008858J0000000D01*
G37*
G54D16*
G01X4872717Y-2470000D03*
G01X5087283Y-2470000D03*
G36*
G01X5420010Y-2810394D02*
G01X5389990Y-2810394D01*
G75*
G02X5381378Y-2801781I0000000J0008612D01*
G01X5381378Y-2784557D01*
G75*
G02X5389990Y-2775945I0008612J0000000D01*
G01X5420010Y-2775945D01*
G75*
G02X5428622Y-2784557I0000000J-008612D01*
G01X5428622Y-2801781D01*
G75*
G02X5420010Y-2810394I-008612J0000000D01*
G37*
G36*
G01X5420010Y-2894055D02*
G01X5389990Y-2894055D01*
G75*
G02X5381378Y-2885443I0000000J0008612D01*
G01X5381378Y-2868219D01*
G75*
G02X5389990Y-2859606I0008612J0000000D01*
G01X5420010Y-2859606D01*
G75*
G02X5428622Y-2868219I0000000J-008612D01*
G01X5428622Y-2885443D01*
G75*
G02X5420010Y-2894055I-008612J0000000D01*
G37*
G36*
G01X5454606Y-2465010D02*
G01X5454606Y-2434990D01*
G75*
G02X5463219Y-2426378I0008612J0000000D01*
G01X5480443Y-2426378D01*
G75*
G02X5489055Y-2434990I0000000J-008612D01*
G01X5489055Y-2465010D01*
G75*
G02X5480443Y-2473622I-008612J0000000D01*
G01X5463219Y-2473622D01*
G75*
G02X5454606Y-2465010I0000000J0008612D01*
G37*
G36*
G01X5370945Y-2465010D02*
G01X5370945Y-2434990D01*
G75*
G02X5379557Y-2426378I0008612J0000000D01*
G01X5396781Y-2426378D01*
G75*
G02X5405394Y-2434990I0000000J-008612D01*
G01X5405394Y-2465010D01*
G75*
G02X5396781Y-2473622I-008612J0000000D01*
G01X5379557Y-2473622D01*
G75*
G02X5370945Y-2465010I0000000J0008612D01*
G37*
G36*
G01X6205295Y-2117343D02*
G01X6205295Y-2097657D01*
G75*
G02X6214154Y-2088799I0008858J0000000D01*
G01X6231870Y-2088799D01*
G75*
G02X6240728Y-2097657I0000000J-008858D01*
G01X6240728Y-2117343D01*
G75*
G02X6231870Y-2126201I-008858J0000000D01*
G01X6214154Y-2126201D01*
G75*
G02X6205295Y-2117343I0000000J0008858D01*
G37*
G36*
G01X6144272Y-2117343D02*
G01X6144272Y-2097657D01*
G75*
G02X6153130Y-2088799I0008858J0000000D01*
G01X6170846Y-2088799D01*
G75*
G02X6179705Y-2097657I0000000J-008858D01*
G01X6179705Y-2117343D01*
G75*
G02X6170846Y-2126201I-008858J0000000D01*
G01X6153130Y-2126201D01*
G75*
G02X6144272Y-2117343I0000000J0008858D01*
G37*
G36*
G01X5945295Y-2117343D02*
G01X5945295Y-2097657D01*
G75*
G02X5954154Y-2088799I0008858J0000000D01*
G01X5971870Y-2088799D01*
G75*
G02X5980728Y-2097657I0000000J-008858D01*
G01X5980728Y-2117343D01*
G75*
G02X5971870Y-2126201I-008858J0000000D01*
G01X5954154Y-2126201D01*
G75*
G02X5945295Y-2117343I0000000J0008858D01*
G37*
G36*
G01X5884272Y-2117343D02*
G01X5884272Y-2097657D01*
G75*
G02X5893130Y-2088799I0008858J0000000D01*
G01X5910846Y-2088799D01*
G75*
G02X5919705Y-2097657I0000000J-008858D01*
G01X5919705Y-2117343D01*
G75*
G02X5910846Y-2126201I-008858J0000000D01*
G01X5893130Y-2126201D01*
G75*
G02X5884272Y-2117343I0000000J0008858D01*
G37*
G36*
G01X6145433Y-4855591D02*
G01X6145433Y-4804409D01*
G75*
G02X6155276Y-4794567I0009842J0000000D01*
G01X6180866Y-4794567D01*
G75*
G02X6190709Y-4804409I0000000J-009842D01*
G01X6190709Y-4855591D01*
G75*
G02X6180866Y-4865433I-009842J0000000D01*
G01X6155276Y-4865433D01*
G75*
G02X6145433Y-4855591I0000000J0009842D01*
G37*
G36*
G01X6029291Y-4855591D02*
G01X6029291Y-4804409D01*
G75*
G02X6039134Y-4794567I0009842J0000000D01*
G01X6064724Y-4794567D01*
G75*
G02X6074567Y-4804409I0000000J-009842D01*
G01X6074567Y-4855591D01*
G75*
G02X6064724Y-4865433I-009842J0000000D01*
G01X6039134Y-4865433D01*
G75*
G02X6029291Y-4855591I0000000J0009842D01*
G37*
G36*
G01X6240433Y-4610591D02*
G01X6240433Y-4559409D01*
G75*
G02X6250276Y-4549567I0009842J0000000D01*
G01X6275866Y-4549567D01*
G75*
G02X6285709Y-4559409I0000000J-009842D01*
G01X6285709Y-4610591D01*
G75*
G02X6275866Y-4620433I-009842J0000000D01*
G01X6250276Y-4620433D01*
G75*
G02X6240433Y-4610591I0000000J0009842D01*
G37*
G36*
G01X6124291Y-4610591D02*
G01X6124291Y-4559409D01*
G75*
G02X6134134Y-4549567I0009842J0000000D01*
G01X6159724Y-4549567D01*
G75*
G02X6169567Y-4559409I0000000J-009842D01*
G01X6169567Y-4610591D01*
G75*
G02X6159724Y-4620433I-009842J0000000D01*
G01X6134134Y-4620433D01*
G75*
G02X6124291Y-4610591I0000000J0009842D01*
G37*
G36*
G01X5392283Y-4845748D02*
G01X5427717Y-4845748D01*
G75*
G02X5437559Y-4855591I0000000J-009842D01*
G01X5437559Y-4876260D01*
G75*
G02X5427717Y-4886102I-009842J0000000D01*
G01X5392283Y-4886102D01*
G75*
G02X5382441Y-4876260I0000000J0009842D01*
G01X5382441Y-4855591D01*
G75*
G02X5392283Y-4845748I0009842J0000000D01*
G37*
G36*
G01X5392283Y-4773898D02*
G01X5427717Y-4773898D01*
G75*
G02X5437559Y-4783740I0000000J-009842D01*
G01X5437559Y-4804409D01*
G75*
G02X5427717Y-4814252I-009842J0000000D01*
G01X5392283Y-4814252D01*
G75*
G02X5382441Y-4804409I0000000J0009842D01*
G01X5382441Y-4783740D01*
G75*
G02X5392283Y-4773898I0009842J0000000D01*
G37*
G36*
G01X6210552Y-2727283D02*
G01X6210552Y-2762717D01*
G75*
G02X6200709Y-2772559I-009842J0000000D01*
G01X6180040Y-2772559D01*
G75*
G02X6170198Y-2762717I0000000J0009842D01*
G01X6170198Y-2727283D01*
G75*
G02X6180040Y-2717441I0009842J0000000D01*
G01X6200709Y-2717441D01*
G75*
G02X6210552Y-2727283I0000000J-009842D01*
G37*
G36*
G01X6282402Y-2727283D02*
G01X6282402Y-2762717D01*
G75*
G02X6272560Y-2772559I-009842J0000000D01*
G01X6251891Y-2772559D01*
G75*
G02X6242048Y-2762717I0000000J0009842D01*
G01X6242048Y-2727283D01*
G75*
G02X6251891Y-2717441I0009842J0000000D01*
G01X6272560Y-2717441D01*
G75*
G02X6282402Y-2727283I0000000J-009842D01*
G37*
G36*
G01X6797717Y-2084252D02*
G01X6762283Y-2084252D01*
G75*
G02X6752441Y-2074409I0000000J0009842D01*
G01X6752441Y-2053740D01*
G75*
G02X6762283Y-2043898I0009842J0000000D01*
G01X6797717Y-2043898D01*
G75*
G02X6807559Y-2053740I0000000J-009842D01*
G01X6807559Y-2074409D01*
G75*
G02X6797717Y-2084252I-009842J0000000D01*
G37*
G36*
G01X6797717Y-2156102D02*
G01X6762283Y-2156102D01*
G75*
G02X6752441Y-2146260I0000000J0009842D01*
G01X6752441Y-2125591D01*
G75*
G02X6762283Y-2115748I0009842J0000000D01*
G01X6797717Y-2115748D01*
G75*
G02X6807559Y-2125591I0000000J-009842D01*
G01X6807559Y-2146260D01*
G75*
G02X6797717Y-2156102I-009842J0000000D01*
G37*
G36*
G01X6217717Y-2844252D02*
G01X6182283Y-2844252D01*
G75*
G02X6172441Y-2834409I0000000J0009842D01*
G01X6172441Y-2813740D01*
G75*
G02X6182283Y-2803898I0009842J0000000D01*
G01X6217717Y-2803898D01*
G75*
G02X6227559Y-2813740I0000000J-009842D01*
G01X6227559Y-2834409D01*
G75*
G02X6217717Y-2844252I-009842J0000000D01*
G37*
G36*
G01X6217717Y-2916102D02*
G01X6182283Y-2916102D01*
G75*
G02X6172441Y-2906260I0000000J0009842D01*
G01X6172441Y-2885591D01*
G75*
G02X6182283Y-2875748I0009842J0000000D01*
G01X6217717Y-2875748D01*
G75*
G02X6227559Y-2885591I0000000J-009842D01*
G01X6227559Y-2906260D01*
G75*
G02X6217717Y-2916102I-009842J0000000D01*
G37*
G36*
G01X6316252Y-2802283D02*
G01X6316252Y-2837717D01*
G75*
G02X6306409Y-2847559I-009842J0000000D01*
G01X6285740Y-2847559D01*
G75*
G02X6275898Y-2837717I0000000J0009842D01*
G01X6275898Y-2802283D01*
G75*
G02X6285740Y-2792441I0009842J0000000D01*
G01X6306409Y-2792441D01*
G75*
G02X6316252Y-2802283I0000000J-009842D01*
G37*
G36*
G01X6388102Y-2802283D02*
G01X6388102Y-2837717D01*
G75*
G02X6378260Y-2847559I-009842J0000000D01*
G01X6357591Y-2847559D01*
G75*
G02X6347748Y-2837717I0000000J0009842D01*
G01X6347748Y-2802283D01*
G75*
G02X6357591Y-2792441I0009842J0000000D01*
G01X6378260Y-2792441D01*
G75*
G02X6388102Y-2802283I0000000J-009842D01*
G37*
G36*
G01X5872283Y-3775748D02*
G01X5907717Y-3775748D01*
G75*
G02X5917559Y-3785591I0000000J-009842D01*
G01X5917559Y-3806260D01*
G75*
G02X5907717Y-3816102I-009842J0000000D01*
G01X5872283Y-3816102D01*
G75*
G02X5862441Y-3806260I0000000J0009842D01*
G01X5862441Y-3785591D01*
G75*
G02X5872283Y-3775748I0009842J0000000D01*
G37*
G36*
G01X5872283Y-3703898D02*
G01X5907717Y-3703898D01*
G75*
G02X5917559Y-3713740I0000000J-009842D01*
G01X5917559Y-3734409D01*
G75*
G02X5907717Y-3744252I-009842J0000000D01*
G01X5872283Y-3744252D01*
G75*
G02X5862441Y-3734409I0000000J0009842D01*
G01X5862441Y-3713740D01*
G75*
G02X5872283Y-3703898I0009842J0000000D01*
G37*
G36*
G01X3939173Y-2196732D02*
G01X3960827Y-2196732D01*
G75*
G02X3968701Y-2204606I0000000J-007874D01*
G01X3968701Y-2220354D01*
G75*
G02X3960827Y-2228228I-007874J0000000D01*
G01X3939173Y-2228228D01*
G75*
G02X3931299Y-2220354I0000000J0007874D01*
G01X3931299Y-2204606D01*
G75*
G02X3939173Y-2196732I0007874J0000000D01*
G37*
G36*
G01X3939173Y-2131772D02*
G01X3960827Y-2131772D01*
G75*
G02X3968701Y-2139646I0000000J-007874D01*
G01X3968701Y-2155394D01*
G75*
G02X3960827Y-2163268I-007874J0000000D01*
G01X3939173Y-2163268D01*
G75*
G02X3931299Y-2155394I0000000J0007874D01*
G01X3931299Y-2139646D01*
G75*
G02X3939173Y-2131772I0007874J0000000D01*
G37*
G36*
G01X4767717Y-4594252D02*
G01X4732283Y-4594252D01*
G75*
G02X4722441Y-4584409I0000000J0009842D01*
G01X4722441Y-4563740D01*
G75*
G02X4732283Y-4553898I0009842J0000000D01*
G01X4767717Y-4553898D01*
G75*
G02X4777559Y-4563740I0000000J-009842D01*
G01X4777559Y-4584409D01*
G75*
G02X4767717Y-4594252I-009842J0000000D01*
G37*
G36*
G01X4767717Y-4666102D02*
G01X4732283Y-4666102D01*
G75*
G02X4722441Y-4656260I0000000J0009842D01*
G01X4722441Y-4635591D01*
G75*
G02X4732283Y-4625748I0009842J0000000D01*
G01X4767717Y-4625748D01*
G75*
G02X4777559Y-4635591I0000000J-009842D01*
G01X4777559Y-4656260D01*
G75*
G02X4767717Y-4666102I-009842J0000000D01*
G37*
G36*
G01X5207283Y-3455748D02*
G01X5242717Y-3455748D01*
G75*
G02X5252559Y-3465591I0000000J-009842D01*
G01X5252559Y-3486260D01*
G75*
G02X5242717Y-3496102I-009842J0000000D01*
G01X5207283Y-3496102D01*
G75*
G02X5197441Y-3486260I0000000J0009842D01*
G01X5197441Y-3465591D01*
G75*
G02X5207283Y-3455748I0009842J0000000D01*
G37*
G36*
G01X5207283Y-3383898D02*
G01X5242717Y-3383898D01*
G75*
G02X5252559Y-3393740I0000000J-009842D01*
G01X5252559Y-3414409D01*
G75*
G02X5242717Y-3424252I-009842J0000000D01*
G01X5207283Y-3424252D01*
G75*
G02X5197441Y-3414409I0000000J0009842D01*
G01X5197441Y-3393740D01*
G75*
G02X5207283Y-3383898I0009842J0000000D01*
G37*
G36*
G01X4958252Y-3579283D02*
G01X4958252Y-3614717D01*
G75*
G02X4948409Y-3624559I-009842J0000000D01*
G01X4927740Y-3624559D01*
G75*
G02X4917898Y-3614717I0000000J0009842D01*
G01X4917898Y-3579283D01*
G75*
G02X4927740Y-3569441I0009842J0000000D01*
G01X4948409Y-3569441D01*
G75*
G02X4958252Y-3579283I0000000J-009842D01*
G37*
G36*
G01X5030102Y-3579283D02*
G01X5030102Y-3614717D01*
G75*
G02X5020260Y-3624559I-009842J0000000D01*
G01X4999591Y-3624559D01*
G75*
G02X4989748Y-3614717I0000000J0009842D01*
G01X4989748Y-3579283D01*
G75*
G02X4999591Y-3569441I0009842J0000000D01*
G01X5020260Y-3569441D01*
G75*
G02X5030102Y-3579283I0000000J-009842D01*
G37*
G36*
G01X5038717Y-3439252D02*
G01X5003283Y-3439252D01*
G75*
G02X4993441Y-3429409I0000000J0009842D01*
G01X4993441Y-3408740D01*
G75*
G02X5003283Y-3398898I0009842J0000000D01*
G01X5038717Y-3398898D01*
G75*
G02X5048559Y-3408740I0000000J-009842D01*
G01X5048559Y-3429409D01*
G75*
G02X5038717Y-3439252I-009842J0000000D01*
G37*
G36*
G01X5038717Y-3511102D02*
G01X5003283Y-3511102D01*
G75*
G02X4993441Y-3501260I0000000J0009842D01*
G01X4993441Y-3480591D01*
G75*
G02X5003283Y-3470748I0009842J0000000D01*
G01X5038717Y-3470748D01*
G75*
G02X5048559Y-3480591I0000000J-009842D01*
G01X5048559Y-3501260D01*
G75*
G02X5038717Y-3511102I-009842J0000000D01*
G37*
G36*
G01X4996283Y-2907748D02*
G01X5031717Y-2907748D01*
G75*
G02X5041559Y-2917591I0000000J-009842D01*
G01X5041559Y-2938260D01*
G75*
G02X5031717Y-2948102I-009842J0000000D01*
G01X4996283Y-2948102D01*
G75*
G02X4986441Y-2938260I0000000J0009842D01*
G01X4986441Y-2917591D01*
G75*
G02X4996283Y-2907748I0009842J0000000D01*
G37*
G36*
G01X4996283Y-2835898D02*
G01X5031717Y-2835898D01*
G75*
G02X5041559Y-2845740I0000000J-009842D01*
G01X5041559Y-2866409D01*
G75*
G02X5031717Y-2876252I-009842J0000000D01*
G01X4996283Y-2876252D01*
G75*
G02X4986441Y-2866409I0000000J0009842D01*
G01X4986441Y-2845740D01*
G75*
G02X4996283Y-2835898I0009842J0000000D01*
G37*
G36*
G01X4929652Y-3295883D02*
G01X4929652Y-3331317D01*
G75*
G02X4919809Y-3341159I-009842J0000000D01*
G01X4899140Y-3341159D01*
G75*
G02X4889298Y-3331317I0000000J0009842D01*
G01X4889298Y-3295883D01*
G75*
G02X4899140Y-3286041I0009842J0000000D01*
G01X4919809Y-3286041D01*
G75*
G02X4929652Y-3295883I0000000J-009842D01*
G37*
G36*
G01X5001502Y-3295883D02*
G01X5001502Y-3331317D01*
G75*
G02X4991660Y-3341159I-009842J0000000D01*
G01X4970991Y-3341159D01*
G75*
G02X4961148Y-3331317I0000000J0009842D01*
G01X4961148Y-3295883D01*
G75*
G02X4970991Y-3286041I0009842J0000000D01*
G01X4991660Y-3286041D01*
G75*
G02X5001502Y-3295883I0000000J-009842D01*
G37*
G54D17*
G01X6062500Y-2107500D03*
G01X6099902Y-2186240D03*
G01X6025098Y-2186240D03*
G36*
G01X6637327Y-2087268D02*
G01X6615673Y-2087268D01*
G75*
G02X6607799Y-2079394I0000000J0007874D01*
G01X6607799Y-2063646D01*
G75*
G02X6615673Y-2055772I0007874J0000000D01*
G01X6637327Y-2055772D01*
G75*
G02X6645201Y-2063646I0000000J-007874D01*
G01X6645201Y-2079394D01*
G75*
G02X6637327Y-2087268I-007874J0000000D01*
G37*
G36*
G01X6637327Y-2152228D02*
G01X6615673Y-2152228D01*
G75*
G02X6607799Y-2144354I0000000J0007874D01*
G01X6607799Y-2128606D01*
G75*
G02X6615673Y-2120732I0007874J0000000D01*
G01X6637327Y-2120732D01*
G75*
G02X6645201Y-2128606I0000000J-007874D01*
G01X6645201Y-2144354D01*
G75*
G02X6637327Y-2152228I-007874J0000000D01*
G37*
G36*
G01X6487673Y-2121713D02*
G01X6509327Y-2121713D01*
G75*
G02X6517201Y-2129587I0000000J-007874D01*
G01X6517201Y-2145335D01*
G75*
G02X6509327Y-2153209I-007874J0000000D01*
G01X6487673Y-2153209D01*
G75*
G02X6479799Y-2145335I0000000J0007874D01*
G01X6479799Y-2129587D01*
G75*
G02X6487673Y-2121713I0007874J0000000D01*
G37*
G36*
G01X6487673Y-2056752D02*
G01X6509327Y-2056752D01*
G75*
G02X6517201Y-2064626I0000000J-007874D01*
G01X6517201Y-2080374D01*
G75*
G02X6509327Y-2088248I-007874J0000000D01*
G01X6487673Y-2088248D01*
G75*
G02X6479799Y-2080374I0000000J0007874D01*
G01X6479799Y-2064626D01*
G75*
G02X6487673Y-2056752I0007874J0000000D01*
G37*
G36*
G01X6551173Y-2120732D02*
G01X6572827Y-2120732D01*
G75*
G02X6580701Y-2128606I0000000J-007874D01*
G01X6580701Y-2144354D01*
G75*
G02X6572827Y-2152228I-007874J0000000D01*
G01X6551173Y-2152228D01*
G75*
G02X6543299Y-2144354I0000000J0007874D01*
G01X6543299Y-2128606D01*
G75*
G02X6551173Y-2120732I0007874J0000000D01*
G37*
G36*
G01X6551173Y-2055772D02*
G01X6572827Y-2055772D01*
G75*
G02X6580701Y-2063646I0000000J-007874D01*
G01X6580701Y-2079394D01*
G75*
G02X6572827Y-2087268I-007874J0000000D01*
G01X6551173Y-2087268D01*
G75*
G02X6543299Y-2079394I0000000J0007874D01*
G01X6543299Y-2063646D01*
G75*
G02X6551173Y-2055772I0007874J0000000D01*
G37*
G36*
G01X7187717Y-3608201D02*
G01X7187717Y-3570799D01*
G75*
G02X7197559Y-3560957I0009843J0000000D01*
G01X7217244Y-3560957D01*
G75*
G02X7227087Y-3570799I0000000J-009843D01*
G01X7227087Y-3608201D01*
G75*
G02X7217244Y-3618043I-009843J0000000D01*
G01X7197559Y-3618043D01*
G75*
G02X7187717Y-3608201I0000000J0009843D01*
G37*
G36*
G01X7112913Y-3608201D02*
G01X7112913Y-3570799D01*
G75*
G02X7122756Y-3560957I0009843J0000000D01*
G01X7142441Y-3560957D01*
G75*
G02X7152283Y-3570799I0000000J-009843D01*
G01X7152283Y-3608201D01*
G75*
G02X7142441Y-3618043I-009843J0000000D01*
G01X7122756Y-3618043D01*
G75*
G02X7112913Y-3608201I0000000J0009843D01*
G37*
G36*
G01X6025315Y-3258701D02*
G01X6025315Y-3221299D01*
G75*
G02X6035157Y-3211457I0009843J0000000D01*
G01X6054843Y-3211457D01*
G75*
G02X6064685Y-3221299I0000000J-009843D01*
G01X6064685Y-3258701D01*
G75*
G02X6054843Y-3268543I-009843J0000000D01*
G01X6035157Y-3268543D01*
G75*
G02X6025315Y-3258701I0000000J0009843D01*
G37*
G36*
G01X5950512Y-3258701D02*
G01X5950512Y-3221299D01*
G75*
G02X5960354Y-3211457I0009843J0000000D01*
G01X5980039Y-3211457D01*
G75*
G02X5989882Y-3221299I0000000J-009843D01*
G01X5989882Y-3258701D01*
G75*
G02X5980039Y-3268543I-009843J0000000D01*
G01X5960354Y-3268543D01*
G75*
G02X5950512Y-3258701I0000000J0009843D01*
G37*
G36*
G01X4964606Y-2700157D02*
G01X4964606Y-2719843D01*
G75*
G02X4955748Y-2728701I-008858J0000000D01*
G01X4938031Y-2728701D01*
G75*
G02X4929173Y-2719843I0000000J0008858D01*
G01X4929173Y-2700157D01*
G75*
G02X4938031Y-2691299I0008858J0000000D01*
G01X4955748Y-2691299D01*
G75*
G02X4964606Y-2700157I0000000J-008858D01*
G37*
G36*
G01X5025630Y-2700157D02*
G01X5025630Y-2719843D01*
G75*
G02X5016772Y-2728701I-008858J0000000D01*
G01X4999055Y-2728701D01*
G75*
G02X4990197Y-2719843I0000000J0008858D01*
G01X4990197Y-2700157D01*
G75*
G02X4999055Y-2691299I0008858J0000000D01*
G01X5016772Y-2691299D01*
G75*
G02X5025630Y-2700157I0000000J-008858D01*
G37*
G36*
G01X7035591Y-3646496D02*
G01X6984409Y-3646496D01*
G75*
G02X6974567Y-3636654I0000000J0009842D01*
G01X6974567Y-3611063D01*
G75*
G02X6984409Y-3601220I0009842J0000000D01*
G01X7035591Y-3601220D01*
G75*
G02X7045433Y-3611063I0000000J-009842D01*
G01X7045433Y-3636654D01*
G75*
G02X7035591Y-3646496I-009842J0000000D01*
G37*
G36*
G01X7035591Y-3762638D02*
G01X6984409Y-3762638D01*
G75*
G02X6974567Y-3752795I0000000J0009842D01*
G01X6974567Y-3727205D01*
G75*
G02X6984409Y-3717362I0009842J0000000D01*
G01X7035591Y-3717362D01*
G75*
G02X7045433Y-3727205I0000000J-009842D01*
G01X7045433Y-3752795D01*
G75*
G02X7035591Y-3762638I-009842J0000000D01*
G37*
G36*
G01X3812795Y-3564843D02*
G01X3812795Y-3545157D01*
G75*
G02X3821654Y-3536299I0008858J0000000D01*
G01X3839370Y-3536299D01*
G75*
G02X3848228Y-3545157I0000000J-008858D01*
G01X3848228Y-3564843D01*
G75*
G02X3839370Y-3573701I-008858J0000000D01*
G01X3821654Y-3573701D01*
G75*
G02X3812795Y-3564843I0000000J0008858D01*
G37*
G36*
G01X3751772Y-3564843D02*
G01X3751772Y-3545157D01*
G75*
G02X3760630Y-3536299I0008858J0000000D01*
G01X3778346Y-3536299D01*
G75*
G02X3787205Y-3545157I0000000J-008858D01*
G01X3787205Y-3564843D01*
G75*
G02X3778346Y-3573701I-008858J0000000D01*
G01X3760630Y-3573701D01*
G75*
G02X3751772Y-3564843I0000000J0008858D01*
G37*
G36*
G01X6299901Y-2907283D02*
G01X6262499Y-2907283D01*
G75*
G02X6252657Y-2897441I0000000J0009843D01*
G01X6252657Y-2877756D01*
G75*
G02X6262499Y-2867913I0009843J0000000D01*
G01X6299901Y-2867913D01*
G75*
G02X6309743Y-2877756I0000000J-009843D01*
G01X6309743Y-2897441D01*
G75*
G02X6299901Y-2907283I-009843J0000000D01*
G37*
G36*
G01X6299901Y-2982087D02*
G01X6262499Y-2982087D01*
G75*
G02X6252657Y-2972244I0000000J0009843D01*
G01X6252657Y-2952559D01*
G75*
G02X6262499Y-2942717I0009843J0000000D01*
G01X6299901Y-2942717D01*
G75*
G02X6309743Y-2952559I0000000J-009843D01*
G01X6309743Y-2972244D01*
G75*
G02X6299901Y-2982087I-009843J0000000D01*
G37*
G54D20*
G01X6842992Y-2858386D03*
G01X6842992Y-2945000D03*
G01X6780000Y-2945000D03*
G01X6780000Y-2858386D03*
G54D21*
G01X6153307Y-4736496D03*
G01X6066693Y-4736496D03*
G01X6066693Y-4673504D03*
G01X6153307Y-4673504D03*
G36*
G01X6608680Y-2706289D02*
G01X6608680Y-2686111D01*
G75*
G02X6617292Y-2677499I0008612J0000000D01*
G01X6634516Y-2677499D01*
G75*
G02X6643128Y-2686111I0000000J-008612D01*
G01X6643128Y-2706289D01*
G75*
G02X6634516Y-2714901I-008612J0000000D01*
G01X6617292Y-2714901D01*
G75*
G02X6608680Y-2706289I0000000J0008612D01*
G37*
G36*
G01X6546672Y-2706289D02*
G01X6546672Y-2686111D01*
G75*
G02X6555284Y-2677499I0008612J0000000D01*
G01X6572508Y-2677499D01*
G75*
G02X6581120Y-2686111I0000000J-008612D01*
G01X6581120Y-2706289D01*
G75*
G02X6572508Y-2714901I-008612J0000000D01*
G01X6555284Y-2714901D01*
G75*
G02X6546672Y-2706289I0000000J0008612D01*
G37*
G36*
G01X6618411Y-2616980D02*
G01X6638589Y-2616980D01*
G75*
G02X6647201Y-2625592I0000000J-008612D01*
G01X6647201Y-2642816D01*
G75*
G02X6638589Y-2651428I-008612J0000000D01*
G01X6618411Y-2651428D01*
G75*
G02X6609799Y-2642816I0000000J0008612D01*
G01X6609799Y-2625592D01*
G75*
G02X6618411Y-2616980I0008612J0000000D01*
G37*
G36*
G01X6618411Y-2554972D02*
G01X6638589Y-2554972D01*
G75*
G02X6647201Y-2563584I0000000J-008612D01*
G01X6647201Y-2580808D01*
G75*
G02X6638589Y-2589420I-008612J0000000D01*
G01X6618411Y-2589420D01*
G75*
G02X6609799Y-2580808I0000000J0008612D01*
G01X6609799Y-2563584D01*
G75*
G02X6618411Y-2554972I0008612J0000000D01*
G37*
G36*
G01X6420783Y-2526089D02*
G01X6420783Y-2505911D01*
G75*
G02X6429396Y-2497299I0008612J0000000D01*
G01X6446620Y-2497299D01*
G75*
G02X6455232Y-2505911I0000000J-008612D01*
G01X6455232Y-2526089D01*
G75*
G02X6446620Y-2534701I-008612J0000000D01*
G01X6429396Y-2534701D01*
G75*
G02X6420783Y-2526089I0000000J0008612D01*
G37*
G36*
G01X6358776Y-2526089D02*
G01X6358776Y-2505911D01*
G75*
G02X6367388Y-2497299I0008612J0000000D01*
G01X6384612Y-2497299D01*
G75*
G02X6393224Y-2505911I0000000J-008612D01*
G01X6393224Y-2526089D01*
G75*
G02X6384612Y-2534701I-008612J0000000D01*
G01X6367388Y-2534701D01*
G75*
G02X6358776Y-2526089I0000000J0008612D01*
G37*
G36*
G01X6484383Y-2654089D02*
G01X6484383Y-2633911D01*
G75*
G02X6492996Y-2625299I0008612J0000000D01*
G01X6510220Y-2625299D01*
G75*
G02X6518832Y-2633911I0000000J-008612D01*
G01X6518832Y-2654089D01*
G75*
G02X6510220Y-2662701I-008612J0000000D01*
G01X6492996Y-2662701D01*
G75*
G02X6484383Y-2654089I0000000J0008612D01*
G37*
G36*
G01X6422376Y-2654089D02*
G01X6422376Y-2633911D01*
G75*
G02X6430988Y-2625299I0008612J0000000D01*
G01X6448212Y-2625299D01*
G75*
G02X6456824Y-2633911I0000000J-008612D01*
G01X6456824Y-2654089D01*
G75*
G02X6448212Y-2662701I-008612J0000000D01*
G01X6430988Y-2662701D01*
G75*
G02X6422376Y-2654089I0000000J0008612D01*
G37*
G36*
G01X6574343Y-2590205D02*
G01X6554657Y-2590205D01*
G75*
G02X6545799Y-2581346I0000000J0008858D01*
G01X6545799Y-2563630D01*
G75*
G02X6554657Y-2554772I0008858J0000000D01*
G01X6574343Y-2554772D01*
G75*
G02X6583201Y-2563630I0000000J-008858D01*
G01X6583201Y-2581346D01*
G75*
G02X6574343Y-2590205I-008858J0000000D01*
G37*
G36*
G01X6574343Y-2651228D02*
G01X6554657Y-2651228D01*
G75*
G02X6545799Y-2642370I0000000J0008858D01*
G01X6545799Y-2624654D01*
G75*
G02X6554657Y-2615795I0008858J0000000D01*
G01X6574343Y-2615795D01*
G75*
G02X6583201Y-2624654I0000000J-008858D01*
G01X6583201Y-2642370D01*
G75*
G02X6574343Y-2651228I-008858J0000000D01*
G37*
G36*
G01X6554657Y-2490295D02*
G01X6574343Y-2490295D01*
G75*
G02X6583201Y-2499154I0000000J-008858D01*
G01X6583201Y-2516870D01*
G75*
G02X6574343Y-2525728I-008858J0000000D01*
G01X6554657Y-2525728D01*
G75*
G02X6545799Y-2516870I0000000J0008858D01*
G01X6545799Y-2499154D01*
G75*
G02X6554657Y-2490295I0008858J0000000D01*
G37*
G36*
G01X6554657Y-2429272D02*
G01X6574343Y-2429272D01*
G75*
G02X6583201Y-2438130I0000000J-008858D01*
G01X6583201Y-2455846D01*
G75*
G02X6574343Y-2464705I-008858J0000000D01*
G01X6554657Y-2464705D01*
G75*
G02X6545799Y-2455846I0000000J0008858D01*
G01X6545799Y-2438130D01*
G75*
G02X6554657Y-2429272I0008858J0000000D01*
G37*
G36*
G01X6680657Y-2615295D02*
G01X6700343Y-2615295D01*
G75*
G02X6709201Y-2624154I0000000J-008858D01*
G01X6709201Y-2641870D01*
G75*
G02X6700343Y-2650728I-008858J0000000D01*
G01X6680657Y-2650728D01*
G75*
G02X6671799Y-2641870I0000000J0008858D01*
G01X6671799Y-2624154D01*
G75*
G02X6680657Y-2615295I0008858J0000000D01*
G37*
G36*
G01X6680657Y-2554272D02*
G01X6700343Y-2554272D01*
G75*
G02X6709201Y-2563130I0000000J-008858D01*
G01X6709201Y-2580846D01*
G75*
G02X6700343Y-2589705I-008858J0000000D01*
G01X6680657Y-2589705D01*
G75*
G02X6671799Y-2580846I0000000J0008858D01*
G01X6671799Y-2563130D01*
G75*
G02X6680657Y-2554272I0008858J0000000D01*
G37*
G36*
G01X6394717Y-2571457D02*
G01X6394717Y-2591143D01*
G75*
G02X6385858Y-2600001I-008858J0000000D01*
G01X6368142Y-2600001D01*
G75*
G02X6359283Y-2591143I0000000J0008858D01*
G01X6359283Y-2571457D01*
G75*
G02X6368142Y-2562599I0008858J0000000D01*
G01X6385858Y-2562599D01*
G75*
G02X6394717Y-2571457I0000000J-008858D01*
G37*
G36*
G01X6455740Y-2571457D02*
G01X6455740Y-2591143D01*
G75*
G02X6446882Y-2600001I-008858J0000000D01*
G01X6429165Y-2600001D01*
G75*
G02X6420307Y-2591143I0000000J0008858D01*
G01X6420307Y-2571457D01*
G75*
G02X6429165Y-2562599I0008858J0000000D01*
G01X6446882Y-2562599D01*
G75*
G02X6455740Y-2571457I0000000J-008858D01*
G37*
G36*
G01X6389843Y-2327205D02*
G01X6370157Y-2327205D01*
G75*
G02X6361299Y-2318346I0000000J0008858D01*
G01X6361299Y-2300630D01*
G75*
G02X6370157Y-2291772I0008858J0000000D01*
G01X6389843Y-2291772D01*
G75*
G02X6398701Y-2300630I0000000J-008858D01*
G01X6398701Y-2318346D01*
G75*
G02X6389843Y-2327205I-008858J0000000D01*
G37*
G36*
G01X6389843Y-2388228D02*
G01X6370157Y-2388228D01*
G75*
G02X6361299Y-2379370I0000000J0008858D01*
G01X6361299Y-2361654D01*
G75*
G02X6370157Y-2352795I0008858J0000000D01*
G01X6389843Y-2352795D01*
G75*
G02X6398701Y-2361654I0000000J-008858D01*
G01X6398701Y-2379370D01*
G75*
G02X6389843Y-2388228I-008858J0000000D01*
G37*
G36*
G01X6116268Y-2603173D02*
G01X6116268Y-2624827D01*
G75*
G02X6108394Y-2632701I-007874J0000000D01*
G01X6092646Y-2632701D01*
G75*
G02X6084772Y-2624827I0000000J0007874D01*
G01X6084772Y-2603173D01*
G75*
G02X6092646Y-2595299I0007874J0000000D01*
G01X6108394Y-2595299D01*
G75*
G02X6116268Y-2603173I0000000J-007874D01*
G37*
G36*
G01X6181228Y-2603173D02*
G01X6181228Y-2624827D01*
G75*
G02X6173354Y-2632701I-007874J0000000D01*
G01X6157606Y-2632701D01*
G75*
G02X6149732Y-2624827I0000000J0007874D01*
G01X6149732Y-2603173D01*
G75*
G02X6157606Y-2595299I0007874J0000000D01*
G01X6173354Y-2595299D01*
G75*
G02X6181228Y-2603173I0000000J-007874D01*
G37*
G36*
G01X6238089Y-2630220D02*
G01X6217911Y-2630220D01*
G75*
G02X6209299Y-2621608I0000000J0008612D01*
G01X6209299Y-2604384D01*
G75*
G02X6217911Y-2595772I0008612J0000000D01*
G01X6238089Y-2595772D01*
G75*
G02X6246701Y-2604384I0000000J-008612D01*
G01X6246701Y-2621608D01*
G75*
G02X6238089Y-2630220I-008612J0000000D01*
G37*
G36*
G01X6238089Y-2692228D02*
G01X6217911Y-2692228D01*
G75*
G02X6209299Y-2683616I0000000J0008612D01*
G01X6209299Y-2666392D01*
G75*
G02X6217911Y-2657780I0008612J0000000D01*
G01X6238089Y-2657780D01*
G75*
G02X6246701Y-2666392I0000000J-008612D01*
G01X6246701Y-2683616D01*
G75*
G02X6238089Y-2692228I-008612J0000000D01*
G37*
G54D17*
G01X5998000Y-3004370D03*
G01X5960598Y-2925630D03*
G01X6035402Y-2925630D03*
G36*
G01X6069004Y-2830591D02*
G01X6069004Y-2779409D01*
G75*
G02X6078846Y-2769567I0009842J0000000D01*
G01X6104437Y-2769567D01*
G75*
G02X6114280Y-2779409I0000000J-009842D01*
G01X6114280Y-2830591D01*
G75*
G02X6104437Y-2840433I-009842J0000000D01*
G01X6078846Y-2840433D01*
G75*
G02X6069004Y-2830591I0000000J0009842D01*
G37*
G36*
G01X5952862Y-2830591D02*
G01X5952862Y-2779409D01*
G75*
G02X5962705Y-2769567I0009842J0000000D01*
G01X5988295Y-2769567D01*
G75*
G02X5998138Y-2779409I0000000J-009842D01*
G01X5998138Y-2830591D01*
G75*
G02X5988295Y-2840433I-009842J0000000D01*
G01X5962705Y-2840433D01*
G75*
G02X5952862Y-2830591I0000000J0009842D01*
G37*
G36*
G01X6068217Y-2703701D02*
G01X6068217Y-2666299D01*
G75*
G02X6078059Y-2656457I0009843J0000000D01*
G01X6097744Y-2656457D01*
G75*
G02X6107587Y-2666299I0000000J-009843D01*
G01X6107587Y-2703701D01*
G75*
G02X6097744Y-2713543I-009843J0000000D01*
G01X6078059Y-2713543D01*
G75*
G02X6068217Y-2703701I0000000J0009843D01*
G37*
G36*
G01X5993413Y-2703701D02*
G01X5993413Y-2666299D01*
G75*
G02X6003256Y-2656457I0009843J0000000D01*
G01X6022941Y-2656457D01*
G75*
G02X6032783Y-2666299I0000000J-009843D01*
G01X6032783Y-2703701D01*
G75*
G02X6022941Y-2713543I-009843J0000000D01*
G01X6003256Y-2713543D01*
G75*
G02X5993413Y-2703701I0000000J0009843D01*
G37*
G36*
G01X6027618Y-3097701D02*
G01X6027618Y-3060299D01*
G75*
G02X6037461Y-3050457I0009843J0000000D01*
G01X6057146Y-3050457D01*
G75*
G02X6066988Y-3060299I0000000J-009843D01*
G01X6066988Y-3097701D01*
G75*
G02X6057146Y-3107543I-009843J0000000D01*
G01X6037461Y-3107543D01*
G75*
G02X6027618Y-3097701I0000000J0009843D01*
G37*
G36*
G01X5952815Y-3097701D02*
G01X5952815Y-3060299D01*
G75*
G02X5962657Y-3050457I0009843J0000000D01*
G01X5982343Y-3050457D01*
G75*
G02X5992185Y-3060299I0000000J-009843D01*
G01X5992185Y-3097701D01*
G75*
G02X5982343Y-3107543I-009843J0000000D01*
G01X5962657Y-3107543D01*
G75*
G02X5952815Y-3097701I0000000J0009843D01*
G37*
G36*
G01X6873268Y-2119173D02*
G01X6873268Y-2140827D01*
G75*
G02X6865394Y-2148701I-007874J0000000D01*
G01X6849646Y-2148701D01*
G75*
G02X6841772Y-2140827I0000000J0007874D01*
G01X6841772Y-2119173D01*
G75*
G02X6849646Y-2111299I0007874J0000000D01*
G01X6865394Y-2111299D01*
G75*
G02X6873268Y-2119173I0000000J-007874D01*
G37*
G36*
G01X6938228Y-2119173D02*
G01X6938228Y-2140827D01*
G75*
G02X6930354Y-2148701I-007874J0000000D01*
G01X6914606Y-2148701D01*
G75*
G02X6906732Y-2140827I0000000J0007874D01*
G01X6906732Y-2119173D01*
G75*
G02X6914606Y-2111299I0007874J0000000D01*
G01X6930354Y-2111299D01*
G75*
G02X6938228Y-2119173I0000000J-007874D01*
G37*
G36*
G01X5394567Y-2304409D02*
G01X5394567Y-2355591D01*
G75*
G02X5384724Y-2365433I-009842J0000000D01*
G01X5359134Y-2365433D01*
G75*
G02X5349291Y-2355591I0000000J0009842D01*
G01X5349291Y-2304409D01*
G75*
G02X5359134Y-2294567I0009842J0000000D01*
G01X5384724Y-2294567D01*
G75*
G02X5394567Y-2304409I0000000J-009842D01*
G37*
G36*
G01X5510709Y-2304409D02*
G01X5510709Y-2355591D01*
G75*
G02X5500866Y-2365433I-009842J0000000D01*
G01X5475276Y-2365433D01*
G75*
G02X5465433Y-2355591I0000000J0009842D01*
G01X5465433Y-2304409D01*
G75*
G02X5475276Y-2294567I0009842J0000000D01*
G01X5500866Y-2294567D01*
G75*
G02X5510709Y-2304409I0000000J-009842D01*
G37*
G36*
G01X5663433Y-2483591D02*
G01X5663433Y-2432409D01*
G75*
G02X5673276Y-2422567I0009842J0000000D01*
G01X5698866Y-2422567D01*
G75*
G02X5708709Y-2432409I0000000J-009842D01*
G01X5708709Y-2483591D01*
G75*
G02X5698866Y-2493433I-009842J0000000D01*
G01X5673276Y-2493433D01*
G75*
G02X5663433Y-2483591I0000000J0009842D01*
G37*
G36*
G01X5547291Y-2483591D02*
G01X5547291Y-2432409D01*
G75*
G02X5557134Y-2422567I0009842J0000000D01*
G01X5582724Y-2422567D01*
G75*
G02X5592567Y-2432409I0000000J-009842D01*
G01X5592567Y-2483591D01*
G75*
G02X5582724Y-2493433I-009842J0000000D01*
G01X5557134Y-2493433D01*
G75*
G02X5547291Y-2483591I0000000J0009842D01*
G37*
G36*
G01X7045173Y-3476732D02*
G01X7066827Y-3476732D01*
G75*
G02X7074701Y-3484606I0000000J-007874D01*
G01X7074701Y-3500354D01*
G75*
G02X7066827Y-3508228I-007874J0000000D01*
G01X7045173Y-3508228D01*
G75*
G02X7037299Y-3500354I0000000J0007874D01*
G01X7037299Y-3484606D01*
G75*
G02X7045173Y-3476732I0007874J0000000D01*
G37*
G36*
G01X7045173Y-3411772D02*
G01X7066827Y-3411772D01*
G75*
G02X7074701Y-3419646I0000000J-007874D01*
G01X7074701Y-3435394D01*
G75*
G02X7066827Y-3443268I-007874J0000000D01*
G01X7045173Y-3443268D01*
G75*
G02X7037299Y-3435394I0000000J0007874D01*
G01X7037299Y-3419646D01*
G75*
G02X7045173Y-3411772I0007874J0000000D01*
G37*
G54D22*
G01X5324843Y-4014000D03*
G01X5324843Y-4214000D03*
G01X5455157Y-3914000D03*
G01X5455157Y-4114000D03*
G01X5455157Y-4314000D03*
G36*
G01X4624693Y-4706157D02*
G01X4624693Y-4725843D01*
G75*
G02X4615835Y-4734701I-008858J0000000D01*
G01X4598118Y-4734701D01*
G75*
G02X4589260Y-4725843I0000000J0008858D01*
G01X4589260Y-4706157D01*
G75*
G02X4598118Y-4697299I0008858J0000000D01*
G01X4615835Y-4697299D01*
G75*
G02X4624693Y-4706157I0000000J-008858D01*
G37*
G36*
G01X4685717Y-4706157D02*
G01X4685717Y-4725843D01*
G75*
G02X4676858Y-4734701I-008858J0000000D01*
G01X4659142Y-4734701D01*
G75*
G02X4650283Y-4725843I0000000J0008858D01*
G01X4650283Y-4706157D01*
G75*
G02X4659142Y-4697299I0008858J0000000D01*
G01X4676858Y-4697299D01*
G75*
G02X4685717Y-4706157I0000000J-008858D01*
G37*
G36*
G01X7139173Y-2226732D02*
G01X7160827Y-2226732D01*
G75*
G02X7168701Y-2234606I0000000J-007874D01*
G01X7168701Y-2250354D01*
G75*
G02X7160827Y-2258228I-007874J0000000D01*
G01X7139173Y-2258228D01*
G75*
G02X7131299Y-2250354I0000000J0007874D01*
G01X7131299Y-2234606D01*
G75*
G02X7139173Y-2226732I0007874J0000000D01*
G37*
G36*
G01X7139173Y-2161772D02*
G01X7160827Y-2161772D01*
G75*
G02X7168701Y-2169646I0000000J-007874D01*
G01X7168701Y-2185394D01*
G75*
G02X7160827Y-2193268I-007874J0000000D01*
G01X7139173Y-2193268D01*
G75*
G02X7131299Y-2185394I0000000J0007874D01*
G01X7131299Y-2169646D01*
G75*
G02X7139173Y-2161772I0007874J0000000D01*
G37*
G36*
G01X7159173Y-2604232D02*
G01X7180827Y-2604232D01*
G75*
G02X7188701Y-2612106I0000000J-007874D01*
G01X7188701Y-2627854D01*
G75*
G02X7180827Y-2635728I-007874J0000000D01*
G01X7159173Y-2635728D01*
G75*
G02X7151299Y-2627854I0000000J0007874D01*
G01X7151299Y-2612106D01*
G75*
G02X7159173Y-2604232I0007874J0000000D01*
G37*
G36*
G01X7159173Y-2539272D02*
G01X7180827Y-2539272D01*
G75*
G02X7188701Y-2547146I0000000J-007874D01*
G01X7188701Y-2562894D01*
G75*
G02X7180827Y-2570768I-007874J0000000D01*
G01X7159173Y-2570768D01*
G75*
G02X7151299Y-2562894I0000000J0007874D01*
G01X7151299Y-2547146D01*
G75*
G02X7159173Y-2539272I0007874J0000000D01*
G37*
G36*
G01X6086732Y-1870827D02*
G01X6086732Y-1849173D01*
G75*
G02X6094606Y-1841299I0007874J0000000D01*
G01X6110354Y-1841299D01*
G75*
G02X6118228Y-1849173I0000000J-007874D01*
G01X6118228Y-1870827D01*
G75*
G02X6110354Y-1878701I-007874J0000000D01*
G01X6094606Y-1878701D01*
G75*
G02X6086732Y-1870827I0000000J0007874D01*
G37*
G36*
G01X6021772Y-1870827D02*
G01X6021772Y-1849173D01*
G75*
G02X6029646Y-1841299I0007874J0000000D01*
G01X6045394Y-1841299D01*
G75*
G02X6053268Y-1849173I0000000J-007874D01*
G01X6053268Y-1870827D01*
G75*
G02X6045394Y-1878701I-007874J0000000D01*
G01X6029646Y-1878701D01*
G75*
G02X6021772Y-1870827I0000000J0007874D01*
G37*
G36*
G01X6086732Y-1800827D02*
G01X6086732Y-1779173D01*
G75*
G02X6094606Y-1771299I0007874J0000000D01*
G01X6110354Y-1771299D01*
G75*
G02X6118228Y-1779173I0000000J-007874D01*
G01X6118228Y-1800827D01*
G75*
G02X6110354Y-1808701I-007874J0000000D01*
G01X6094606Y-1808701D01*
G75*
G02X6086732Y-1800827I0000000J0007874D01*
G37*
G36*
G01X6021772Y-1800827D02*
G01X6021772Y-1779173D01*
G75*
G02X6029646Y-1771299I0007874J0000000D01*
G01X6045394Y-1771299D01*
G75*
G02X6053268Y-1779173I0000000J-007874D01*
G01X6053268Y-1800827D01*
G75*
G02X6045394Y-1808701I-007874J0000000D01*
G01X6029646Y-1808701D01*
G75*
G02X6021772Y-1800827I0000000J0007874D01*
G37*
G54D23*
G01X7071260Y-2065402D03*
G01X7150000Y-2028000D03*
G01X7150000Y-2102803D03*
G54D17*
G01X7215000Y-2403130D03*
G01X7252402Y-2481870D03*
G01X7177598Y-2481870D03*
G54D23*
G01X5900630Y-1830000D03*
G01X5979370Y-1792598D03*
G01X5979370Y-1867402D03*
G36*
G01X6709843Y-2383205D02*
G01X6690157Y-2383205D01*
G75*
G02X6681299Y-2374346I0000000J0008858D01*
G01X6681299Y-2356630D01*
G75*
G02X6690157Y-2347772I0008858J0000000D01*
G01X6709843Y-2347772D01*
G75*
G02X6718701Y-2356630I0000000J-008858D01*
G01X6718701Y-2374346D01*
G75*
G02X6709843Y-2383205I-008858J0000000D01*
G37*
G36*
G01X6709843Y-2444228D02*
G01X6690157Y-2444228D01*
G75*
G02X6681299Y-2435370I0000000J0008858D01*
G01X6681299Y-2417654D01*
G75*
G02X6690157Y-2408795I0008858J0000000D01*
G01X6709843Y-2408795D01*
G75*
G02X6718701Y-2417654I0000000J-008858D01*
G01X6718701Y-2435370D01*
G75*
G02X6709843Y-2444228I-008858J0000000D01*
G37*
G36*
G01X6166732Y-2990827D02*
G01X6166732Y-2969173D01*
G75*
G02X6174606Y-2961299I0007874J0000000D01*
G01X6190354Y-2961299D01*
G75*
G02X6198228Y-2969173I0000000J-007874D01*
G01X6198228Y-2990827D01*
G75*
G02X6190354Y-2998701I-007874J0000000D01*
G01X6174606Y-2998701D01*
G75*
G02X6166732Y-2990827I0000000J0007874D01*
G37*
G36*
G01X6101772Y-2990827D02*
G01X6101772Y-2969173D01*
G75*
G02X6109646Y-2961299I0007874J0000000D01*
G01X6125394Y-2961299D01*
G75*
G02X6133268Y-2969173I0000000J-007874D01*
G01X6133268Y-2990827D01*
G75*
G02X6125394Y-2998701I-007874J0000000D01*
G01X6109646Y-2998701D01*
G75*
G02X6101772Y-2990827I0000000J0007874D01*
G37*
G36*
G01X6156289Y-3065020D02*
G01X6136111Y-3065020D01*
G75*
G02X6127499Y-3056408I0000000J0008612D01*
G01X6127499Y-3039184D01*
G75*
G02X6136111Y-3030572I0008612J0000000D01*
G01X6156289Y-3030572D01*
G75*
G02X6164901Y-3039184I0000000J-008612D01*
G01X6164901Y-3056408D01*
G75*
G02X6156289Y-3065020I-008612J0000000D01*
G37*
G36*
G01X6156289Y-3127028D02*
G01X6136111Y-3127028D01*
G75*
G02X6127499Y-3118416I0000000J0008612D01*
G01X6127499Y-3101192D01*
G75*
G02X6136111Y-3092580I0008612J0000000D01*
G01X6156289Y-3092580D01*
G75*
G02X6164901Y-3101192I0000000J-008612D01*
G01X6164901Y-3118416D01*
G75*
G02X6156289Y-3127028I-008612J0000000D01*
G37*
G36*
G01X7203732Y-2700327D02*
G01X7203732Y-2678673D01*
G75*
G02X7211606Y-2670799I0007874J0000000D01*
G01X7227354Y-2670799D01*
G75*
G02X7235228Y-2678673I0000000J-007874D01*
G01X7235228Y-2700327D01*
G75*
G02X7227354Y-2708201I-007874J0000000D01*
G01X7211606Y-2708201D01*
G75*
G02X7203732Y-2700327I0000000J0007874D01*
G37*
G36*
G01X7138772Y-2700327D02*
G01X7138772Y-2678673D01*
G75*
G02X7146646Y-2670799I0007874J0000000D01*
G01X7162394Y-2670799D01*
G75*
G02X7170268Y-2678673I0000000J-007874D01*
G01X7170268Y-2700327D01*
G75*
G02X7162394Y-2708201I-007874J0000000D01*
G01X7146646Y-2708201D01*
G75*
G02X7138772Y-2700327I0000000J0007874D01*
G37*
G36*
G01X7169220Y-2755911D02*
G01X7169220Y-2776089D01*
G75*
G02X7160608Y-2784701I-008612J0000000D01*
G01X7143384Y-2784701D01*
G75*
G02X7134772Y-2776089I0000000J0008612D01*
G01X7134772Y-2755911D01*
G75*
G02X7143384Y-2747299I0008612J0000000D01*
G01X7160608Y-2747299D01*
G75*
G02X7169220Y-2755911I0000000J-008612D01*
G37*
G36*
G01X7231228Y-2755911D02*
G01X7231228Y-2776089D01*
G75*
G02X7222616Y-2784701I-008612J0000000D01*
G01X7205392Y-2784701D01*
G75*
G02X7196780Y-2776089I0000000J0008612D01*
G01X7196780Y-2755911D01*
G75*
G02X7205392Y-2747299I0008612J0000000D01*
G01X7222616Y-2747299D01*
G75*
G02X7231228Y-2755911I0000000J-008612D01*
G37*
G54D24*
G36*
G01X6144252Y-3863327D02*
G01X6144252Y-3841673D01*
G75*
G02X6152126Y-3833799I0007874J0000000D01*
G01X6167874Y-3833799D01*
G75*
G02X6175748Y-3841673I0000000J-007874D01*
G01X6175748Y-3863327D01*
G75*
G02X6167874Y-3871201I-007874J0000000D01*
G01X6152126Y-3871201D01*
G75*
G02X6144252Y-3863327I0000000J0007874D01*
G37*
G36*
G01X6079291Y-3863327D02*
G01X6079291Y-3841673D01*
G75*
G02X6087165Y-3833799I0007874J0000000D01*
G01X6102913Y-3833799D01*
G75*
G02X6110787Y-3841673I0000000J-007874D01*
G01X6110787Y-3863327D01*
G75*
G02X6102913Y-3871201I-007874J0000000D01*
G01X6087165Y-3871201D01*
G75*
G02X6079291Y-3863327I0000000J0007874D01*
G37*
G36*
G01X6271732Y-3565827D02*
G01X6271732Y-3544173D01*
G75*
G02X6279606Y-3536299I0007874J0000000D01*
G01X6295354Y-3536299D01*
G75*
G02X6303228Y-3544173I0000000J-007874D01*
G01X6303228Y-3565827D01*
G75*
G02X6295354Y-3573701I-007874J0000000D01*
G01X6279606Y-3573701D01*
G75*
G02X6271732Y-3565827I0000000J0007874D01*
G37*
G36*
G01X6206772Y-3565827D02*
G01X6206772Y-3544173D01*
G75*
G02X6214646Y-3536299I0007874J0000000D01*
G01X6230394Y-3536299D01*
G75*
G02X6238268Y-3544173I0000000J-007874D01*
G01X6238268Y-3565827D01*
G75*
G02X6230394Y-3573701I-007874J0000000D01*
G01X6214646Y-3573701D01*
G75*
G02X6206772Y-3565827I0000000J0007874D01*
G37*
G36*
G01X6020089Y-3871220D02*
G01X5999911Y-3871220D01*
G75*
G02X5991299Y-3862608I0000000J0008612D01*
G01X5991299Y-3845384D01*
G75*
G02X5999911Y-3836772I0008612J0000000D01*
G01X6020089Y-3836772D01*
G75*
G02X6028701Y-3845384I0000000J-008612D01*
G01X6028701Y-3862608D01*
G75*
G02X6020089Y-3871220I-008612J0000000D01*
G37*
G36*
G01X6020089Y-3933228D02*
G01X5999911Y-3933228D01*
G75*
G02X5991299Y-3924616I0000000J0008612D01*
G01X5991299Y-3907392D01*
G75*
G02X5999911Y-3898780I0008612J0000000D01*
G01X6020089Y-3898780D01*
G75*
G02X6028701Y-3907392I0000000J-008612D01*
G01X6028701Y-3924616D01*
G75*
G02X6020089Y-3933228I-008612J0000000D01*
G37*
G36*
G01X6121280Y-3565089D02*
G01X6121280Y-3544911D01*
G75*
G02X6129892Y-3536299I0008612J0000000D01*
G01X6147116Y-3536299D01*
G75*
G02X6155728Y-3544911I0000000J-008612D01*
G01X6155728Y-3565089D01*
G75*
G02X6147116Y-3573701I-008612J0000000D01*
G01X6129892Y-3573701D01*
G75*
G02X6121280Y-3565089I0000000J0008612D01*
G37*
G36*
G01X6059272Y-3565089D02*
G01X6059272Y-3544911D01*
G75*
G02X6067884Y-3536299I0008612J0000000D01*
G01X6085108Y-3536299D01*
G75*
G02X6093720Y-3544911I0000000J-008612D01*
G01X6093720Y-3565089D01*
G75*
G02X6085108Y-3573701I-008612J0000000D01*
G01X6067884Y-3573701D01*
G75*
G02X6059272Y-3565089I0000000J0008612D01*
G37*
G36*
G01X6979213Y-2620827D02*
G01X6979213Y-2599173D01*
G75*
G02X6987087Y-2591299I0007874J0000000D01*
G01X7002835Y-2591299D01*
G75*
G02X7010709Y-2599173I0000000J-007874D01*
G01X7010709Y-2620827D01*
G75*
G02X7002835Y-2628701I-007874J0000000D01*
G01X6987087Y-2628701D01*
G75*
G02X6979213Y-2620827I0000000J0007874D01*
G37*
G36*
G01X6914252Y-2620827D02*
G01X6914252Y-2599173D01*
G75*
G02X6922126Y-2591299I0007874J0000000D01*
G01X6937874Y-2591299D01*
G75*
G02X6945748Y-2599173I0000000J-007874D01*
G01X6945748Y-2620827D01*
G75*
G02X6937874Y-2628701I-007874J0000000D01*
G01X6922126Y-2628701D01*
G75*
G02X6914252Y-2620827I0000000J0007874D01*
G37*
G36*
G01X5432740Y-1735370D02*
G01X5432740Y-1656630D01*
G75*
G02X5442583Y-1646787I0009843J0000000D01*
G01X5596126Y-1646787D01*
G75*
G02X5605969Y-1656630I0000000J-009843D01*
G01X5605969Y-1735370D01*
G75*
G02X5596126Y-1745213I-009843J0000000D01*
G01X5442583Y-1745213D01*
G75*
G02X5432740Y-1735370I0000000J0009843D01*
G37*
G36*
G01X5102031Y-1735370D02*
G01X5102031Y-1656630D01*
G75*
G02X5111874Y-1646787I0009843J0000000D01*
G01X5265417Y-1646787D01*
G75*
G02X5275260Y-1656630I0000000J-009843D01*
G01X5275260Y-1735370D01*
G75*
G02X5265417Y-1745213I-009843J0000000D01*
G01X5111874Y-1745213D01*
G75*
G02X5102031Y-1735370I0000000J0009843D01*
G37*
G36*
G01X6345768Y-4279173D02*
G01X6345768Y-4300827D01*
G75*
G02X6337894Y-4308701I-007874J0000000D01*
G01X6322146Y-4308701D01*
G75*
G02X6314272Y-4300827I0000000J0007874D01*
G01X6314272Y-4279173D01*
G75*
G02X6322146Y-4271299I0007874J0000000D01*
G01X6337894Y-4271299D01*
G75*
G02X6345768Y-4279173I0000000J-007874D01*
G37*
G36*
G01X6410728Y-4279173D02*
G01X6410728Y-4300827D01*
G75*
G02X6402854Y-4308701I-007874J0000000D01*
G01X6387106Y-4308701D01*
G75*
G02X6379232Y-4300827I0000000J0007874D01*
G01X6379232Y-4279173D01*
G75*
G02X6387106Y-4271299I0007874J0000000D01*
G01X6402854Y-4271299D01*
G75*
G02X6410728Y-4279173I0000000J-007874D01*
G37*
G36*
G01X3948740Y-2609370D02*
G01X3948740Y-2530630D01*
G75*
G02X3958583Y-2520787I0009843J0000000D01*
G01X4112126Y-2520787D01*
G75*
G02X4121969Y-2530630I0000000J-009843D01*
G01X4121969Y-2609370D01*
G75*
G02X4112126Y-2619213I-009843J0000000D01*
G01X3958583Y-2619213D01*
G75*
G02X3948740Y-2609370I0000000J0009843D01*
G37*
G36*
G01X3618031Y-2609370D02*
G01X3618031Y-2530630D01*
G75*
G02X3627874Y-2520787I0009843J0000000D01*
G01X3781417Y-2520787D01*
G75*
G02X3791260Y-2530630I0000000J-009843D01*
G01X3791260Y-2609370D01*
G75*
G02X3781417Y-2619213I-009843J0000000D01*
G01X3627874Y-2619213D01*
G75*
G02X3618031Y-2609370I0000000J0009843D01*
G37*
G36*
G01X6901732Y-3830827D02*
G01X6901732Y-3809173D01*
G75*
G02X6909606Y-3801299I0007874J0000000D01*
G01X6925354Y-3801299D01*
G75*
G02X6933228Y-3809173I0000000J-007874D01*
G01X6933228Y-3830827D01*
G75*
G02X6925354Y-3838701I-007874J0000000D01*
G01X6909606Y-3838701D01*
G75*
G02X6901732Y-3830827I0000000J0007874D01*
G37*
G36*
G01X6836772Y-3830827D02*
G01X6836772Y-3809173D01*
G75*
G02X6844646Y-3801299I0007874J0000000D01*
G01X6860394Y-3801299D01*
G75*
G02X6868268Y-3809173I0000000J-007874D01*
G01X6868268Y-3830827D01*
G75*
G02X6860394Y-3838701I-007874J0000000D01*
G01X6844646Y-3838701D01*
G75*
G02X6836772Y-3830827I0000000J0007874D01*
G37*
G36*
G01X5600748Y-4957717D02*
G01X5600748Y-4922283D01*
G75*
G02X5610591Y-4912441I0009842J0000000D01*
G01X5631260Y-4912441D01*
G75*
G02X5641102Y-4922283I0000000J-009842D01*
G01X5641102Y-4957717D01*
G75*
G02X5631260Y-4967559I-009842J0000000D01*
G01X5610591Y-4967559D01*
G75*
G02X5600748Y-4957717I0000000J0009842D01*
G37*
G36*
G01X5528898Y-4957717D02*
G01X5528898Y-4922283D01*
G75*
G02X5538740Y-4912441I0009842J0000000D01*
G01X5559409Y-4912441D01*
G75*
G02X5569252Y-4922283I0000000J-009842D01*
G01X5569252Y-4957717D01*
G75*
G02X5559409Y-4967559I-009842J0000000D01*
G01X5538740Y-4967559D01*
G75*
G02X5528898Y-4957717I0000000J0009842D01*
G37*
G36*
G01X5580748Y-4862717D02*
G01X5580748Y-4827283D01*
G75*
G02X5590591Y-4817441I0009842J0000000D01*
G01X5611260Y-4817441D01*
G75*
G02X5621102Y-4827283I0000000J-009842D01*
G01X5621102Y-4862717D01*
G75*
G02X5611260Y-4872559I-009842J0000000D01*
G01X5590591Y-4872559D01*
G75*
G02X5580748Y-4862717I0000000J0009842D01*
G37*
G36*
G01X5508898Y-4862717D02*
G01X5508898Y-4827283D01*
G75*
G02X5518740Y-4817441I0009842J0000000D01*
G01X5539409Y-4817441D01*
G75*
G02X5549252Y-4827283I0000000J-009842D01*
G01X5549252Y-4862717D01*
G75*
G02X5539409Y-4872559I-009842J0000000D01*
G01X5518740Y-4872559D01*
G75*
G02X5508898Y-4862717I0000000J0009842D01*
G37*
G36*
G01X5947283Y-4990748D02*
G01X5982717Y-4990748D01*
G75*
G02X5992559Y-5000591I0000000J-009842D01*
G01X5992559Y-5021260D01*
G75*
G02X5982717Y-5031102I-009842J0000000D01*
G01X5947283Y-5031102D01*
G75*
G02X5937441Y-5021260I0000000J0009842D01*
G01X5937441Y-5000591D01*
G75*
G02X5947283Y-4990748I0009842J0000000D01*
G37*
G36*
G01X5947283Y-4918898D02*
G01X5982717Y-4918898D01*
G75*
G02X5992559Y-4928740I0000000J-009842D01*
G01X5992559Y-4949409D01*
G75*
G02X5982717Y-4959252I-009842J0000000D01*
G01X5947283Y-4959252D01*
G75*
G02X5937441Y-4949409I0000000J0009842D01*
G01X5937441Y-4928740D01*
G75*
G02X5947283Y-4918898I0009842J0000000D01*
G37*
G36*
G01X5852283Y-4895748D02*
G01X5887717Y-4895748D01*
G75*
G02X5897559Y-4905591I0000000J-009842D01*
G01X5897559Y-4926260D01*
G75*
G02X5887717Y-4936102I-009842J0000000D01*
G01X5852283Y-4936102D01*
G75*
G02X5842441Y-4926260I0000000J0009842D01*
G01X5842441Y-4905591D01*
G75*
G02X5852283Y-4895748I0009842J0000000D01*
G37*
G36*
G01X5852283Y-4823898D02*
G01X5887717Y-4823898D01*
G75*
G02X5897559Y-4833740I0000000J-009842D01*
G01X5897559Y-4854409D01*
G75*
G02X5887717Y-4864252I-009842J0000000D01*
G01X5852283Y-4864252D01*
G75*
G02X5842441Y-4854409I0000000J0009842D01*
G01X5842441Y-4833740D01*
G75*
G02X5852283Y-4823898I0009842J0000000D01*
G37*
G36*
G01X5471732Y-5130827D02*
G01X5471732Y-5109173D01*
G75*
G02X5479606Y-5101299I0007874J0000000D01*
G01X5495354Y-5101299D01*
G75*
G02X5503228Y-5109173I0000000J-007874D01*
G01X5503228Y-5130827D01*
G75*
G02X5495354Y-5138701I-007874J0000000D01*
G01X5479606Y-5138701D01*
G75*
G02X5471732Y-5130827I0000000J0007874D01*
G37*
G36*
G01X5406772Y-5130827D02*
G01X5406772Y-5109173D01*
G75*
G02X5414646Y-5101299I0007874J0000000D01*
G01X5430394Y-5101299D01*
G75*
G02X5438268Y-5109173I0000000J-007874D01*
G01X5438268Y-5130827D01*
G75*
G02X5430394Y-5138701I-007874J0000000D01*
G01X5414646Y-5138701D01*
G75*
G02X5406772Y-5130827I0000000J0007874D01*
G37*
G36*
G01X5436220Y-5039911D02*
G01X5436220Y-5060089D01*
G75*
G02X5427608Y-5068701I-008612J0000000D01*
G01X5410384Y-5068701D01*
G75*
G02X5401772Y-5060089I0000000J0008612D01*
G01X5401772Y-5039911D01*
G75*
G02X5410384Y-5031299I0008612J0000000D01*
G01X5427608Y-5031299D01*
G75*
G02X5436220Y-5039911I0000000J-008612D01*
G37*
G36*
G01X5498228Y-5039911D02*
G01X5498228Y-5060089D01*
G75*
G02X5489616Y-5068701I-008612J0000000D01*
G01X5472392Y-5068701D01*
G75*
G02X5463780Y-5060089I0000000J0008612D01*
G01X5463780Y-5039911D01*
G75*
G02X5472392Y-5031299I0008612J0000000D01*
G01X5489616Y-5031299D01*
G75*
G02X5498228Y-5039911I0000000J-008612D01*
G37*
G36*
G01X6027217Y-3178701D02*
G01X6027217Y-3141299D01*
G75*
G02X6037059Y-3131457I0009843J0000000D01*
G01X6056744Y-3131457D01*
G75*
G02X6066587Y-3141299I0000000J-009843D01*
G01X6066587Y-3178701D01*
G75*
G02X6056744Y-3188543I-009843J0000000D01*
G01X6037059Y-3188543D01*
G75*
G02X6027217Y-3178701I0000000J0009843D01*
G37*
G36*
G01X5952413Y-3178701D02*
G01X5952413Y-3141299D01*
G75*
G02X5962256Y-3131457I0009843J0000000D01*
G01X5981941Y-3131457D01*
G75*
G02X5991783Y-3141299I0000000J-009843D01*
G01X5991783Y-3178701D01*
G75*
G02X5981941Y-3188543I-009843J0000000D01*
G01X5962256Y-3188543D01*
G75*
G02X5952413Y-3178701I0000000J0009843D01*
G37*
G36*
G01X6291717Y-3142701D02*
G01X6291717Y-3105299D01*
G75*
G02X6301559Y-3095457I0009843J0000000D01*
G01X6321244Y-3095457D01*
G75*
G02X6331087Y-3105299I0000000J-009843D01*
G01X6331087Y-3142701D01*
G75*
G02X6321244Y-3152543I-009843J0000000D01*
G01X6301559Y-3152543D01*
G75*
G02X6291717Y-3142701I0000000J0009843D01*
G37*
G36*
G01X6216913Y-3142701D02*
G01X6216913Y-3105299D01*
G75*
G02X6226756Y-3095457I0009843J0000000D01*
G01X6246441Y-3095457D01*
G75*
G02X6256283Y-3105299I0000000J-009843D01*
G01X6256283Y-3142701D01*
G75*
G02X6246441Y-3152543I-009843J0000000D01*
G01X6226756Y-3152543D01*
G75*
G02X6216913Y-3142701I0000000J0009843D01*
G37*
G36*
G01X5571299Y-3997717D02*
G01X5608701Y-3997717D01*
G75*
G02X5618543Y-4007559I0000000J-009843D01*
G01X5618543Y-4027244D01*
G75*
G02X5608701Y-4037087I-009843J0000000D01*
G01X5571299Y-4037087D01*
G75*
G02X5561457Y-4027244I0000000J0009843D01*
G01X5561457Y-4007559D01*
G75*
G02X5571299Y-3997717I0009843J0000000D01*
G37*
G36*
G01X5571299Y-3922913D02*
G01X5608701Y-3922913D01*
G75*
G02X5618543Y-3932756I0000000J-009843D01*
G01X5618543Y-3952441D01*
G75*
G02X5608701Y-3962283I-009843J0000000D01*
G01X5571299Y-3962283D01*
G75*
G02X5561457Y-3952441I0000000J0009843D01*
G01X5561457Y-3932756D01*
G75*
G02X5571299Y-3922913I0009843J0000000D01*
G37*
G36*
G01X7243217Y-3360701D02*
G01X7243217Y-3323299D01*
G75*
G02X7253059Y-3313457I0009843J0000000D01*
G01X7272744Y-3313457D01*
G75*
G02X7282587Y-3323299I0000000J-009843D01*
G01X7282587Y-3360701D01*
G75*
G02X7272744Y-3370543I-009843J0000000D01*
G01X7253059Y-3370543D01*
G75*
G02X7243217Y-3360701I0000000J0009843D01*
G37*
G36*
G01X7168413Y-3360701D02*
G01X7168413Y-3323299D01*
G75*
G02X7178256Y-3313457I0009843J0000000D01*
G01X7197941Y-3313457D01*
G75*
G02X7207783Y-3323299I0000000J-009843D01*
G01X7207783Y-3360701D01*
G75*
G02X7197941Y-3370543I-009843J0000000D01*
G01X7178256Y-3370543D01*
G75*
G02X7168413Y-3360701I0000000J0009843D01*
G37*
G54D23*
G01X6099130Y-3352000D03*
G01X6177870Y-3314598D03*
G01X6177870Y-3389402D03*
G54D17*
G01X5716000Y-3742630D03*
G01X5753402Y-3821370D03*
G01X5678598Y-3821370D03*
G01X7211000Y-3522370D03*
G01X7173598Y-3443630D03*
G01X7248402Y-3443630D03*
G36*
G01X6331433Y-3245591D02*
G01X6331433Y-3194409D01*
G75*
G02X6341276Y-3184567I0009842J0000000D01*
G01X6366866Y-3184567D01*
G75*
G02X6376709Y-3194409I0000000J-009842D01*
G01X6376709Y-3245591D01*
G75*
G02X6366866Y-3255433I-009842J0000000D01*
G01X6341276Y-3255433D01*
G75*
G02X6331433Y-3245591I0000000J0009842D01*
G37*
G36*
G01X6215291Y-3245591D02*
G01X6215291Y-3194409D01*
G75*
G02X6225134Y-3184567I0009842J0000000D01*
G01X6250724Y-3184567D01*
G75*
G02X6260567Y-3194409I0000000J-009842D01*
G01X6260567Y-3245591D01*
G75*
G02X6250724Y-3255433I-009842J0000000D01*
G01X6225134Y-3255433D01*
G75*
G02X6215291Y-3245591I0000000J0009842D01*
G37*
G36*
G01X5674409Y-3985433D02*
G01X5725591Y-3985433D01*
G75*
G02X5735433Y-3995276I0000000J-009842D01*
G01X5735433Y-4020866D01*
G75*
G02X5725591Y-4030709I-009842J0000000D01*
G01X5674409Y-4030709D01*
G75*
G02X5664567Y-4020866I0000000J0009842D01*
G01X5664567Y-3995276D01*
G75*
G02X5674409Y-3985433I0009842J0000000D01*
G37*
G36*
G01X5674409Y-3869291D02*
G01X5725591Y-3869291D01*
G75*
G02X5735433Y-3879134I0000000J-009842D01*
G01X5735433Y-3904724D01*
G75*
G02X5725591Y-3914567I-009842J0000000D01*
G01X5674409Y-3914567D01*
G75*
G02X5664567Y-3904724I0000000J0009842D01*
G01X5664567Y-3879134D01*
G75*
G02X5674409Y-3869291I0009842J0000000D01*
G37*
G36*
G01X7260591Y-2897067D02*
G01X7209409Y-2897067D01*
G75*
G02X7199567Y-2887224I0000000J0009842D01*
G01X7199567Y-2861634D01*
G75*
G02X7209409Y-2851791I0009842J0000000D01*
G01X7260591Y-2851791D01*
G75*
G02X7270433Y-2861634I0000000J-009842D01*
G01X7270433Y-2887224D01*
G75*
G02X7260591Y-2897067I-009842J0000000D01*
G37*
G36*
G01X7260591Y-3013209D02*
G01X7209409Y-3013209D01*
G75*
G02X7199567Y-3003366I0000000J0009842D01*
G01X7199567Y-2977776D01*
G75*
G02X7209409Y-2967933I0009842J0000000D01*
G01X7260591Y-2967933D01*
G75*
G02X7270433Y-2977776I0000000J-009842D01*
G01X7270433Y-3003366D01*
G75*
G02X7260591Y-3013209I-009842J0000000D01*
G37*
G36*
G01X6369157Y-2714295D02*
G01X6388843Y-2714295D01*
G75*
G02X6397701Y-2723154I0000000J-008858D01*
G01X6397701Y-2740870D01*
G75*
G02X6388843Y-2749728I-008858J0000000D01*
G01X6369157Y-2749728D01*
G75*
G02X6360299Y-2740870I0000000J0008858D01*
G01X6360299Y-2723154D01*
G75*
G02X6369157Y-2714295I0008858J0000000D01*
G37*
G36*
G01X6369157Y-2653272D02*
G01X6388843Y-2653272D01*
G75*
G02X6397701Y-2662130I0000000J-008858D01*
G01X6397701Y-2679846D01*
G75*
G02X6388843Y-2688705I-008858J0000000D01*
G01X6369157Y-2688705D01*
G75*
G02X6360299Y-2679846I0000000J0008858D01*
G01X6360299Y-2662130D01*
G75*
G02X6369157Y-2653272I0008858J0000000D01*
G37*
G36*
G01X6359843Y-2910005D02*
G01X6340157Y-2910005D01*
G75*
G02X6331299Y-2901146I0000000J0008858D01*
G01X6331299Y-2883430D01*
G75*
G02X6340157Y-2874572I0008858J0000000D01*
G01X6359843Y-2874572D01*
G75*
G02X6368701Y-2883430I0000000J-008858D01*
G01X6368701Y-2901146D01*
G75*
G02X6359843Y-2910005I-008858J0000000D01*
G37*
G36*
G01X6359843Y-2971028D02*
G01X6340157Y-2971028D01*
G75*
G02X6331299Y-2962170I0000000J0008858D01*
G01X6331299Y-2944454D01*
G75*
G02X6340157Y-2935595I0008858J0000000D01*
G01X6359843Y-2935595D01*
G75*
G02X6368701Y-2944454I0000000J-008858D01*
G01X6368701Y-2962170D01*
G75*
G02X6359843Y-2971028I-008858J0000000D01*
G37*
G36*
G01X6438057Y-2823695D02*
G01X6457743Y-2823695D01*
G75*
G02X6466601Y-2832554I0000000J-008858D01*
G01X6466601Y-2850270D01*
G75*
G02X6457743Y-2859128I-008858J0000000D01*
G01X6438057Y-2859128D01*
G75*
G02X6429199Y-2850270I0000000J0008858D01*
G01X6429199Y-2832554D01*
G75*
G02X6438057Y-2823695I0008858J0000000D01*
G37*
G36*
G01X6438057Y-2762672D02*
G01X6457743Y-2762672D01*
G75*
G02X6466601Y-2771530I0000000J-008858D01*
G01X6466601Y-2789246D01*
G75*
G02X6457743Y-2798105I-008858J0000000D01*
G01X6438057Y-2798105D01*
G75*
G02X6429199Y-2789246I0000000J0008858D01*
G01X6429199Y-2771530D01*
G75*
G02X6438057Y-2762672I0008858J0000000D01*
G37*
G36*
G01X5796701Y-4859283D02*
G01X5759299Y-4859283D01*
G75*
G02X5749457Y-4849441I0000000J0009843D01*
G01X5749457Y-4829756D01*
G75*
G02X5759299Y-4819913I0009843J0000000D01*
G01X5796701Y-4819913D01*
G75*
G02X5806543Y-4829756I0000000J-009843D01*
G01X5806543Y-4849441D01*
G75*
G02X5796701Y-4859283I-009843J0000000D01*
G37*
G36*
G01X5796701Y-4934087D02*
G01X5759299Y-4934087D01*
G75*
G02X5749457Y-4924244I0000000J0009843D01*
G01X5749457Y-4904559D01*
G75*
G02X5759299Y-4894717I0009843J0000000D01*
G01X5796701Y-4894717D01*
G75*
G02X5806543Y-4904559I0000000J-009843D01*
G01X5806543Y-4924244D01*
G75*
G02X5796701Y-4934087I-009843J0000000D01*
G37*
G54D25*
G01X5869425Y-5164882D03*
G01X5672575Y-5164882D03*
G54D26*
G01X5885173Y-5271181D03*
G01X5656827Y-5271181D03*
G54D27*
G01X5908795Y-5271181D03*
G54D28*
G01X5810370Y-5271181D03*
G01X5731630Y-5271181D03*
G54D27*
G01X5633205Y-5271181D03*
G54D29*
G01X5822181Y-5164882D03*
G01X5796591Y-5164882D03*
G01X5771000Y-5164882D03*
G01X5745409Y-5164882D03*
G01X5719819Y-5164882D03*
G36*
G01X5638906Y-4591945D02*
G01X5627094Y-4591945D01*
G75*
G02X5621189Y-4586039I0000000J0005906D01*
G01X5621189Y-4521079D01*
G75*
G02X5627094Y-4515173I0005906J0000000D01*
G01X5638906Y-4515173D01*
G75*
G02X5644811Y-4521079I0000000J-005906D01*
G01X5644811Y-4586039D01*
G75*
G02X5638906Y-4591945I-005906J0000000D01*
G37*
G36*
G01X5688906Y-4591945D02*
G01X5677094Y-4591945D01*
G75*
G02X5671189Y-4586039I0000000J0005906D01*
G01X5671189Y-4521079D01*
G75*
G02X5677094Y-4515173I0005906J0000000D01*
G01X5688906Y-4515173D01*
G75*
G02X5694811Y-4521079I0000000J-005906D01*
G01X5694811Y-4586039D01*
G75*
G02X5688906Y-4591945I-005906J0000000D01*
G37*
G36*
G01X5738906Y-4591945D02*
G01X5727094Y-4591945D01*
G75*
G02X5721189Y-4586039I0000000J0005906D01*
G01X5721189Y-4521079D01*
G75*
G02X5727094Y-4515173I0005906J0000000D01*
G01X5738906Y-4515173D01*
G75*
G02X5744811Y-4521079I0000000J-005906D01*
G01X5744811Y-4586039D01*
G75*
G02X5738906Y-4591945I-005906J0000000D01*
G37*
G36*
G01X5788906Y-4591945D02*
G01X5777094Y-4591945D01*
G75*
G02X5771189Y-4586039I0000000J0005906D01*
G01X5771189Y-4521079D01*
G75*
G02X5777094Y-4515173I0005906J0000000D01*
G01X5788906Y-4515173D01*
G75*
G02X5794811Y-4521079I0000000J-005906D01*
G01X5794811Y-4586039D01*
G75*
G02X5788906Y-4591945I-005906J0000000D01*
G37*
G36*
G01X5838906Y-4591945D02*
G01X5827094Y-4591945D01*
G75*
G02X5821189Y-4586039I0000000J0005906D01*
G01X5821189Y-4521079D01*
G75*
G02X5827094Y-4515173I0005906J0000000D01*
G01X5838906Y-4515173D01*
G75*
G02X5844811Y-4521079I0000000J-005906D01*
G01X5844811Y-4586039D01*
G75*
G02X5838906Y-4591945I-005906J0000000D01*
G37*
G36*
G01X5888906Y-4591945D02*
G01X5877094Y-4591945D01*
G75*
G02X5871189Y-4586039I0000000J0005906D01*
G01X5871189Y-4521079D01*
G75*
G02X5877094Y-4515173I0005906J0000000D01*
G01X5888906Y-4515173D01*
G75*
G02X5894811Y-4521079I0000000J-005906D01*
G01X5894811Y-4586039D01*
G75*
G02X5888906Y-4591945I-005906J0000000D01*
G37*
G36*
G01X5938906Y-4591945D02*
G01X5927094Y-4591945D01*
G75*
G02X5921189Y-4586039I0000000J0005906D01*
G01X5921189Y-4521079D01*
G75*
G02X5927094Y-4515173I0005906J0000000D01*
G01X5938906Y-4515173D01*
G75*
G02X5944811Y-4521079I0000000J-005906D01*
G01X5944811Y-4586039D01*
G75*
G02X5938906Y-4591945I-005906J0000000D01*
G37*
G36*
G01X5988906Y-4591945D02*
G01X5977094Y-4591945D01*
G75*
G02X5971189Y-4586039I0000000J0005906D01*
G01X5971189Y-4521079D01*
G75*
G02X5977094Y-4515173I0005906J0000000D01*
G01X5988906Y-4515173D01*
G75*
G02X5994811Y-4521079I0000000J-005906D01*
G01X5994811Y-4586039D01*
G75*
G02X5988906Y-4591945I-005906J0000000D01*
G37*
G36*
G01X5988906Y-4786827D02*
G01X5977094Y-4786827D01*
G75*
G02X5971189Y-4780921I0000000J0005906D01*
G01X5971189Y-4715961D01*
G75*
G02X5977094Y-4710055I0005906J0000000D01*
G01X5988906Y-4710055D01*
G75*
G02X5994811Y-4715961I0000000J-005906D01*
G01X5994811Y-4780921D01*
G75*
G02X5988906Y-4786827I-005906J0000000D01*
G37*
G36*
G01X5938906Y-4786827D02*
G01X5927094Y-4786827D01*
G75*
G02X5921189Y-4780921I0000000J0005906D01*
G01X5921189Y-4715961D01*
G75*
G02X5927094Y-4710055I0005906J0000000D01*
G01X5938906Y-4710055D01*
G75*
G02X5944811Y-4715961I0000000J-005906D01*
G01X5944811Y-4780921D01*
G75*
G02X5938906Y-4786827I-005906J0000000D01*
G37*
G36*
G01X5888906Y-4786827D02*
G01X5877094Y-4786827D01*
G75*
G02X5871189Y-4780921I0000000J0005906D01*
G01X5871189Y-4715961D01*
G75*
G02X5877094Y-4710055I0005906J0000000D01*
G01X5888906Y-4710055D01*
G75*
G02X5894811Y-4715961I0000000J-005906D01*
G01X5894811Y-4780921D01*
G75*
G02X5888906Y-4786827I-005906J0000000D01*
G37*
G36*
G01X5838906Y-4786827D02*
G01X5827094Y-4786827D01*
G75*
G02X5821189Y-4780921I0000000J0005906D01*
G01X5821189Y-4715961D01*
G75*
G02X5827094Y-4710055I0005906J0000000D01*
G01X5838906Y-4710055D01*
G75*
G02X5844811Y-4715961I0000000J-005906D01*
G01X5844811Y-4780921D01*
G75*
G02X5838906Y-4786827I-005906J0000000D01*
G37*
G36*
G01X5788906Y-4786827D02*
G01X5777094Y-4786827D01*
G75*
G02X5771189Y-4780921I0000000J0005906D01*
G01X5771189Y-4715961D01*
G75*
G02X5777094Y-4710055I0005906J0000000D01*
G01X5788906Y-4710055D01*
G75*
G02X5794811Y-4715961I0000000J-005906D01*
G01X5794811Y-4780921D01*
G75*
G02X5788906Y-4786827I-005906J0000000D01*
G37*
G36*
G01X5738906Y-4786827D02*
G01X5727094Y-4786827D01*
G75*
G02X5721189Y-4780921I0000000J0005906D01*
G01X5721189Y-4715961D01*
G75*
G02X5727094Y-4710055I0005906J0000000D01*
G01X5738906Y-4710055D01*
G75*
G02X5744811Y-4715961I0000000J-005906D01*
G01X5744811Y-4780921D01*
G75*
G02X5738906Y-4786827I-005906J0000000D01*
G37*
G36*
G01X5688906Y-4786827D02*
G01X5677094Y-4786827D01*
G75*
G02X5671189Y-4780921I0000000J0005906D01*
G01X5671189Y-4715961D01*
G75*
G02X5677094Y-4710055I0005906J0000000D01*
G01X5688906Y-4710055D01*
G75*
G02X5694811Y-4715961I0000000J-005906D01*
G01X5694811Y-4780921D01*
G75*
G02X5688906Y-4786827I-005906J0000000D01*
G37*
G36*
G01X5638906Y-4786827D02*
G01X5627094Y-4786827D01*
G75*
G02X5621189Y-4780921I0000000J0005906D01*
G01X5621189Y-4715961D01*
G75*
G02X5627094Y-4710055I0005906J0000000D01*
G01X5638906Y-4710055D01*
G75*
G02X5644811Y-4715961I0000000J-005906D01*
G01X5644811Y-4780921D01*
G75*
G02X5638906Y-4786827I-005906J0000000D01*
G37*
G54D30*
G01X5751693Y-5030000D03*
G01X5751693Y-5067402D03*
G01X5751693Y-4992598D03*
G01X5838307Y-4992598D03*
G01X5838307Y-5030000D03*
G01X5838307Y-5067402D03*
G36*
G01X4098868Y-3949150D02*
G01X4098868Y-3967850D01*
G75*
G02X4089517Y-3977201I-009350J0000000D01*
G01X4069832Y-3977201D01*
G75*
G02X4060482Y-3967850I0000000J0009350D01*
G01X4060482Y-3949150D01*
G75*
G02X4069832Y-3939799I0009350J0000000D01*
G01X4089517Y-3939799D01*
G75*
G02X4098868Y-3949150I0000000J-009350D01*
G37*
G36*
G01X4170718Y-3949150D02*
G01X4170718Y-3967850D01*
G75*
G02X4161368Y-3977201I-009350J0000000D01*
G01X4141683Y-3977201D01*
G75*
G02X4132332Y-3967850I0000000J0009350D01*
G01X4132332Y-3949150D01*
G75*
G02X4141683Y-3939799I0009350J0000000D01*
G01X4161368Y-3939799D01*
G75*
G02X4170718Y-3949150I0000000J-009350D01*
G37*
G36*
G01X4132832Y-3899350D02*
G01X4132832Y-3880650D01*
G75*
G02X4142183Y-3871299I0009350J0000000D01*
G01X4161868Y-3871299D01*
G75*
G02X4171218Y-3880650I0000000J-009350D01*
G01X4171218Y-3899350D01*
G75*
G02X4161868Y-3908701I-009350J0000000D01*
G01X4142183Y-3908701D01*
G75*
G02X4132832Y-3899350I0000000J0009350D01*
G37*
G36*
G01X4060982Y-3899350D02*
G01X4060982Y-3880650D01*
G75*
G02X4070332Y-3871299I0009350J0000000D01*
G01X4090017Y-3871299D01*
G75*
G02X4099368Y-3880650I0000000J-009350D01*
G01X4099368Y-3899350D01*
G75*
G02X4090017Y-3908701I-009350J0000000D01*
G01X4070332Y-3908701D01*
G75*
G02X4060982Y-3899350I0000000J0009350D01*
G37*
G36*
G01X4088468Y-3115650D02*
G01X4088468Y-3134350D01*
G75*
G02X4079117Y-3143701I-009350J0000000D01*
G01X4059432Y-3143701D01*
G75*
G02X4050082Y-3134350I0000000J0009350D01*
G01X4050082Y-3115650D01*
G75*
G02X4059432Y-3106299I0009350J0000000D01*
G01X4079117Y-3106299D01*
G75*
G02X4088468Y-3115650I0000000J-009350D01*
G37*
G36*
G01X4160318Y-3115650D02*
G01X4160318Y-3134350D01*
G75*
G02X4150968Y-3143701I-009350J0000000D01*
G01X4131283Y-3143701D01*
G75*
G02X4121932Y-3134350I0000000J0009350D01*
G01X4121932Y-3115650D01*
G75*
G02X4131283Y-3106299I0009350J0000000D01*
G01X4150968Y-3106299D01*
G75*
G02X4160318Y-3115650I0000000J-009350D01*
G37*
G36*
G01X4120732Y-3064850D02*
G01X4120732Y-3046150D01*
G75*
G02X4130083Y-3036799I0009350J0000000D01*
G01X4149768Y-3036799D01*
G75*
G02X4159118Y-3046150I0000000J-009350D01*
G01X4159118Y-3064850D01*
G75*
G02X4149768Y-3074201I-009350J0000000D01*
G01X4130083Y-3074201D01*
G75*
G02X4120732Y-3064850I0000000J0009350D01*
G37*
G36*
G01X4048882Y-3064850D02*
G01X4048882Y-3046150D01*
G75*
G02X4058232Y-3036799I0009350J0000000D01*
G01X4077917Y-3036799D01*
G75*
G02X4087268Y-3046150I0000000J-009350D01*
G01X4087268Y-3064850D01*
G75*
G02X4077917Y-3074201I-009350J0000000D01*
G01X4058232Y-3074201D01*
G75*
G02X4048882Y-3064850I0000000J0009350D01*
G37*
G36*
G01X4788701Y-1632283D02*
G01X4751299Y-1632283D01*
G75*
G02X4741457Y-1622441I0000000J0009843D01*
G01X4741457Y-1602756D01*
G75*
G02X4751299Y-1592913I0009843J0000000D01*
G01X4788701Y-1592913D01*
G75*
G02X4798543Y-1602756I0000000J-009843D01*
G01X4798543Y-1622441D01*
G75*
G02X4788701Y-1632283I-009843J0000000D01*
G37*
G36*
G01X4788701Y-1707087D02*
G01X4751299Y-1707087D01*
G75*
G02X4741457Y-1697244I0000000J0009843D01*
G01X4741457Y-1677559D01*
G75*
G02X4751299Y-1667717I0009843J0000000D01*
G01X4788701Y-1667717D01*
G75*
G02X4798543Y-1677559I0000000J-009843D01*
G01X4798543Y-1697244D01*
G75*
G02X4788701Y-1707087I-009843J0000000D01*
G37*
G36*
G01X5987717Y-1678701D02*
G01X5987717Y-1641299D01*
G75*
G02X5997559Y-1631457I0009843J0000000D01*
G01X6017244Y-1631457D01*
G75*
G02X6027087Y-1641299I0000000J-009843D01*
G01X6027087Y-1678701D01*
G75*
G02X6017244Y-1688543I-009843J0000000D01*
G01X5997559Y-1688543D01*
G75*
G02X5987717Y-1678701I0000000J0009843D01*
G37*
G36*
G01X5912913Y-1678701D02*
G01X5912913Y-1641299D01*
G75*
G02X5922756Y-1631457I0009843J0000000D01*
G01X5942441Y-1631457D01*
G75*
G02X5952283Y-1641299I0000000J-009843D01*
G01X5952283Y-1678701D01*
G75*
G02X5942441Y-1688543I-009843J0000000D01*
G01X5922756Y-1688543D01*
G75*
G02X5912913Y-1678701I0000000J0009843D01*
G37*
G36*
G01X4859173Y-4616732D02*
G01X4880827Y-4616732D01*
G75*
G02X4888701Y-4624606I0000000J-007874D01*
G01X4888701Y-4640354D01*
G75*
G02X4880827Y-4648228I-007874J0000000D01*
G01X4859173Y-4648228D01*
G75*
G02X4851299Y-4640354I0000000J0007874D01*
G01X4851299Y-4624606D01*
G75*
G02X4859173Y-4616732I0007874J0000000D01*
G37*
G36*
G01X4859173Y-4551772D02*
G01X4880827Y-4551772D01*
G75*
G02X4888701Y-4559646I0000000J-007874D01*
G01X4888701Y-4575394D01*
G75*
G02X4880827Y-4583268I-007874J0000000D01*
G01X4859173Y-4583268D01*
G75*
G02X4851299Y-4575394I0000000J0007874D01*
G01X4851299Y-4559646D01*
G75*
G02X4859173Y-4551772I0007874J0000000D01*
G37*
G36*
G01X4960089Y-4586220D02*
G01X4939911Y-4586220D01*
G75*
G02X4931299Y-4577608I0000000J0008612D01*
G01X4931299Y-4560384D01*
G75*
G02X4939911Y-4551772I0008612J0000000D01*
G01X4960089Y-4551772D01*
G75*
G02X4968701Y-4560384I0000000J-008612D01*
G01X4968701Y-4577608D01*
G75*
G02X4960089Y-4586220I-008612J0000000D01*
G37*
G36*
G01X4960089Y-4648228D02*
G01X4939911Y-4648228D01*
G75*
G02X4931299Y-4639616I0000000J0008612D01*
G01X4931299Y-4622392D01*
G75*
G02X4939911Y-4613780I0008612J0000000D01*
G01X4960089Y-4613780D01*
G75*
G02X4968701Y-4622392I0000000J-008612D01*
G01X4968701Y-4639616D01*
G75*
G02X4960089Y-4648228I-008612J0000000D01*
G37*
G36*
G01X4552732Y-4418827D02*
G01X4552732Y-4397173D01*
G75*
G02X4560606Y-4389299I0007874J0000000D01*
G01X4576354Y-4389299D01*
G75*
G02X4584228Y-4397173I0000000J-007874D01*
G01X4584228Y-4418827D01*
G75*
G02X4576354Y-4426701I-007874J0000000D01*
G01X4560606Y-4426701D01*
G75*
G02X4552732Y-4418827I0000000J0007874D01*
G37*
G36*
G01X4487772Y-4418827D02*
G01X4487772Y-4397173D01*
G75*
G02X4495646Y-4389299I0007874J0000000D01*
G01X4511394Y-4389299D01*
G75*
G02X4519268Y-4397173I0000000J-007874D01*
G01X4519268Y-4418827D01*
G75*
G02X4511394Y-4426701I-007874J0000000D01*
G01X4495646Y-4426701D01*
G75*
G02X4487772Y-4418827I0000000J0007874D01*
G37*
G36*
G01X4436732Y-3360827D02*
G01X4436732Y-3339173D01*
G75*
G02X4444606Y-3331299I0007874J0000000D01*
G01X4460354Y-3331299D01*
G75*
G02X4468228Y-3339173I0000000J-007874D01*
G01X4468228Y-3360827D01*
G75*
G02X4460354Y-3368701I-007874J0000000D01*
G01X4444606Y-3368701D01*
G75*
G02X4436732Y-3360827I0000000J0007874D01*
G37*
G36*
G01X4371772Y-3360827D02*
G01X4371772Y-3339173D01*
G75*
G02X4379646Y-3331299I0007874J0000000D01*
G01X4395394Y-3331299D01*
G75*
G02X4403268Y-3339173I0000000J-007874D01*
G01X4403268Y-3360827D01*
G75*
G02X4395394Y-3368701I-007874J0000000D01*
G01X4379646Y-3368701D01*
G75*
G02X4371772Y-3360827I0000000J0007874D01*
G37*
G36*
G01X4517220Y-4483911D02*
G01X4517220Y-4504089D01*
G75*
G02X4508608Y-4512701I-008612J0000000D01*
G01X4491384Y-4512701D01*
G75*
G02X4482772Y-4504089I0000000J0008612D01*
G01X4482772Y-4483911D01*
G75*
G02X4491384Y-4475299I0008612J0000000D01*
G01X4508608Y-4475299D01*
G75*
G02X4517220Y-4483911I0000000J-008612D01*
G37*
G36*
G01X4579228Y-4483911D02*
G01X4579228Y-4504089D01*
G75*
G02X4570616Y-4512701I-008612J0000000D01*
G01X4553392Y-4512701D01*
G75*
G02X4544780Y-4504089I0000000J0008612D01*
G01X4544780Y-4483911D01*
G75*
G02X4553392Y-4475299I0008612J0000000D01*
G01X4570616Y-4475299D01*
G75*
G02X4579228Y-4483911I0000000J-008612D01*
G37*
G36*
G01X4293780Y-3360089D02*
G01X4293780Y-3339911D01*
G75*
G02X4302392Y-3331299I0008612J0000000D01*
G01X4319616Y-3331299D01*
G75*
G02X4328228Y-3339911I0000000J-008612D01*
G01X4328228Y-3360089D01*
G75*
G02X4319616Y-3368701I-008612J0000000D01*
G01X4302392Y-3368701D01*
G75*
G02X4293780Y-3360089I0000000J0008612D01*
G37*
G36*
G01X4231772Y-3360089D02*
G01X4231772Y-3339911D01*
G75*
G02X4240384Y-3331299I0008612J0000000D01*
G01X4257608Y-3331299D01*
G75*
G02X4266220Y-3339911I0000000J-008612D01*
G01X4266220Y-3360089D01*
G75*
G02X4257608Y-3368701I-008612J0000000D01*
G01X4240384Y-3368701D01*
G75*
G02X4231772Y-3360089I0000000J0008612D01*
G37*
G36*
G01X5000295Y-4277343D02*
G01X5000295Y-4257657D01*
G75*
G02X5009154Y-4248799I0008858J0000000D01*
G01X5026870Y-4248799D01*
G75*
G02X5035728Y-4257657I0000000J-008858D01*
G01X5035728Y-4277343D01*
G75*
G02X5026870Y-4286201I-008858J0000000D01*
G01X5009154Y-4286201D01*
G75*
G02X5000295Y-4277343I0000000J0008858D01*
G37*
G36*
G01X4939272Y-4277343D02*
G01X4939272Y-4257657D01*
G75*
G02X4948130Y-4248799I0008858J0000000D01*
G01X4965846Y-4248799D01*
G75*
G02X4974705Y-4257657I0000000J-008858D01*
G01X4974705Y-4277343D01*
G75*
G02X4965846Y-4286201I-008858J0000000D01*
G01X4948130Y-4286201D01*
G75*
G02X4939272Y-4277343I0000000J0008858D01*
G37*
G36*
G01X5109173Y-3921732D02*
G01X5130827Y-3921732D01*
G75*
G02X5138701Y-3929606I0000000J-007874D01*
G01X5138701Y-3945354D01*
G75*
G02X5130827Y-3953228I-007874J0000000D01*
G01X5109173Y-3953228D01*
G75*
G02X5101299Y-3945354I0000000J0007874D01*
G01X5101299Y-3929606D01*
G75*
G02X5109173Y-3921732I0007874J0000000D01*
G37*
G36*
G01X5109173Y-3856772D02*
G01X5130827Y-3856772D01*
G75*
G02X5138701Y-3864646I0000000J-007874D01*
G01X5138701Y-3880394D01*
G75*
G02X5130827Y-3888268I-007874J0000000D01*
G01X5109173Y-3888268D01*
G75*
G02X5101299Y-3880394I0000000J0007874D01*
G01X5101299Y-3864646D01*
G75*
G02X5109173Y-3856772I0007874J0000000D01*
G37*
G36*
G01X5109911Y-3786280D02*
G01X5130089Y-3786280D01*
G75*
G02X5138701Y-3794892I0000000J-008612D01*
G01X5138701Y-3812116D01*
G75*
G02X5130089Y-3820728I-008612J0000000D01*
G01X5109911Y-3820728D01*
G75*
G02X5101299Y-3812116I0000000J0008612D01*
G01X5101299Y-3794892D01*
G75*
G02X5109911Y-3786280I0008612J0000000D01*
G37*
G36*
G01X5109911Y-3724272D02*
G01X5130089Y-3724272D01*
G75*
G02X5138701Y-3732884I0000000J-008612D01*
G01X5138701Y-3750108D01*
G75*
G02X5130089Y-3758720I-008612J0000000D01*
G01X5109911Y-3758720D01*
G75*
G02X5101299Y-3750108I0000000J0008612D01*
G01X5101299Y-3732884D01*
G75*
G02X5109911Y-3724272I0008612J0000000D01*
G37*
G36*
G01X5578827Y-4193268D02*
G01X5557173Y-4193268D01*
G75*
G02X5549299Y-4185394I0000000J0007874D01*
G01X5549299Y-4169646D01*
G75*
G02X5557173Y-4161772I0007874J0000000D01*
G01X5578827Y-4161772D01*
G75*
G02X5586701Y-4169646I0000000J-007874D01*
G01X5586701Y-4185394D01*
G75*
G02X5578827Y-4193268I-007874J0000000D01*
G37*
G36*
G01X5578827Y-4258228D02*
G01X5557173Y-4258228D01*
G75*
G02X5549299Y-4250354I0000000J0007874D01*
G01X5549299Y-4234606D01*
G75*
G02X5557173Y-4226732I0007874J0000000D01*
G01X5578827Y-4226732D01*
G75*
G02X5586701Y-4234606I0000000J-007874D01*
G01X5586701Y-4250354D01*
G75*
G02X5578827Y-4258228I-007874J0000000D01*
G37*
G36*
G01X5620732Y-4124827D02*
G01X5620732Y-4103173D01*
G75*
G02X5628606Y-4095299I0007874J0000000D01*
G01X5644354Y-4095299D01*
G75*
G02X5652228Y-4103173I0000000J-007874D01*
G01X5652228Y-4124827D01*
G75*
G02X5644354Y-4132701I-007874J0000000D01*
G01X5628606Y-4132701D01*
G75*
G02X5620732Y-4124827I0000000J0007874D01*
G37*
G36*
G01X5555772Y-4124827D02*
G01X5555772Y-4103173D01*
G75*
G02X5563646Y-4095299I0007874J0000000D01*
G01X5579394Y-4095299D01*
G75*
G02X5587268Y-4103173I0000000J-007874D01*
G01X5587268Y-4124827D01*
G75*
G02X5579394Y-4132701I-007874J0000000D01*
G01X5563646Y-4132701D01*
G75*
G02X5555772Y-4124827I0000000J0007874D01*
G37*
G36*
G01X6495173Y-4066732D02*
G01X6516827Y-4066732D01*
G75*
G02X6524701Y-4074606I0000000J-007874D01*
G01X6524701Y-4090354D01*
G75*
G02X6516827Y-4098228I-007874J0000000D01*
G01X6495173Y-4098228D01*
G75*
G02X6487299Y-4090354I0000000J0007874D01*
G01X6487299Y-4074606D01*
G75*
G02X6495173Y-4066732I0007874J0000000D01*
G37*
G36*
G01X6495173Y-4001772D02*
G01X6516827Y-4001772D01*
G75*
G02X6524701Y-4009646I0000000J-007874D01*
G01X6524701Y-4025394D01*
G75*
G02X6516827Y-4033268I-007874J0000000D01*
G01X6495173Y-4033268D01*
G75*
G02X6487299Y-4025394I0000000J0007874D01*
G01X6487299Y-4009646D01*
G75*
G02X6495173Y-4001772I0007874J0000000D01*
G37*
G36*
G01X6684232Y-3645827D02*
G01X6684232Y-3624173D01*
G75*
G02X6692106Y-3616299I0007874J0000000D01*
G01X6707854Y-3616299D01*
G75*
G02X6715728Y-3624173I0000000J-007874D01*
G01X6715728Y-3645827D01*
G75*
G02X6707854Y-3653701I-007874J0000000D01*
G01X6692106Y-3653701D01*
G75*
G02X6684232Y-3645827I0000000J0007874D01*
G37*
G36*
G01X6619272Y-3645827D02*
G01X6619272Y-3624173D01*
G75*
G02X6627146Y-3616299I0007874J0000000D01*
G01X6642894Y-3616299D01*
G75*
G02X6650768Y-3624173I0000000J-007874D01*
G01X6650768Y-3645827D01*
G75*
G02X6642894Y-3653701I-007874J0000000D01*
G01X6627146Y-3653701D01*
G75*
G02X6619272Y-3645827I0000000J0007874D01*
G37*
G36*
G01X6638827Y-3735268D02*
G01X6617173Y-3735268D01*
G75*
G02X6609299Y-3727394I0000000J0007874D01*
G01X6609299Y-3711646D01*
G75*
G02X6617173Y-3703772I0007874J0000000D01*
G01X6638827Y-3703772D01*
G75*
G02X6646701Y-3711646I0000000J-007874D01*
G01X6646701Y-3727394D01*
G75*
G02X6638827Y-3735268I-007874J0000000D01*
G37*
G36*
G01X6638827Y-3800228D02*
G01X6617173Y-3800228D01*
G75*
G02X6609299Y-3792354I0000000J0007874D01*
G01X6609299Y-3776606D01*
G75*
G02X6617173Y-3768732I0007874J0000000D01*
G01X6638827Y-3768732D01*
G75*
G02X6646701Y-3776606I0000000J-007874D01*
G01X6646701Y-3792354D01*
G75*
G02X6638827Y-3800228I-007874J0000000D01*
G37*
G36*
G01X5604627Y-3366868D02*
G01X5582973Y-3366868D01*
G75*
G02X5575099Y-3358994I0000000J0007874D01*
G01X5575099Y-3343246D01*
G75*
G02X5582973Y-3335372I0007874J0000000D01*
G01X5604627Y-3335372D01*
G75*
G02X5612501Y-3343246I0000000J-007874D01*
G01X5612501Y-3358994D01*
G75*
G02X5604627Y-3366868I-007874J0000000D01*
G37*
G36*
G01X5604627Y-3431828D02*
G01X5582973Y-3431828D01*
G75*
G02X5575099Y-3423954I0000000J0007874D01*
G01X5575099Y-3408206D01*
G75*
G02X5582973Y-3400332I0007874J0000000D01*
G01X5604627Y-3400332D01*
G75*
G02X5612501Y-3408206I0000000J-007874D01*
G01X5612501Y-3423954D01*
G75*
G02X5604627Y-3431828I-007874J0000000D01*
G37*
G36*
G01X5568227Y-2898068D02*
G01X5546573Y-2898068D01*
G75*
G02X5538699Y-2890194I0000000J0007874D01*
G01X5538699Y-2874446D01*
G75*
G02X5546573Y-2866572I0007874J0000000D01*
G01X5568227Y-2866572D01*
G75*
G02X5576101Y-2874446I0000000J-007874D01*
G01X5576101Y-2890194D01*
G75*
G02X5568227Y-2898068I-007874J0000000D01*
G37*
G36*
G01X5568227Y-2963028D02*
G01X5546573Y-2963028D01*
G75*
G02X5538699Y-2955154I0000000J0007874D01*
G01X5538699Y-2939406D01*
G75*
G02X5546573Y-2931532I0007874J0000000D01*
G01X5568227Y-2931532D01*
G75*
G02X5576101Y-2939406I0000000J-007874D01*
G01X5576101Y-2955154D01*
G75*
G02X5568227Y-2963028I-007874J0000000D01*
G37*
G36*
G01X5403868Y-3250573D02*
G01X5403868Y-3272227D01*
G75*
G02X5395994Y-3280101I-007874J0000000D01*
G01X5380246Y-3280101D01*
G75*
G02X5372372Y-3272227I0000000J0007874D01*
G01X5372372Y-3250573D01*
G75*
G02X5380246Y-3242699I0007874J0000000D01*
G01X5395994Y-3242699D01*
G75*
G02X5403868Y-3250573I0000000J-007874D01*
G37*
G36*
G01X5468828Y-3250573D02*
G01X5468828Y-3272227D01*
G75*
G02X5460954Y-3280101I-007874J0000000D01*
G01X5445206Y-3280101D01*
G75*
G02X5437332Y-3272227I0000000J0007874D01*
G01X5437332Y-3250573D01*
G75*
G02X5445206Y-3242699I0007874J0000000D01*
G01X5460954Y-3242699D01*
G75*
G02X5468828Y-3250573I0000000J-007874D01*
G37*
G36*
G01X5488573Y-2931732D02*
G01X5510227Y-2931732D01*
G75*
G02X5518101Y-2939606I0000000J-007874D01*
G01X5518101Y-2955354D01*
G75*
G02X5510227Y-2963228I-007874J0000000D01*
G01X5488573Y-2963228D01*
G75*
G02X5480699Y-2955354I0000000J0007874D01*
G01X5480699Y-2939606D01*
G75*
G02X5488573Y-2931732I0007874J0000000D01*
G37*
G36*
G01X5488573Y-2866772D02*
G01X5510227Y-2866772D01*
G75*
G02X5518101Y-2874646I0000000J-007874D01*
G01X5518101Y-2890394D01*
G75*
G02X5510227Y-2898268I-007874J0000000D01*
G01X5488573Y-2898268D01*
G75*
G02X5480699Y-2890394I0000000J0007874D01*
G01X5480699Y-2874646D01*
G75*
G02X5488573Y-2866772I0007874J0000000D01*
G37*
G36*
G01X5436632Y-3337127D02*
G01X5436632Y-3315473D01*
G75*
G02X5444506Y-3307599I0007874J0000000D01*
G01X5460254Y-3307599D01*
G75*
G02X5468128Y-3315473I0000000J-007874D01*
G01X5468128Y-3337127D01*
G75*
G02X5460254Y-3345001I-007874J0000000D01*
G01X5444506Y-3345001D01*
G75*
G02X5436632Y-3337127I0000000J0007874D01*
G37*
G36*
G01X5371672Y-3337127D02*
G01X5371672Y-3315473D01*
G75*
G02X5379546Y-3307599I0007874J0000000D01*
G01X5395294Y-3307599D01*
G75*
G02X5403168Y-3315473I0000000J-007874D01*
G01X5403168Y-3337127D01*
G75*
G02X5395294Y-3345001I-007874J0000000D01*
G01X5379546Y-3345001D01*
G75*
G02X5371672Y-3337127I0000000J0007874D01*
G37*
G36*
G01X4627173Y-3980732D02*
G01X4648827Y-3980732D01*
G75*
G02X4656701Y-3988606I0000000J-007874D01*
G01X4656701Y-4004354D01*
G75*
G02X4648827Y-4012228I-007874J0000000D01*
G01X4627173Y-4012228D01*
G75*
G02X4619299Y-4004354I0000000J0007874D01*
G01X4619299Y-3988606D01*
G75*
G02X4627173Y-3980732I0007874J0000000D01*
G37*
G36*
G01X4627173Y-3915772D02*
G01X4648827Y-3915772D01*
G75*
G02X4656701Y-3923646I0000000J-007874D01*
G01X4656701Y-3939394D01*
G75*
G02X4648827Y-3947268I-007874J0000000D01*
G01X4627173Y-3947268D01*
G75*
G02X4619299Y-3939394I0000000J0007874D01*
G01X4619299Y-3923646D01*
G75*
G02X4627173Y-3915772I0007874J0000000D01*
G37*
G36*
G01X4442373Y-4022732D02*
G01X4464027Y-4022732D01*
G75*
G02X4471901Y-4030606I0000000J-007874D01*
G01X4471901Y-4046354D01*
G75*
G02X4464027Y-4054228I-007874J0000000D01*
G01X4442373Y-4054228D01*
G75*
G02X4434499Y-4046354I0000000J0007874D01*
G01X4434499Y-4030606D01*
G75*
G02X4442373Y-4022732I0007874J0000000D01*
G37*
G36*
G01X4442373Y-3957772D02*
G01X4464027Y-3957772D01*
G75*
G02X4471901Y-3965646I0000000J-007874D01*
G01X4471901Y-3981394D01*
G75*
G02X4464027Y-3989268I-007874J0000000D01*
G01X4442373Y-3989268D01*
G75*
G02X4434499Y-3981394I0000000J0007874D01*
G01X4434499Y-3965646D01*
G75*
G02X4442373Y-3957772I0007874J0000000D01*
G37*
G36*
G01X4528827Y-3999268D02*
G01X4507173Y-3999268D01*
G75*
G02X4499299Y-3991394I0000000J0007874D01*
G01X4499299Y-3975646D01*
G75*
G02X4507173Y-3967772I0007874J0000000D01*
G01X4528827Y-3967772D01*
G75*
G02X4536701Y-3975646I0000000J-007874D01*
G01X4536701Y-3991394D01*
G75*
G02X4528827Y-3999268I-007874J0000000D01*
G37*
G36*
G01X4528827Y-4064228D02*
G01X4507173Y-4064228D01*
G75*
G02X4499299Y-4056354I0000000J0007874D01*
G01X4499299Y-4040606D01*
G75*
G02X4507173Y-4032732I0007874J0000000D01*
G01X4528827Y-4032732D01*
G75*
G02X4536701Y-4040606I0000000J-007874D01*
G01X4536701Y-4056354D01*
G75*
G02X4528827Y-4064228I-007874J0000000D01*
G37*
G36*
G01X4589173Y-3161732D02*
G01X4610827Y-3161732D01*
G75*
G02X4618701Y-3169606I0000000J-007874D01*
G01X4618701Y-3185354D01*
G75*
G02X4610827Y-3193228I-007874J0000000D01*
G01X4589173Y-3193228D01*
G75*
G02X4581299Y-3185354I0000000J0007874D01*
G01X4581299Y-3169606D01*
G75*
G02X4589173Y-3161732I0007874J0000000D01*
G37*
G36*
G01X4589173Y-3096772D02*
G01X4610827Y-3096772D01*
G75*
G02X4618701Y-3104646I0000000J-007874D01*
G01X4618701Y-3120394D01*
G75*
G02X4610827Y-3128268I-007874J0000000D01*
G01X4589173Y-3128268D01*
G75*
G02X4581299Y-3120394I0000000J0007874D01*
G01X4581299Y-3104646D01*
G75*
G02X4589173Y-3096772I0007874J0000000D01*
G37*
G36*
G01X4421973Y-3188532D02*
G01X4443627Y-3188532D01*
G75*
G02X4451501Y-3196406I0000000J-007874D01*
G01X4451501Y-3212154D01*
G75*
G02X4443627Y-3220028I-007874J0000000D01*
G01X4421973Y-3220028D01*
G75*
G02X4414099Y-3212154I0000000J0007874D01*
G01X4414099Y-3196406D01*
G75*
G02X4421973Y-3188532I0007874J0000000D01*
G37*
G36*
G01X4421973Y-3123572D02*
G01X4443627Y-3123572D01*
G75*
G02X4451501Y-3131446I0000000J-007874D01*
G01X4451501Y-3147194D01*
G75*
G02X4443627Y-3155068I-007874J0000000D01*
G01X4421973Y-3155068D01*
G75*
G02X4414099Y-3147194I0000000J0007874D01*
G01X4414099Y-3131446D01*
G75*
G02X4421973Y-3123572I0007874J0000000D01*
G37*
G36*
G01X4501827Y-3156468D02*
G01X4480173Y-3156468D01*
G75*
G02X4472299Y-3148594I0000000J0007874D01*
G01X4472299Y-3132846D01*
G75*
G02X4480173Y-3124972I0007874J0000000D01*
G01X4501827Y-3124972D01*
G75*
G02X4509701Y-3132846I0000000J-007874D01*
G01X4509701Y-3148594D01*
G75*
G02X4501827Y-3156468I-007874J0000000D01*
G37*
G36*
G01X4501827Y-3221428D02*
G01X4480173Y-3221428D01*
G75*
G02X4472299Y-3213554I0000000J0007874D01*
G01X4472299Y-3197806D01*
G75*
G02X4480173Y-3189932I0007874J0000000D01*
G01X4501827Y-3189932D01*
G75*
G02X4509701Y-3197806I0000000J-007874D01*
G01X4509701Y-3213554D01*
G75*
G02X4501827Y-3221428I-007874J0000000D01*
G37*
G54D31*
G01X5775800Y-3100760D03*
G01X5775800Y-3258240D03*
G54D32*
G01X4328260Y-3658500D03*
G01X4485740Y-3658500D03*
G01X4295560Y-2809800D03*
G01X4453040Y-2809800D03*
G36*
G01X5069591Y-1600567D02*
G01X5018409Y-1600567D01*
G75*
G02X5008567Y-1590724I0000000J0009842D01*
G01X5008567Y-1565134D01*
G75*
G02X5018409Y-1555291I0009842J0000000D01*
G01X5069591Y-1555291D01*
G75*
G02X5079433Y-1565134I0000000J-009842D01*
G01X5079433Y-1590724D01*
G75*
G02X5069591Y-1600567I-009842J0000000D01*
G37*
G36*
G01X5069591Y-1716709D02*
G01X5018409Y-1716709D01*
G75*
G02X5008567Y-1706866I0000000J0009842D01*
G01X5008567Y-1681276D01*
G75*
G02X5018409Y-1671433I0009842J0000000D01*
G01X5069591Y-1671433D01*
G75*
G02X5079433Y-1681276I0000000J-009842D01*
G01X5079433Y-1706866D01*
G75*
G02X5069591Y-1716709I-009842J0000000D01*
G37*
G36*
G01X4919591Y-1600567D02*
G01X4868409Y-1600567D01*
G75*
G02X4858567Y-1590724I0000000J0009842D01*
G01X4858567Y-1565134D01*
G75*
G02X4868409Y-1555291I0009842J0000000D01*
G01X4919591Y-1555291D01*
G75*
G02X4929433Y-1565134I0000000J-009842D01*
G01X4929433Y-1590724D01*
G75*
G02X4919591Y-1600567I-009842J0000000D01*
G37*
G36*
G01X4919591Y-1716709D02*
G01X4868409Y-1716709D01*
G75*
G02X4858567Y-1706866I0000000J0009842D01*
G01X4858567Y-1681276D01*
G75*
G02X4868409Y-1671433I0009842J0000000D01*
G01X4919591Y-1671433D01*
G75*
G02X4929433Y-1681276I0000000J-009842D01*
G01X4929433Y-1706866D01*
G75*
G02X4919591Y-1716709I-009842J0000000D01*
G37*
G54D16*
G01X4824567Y-3500000D03*
G01X4610000Y-3500000D03*
G54D33*
G01X5160000Y-4072693D03*
G01X5122598Y-4072693D03*
G01X5197402Y-4072693D03*
G01X5197402Y-4159307D03*
G01X5160000Y-4159307D03*
G01X5122598Y-4159307D03*
G36*
G01X6547008Y-2878346D02*
G01X6571811Y-2878346D01*
G75*
G02X6581654Y-2888189I0000000J-009843D01*
G01X6581654Y-2912992D01*
G75*
G02X6571811Y-2922835I-009843J0000000D01*
G01X6547008Y-2922835D01*
G75*
G02X6537165Y-2912992I0000000J0009843D01*
G01X6537165Y-2888189D01*
G75*
G02X6547008Y-2878346I0009843J0000000D01*
G37*
G36*
G01X6598189Y-2878346D02*
G01X6622992Y-2878346D01*
G75*
G02X6632835Y-2888189I0000000J-009843D01*
G01X6632835Y-2912992D01*
G75*
G02X6622992Y-2922835I-009843J0000000D01*
G01X6598189Y-2922835D01*
G75*
G02X6588346Y-2912992I0000000J0009843D01*
G01X6588346Y-2888189D01*
G75*
G02X6598189Y-2878346I0009843J0000000D01*
G37*
G36*
G01X6547008Y-2827165D02*
G01X6571811Y-2827165D01*
G75*
G02X6581654Y-2837008I0000000J-009843D01*
G01X6581654Y-2861811D01*
G75*
G02X6571811Y-2871654I-009843J0000000D01*
G01X6547008Y-2871654D01*
G75*
G02X6537165Y-2861811I0000000J0009843D01*
G01X6537165Y-2837008D01*
G75*
G02X6547008Y-2827165I0009843J0000000D01*
G37*
G36*
G01X6598189Y-2827165D02*
G01X6622992Y-2827165D01*
G75*
G02X6632835Y-2837008I0000000J-009843D01*
G01X6632835Y-2861811D01*
G75*
G02X6622992Y-2871654I-009843J0000000D01*
G01X6598189Y-2871654D01*
G75*
G02X6588346Y-2861811I0000000J0009843D01*
G01X6588346Y-2837008D01*
G75*
G02X6598189Y-2827165I0009843J0000000D01*
G37*
G36*
G01X6646516Y-2830709D02*
G01X6675059Y-2830709D01*
G75*
G02X6677520Y-2833169I0000000J-002461D01*
G01X6677520Y-2838091D01*
G75*
G02X6675059Y-2840551I-002461J0000000D01*
G01X6646516Y-2840551D01*
G75*
G02X6644055Y-2838091I0000000J0002461D01*
G01X6644055Y-2833169D01*
G75*
G02X6646516Y-2830709I0002461J0000000D01*
G37*
G36*
G01X6646516Y-2850394D02*
G01X6675059Y-2850394D01*
G75*
G02X6677520Y-2852854I0000000J-002461D01*
G01X6677520Y-2857776D01*
G75*
G02X6675059Y-2860236I-002461J0000000D01*
G01X6646516Y-2860236D01*
G75*
G02X6644055Y-2857776I0000000J0002461D01*
G01X6644055Y-2852854D01*
G75*
G02X6646516Y-2850394I0002461J0000000D01*
G37*
G36*
G01X6646516Y-2870079D02*
G01X6675059Y-2870079D01*
G75*
G02X6677520Y-2872539I0000000J-002461D01*
G01X6677520Y-2877461D01*
G75*
G02X6675059Y-2879921I-002461J0000000D01*
G01X6646516Y-2879921D01*
G75*
G02X6644055Y-2877461I0000000J0002461D01*
G01X6644055Y-2872539D01*
G75*
G02X6646516Y-2870079I0002461J0000000D01*
G37*
G36*
G01X6646516Y-2889764D02*
G01X6675059Y-2889764D01*
G75*
G02X6677520Y-2892224I0000000J-002461D01*
G01X6677520Y-2897146D01*
G75*
G02X6675059Y-2899606I-002461J0000000D01*
G01X6646516Y-2899606D01*
G75*
G02X6644055Y-2897146I0000000J0002461D01*
G01X6644055Y-2892224D01*
G75*
G02X6646516Y-2889764I0002461J0000000D01*
G37*
G36*
G01X6646516Y-2909449D02*
G01X6675059Y-2909449D01*
G75*
G02X6677520Y-2911909I0000000J-002461D01*
G01X6677520Y-2916831D01*
G75*
G02X6675059Y-2919291I-002461J0000000D01*
G01X6646516Y-2919291D01*
G75*
G02X6644055Y-2916831I0000000J0002461D01*
G01X6644055Y-2911909D01*
G75*
G02X6646516Y-2909449I0002461J0000000D01*
G37*
G36*
G01X6621909Y-2934055D02*
G01X6626831Y-2934055D01*
G75*
G02X6629291Y-2936516I0000000J-002461D01*
G01X6629291Y-2965059D01*
G75*
G02X6626831Y-2967520I-002461J0000000D01*
G01X6621909Y-2967520D01*
G75*
G02X6619449Y-2965059I0000000J0002461D01*
G01X6619449Y-2936516D01*
G75*
G02X6621909Y-2934055I0002461J0000000D01*
G37*
G36*
G01X6602224Y-2934055D02*
G01X6607146Y-2934055D01*
G75*
G02X6609606Y-2936516I0000000J-002461D01*
G01X6609606Y-2965059D01*
G75*
G02X6607146Y-2967520I-002461J0000000D01*
G01X6602224Y-2967520D01*
G75*
G02X6599764Y-2965059I0000000J0002461D01*
G01X6599764Y-2936516D01*
G75*
G02X6602224Y-2934055I0002461J0000000D01*
G37*
G36*
G01X6582539Y-2934055D02*
G01X6587461Y-2934055D01*
G75*
G02X6589921Y-2936516I0000000J-002461D01*
G01X6589921Y-2965059D01*
G75*
G02X6587461Y-2967520I-002461J0000000D01*
G01X6582539Y-2967520D01*
G75*
G02X6580079Y-2965059I0000000J0002461D01*
G01X6580079Y-2936516D01*
G75*
G02X6582539Y-2934055I0002461J0000000D01*
G37*
G36*
G01X6562854Y-2934055D02*
G01X6567776Y-2934055D01*
G75*
G02X6570236Y-2936516I0000000J-002461D01*
G01X6570236Y-2965059D01*
G75*
G02X6567776Y-2967520I-002461J0000000D01*
G01X6562854Y-2967520D01*
G75*
G02X6560394Y-2965059I0000000J0002461D01*
G01X6560394Y-2936516D01*
G75*
G02X6562854Y-2934055I0002461J0000000D01*
G37*
G36*
G01X6543169Y-2934055D02*
G01X6548091Y-2934055D01*
G75*
G02X6550551Y-2936516I0000000J-002461D01*
G01X6550551Y-2965059D01*
G75*
G02X6548091Y-2967520I-002461J0000000D01*
G01X6543169Y-2967520D01*
G75*
G02X6540709Y-2965059I0000000J0002461D01*
G01X6540709Y-2936516D01*
G75*
G02X6543169Y-2934055I0002461J0000000D01*
G37*
G36*
G01X6494941Y-2909449D02*
G01X6523484Y-2909449D01*
G75*
G02X6525945Y-2911909I0000000J-002461D01*
G01X6525945Y-2916831D01*
G75*
G02X6523484Y-2919291I-002461J0000000D01*
G01X6494941Y-2919291D01*
G75*
G02X6492480Y-2916831I0000000J0002461D01*
G01X6492480Y-2911909D01*
G75*
G02X6494941Y-2909449I0002461J0000000D01*
G37*
G36*
G01X6494941Y-2889764D02*
G01X6523484Y-2889764D01*
G75*
G02X6525945Y-2892224I0000000J-002461D01*
G01X6525945Y-2897146D01*
G75*
G02X6523484Y-2899606I-002461J0000000D01*
G01X6494941Y-2899606D01*
G75*
G02X6492480Y-2897146I0000000J0002461D01*
G01X6492480Y-2892224D01*
G75*
G02X6494941Y-2889764I0002461J0000000D01*
G37*
G36*
G01X6494941Y-2870079D02*
G01X6523484Y-2870079D01*
G75*
G02X6525945Y-2872539I0000000J-002461D01*
G01X6525945Y-2877461D01*
G75*
G02X6523484Y-2879921I-002461J0000000D01*
G01X6494941Y-2879921D01*
G75*
G02X6492480Y-2877461I0000000J0002461D01*
G01X6492480Y-2872539D01*
G75*
G02X6494941Y-2870079I0002461J0000000D01*
G37*
G36*
G01X6494941Y-2850394D02*
G01X6523484Y-2850394D01*
G75*
G02X6525945Y-2852854I0000000J-002461D01*
G01X6525945Y-2857776D01*
G75*
G02X6523484Y-2860236I-002461J0000000D01*
G01X6494941Y-2860236D01*
G75*
G02X6492480Y-2857776I0000000J0002461D01*
G01X6492480Y-2852854D01*
G75*
G02X6494941Y-2850394I0002461J0000000D01*
G37*
G36*
G01X6494941Y-2830709D02*
G01X6523484Y-2830709D01*
G75*
G02X6525945Y-2833169I0000000J-002461D01*
G01X6525945Y-2838091D01*
G75*
G02X6523484Y-2840551I-002461J0000000D01*
G01X6494941Y-2840551D01*
G75*
G02X6492480Y-2838091I0000000J0002461D01*
G01X6492480Y-2833169D01*
G75*
G02X6494941Y-2830709I0002461J0000000D01*
G37*
G36*
G01X6543169Y-2782480D02*
G01X6548091Y-2782480D01*
G75*
G02X6550551Y-2784941I0000000J-002461D01*
G01X6550551Y-2813484D01*
G75*
G02X6548091Y-2815945I-002461J0000000D01*
G01X6543169Y-2815945D01*
G75*
G02X6540709Y-2813484I0000000J0002461D01*
G01X6540709Y-2784941D01*
G75*
G02X6543169Y-2782480I0002461J0000000D01*
G37*
G36*
G01X6562854Y-2782480D02*
G01X6567776Y-2782480D01*
G75*
G02X6570236Y-2784941I0000000J-002461D01*
G01X6570236Y-2813484D01*
G75*
G02X6567776Y-2815945I-002461J0000000D01*
G01X6562854Y-2815945D01*
G75*
G02X6560394Y-2813484I0000000J0002461D01*
G01X6560394Y-2784941D01*
G75*
G02X6562854Y-2782480I0002461J0000000D01*
G37*
G36*
G01X6582539Y-2782480D02*
G01X6587461Y-2782480D01*
G75*
G02X6589921Y-2784941I0000000J-002461D01*
G01X6589921Y-2813484D01*
G75*
G02X6587461Y-2815945I-002461J0000000D01*
G01X6582539Y-2815945D01*
G75*
G02X6580079Y-2813484I0000000J0002461D01*
G01X6580079Y-2784941D01*
G75*
G02X6582539Y-2782480I0002461J0000000D01*
G37*
G36*
G01X6602224Y-2782480D02*
G01X6607146Y-2782480D01*
G75*
G02X6609606Y-2784941I0000000J-002461D01*
G01X6609606Y-2813484D01*
G75*
G02X6607146Y-2815945I-002461J0000000D01*
G01X6602224Y-2815945D01*
G75*
G02X6599764Y-2813484I0000000J0002461D01*
G01X6599764Y-2784941D01*
G75*
G02X6602224Y-2782480I0002461J0000000D01*
G37*
G36*
G01X6621909Y-2782480D02*
G01X6626831Y-2782480D01*
G75*
G02X6629291Y-2784941I0000000J-002461D01*
G01X6629291Y-2813484D01*
G75*
G02X6626831Y-2815945I-002461J0000000D01*
G01X6621909Y-2815945D01*
G75*
G02X6619449Y-2813484I0000000J0002461D01*
G01X6619449Y-2784941D01*
G75*
G02X6621909Y-2782480I0002461J0000000D01*
G37*
G36*
G01X4582717Y-3058701D02*
G01X4582717Y-3021299D01*
G75*
G02X4592559Y-3011457I0009843J0000000D01*
G01X4612244Y-3011457D01*
G75*
G02X4622087Y-3021299I0000000J-009843D01*
G01X4622087Y-3058701D01*
G75*
G02X4612244Y-3068543I-009843J0000000D01*
G01X4592559Y-3068543D01*
G75*
G02X4582717Y-3058701I0000000J0009843D01*
G37*
G36*
G01X4507913Y-3058701D02*
G01X4507913Y-3021299D01*
G75*
G02X4517756Y-3011457I0009843J0000000D01*
G01X4537441Y-3011457D01*
G75*
G02X4547283Y-3021299I0000000J-009843D01*
G01X4547283Y-3058701D01*
G75*
G02X4537441Y-3068543I-009843J0000000D01*
G01X4517756Y-3068543D01*
G75*
G02X4507913Y-3058701I0000000J0009843D01*
G37*
G36*
G01X4771467Y-3794009D02*
G01X4771467Y-3845191D01*
G75*
G02X4761624Y-3855033I-009842J0000000D01*
G01X4736034Y-3855033D01*
G75*
G02X4726191Y-3845191I0000000J0009842D01*
G01X4726191Y-3794009D01*
G75*
G02X4736034Y-3784167I0009842J0000000D01*
G01X4761624Y-3784167D01*
G75*
G02X4771467Y-3794009I0000000J-009842D01*
G37*
G36*
G01X4887609Y-3794009D02*
G01X4887609Y-3845191D01*
G75*
G02X4877766Y-3855033I-009842J0000000D01*
G01X4852176Y-3855033D01*
G75*
G02X4842333Y-3845191I0000000J0009842D01*
G01X4842333Y-3794009D01*
G75*
G02X4852176Y-3784167I0009842J0000000D01*
G01X4877766Y-3784167D01*
G75*
G02X4887609Y-3794009I0000000J-009842D01*
G37*
G36*
G01X4420555Y-3767406D02*
G01X4420555Y-3755594D01*
G75*
G02X4426461Y-3749689I0005906J0000000D01*
G01X4491421Y-3749689D01*
G75*
G02X4497327Y-3755594I0000000J-005906D01*
G01X4497327Y-3767406D01*
G75*
G02X4491421Y-3773311I-005906J0000000D01*
G01X4426461Y-3773311D01*
G75*
G02X4420555Y-3767406I0000000J0005906D01*
G37*
G36*
G01X4420555Y-3817406D02*
G01X4420555Y-3805594D01*
G75*
G02X4426461Y-3799689I0005906J0000000D01*
G01X4491421Y-3799689D01*
G75*
G02X4497327Y-3805594I0000000J-005906D01*
G01X4497327Y-3817406D01*
G75*
G02X4491421Y-3823311I-005906J0000000D01*
G01X4426461Y-3823311D01*
G75*
G02X4420555Y-3817406I0000000J0005906D01*
G37*
G36*
G01X4420555Y-3867406D02*
G01X4420555Y-3855594D01*
G75*
G02X4426461Y-3849689I0005906J0000000D01*
G01X4491421Y-3849689D01*
G75*
G02X4497327Y-3855594I0000000J-005906D01*
G01X4497327Y-3867406D01*
G75*
G02X4491421Y-3873311I-005906J0000000D01*
G01X4426461Y-3873311D01*
G75*
G02X4420555Y-3867406I0000000J0005906D01*
G37*
G36*
G01X4420555Y-3917406D02*
G01X4420555Y-3905594D01*
G75*
G02X4426461Y-3899689I0005906J0000000D01*
G01X4491421Y-3899689D01*
G75*
G02X4497327Y-3905594I0000000J-005906D01*
G01X4497327Y-3917406D01*
G75*
G02X4491421Y-3923311I-005906J0000000D01*
G01X4426461Y-3923311D01*
G75*
G02X4420555Y-3917406I0000000J0005906D01*
G37*
G36*
G01X4225673Y-3917406D02*
G01X4225673Y-3905594D01*
G75*
G02X4231579Y-3899689I0005906J0000000D01*
G01X4296539Y-3899689D01*
G75*
G02X4302445Y-3905594I0000000J-005906D01*
G01X4302445Y-3917406D01*
G75*
G02X4296539Y-3923311I-005906J0000000D01*
G01X4231579Y-3923311D01*
G75*
G02X4225673Y-3917406I0000000J0005906D01*
G37*
G36*
G01X4225673Y-3867406D02*
G01X4225673Y-3855594D01*
G75*
G02X4231579Y-3849689I0005906J0000000D01*
G01X4296539Y-3849689D01*
G75*
G02X4302445Y-3855594I0000000J-005906D01*
G01X4302445Y-3867406D01*
G75*
G02X4296539Y-3873311I-005906J0000000D01*
G01X4231579Y-3873311D01*
G75*
G02X4225673Y-3867406I0000000J0005906D01*
G37*
G36*
G01X4225673Y-3817406D02*
G01X4225673Y-3805594D01*
G75*
G02X4231579Y-3799689I0005906J0000000D01*
G01X4296539Y-3799689D01*
G75*
G02X4302445Y-3805594I0000000J-005906D01*
G01X4302445Y-3817406D01*
G75*
G02X4296539Y-3823311I-005906J0000000D01*
G01X4231579Y-3823311D01*
G75*
G02X4225673Y-3817406I0000000J0005906D01*
G37*
G36*
G01X4225673Y-3767406D02*
G01X4225673Y-3755594D01*
G75*
G02X4231579Y-3749689I0005906J0000000D01*
G01X4296539Y-3749689D01*
G75*
G02X4302445Y-3755594I0000000J-005906D01*
G01X4302445Y-3767406D01*
G75*
G02X4296539Y-3773311I-005906J0000000D01*
G01X4231579Y-3773311D01*
G75*
G02X4225673Y-3767406I0000000J0005906D01*
G37*
G36*
G01X4393055Y-2935406D02*
G01X4393055Y-2923594D01*
G75*
G02X4398961Y-2917689I0005906J0000000D01*
G01X4463921Y-2917689D01*
G75*
G02X4469827Y-2923594I0000000J-005906D01*
G01X4469827Y-2935406D01*
G75*
G02X4463921Y-2941311I-005906J0000000D01*
G01X4398961Y-2941311D01*
G75*
G02X4393055Y-2935406I0000000J0005906D01*
G37*
G36*
G01X4393055Y-2985406D02*
G01X4393055Y-2973594D01*
G75*
G02X4398961Y-2967689I0005906J0000000D01*
G01X4463921Y-2967689D01*
G75*
G02X4469827Y-2973594I0000000J-005906D01*
G01X4469827Y-2985406D01*
G75*
G02X4463921Y-2991311I-005906J0000000D01*
G01X4398961Y-2991311D01*
G75*
G02X4393055Y-2985406I0000000J0005906D01*
G37*
G36*
G01X4393055Y-3035406D02*
G01X4393055Y-3023594D01*
G75*
G02X4398961Y-3017689I0005906J0000000D01*
G01X4463921Y-3017689D01*
G75*
G02X4469827Y-3023594I0000000J-005906D01*
G01X4469827Y-3035406D01*
G75*
G02X4463921Y-3041311I-005906J0000000D01*
G01X4398961Y-3041311D01*
G75*
G02X4393055Y-3035406I0000000J0005906D01*
G37*
G36*
G01X4393055Y-3085406D02*
G01X4393055Y-3073594D01*
G75*
G02X4398961Y-3067689I0005906J0000000D01*
G01X4463921Y-3067689D01*
G75*
G02X4469827Y-3073594I0000000J-005906D01*
G01X4469827Y-3085406D01*
G75*
G02X4463921Y-3091311I-005906J0000000D01*
G01X4398961Y-3091311D01*
G75*
G02X4393055Y-3085406I0000000J0005906D01*
G37*
G36*
G01X4198173Y-3085406D02*
G01X4198173Y-3073594D01*
G75*
G02X4204079Y-3067689I0005906J0000000D01*
G01X4269039Y-3067689D01*
G75*
G02X4274945Y-3073594I0000000J-005906D01*
G01X4274945Y-3085406D01*
G75*
G02X4269039Y-3091311I-005906J0000000D01*
G01X4204079Y-3091311D01*
G75*
G02X4198173Y-3085406I0000000J0005906D01*
G37*
G36*
G01X4198173Y-3035406D02*
G01X4198173Y-3023594D01*
G75*
G02X4204079Y-3017689I0005906J0000000D01*
G01X4269039Y-3017689D01*
G75*
G02X4274945Y-3023594I0000000J-005906D01*
G01X4274945Y-3035406D01*
G75*
G02X4269039Y-3041311I-005906J0000000D01*
G01X4204079Y-3041311D01*
G75*
G02X4198173Y-3035406I0000000J0005906D01*
G37*
G36*
G01X4198173Y-2985406D02*
G01X4198173Y-2973594D01*
G75*
G02X4204079Y-2967689I0005906J0000000D01*
G01X4269039Y-2967689D01*
G75*
G02X4274945Y-2973594I0000000J-005906D01*
G01X4274945Y-2985406D01*
G75*
G02X4269039Y-2991311I-005906J0000000D01*
G01X4204079Y-2991311D01*
G75*
G02X4198173Y-2985406I0000000J0005906D01*
G37*
G36*
G01X4198173Y-2935406D02*
G01X4198173Y-2923594D01*
G75*
G02X4204079Y-2917689I0005906J0000000D01*
G01X4269039Y-2917689D01*
G75*
G02X4274945Y-2923594I0000000J-005906D01*
G01X4274945Y-2935406D01*
G75*
G02X4269039Y-2941311I-005906J0000000D01*
G01X4204079Y-2941311D01*
G75*
G02X4198173Y-2935406I0000000J0005906D01*
G37*
G36*
G01X5656794Y-3188155D02*
G01X5668606Y-3188155D01*
G75*
G02X5674511Y-3194061I0000000J-005906D01*
G01X5674511Y-3259021D01*
G75*
G02X5668606Y-3264927I-005906J0000000D01*
G01X5656794Y-3264927D01*
G75*
G02X5650889Y-3259021I0000000J0005906D01*
G01X5650889Y-3194061D01*
G75*
G02X5656794Y-3188155I0005906J0000000D01*
G37*
G36*
G01X5606794Y-3188155D02*
G01X5618606Y-3188155D01*
G75*
G02X5624511Y-3194061I0000000J-005906D01*
G01X5624511Y-3259021D01*
G75*
G02X5618606Y-3264927I-005906J0000000D01*
G01X5606794Y-3264927D01*
G75*
G02X5600889Y-3259021I0000000J0005906D01*
G01X5600889Y-3194061D01*
G75*
G02X5606794Y-3188155I0005906J0000000D01*
G37*
G36*
G01X5556794Y-3188155D02*
G01X5568606Y-3188155D01*
G75*
G02X5574511Y-3194061I0000000J-005906D01*
G01X5574511Y-3259021D01*
G75*
G02X5568606Y-3264927I-005906J0000000D01*
G01X5556794Y-3264927D01*
G75*
G02X5550889Y-3259021I0000000J0005906D01*
G01X5550889Y-3194061D01*
G75*
G02X5556794Y-3188155I0005906J0000000D01*
G37*
G36*
G01X5506794Y-3188155D02*
G01X5518606Y-3188155D01*
G75*
G02X5524511Y-3194061I0000000J-005906D01*
G01X5524511Y-3259021D01*
G75*
G02X5518606Y-3264927I-005906J0000000D01*
G01X5506794Y-3264927D01*
G75*
G02X5500889Y-3259021I0000000J0005906D01*
G01X5500889Y-3194061D01*
G75*
G02X5506794Y-3188155I0005906J0000000D01*
G37*
G36*
G01X5506794Y-2993273D02*
G01X5518606Y-2993273D01*
G75*
G02X5524511Y-2999179I0000000J-005906D01*
G01X5524511Y-3064139D01*
G75*
G02X5518606Y-3070045I-005906J0000000D01*
G01X5506794Y-3070045D01*
G75*
G02X5500889Y-3064139I0000000J0005906D01*
G01X5500889Y-2999179D01*
G75*
G02X5506794Y-2993273I0005906J0000000D01*
G37*
G36*
G01X5556794Y-2993273D02*
G01X5568606Y-2993273D01*
G75*
G02X5574511Y-2999179I0000000J-005906D01*
G01X5574511Y-3064139D01*
G75*
G02X5568606Y-3070045I-005906J0000000D01*
G01X5556794Y-3070045D01*
G75*
G02X5550889Y-3064139I0000000J0005906D01*
G01X5550889Y-2999179D01*
G75*
G02X5556794Y-2993273I0005906J0000000D01*
G37*
G36*
G01X5606794Y-2993273D02*
G01X5618606Y-2993273D01*
G75*
G02X5624511Y-2999179I0000000J-005906D01*
G01X5624511Y-3064139D01*
G75*
G02X5618606Y-3070045I-005906J0000000D01*
G01X5606794Y-3070045D01*
G75*
G02X5600889Y-3064139I0000000J0005906D01*
G01X5600889Y-2999179D01*
G75*
G02X5606794Y-2993273I0005906J0000000D01*
G37*
G36*
G01X5656794Y-2993273D02*
G01X5668606Y-2993273D01*
G75*
G02X5674511Y-2999179I0000000J-005906D01*
G01X5674511Y-3064139D01*
G75*
G02X5668606Y-3070045I-005906J0000000D01*
G01X5656794Y-3070045D01*
G75*
G02X5650889Y-3064139I0000000J0005906D01*
G01X5650889Y-2999179D01*
G75*
G02X5656794Y-2993273I0005906J0000000D01*
G37*
G54D34*
G01X5786000Y-3623283D03*
G01X5786000Y-3408717D03*
G54D16*
G01X4801983Y-2710000D03*
G01X4587417Y-2710000D03*
G36*
G01X5474409Y-3715633D02*
G01X5525591Y-3715633D01*
G75*
G02X5535433Y-3725476I0000000J-009842D01*
G01X5535433Y-3751066D01*
G75*
G02X5525591Y-3760909I-009842J0000000D01*
G01X5474409Y-3760909D01*
G75*
G02X5464567Y-3751066I0000000J0009842D01*
G01X5464567Y-3725476D01*
G75*
G02X5474409Y-3715633I0009842J0000000D01*
G37*
G36*
G01X5474409Y-3599491D02*
G01X5525591Y-3599491D01*
G75*
G02X5535433Y-3609334I0000000J-009842D01*
G01X5535433Y-3634924D01*
G75*
G02X5525591Y-3644767I-009842J0000000D01*
G01X5474409Y-3644767D01*
G75*
G02X5464567Y-3634924I0000000J0009842D01*
G01X5464567Y-3609334D01*
G75*
G02X5474409Y-3599491I0009842J0000000D01*
G37*
G36*
G01X5377283Y-3116899D02*
G01X5377283Y-3154301D01*
G75*
G02X5367441Y-3164143I-009843J0000000D01*
G01X5347756Y-3164143D01*
G75*
G02X5337913Y-3154301I0000000J0009843D01*
G01X5337913Y-3116899D01*
G75*
G02X5347756Y-3107057I0009843J0000000D01*
G01X5367441Y-3107057D01*
G75*
G02X5377283Y-3116899I0000000J-009843D01*
G37*
G36*
G01X5452087Y-3116899D02*
G01X5452087Y-3154301D01*
G75*
G02X5442244Y-3164143I-009843J0000000D01*
G01X5422559Y-3164143D01*
G75*
G02X5412717Y-3154301I0000000J0009843D01*
G01X5412717Y-3116899D01*
G75*
G02X5422559Y-3107057I0009843J0000000D01*
G01X5442244Y-3107057D01*
G75*
G02X5452087Y-3116899I0000000J-009843D01*
G37*
G36*
G01X5379409Y-3715433D02*
G01X5430591Y-3715433D01*
G75*
G02X5440433Y-3725276I0000000J-009842D01*
G01X5440433Y-3750866D01*
G75*
G02X5430591Y-3760709I-009842J0000000D01*
G01X5379409Y-3760709D01*
G75*
G02X5369567Y-3750866I0000000J0009842D01*
G01X5369567Y-3725276D01*
G75*
G02X5379409Y-3715433I0009842J0000000D01*
G37*
G36*
G01X5379409Y-3599291D02*
G01X5430591Y-3599291D01*
G75*
G02X5440433Y-3609134I0000000J-009842D01*
G01X5440433Y-3634724D01*
G75*
G02X5430591Y-3644567I-009842J0000000D01*
G01X5379409Y-3644567D01*
G75*
G02X5369567Y-3634724I0000000J0009842D01*
G01X5369567Y-3609134D01*
G75*
G02X5379409Y-3599291I0009842J0000000D01*
G37*
G36*
G01X5501899Y-3383517D02*
G01X5539301Y-3383517D01*
G75*
G02X5549143Y-3393359I0000000J-009843D01*
G01X5549143Y-3413044D01*
G75*
G02X5539301Y-3422887I-009843J0000000D01*
G01X5501899Y-3422887D01*
G75*
G02X5492057Y-3413044I0000000J0009843D01*
G01X5492057Y-3393359D01*
G75*
G02X5501899Y-3383517I0009843J0000000D01*
G37*
G36*
G01X5501899Y-3308713D02*
G01X5539301Y-3308713D01*
G75*
G02X5549143Y-3318556I0000000J-009843D01*
G01X5549143Y-3338241D01*
G75*
G02X5539301Y-3348083I-009843J0000000D01*
G01X5501899Y-3348083D01*
G75*
G02X5492057Y-3338241I0000000J0009843D01*
G01X5492057Y-3318556D01*
G75*
G02X5501899Y-3308713I0009843J0000000D01*
G37*
G36*
G01X5284409Y-3715333D02*
G01X5335591Y-3715333D01*
G75*
G02X5345433Y-3725176I0000000J-009842D01*
G01X5345433Y-3750766D01*
G75*
G02X5335591Y-3760609I-009842J0000000D01*
G01X5284409Y-3760609D01*
G75*
G02X5274567Y-3750766I0000000J0009842D01*
G01X5274567Y-3725176D01*
G75*
G02X5284409Y-3715333I0009842J0000000D01*
G37*
G36*
G01X5284409Y-3599191D02*
G01X5335591Y-3599191D01*
G75*
G02X5345433Y-3609034I0000000J-009842D01*
G01X5345433Y-3634624D01*
G75*
G02X5335591Y-3644467I-009842J0000000D01*
G01X5284409Y-3644467D01*
G75*
G02X5274567Y-3634624I0000000J0009842D01*
G01X5274567Y-3609034D01*
G75*
G02X5284409Y-3599191I0009842J0000000D01*
G37*
G36*
G01X5726033Y-2829991D02*
G01X5726033Y-2778809D01*
G75*
G02X5735876Y-2768967I0009842J0000000D01*
G01X5761466Y-2768967D01*
G75*
G02X5771309Y-2778809I0000000J-009842D01*
G01X5771309Y-2829991D01*
G75*
G02X5761466Y-2839833I-009842J0000000D01*
G01X5735876Y-2839833D01*
G75*
G02X5726033Y-2829991I0000000J0009842D01*
G37*
G36*
G01X5609891Y-2829991D02*
G01X5609891Y-2778809D01*
G75*
G02X5619734Y-2768967I0009842J0000000D01*
G01X5645324Y-2768967D01*
G75*
G02X5655167Y-2778809I0000000J-009842D01*
G01X5655167Y-2829991D01*
G75*
G02X5645324Y-2839833I-009842J0000000D01*
G01X5619734Y-2839833D01*
G75*
G02X5609891Y-2829991I0000000J0009842D01*
G37*
G36*
G01X5724933Y-2926491D02*
G01X5724933Y-2875309D01*
G75*
G02X5734776Y-2865467I0009842J0000000D01*
G01X5760366Y-2865467D01*
G75*
G02X5770209Y-2875309I0000000J-009842D01*
G01X5770209Y-2926491D01*
G75*
G02X5760366Y-2936333I-009842J0000000D01*
G01X5734776Y-2936333D01*
G75*
G02X5724933Y-2926491I0000000J0009842D01*
G37*
G36*
G01X5608791Y-2926491D02*
G01X5608791Y-2875309D01*
G75*
G02X5618634Y-2865467I0009842J0000000D01*
G01X5644224Y-2865467D01*
G75*
G02X5654067Y-2875309I0000000J-009842D01*
G01X5654067Y-2926491D01*
G75*
G02X5644224Y-2936333I-009842J0000000D01*
G01X5618634Y-2936333D01*
G75*
G02X5608791Y-2926491I0000000J0009842D01*
G37*
G36*
G01X4772067Y-4002209D02*
G01X4772067Y-4053391D01*
G75*
G02X4762224Y-4063233I-009842J0000000D01*
G01X4736634Y-4063233D01*
G75*
G02X4726791Y-4053391I0000000J0009842D01*
G01X4726791Y-4002209D01*
G75*
G02X4736634Y-3992367I0009842J0000000D01*
G01X4762224Y-3992367D01*
G75*
G02X4772067Y-4002209I0000000J-009842D01*
G37*
G36*
G01X4888209Y-4002209D02*
G01X4888209Y-4053391D01*
G75*
G02X4878366Y-4063233I-009842J0000000D01*
G01X4852776Y-4063233D01*
G75*
G02X4842933Y-4053391I0000000J0009842D01*
G01X4842933Y-4002209D01*
G75*
G02X4852776Y-3992367I0009842J0000000D01*
G01X4878366Y-3992367D01*
G75*
G02X4888209Y-4002209I0000000J-009842D01*
G37*
G36*
G01X4737467Y-3185109D02*
G01X4737467Y-3236291D01*
G75*
G02X4727624Y-3246133I-009842J0000000D01*
G01X4702034Y-3246133D01*
G75*
G02X4692191Y-3236291I0000000J0009842D01*
G01X4692191Y-3185109D01*
G75*
G02X4702034Y-3175267I0009842J0000000D01*
G01X4727624Y-3175267D01*
G75*
G02X4737467Y-3185109I0000000J-009842D01*
G37*
G36*
G01X4853609Y-3185109D02*
G01X4853609Y-3236291D01*
G75*
G02X4843766Y-3246133I-009842J0000000D01*
G01X4818176Y-3246133D01*
G75*
G02X4808333Y-3236291I0000000J0009842D01*
G01X4808333Y-3185109D01*
G75*
G02X4818176Y-3175267I0009842J0000000D01*
G01X4843766Y-3175267D01*
G75*
G02X4853609Y-3185109I0000000J-009842D01*
G37*
G36*
G01X4772138Y-3899209D02*
G01X4772138Y-3950391D01*
G75*
G02X4762295Y-3960233I-009842J0000000D01*
G01X4736705Y-3960233D01*
G75*
G02X4726862Y-3950391I0000000J0009842D01*
G01X4726862Y-3899209D01*
G75*
G02X4736705Y-3889367I0009842J0000000D01*
G01X4762295Y-3889367D01*
G75*
G02X4772138Y-3899209I0000000J-009842D01*
G37*
G36*
G01X4888280Y-3899209D02*
G01X4888280Y-3950391D01*
G75*
G02X4878437Y-3960233I-009842J0000000D01*
G01X4852846Y-3960233D01*
G75*
G02X4843004Y-3950391I0000000J0009842D01*
G01X4843004Y-3899209D01*
G75*
G02X4852846Y-3889367I0009842J0000000D01*
G01X4878437Y-3889367D01*
G75*
G02X4888280Y-3899209I0000000J-009842D01*
G37*
G36*
G01X4738467Y-3084609D02*
G01X4738467Y-3135791D01*
G75*
G02X4728624Y-3145633I-009842J0000000D01*
G01X4703034Y-3145633D01*
G75*
G02X4693191Y-3135791I0000000J0009842D01*
G01X4693191Y-3084609D01*
G75*
G02X4703034Y-3074767I0009842J0000000D01*
G01X4728624Y-3074767D01*
G75*
G02X4738467Y-3084609I0000000J-009842D01*
G37*
G36*
G01X4854609Y-3084609D02*
G01X4854609Y-3135791D01*
G75*
G02X4844766Y-3145633I-009842J0000000D01*
G01X4819176Y-3145633D01*
G75*
G02X4809333Y-3135791I0000000J0009842D01*
G01X4809333Y-3084609D01*
G75*
G02X4819176Y-3074767I0009842J0000000D01*
G01X4844766Y-3074767D01*
G75*
G02X4854609Y-3084609I0000000J-009842D01*
G37*
G36*
G01X4341299Y-4037717D02*
G01X4378701Y-4037717D01*
G75*
G02X4388543Y-4047559I0000000J-009843D01*
G01X4388543Y-4067244D01*
G75*
G02X4378701Y-4077087I-009843J0000000D01*
G01X4341299Y-4077087D01*
G75*
G02X4331457Y-4067244I0000000J0009843D01*
G01X4331457Y-4047559D01*
G75*
G02X4341299Y-4037717I0009843J0000000D01*
G37*
G36*
G01X4341299Y-3962913D02*
G01X4378701Y-3962913D01*
G75*
G02X4388543Y-3972756I0000000J-009843D01*
G01X4388543Y-3992441D01*
G75*
G02X4378701Y-4002283I-009843J0000000D01*
G01X4341299Y-4002283D01*
G75*
G02X4331457Y-3992441I0000000J0009843D01*
G01X4331457Y-3972756D01*
G75*
G02X4341299Y-3962913I0009843J0000000D01*
G37*
G36*
G01X4341299Y-3211317D02*
G01X4378701Y-3211317D01*
G75*
G02X4388543Y-3221159I0000000J-009843D01*
G01X4388543Y-3240844D01*
G75*
G02X4378701Y-3250687I-009843J0000000D01*
G01X4341299Y-3250687D01*
G75*
G02X4331457Y-3240844I0000000J0009843D01*
G01X4331457Y-3221159D01*
G75*
G02X4341299Y-3211317I0009843J0000000D01*
G37*
G36*
G01X4341299Y-3136513D02*
G01X4378701Y-3136513D01*
G75*
G02X4388543Y-3146356I0000000J-009843D01*
G01X4388543Y-3166041D01*
G75*
G02X4378701Y-3175883I-009843J0000000D01*
G01X4341299Y-3175883D01*
G75*
G02X4331457Y-3166041I0000000J0009843D01*
G01X4331457Y-3146356D01*
G75*
G02X4341299Y-3136513I0009843J0000000D01*
G37*
G36*
G01X4738367Y-2984809D02*
G01X4738367Y-3035991D01*
G75*
G02X4728524Y-3045833I-009842J0000000D01*
G01X4702934Y-3045833D01*
G75*
G02X4693091Y-3035991I0000000J0009842D01*
G01X4693091Y-2984809D01*
G75*
G02X4702934Y-2974967I0009842J0000000D01*
G01X4728524Y-2974967D01*
G75*
G02X4738367Y-2984809I0000000J-009842D01*
G37*
G36*
G01X4854509Y-2984809D02*
G01X4854509Y-3035991D01*
G75*
G02X4844666Y-3045833I-009842J0000000D01*
G01X4819076Y-3045833D01*
G75*
G02X4809233Y-3035991I0000000J0009842D01*
G01X4809233Y-2984809D01*
G75*
G02X4819076Y-2974967I0009842J0000000D01*
G01X4844666Y-2974967D01*
G75*
G02X4854509Y-2984809I0000000J-009842D01*
G37*
G36*
G01X4616717Y-3872701D02*
G01X4616717Y-3835299D01*
G75*
G02X4626559Y-3825457I0009843J0000000D01*
G01X4646244Y-3825457D01*
G75*
G02X4656087Y-3835299I0000000J-009843D01*
G01X4656087Y-3872701D01*
G75*
G02X4646244Y-3882543I-009843J0000000D01*
G01X4626559Y-3882543D01*
G75*
G02X4616717Y-3872701I0000000J0009843D01*
G37*
G36*
G01X4541913Y-3872701D02*
G01X4541913Y-3835299D01*
G75*
G02X4551756Y-3825457I0009843J0000000D01*
G01X4571441Y-3825457D01*
G75*
G02X4581283Y-3835299I0000000J-009843D01*
G01X4581283Y-3872701D01*
G75*
G02X4571441Y-3882543I-009843J0000000D01*
G01X4551756Y-3882543D01*
G75*
G02X4541913Y-3872701I0000000J0009843D01*
G37*
G36*
G01X4770767Y-3688409D02*
G01X4770767Y-3739591D01*
G75*
G02X4760924Y-3749433I-009842J0000000D01*
G01X4735334Y-3749433D01*
G75*
G02X4725491Y-3739591I0000000J0009842D01*
G01X4725491Y-3688409D01*
G75*
G02X4735334Y-3678567I0009842J0000000D01*
G01X4760924Y-3678567D01*
G75*
G02X4770767Y-3688409I0000000J-009842D01*
G37*
G36*
G01X4886909Y-3688409D02*
G01X4886909Y-3739591D01*
G75*
G02X4877066Y-3749433I-009842J0000000D01*
G01X4851476Y-3749433D01*
G75*
G02X4841633Y-3739591I0000000J0009842D01*
G01X4841633Y-3688409D01*
G75*
G02X4851476Y-3678567I0009842J0000000D01*
G01X4877066Y-3678567D01*
G75*
G02X4886909Y-3688409I0000000J-009842D01*
G37*
G36*
G01X4737767Y-2883009D02*
G01X4737767Y-2934191D01*
G75*
G02X4727924Y-2944033I-009842J0000000D01*
G01X4702334Y-2944033D01*
G75*
G02X4692491Y-2934191I0000000J0009842D01*
G01X4692491Y-2883009D01*
G75*
G02X4702334Y-2873167I0009842J0000000D01*
G01X4727924Y-2873167D01*
G75*
G02X4737767Y-2883009I0000000J-009842D01*
G37*
G36*
G01X4853909Y-2883009D02*
G01X4853909Y-2934191D01*
G75*
G02X4844066Y-2944033I-009842J0000000D01*
G01X4818476Y-2944033D01*
G75*
G02X4808633Y-2934191I0000000J0009842D01*
G01X4808633Y-2883009D01*
G75*
G02X4818476Y-2873167I0009842J0000000D01*
G01X4844066Y-2873167D01*
G75*
G02X4853909Y-2883009I0000000J-009842D01*
G37*
G36*
G01X4031067Y-3684409D02*
G01X4031067Y-3735591D01*
G75*
G02X4021224Y-3745433I-009842J0000000D01*
G01X3995634Y-3745433D01*
G75*
G02X3985791Y-3735591I0000000J0009842D01*
G01X3985791Y-3684409D01*
G75*
G02X3995634Y-3674567I0009842J0000000D01*
G01X4021224Y-3674567D01*
G75*
G02X4031067Y-3684409I0000000J-009842D01*
G37*
G36*
G01X4147209Y-3684409D02*
G01X4147209Y-3735591D01*
G75*
G02X4137366Y-3745433I-009842J0000000D01*
G01X4111776Y-3745433D01*
G75*
G02X4101933Y-3735591I0000000J0009842D01*
G01X4101933Y-3684409D01*
G75*
G02X4111776Y-3674567I0009842J0000000D01*
G01X4137366Y-3674567D01*
G75*
G02X4147209Y-3684409I0000000J-009842D01*
G37*
G36*
G01X4031567Y-3779409D02*
G01X4031567Y-3830591D01*
G75*
G02X4021724Y-3840433I-009842J0000000D01*
G01X3996134Y-3840433D01*
G75*
G02X3986291Y-3830591I0000000J0009842D01*
G01X3986291Y-3779409D01*
G75*
G02X3996134Y-3769567I0009842J0000000D01*
G01X4021724Y-3769567D01*
G75*
G02X4031567Y-3779409I0000000J-009842D01*
G37*
G36*
G01X4147709Y-3779409D02*
G01X4147709Y-3830591D01*
G75*
G02X4137866Y-3840433I-009842J0000000D01*
G01X4112276Y-3840433D01*
G75*
G02X4102433Y-3830591I0000000J0009842D01*
G01X4102433Y-3779409D01*
G75*
G02X4112276Y-3769567I0009842J0000000D01*
G01X4137866Y-3769567D01*
G75*
G02X4147709Y-3779409I0000000J-009842D01*
G37*
G36*
G01X4051091Y-2886067D02*
G01X3999909Y-2886067D01*
G75*
G02X3990067Y-2876224I0000000J0009842D01*
G01X3990067Y-2850634D01*
G75*
G02X3999909Y-2840791I0009842J0000000D01*
G01X4051091Y-2840791D01*
G75*
G02X4060933Y-2850634I0000000J-009842D01*
G01X4060933Y-2876224D01*
G75*
G02X4051091Y-2886067I-009842J0000000D01*
G37*
G36*
G01X4051091Y-3002209D02*
G01X3999909Y-3002209D01*
G75*
G02X3990067Y-2992366I0000000J0009842D01*
G01X3990067Y-2966776D01*
G75*
G02X3999909Y-2956933I0009842J0000000D01*
G01X4051091Y-2956933D01*
G75*
G02X4060933Y-2966776I0000000J-009842D01*
G01X4060933Y-2992366D01*
G75*
G02X4051091Y-3002209I-009842J0000000D01*
G37*
G36*
G01X3952591Y-2886067D02*
G01X3901409Y-2886067D01*
G75*
G02X3891567Y-2876224I0000000J0009842D01*
G01X3891567Y-2850634D01*
G75*
G02X3901409Y-2840791I0009842J0000000D01*
G01X3952591Y-2840791D01*
G75*
G02X3962433Y-2850634I0000000J-009842D01*
G01X3962433Y-2876224D01*
G75*
G02X3952591Y-2886067I-009842J0000000D01*
G37*
G36*
G01X3952591Y-3002209D02*
G01X3901409Y-3002209D01*
G75*
G02X3891567Y-2992366I0000000J0009842D01*
G01X3891567Y-2966776D01*
G75*
G02X3901409Y-2956933I0009842J0000000D01*
G01X3952591Y-2956933D01*
G75*
G02X3962433Y-2966776I0000000J-009842D01*
G01X3962433Y-2992366D01*
G75*
G02X3952591Y-3002209I-009842J0000000D01*
G37*
G36*
G01X3850433Y-3665591D02*
G01X3850433Y-3614409D01*
G75*
G02X3860276Y-3604567I0009842J0000000D01*
G01X3885866Y-3604567D01*
G75*
G02X3895709Y-3614409I0000000J-009842D01*
G01X3895709Y-3665591D01*
G75*
G02X3885866Y-3675433I-009842J0000000D01*
G01X3860276Y-3675433D01*
G75*
G02X3850433Y-3665591I0000000J0009842D01*
G37*
G36*
G01X3734291Y-3665591D02*
G01X3734291Y-3614409D01*
G75*
G02X3744134Y-3604567I0009842J0000000D01*
G01X3769724Y-3604567D01*
G75*
G02X3779567Y-3614409I0000000J-009842D01*
G01X3779567Y-3665591D01*
G75*
G02X3769724Y-3675433I-009842J0000000D01*
G01X3744134Y-3675433D01*
G75*
G02X3734291Y-3665591I0000000J0009842D01*
G37*
G36*
G01X3847362Y-3765591D02*
G01X3847362Y-3714409D01*
G75*
G02X3857205Y-3704567I0009842J0000000D01*
G01X3882795Y-3704567D01*
G75*
G02X3892638Y-3714409I0000000J-009842D01*
G01X3892638Y-3765591D01*
G75*
G02X3882795Y-3775433I-009842J0000000D01*
G01X3857205Y-3775433D01*
G75*
G02X3847362Y-3765591I0000000J0009842D01*
G37*
G36*
G01X3731220Y-3765591D02*
G01X3731220Y-3714409D01*
G75*
G02X3741063Y-3704567I0009842J0000000D01*
G01X3766654Y-3704567D01*
G75*
G02X3776496Y-3714409I0000000J-009842D01*
G01X3776496Y-3765591D01*
G75*
G02X3766654Y-3775433I-009842J0000000D01*
G01X3741063Y-3775433D01*
G75*
G02X3731220Y-3765591I0000000J0009842D01*
G37*
G36*
G01X5569409Y-3715433D02*
G01X5620591Y-3715433D01*
G75*
G02X5630433Y-3725276I0000000J-009842D01*
G01X5630433Y-3750866D01*
G75*
G02X5620591Y-3760709I-009842J0000000D01*
G01X5569409Y-3760709D01*
G75*
G02X5559567Y-3750866I0000000J0009842D01*
G01X5559567Y-3725276D01*
G75*
G02X5569409Y-3715433I0009842J0000000D01*
G37*
G36*
G01X5569409Y-3599291D02*
G01X5620591Y-3599291D01*
G75*
G02X5630433Y-3609134I0000000J-009842D01*
G01X5630433Y-3634724D01*
G75*
G02X5620591Y-3644567I-009842J0000000D01*
G01X5569409Y-3644567D01*
G75*
G02X5559567Y-3634724I0000000J0009842D01*
G01X5559567Y-3609134D01*
G75*
G02X5569409Y-3599291I0009842J0000000D01*
G37*
G01X3942283Y-3280000D03*
G01X3727717Y-3280000D03*
G36*
G01X6201205Y-3990157D02*
G01X6201205Y-4009843D01*
G75*
G02X6192346Y-4018701I-008858J0000000D01*
G01X6174630Y-4018701D01*
G75*
G02X6165772Y-4009843I0000000J0008858D01*
G01X6165772Y-3990157D01*
G75*
G02X6174630Y-3981299I0008858J0000000D01*
G01X6192346Y-3981299D01*
G75*
G02X6201205Y-3990157I0000000J-008858D01*
G37*
G36*
G01X6262228Y-3990157D02*
G01X6262228Y-4009843D01*
G75*
G02X6253370Y-4018701I-008858J0000000D01*
G01X6235654Y-4018701D01*
G75*
G02X6226795Y-4009843I0000000J0008858D01*
G01X6226795Y-3990157D01*
G75*
G02X6235654Y-3981299I0008858J0000000D01*
G01X6253370Y-3981299D01*
G75*
G02X6262228Y-3990157I0000000J-008858D01*
G37*
G36*
G01X7024843Y-3836205D02*
G01X7005157Y-3836205D01*
G75*
G02X6996299Y-3827346I0000000J0008858D01*
G01X6996299Y-3809630D01*
G75*
G02X7005157Y-3800772I0008858J0000000D01*
G01X7024843Y-3800772D01*
G75*
G02X7033701Y-3809630I0000000J-008858D01*
G01X7033701Y-3827346D01*
G75*
G02X7024843Y-3836205I-008858J0000000D01*
G37*
G36*
G01X7024843Y-3897228D02*
G01X7005157Y-3897228D01*
G75*
G02X6996299Y-3888370I0000000J0008858D01*
G01X6996299Y-3870654D01*
G75*
G02X7005157Y-3861795I0008858J0000000D01*
G01X7024843Y-3861795D01*
G75*
G02X7033701Y-3870654I0000000J-008858D01*
G01X7033701Y-3888370D01*
G75*
G02X7024843Y-3897228I-008858J0000000D01*
G37*
G36*
G01X6790795Y-3897843D02*
G01X6790795Y-3878157D01*
G75*
G02X6799654Y-3869299I0008858J0000000D01*
G01X6817370Y-3869299D01*
G75*
G02X6826228Y-3878157I0000000J-008858D01*
G01X6826228Y-3897843D01*
G75*
G02X6817370Y-3906701I-008858J0000000D01*
G01X6799654Y-3906701D01*
G75*
G02X6790795Y-3897843I0000000J0008858D01*
G37*
G36*
G01X6729772Y-3897843D02*
G01X6729772Y-3878157D01*
G75*
G02X6738630Y-3869299I0008858J0000000D01*
G01X6756346Y-3869299D01*
G75*
G02X6765205Y-3878157I0000000J-008858D01*
G01X6765205Y-3897843D01*
G75*
G02X6756346Y-3906701I-008858J0000000D01*
G01X6738630Y-3906701D01*
G75*
G02X6729772Y-3897843I0000000J0008858D01*
G37*
G36*
G01X6782307Y-3992843D02*
G01X6782307Y-3973157D01*
G75*
G02X6791165Y-3964299I0008858J0000000D01*
G01X6808882Y-3964299D01*
G75*
G02X6817740Y-3973157I0000000J-008858D01*
G01X6817740Y-3992843D01*
G75*
G02X6808882Y-4001701I-008858J0000000D01*
G01X6791165Y-4001701D01*
G75*
G02X6782307Y-3992843I0000000J0008858D01*
G37*
G36*
G01X6721283Y-3992843D02*
G01X6721283Y-3973157D01*
G75*
G02X6730142Y-3964299I0008858J0000000D01*
G01X6747858Y-3964299D01*
G75*
G02X6756717Y-3973157I0000000J-008858D01*
G01X6756717Y-3992843D01*
G75*
G02X6747858Y-4001701I-008858J0000000D01*
G01X6730142Y-4001701D01*
G75*
G02X6721283Y-3992843I0000000J0008858D01*
G37*
M02*
