M48
; DRILL file {KiCad 5.99.0+really5.1.10+dfsg1-1} date Fri Apr 29 14:12:38 2022
; FORMAT={-:-/ absolute / metric / decimal}
; #@! TF.CreationDate,2022-04-29T14:12:38+03:00
; #@! TF.GenerationSoftware,Kicad,Pcbnew,5.99.0+really5.1.10+dfsg1-1
; #@! TF.FileFunction,Plated,1,4,PTH
FMAT,2
METRIC
T1C0.200
T2C0.400
T3C0.500
T4C0.550
T5C1.000
T6C1.300
T7C1.350
T8C1.500
T9C1.700
T10C3.500
%
G90
G05
T1
X166.209Y-71.975
X166.209Y-74.075
X168.309Y-71.975
X168.309Y-74.075
T2
X90.17Y-43.383
X90.17Y-46.736
X90.17Y-49.276
X90.17Y-51.816
X90.17Y-54.356
X90.17Y-56.896
X90.17Y-59.436
X90.17Y-61.976
X90.17Y-64.516
X90.17Y-67.056
X90.17Y-69.596
X90.17Y-72.136
X90.17Y-74.676
X90.17Y-77.216
X90.17Y-79.756
X90.17Y-82.296
X90.17Y-84.836
X90.17Y-87.376
X90.17Y-89.916
X90.17Y-92.456
X90.17Y-94.996
X90.17Y-97.536
X90.17Y-100.012
X90.17Y-102.616
X90.17Y-105.156
X90.17Y-107.696
X90.17Y-110.236
X90.17Y-112.776
X90.17Y-115.316
X90.17Y-117.856
X90.17Y-120.396
X90.17Y-122.936
X90.17Y-125.476
X90.17Y-127.762
X90.221Y-45.11
X90.373Y-41.707
X91.034Y-40.335
X91.44Y-86.106
X91.44Y-88.646
X91.44Y-91.237
X91.491Y-75.997
X91.491Y-78.537
X91.491Y-81.077
X91.542Y-73.457
X91.796Y-60.655
X91.999Y-39.268
X92.71Y-77.216
X93.32Y-38.456
X93.726Y-78.486
X93.98Y-47.752
X94.234Y-49.085
X94.234Y-58.991
X94.894Y-38.1
X95.758Y-78.486
X96.317Y-38.1
X96.71Y-58.991
X97.282Y-72.136
X97.638Y-38.1
X97.917Y-123.444
X98.298Y-96.647
X98.603Y-39.37
X98.669Y-109.962
X98.742Y-90.297
X98.958Y-38.1
X99.06Y-65.278
X99.314Y-58.991
X99.365Y-47.041
X99.568Y-92.456
X99.568Y-94.996
X99.746Y-71.488
X99.822Y-134.112
X99.885Y-49.657
X100.012Y-122.174
X100.101Y-39.878
X100.101Y-40.894
X100.127Y-38.811
X100.127Y-41.961
X100.127Y-43.002
X100.139Y-90.043
X100.279Y-44.044
X100.279Y-45.72
X100.333Y-57.77
X100.508Y-96.647
X100.533Y-59.69
X100.584Y-93.472
X100.686Y-47.295
X100.711Y-37.871
X101.001Y-71.465
X101.219Y-44.348
X101.219Y-49.085
X101.346Y-91.694
X101.6Y-58.674
X101.702Y-37.821
X101.727Y-123.571
X101.854Y-113.03
X102.108Y-88.773
X102.108Y-89.916
X102.26Y-44.348
X102.26Y-71.463
X102.276Y-79.375
X102.362Y-134.112
X102.425Y-49.022
X102.464Y-59.69
X102.489Y-62.865
X102.489Y-67.818
X102.692Y-37.795
X102.809Y-100.52
X103.302Y-44.348
X103.378Y-58.674
X103.632Y-49.212
X103.657Y-37.821
X103.723Y-71.547
X103.734Y-113.03
X103.988Y-83.566
X104.191Y-59.69
X104.369Y-44.171
X104.47Y-38.1
X104.712Y-81.915
X104.75Y-72.377
X104.775Y-38.913
X104.8Y-40.03
X104.8Y-41.046
X104.826Y-42.113
X104.826Y-43.155
X104.902Y-62.484
X105.004Y-44.958
X105.156Y-58.674
X105.156Y-61.062
X105.219Y-49.784
X105.664Y-47.729
X105.766Y-37.846
X105.766Y-39.116
X105.816Y-59.741
X105.969Y-65.634
X106.172Y-80.645
X106.236Y-85.217
X106.362Y-49.784
X106.426Y-51.816
X106.604Y-82.189
X106.883Y-37.846
X106.934Y-58.674
X106.934Y-66.599
X107.188Y-87.757
X107.285Y-72.624
X107.554Y-69.962
X107.554Y-71.745
X107.564Y-70.815
X107.632Y-49.721
X107.762Y-45.974
X108.077Y-83.185
X108.146Y-93.957
X108.153Y-37.846
X108.158Y-91.91
X108.158Y-92.9
X108.186Y-72.723
X108.331Y-114.046
X108.45Y-69.934
X108.575Y-104.14
X108.585Y-125.476
X108.585Y-128.524
X108.712Y-57.912
X108.9Y-91.394
X108.999Y-94.308
X109.131Y-72.705
X109.337Y-69.947
X109.639Y-74.612
X109.652Y-75.692
X109.652Y-76.695
X109.652Y-77.787
X109.825Y-91.394
X109.944Y-94.318
X109.982Y-115.443
X110.061Y-71.049
X110.068Y-72.045
X110.106Y-70.203
X110.325Y-95.745
X110.338Y-96.825
X110.338Y-97.828
X110.338Y-98.92
X110.668Y-74.612
X110.68Y-75.679
X110.736Y-91.384
X110.744Y-57.912
X110.744Y-83.195
X110.825Y-104.165
X110.876Y-94.318
X111.354Y-95.745
X111.366Y-96.812
X111.595Y-91.722
X111.615Y-93.622
X111.628Y-92.71
X112.522Y-58.293
X112.522Y-128.524
X112.522Y-134.112
X112.596Y-82.527
X112.649Y-125.349
X112.776Y-39.56
X112.878Y-66.497
X112.903Y-37.782
X113.03Y-43.942
X113.03Y-45.212
X113.088Y-103.734
X113.411Y-38.735
X113.411Y-40.513
X113.855Y-88.392
X113.983Y-37.782
X113.983Y-39.56
X114.168Y-75.697
X114.3Y-45.212
X114.808Y-49.53
X114.808Y-50.546
X115.113Y-37.897
X115.113Y-38.913
X115.113Y-39.929
X115.125Y-73.724
X115.164Y-95.86
X115.57Y-82.042
X116.027Y-119.786
X116.078Y-45.212
X116.332Y-58.293
X116.383Y-37.897
X116.383Y-38.913
X116.383Y-39.929
X116.586Y-40.894
X116.586Y-74.93
X116.84Y-81.661
X117.094Y-114.046
X117.475Y-73.088
X117.602Y-49.53
X117.602Y-50.546
X117.932Y-60.973
X117.932Y-62.039
X117.932Y-63.055
X118.445Y-73.878
X118.45Y-72.339
X118.45Y-81.577
X118.461Y-102.575
X118.471Y-76.454
X118.486Y-75.148
X118.486Y-77.714
X118.488Y-79.012
X118.514Y-80.282
X119.101Y-60.973
X119.101Y-62.039
X119.101Y-63.055
X119.283Y-94.336
X119.35Y-95.697
X119.352Y-97.018
X119.367Y-99.69
X119.38Y-98.407
X119.38Y-101.023
X119.38Y-102.306
X120.307Y-60.973
X120.307Y-62.039
X120.307Y-63.055
X120.65Y-38.1
X120.675Y-39.599
X121.526Y-60.947
X121.526Y-62.014
X121.526Y-63.03
X121.92Y-38.1
X122.58Y-42.52
X122.58Y-43.282
X122.961Y-39.688
X123.19Y-38.1
X123.251Y-57.79
X123.317Y-110.947
X123.317Y-112.192
X123.317Y-113.36
X123.444Y-51.816
X123.515Y-53.909
X123.571Y-125.222
X123.571Y-128.651
X123.698Y-46.228
X124.104Y-110.363
X124.104Y-114.021
X124.46Y-38.1
X124.795Y-57.77
X124.968Y-53.909
X124.968Y-72.39
X124.968Y-75.184
X124.968Y-77.47
X125.07Y-110.363
X125.07Y-114.021
X125.476Y-48.006
X125.476Y-58.674
X125.476Y-70.104
X125.603Y-95.631
X125.603Y-98.298
X125.603Y-100.965
X125.603Y-103.251
X125.73Y-38.1
X125.73Y-52.324
X125.73Y-118.872
X125.882Y-42.52
X125.882Y-43.282
X126.111Y-110.363
X126.111Y-114.021
X126.309Y-57.752
X126.441Y-39.98
X126.456Y-53.924
X126.835Y-42.52
X126.835Y-43.282
X127.0Y-38.1
X127.051Y-110.947
X127.051Y-112.192
X127.051Y-113.36
X127.457Y-109.525
X127.508Y-125.222
X127.635Y-128.524
X127.953Y-52.324
X127.968Y-53.932
X127.991Y-57.704
X128.016Y-48.006
X128.016Y-58.674
X128.27Y-38.1
X129.286Y-101.854
X129.456Y-53.947
X129.54Y-38.1
X129.54Y-73.406
X129.733Y-57.663
X129.743Y-130.099
X130.048Y-91.948
X130.048Y-93.599
X130.302Y-48.006
X130.302Y-52.324
X130.302Y-70.612
X130.302Y-134.112
X130.556Y-69.342
X130.556Y-77.216
X130.556Y-79.756
X130.556Y-82.296
X130.556Y-84.836
X130.607Y-128.626
X130.726Y-54.326
X130.81Y-38.1
X130.81Y-65.596
X130.815Y-57.043
X131.064Y-58.928
X131.115Y-107.391
X131.153Y-55.806
X131.572Y-70.104
X131.572Y-71.374
X131.724Y-133.502
X131.826Y-65.596
X131.902Y-123.977
X132.08Y-38.1
X132.524Y-52.324
X132.588Y-48.006
X132.842Y-59.944
X132.842Y-70.091
X132.842Y-134.112
X132.855Y-65.608
X133.147Y-102.006
X133.35Y-38.1
X133.807Y-65.608
X133.858Y-70.866
X134.62Y-38.1
X134.62Y-87.63
X134.62Y-89.662
X134.81Y-65.596
X134.838Y-79.644
X134.874Y-48.006
X134.874Y-52.324
X134.874Y-58.166
X134.874Y-60.198
X134.899Y-77.287
X135.001Y-96.124
X135.064Y-59.101
X135.191Y-67.246
X135.382Y-134.112
X135.484Y-103.581
X135.534Y-100.533
X135.636Y-66.294
X135.89Y-38.1
X136.017Y-120.98
X136.083Y-81.364
X136.144Y-96.139
X136.446Y-57.523
X136.55Y-109.576
X136.576Y-126.797
X136.703Y-105.664
X136.906Y-48.006
X137.16Y-38.1
X137.224Y-52.324
X137.414Y-96.119
X137.516Y-102.006
X137.846Y-125.425
X138.367Y-38.1
X138.811Y-96.139
X138.836Y-111.201
X138.938Y-48.006
X138.938Y-121.539
X139.065Y-123.063
X139.192Y-102.006
X139.319Y-125.476
X139.446Y-120.523
X139.51Y-52.324
X139.573Y-38.1
X140.157Y-40.996
X140.165Y-96.124
X140.208Y-45.212
X140.462Y-128.143
X140.487Y-115.418
X140.653Y-52.959
X140.663Y-78.908
X140.779Y-38.1
X141.097Y-58.166
X141.097Y-60.198
X141.16Y-48.006
X141.166Y-72.326
X141.249Y-120.574
X141.389Y-96.093
X141.541Y-53.911
X141.605Y-66.675
X141.732Y-133.858
X141.732Y-98.171
X141.755Y-78.908
X141.859Y-121.285
X141.986Y-38.1
X141.986Y-39.37
X141.986Y-58.166
X141.986Y-59.182
X141.986Y-60.198
X141.986Y-65.405
X142.24Y-131.318
X142.57Y-83.708
X142.575Y-84.546
X142.621Y-48.895
X142.697Y-128.143
X142.758Y-78.908
X142.771Y-79.936
X142.875Y-58.166
X142.875Y-59.182
X142.875Y-60.198
X142.875Y-107.061
X143.027Y-96.139
X143.129Y-38.1
X143.129Y-39.37
X143.256Y-42.113
X143.256Y-43.078
X143.256Y-43.993
X143.51Y-103.124
X143.838Y-78.895
X143.838Y-79.924
X144.082Y-48.895
X144.272Y-38.1
X144.272Y-39.37
X144.399Y-64.135
X144.526Y-43.307
X144.907Y-60.706
X144.907Y-67.691
X145.034Y-58.166
X145.034Y-59.436
X145.288Y-124.841
X145.415Y-38.1
X145.415Y-40.259
X145.669Y-129.794
X145.669Y-48.641
X145.753Y-77.122
X145.755Y-79.982
X146.177Y-39.688
X146.177Y-58.166
X146.304Y-37.91
X146.494Y-56.959
X146.558Y-100.584
X146.685Y-79.992
X146.69Y-77.102
X146.749Y-48.704
X146.812Y-38.862
X146.812Y-40.64
X146.939Y-66.802
X147.317Y-73.652
X147.32Y-58.166
X147.32Y-71.12
X147.383Y-37.91
X147.383Y-39.688
X147.574Y-50.038
X147.584Y-80.002
X147.648Y-77.122
X147.701Y-56.959
X147.828Y-129.54
X148.082Y-94.996
X148.336Y-49.022
X148.59Y-50.038
X148.59Y-58.039
X148.895Y-83.871
X149.225Y-130.175
X149.288Y-56.959
X149.322Y-113.441
X149.352Y-48.387
X149.669Y-50.8
X149.733Y-127.635
X149.808Y-97.836
X149.809Y-56.134
X149.923Y-101.917
X149.987Y-57.975
X150.241Y-85.928
X150.431Y-92.075
X150.47Y-56.896
X150.825Y-55.728
X150.876Y-131.064
X150.876Y-132.08
X151.308Y-55.067
X151.384Y-100.457
X151.511Y-56.896
X151.511Y-58.039
X151.765Y-37.973
X151.765Y-38.989
X151.765Y-40.005
X151.765Y-133.858
X151.892Y-55.689
X152.082Y-43.878
X152.082Y-44.767
X152.527Y-118.618
X152.59Y-104.013
X152.654Y-40.691
X152.908Y-39.522
X152.908Y-44.767
X152.959Y-91.694
X152.971Y-43.878
X153.035Y-37.973
X153.111Y-115.722
X153.162Y-58.674
X153.162Y-90.297
X153.162Y-105.359
X153.225Y-56.642
X153.797Y-60.071
X153.899Y-101.992
X153.924Y-132.08
X154.051Y-39.688
X154.178Y-37.91
X154.419Y-74.282
X154.661Y-61.265
X154.686Y-38.862
X154.686Y-40.64
X154.724Y-80.353
X154.749Y-82.461
X154.813Y-57.937
X154.826Y-78.181
X155.003Y-48.514
X155.118Y-91.694
X155.194Y-42.545
X155.194Y-43.688
X155.194Y-56.642
X155.257Y-37.91
X155.257Y-39.688
X155.27Y-100.457
X155.296Y-108.072
X155.638Y-88.582
X155.702Y-64.516
X155.702Y-134.112
X155.804Y-68.123
X155.905Y-101.575
X156.007Y-71.526
X156.337Y-55.855
X156.362Y-87.668
X156.654Y-124.523
X156.667Y-51.664
X156.667Y-56.693
X156.667Y-62.662
X156.845Y-110.871
X156.972Y-68.072
X157.251Y-49.936
X157.251Y-100.23
X157.328Y-107.378
X158.052Y-86.487
X158.242Y-134.112
X158.344Y-97.638
X158.394Y-75.286
X158.725Y-94.458
X158.762Y-95.687
X158.775Y-50.8
X158.852Y-49.759
X159.004Y-92.964
X159.385Y-114.808
X159.398Y-110.82
X159.495Y-100.23
X159.512Y-37.846
X159.563Y-47.701
X159.639Y-121.221
X159.652Y-87.084
X159.664Y-46.609
X159.69Y-49.911
X159.766Y-76.581
X159.913Y-93.68
X160.02Y-38.862
X160.147Y-111.823
X160.274Y-61.214
X160.401Y-102.108
X160.528Y-67.813
X160.553Y-85.915
X160.655Y-37.846
X160.655Y-40.005
X160.655Y-41.148
X160.655Y-42.291
X160.655Y-43.434
X160.655Y-44.577
X160.68Y-87.63
X160.782Y-66.294
X160.782Y-134.112
X160.833Y-54.585
X160.884Y-46.482
X161.1Y-92.456
X161.163Y-38.862
X161.229Y-76.154
X161.387Y-96.19
X161.412Y-97.257
X161.417Y-88.837
X161.493Y-79.146
X161.505Y-101.225
X161.722Y-53.518
X161.747Y-91.034
X161.747Y-37.846
X161.747Y-52.413
X161.925Y-66.675
X162.243Y-54.661
X162.509Y-89.814
X162.524Y-96.18
X162.55Y-97.246
X162.573Y-57.467
X162.611Y-81.788
X163.017Y-39.853
X163.017Y-40.869
X163.043Y-38.786
X163.043Y-41.935
X163.043Y-42.977
X163.17Y-92.608
X163.195Y-44.018
X163.322Y-132.334
X163.322Y-134.112
X163.576Y-61.976
X163.601Y-97.236
X163.627Y-37.846
X164.135Y-44.323
X164.16Y-60.706
X164.198Y-58.344
X164.351Y-57.315
X164.592Y-133.096
X164.617Y-37.795
X164.719Y-65.913
X164.826Y-76.043
X164.897Y-100.494
X165.1Y-61.976
X165.176Y-44.323
X165.227Y-70.993
X165.303Y-104.75
X165.354Y-56.388
X165.354Y-70.104
X165.557Y-99.568
X165.583Y-49.022
X165.608Y-37.77
X165.862Y-132.334
X165.862Y-134.112
X165.887Y-92.507
X166.116Y-86.843
X166.218Y-44.323
X166.573Y-37.795
X166.751Y-91.44
X166.766Y-96.632
X166.814Y-72.263
X166.814Y-73.724
X166.827Y-89.154
X167.132Y-133.096
X167.284Y-44.145
X167.386Y-38.075
X167.691Y-38.887
X167.703Y-72.263
X167.703Y-73.724
X167.716Y-40.005
X167.716Y-41.021
X167.742Y-42.088
X167.742Y-43.129
X168.148Y-56.896
X168.148Y-61.722
X168.389Y-51.206
X168.402Y-132.334
X168.402Y-134.112
X168.415Y-49.174
X168.656Y-104.902
X168.758Y-91.084
X168.808Y-57.404
X168.859Y-38.151
X168.91Y-60.96
X169.012Y-69.571
X169.164Y-62.738
X169.227Y-70.993
X169.24Y-74.981
X169.418Y-54.61
X169.647Y-68.44
X169.672Y-52.578
X169.926Y-58.674
X169.989Y-76.137
X170.078Y-64.046
X170.129Y-62.852
X170.18Y-93.535
X170.332Y-38.151
X170.536Y-87.579
X170.942Y-132.334
X170.942Y-134.112
X171.044Y-89.814
X171.196Y-50.8
X171.386Y-92.329
X171.653Y-38.151
X171.78Y-106.223
X171.831Y-96.71
X171.958Y-65.151
X172.148Y-91.186
X172.212Y-88.201
X172.212Y-133.35
X172.847Y-76.2
X172.872Y-38.151
X172.974Y-92.304
X173.037Y-96.266
X173.406Y-100.0
X173.482Y-58.801
X173.482Y-132.334
X173.482Y-134.112
X173.546Y-64.516
X173.736Y-105.029
X173.914Y-101.092
X174.193Y-38.151
X174.32Y-89.865
X174.752Y-133.35
X175.006Y-67.056
X175.26Y-72.517
X175.26Y-86.36
X175.26Y-88.138
X175.463Y-38.151
X175.616Y-68.732
X175.704Y-70.675
X175.819Y-105.435
X176.022Y-52.832
X176.022Y-132.334
X176.022Y-134.112
X176.134Y-92.196
X176.733Y-38.151
X177.292Y-39.37
X177.419Y-106.743
X177.546Y-40.894
X177.609Y-53.594
X177.8Y-90.043
X178.003Y-38.151
X178.054Y-52.324
X178.181Y-99.822
X178.562Y-39.624
X179.197Y-77.216
X179.197Y-89.662
X179.324Y-38.151
X179.324Y-59.944
X179.324Y-72.644
X179.502Y-53.746
X179.514Y-63.817
X179.553Y-49.835
X179.705Y-99.187
X180.632Y-86.449
X180.645Y-38.151
X181.165Y-94.348
X181.356Y-89.433
X182.067Y-38.151
X182.626Y-59.245
X183.388Y-100.076
X183.388Y-102.616
X183.388Y-105.156
X183.515Y-93.599
X183.642Y-38.506
X183.642Y-64.198
X183.744Y-71.628
X184.112Y-91.173
X184.658Y-59.753
X184.658Y-103.886
X184.912Y-60.706
X184.963Y-39.319
X185.039Y-70.866
X185.737Y-84.62
X185.928Y-40.386
X185.928Y-46.736
X185.928Y-49.276
X185.928Y-51.816
X185.928Y-54.356
X185.928Y-56.896
X185.928Y-59.436
X185.928Y-61.976
X185.928Y-64.516
X185.928Y-67.056
X185.928Y-69.596
X185.928Y-72.136
X185.928Y-74.676
X185.928Y-76.543
X185.928Y-79.756
X185.928Y-87.376
X185.928Y-89.916
X185.928Y-92.456
X185.928Y-105.156
X185.928Y-107.696
X185.928Y-110.236
X185.928Y-112.751
X185.928Y-115.316
X185.928Y-117.856
X185.928Y-120.396
X185.928Y-122.936
X185.928Y-125.476
X186.436Y-83.058
X186.588Y-41.758
X186.741Y-45.161
X186.792Y-43.434
T5
X133.756Y-118.974
X133.756Y-121.514
X133.756Y-124.054
X133.756Y-126.594
X171.602Y-79.375
X171.602Y-81.915
X174.142Y-79.375
X174.142Y-81.915
X176.682Y-79.375
X176.682Y-81.915
X179.222Y-79.375
X179.222Y-81.915
X181.762Y-79.375
X181.762Y-81.915
X183.515Y-95.186
X183.515Y-97.727
T6
X105.664Y-127.051
X110.664Y-127.051
X120.599Y-126.898
X125.599Y-126.898
T7
X92.456Y-103.552
X92.456Y-118.872
X94.996Y-98.552
X94.996Y-101.012
X94.996Y-106.092
X94.996Y-116.332
X94.996Y-121.412
X97.536Y-103.552
X97.536Y-118.872
T8
X94.996Y-54.102
T9
X92.456Y-51.562
X92.456Y-56.642
X97.536Y-51.562
X97.536Y-56.642
T10
X95.864Y-43.54
X95.864Y-129.54
X109.864Y-62.54
X109.864Y-108.54
X149.864Y-62.54
X149.864Y-108.54
X158.61Y-129.415
X181.864Y-43.54
X181.864Y-129.54
T3
X143.083Y-133.563G85X143.083Y-134.213
G05
X150.083Y-133.563G85X150.083Y-134.213
G05
T4
X143.933Y-131.188G85X144.233Y-131.188
G05
X148.933Y-131.188G85X149.233Y-131.188
G05
T0
M30
