G04 #@! TF.GenerationSoftware,KiCad,Pcbnew,7.0.6-7.0.6~ubuntu22.04.1*
G04 #@! TF.CreationDate,2023-07-26T21:33:09+03:00*
G04 #@! TF.ProjectId,TACNPR,5441434e-5052-42e6-9b69-6361645f7063,rev?*
G04 #@! TF.SameCoordinates,Original*
G04 #@! TF.FileFunction,Paste,Top*
G04 #@! TF.FilePolarity,Positive*
%FSLAX46Y46*%
G04 Gerber Fmt 4.6, Leading zero omitted, Abs format (unit mm)*
G04 Created by KiCad (PCBNEW 7.0.6-7.0.6~ubuntu22.04.1) date 2023-07-26 21:33:09*
%MOMM*%
%LPD*%
G01*
G04 APERTURE LIST*
G04 Aperture macros list*
%AMRoundRect*
0 Rectangle with rounded corners*
0 $1 Rounding radius*
0 $2 $3 $4 $5 $6 $7 $8 $9 X,Y pos of 4 corners*
0 Add a 4 corners polygon primitive as box body*
4,1,4,$2,$3,$4,$5,$6,$7,$8,$9,$2,$3,0*
0 Add four circle primitives for the rounded corners*
1,1,$1+$1,$2,$3*
1,1,$1+$1,$4,$5*
1,1,$1+$1,$6,$7*
1,1,$1+$1,$8,$9*
0 Add four rect primitives between the rounded corners*
20,1,$1+$1,$2,$3,$4,$5,0*
20,1,$1+$1,$4,$5,$6,$7,0*
20,1,$1+$1,$6,$7,$8,$9,0*
20,1,$1+$1,$8,$9,$2,$3,0*%
G04 Aperture macros list end*
%ADD10RoundRect,0.225000X-0.225000X-0.250000X0.225000X-0.250000X0.225000X0.250000X-0.225000X0.250000X0*%
%ADD11RoundRect,0.200000X0.275000X-0.200000X0.275000X0.200000X-0.275000X0.200000X-0.275000X-0.200000X0*%
%ADD12RoundRect,0.150000X0.825000X0.150000X-0.825000X0.150000X-0.825000X-0.150000X0.825000X-0.150000X0*%
%ADD13RoundRect,0.225000X0.250000X-0.225000X0.250000X0.225000X-0.250000X0.225000X-0.250000X-0.225000X0*%
%ADD14R,2.950000X3.500000*%
%ADD15RoundRect,0.250000X-0.325000X-0.650000X0.325000X-0.650000X0.325000X0.650000X-0.325000X0.650000X0*%
%ADD16RoundRect,0.250000X0.650000X-0.325000X0.650000X0.325000X-0.650000X0.325000X-0.650000X-0.325000X0*%
%ADD17RoundRect,0.225000X-0.250000X0.225000X-0.250000X-0.225000X0.250000X-0.225000X0.250000X0.225000X0*%
%ADD18RoundRect,0.250000X-0.475000X0.250000X-0.475000X-0.250000X0.475000X-0.250000X0.475000X0.250000X0*%
%ADD19RoundRect,0.250000X1.000000X0.650000X-1.000000X0.650000X-1.000000X-0.650000X1.000000X-0.650000X0*%
%ADD20RoundRect,0.237500X0.250000X0.237500X-0.250000X0.237500X-0.250000X-0.237500X0.250000X-0.237500X0*%
%ADD21RoundRect,0.200000X-0.275000X0.200000X-0.275000X-0.200000X0.275000X-0.200000X0.275000X0.200000X0*%
%ADD22RoundRect,0.150000X-0.825000X-0.150000X0.825000X-0.150000X0.825000X0.150000X-0.825000X0.150000X0*%
%ADD23RoundRect,0.250000X0.325000X0.650000X-0.325000X0.650000X-0.325000X-0.650000X0.325000X-0.650000X0*%
%ADD24RoundRect,0.250000X0.250000X0.475000X-0.250000X0.475000X-0.250000X-0.475000X0.250000X-0.475000X0*%
%ADD25RoundRect,0.225000X0.225000X0.250000X-0.225000X0.250000X-0.225000X-0.250000X0.225000X-0.250000X0*%
%ADD26R,3.500000X2.950000*%
%ADD27RoundRect,0.150000X-0.150000X0.825000X-0.150000X-0.825000X0.150000X-0.825000X0.150000X0.825000X0*%
%ADD28RoundRect,0.200000X0.200000X0.275000X-0.200000X0.275000X-0.200000X-0.275000X0.200000X-0.275000X0*%
%ADD29RoundRect,0.200000X-0.200000X-0.275000X0.200000X-0.275000X0.200000X0.275000X-0.200000X0.275000X0*%
%ADD30RoundRect,0.237500X-0.250000X-0.237500X0.250000X-0.237500X0.250000X0.237500X-0.250000X0.237500X0*%
%ADD31RoundRect,0.250000X0.450000X-0.262500X0.450000X0.262500X-0.450000X0.262500X-0.450000X-0.262500X0*%
%ADD32RoundRect,0.150000X0.150000X-0.512500X0.150000X0.512500X-0.150000X0.512500X-0.150000X-0.512500X0*%
%ADD33RoundRect,0.250000X-1.950000X-1.000000X1.950000X-1.000000X1.950000X1.000000X-1.950000X1.000000X0*%
%ADD34RoundRect,0.250000X-0.250000X-0.475000X0.250000X-0.475000X0.250000X0.475000X-0.250000X0.475000X0*%
%ADD35RoundRect,0.250000X-0.650000X0.325000X-0.650000X-0.325000X0.650000X-0.325000X0.650000X0.325000X0*%
%ADD36RoundRect,0.250000X0.650000X-1.000000X0.650000X1.000000X-0.650000X1.000000X-0.650000X-1.000000X0*%
%ADD37RoundRect,0.250000X0.262500X0.450000X-0.262500X0.450000X-0.262500X-0.450000X0.262500X-0.450000X0*%
%ADD38RoundRect,0.250000X-0.450000X0.262500X-0.450000X-0.262500X0.450000X-0.262500X0.450000X0.262500X0*%
%ADD39RoundRect,0.218750X-0.256250X0.218750X-0.256250X-0.218750X0.256250X-0.218750X0.256250X0.218750X0*%
%ADD40RoundRect,0.218750X0.256250X-0.218750X0.256250X0.218750X-0.256250X0.218750X-0.256250X-0.218750X0*%
%ADD41RoundRect,0.250000X0.475000X-0.250000X0.475000X0.250000X-0.475000X0.250000X-0.475000X-0.250000X0*%
%ADD42RoundRect,0.150000X0.587500X0.150000X-0.587500X0.150000X-0.587500X-0.150000X0.587500X-0.150000X0*%
%ADD43RoundRect,0.250000X-0.315000X0.315000X-0.315000X-0.315000X0.315000X-0.315000X0.315000X0.315000X0*%
%ADD44RoundRect,0.062500X-0.062500X0.362500X-0.062500X-0.362500X0.062500X-0.362500X0.062500X0.362500X0*%
%ADD45RoundRect,0.062500X-0.362500X0.062500X-0.362500X-0.062500X0.362500X-0.062500X0.362500X0.062500X0*%
%ADD46R,1.400000X1.150000*%
%ADD47RoundRect,0.150000X0.512500X0.150000X-0.512500X0.150000X-0.512500X-0.150000X0.512500X-0.150000X0*%
%ADD48RoundRect,0.150000X0.150000X-0.825000X0.150000X0.825000X-0.150000X0.825000X-0.150000X-0.825000X0*%
%ADD49RoundRect,0.218750X0.218750X0.256250X-0.218750X0.256250X-0.218750X-0.256250X0.218750X-0.256250X0*%
%ADD50RoundRect,0.250000X-0.262500X-0.450000X0.262500X-0.450000X0.262500X0.450000X-0.262500X0.450000X0*%
%ADD51RoundRect,0.218750X0.381250X-0.218750X0.381250X0.218750X-0.381250X0.218750X-0.381250X-0.218750X0*%
%ADD52RoundRect,0.340200X-0.559800X0.759800X-0.559800X-0.759800X0.559800X-0.759800X0.559800X0.759800X0*%
%ADD53RoundRect,0.112500X0.112500X-0.187500X0.112500X0.187500X-0.112500X0.187500X-0.112500X-0.187500X0*%
%ADD54RoundRect,0.218750X-0.218750X-0.256250X0.218750X-0.256250X0.218750X0.256250X-0.218750X0.256250X0*%
%ADD55RoundRect,0.150000X0.150000X-0.587500X0.150000X0.587500X-0.150000X0.587500X-0.150000X-0.587500X0*%
%ADD56R,2.510000X1.000000*%
%ADD57R,0.400000X1.500000*%
%ADD58R,0.770000X1.500000*%
%ADD59RoundRect,0.112500X-0.112500X0.187500X-0.112500X-0.187500X0.112500X-0.187500X0.112500X0.187500X0*%
%ADD60RoundRect,0.218750X-0.218750X-0.381250X0.218750X-0.381250X0.218750X0.381250X-0.218750X0.381250X0*%
%ADD61RoundRect,0.150000X-0.150000X0.587500X-0.150000X-0.587500X0.150000X-0.587500X0.150000X0.587500X0*%
%ADD62RoundRect,0.237500X0.300000X0.237500X-0.300000X0.237500X-0.300000X-0.237500X0.300000X-0.237500X0*%
%ADD63R,1.150000X1.400000*%
%ADD64R,0.650000X1.750000*%
%ADD65R,0.650000X1.000000*%
%ADD66RoundRect,0.218750X0.218750X0.381250X-0.218750X0.381250X-0.218750X-0.381250X0.218750X-0.381250X0*%
%ADD67RoundRect,0.250000X1.000000X-1.400000X1.000000X1.400000X-1.000000X1.400000X-1.000000X-1.400000X0*%
%ADD68RoundRect,0.250000X1.400000X1.000000X-1.400000X1.000000X-1.400000X-1.000000X1.400000X-1.000000X0*%
%ADD69RoundRect,0.340200X-0.759800X-0.559800X0.759800X-0.559800X0.759800X0.559800X-0.759800X0.559800X0*%
%ADD70RoundRect,0.340200X0.559800X-0.759800X0.559800X0.759800X-0.559800X0.759800X-0.559800X-0.759800X0*%
%ADD71R,1.050000X1.000000*%
%ADD72R,2.200000X1.050000*%
%ADD73O,0.890000X1.550000*%
%ADD74O,1.250000X0.950000*%
%ADD75R,0.400000X1.350000*%
%ADD76R,1.200000X1.550000*%
%ADD77R,1.500000X1.550000*%
%ADD78RoundRect,0.250000X-1.000000X-0.900000X1.000000X-0.900000X1.000000X0.900000X-1.000000X0.900000X0*%
%ADD79R,1.800000X1.000000*%
%ADD80RoundRect,0.232500X0.232500X0.232500X-0.232500X0.232500X-0.232500X-0.232500X0.232500X-0.232500X0*%
%ADD81RoundRect,0.062500X0.375000X0.062500X-0.375000X0.062500X-0.375000X-0.062500X0.375000X-0.062500X0*%
%ADD82RoundRect,0.062500X0.062500X0.375000X-0.062500X0.375000X-0.062500X-0.375000X0.062500X-0.375000X0*%
%ADD83RoundRect,0.075000X-0.662500X-0.075000X0.662500X-0.075000X0.662500X0.075000X-0.662500X0.075000X0*%
%ADD84RoundRect,0.075000X-0.075000X-0.662500X0.075000X-0.662500X0.075000X0.662500X-0.075000X0.662500X0*%
%ADD85R,1.200000X1.400000*%
G04 APERTURE END LIST*
D10*
X155562000Y-95758000D03*
X157112000Y-95758000D03*
D11*
X172182000Y-89501000D03*
X172182000Y-87851000D03*
D12*
X161275800Y-94132400D03*
X161275800Y-92862400D03*
X161275800Y-91592400D03*
X161275800Y-90322400D03*
X156325800Y-90322400D03*
X156325800Y-91592400D03*
X156325800Y-92862400D03*
X156325800Y-94132400D03*
D13*
X162052000Y-82042000D03*
X162052000Y-80492000D03*
D14*
X94430000Y-80264000D03*
X99880000Y-80264000D03*
D15*
X95172000Y-89154000D03*
X98122000Y-89154000D03*
D16*
X99745800Y-75681100D03*
X99745800Y-72731100D03*
D13*
X104521000Y-75260500D03*
X104521000Y-73710500D03*
D17*
X108066840Y-80240840D03*
X108066840Y-81790840D03*
D18*
X110744000Y-80167440D03*
X110744000Y-82067440D03*
D15*
X143038300Y-73682860D03*
X145988300Y-73682860D03*
D19*
X113107220Y-71368920D03*
X109107220Y-71368920D03*
D20*
X105184580Y-79375000D03*
X103359580Y-79375000D03*
D21*
X116840000Y-79058000D03*
X116840000Y-80708000D03*
X112593120Y-79738720D03*
X112593120Y-81388720D03*
D22*
X107608600Y-74409300D03*
X107608600Y-75679300D03*
X107608600Y-76949300D03*
X107608600Y-78219300D03*
X112558600Y-78219300D03*
X112558600Y-76949300D03*
X112558600Y-75679300D03*
X112558600Y-74409300D03*
D14*
X116520380Y-68834000D03*
X121970380Y-68834000D03*
D23*
X122732060Y-78999080D03*
X119782060Y-78999080D03*
X122729520Y-76464160D03*
X119779520Y-76464160D03*
X122706660Y-81551780D03*
X119756660Y-81551780D03*
X122714280Y-73914000D03*
X119764280Y-73914000D03*
D18*
X140223240Y-84541320D03*
X140223240Y-86441320D03*
D24*
X137983000Y-79644240D03*
X136083000Y-79644240D03*
D11*
X141157960Y-74860920D03*
X141157960Y-73210920D03*
D25*
X137813080Y-77282040D03*
X136263080Y-77282040D03*
D21*
X139684760Y-73216000D03*
X139684760Y-74866000D03*
D26*
X146964400Y-86581400D03*
X146964400Y-92031400D03*
D10*
X143227760Y-69016880D03*
X144777760Y-69016880D03*
D27*
X143832580Y-77004140D03*
X142562580Y-77004140D03*
X141292580Y-77004140D03*
X140022580Y-77004140D03*
X140022580Y-81954140D03*
X141292580Y-81954140D03*
X142562580Y-81954140D03*
X143832580Y-81954140D03*
D15*
X143066240Y-71231760D03*
X146016240Y-71231760D03*
D28*
X138508240Y-82839560D03*
X136858240Y-82839560D03*
D29*
X136840460Y-84488020D03*
X138490460Y-84488020D03*
D16*
X102247700Y-75681100D03*
X102247700Y-72731100D03*
D30*
X103329100Y-77609700D03*
X105154100Y-77609700D03*
D31*
X120650000Y-118006500D03*
X120650000Y-116181500D03*
D29*
X141669000Y-104952800D03*
X143319000Y-104952800D03*
D32*
X130114000Y-105683900D03*
X131064000Y-105683900D03*
X132014000Y-105683900D03*
X132014000Y-103408900D03*
X131064000Y-103408900D03*
X130114000Y-103408900D03*
D33*
X94098000Y-65278000D03*
X102498000Y-65278000D03*
D21*
X130048000Y-98362000D03*
X130048000Y-100012000D03*
X113111280Y-100927400D03*
X113111280Y-102577400D03*
D11*
X114757200Y-102831400D03*
X114757200Y-101181400D03*
D10*
X105143000Y-83820000D03*
X106693000Y-83820000D03*
D17*
X108574840Y-101333000D03*
X108574840Y-102883000D03*
D25*
X108636100Y-89608660D03*
X107086100Y-89608660D03*
D23*
X123552480Y-94335600D03*
X120602480Y-94335600D03*
D34*
X115864600Y-97891600D03*
X117764600Y-97891600D03*
D18*
X110490000Y-101031000D03*
X110490000Y-102931000D03*
D23*
X123587300Y-99689920D03*
X120637300Y-99689920D03*
X123585500Y-102306120D03*
X120635500Y-102306120D03*
X104472000Y-88265000D03*
X101522000Y-88265000D03*
D15*
X104951000Y-85852000D03*
X107901000Y-85852000D03*
D23*
X123570260Y-97017840D03*
X120620260Y-97017840D03*
D19*
X113937800Y-92925900D03*
X109937800Y-92925900D03*
D30*
X103636440Y-98806000D03*
X105461440Y-98806000D03*
D21*
X117805200Y-99860600D03*
X117805200Y-101510600D03*
D14*
X117094000Y-88900000D03*
X122544000Y-88900000D03*
D22*
X108307100Y-95542100D03*
X108307100Y-96812100D03*
X108307100Y-98082100D03*
X108307100Y-99352100D03*
X113257100Y-99352100D03*
X113257100Y-98082100D03*
X113257100Y-96812100D03*
X113257100Y-95542100D03*
D20*
X105448740Y-100545900D03*
X103623740Y-100545900D03*
D25*
X160147600Y-86143800D03*
X158597600Y-86143800D03*
D11*
X142036800Y-86727800D03*
X142036800Y-85077800D03*
D31*
X127533400Y-88669500D03*
X127533400Y-86844500D03*
D35*
X134874000Y-91994460D03*
X134874000Y-94944460D03*
X137287000Y-91997000D03*
X137287000Y-94947000D03*
X142113000Y-91997000D03*
X142113000Y-94947000D03*
D34*
X115001000Y-77216000D03*
X116901000Y-77216000D03*
D25*
X149365000Y-75590400D03*
X147815000Y-75590400D03*
D10*
X125907500Y-108394500D03*
X127457500Y-108394500D03*
D16*
X124307600Y-43029400D03*
X124307600Y-40079400D03*
D36*
X146705320Y-82759300D03*
X146705320Y-78759300D03*
D35*
X139700000Y-92002080D03*
X139700000Y-94952080D03*
D11*
X114071400Y-81424280D03*
X114071400Y-79774280D03*
D15*
X95108500Y-86741000D03*
X98058500Y-86741000D03*
D37*
X126525660Y-84165440D03*
X124700660Y-84165440D03*
X127252100Y-91363800D03*
X125427100Y-91363800D03*
D38*
X132715000Y-86463500D03*
X132715000Y-88288500D03*
D39*
X130048000Y-95034000D03*
X130048000Y-96609000D03*
D40*
X125730000Y-117627500D03*
X125730000Y-116052500D03*
D17*
X162026600Y-67843100D03*
X162026600Y-69393100D03*
D41*
X159542480Y-75245000D03*
X159542480Y-73345000D03*
D21*
X123698000Y-116015000D03*
X123698000Y-117665000D03*
D34*
X150688000Y-42164000D03*
X152588000Y-42164000D03*
D14*
X129217000Y-62738000D03*
X123767000Y-62738000D03*
D18*
X148107000Y-100876000D03*
X148107000Y-102776000D03*
D35*
X151739600Y-95349800D03*
X151739600Y-98299800D03*
D34*
X158409600Y-79857600D03*
X160309600Y-79857600D03*
D15*
X157835600Y-77622400D03*
X160785600Y-77622400D03*
D42*
X149375100Y-97266800D03*
X149375100Y-95366800D03*
X147500100Y-96316800D03*
D43*
X167909000Y-72375000D03*
X166609000Y-72375000D03*
X167909000Y-73675000D03*
X166609000Y-73675000D03*
D44*
X168259000Y-71100000D03*
X167759000Y-71100000D03*
X167259000Y-71100000D03*
X166759000Y-71100000D03*
X166259000Y-71100000D03*
D45*
X165334000Y-72025000D03*
X165334000Y-72525000D03*
X165334000Y-73025000D03*
X165334000Y-73525000D03*
X165334000Y-74025000D03*
D44*
X166259000Y-74950000D03*
X166759000Y-74950000D03*
X167259000Y-74950000D03*
X167759000Y-74950000D03*
X168259000Y-74950000D03*
D45*
X169184000Y-74025000D03*
X169184000Y-73525000D03*
X169184000Y-73025000D03*
X169184000Y-72525000D03*
X169184000Y-72025000D03*
D13*
X161290000Y-75014120D03*
X161290000Y-73464120D03*
X141224000Y-119240600D03*
X141224000Y-117690600D03*
X139573000Y-119240600D03*
X139573000Y-117690600D03*
D18*
X141579600Y-100192800D03*
X141579600Y-102092800D03*
D29*
X142227800Y-106578400D03*
X143877800Y-106578400D03*
D35*
X150582000Y-100121000D03*
X150582000Y-103071000D03*
D46*
X156294000Y-118707000D03*
X154094000Y-118707000D03*
X154094000Y-120307000D03*
X156294000Y-120307000D03*
D47*
X148330500Y-128712000D03*
X148330500Y-127762000D03*
X148330500Y-126812000D03*
X146055500Y-126812000D03*
X146055500Y-127762000D03*
X146055500Y-128712000D03*
D15*
X153719000Y-122682000D03*
X156669000Y-122682000D03*
D48*
X143078200Y-120610400D03*
X144348200Y-120610400D03*
X145618200Y-120610400D03*
X146888200Y-120610400D03*
X148158200Y-120610400D03*
X149428200Y-120610400D03*
X150698200Y-120610400D03*
X151968200Y-120610400D03*
X151968200Y-115660400D03*
X150698200Y-115660400D03*
X149428200Y-115660400D03*
X148158200Y-115660400D03*
X146888200Y-115660400D03*
X145618200Y-115660400D03*
X144348200Y-115660400D03*
X143078200Y-115660400D03*
D38*
X151511000Y-125452500D03*
X151511000Y-127277500D03*
D13*
X135686800Y-117259400D03*
X135686800Y-115709400D03*
D49*
X140919200Y-128371600D03*
X139344200Y-128371600D03*
D29*
X139281400Y-130048000D03*
X140931400Y-130048000D03*
D41*
X146761200Y-124825800D03*
X146761200Y-122925800D03*
D50*
X140438500Y-123063000D03*
X142263500Y-123063000D03*
X140946500Y-125476000D03*
X142771500Y-125476000D03*
D15*
X155243000Y-116332000D03*
X158193000Y-116332000D03*
D38*
X149098000Y-123039500D03*
X149098000Y-124864500D03*
D51*
X137287000Y-73071500D03*
X137287000Y-70946500D03*
D25*
X127201000Y-68834000D03*
X125651000Y-68834000D03*
D33*
X131791600Y-43078400D03*
X140191600Y-43078400D03*
D52*
X102616000Y-52031500D03*
X102616000Y-55156500D03*
D10*
X95618000Y-84709000D03*
X97168000Y-84709000D03*
D17*
X105740200Y-69227400D03*
X105740200Y-70777400D03*
D28*
X157416000Y-88646000D03*
X155766000Y-88646000D03*
D53*
X110744000Y-46008000D03*
X110744000Y-43908000D03*
D49*
X112801500Y-42418000D03*
X111226500Y-42418000D03*
D38*
X151917400Y-91391100D03*
X151917400Y-93216100D03*
D54*
X177127200Y-74625200D03*
X178702200Y-74625200D03*
D40*
X163525200Y-90144700D03*
X163525200Y-88569700D03*
D11*
X161899600Y-87337400D03*
X161899600Y-85687400D03*
D55*
X143830000Y-100962700D03*
X145730000Y-100962700D03*
X144780000Y-99087700D03*
D49*
X178714600Y-71787050D03*
X177139600Y-71787050D03*
D29*
X177102100Y-70212250D03*
X178752100Y-70212250D03*
D17*
X163776660Y-70621860D03*
X163776660Y-72171860D03*
D42*
X183614300Y-54239200D03*
X183614300Y-52339200D03*
X181739300Y-53289200D03*
X170482500Y-48575000D03*
X170482500Y-46675000D03*
X168607500Y-47625000D03*
D29*
X153505400Y-47244000D03*
X155155400Y-47244000D03*
D21*
X183946800Y-56286400D03*
X183946800Y-57936400D03*
D13*
X163982400Y-48527000D03*
X163982400Y-46977000D03*
D25*
X120028000Y-119888000D03*
X118478000Y-119888000D03*
D56*
X138277600Y-111760000D03*
X134967600Y-109220000D03*
X138277600Y-106680000D03*
X134967600Y-104140000D03*
X138277600Y-101600000D03*
X134967600Y-99060000D03*
D39*
X162458400Y-49275900D03*
X162458400Y-50850900D03*
D13*
X170180000Y-61633400D03*
X170180000Y-60083400D03*
D48*
X171894500Y-61898300D03*
X173164500Y-61898300D03*
X174434500Y-61898300D03*
X175704500Y-61898300D03*
X176974500Y-61898300D03*
X178244500Y-61898300D03*
X179514500Y-61898300D03*
X179514500Y-56948300D03*
X178244500Y-56948300D03*
X176974500Y-56948300D03*
X175704500Y-56948300D03*
X174434500Y-56948300D03*
X173164500Y-56948300D03*
X171894500Y-56948300D03*
D52*
X145796000Y-50520200D03*
X145796000Y-53645200D03*
D10*
X149910500Y-53530500D03*
X151460500Y-53530500D03*
X156514500Y-53530500D03*
X158064500Y-53530500D03*
D21*
X100126800Y-54750200D03*
X100126800Y-56400200D03*
D57*
X160875500Y-50870500D03*
D58*
X159670500Y-50870500D03*
D57*
X159575500Y-53530500D03*
X160875500Y-53530500D03*
D59*
X148082000Y-51528000D03*
X148082000Y-53628000D03*
D42*
X151813500Y-47432000D03*
X151813500Y-45532000D03*
X149938500Y-46482000D03*
D15*
X141476200Y-62433200D03*
X144426200Y-62433200D03*
D23*
X139397000Y-59182000D03*
X136447000Y-59182000D03*
D60*
X136859500Y-62230000D03*
X138984500Y-62230000D03*
D29*
X153505400Y-45466000D03*
X155155400Y-45466000D03*
D21*
X174244000Y-52769000D03*
X174244000Y-54419000D03*
D42*
X156855400Y-86090800D03*
X156855400Y-84190800D03*
X154980400Y-85140800D03*
D34*
X151691300Y-80264000D03*
X153591300Y-80264000D03*
X152732700Y-68199000D03*
X154632700Y-68199000D03*
D15*
X151777700Y-71247000D03*
X154727700Y-71247000D03*
D61*
X153299200Y-74246500D03*
X151399200Y-74246500D03*
X152349200Y-76121500D03*
D34*
X151643000Y-82296000D03*
X153543000Y-82296000D03*
X151701500Y-78206600D03*
X153601500Y-78206600D03*
D40*
X158191200Y-67945100D03*
X158191200Y-66370100D03*
D28*
X156603200Y-66395600D03*
X154953200Y-66395600D03*
D37*
X161745300Y-71628000D03*
X159920300Y-71628000D03*
D62*
X161898500Y-62230000D03*
X160173500Y-62230000D03*
D17*
X166738300Y-62153500D03*
X166738300Y-63703500D03*
D13*
X166738300Y-66891200D03*
X166738300Y-65341200D03*
D39*
X168363900Y-65333780D03*
X168363900Y-66908780D03*
D54*
X166722960Y-68483480D03*
X168297960Y-68483480D03*
D37*
X159060520Y-69723000D03*
X157235520Y-69723000D03*
D49*
X165189000Y-68846700D03*
X163614000Y-68846700D03*
D13*
X162052000Y-60211000D03*
X162052000Y-58661000D03*
D31*
X137718800Y-117447700D03*
X137718800Y-115622700D03*
D29*
X170523400Y-50444400D03*
X172173400Y-50444400D03*
D63*
X172174000Y-73118800D03*
X172174000Y-75318800D03*
X173774000Y-75318800D03*
X173774000Y-73118800D03*
D21*
X165061900Y-52641500D03*
X165061900Y-54291500D03*
D11*
X168313100Y-54266600D03*
X168313100Y-52616600D03*
D55*
X153037500Y-55468000D03*
X154937500Y-55468000D03*
X153987500Y-53593000D03*
D64*
X167824000Y-58459000D03*
D65*
X166624000Y-58084000D03*
X165424000Y-58084000D03*
X165424000Y-60534000D03*
X166624000Y-60534000D03*
X167824000Y-60534000D03*
D21*
X166674800Y-52616600D03*
X166674800Y-54266600D03*
D25*
X160147600Y-84365800D03*
X158597600Y-84365800D03*
D31*
X92202000Y-48867700D03*
X92202000Y-47042700D03*
D37*
X184300500Y-48895000D03*
X182475500Y-48895000D03*
D50*
X143764000Y-66040000D03*
X145589000Y-66040000D03*
D38*
X101346000Y-125833500D03*
X101346000Y-127658500D03*
D37*
X116894500Y-110851000D03*
X115069500Y-110851000D03*
X184694500Y-123176000D03*
X182869500Y-123176000D03*
D31*
X157480000Y-73556500D03*
X157480000Y-71731500D03*
D52*
X105156000Y-51993000D03*
X105156000Y-55118000D03*
D54*
X154228600Y-51714400D03*
X155803600Y-51714400D03*
D24*
X175092400Y-48666400D03*
X173192400Y-48666400D03*
D66*
X174290500Y-46736000D03*
X172165500Y-46736000D03*
D67*
X94673000Y-93853000D03*
X101473000Y-93853000D03*
D68*
X132842000Y-74774000D03*
X132842000Y-67974000D03*
D37*
X157264500Y-109346000D03*
X155439500Y-109346000D03*
X115974500Y-59436000D03*
X114149500Y-59436000D03*
D52*
X107696000Y-51993000D03*
X107696000Y-55118000D03*
D41*
X121158000Y-42860000D03*
X121158000Y-40960000D03*
D49*
X115849500Y-42418000D03*
X114274500Y-42418000D03*
D10*
X114287000Y-43942000D03*
X115837000Y-43942000D03*
D11*
X175133000Y-66611000D03*
X175133000Y-64961000D03*
D31*
X177342800Y-48715300D03*
X177342800Y-46890300D03*
D69*
X107696000Y-47752000D03*
X110821000Y-47752000D03*
D16*
X128117600Y-43029400D03*
X128117600Y-40079400D03*
D52*
X113347500Y-49999500D03*
X113347500Y-53124500D03*
D70*
X110871000Y-53124500D03*
X110871000Y-49999500D03*
D17*
X169938700Y-65328500D03*
X169938700Y-66878500D03*
D54*
X163565840Y-67157600D03*
X165140840Y-67157600D03*
D25*
X163525800Y-65565020D03*
X161975800Y-65565020D03*
D54*
X161950400Y-63906400D03*
X163525400Y-63906400D03*
D25*
X166598600Y-50914300D03*
X165048600Y-50914300D03*
D21*
X163474400Y-52642000D03*
X163474400Y-54292000D03*
D71*
X158217600Y-59688200D03*
D72*
X156692600Y-61163200D03*
X156692600Y-58213200D03*
D73*
X143083400Y-133888000D03*
D74*
X144083400Y-131188000D03*
X149083400Y-131188000D03*
D73*
X150083400Y-133888000D03*
D75*
X145283400Y-131188000D03*
X145933400Y-131188000D03*
X146583400Y-131188000D03*
X147233400Y-131188000D03*
X147883400Y-131188000D03*
D76*
X143683400Y-133888000D03*
D77*
X145583400Y-133888000D03*
X147583400Y-133888000D03*
D76*
X149483400Y-133888000D03*
D52*
X116078000Y-50038000D03*
X116078000Y-53163000D03*
D78*
X120713500Y-112395000D03*
X125013500Y-112395000D03*
D38*
X127355600Y-72544300D03*
X127355600Y-74369300D03*
D25*
X182943800Y-94234000D03*
X181393800Y-94234000D03*
D10*
X181851000Y-100584000D03*
X183401000Y-100584000D03*
D17*
X174052000Y-108141000D03*
X174052000Y-109691000D03*
X156082000Y-100621000D03*
X156082000Y-102171000D03*
X175582000Y-107801000D03*
X175582000Y-109351000D03*
D18*
X171020500Y-110302000D03*
X171020500Y-112202000D03*
D35*
X158082000Y-100726000D03*
X158082000Y-103676000D03*
D15*
X164945800Y-94945200D03*
X167895800Y-94945200D03*
D17*
X174882000Y-112801000D03*
X174882000Y-114351000D03*
D13*
X164682000Y-112751000D03*
X164682000Y-111201000D03*
D25*
X169939000Y-113792000D03*
X168389000Y-113792000D03*
D21*
X184482000Y-96251000D03*
X184482000Y-97901000D03*
D11*
X176276000Y-95821000D03*
X176276000Y-94171000D03*
X175006000Y-92798500D03*
X175006000Y-91148500D03*
D21*
X170434000Y-91377000D03*
X170434000Y-93027000D03*
X171958000Y-91123000D03*
X171958000Y-92773000D03*
X173482000Y-91123000D03*
X173482000Y-92773000D03*
X163626800Y-102045000D03*
X163626800Y-103695000D03*
D11*
X165455600Y-108724200D03*
X165455600Y-107074200D03*
D29*
X162197000Y-97486000D03*
X163847000Y-97486000D03*
X161957000Y-100576000D03*
X163607000Y-100576000D03*
D28*
X179607000Y-110176000D03*
X177957000Y-110176000D03*
D21*
X168656000Y-107125000D03*
X168656000Y-108775000D03*
X163068000Y-111189000D03*
X163068000Y-112839000D03*
X160662000Y-96361000D03*
X160662000Y-98011000D03*
X176482000Y-112751000D03*
X176482000Y-114401000D03*
X170180000Y-106871000D03*
X170180000Y-108521000D03*
X183642000Y-117818500D03*
X183642000Y-119468500D03*
X182118000Y-108903000D03*
X182118000Y-110553000D03*
D29*
X177965500Y-92202000D03*
X179615500Y-92202000D03*
D17*
X168882000Y-91401000D03*
X168882000Y-92951000D03*
D79*
X174244000Y-86086000D03*
X174244000Y-83586000D03*
D13*
X176276000Y-86701000D03*
X176276000Y-85151000D03*
D10*
X176263000Y-83566000D03*
X177813000Y-83566000D03*
D25*
X185991800Y-79552800D03*
X184441800Y-79552800D03*
D11*
X175768000Y-81534000D03*
X175768000Y-79884000D03*
X173939200Y-78904600D03*
X173939200Y-77254600D03*
X182829200Y-81139800D03*
X182829200Y-79489800D03*
D28*
X178765200Y-76301600D03*
X177115200Y-76301600D03*
D15*
X177391800Y-79552800D03*
X180341800Y-79552800D03*
D18*
X152908000Y-84140000D03*
X152908000Y-86040000D03*
D10*
X178803000Y-81534000D03*
X180353000Y-81534000D03*
D80*
X168910000Y-84596000D03*
X168910000Y-83446000D03*
X168910000Y-82296000D03*
X167760000Y-84596000D03*
X167760000Y-83446000D03*
X167760000Y-82296000D03*
X166610000Y-84596000D03*
X166610000Y-83446000D03*
X166610000Y-82296000D03*
D81*
X170197500Y-85196000D03*
X170197500Y-84696000D03*
X170197500Y-84196000D03*
X170197500Y-83696000D03*
X170197500Y-83196000D03*
X170197500Y-82696000D03*
X170197500Y-82196000D03*
X170197500Y-81696000D03*
D82*
X169510000Y-81008500D03*
X169010000Y-81008500D03*
X168510000Y-81008500D03*
X168010000Y-81008500D03*
X167510000Y-81008500D03*
X167010000Y-81008500D03*
X166510000Y-81008500D03*
X166010000Y-81008500D03*
D81*
X165322500Y-81696000D03*
X165322500Y-82196000D03*
X165322500Y-82696000D03*
X165322500Y-83196000D03*
X165322500Y-83696000D03*
X165322500Y-84196000D03*
X165322500Y-84696000D03*
X165322500Y-85196000D03*
D82*
X166010000Y-85883500D03*
X166510000Y-85883500D03*
X167010000Y-85883500D03*
X167510000Y-85883500D03*
X168010000Y-85883500D03*
X168510000Y-85883500D03*
X169010000Y-85883500D03*
X169510000Y-85883500D03*
D13*
X180289200Y-113297000D03*
X180289200Y-111747000D03*
D83*
X167795500Y-97580000D03*
X167795500Y-98080000D03*
X167795500Y-98580000D03*
X167795500Y-99080000D03*
X167795500Y-99580000D03*
X167795500Y-100080000D03*
X167795500Y-100580000D03*
X167795500Y-101080000D03*
X167795500Y-101580000D03*
X167795500Y-102080000D03*
X167795500Y-102580000D03*
X167795500Y-103080000D03*
D84*
X169208000Y-104492500D03*
X169708000Y-104492500D03*
X170208000Y-104492500D03*
X170708000Y-104492500D03*
X171208000Y-104492500D03*
X171708000Y-104492500D03*
X172208000Y-104492500D03*
X172708000Y-104492500D03*
X173208000Y-104492500D03*
X173708000Y-104492500D03*
X174208000Y-104492500D03*
X174708000Y-104492500D03*
D83*
X176120500Y-103080000D03*
X176120500Y-102580000D03*
X176120500Y-102080000D03*
X176120500Y-101580000D03*
X176120500Y-101080000D03*
X176120500Y-100580000D03*
X176120500Y-100080000D03*
X176120500Y-99580000D03*
X176120500Y-99080000D03*
X176120500Y-98580000D03*
X176120500Y-98080000D03*
X176120500Y-97580000D03*
D84*
X174708000Y-96167500D03*
X174208000Y-96167500D03*
X173708000Y-96167500D03*
X173208000Y-96167500D03*
X172708000Y-96167500D03*
X172208000Y-96167500D03*
X171708000Y-96167500D03*
X171208000Y-96167500D03*
X170708000Y-96167500D03*
X170208000Y-96167500D03*
X169708000Y-96167500D03*
X169208000Y-96167500D03*
D85*
X181864000Y-98720000D03*
X181864000Y-96520000D03*
X180164000Y-96520000D03*
X180164000Y-98720000D03*
D29*
X177127400Y-68630800D03*
X178777400Y-68630800D03*
D21*
X167081200Y-107125000D03*
X167081200Y-108775000D03*
X159082000Y-97451000D03*
X159082000Y-99101000D03*
D10*
X183457000Y-102216000D03*
X185007000Y-102216000D03*
D21*
X178112000Y-112701000D03*
X178112000Y-114351000D03*
X161391600Y-111189000D03*
X161391600Y-112839000D03*
D37*
X154544500Y-100176000D03*
X152719500Y-100176000D03*
D60*
X160657000Y-105376000D03*
X162782000Y-105376000D03*
D39*
X159308800Y-45745300D03*
X159308800Y-47320300D03*
D29*
X160820600Y-47498000D03*
X162470600Y-47498000D03*
D37*
X157464500Y-105566000D03*
X155639500Y-105566000D03*
D25*
X163747000Y-99046000D03*
X162197000Y-99046000D03*
D28*
X183146200Y-59791600D03*
X181496200Y-59791600D03*
D56*
X182219600Y-63804800D03*
X185529600Y-66344800D03*
X182219600Y-68884800D03*
X185529600Y-71424800D03*
X182219600Y-73964800D03*
X185529600Y-76504800D03*
M02*
